
<svg xmlns="http://www.w3.org/2000/svg" viewBox="0 0 9833 7878"><g id="Landen"><g id="NEDERLAND" stroke="#231f20" stroke-linejoin="round" stroke-width=".4"><path id="NL-09" fill="#f26e26" d="M3793 4254c-4-6-2-16-6-21 0-2 0-5 2-8 3 0 0-8-1-12v2h-1v-1l-1 1h-1v-1l-1 1v-1l-1-1c0 1-2-1-1 2l-2-2h-2v-1l-1 1c0-1 0 0 0 0v-1h-1c-1-1-2-1-2-4-1 4 0 3 0 0 0 0 2-2 0-2l-4 2h-3l-10-4c0-2 5 3 8 1-2 1-4 0-6-1-5-3 0-4-5-7-1-5-4-11-3-15l-4-2c0-2-1 2 1 1 0 2-5 1-2 0l-2-1h2c1 0-1-1 0 0v-1h-2c-7 0-14-1-20 4l-2 1c0 1-2 0-1 1h-1s-1 0 0 0h-1l-1 1c0-1 0 0 0 0 0-1-1 0 0 0l-12 3-8 2h-3c1 2-2 2-2 3-3-2-8-3-12-1h1l-1-1h-1c-2-1-5 3-8 2l-9 1h-2l-3 1c-1 2-9 4-10 1 0 5-9 7-15 11l-1 1c-6 3-18 7-17 14h1l2 3 3 3v-1l1 2 1 1h2v2s-4 0-2 1l-1 2v1h2v1h1s0 1 0 0h3l1-1h1c0 1 0 2 1 1v2h1l-1 1 1 1h-1v3h1l1 2s-1 0 0 0h2v2c2 0 0 0 1 1l1 1v2c-1 0-2 1-1 2l2 2h2c2 5 5-5 8-5h2l1-1h1v-1l1-1h1v-1l2 1c1 1 3-2 1 2v1l1 1c-1 0 0 2 1 1v2h10c-1 1 1 2 2 2 3 0 6-3 8-3 0-2 2 2 2 2 1 2 3 5 4 2l1-2h1l7-4s0-2 2-2c4-3 8-1 7 4 0 6 10 10 6 15 0 4-5 6-6 8 2 1 3 3 2 5 1 2 1 0 1-1 2-2 5 1 6 2 1 2-1 5 3 4h1l-2 7c2 3 8 1 6 6h1v1c1-1 6-2 5 0 4-5 4-1 7-5 2-1 2 3 4-2h2l1-2v-3c1-1 3-2 1-4 3 0 3-2 1-3l3-5c2 7 5-2 6 2 3-1 4-5 7-6 1-1 2 4 3 5 0 4 2 0 4-1l7-8 3 3c2 1-4 7 0 6 1-1 1 1 2 1 1 1 2 4 3 3 0 8 12-24 13-29-1 0 0 0 0 0Zm-144-18c-2 1-2 0-2-1h-1c3 2-5 5-5 3l1-1h1v-1h1v-1h-8v-2c1-1-2-3 0-3v-1c-2 1-1-2-1-2-1-1 1-1 1-2 2 0 3 1 3 2 2 0 4 0 4 2 2 0 2-2 4-1 0-2 1-2 2-2 2-1 1 1 2 1h1c-2 0 0 2 1 1v1l-5 2v2l1 3Zm24-52c2 5 3-1 3-2l1 1 4-1c-2-1 4-1 1-2 2 2 1-1-1-1h1l2 2-1-2c1 0 0 0 0 0h1c0 1 0 2 2 1 0 0-1 0 0 0h1-1l1-1v-1c0-2 0 2 1 1v-1l-1-1 1 1c1 0 4 0 1-1l3-1h1c13-4-17-1-19 2 2-3-2 5-1 6Zm-53 6c2 5 7 5 11 1 0-2 6-1 6 0l12-4c21-6-17 1-22 0-4-1 0-1 1-1-3-1-7 0-8 4Z"/><path id="NL-08" fill="#f16522" d="M3579 4210c-3 0 1-2 1-2 0-2 3-1 4-3 4 1 5-2 7-1 3-1 5-5 9-5 2 0 8-1 6-2h-2c0 1 0 0 0 0 1 0-1 0 0 0l-1-1c1 0-1-1 0 0v-1l1 1 1 1 1-1h-1v-1c1 1 2 2 3 0-1-1-1-1 0 0l2-1c-1 0-1 0 0 0 0-1-1-1 0 0 0 0 3 0 2-1 8-4-28 3-36 11-4 3-3 8 3 6Zm141 144c1-2-2-1-2-3s-1 0-2 0c-2-4-4-5-5 1h-2c-1 2-1 3-4 3 2 6-9 0-13 1h-2l-1-1 2-1s2 0 1-1l1-2h-1c0-1-3-3-2-4 2 0 1-2 1-4 3-4 1-10-5-7l-2 1v-2c-2-2-3-2-3-5-2-1 0-3 0-6 3-3 0-1-2-1 3-6-5-2-7-3-2-3 8-3 7-6h1v-1c1-1-1-4 1-5 1-3 5-2 6-5 2-2-1-3 1-4 5-1 14-9 3-8l1-4 3-6c1-1 2 4 3 1l3 1c2 0 4 2 5-2-1 0-4-3-3-4 4-2 6-5 7-9s-7-8-7-13c1-5-3-7-7-4-2 0-2 2-2 2l-7 4h-1l-1 2c-1 3-3 0-4-2 0 0-2-4-2-2-2 0-5 3-8 3-1 0-3-1-2-2h-10v-2c-1 1-2-1-1-1l-1-1v-1c2-4 0-1-1-2l-2-1-1 1-1 1v1h-1l-1 1h-2c-3 0-6 10-8 5h-2l-2-2c-1-1 0-2 1-2v-2l-1-1c-1-1 1-1-1-1v-2h-2l-1-2h-1v-4l1-1h-1v-2c-1 1-1 0-1-1h-1l-1 1h-3c0 1 0 0 0 0h-1v-1h-2v-1l1-2c-2-1 1-1 2-1v-2h-2l-1-1-1-2v1l-3-3-2-3h-1c-5 0-12 11-13 16l2-3-2 2v1l1 1-1-1c3 5-2 14-6 17l-1 1c0-1 0-2 0 0-1 1-1-2-1-1l-12 11c-7 6-1 1 1 0 1-2 12-12 13-10 3-5 4-3 7 3h-1c0-1 0 0 0 0v1l-1-1s0 1 0 0h-1v2h1c0 1 1 3 1 1h1l-1 1 1 1v3l-1 1h1v1l1 4 1 1s0 1 0 0c1 0-1-1 0 0l-1 1 1 1c-1-1-1 1-1 1-2 1 0 2 0 4 1 3-1 3-3 5l-2 2h1c-1 1 4 5 7 6h3v-1l10 3c4 1 3-4 6-3l4-2s2 1 1 2c2 1 2 0 2-1 0 3 3 0 3 2v-1l1 1v-1 1h1c-11 2-14 21-11 32-1 0 0 0 0 0h1c0 1 7 6 4 8l-11 6-1 1c2 2-4 5-7 5v2l-1 1 1-1v1l-1 1h-1c2-7 5-11-3-18l1-1h-1c-2-3-11-11-13-8l-1 1c1 1 3-2 2-1l-2 1 1-1c10-1 23 17 15 27 1 3 0-1 1 0 1-1 1 3 1 2-4 5-12 9-18 15 5 5 12 7 17 0 3-6 8 6 13 7 2-1 3-5 5-5 6-1 2 4 3 7l2-2 10-7h1c0 1 1 1 0 0 1 1 3-2 4-3l3-2c-1 0 0-4 1-2l1 1h-1 1l-1 2-8 7v1-1l-1 1-1 1c-2 0-1 2-2 2h-2l3 4v2l1 1v2l4 1v5c1 1 2 2 0 3h9c3 0 3 4 6 1s9-1 10-4c3-3 0 3 3 1h3l1 1v-1l-1-3 1-4c-1-3 4-5 2-1 2 0 2 1 2 3h3c4-1 7-2 9-4 2-3 10 8 16-1 0-2-4-5-2-9 3-4 6 0 6-9-3-3 3-2 4-5v-2c-1 0 0 0 0 0l1-1c-1 0-1-1 0 0v-1Zm-68-13c-6-4-14 0-19-5 0-3 8-2 11-2 5-1 22-2 24-9h2l2 2 2 2c-2-2-3-1-5 1v1c0-1 0 0 0 0v-1l-1 1c-2-1-3 0-2 2 0-3-1-2-2-1h-3l-1 1s0-1 0 0v-1h-3v1h-1l-3 1c1 0 0 0 0 0v4c1 1 4 0 1 1h-2c2 0 2 3 3 4l1 1v1l-4-4Zm5 9-2 7c1 0-2 5-2 2 2-2-1 1 1 2 0 0 1 1 0 0-3-2 3-7 2-11v-4s1 0 0 0h1v4Zm-22-124v1c0 1 0 3 1 2v1c-2 0 1 2 0 3v2l3-1c1 1 6 0 5 1v1h-1v1h-1c-3 3 3 1 5 0l-1-2c1 0 1-1 1 1h2l-1-3v-2l5-2v-1c-1 1-3-1-1-1h-1c-1 0 0-2-2-1-1 0-2 0-2 2-2-1-2 1-4 1 0-2-2-2-4-2 0-1-1-2-3-2l-1 1Zm10 111c0-2-4-2-3-1l1 2c1-1 2 2 2-1Zm-77-118c-9-4-18 11-25 16 1 3 4-1 7 0l3-5c0-1 2 0 0-1l2-1c-1-1 2 0 1-1v-1c3-2 8-7 12-6l-1-1h1Z"/><path id="NL-07" fill="#f05d22" d="M3788 4388c-12-7 6-21-5-27-2-2-4-5-4-8-3-8-3-1-6 2-3 1-10-1-11-3-6 1-11 1-16-3-1-4 0-8-3-12h4c1-3 2 0 5-2-8-5-4-4-6-10l-1-1c3-2 3-4 6-4l2-1h1l1 1 2-1c1-1 3 1 5-1l4 1c1 3 5 1 7 0 2 0 6 3 8 0l-1-36c-1 1-2-2-3-3-1 0-1-2-2-1-4 1 2-5 0-6l-3-4c-1 3-4 6-7 9-2 1-4 5-4 1-1-1-2-7-3-5-3 1-4 5-7 6-1-4-4 5-6-2l-3 5c2 1 2 3-1 3 1 2 0 3-1 4 2 3-1 3-1 5 0 1-2-1-2 1-1 1-2 3-3 1-1 1-3 4-4 1-6 6-1 1-9 4v-1h-1c2-5-4-3-6-6l2-7h-1c-4 1-2-2-3-4s-6-4-6 0c-1 0 0-2-1-1l-1 1-3-1-3-1c-1 2-1 0-2-1s-2 2-2 3l-3 3c0 3-1 5 2 4 8 1-3 7-4 8-4 0 0 2-2 4-1 3-4 2-6 4l-1 2v5h-1c1 3-10 3-7 6 2 1 10-2 7 3 2 0 5-2 2 1 0 3-2 5 0 6 0 3 1 3 3 5v2l2-1c6-3 8 3 5 8 0 1 1 3-1 3-1 1 2 3 2 4h1l-1 2c1 1-1 1-1 1l-2 1 1 1h2c4-1 15 5 13-1 3 1 3-2 4-3h2c1-6 4-4 6-1 0-2 1-1 1 1 1 1 2 0 2 2 0 0 0 1 0 0v1l-1 1v2c-2 3-7 2-3 5-1 9-3 5-7 9-2 4 3 7 2 9-6 9-14-2-16 1-2 2-5 3-9 4h-1l-2-1-1-2h-1c2-4-3-2-2 1-2 3 0 5 0 7v1l-1-1c-2-1-6 2-5-2-1 2-3 3-5 2-2 1-11 3-7 5 1 3 1 3-2 4l-1 1-3 1c-1 2 3 3 2 3-2-1-1 1-4 1l2 2c-3 7 6 3 6 9 1-1-5 1-2 3l-1 1 1 1h4l2 1c1-2 8-2 6 2 3 1 8 1 9-3 0-4 3-7 7-8h1l2-1s2 0 1-1h2l2 1 1 1v1c2 4 8 5-1 7 1 4-9 7-5 10 5-2 10-1 15 1 2 2 3 2 4 5-1 0-2 2-3 1h-1v1l-1 1-1-1v-1c-1 0 0 0 0 0h-1v1h1l-1 1h-8l2 4 1 1h1l1 1-1 2c0 2-2 4-3 4h1c-1 1 0 1 1 2 4 2 0 6 9 4 2 1 3-2 5 0 1 0 0 4 3 3 1 0 3-1 4 1l1 2 2-1 2 1v-4l-1-1-1-2h3l1 1h2c1-2 2 3 3 1 1-1 4-1 3-2l4-3h2c3-3 9-6 13-7 3 1 4 5 8 0 3-2 4-5 4-9 3 0 4-4 2-6-4-1-7-5-12-7-4 1-4-2-3-5 3-1 7-2 5-5 2 0 1-2 1-4 11-1 11 1 14-9 3-5 5 0 8-8v-3h1c2-2 7 0 8-4Zm-83-105Z"/><path id="NL-06" fill="#de4026" d="m3709 4437-1-1s1 0 0 0c-2 0-2-3-3-4-3 0-7-2-9-1h-2c0-2-6 4-5-2 3-2 6-4 7-8 8-1 2-3 0-6l-1-1v-1l-2-1h-2c1 1-1 1-1 1l-2 1h-1c-4 1-7 4-7 8-1 4-6 4-9 3 2-4-5-4-6-2l-2-1h-4l-1-1 1-1c-3-2 3-4 2-3 0-7-11-2-15-2 1 2-2 2-3 2-1 2-2 0-3 1l-7 2-3 1v-1l-1 2-1 1 1 2v2c2 1 1 4 1 6 3 1-1 1 3 2v4l1 2 1 1c2 0 1 3 3 4v3c1 1-1 1-2 2 1 0 3 2 4 1 1-2-1-3 3-3l-1 1-1 1c-1 0 0 1 0 0h1v2h-2c1 1 0 0 0 0v1c-3 0-2 1-2 4-3 3-20 0-21 9 0 5-10 12-4 12l2-4c4-4 2 5 12-3 1 2 4 2 5 0l3-1c10 1 16 16 28 11 4-2 5 2 6 5 4 2 8 0 9 6 0 4 0 10 4 5 1-1 4 0 2-2l1-2v-2c0-1-2-3-1-4 3 0 1-1 1-1-2-3-7-3-9-3-2-3 6-4 3-6v-2h-1v-2l-4-2c0-2 1-1 1-1-3-3 2-4 4-3 2 0 2-2 3-2l2-1 2-2c1-3 13 7 11-2-2 0-2-1-3-3l-4-2c1 0 1-2 2-1 2 0 4-2 5 0 0-1-2-1-1-2h-1c1-1 3-2 3-4l1-2-1-1h-1l-1-1-2-4h8l1-1h-1v-1h1s-1 0 0 0v1l1 1 1-1v-1h1c1 1 3-1 3-2Zm-2 141c-2-2-5 1-7 3l-1 1h-1c-3-1-3-6-3-9 3 0 1-2 0-4-3-1-1-2-4 0h-1l-1-1c-1 1 0 0 0 0l-2-2c1-6-13-7-17-9-3-5-4-3-10-1l-5 2c-1 0-5 3-5 1v-1c-3-6-4-15-8-5v1c-2 1 3 4-1 5-2 0-4 2-5 3-4 2 0 5 2 7h1c-3 11 9 7 12 13l2 1 2-1h3c1-1 4-1 5 1l1 1c-3 1 1 1 0 3 0 0 0 1 0 0l1-1h2c1 1 1-2 2-2 3 5 4 4-1 9v1c9 4-5 1 0 5l-1 4c-1 1-3-2-3 1-1 4 0 4 1 6l-1 4-3 5c-4 7 8-4 0 7 1 6-3 2-3 6-1 3-3 3-5 5v5l1 3c0-1 0 0 0 0v1l3 1h1l1 1c-1 2 1 3 1 5-1 1-3 4 0 4l2-1 1-1c2 3 2-4 5-4 0 3 1 3 2 3 2 3 4 1 6 0v2l4-3 2 3 1-1c1 0 1 2 2 0 2 0 3-2 5-1v1h4c2-1 1-1 1-2v-2l-2-1v-1h-1v-1h-1c-2 0-1-2 0-3 2 3 5-1 4-3-2-1-2-4 1-4l1-1h1l1 1c1 1 1-1 1-2l1-2v-2h-1v-2l1-4v-1h-2c-1 0-2 1-2-1-2 0-5-1-5-4-2-2 5-7-4-5-2 2-3-2-6 1-4 3-3 1-2-2 0-3-3-3-4-5v-3l-1-2c9-5 3-1 9 2 2 0 0 0 1-1 2-1 0-3 1-4l4-5c1 0 3 0 3-2 2-1 1-3 3-3l1-1h1v-1l1-1h1l1-1 1-1h1l1-1h2c4-4-8-2 1-7Zm-40 8Z"/><path id="NL-05" fill="#f48032" d="M3710 4548c-3-8-2-12-2-21v-1c-1-6-5-8-8-13-3-3-8-5-8-10 2 0 1-4 3-5l-2-1-3-1c-2 1-5-2-6 0 2 2-1 1-2 2s-2 4-3 2c-1-8-2-12-10-13 0-7-6-6-11-4-10 0-15-13-24-12-4 0-2 6-8 1-6 7-7 0-11 3l-2 4c-8-8-13-2-25-3-2 1-4-2-7-1s-5 2-8 1c1 1 1 3 3 3s3 2 4 4c5-2 3-2 7 1 3 20-29 2-21 16 1 2-1 2 1 4l-1 4-1 2-1 1s2 0 1 1c2 3-1 5-4 7h-1l1 2c0 2-1 4-4 5l1 1-1 1h1l1-1c1-1 3-1 4 1 3 2 4 6 1 8-1-1 0 0 0 0h-5l-1 4c2 0 1 1 0 0v1c-1 1-1 6 1 6 0-1 0-1 0 0h-1l-1-1h-3l-2-1h-1v1l1 1v1h1v1l7-1h2l2-1 1 1h1c0-1 0 1 0 0l1 1 1 1-1 1 2-1h1l6-8 1-1v-2l1-3v-1c4-3 0 3 7 2 6 7-4 13 5 18 3 3 1 12 7 7 11-2 2 14 15 9h3v-2c4 0 8 3 11-1 0-2 4-1 4-4 2-1 4 1 6-2 1-1 3-3 5-3 4-1-1-4 1-5v-1c4-10 5-1 8 5v1c0 2 4-1 5-1l5-2c11-5 5 1 13 2 3 1 15 2 14 8l2 2s-1 1 0 0l1 1c2 1 2-1 3-1 5 6 11-18 17-20Zm-146-12Z"/><path id="NL-04" fill="#f26e26" d="M3643 4451h-2c0-1-1 1 0 0l1-1 1-1c-3 0-2 1-3 3-5 0-10-4-15-6-5-4-10 3-15 2-5 6-10-1-14 0-5 9-11-6-16-4v1c-4 0-4 8-8 4-3-1-3 5-7 3-4 1 2 5-1 7-2 1 0 3 0 4-3 2 0 5 0 8 1 2-1 1-1 2 5 2-3 4-6 8-11-1-12 12-24 18h-1v3c0-2 0-3-2-2l1 1c1 1-2 0-1 2v-2c-1-2-3 0-2 2l-1-2-2 1h-2v1h-5l-4-2c-1 0 0 0 0 0h-1l-3 1 2-2c-1 1-3 3-2 1 0 1-1 0 0 0l-2 1c1-1 1 0 0 0h1c1 0-2 3 0 1l-1 1c1 1 0 3-1 3-2 1 1 0 0 1h-1c-3 3-5 1-7 3h-1l1 1h-1v-1l-2 1c0-1-3 1-1 1-2 0 0 0-1 1 0-3-5 0-6 3 1-6 7-2-1-7-3 0-3-2-1-1 2 0-5-1-1-1h-1c-1-1 3-1 0-1-1-1-1-4-2-2l-4 1-2 2-4-2c-7-2-2-2-8-7v1-2l-1 1v-2 1c0-3-7 0-7-1l-2-1c0-2-3 0-4 0s-4 2-3-2l1-1c1 1-1 2 1 1-1-3-3 4-8 2-21 4 1 16-7 18l-1 3h-1c2 9-8 3-14 7-8 6-18 9-6 16 3 2 4 6 7 7v1c1-1 2 0 2 1h4-1c-1 0-2 0-1-1 0-1 0 1 0 0h1v1c0-1 1-3 1 0 3 2 5-4 7-1v-3h1s0 1 0 0l2-1v1c-1 1 2 1 1 2-2-1-3-1-3 1 2-1 5 3 5 4 1 3 3 0 4 1 3 0 4 5 7 5l3-1c2 0 2-2 3-1 4 2 5-8 5-10l6-2c1 2 4 5 3 1v3h3c1 1 2 4 5 5h2c-3 0 2 1 2 1 5 3 8-4 10 0 5 0 2 6 10 3 5-2 3 4 7 3h4c1-1 4-1 3-2-1-6-7-6-4-12 1-2-2-1-2-2l9-4v-1h1c2 0 6-3 8-1-1 7-4 11 5 8l6 1c4 1 1-4 4-5 2 0 1-2 2-2 0-1 2-1 1-2v-1l1-1h1c2-1 2-4 5-4v1h1s0 1 0 0h1s0 1 0 0l2 1v1c1 2 1 1 3 1h5s-1-1 0 0c3-2 2-6-1-8-1-2-3-2-4-1l-1 1h-1l1-1-1-1c3-1 4-3 4-5l-1-2h1c3-2 6-4 4-7 1-1-1-1-1-1l1-1 1-2 1-4c-2-2 0-2-1-4-4-9 4-7 10-5 6 0 16-7 11-12-3-1-4-2-6 0-2 0-2-3-4-3l-4-4c3 1 6-1 9-1 7 3 15 2 22-1 18 9 1-14 34-16 0-3-1-4 2-4l2-1 1-2Zm-190 80c-2 1-5-3-5-1h-1l-1 1-5-1-2 1-1 3v1c-1-1-1 0 0 0-1-1-3 1-2 1h-1 2-2c1 1 0 1 0 0v1l-1-3c-1 0-2-6-3-2v-2c-7-4-3-10-2-4l4 2c1 1 2-2 1-1-1 2 1 3 1 5v-1 3c2-2 4-5 6-5 1-1 7 2 5-1 0 0 0 1 0 0l1 1c-1-1 0 0 0 0l1-1c2-1 3 3 4 2l1 1Zm39 16-2-1c-3-1-4 2-6 2h-2c-5-1-9-8-9-11 0 0 1 1 0 0l-1-1c-3-2-2-3-4 1v-1l1-2-1-1v2-1c-1 0 0 1 0 0l-1-1c-3-2-6 1-8-2 2-1-1-2-3-1l-3 1c-3-2 3-3 3-5l-1-1s0-1 0 0l-1-2c-3-5-5-3-9-3 0 0 1 0 0 0l-4 1h-2l-1 1h-2s1 0 0 0c-3-1-4 0-3-4 2 0-1 1 0-1v1h1c-2-1 1-3 1-1 0-1 0-2 1-1s2-1 1-2v2c-1 0-3 0-2-1l1-1v-2c2 0-1-4 2-3l7-4c-5 1 2-4 2 0h-1l4 2c3 0 5 5 5 7h1l-1 1 5-1c1 3 3 4 8 3 2-2 9-4 9-7 2-1-2-2 1-3l4-1c1 0 2 1 1 2h1-3c2-1 3 1 0 1l2 1v-1c0 2 6 1 4 4v-1h-2s0-1 0 0l-2-1-1-1c-2 0-4 0-4 2 0-1-1 0 0 0h-1s0 3 1 2l1 1c1 2 3 2 5 2l2-1-1 1s1 0 0 0v1c-1-1-3 1-6 1-2-3-6-2-10 1h-2l1 2c-2-3-5 2 0 2l2 2c0 2 3 2 4 3 0 5 6 3 10 3 1 0 4 2 1 2 2 1-1 0 0 0 5 3 7 6 7 13Zm1-2c-1-2 0-1 0 0l-1-1 1 4c-2-3-1-9-2-11l-5-1c0-4 5 2 5-4l1-2v1-1l-1 4 1 1v1c0-1 0 0 0 0s1 1 1-1v1-1s0 1 0 0c0 0 0 1 0 0h2c-3 0 1 2 0 2h-3l1 8Zm1 17h-1c1 0 0 0 0 0v-1 1s-1 0 0 0v-1l-2-2c1-2-4-1-3 1l2 1h-3c0-3 0-3-2-2 0 2 2 3 3 3h-2c3 2-1 0 1 2 1 1-3-4-5-4s-2 2 0 2h1c2-1-1 0 0 1s0 2 1 1v1c1 1-1 0 0 0l-3-2c1 0 1-1 0 0 1-1 0-1-1-1v-1s-1 1 0 0c-4-1-8 0-8-5l-1-1-1-1c-2 0-5-1-5 1l-1 6c-4-1-8 4-11 5-2 1-3-1-3-1h-1v1-1 1h-1l1 1c-1-2-2-3-4-3-3 0 0 2-2 2h-1c1-2 0-1-3-1l-4-4c-7 0-15-5-15-5-1 1-1 0-1-1h-5c-2 3-9 3-13 6-2 1 0 3 0 5 3 3-5 6 0 8-3 1 1 2 1 3l-1 1 1 1 2 2h2c1 3 3 4 7 3 5 0 6-1 4-6-1-3 0-2 2-1 0-3 2-1 2-2 1-1 2 1 2 1l1-1c-2-4 4-1 4 0 2 1 5-1 6 2l8 1 2 2c1 0 1-2 2 0 2 1 0 5 1 7l1 1h5l3-2c2-1 2 1 1 2v1h1c2 1 3-1 3-2l6-2v-1c1 0 4-4 5-2h1l6-3 8-6v-1l7-10Zm-87-3Z"/><path id="NL-03" fill="#f16522" d="M3633 4370Zm29 29-1-3c-3-5-9-2-14-3 2-1 1-2 0-2v-6l-4-1v-2l-1-1v-2l-3-4-2 3h-2s-2 0 0 0l-1 1-2-2c2-10-4-8-9-2-9-10-11-9-20 0-8 3 2 8 5 13-11 2-2 6 3 10 1 2 7-2 7-1 0 0 1 0 0 0v1s0-1 0 0c-1 1-4 0-5 2-2 1-5-3-4-2v1h-1v-2c0 1 0 1 0 0l-5-1h-2l-1-1c-2 0-4-1-4 1l-4 9c0-1 0 0 0 0v1c1 3-2 5-2 7h-7c-3-1-12 2-10-2l-1-1h1l-1-2 1-1v-1s-1 0 0 0v-1l1-1-1-2-1-2c0 1-1 2-2 1 0-2 0-1 0 0l-1 4h-1l-2 1-2-6v1l-2 1c-1-1-1 2-1 1h-1c-1-1-2 0-1-1h-5l-1 2-1 1v1l-1 1v-1h-1v1c-1 3 0 4 2 7 0 1 6 2 1 3 2 3-2 3-2 3 1 1 0 2-1 2h-1v2l-1 1c-1 1 2 1 2 2 2 1 0 6 2 6-2 5-10-2-3 10 1 2 4 0 5 0l1 2-3 1c-2 0 1 2 1 3 2 2 5 4 5 7 5 2 5-6 10-4 1-1 2-5 5-2 3 2 4-5 7-5v-1c5-2 6 6 11 6 6 2 2-6 13 1 3 1 4-2 5-3 3 0 5 0 7-2 7-6 19 10 22 3v-3c-2-1-1-4-3-4l-1-2-1-1v-4c-4-1 0-1-3-2 0-2 1-6-1-6v-2l-1-2 1-1 1-2v1l3-1 7-2c1-1 2 1 3-1 5 1 2-1 4-2 7 0 11-4 6-9l3-1h2c-6-3 1-6 4-6Zm-44-3 3-1c1 0 3 0 3-2l1-2 1-6s0-1 0 0l-1-1c1 0 0 0 0 0h1c-3-2 0-7 6-6l1 1c-1 0 0 0 0 0v1c1 0 1 0 0 0 0 1-1-1 0 0l-2 3-3 2v1c-1 0-1 1 0 0l-1 1v-1 3l-2 5v1s-1 1 0 0c-1 0 0 0 0 0-1 1-4 0-6 2l2-1h3-3c-1 0-2 3-3 1h1l-1-1Zm-101 67v1-1Zm48 12c0-2-2-1-2-2l1-1-2-7c-2 1-1 2-3 2l-2 2-4 2-1 1-4-1h-3l-1 1c0 2-3 3-5 2h-1c-1 3-7-8-4-2l-1 1h-2c-1 0-1 3-2 2v2l-1 2-2 1c-1-5-7-1-8-4l-1-2s1 0 0 0l-1-1 1-2c2-1 5 0 7-2h1l1-4c1-2-4 0-2-2l-1-1v2c-3-3 2-1 2-4-2-3 2-2 0-4v-1l3-2v-1c1-4-1-4-4-2-1 1 1 3 2 2h-2v1l-1-1-2 1-1 1-1 1-2-2-2-1c-1-1-2 0-2 1l-1 2-1-1c-1-3-2-1-4 0l-3 1c-2 0 0 2-2 2h-1l-2 2c-1 0-1-5-3-3l-3-2 1 1-3 2c-4 1 0 2-2 2h-1c-4-1-3-3-5-4l-3-2c1-2-1-2-2-2-1-3-3 3-5 1l4 2c7 3 16 13 22 13l3-1c0 1 1-1 0 0h1v-1l2 1v-1 1l2-1h-1 1c0 1 0 0 0 0h2v-2c0 1 0 1 0 0 0 2 1 0 1 1-2 2 0 0 1 0-2 1 0 0 0 1v-1 1h3c-1 0 0 1 0 0v-1c1 2 2 0 2 0 1-2 3-2 4-1 0 2 1 2 2 1 2 1-2 2-2 1l-1-2h-1l-1 1c2 1-1 1-1 1v1c2-1 2 0 0 0h-2c-2-1-4 0 0 1-2-1-2 0 0 0h-2l1 1c2 0-1 1 0 1h-2c1 0 1-1 0 0v-1l1-1h-2c3-1-2 0 1-1-1 0 0 0 0 0h-2l1 1-1-1c-2 1 0 0 0 1-2-1-1 0 0 0h-1l2 1h-1c-1 1 1 1 1 1h-2v-2l-1 1c1-2-6-2-2 0h-1c-3 2 2-3-2-1v3c0-1 0-2-1-1 1-4-3-1-1 2 0 2-1-4-2-3s2 5-1 2c-2 1 0 0 0-1l-3 1c0 2 0 1 0 0l-1-1c2 0 0-1 1-2l1 1c0 1 1 1 0 0h1c1 0 1 0 0 0l-6-3c-1-3-16-12-11-9 2 0 14 13 9 8h-1c1 0 0 0 0 0h-1v-1h-1v-1l-1-1-1-1h-1s0-1 0 0c-1 1-1-1-1-1l-1-1h-1s0-1 0 0c0 0 0-2-1 0 0 1 1 2-1 1v-3l-3-1v4h-1c-1 2 3 1 3 2-4-2-9 4-8-1 0 3 10-3 0-1 6 0 5-3 0-1l-1-2s2 2 3 0l-2-1h2c-3 0 1 0 1 1 0 0 1 0 0 0h1c3 0-1-4-3-3-3-3-5 4-3 5 0 2-5 6-2 7h1c0 1 0 0 0 0 2-2 5-2 5 0 1 0 0 0 0 0-6 5 6 10-1 16v-2h-3s-1-1 0 0c1 0 0 0 0 0v-1h-4 1s0-1 0 0h1v-1l3-1c-6 2-20 5-16 13 1 3-5 4-1 5-1 0 0-1 0 0h1s1 0 0 0v-2c-2 3 0-4 1-3l2-1v-1c2 0 10-5 12 0 2 1 3 5 3 5-2 0-1 4 0 3v-1c0 1 0 0 0 0l1 1c-2 0 0 1 0 2h1c-2 0 0 1 0 2l1 2v-1l4 1c3-1 4 0 7 2 1 0-1 3 1 1l3 1c3 1 2 0 2-2l1 3 2 2c2 1 4 2 6 0 3 0 8-2 8-5 0 0 3-3 3-1v-2c1-1 1 0 0 0-1-6 4-1 7-3l3 1 3 2 2-1h1c1 0 2 0 3-2h1c0 1 5-2 4-4 1 3-1 2 1 3 15-9 15-15 31-21Z"/><path id="NL-02" fill="#f48032" d="M3565 4458c-1-6-3-1-7-2 0-3-3-5-5-7 0-1-3-3-1-3l3-1-1-2c-1 0-4 2-5 0-7-12 1-5 3-10-2 0 0-5-2-6 0-1-3-1-2-2l1-1v-2h1c1 0 2-1 1-2 0 0 4-1 2-3 5-1-1-2-2-3l-1-2-2-1c-1-1 0-4-2-3 0-1-1-2-2-1 0 2-2 2-3 3-2 3-1-5-3-4-2 0-2 2-3 2-3 0 0-3 1-4-1-1-1 1-2 1 0 1 0-1 0 0-2-2 2-3 2-5 3-2 6-9 1-10v-7c-1 8 4 4 1 1-2-1-1-4-4-3-1-1 1-1 2-1 0 0-1-3 1-3v-2h1v-1c3-4-3-2-5 1v-1c-1 1-1-1-2-1h-2v-2l1-2-2 1c-1 2 0 1-1 0h-3c1 2-2 2-4 1a148 148 0 0 1-27 58c1 1-3 2-3 2 1 1 2 0 1 1 1 0 1-1 0 0 0 1 1 0 0 0 0 0-1 0 0 0-1 1-13 14-13 19l2 1c0 2 2 2 3 3 2 1 2 3 5 4h1c2 0-2-1 2-2l3-2-1-1 3 2c2-2 2 3 3 3l2-2h1c2 0 0-2 2-2l3-1c2-1 3-2 4 0 1 1 2 0 2-1s1-2 2-1l2 1 2 2 1-1 1-1 2-1 1 1v-1h2c-1 1-3-1-2-2 3-2 5-2 4 2v1l-3 2v1c2 2-2 1 0 4 0 3-5 1-2 4v-2l1 1c-2 2 3 0 2 2l-1 4h-1c-2 2-5 1-7 2l-1 2 1 1c1 0 0 0 0 0l1 1c-1 4 7 0 8 5l1-1 2-2v-1l1-2 2-1h1l1-1c-3-6 3 5 4 2h1c2 1 3 0 5-1v-1l4-1h3c1 2 1 1 2 0l4-2 2-2 5-4-1-3 2-2Z"/><path id="NL-01" fill="#de4026" d="M3569 4384h-1c0-1-1-2-2-1v-1l-1 1h1l1 1c0 1 2 2 2 0Zm-2 0h-1 1Zm1-4h1-1Zm6 1h1-1Zm34 7c-21-22 9-7-14-20l-13 10c-2 2 2 6 0 8h1l1 1c0 1-2 0-1 1l-1-1c-2 1-6-4-6 0 0 0 0 1 0 0 0-2-3 0-4-1h-1c3-3-2 0-3-1l-1-1-1-1-2-1c1 0-1 0 0 0h2c-1-1 1-1-1-1v-2l1 1 2-1v1c2 1 1 0 1-2h1l2-4c2-2 4-2 4-4 2 0 0-3 3-4 6-4-2 0-2-6 2 5 1 11-4 8l-1-2c2-2 0-1 0-1h-1s-1-1 0 0v-1c1 0 0 0 0 0l3-1v-3c2 0 2-4 1-5 0-1-2 1 0 0-3-4-6-12-7-15v-5c1 0 2-2 3-1l1 1v-1c0 1 0 1 0 0 0 0 1-1 0 0h1c0 1 0-1 0 0l1-1h1c0 1 0-1 0 0l2 1c-1 1 0 1 1 1 2 5 8-3 12-5 1-2 0-5 2-6h2l1-1-1 2 1-1v-2h1-1 1v-1h1v-1c-3 0-2-3-3-5l-2-1c2-2-8-2-9 1h1s-1-1 0 0h-2v1h-2c0-2-4-3-3-5l-1-1v1s0-1 0 0c-2-1 0-15-1-15-3-2-6-13-8-11 0-3 7-9 12-14l-12 12c-7-4-12 12-20 7-3-1-8-5-5-9l-1-2v1s0 1 0 0h-1c0 1 0 0 0 0h-1c1 0 0 0 0 0 1-1 0 0 0 0v1c-1-2 1-2 1-2-2-2-9 1-7 8 1 14-8 29-6 41-2 11-2 36-7 38l5-1c1 0 1 0 0 0v1h-1 1c-1 0-3 0 0 0l-2 1c2 1 1 0 0 0v1c-1-1 0-2-2 0v-1 1c-1-2-2 1-3-1 5 2 1 4 5 5h2v-2h3c1 1 0 2 1 0l2-1-1 2v2h2l1 1 1 1c2-3 8-5 5-1v1h-1v2c-2 0-1 3-1 3-1 0-3 0-2 1h2c0 2 2 2 4 4-3 5-3 2-3-2v7c5 1 2 8-1 10 0 2-4 3-2 5 0-1 0 1 0 0 1 0 1-2 2-1-1 1-4 4-1 3 4-4 4 3 6 4 0-2 2-2 3-3s1-2 2 0c3-1 0 4 3 3l1 2 2 1c-2-3-3-4-2-7v-1h1v1l1-1v-1l1-1 1-2h5c-1 1 0 0 1 1h1c0 1 0-2 1-1l2-1v-1l2 6 2-1h1l1-4c0-1 0-2 0 0 1 1 2 0 2-1l1 2 1 2-1 1v1c-1 0 0 0 0 0v1l-1 1 1 2h-2 1l1 1c-2 4 7 1 10 2h7c0-2 3-5 2-7v-1s0-1 0 0l3-7c1-3 0-4 4-3s-3-2 2-4c1-3 5-1 7-3Zm-7 3c-1-1-2 2-3 1v-1c0 1 0 0 0 0h-2l-2-1v-1 1-1 1-1l-1 1-7 1c-1 1-2-1-2-1 0 1 0 0 0 0v1l-1-1h1l-1-1c-1-1 0-2 1-2 7-2 10-1 17 4Zm-71-122c1 7 2 7 7 4h-1l-1-2 3 1c1 0 2 0 1-1 0-2 6-4 6-5 2-1 6-11 5-18-6-8-6-12-12 0-4 7-8 13-8 21Zm-9 98h1-1Z"/></g><g id="LUXEMBURG"><path id="LU-00" fill="#8a69ad" stroke="#231f20" stroke-linejoin="round" stroke-width=".4" d="M3696 4873c-8-1-4-7-10-7l6-6v-3c0 1-3 1-2-1 4-1 2-5 4-7 3 1 1-2 1-3 0-2 2-2 0-2-11-2 2-7-5-10-4 2-5 0-4-4-3-1-3-9-8-7-2 1-1-3-2-4l-1-3c2-2-1-2 2-2 0-2-3-1-1-2s-2-3 2-3c1 2 0-1 1-1 0-2-6-1-5-4 2-3 4-5 3-8 0-3 2-3 4-3-1-2 5-2 3-5-6-3 1-4 2-7-1-1 0-2 1-3l-2-2c4-4 2-11 8-12 4-1 3-5 3-8 6-3 6-2 10 2 4 1 2-6 7-2-1 5 1 4 3 7-2 4-1 7-1 10-1 3 4 10 3 12 4 1 2 4 5 7 0-1 0-5 1-1 1 2 2 0 4 1-2 2 2 6 0 7 9 9 19 14 32 15 3 1 6-1 1 3 4 4-3 9 2 12-1 1-3-2-1 2-9 6-8 19-13 24-3 2 5 23-2 19-1 1-2-1-3-1h-2v-1l-1-1s-2 0-1-2c-4-2-6-1-10 0-7-1-1 4-7 4 1 4-5 2-3 6l-2-1c-3-4-4 3-6 3 0-3-4-1-6-1 3-2-2-1-1-4 1-4-5-4-9-3Z"/></g><g id="BELGIE" stroke="#231f20" stroke-linejoin="round" stroke-width=".4"><path id="BE-09" fill="#c64e57" d="M3506 4595c-1-3-1-7-3-7l-1-7c0-2-2-2 0-4 2-3-7-21-10-11-6 11-18 15-25 20-3 4-7-1-6 3-2 1-6 2-4-1 2-4-6 3-8 1-5-14-10-8-25-16-1 1 1 4-1 3s-2 0-4 1c-6 0 3 8-5 8-6 2-8-3-12-5 0 1 4 5 1 7-5 1 3 5-2 7 1 2 7 4 3 9-5 9-9 5 1 12 1 1 3 1 2 3 2 0 4 1 3 2-5 0 4 5 0 9-3 2-1 3 0 4-8 5 4 1 2 4-5 0 1 1 0 2-6-2-1 3-4 4l1 1c1 3 3-3 5 0 3 5-5 4 0 8 2-1 2 0 3 1l1 2s2 0 1 1-3 1-1 1l1 2c3 3-6 6-5 9 2 0 4 2 7 0 2-1 3 3 2 5h8c3 6 5-8 8-8 5-2 0 2 5 1 1-1 3-4 2 0l3 3c3-1 5 2 7 0l4-1c2 1 1 5 4 4 0 0 5 0 4-2s-1-1-2-1c-1-6 3-6 5-4 2 0 1-4 3-1 1-2 3-1 4-2 3-1 4-10 0-9-1-1 1-3 1-5 1-2 3-1 2-3v-2c-1-3 3-2 1-6 2-3 5 3 7 0v-5c-2-2-2-3-1-4l1-2c4 1 6 0 8-3-2-1 2-8-1-6-3 3-4-1-4-4-11-15 16-5 14-18Z"/><path id="BE-08" fill="#f6b0c2" d="m3420 4660-2-3s2-1 1-2c-2 0-2-2-3-3h-2l-2-2c2-1 4-7 0-7-2 3-3 2-4 1 4-5-3-4 4-5 0-1-4-2 0-2 2-2-3-1-4-1-2-2 2-2 3-3l-2-2 2-3v-3l-3-4c-1-2 5 0 1-3-19-12-9-3-3-19-10-10-1-2-4-10-3-2 5-2 0-7 0-4-3-7-2-10 6-16-14 0-18-7 2 0 3 2 2 3 1 0 0 2-1 0 2 3-1 1-1 1v2l-1-1v-1l-1 1c3-4 1-1 0-2l-31 22c-29 24-44 13-29 50 0 3-5 3-1 5l1 8c-2 4-1 1 1 5 1 7 6 2 11 4 1 4 4 8 7 10 1 1 0 5 2 5 2 2 3 1 5 1 6 3 0-2 0-5 0-2 3-2 3-1 1-3 1 1 3-1l2-1c7-3 3-3 3-6 14-7 0 6 16 3 2-1 1-5 4-2 4-3 3 7 7 5 7-3 2 0 9 1 8-2 4 5 9 6 2 1 2-3 4-3 2-1 1-3 3-3 3-1 1-2 4-2-1-2 6-5 7-9Z"/><path id="BE-07" fill="#de4f67" d="M3366 4667c-5-6 1-7-10-2 5 2 1 4-2 5 1 2-1 1-2 2s-3-3-2 0c-1 0-2-2-3-1-4 4 5 15 8 9 1-10 6-7 11-13Zm145 31c-2 0-3 1-4-2-2-3-2-2-5-2 0-3 0-6-6-5 0-3 1-5-2-6s-3 7-8 5l-2-4c2 0 0-3 0-5v-3l2-1h-2c-3-2-6 5-9 2-3 2-5 2-8 2l-2-1h-1c-1 0-1-3-3-3 0-2 2-4 0-5-2-3-4-1-5 0-3 0-4-2-6-1s-2-1-3-1c-2-2 1-5-2-3-7 4-1-5-8 2-1 1-4 11-6 6h-8c0-9-4-2-9-5-1 1 0 0-1-1v2c-2 0-2 0-2 2-4 0-3 2-5 3-4 1-2 5-5 2-3 0-1-5-5-6-2 2-6 0-9-2-1 2-5 1-4 3 0 2 3 3 1 4 0 2 3 1 2 2-1 2 4-1 5 2l1 2v1c2 2-4 3-1 6v2c4 5 4 12 4 17 1 3 3 4 5 4 1 3 4 1 5 3 1 3 4 0 6-1 4-1 2-2 6-5 2 0 7 1 3 4-1 3 0 5 2 2 6 0 11-2 14 5 3-1 4 10 3 13-3 5 1 3 0 7l3 4c2 1-1 1-1 1 2 0 2 3 4 3 1-1-1-2-1-3 0-2 2 3 3 1l-1-1c1-3 0-5 2-6h4c2 0 4-2 3 1 3-3 5-1 7 1h2v2c4 0 8-6 10-3l4-2c1-3 1 0 3 2 3-5 11 8 12-4 0-2 4-2 4 1 2 1-1-4 5-1l-2-2c1-1 2-2 0-1 0-2 4 0 2-1-1-2 2-4-1-5 0 0 3-1 2-3 5-1 6-1 8-4 1-3-2 1-3 0 1-5 1-8-1-11 4-3 3-3 2-7 3 0 2-1 2-3Z"/><path id="BE-06" fill="#f6b0c2" d="M3544 4721c-3 0-6-2-4-3-2-2 3-4 1-6v-4c-1 0-5 3-4 1-1-6 7-11-6-5-1-1 0-3-3-1l-1 1c-2-1 1-4 0-5l-7-1-6 1c-2 2-1 4-4 2-4 3 3 2-3 7 3 4-2 14 5 10-2 4-5 4-9 5 1 2-2 3-2 3 3 1 0 3 1 5 1 1-3-1-1 1-1 1 2 3 1 3-1-1-5-2-4 0-1 3-2-1-2-1h-2c-3-1 0 2-1 3-3 8-8-2-11 1-2 1 4 3 3 6 3-2 6 2 5 6 2 0 2 1 2 2h3c1-2-1-2-2-3l2-2c1 3 3 2 5 3 4 4-3 5-4 9v1c-3 0 0 4-2 7 3 2-6 7 0 8 6-4 6 1 7 5 6 3 0 9-4 9-1-1-3 4-3 5 1 2 1 3 3 3 2 3-6 5 0 4 2 0 5 2 4 4l5-1 6-1c1-1 2-2 3-1 11 4 17 7 10-8-1-4 0-7-3-7v-7c-2-3 2-6-1-8 1-3-3-2-3-5 5-2 3-4 3-8l1-3-4-2c-3 3-3 3-7 0-4-1-1-3 0-4l1-1 1-1h3l2-1c-1-2 3 0 3-3 0-2 0-2 2-1l3-1c3 2 2-6 7-3 0 3 8 0 9 0 1-2-1-4-1-6-1-2 2-2 1-4 1-1 1-1-1-2-1-2 1-1 1-2l2-4Zm159 29c0-2-2 0-2-1l-1-16c-1-4-5-3-7-5s-2 1-4 0c-6-2-10-2-5 4-4 8-2 4 1 6-1 1-2 3-4 3-1-1-4 0-3 1-1 2 0-1-2-1-6 0-11 4-5-5-2-5-3 2-6-6 2 1 1-3 1-2 4-4-1-2-4-2v-2h-5c1-2-4-2-5-5l-4 2c-4-1-5-3-5-6-3 1-5 5-6 2-1-1-2 0-3-2-7 2 3 3-1 6-3 2-2 4-2 5 0 2-3 4 0 5 0 2-4 2-6 5h2c1-3 5 0 4 2v2l-1 1-2 1-2 2c-2 6-12 3-9 7-1 2-5-1-6 3 6-1 5 7 8 10 5 3-8 1 1 7l-8 3c-3-1-5 1-8 1-3-1-9 3-7-4-2 7 1 9-4 14-2 1-4-2-3 2-1 1-4 0-2 1l4 5v3c3 1 4-3 6-1-1 2 3 3 4 3 1 2-1 5 2 6 1 2 0 1-2 2l-2 1c-2 1-1 3-3 3-2 2 4 1-1 4-1 1-2-1-1 2-2 1-4 1-5 4 1 3 0 3-1 7 3 0 3 2 6 4 4 3 7 0 10 4 2 2 2 9 5 5 4 8 3 2 8 5 6-2 7-1 12 3 4 3-4 5-1 8 0 1 0 2 1 1 0-1 3 0 2-1 1-4 8 1 10 3 4 4 2 8 6 10l-1 3-1 1c2 1 2 2 2 3l12-6 4 4c1-4 1-7 4-8 3-2 6 3 9 0 1-1 1 1 2 1 2 0 1-2 1-4 2-2 4 2 6 2 2 1 4-1 5-3 2-2 2-3 1-5-6 2 2-2 1-4 1-2 0-4 3-4v-5c-12-2-1-5-5-10-2-1-7 2-5-3l-5-8h-3c-1 1-1-1-1-2 0-2-2-2-1-3l-1-3c2 0 0-2 2-1 1-1-3-1-1-2 2 0 0-1 0-3h3c2-5-9 0-3-8l1-3c1-1-1-5 1-4 2-1 4 0 3-2 1-1 4-1 3-3s-4-4-1-6c3 0 2-3 4-4-1-3-3-4 1-7-1-7 6-7 8-10-1-12 6-3 7-12Z"/><path id="BE-05" fill="#bd3855" d="M3631 4726c-1-9-15 7-13-4-3-2-8 0-6-6 0-1-4-9-6-7-2 3-4-1-3-2-3 2-4-2-2-4-1-1-2 2-4 1 0-7-10-2-7-5 3-2-3-6-2-9-3-1-7-5-5-8-3-2-5-2-6 2-1 2-5-1-4 1-3 2-14 3-11 6-1-1-4-2-5 1v-1l-1-1-1-2c-3 0-2 2-3 3-6-4-6 0-4 5-2 2-3 0-5 1 0-2-2-1-3 0-4 1 0 7-3 9-1 5 1 3 3 2l1 4-1 4c-2 0 2 3-1 2 0 1 2 1 1 2l4 1c-1 4-5 5-1 7 0 1-2 1-1 2-3 1 0 4-1 5 6 7-9 4-12 4-1 4-2 3-5 3h-3c1 2-1 5-3 3l-1 2v1h-3l-1 1-1 1c-1 0-4 2-3 3l6 4c1 0 2-4 4-3 1 1 4 2 2 3v5c2 3-4 3-3 6 3 2 2 4 4 6-2 4 1 9 0 12-1 2 1 1 1 1 1 5 6 14 5 19l9-2c1-1 2-4 3-3l15-6c1 0 2 0 1-1v-8c1-3-3-1-1-6s8-4 8-10c5-2 4-6 8-3 2 0 5-1 5 1-1 1 3 0 1 2-3 1-2 4-2 7 2 0 0 2-1 0 1-1-1-2-1-1-3 1 1 3-1 3 1 3-2 2-2 4l1 2 1 1c1 1-2 2-2 3v6c-4 3-3 6 2 7 3 0 5 4 6 6 1 1-1 10-3 8 0 3 2 5 3 7 0 8-5 7 7 7 2-3 4-2 5-6l1-6c3-1 4-3 4-4 5-1 2-2 2-4 2 0 1-3 4-3 0-2 5-1 3-2-3-2-1-5-2-7-2 0-4-2-4-3-2-1-4 2-6 1-1-2 1-3-1-4s-1-1-1-2c-2-2-4-3-1-3 0-4 2 0 4-3 1-1 4-3 2-5 2-1 0-1 1-3 0-1 0-7 1-5-3 7 9 3 12 3 4 1 5-2 10-2 4-3-8-3 1-7v-2h-1c-4-4-2-8-6-9-5-2 7-1 3-5 4-1 7 0 10-5l2-2c2 0 2-1 3-2v-2c0-1 0-3-2-3-2-1-2 1-3 2-3-2 4-4 5-5 1-3-4 0 0-6Z"/><path id="BE-04" fill="#c64e57" d="M3743 4724c-7-6-7-8-5-17 2-5-8-4-3-9-6-2-10-2-15-1 0-3-2-3-3-5 1-1 1-1-1-2-6-5 20-16 1-16-4 2-1 3-4-2 4 0-1-2-1-4-4-2-4-10-9-8-4-1-6 0-6-2 2-4-4-3-7-3-1-3-5 1-6 1-1-2-5 0-1 1 1 2-2 6-3 6-7-2-5 3-10-5-2-2-4 1-5-1l-2 1c-9 0-2-2-4-9 1-2-1-3-1-1l-4 1c0 3-3 3-4 4-1 0 1 1-1 1l-2 1c-1-1-1 0-2 1-2 0-2 3-4 1v3c-3 2-5 5-6 2-2-1 0 3-4 2l-2 1-1-2-2-1c-1-4-9 1-9 4-1 1-1-1-1-1-2 0-3-1-4 1-2 3-2-3-3 1-1-2-4 0-5 0h-2c-1 1 1 1 1 2-2 4-5 0-7 0-1-1-1 0-2 1-1 0-3 0-3-2-4 0-1-5-5-6-2 0 0 4-3 5 1 4 3 2 1 7 0 6-3 11 1 15 4 2 7 9 4 11 8-1 5 2 9 4 1 1 2-1 3-1s-3 4 1 4c2-2-1 2 2 3 5-5 5 3 8 5v1c1 1-2 2-1 3 2 3 5 2 7 3 0 11 6-1 9 2h4c-1-2 3-3 3-5-3-1-4-5 0-3l3 1c1 4 3-1 6-2 0 3 4 8 7 5 3-1 6 4 8 4 4 1 3 0 4 2 1 0 7-2 5 1-3 0 1 3-2 3l3 5 2-1v1l-2 6c2 3 4-2 6 0h3s1 3 1 1 2-1 3-1l4-3c-2-1-5 1-3-2 4-5-2-5 0-10 3 1 7 3 9 1 9 3 10 7 9 17 1 2 0 7 3 5 1 2-2 8 3 9 2 1 4-1 3-3 3-1 6 2 4 4-1 5 8-1 3-1-1-4 1-4 5-6v-4c-4-3-2-4 1-6 5-9 8 0 10-15 3-1 4 1 7 2-2-2 5-2 4-5Z"/><path id="BE-03" fill="#de4f67" d="m3658 4648-3-2-2-1v-8c5-2 7-9 11-14 1-4-6 1-4-3 8-5 0-16 7-17-2-5 7-7 1-8 0-6 7-4 2-10-2-1-4 2-6 3 0-3-3-3 0-4-3-5-7-1-11-1-3-3-16-4-14-12 0-2-3-3-4-5-5-7-9 5-13 5-5-3-6 0-10 0-20 0-5 11-4 21-3 3-3 2-6 2 0 4-5 3-7 4-2 0-4 5-6 6l-5 2c-4 0-4 4-6 7-1-2-3 0-6 0-2 0-2 2-3 3l-5 1c-8 4-2-9-15 2l-1 1c2-3-1-1-2-3l-9 3-1 3c-2 1-1-1-2-1h-1v-1l-1 1c-1-2-1 0-2 0-6 7 3 4 4 7 1-1 5-1 5 1 1 4-3 1-3 5l-6 3c2 1 0 0 0 1-3 2-1 3 1 6v4c-1 3-4 0-2 2l-1 1h-2c2 2-6 0-4 3l1 2c5 1 1 1 0 3 0 1 2-1 3 1 0 2 3 0 3 3-1-2-2 4-1 3l1 1 2 1c2 0-1-2 1-2 1 0 2-2 3-1l1-1c1 1 1-1 1-1l1-1c2-1 0 4 2 3h3l2-2-1-2-1-2v-4l5 1c1 0 1 2 3-1 0 0 0 2 1 1s0-3 2-2c1-2 7 0 8 4 2 0 3-1 2 2l5-1c1 2 2 0 2-1 1 0 1 2 2 1v3c4 3 5-3 8-3 2-3 4 3 7 4 0 1 0 4 3 4 1 3 5-1 7 2 1 1 6 1 5-2l-1-1 1-1 1 1c1 0 3-2 4 0 2-4 1 0 4 0l2-3 2 1 1 1c0-2 8-8 9-4 1 1 2 3 4 3l3-1c1-2 1-4 3 0l5-4-1-2c1-1 3 1 4-2 3 0 0-2 4-1l2-1c-1-1 0-2 1-1 3-2 3-6 7-5Zm25 11c-5-11-8 2-16-7-2 1-2 6-5 3l-2 2c-2 0-3-1-1 1h4c0-1 1-2 2-1 1 2 3-2 6 2 1 6 11 5 12 0Z"/><path id="BE-02" fill="#f6b0c2" d="M3608 4592c0-5-2-8-5-11-4-5 4-13-1-17-21 5-10-33-24-27 0 5-10 16-10 14l-2-3h-6c-2 0-6 2-8 1l-1-2 2-2 2 1 2 1h2c-4 0 0-8-1-7 0-2 1-3-2-4 0-2-2-2-4-2-4-4-11 13-13 13-28 6 2-21-29-1 1-1 1 2 1 2-4 4 11 11-1 13-29-11-4 7-9 18l2 6c1 1-1 2 1 3 13 18-22 10-12 27-2 2 3 4 3 2 3-2 1 3 7-1 2 0 5 3 7 2 0 2-1 2 1 2l2-3c2 2-3 3 2 4 0 4 4 2 6 0 2 1 2 3 4 3 2-8 3 2 7-3 1-1 1 2 1 1h2l1 1h1l1-1c0-3 1-2 3-3 10-7 8 6 9 0 4-2 8-7 11-2 0 2 0 1 2 1l7-2c1-1 2-3 4-3l3-1 2 1c1-3 3-4 3-7h3l5-2c2-1 4-6 6-6 3-1 7 0 7-4 3 1 4 0 6-2Z"/><path id="BE-01" fill="#ef778b" d="M3585 4662c-4-10-10 10-13-2-1-1 0 0-1 1h-3c-7 0 0-2-6-2-2-6-8-5-10-4 1 1-1 4-1 1-1 3-2 1-3 1h-2c-1 0-3-2-2 0s-2 3 0 5v1l1 1-2 2h-3c-2 1 0-4-2-3l-1 1-2 2c-1-1-2 1-4 1 1 1 1 3-2 2v-1c-1 0 0-2-1-1v-3c1-1 2 0 1-1-1-2-3 0-3-2-1-2-3 0-3-1 6-3-2-3 0-5-3 0 2-2 3-2l2-2h1s-2-2 0-1c4 1 0-4 2-5-2-2-4-4-1-6 0 0 2 0 0-1 2-2 4-2 7-3-2-2 1-2 2-3 1-2-2-6-4-3l-2-1c1-1-3 0-4-1 0-2-4-10-4-4-1 2-3 0-4-2l-4 2c-4 1-2-3-5-3v-2c-1 0-3 3-3 1 1-1-2 0-3-1-1-2-4-2-6-2l-2 1c-2 0 0 4-3 4 4 3-2 7-5 5-2-1-1 1-2 2s0 3 1 4v5c-4 1-3 0-7-1-2 2 2 4 0 5-3 1 1 3-1 4 1 2-1 1-1 2 0 3-3 5-2 6 4-1 3 5 1 8 0 1-2 0-2 2-1 0-2-1-2 1-4-3-2 5-6-1-8 4 3 8-2 9l-5-1c-2 4 1 4 2 7h2c2 1 6 2 9-1 1 2 3-1 4-1 2 4 0-5 7-1-3 0-1 2-2 4v5c0 1 2 5 3 3 3 3 4-3 6-5 2 0 4 3 3 5 1 4 7 0 6 6l1 1c2-1 4 3 5 4 3-1 4-1 3 3-1 0 1 2 1 0 1 0 1-2 2-1 0-1 0-2 1-1s5-2 6 0c2 0 7-1 6 1v4c0-2 4-3 4 0 2 1 4-2 7-3 0-3 1-5 5-5h5c-1-4-3-9 4-5 2 0 0-2 2-3 3 0 2 2 3 3 0 2 3-4 5 0-2-4 16-6 18-10 3 1 4-3 3-7 0-2 4-3 1-5-1 0-2-2-1-3 2 0 2-1 2-4Z"/></g></g></svg>