<?xml version="1.0" encoding="UTF-8"?>
<!-- Generated by Pixelmator Pro 3.6.10 -->
<svg width="969" height="692" viewBox="0 0 969 692" xmlns="http://www.w3.org/2000/svg">
    <g id="Landen">
        <g id="TSJECHIE">
            <path id="CZ-79" fill="#ffdd19" stroke="#231f20" stroke-width="0.4" stroke-linejoin="round" d="M 703 379 L 702 377 L 700 376 L 699 375 L 698 371 C 700 369 697 368 697 364 C 693 361 699 363 699 361 C 700 358 696 358 696 356 C 697 357 700 356 699 355 C 696 354 696 353 695 351 L 689 344 C 689 342 687 345 686 342 L 685 341 C 683 341 683 338 682 341 C 681 342 679 342 680 344 L 675 344 C 674 347 673 345 672 342 L 670 342 C 667 342 666 336 663 335 C 660 336 660 331 659 330 C 657 329 651 333 653 327 L 651 327 L 651 328 C 651 328 649 326 651 328 C 651 331 649 329 649 328 L 647 328 C 646 329 646 326 645 327 C 644 328 641 328 640 330 C 638 332 643 336 642 336 C 640 335 642 341 641 342 C 639 343 644 344 641 345 L 638 345 C 637 345 635 344 636 346 C 635 347 637 348 637 349 C 635 353 638 351 641 351 L 642 351 C 644 353 646 350 647 352 C 645 352 644 353 645 355 C 644 356 643 356 643 358 L 647 365 C 648 365 650 366 649 367 C 652 368 650 370 648 370 C 646 373 649 373 652 374 C 656 377 656 375 658 373 L 659 376 C 661 376 660 377 661 378 L 660 379 L 659 379 L 656 377 L 656 378 C 658 380 653 378 654 379 C 656 380 665 385 664 382 C 666 382 668 385 671 385 C 671 384 672 386 672 384 L 672 382 C 670 380 674 381 675 382 C 674 380 676 380 673 379 C 674 377 678 382 678 380 C 679 378 677 377 677 375 C 680 378 689 376 690 382 C 691 385 698 391 695 385 C 697 382 696 383 699 383 C 699 381 704 382 703 379 Z M 676 374 C 674 376 671 376 673 374 C 673 372 674 374 676 374 Z M 662 371 C 661 373 659 372 659 370 C 657 368 662 370 662 371 Z M 731 240 L 729 239 L 728 237 L 725 235 L 722 231 C 718 228 718 236 714 232 C 712 227 700 227 712 222 C 713 221 719 219 718 218 L 718 216 C 720 214 724 216 722 210 C 723 207 716 208 717 204 C 716 202 719 199 718 198 L 716 198 C 709 188 713 205 705 207 C 701 206 703 204 699 208 C 688 207 689 214 685 214 C 686 210 675 208 677 213 C 676 216 675 212 674 211 C 676 201 671 208 663 205 C 658 205 656 196 653 197 C 648 201 637 194 631 196 C 627 199 619 189 618 197 C 617 201 619 203 623 203 C 627 209 628 216 634 216 C 643 217 635 227 647 232 L 648 232 L 648 234 C 650 237 653 231 654 236 C 657 244 668 242 670 249 C 672 255 665 261 666 267 C 672 270 674 272 669 277 C 669 278 669 279 671 278 L 669 283 C 670 286 673 290 677 288 L 677 287 C 681 284 675 295 679 293 C 680 291 692 292 691 294 L 694 291 C 698 291 703 297 704 299 C 707 295 711 298 714 299 C 719 298 712 292 714 290 C 715 288 717 286 717 283 L 718 281 C 716 281 717 278 719 277 L 719 276 C 717 275 721 276 718 274 L 718 272 C 716 272 719 270 717 271 L 718 270 C 718 266 725 265 725 261 C 730 259 729 258 724 258 L 723 258 C 724 256 721 257 722 256 L 724 250 C 716 245 725 245 730 242 L 731 240 Z"/>
            <path id="CZ-78" fill="#ffd00f" stroke="#231f20" stroke-width="0.4" stroke-linejoin="round" d="M 711 303 C 716 309 720 306 718 300 C 717 298 708 297 711 303 Z M 724 320 L 722 321 C 721 327 720 320 717 323 L 716 327 C 715 329 711 330 710 328 C 711 325 718 324 713 320 C 713 319 711 317 709 317 L 708 317 L 707 315 C 706 313 709 313 709 313 C 710 312 707 310 709 309 C 708 307 706 308 707 307 L 707 303 C 711 299 708 294 704 299 C 703 298 698 290 694 291 L 691 294 C 692 292 680 291 679 293 C 675 295 681 284 677 287 L 677 288 C 673 290 670 286 669 283 C 672 278 669 280 669 277 C 674 272 672 270 666 267 C 665 261 672 255 670 249 C 668 242 656 243 654 234 C 653 233 646 236 648 231 C 647 233 645 230 643 228 C 638 234 639 227 636 227 C 632 237 626 223 625 250 C 624 250 622 256 626 257 C 622 260 625 262 626 264 L 626 265 C 625 266 627 267 625 268 C 624 268 621 270 622 272 L 622 273 L 621 274 C 621 276 619 273 617 274 C 615 276 621 278 620 281 C 620 285 625 286 624 289 L 625 291 C 625 293 626 293 627 294 L 627 295 C 626 297 623 298 625 301 C 625 302 625 304 627 303 C 630 304 628 308 631 310 C 633 312 636 311 635 314 C 636 316 638 315 636 318 C 636 320 642 315 642 322 L 643 325 C 644 326 642 327 642 328 C 643 329 644 327 645 327 C 646 328 648 329 649 328 C 652 332 650 326 652 327 C 653 333 655 329 659 330 C 660 332 660 336 664 335 C 665 338 668 342 670 342 L 672 342 C 673 345 674 347 675 344 L 680 344 C 679 342 681 342 682 341 C 684 340 688 336 687 334 C 686 332 682 337 682 335 C 681 331 683 331 685 330 L 687 328 L 687 327 C 688 326 689 326 688 325 L 690 323 C 694 326 699 319 704 318 C 707 318 703 320 705 320 C 705 321 708 322 705 322 C 701 324 707 322 706 325 L 700 328 C 699 330 702 333 699 334 C 696 341 697 339 692 339 C 685 340 691 347 695 351 C 696 353 696 354 699 355 L 700 355 C 701 353 702 353 703 355 C 704 355 705 354 705 356 C 708 352 703 352 702 348 C 698 345 702 344 702 340 C 701 339 706 338 704 340 C 705 340 707 339 708 341 C 715 333 714 342 716 337 C 717 334 713 331 717 329 C 718 328 719 332 720 329 L 720 328 C 720 326 724 324 723 321 L 724 320 Z M 693 337 C 695 335 688 332 689 336 L 690 335 L 690 336 C 690 338 693 338 693 337 Z"/>
            <path id="CZ-77" fill="#fddb00" stroke="#231f20" stroke-width="0.4" stroke-linejoin="round" d="M 716 321 L 716 322 C 716 320 717 322 717 321 C 718 322 716 324 718 322 C 719 323 717 323 717 324 C 718 328 710 332 710 327 L 714 324 C 715 323 715 320 716 321 Z M 704 339 L 704 340 C 707 339 705 341 707 342 L 703 342 C 701 342 702 339 704 339 Z M 705 321 C 709 322 700 323 706 324 C 705 327 702 327 700 328 C 699 330 702 333 699 334 C 696 341 697 339 692 338 C 689 338 689 347 686 342 C 682 340 686 337 688 334 C 686 332 684 335 682 335 C 682 334 681 331 683 330 C 685 331 684 330 685 329 C 686 328 688 329 687 328 L 688 326 L 688 325 C 691 323 694 324 698 321 C 700 320 704 317 705 319 L 705 321 Z M 690 335 L 690 336 C 690 338 692 338 693 337 C 695 335 688 332 689 336 L 690 335 Z"/>
            <path id="CZ-76" fill="#fdbd10" stroke="#231f20" stroke-width="0.4" stroke-linejoin="round" d="M 807 394 C 805 384 805 387 797 383 C 793 379 796 388 788 378 C 785 375 781 377 780 373 C 781 371 782 370 780 368 C 777 371 772 364 774 361 C 769 362 767 360 763 358 C 764 355 766 351 766 347 C 764 345 763 344 761 346 C 758 347 760 345 759 344 C 757 344 756 341 755 344 C 753 343 751 346 748 345 C 748 343 744 340 743 343 C 743 345 744 348 741 345 L 738 346 C 739 348 744 349 742 352 C 740 355 738 356 736 354 C 733 353 730 357 729 357 L 727 357 L 729 359 C 728 360 726 366 725 365 L 722 362 C 720 361 719 364 718 362 C 715 361 712 367 713 360 C 714 359 712 359 712 358 L 711 359 C 710 359 711 359 711 359 L 710 362 C 708 363 708 365 710 367 L 712 371 C 711 372 709 373 709 375 L 708 377 C 707 380 705 381 703 380 C 702 382 699 381 699 383 C 698 385 696 381 696 383 C 698 384 695 384 695 385 L 696 388 L 693 388 L 692 391 L 691 392 C 692 394 695 394 693 397 L 694 398 L 697 401 C 695 405 697 404 700 403 L 701 402 L 701 410 C 698 412 698 411 698 415 C 698 418 695 417 695 418 C 696 419 695 422 697 422 C 701 421 704 417 708 416 C 710 415 709 414 709 413 C 706 410 708 409 710 407 C 712 403 714 401 718 398 C 722 397 724 395 727 393 C 728 394 727 392 729 392 C 728 394 728 399 731 399 C 731 401 733 401 734 402 C 735 403 734 404 735 403 C 738 405 737 404 740 402 C 741 398 745 400 746 398 C 749 397 753 393 754 399 C 751 401 752 403 754 405 L 755 405 C 764 407 757 413 764 410 C 764 406 767 408 768 405 C 768 403 769 404 770 404 L 772 405 C 773 403 773 406 774 406 L 778 407 C 785 402 782 409 787 411 C 799 408 805 408 807 394 Z"/>
            <path id="CZ-75" fill="#e7c91d" stroke="#231f20" stroke-width="0.4" stroke-linejoin="round" d="M 829 339 C 828 336 827 334 824 334 L 822 334 L 822 331 L 820 329 C 815 327 813 322 808 321 C 807 323 806 324 803 323 C 801 323 798 324 796 321 C 792 322 791 320 787 322 C 783 322 777 330 776 325 C 775 319 767 324 766 322 L 764 319 C 763 319 761 319 761 322 C 761 325 758 320 758 320 C 759 319 760 319 759 317 C 757 317 753 310 748 310 C 746 308 742 300 741 306 L 736 305 L 735 301 C 731 300 732 308 730 310 C 729 312 726 310 727 312 C 726 313 728 312 729 313 C 728 313 727 314 728 316 C 732 317 724 319 727 322 C 725 327 724 325 720 328 L 720 329 C 719 332 718 329 717 329 C 712 331 717 334 716 337 C 714 342 715 333 708 341 C 704 338 708 343 706 342 C 704 340 704 344 702 342 C 701 345 699 346 702 348 C 703 351 708 353 705 356 C 705 354 704 355 703 355 C 702 353 701 353 700 355 L 696 357 C 697 358 700 358 699 361 C 698 363 693 361 697 364 C 696 368 700 369 698 371 C 700 374 698 375 701 375 C 699 376 701 378 702 377 C 703 382 707 382 708 377 L 709 375 C 709 373 711 372 712 371 L 710 367 C 708 365 708 363 710 362 L 711 359 C 711 359 710 359 711 359 L 712 358 C 712 359 714 359 713 360 C 712 365 714 362 717 362 C 719 364 719 361 722 362 C 727 367 725 365 729 360 C 729 358 727 357 727 357 C 728 357 729 355 729 357 C 731 356 733 354 736 354 C 738 356 740 355 742 352 C 744 349 739 348 738 346 L 741 345 C 744 348 743 344 743 342 C 745 341 748 343 748 344 C 751 346 753 343 755 344 C 756 341 756 344 759 344 C 761 345 758 346 760 346 C 763 345 764 344 766 347 C 766 351 764 355 763 358 C 767 361 770 361 774 361 C 772 364 775 366 777 368 C 779 370 780 366 781 369 C 779 378 782 373 787 378 C 796 388 792 380 798 383 C 800 385 805 389 805 384 C 807 381 806 380 805 378 C 805 375 808 369 805 369 C 802 365 809 363 807 358 C 815 354 827 349 829 339 Z"/>
            <path id="CZ-74" fill="#ffdd19" stroke="#231f20" stroke-width="0.4" stroke-linejoin="round" d="M 810 320 L 808 316 L 802 313 C 804 307 801 309 798 305 C 798 304 795 305 796 302 C 794 303 794 298 793 298 C 791 298 793 293 792 290 C 792 288 790 288 788 287 L 787 285 L 784 285 L 787 280 C 786 280 787 278 786 279 C 785 280 784 278 783 278 C 781 277 783 273 782 271 C 778 273 781 268 779 268 C 779 265 776 268 775 269 L 777 267 C 776 267 775 267 776 266 L 776 264 C 776 262 778 262 777 261 C 777 259 778 262 779 261 C 778 259 781 262 781 262 C 783 259 786 263 786 261 L 786 259 L 789 259 L 791 256 L 791 255 C 793 256 793 254 794 254 C 793 252 794 250 795 249 C 798 249 793 247 792 247 C 788 236 783 246 781 238 C 772 236 782 242 770 240 C 767 240 768 237 767 235 C 764 233 761 229 757 232 C 756 233 756 236 758 237 C 759 235 761 234 762 236 C 761 238 764 241 761 240 C 750 238 751 255 739 248 C 740 244 735 246 733 245 C 731 245 731 238 730 242 C 725 245 717 245 724 250 L 722 255 C 721 257 724 256 723 258 L 724 258 C 729 258 730 259 725 261 C 725 265 718 266 718 270 L 717 271 C 718 270 716 273 718 271 C 720 271 718 276 719 276 L 719 277 C 717 278 716 281 718 281 L 717 283 C 717 288 711 291 716 295 C 715 301 715 298 718 300 C 720 305 716 309 712 303 C 708 303 714 295 709 297 L 707 303 L 707 307 C 710 308 708 311 709 313 C 709 314 708 312 707 314 L 708 316 C 708 317 710 316 709 317 L 712 318 C 711 320 714 319 713 320 C 714 321 715 323 715 321 C 716 321 716 321 715 321 L 717 321 C 719 321 716 324 719 322 C 721 323 721 325 722 321 L 723 321 C 724 324 721 325 720 327 C 725 325 725 327 727 322 C 724 318 732 317 728 315 L 728 313 C 730 312 726 313 727 312 C 726 310 730 312 730 310 C 732 308 730 301 735 301 L 736 305 L 741 306 C 742 300 746 309 748 310 C 753 310 758 317 759 318 C 761 319 759 319 758 320 C 757 320 761 325 761 321 C 761 319 763 319 764 319 L 766 322 C 767 324 775 319 776 325 C 777 330 783 322 787 322 L 793 322 C 794 321 795 319 796 321 C 799 325 803 323 807 323 L 808 321 C 808 321 810 322 810 320 Z"/>
            <path id="CZ-73" fill="#ffd00f" stroke="#231f20" stroke-width="0.4" stroke-linejoin="round" d="M 871 298 C 870 294 865 294 866 290 C 862 287 860 269 852 277 C 847 277 849 272 844 274 L 842 274 L 838 273 C 837 267 829 261 827 255 C 829 253 827 252 828 251 C 833 248 823 252 824 246 C 825 243 824 242 823 241 C 822 243 819 239 820 242 C 822 245 819 245 817 245 L 816 246 L 815 245 L 814 245 C 809 243 806 242 801 243 C 794 241 798 243 798 245 C 798 246 796 246 796 249 C 798 250 797 253 795 253 L 796 255 L 798 255 C 799 252 802 255 801 258 C 802 261 805 258 805 264 L 806 265 L 806 267 L 805 270 C 806 272 804 271 803 271 C 802 270 800 273 799 272 C 798 272 803 276 800 277 C 795 278 801 284 795 281 L 791 281 L 789 282 L 787 280 L 784 285 L 787 285 L 788 287 C 790 288 792 288 792 290 C 793 293 791 298 793 298 C 794 298 794 303 796 302 C 795 305 798 304 798 305 C 801 309 804 307 802 313 L 808 316 L 810 320 C 812 324 817 327 820 329 L 822 331 L 822 334 L 824 334 C 834 336 833 329 836 323 C 838 322 838 320 839 318 C 840 317 836 316 838 314 C 838 311 841 311 843 310 C 845 313 847 311 849 310 C 853 306 859 311 862 307 C 863 303 873 302 869 301 C 870 299 869 299 871 298 Z"/>
            <path id="CZ-69" fill="#ffdd19" stroke="#231f20" stroke-width="0.4" stroke-linejoin="round" d="M 764 446 L 762 442 L 761 442 C 759 438 753 437 749 437 C 752 429 741 433 738 433 C 737 435 736 435 735 434 C 733 434 732 431 730 431 C 729 433 725 434 727 431 L 726 428 C 724 428 723 426 721 428 C 718 426 717 430 715 426 C 714 425 710 424 710 427 C 708 425 710 423 709 422 C 707 413 701 421 697 422 C 695 420 696 423 692 421 C 690 417 689 421 688 418 L 686 416 C 682 413 684 420 685 423 C 684 423 683 424 684 422 C 683 424 682 424 680 423 L 678 425 C 674 425 671 433 668 433 L 667 434 C 665 437 662 431 661 437 C 660 441 655 438 652 438 C 652 442 644 438 644 443 C 644 443 641 442 642 444 C 644 447 648 446 647 451 C 635 447 640 453 636 445 C 634 449 624 450 628 453 C 628 459 624 460 631 467 C 626 470 626 481 631 483 C 639 487 642 478 649 485 C 654 484 660 482 659 490 C 661 494 664 487 666 490 C 669 491 674 495 678 490 C 680 492 683 490 683 488 L 686 488 C 686 490 690 491 688 494 C 688 495 688 496 690 495 L 690 497 C 696 517 695 493 698 485 C 702 474 707 450 720 455 L 723 455 C 725 456 726 457 728 456 C 732 461 738 460 741 455 C 743 447 755 462 754 453 C 759 454 760 448 764 446 Z"/>
            <path id="CZ-68" fill="#ffd00f" stroke="#231f20" stroke-width="0.4" stroke-linejoin="round" d="M 658 370 C 659 371 660 373 661 372 C 662 371 659 368 658 370 Z M 672 375 C 673 377 675 375 676 374 C 673 373 673 372 672 375 Z M 656 377 L 660 379 C 659 378 662 379 661 377 C 659 377 658 368 656 377 Z M 788 415 C 788 410 783 411 783 405 L 778 407 C 776 405 774 407 773 405 C 774 404 772 405 771 404 L 770 404 C 767 402 769 406 767 406 C 765 407 764 407 764 409 C 757 413 764 407 755 405 L 754 405 C 752 403 751 401 754 398 C 752 393 749 397 746 398 C 745 400 741 398 740 402 C 737 404 738 405 735 403 C 734 404 735 403 734 402 L 731 399 C 725 398 732 391 727 393 C 724 395 722 397 718 398 L 710 407 C 707 409 707 411 709 413 C 709 414 710 415 708 416 C 704 417 709 419 709 422 C 710 423 708 425 710 427 C 711 424 714 425 715 426 C 717 430 718 426 721 428 C 723 426 724 428 726 428 L 727 431 C 725 434 729 433 730 431 C 732 431 733 434 735 434 C 736 435 737 435 738 433 C 740 433 752 429 749 437 C 752 438 759 437 761 442 L 762 442 C 762 449 771 444 772 440 C 776 423 791 435 788 420 L 788 415 Z M 702 403 L 701 402 L 700 403 C 697 404 695 405 697 401 L 694 398 L 693 397 C 695 394 692 394 691 392 L 692 391 L 693 388 C 694 386 691 384 690 382 C 689 376 680 378 677 375 C 676 376 677 376 678 377 L 679 380 C 677 382 676 378 675 379 C 674 379 672 379 674 380 C 675 381 676 380 674 381 L 673 381 L 672 382 L 672 385 L 670 385 C 668 384 664 380 664 383 L 655 380 C 649 373 653 383 655 384 C 657 384 653 386 653 387 C 650 391 659 389 657 392 C 655 393 656 392 657 393 L 657 394 C 653 396 656 401 659 401 L 661 403 L 660 404 L 660 405 C 664 406 660 413 658 410 C 656 411 656 413 658 414 L 655 423 L 656 425 C 657 427 658 423 658 424 L 659 429 C 663 429 663 439 667 434 L 668 433 C 671 433 674 425 678 425 L 680 423 C 682 424 683 424 684 422 C 683 424 684 423 685 423 C 684 420 682 413 686 416 L 688 418 C 688 421 690 417 690 419 C 696 427 695 419 696 417 C 699 418 697 412 698 411 L 701 410 C 703 409 701 405 702 403 Z M 646 362 C 644 360 644 358 641 360 C 638 357 640 356 641 354 C 637 344 635 360 633 357 C 632 353 631 355 628 355 C 624 352 627 358 626 361 C 621 361 628 366 629 366 L 630 367 L 629 368 C 627 373 636 365 642 368 C 643 366 640 365 640 363 C 641 364 642 362 642 361 L 646 362 Z"/>
            <path id="CZ-67" fill="#fddb00" stroke="#231f20" stroke-width="0.4" stroke-linejoin="round" d="M 642 352 L 642 351 L 641 351 C 638 351 641 353 641 354 C 637 356 641 362 643 358 C 643 356 644 356 645 355 L 645 352 C 647 352 648 351 646 351 L 642 352 Z M 588 499 C 587 495 586 495 581 495 C 577 498 589 504 588 499 Z M 633 484 L 631 483 C 621 480 633 468 629 463 C 622 462 630 454 627 449 C 625 446 619 439 615 443 C 613 447 613 445 610 442 C 610 444 608 441 608 442 C 605 440 601 445 601 439 C 594 442 602 437 599 434 C 596 433 600 429 596 433 C 596 430 590 427 597 426 L 597 421 L 595 420 C 594 420 592 421 593 419 C 593 413 592 410 588 416 L 586 415 C 588 413 584 414 586 413 L 587 412 L 584 412 C 585 409 574 412 578 408 L 577 407 C 577 408 575 409 575 407 C 575 405 574 408 573 408 L 573 407 L 571 413 C 567 412 567 406 562 407 C 557 403 559 410 557 408 C 553 401 553 409 548 409 C 549 406 542 408 545 405 C 542 403 543 408 541 407 C 540 410 538 406 537 407 L 536 410 C 536 408 535 409 535 410 C 535 412 534 407 533 410 C 536 415 534 414 532 416 C 534 416 532 416 533 418 C 536 418 534 419 533 419 C 530 423 530 417 528 420 L 528 421 C 525 419 525 421 524 422 C 523 424 528 425 525 427 C 524 429 522 427 521 428 L 526 433 C 528 433 526 435 526 436 C 526 439 529 434 528 439 C 536 447 522 443 529 449 L 530 452 C 533 454 530 455 531 457 C 530 460 527 455 526 457 L 526 458 C 527 461 519 458 522 461 C 523 462 520 462 520 462 C 523 465 520 465 520 467 C 520 468 521 469 519 469 L 517 474 C 516 475 518 476 518 475 C 519 473 520 474 521 474 L 521 477 C 525 477 528 476 528 480 L 529 481 L 529 482 L 527 482 C 529 483 526 485 528 484 C 526 485 524 489 530 489 L 536 489 C 537 491 538 489 540 490 C 542 493 544 494 547 493 C 553 494 555 487 561 487 C 561 489 565 492 564 489 C 565 488 566 490 565 488 L 565 487 C 566 480 571 491 569 478 C 570 476 574 481 573 482 C 571 482 573 485 574 484 C 574 483 575 484 574 484 C 574 486 578 484 576 484 L 578 484 C 580 486 578 482 578 481 L 580 478 C 581 474 584 483 588 478 C 588 477 596 474 593 479 C 598 479 592 483 594 486 C 593 489 592 486 590 485 L 594 482 C 591 482 589 486 588 483 L 588 486 L 584 488 C 586 489 584 490 585 491 C 582 494 594 497 594 494 C 595 491 590 493 591 492 C 592 487 593 488 596 491 C 598 492 596 495 597 496 C 599 494 599 500 599 502 C 604 502 615 499 621 500 L 622 497 C 624 498 624 501 627 499 L 628 497 L 629 496 L 633 484 Z M 657 391 C 655 390 651 390 653 387 L 656 384 C 654 384 649 377 653 378 C 654 379 657 380 656 378 C 657 374 645 375 648 370 C 650 369 652 368 649 367 C 650 366 647 366 646 365 C 645 360 642 361 640 363 C 639 364 643 366 642 367 C 642 369 640 369 639 367 C 636 366 631 371 629 369 L 629 367 C 631 367 630 366 629 366 C 628 367 627 365 627 364 C 625 363 622 361 626 361 C 627 358 624 352 628 355 C 631 355 632 353 633 357 C 635 359 636 351 637 349 C 638 348 635 347 636 346 C 635 344 637 345 638 345 L 641 345 C 644 344 639 343 641 342 L 641 341 C 637 342 631 339 629 339 C 626 342 620 338 620 341 C 613 343 611 338 613 349 L 612 348 C 610 349 609 350 607 348 C 604 351 603 351 601 350 C 598 351 600 356 597 354 C 599 357 594 359 597 360 C 598 361 602 360 602 363 C 599 373 595 366 596 369 C 597 370 598 372 599 370 L 600 372 C 601 374 598 377 600 380 C 601 381 599 383 602 383 C 601 386 604 387 607 388 C 608 387 606 385 608 385 C 607 384 607 383 609 383 C 609 385 609 384 610 383 L 610 382 C 611 382 610 384 612 384 C 614 383 610 388 614 386 C 615 387 617 386 618 388 C 618 387 619 385 619 387 L 620 389 C 624 388 620 392 622 393 C 623 393 625 393 624 395 C 630 398 633 385 636 398 C 640 398 637 395 638 395 L 637 395 L 638 393 L 639 393 C 643 394 644 396 648 398 C 651 397 652 392 657 392 L 657 391 Z"/>
            <path id="CZ-66" fill="#fdbd10" stroke="#231f20" stroke-width="0.4" stroke-linejoin="round" d="M 662 408 L 660 405 L 660 404 L 661 403 L 659 401 C 656 401 653 396 657 394 L 657 393 C 653 391 650 398 648 398 L 639 393 L 638 393 L 637 395 L 638 395 L 638 396 L 639 396 C 638 399 629 399 636 401 C 637 404 637 405 640 406 C 641 406 640 409 642 408 C 647 400 647 403 646 409 L 647 412 C 646 413 645 413 645 415 L 646 416 L 646 418 C 646 420 651 418 648 420 C 648 420 650 423 646 425 C 646 428 640 425 640 428 C 639 427 640 425 641 424 C 641 422 639 421 640 423 L 637 424 C 636 425 635 425 635 423 C 634 417 632 426 629 421 L 628 420 C 625 422 623 416 620 417 C 620 421 612 414 615 412 L 616 407 C 614 406 614 406 615 403 C 618 403 621 404 621 407 C 623 408 626 409 624 406 L 625 406 C 625 405 626 404 627 405 C 628 407 628 403 626 404 C 626 403 628 403 627 402 L 629 402 C 628 400 631 397 634 398 L 636 398 C 637 397 634 392 633 391 C 630 393 626 397 624 395 C 625 393 623 393 622 393 C 620 392 624 388 620 389 L 619 387 C 619 385 618 387 618 388 C 616 386 614 386 613 387 C 613 383 611 385 611 382 C 610 381 611 384 610 383 C 609 382 610 385 609 384 C 608 384 609 382 608 383 C 606 386 609 384 607 386 C 607 386 608 388 606 388 C 600 384 602 389 604 392 L 601 395 C 601 397 601 394 600 395 C 599 396 598 399 596 399 C 594 400 596 401 595 402 L 595 404 C 593 405 590 410 595 409 C 601 412 590 412 593 419 C 592 421 594 420 595 420 L 597 421 L 597 426 C 590 427 597 430 595 433 C 600 430 596 432 599 433 C 603 436 593 442 601 439 C 601 445 605 440 607 442 C 608 441 610 444 610 442 C 613 445 613 447 615 443 C 622 437 625 453 630 450 C 635 447 637 442 637 449 L 647 451 C 648 446 644 447 642 444 C 641 442 645 444 644 443 C 645 438 651 442 652 438 C 654 438 660 441 661 437 C 662 435 663 430 659 429 L 658 424 C 658 423 657 427 656 425 L 655 423 L 658 414 C 656 413 656 411 658 410 C 660 413 661 408 662 408 Z M 599 499 C 597 499 600 494 597 496 L 597 493 C 596 491 592 485 591 491 C 589 493 595 491 594 495 C 591 496 588 494 585 493 C 584 491 587 489 584 488 L 588 486 L 587 483 C 588 482 589 486 590 483 C 594 481 595 483 590 485 L 593 487 C 594 490 596 478 594 479 C 592 478 597 476 591 476 C 581 486 582 471 580 479 C 577 481 579 483 579 484 L 575 483 C 579 484 575 486 574 484 L 573 484 C 573 482 571 482 573 482 C 571 475 567 478 570 484 C 568 487 565 482 565 487 C 565 487 565 491 567 491 C 568 487 570 494 568 491 C 568 495 571 489 573 494 C 575 495 573 492 574 493 C 575 494 576 493 575 496 C 578 498 583 502 581 496 L 587 495 C 589 496 586 502 591 502 C 594 503 600 504 599 499 Z"/>
            <path id="CZ-60-64" fill="#fddb00" stroke="#231f20" stroke-width="0.4" stroke-linejoin="round" d="M 623 408 Z M 649 423 C 647 419 651 419 647 419 C 646 417 647 416 645 415 C 644 413 647 413 647 411 C 646 409 647 398 644 406 C 642 409 640 409 640 406 C 638 405 637 405 636 402 L 633 400 C 633 399 638 398 635 398 L 630 398 L 628 402 L 627 402 C 628 404 625 403 627 404 L 627 406 C 627 403 623 407 624 407 C 626 410 622 408 621 406 C 622 402 612 402 615 407 C 617 406 614 412 614 414 C 614 416 617 416 618 418 C 620 419 620 416 622 417 C 623 420 627 421 629 420 L 631 423 C 636 417 634 425 636 425 C 637 423 640 425 640 422 C 643 422 638 426 640 428 C 641 426 643 427 645 426 L 649 423 Z"/>
            <path id="CZ-59" fill="#e7c91d" stroke="#231f20" stroke-width="0.4" stroke-linejoin="round" d="M 604 392 C 602 390 602 387 602 382 C 599 384 601 380 600 380 C 597 377 601 374 600 372 L 599 370 C 598 371 596 370 597 369 C 594 367 598 369 598 369 C 600 368 601 365 602 363 C 602 360 598 361 597 360 C 594 359 599 356 596 353 C 593 351 587 348 584 350 C 582 349 582 347 579 346 C 576 342 571 343 569 342 C 567 342 567 343 565 341 L 561 343 L 559 340 C 557 339 555 338 554 339 C 554 340 548 339 549 337 C 549 335 546 338 545 340 C 545 341 547 344 544 343 C 546 350 537 342 535 349 C 535 351 536 356 533 354 C 528 355 535 356 534 359 C 532 359 529 358 530 361 C 528 362 528 364 529 365 C 531 367 532 370 529 370 C 530 371 531 372 530 374 C 531 375 528 377 529 377 C 530 379 531 381 533 381 C 534 383 535 384 537 384 C 535 386 543 389 542 390 C 540 389 542 393 541 394 C 546 394 542 398 540 400 L 543 404 C 547 404 544 406 544 407 C 546 408 548 407 548 409 C 553 410 552 400 557 408 C 561 408 555 404 564 408 C 568 407 568 414 571 412 L 573 407 C 574 409 574 404 575 408 C 576 409 577 407 577 407 L 577 409 C 576 412 585 410 584 412 C 589 412 583 413 587 415 C 588 416 589 416 589 414 C 592 413 596 413 597 411 C 596 409 594 410 593 409 C 591 406 595 405 595 404 C 594 398 598 400 599 395 C 600 394 600 396 601 396 C 601 394 604 393 604 392 Z"/>
            <path id="CZ-58" fill="#ffdd19" stroke="#231f20" stroke-width="0.4" stroke-linejoin="round" d="M 545 405 L 543 404 L 540 400 C 542 398 546 394 541 394 C 542 393 540 389 542 390 C 544 389 535 386 537 384 C 535 384 534 383 533 381 C 531 381 531 379 529 377 C 528 377 531 375 530 374 C 531 372 530 371 529 370 C 532 370 531 367 529 365 C 526 362 530 362 531 359 C 531 358 534 360 534 358 C 534 356 532 356 531 355 L 533 354 C 536 356 535 351 535 349 C 542 342 530 347 532 341 L 533 340 L 532 338 C 531 342 526 335 523 338 C 522 339 522 336 522 335 C 523 333 519 335 517 335 L 514 332 L 512 332 C 512 331 509 333 511 331 L 508 331 C 507 330 508 333 507 333 L 505 331 L 504 331 L 500 333 L 500 332 L 488 327 C 488 329 487 328 486 329 C 487 331 485 330 485 331 C 483 328 479 335 481 336 C 482 335 482 336 483 337 L 483 339 C 482 341 479 339 479 341 C 477 338 477 342 476 343 L 468 348 L 467 349 C 468 350 466 350 466 351 C 466 349 464 352 465 349 C 464 348 463 349 463 350 C 462 350 460 351 462 352 C 462 354 460 353 461 356 L 459 359 C 457 362 460 368 464 366 C 468 366 467 372 469 374 C 471 375 481 372 480 370 L 481 370 C 482 371 483 372 484 371 L 485 373 C 487 372 487 375 488 373 L 490 373 L 489 374 C 493 375 488 376 489 379 C 487 383 490 381 489 382 C 490 383 489 386 488 387 C 490 388 494 390 490 392 C 489 393 491 395 489 395 C 487 398 488 403 492 404 C 495 407 490 405 491 407 C 488 412 502 411 492 413 L 492 417 C 495 421 490 418 490 420 C 489 420 494 423 491 423 C 489 423 491 425 489 426 C 492 437 480 423 485 437 C 484 440 486 442 490 441 C 493 437 493 442 495 444 L 494 446 C 494 447 494 449 495 448 C 497 452 500 452 505 454 C 506 456 505 450 508 453 C 512 456 514 450 518 451 L 517 450 L 519 450 C 520 450 521 449 522 452 C 522 452 519 452 521 453 L 522 454 L 524 454 C 522 455 526 455 526 456 L 528 457 L 530 453 L 530 450 C 521 443 536 447 528 439 C 529 433 525 440 526 435 L 526 433 C 524 432 522 430 522 428 C 522 427 524 429 525 427 C 528 425 523 425 524 422 C 526 421 525 419 528 421 L 528 420 C 528 420 528 421 528 420 C 531 419 530 423 533 419 C 535 419 535 418 533 417 L 532 415 C 537 415 532 411 534 409 L 535 410 L 536 409 L 536 410 C 536 408 538 406 540 408 L 542 407 C 541 405 544 405 545 405 Z"/>
            <path id="CZ-57" fill="#ffd00f" stroke="#231f20" stroke-width="0.4" stroke-linejoin="round" d="M 566 336 C 565 334 557 331 561 336 C 561 339 553 337 559 340 L 561 343 C 565 341 566 340 566 336 Z M 617 309 C 617 311 618 310 618 309 C 619 306 616 307 617 309 Z M 643 324 L 642 322 C 642 315 636 320 636 318 C 639 314 635 316 635 313 C 636 310 633 312 631 310 C 628 309 630 303 626 304 C 626 307 624 307 622 307 L 622 312 C 620 311 620 314 619 313 C 619 313 615 314 619 314 L 619 315 L 620 315 L 619 316 L 618 316 L 618 317 C 617 318 619 317 619 318 L 619 319 L 620 319 C 621 323 612 321 622 325 C 621 330 626 334 627 329 C 630 329 632 330 630 326 C 631 325 628 324 627 324 L 628 322 L 630 325 L 635 326 L 635 327 C 636 324 641 326 643 325 L 643 324 Z M 623 311 C 622 311 623 311 623 311 Z M 595 338 C 592 332 590 335 586 337 C 576 335 579 325 589 330 C 592 324 585 329 584 325 C 586 318 580 322 579 325 C 583 326 577 327 576 326 C 575 329 574 328 573 326 C 570 329 568 329 571 332 C 575 334 569 336 570 338 L 573 342 L 573 343 L 575 342 C 575 339 579 337 580 341 C 582 340 584 337 586 338 L 592 341 L 595 338 Z M 594 309 L 589 303 C 586 301 585 302 580 303 C 577 303 578 299 575 301 L 570 300 L 569 299 L 567 298 C 566 298 566 300 564 299 L 564 302 L 565 302 L 565 301 C 565 300 569 302 568 303 C 566 305 569 304 568 305 L 568 307 L 570 308 C 572 307 569 310 570 311 C 571 312 569 312 568 313 L 567 313 C 564 311 569 306 565 305 L 563 307 C 557 307 567 311 561 312 C 561 314 562 314 560 316 L 561 317 C 564 313 567 322 565 322 C 566 325 566 323 568 325 C 569 321 573 323 576 322 C 574 320 572 318 570 318 C 570 314 568 311 574 313 C 573 312 570 311 572 310 C 572 308 573 307 575 308 C 576 307 581 315 576 314 L 577 317 C 581 321 578 315 580 313 L 579 311 L 585 307 L 586 309 L 586 308 L 586 309 L 587 309 L 588 311 L 587 311 L 588 311 C 591 314 593 312 594 309 Z"/>
            <path id="CZ-56" fill="#fddb00" stroke="#231f20" stroke-width="0.4" stroke-linejoin="round" d="M 643 326 C 641 325 636 324 635 327 L 635 326 L 630 325 C 631 324 629 322 628 321 L 627 325 C 629 323 631 325 630 326 C 634 331 628 328 627 330 C 624 334 622 328 621 325 C 613 323 621 322 620 319 L 619 319 L 619 318 C 619 317 617 318 618 317 L 618 316 L 619 316 L 620 315 L 619 315 L 619 314 C 615 314 619 313 619 313 C 620 313 620 311 622 312 C 623 311 622 311 621 311 L 623 308 C 621 305 627 310 626 305 C 625 300 624 298 627 295 C 628 294 627 294 626 294 L 625 291 L 624 289 C 625 286 620 285 620 281 C 621 278 615 276 617 274 C 619 273 621 276 621 274 L 622 273 L 622 272 C 621 270 624 268 625 268 C 627 267 625 266 626 265 L 626 264 C 625 262 622 260 626 257 C 622 256 624 250 625 250 C 624 246 629 239 624 237 C 623 235 619 242 620 244 C 619 250 614 251 613 257 C 609 260 602 257 600 254 L 597 254 C 595 255 592 253 590 253 C 589 251 586 251 585 253 C 586 255 584 260 581 259 C 582 260 580 260 580 260 C 583 261 579 261 579 262 L 573 267 C 572 270 576 269 573 272 L 571 272 C 570 274 571 274 573 275 C 575 279 567 275 568 276 L 564 278 C 564 277 565 276 563 277 C 563 277 563 279 561 278 C 560 279 559 281 558 280 L 555 277 L 552 277 L 551 282 C 551 286 549 286 546 284 L 547 287 C 550 288 547 288 547 290 L 550 290 L 549 292 L 547 293 L 546 292 L 546 293 L 548 294 C 546 296 549 296 548 297 C 548 299 549 299 550 300 C 550 302 550 305 552 304 C 554 305 552 308 553 310 C 553 310 556 308 556 310 L 559 309 L 559 310 C 559 308 566 305 567 306 C 565 310 568 316 570 311 C 569 310 572 307 570 308 L 568 307 L 568 305 C 568 305 568 306 568 305 C 569 304 566 304 568 303 C 569 302 565 300 565 301 L 565 302 L 564 302 L 564 299 C 566 300 566 298 567 298 L 569 299 L 570 300 L 575 301 C 578 299 577 304 580 303 C 585 303 586 301 589 303 C 595 307 594 316 588 311 L 587 311 L 588 311 L 587 309 L 586 309 L 586 308 L 586 309 L 585 307 L 579 311 L 580 313 C 578 315 581 321 577 317 L 577 314 C 581 315 576 308 575 308 C 573 308 572 308 572 310 C 570 310 573 312 574 313 C 568 311 570 314 570 318 C 572 318 574 320 576 322 C 573 323 569 321 568 325 C 566 323 566 325 565 322 C 567 322 564 313 561 317 C 561 318 561 322 563 324 C 562 326 564 332 560 329 C 554 321 557 336 551 330 C 549 332 554 333 554 333 C 550 335 558 337 560 337 C 563 337 561 335 560 334 C 561 331 564 335 566 335 C 567 337 564 344 568 342 L 573 342 C 568 337 575 334 569 329 C 574 324 575 331 576 326 C 584 329 577 324 580 323 C 588 316 580 329 589 327 C 591 334 579 324 580 331 C 580 333 579 333 581 333 C 582 339 588 337 589 335 C 593 334 597 339 593 339 C 591 344 589 339 586 338 C 584 337 582 340 580 341 C 579 337 576 339 575 342 L 573 343 C 574 344 578 343 579 346 C 582 347 582 349 584 350 C 588 347 594 351 597 354 C 600 356 599 350 601 350 C 603 352 604 350 607 348 C 608 350 611 349 612 348 L 613 349 C 612 343 611 340 619 342 C 620 340 621 338 624 341 C 626 338 626 341 629 339 C 631 339 641 344 641 340 C 641 339 641 334 642 336 C 642 335 638 332 640 330 L 643 326 Z M 617 310 C 615 309 619 304 618 309 L 617 310 Z M 623 311 C 623 311 622 311 623 311 Z"/>
            <path id="CZ-55" fill="#fdbd10" stroke="#231f20" stroke-width="0.4" stroke-linejoin="round" d="M 536 226 C 534 225 535 225 536 224 C 534 225 534 223 535 223 L 535 222 C 533 221 535 220 533 220 L 533 218 C 531 218 529 211 528 216 C 524 217 525 210 522 211 C 517 211 519 209 516 213 L 516 214 L 515 215 L 515 216 C 513 220 520 224 517 225 L 515 225 C 513 226 514 227 512 227 L 512 229 L 510 230 L 510 232 C 510 232 511 233 510 232 L 508 233 C 508 235 506 234 505 234 L 504 235 C 502 234 504 238 505 237 C 505 239 506 239 507 237 C 508 237 507 239 509 238 L 511 239 C 512 237 513 239 514 238 L 515 240 C 513 243 517 243 519 241 C 523 243 522 239 524 240 L 528 240 C 531 238 531 232 531 230 C 532 231 532 229 532 228 C 534 230 534 227 536 226 Z M 559 183 C 557 180 555 171 554 174 C 554 175 554 179 552 180 C 548 178 544 181 546 185 C 545 184 543 187 544 186 C 551 194 551 189 557 187 C 558 187 556 184 559 183 Z"/>
            <path id="CZ-54" fill="#e7c91d" stroke="#231f20" stroke-width="0.4" stroke-linejoin="round" d="M 566 182 C 565 178 558 178 557 174 C 557 178 560 187 556 187 C 550 194 549 188 544 186 C 544 184 545 186 547 185 C 544 181 549 178 552 180 C 554 179 554 175 554 174 C 552 171 550 169 547 172 L 541 172 C 538 171 539 176 539 178 C 540 179 538 179 537 179 C 537 180 536 181 535 180 C 535 177 529 176 527 177 C 521 177 524 192 516 188 C 513 187 517 184 518 184 C 515 183 516 178 514 177 C 510 171 504 179 501 180 C 498 179 498 173 494 172 C 493 165 490 168 486 170 C 485 171 484 173 483 172 C 478 173 456 162 462 173 C 463 174 466 174 466 176 C 465 180 466 187 470 190 C 466 194 475 194 472 199 C 470 203 475 205 478 208 C 482 211 475 211 475 213 C 476 217 482 213 483 217 L 483 218 C 481 222 487 223 489 223 C 489 227 492 229 494 229 L 494 231 C 492 233 496 235 496 235 C 495 237 496 239 498 240 L 502 237 L 503 237 C 506 239 501 234 504 235 L 505 234 C 506 234 508 235 508 233 L 510 232 C 510 233 510 232 510 232 L 510 230 C 511 230 511 228 512 229 L 512 227 C 514 228 513 226 515 225 L 517 225 C 520 224 513 220 515 216 L 515 215 L 516 214 L 516 213 C 519 209 518 212 523 211 C 525 211 524 217 527 216 C 528 217 528 215 529 214 C 530 214 532 217 531 218 C 534 218 533 221 535 222 L 535 223 C 534 224 535 224 536 225 C 533 225 537 226 535 226 C 534 228 534 229 532 229 L 530 237 C 533 236 535 243 536 238 L 538 238 C 544 239 538 232 545 232 C 546 229 548 230 550 229 C 549 227 550 224 552 226 L 555 226 L 556 224 C 555 223 554 218 551 219 C 551 217 552 217 550 216 C 549 215 546 219 547 216 C 539 206 552 214 546 208 C 547 207 548 208 547 207 C 549 207 549 206 549 205 C 549 203 550 204 551 204 L 551 203 C 556 205 552 194 558 199 C 560 198 564 192 561 190 C 565 187 560 186 566 182 Z"/>
            <path id="CZ-53" fill="#ffdd19" stroke="#231f20" stroke-width="0.4" stroke-linejoin="round" d="M 563 310 C 561 309 559 308 559 310 L 554 310 C 552 310 553 308 553 306 C 555 304 550 305 550 303 L 550 300 C 548 299 548 297 549 296 C 547 295 548 295 548 294 L 547 293 C 546 291 547 293 547 293 C 548 292 550 292 550 290 C 543 290 551 288 547 287 C 548 284 545 284 549 285 C 551 286 552 278 550 277 C 548 273 545 276 543 275 C 541 267 536 276 534 267 C 529 265 525 264 520 266 C 521 270 511 276 512 269 C 511 268 509 266 507 267 C 507 269 503 269 505 271 C 506 276 502 273 500 275 C 500 279 496 276 495 276 C 495 278 492 276 491 277 L 490 277 C 488 276 491 279 489 278 C 488 279 488 278 487 277 C 487 275 484 276 486 277 L 484 278 L 481 279 C 482 284 479 283 475 287 L 475 288 L 474 287 C 471 283 474 288 471 287 L 470 286 L 469 287 C 468 290 471 288 472 289 C 468 290 472 292 472 295 L 473 298 C 473 298 470 298 471 297 L 467 299 C 470 304 474 300 475 303 L 476 303 C 477 304 478 302 479 302 L 479 303 C 479 301 482 305 480 305 C 480 308 487 308 487 309 C 488 308 488 310 489 310 C 485 315 492 312 488 319 C 488 322 486 317 488 325 C 485 327 499 331 500 332 L 500 333 L 504 331 L 505 331 L 507 333 C 508 333 507 329 508 331 C 509 332 512 330 510 332 L 514 332 L 517 335 C 519 335 523 333 522 335 C 522 336 522 339 523 338 C 526 335 531 342 532 338 L 533 340 L 532 341 C 531 344 535 345 537 345 C 540 347 546 348 544 343 C 547 344 544 341 546 339 C 547 338 549 334 549 337 C 549 339 554 340 554 339 C 562 337 558 337 553 335 C 555 331 552 334 551 331 C 551 327 553 334 554 332 C 557 319 563 340 563 324 C 561 321 562 318 560 316 C 562 314 561 314 561 312 C 561 312 564 311 563 310 Z"/>
            <path id="CZ-51" fill="#ffd00f" stroke="#231f20" stroke-width="0.4" stroke-linejoin="round" d="M 597 253 C 597 251 594 251 593 249 C 593 245 592 241 589 239 C 588 238 586 239 585 236 L 582 235 C 582 233 579 232 578 230 C 576 230 575 227 573 226 C 568 231 566 222 564 218 C 561 220 557 218 557 222 L 556 222 L 556 224 L 555 226 L 552 226 C 550 224 549 227 550 229 C 548 230 546 229 545 232 C 537 232 545 240 537 238 C 533 245 535 231 528 240 C 522 241 527 241 527 245 C 530 248 530 253 535 253 C 535 255 531 256 534 257 C 530 260 537 262 533 262 C 527 260 535 267 535 271 C 538 273 543 269 543 275 C 546 275 549 274 550 277 L 555 277 L 558 280 C 559 281 560 279 561 278 C 563 279 563 277 563 277 C 565 276 563 277 564 278 L 568 276 C 568 276 575 278 573 275 C 571 274 570 274 571 272 L 573 272 C 576 269 572 271 573 268 C 575 266 577 262 579 262 C 578 261 583 261 581 260 L 581 259 C 582 260 585 258 585 256 C 583 252 588 250 590 253 C 592 253 596 256 597 253 Z M 480 210 L 478 208 C 475 205 470 204 472 199 C 475 194 466 194 470 190 C 466 187 465 180 466 176 C 466 174 463 174 462 173 C 461 169 448 163 446 170 C 446 172 443 175 446 175 L 444 176 C 442 177 446 185 446 188 C 447 192 443 188 443 190 L 442 192 C 442 192 441 191 441 193 C 441 195 443 196 440 197 C 443 199 437 199 438 201 L 434 201 C 436 203 432 205 432 202 L 431 203 C 429 207 430 204 427 203 C 427 202 426 207 424 204 C 424 205 423 206 421 206 L 420 211 C 418 212 421 214 420 215 L 419 215 L 418 216 C 421 216 420 221 423 221 C 426 219 427 222 428 222 L 436 225 C 437 224 438 223 440 224 C 442 225 440 220 442 222 C 444 221 441 219 443 216 C 446 216 452 224 452 220 C 453 218 454 220 455 220 C 459 220 455 222 457 223 L 458 222 C 459 222 457 220 460 221 L 461 219 C 461 218 459 219 459 217 C 457 214 464 214 460 212 C 460 211 460 209 458 209 C 458 205 461 208 462 209 L 462 210 C 461 211 464 210 464 211 C 466 207 467 209 468 211 C 465 212 465 213 467 214 L 469 214 C 471 213 473 210 475 213 C 474 212 479 212 480 210 Z"/>
            <path id="CZ-50" fill="#fddb00" stroke="#231f20" stroke-width="0.4" stroke-linejoin="round" d="M 535 253 C 532 253 529 250 529 247 C 526 245 526 242 524 240 C 522 239 523 243 519 241 C 511 246 517 236 511 239 L 509 238 C 507 239 508 236 507 237 C 507 239 505 239 505 237 L 503 237 C 503 239 502 236 502 237 L 498 240 C 496 239 495 237 496 235 C 493 234 493 230 494 229 C 491 229 489 226 488 223 C 487 223 481 222 483 218 L 483 217 C 484 214 477 216 476 215 C 473 211 472 212 469 214 L 467 214 C 465 213 465 212 468 211 C 466 206 466 211 462 210 L 462 209 C 461 210 460 206 458 207 C 459 208 457 209 460 210 L 461 214 C 460 215 457 215 459 217 C 459 219 462 218 461 219 L 460 221 C 457 220 459 222 458 222 L 457 223 C 455 223 459 220 456 220 C 454 220 453 218 452 220 C 452 224 446 217 443 216 C 441 219 444 221 442 222 C 440 220 442 225 440 224 C 438 223 437 224 436 225 L 428 222 C 425 221 427 222 425 224 C 422 225 426 226 427 228 L 428 230 L 428 234 C 429 234 431 235 430 236 C 432 237 432 238 432 241 C 430 242 429 243 431 244 C 430 246 429 244 428 246 C 427 247 428 249 430 249 C 430 249 430 252 433 253 L 435 251 C 435 252 439 252 437 253 C 437 255 439 252 440 254 C 443 254 438 259 444 259 C 447 259 449 257 452 259 C 453 259 454 256 456 256 C 457 255 459 257 460 257 C 460 259 463 262 461 263 C 465 270 459 268 461 272 C 464 271 462 276 464 273 C 466 272 464 276 463 276 C 463 276 463 278 462 277 C 460 279 467 278 463 280 C 459 283 466 279 467 282 C 469 283 467 281 469 281 L 470 282 L 473 283 C 472 284 472 285 474 287 L 475 288 L 475 287 C 479 283 482 284 481 279 L 484 278 L 486 277 C 484 276 487 275 487 277 C 488 278 488 279 489 278 C 491 279 488 276 490 277 L 491 277 C 492 276 495 278 495 276 C 496 276 500 279 500 275 C 502 273 506 276 505 271 C 503 269 507 269 507 267 C 509 266 511 268 512 269 C 510 273 518 274 517 270 C 522 270 519 266 523 266 C 523 262 534 269 531 262 L 532 261 L 533 262 L 534 262 C 533 261 531 259 534 257 C 531 256 535 255 535 253 Z"/>
            <path id="CZ-47" fill="#fdbd10" stroke="#231f20" stroke-width="0.4" stroke-linejoin="round" d="M 399 212 L 395 206 L 396 203 L 396 202 L 397 202 C 395 199 389 199 393 194 L 391 193 C 388 193 387 194 386 190 C 378 186 385 190 381 184 C 379 185 381 175 376 179 C 373 178 373 177 370 179 C 370 175 363 177 358 175 L 357 179 C 356 180 352 179 354 181 L 354 184 L 353 187 L 352 187 L 350 188 L 349 187 L 345 187 C 346 184 342 187 341 187 L 343 188 C 341 188 344 190 343 190 C 344 196 340 191 341 198 C 341 199 342 202 340 200 C 340 202 337 203 336 205 C 338 209 335 210 335 215 C 337 216 337 214 337 216 L 341 224 L 344 226 L 345 227 L 346 228 L 347 231 L 350 235 C 353 235 353 234 355 237 L 356 239 C 359 241 357 233 361 239 C 362 239 364 239 362 237 C 364 237 366 234 366 237 C 366 237 366 240 368 241 L 370 241 C 371 242 369 239 372 240 C 371 237 374 240 374 239 C 374 236 380 240 378 236 L 381 235 C 381 232 381 230 384 231 C 382 222 385 224 392 225 L 393 224 L 394 223 C 395 222 394 221 393 221 C 392 218 396 218 397 216 C 401 217 395 212 399 212 Z"/>
            <path id="CZ-46" fill="#e7c91d" stroke="#231f20" stroke-width="0.4" stroke-linejoin="round" d="M 446 175 C 443 175 446 173 444 173 C 440 171 443 166 440 163 L 438 161 L 436 160 C 435 161 430 158 428 154 C 424 148 430 147 426 142 C 424 140 421 142 421 139 C 422 137 415 141 417 142 C 412 146 414 129 409 141 C 409 142 411 141 410 142 L 408 142 C 407 142 406 142 405 140 C 405 140 407 140 406 139 L 404 139 L 400 138 C 401 140 398 141 398 139 L 396 139 L 395 141 C 391 141 392 149 395 146 C 398 143 399 154 397 155 C 396 158 399 158 398 162 C 403 169 387 166 385 167 C 385 169 383 168 382 169 L 381 169 L 379 176 C 379 179 381 182 380 184 C 381 183 384 186 382 188 C 381 190 385 188 386 190 C 387 194 388 193 391 193 L 393 194 C 389 199 395 199 397 202 L 396 202 C 397 204 394 204 395 206 C 398 208 396 211 399 210 C 401 209 400 212 402 212 C 403 210 403 213 404 213 C 405 213 406 212 405 211 C 406 210 407 213 409 211 C 409 211 412 215 413 214 C 414 216 414 216 416 215 L 420 215 C 421 214 418 212 420 211 L 421 206 C 423 206 424 205 424 204 C 426 207 427 201 427 204 C 430 203 429 208 431 203 L 432 202 C 432 205 435 203 434 201 L 438 201 C 437 199 443 199 440 197 L 442 195 C 441 193 441 192 443 192 C 443 188 445 190 447 189 L 444 179 C 442 177 444 176 446 175 Z"/>
            <path id="CZ-44" fill="#ffdd19" stroke="#231f20" stroke-width="0.4" stroke-linejoin="round" d="M 223 306 C 223 306 222 306 223 306 L 223 307 L 223 306 Z M 223 306 L 223 307 L 223 306 Z M 229 307 L 229 306 C 227 304 225 308 229 307 Z M 313 275 L 312 274 L 312 273 C 311 273 310 270 309 271 C 308 271 307 272 306 270 L 301 270 C 302 272 299 273 298 274 C 298 271 301 269 298 267 L 299 267 C 300 267 302 270 302 268 C 301 266 304 263 300 261 C 299 261 298 263 297 262 C 295 260 296 266 294 263 L 291 260 C 293 258 290 258 290 256 C 289 252 289 252 286 256 C 285 260 278 255 279 262 C 284 263 281 268 286 269 C 284 272 283 269 282 275 C 283 276 281 276 281 277 C 278 275 279 276 279 278 C 265 285 277 275 278 270 C 276 270 280 270 279 269 C 277 268 273 270 271 268 C 266 267 264 269 262 272 C 261 274 263 274 264 276 L 264 277 C 265 280 260 276 260 279 C 263 279 263 279 264 283 L 264 284 C 266 285 266 284 267 286 C 268 285 268 287 269 288 C 272 286 272 288 272 290 L 273 290 C 278 283 277 291 275 294 C 273 295 277 296 274 297 C 275 297 274 302 275 299 C 279 302 282 297 284 297 L 284 294 L 286 293 L 287 294 C 288 295 289 290 286 289 L 287 289 C 289 287 290 291 291 291 C 297 290 291 284 289 287 C 289 288 290 282 292 282 C 294 279 293 283 294 284 C 294 286 295 288 297 285 C 302 284 292 277 296 275 C 297 272 301 276 299 277 C 297 278 297 280 299 280 C 304 285 300 286 296 288 L 296 289 C 296 294 307 286 304 284 C 302 282 306 284 307 283 C 309 281 307 279 304 280 C 303 275 301 279 302 278 L 303 275 L 303 274 L 304 274 C 308 270 309 277 313 275 Z M 291 276 C 290 277 289 279 288 277 C 287 275 292 274 291 276 Z M 291 281 C 290 281 291 279 290 280 L 291 281 Z M 289 281 C 289 284 284 284 284 281 C 286 278 289 279 289 281 Z M 285 262 L 285 260 L 288 260 C 289 263 286 265 285 262 Z M 290 268 L 291 271 C 287 272 286 269 290 268 Z M 283 293 C 282 296 275 291 279 291 L 280 289 L 283 293 Z M 294 290 C 294 291 294 290 294 290 Z M 258 322 C 258 321 251 316 252 320 C 249 322 249 317 247 320 C 247 320 244 315 244 318 C 244 319 241 317 243 317 C 244 315 244 315 242 316 C 238 314 246 308 247 311 C 247 316 250 310 251 308 C 253 305 251 302 253 301 L 254 299 C 253 294 249 308 249 299 C 240 301 246 295 241 296 C 240 297 237 294 236 297 C 229 300 238 302 234 304 C 233 304 232 306 234 307 C 233 307 228 308 231 310 C 235 311 227 311 229 312 C 229 313 228 314 230 313 C 230 315 232 314 232 316 C 238 323 230 321 234 323 L 234 324 L 230 325 L 229 327 L 234 327 C 236 329 238 328 238 331 C 241 331 241 330 240 328 C 242 323 249 330 251 328 L 253 327 L 252 326 C 251 324 254 324 252 323 C 252 321 250 322 251 321 C 252 321 255 325 256 322 C 256 323 258 324 258 322 Z M 239 304 C 241 300 243 304 241 305 L 239 304 Z M 241 313 C 238 313 232 313 235 309 C 240 304 240 308 241 313 Z M 241 326 L 239 325 L 238 325 L 239 324 L 241 326 Z"/>
            <path id="CZ-43" fill="#ffd00f" stroke="#231f20" stroke-width="0.4" stroke-linejoin="round" d="M 302 285 C 300 282 302 282 298 280 L 299 277 C 302 276 297 272 296 275 C 292 277 302 284 297 285 C 295 288 294 286 294 284 C 293 283 294 279 292 282 C 290 282 289 288 289 287 C 291 284 297 291 290 291 C 291 290 288 287 287 289 L 286 289 C 289 290 288 295 287 294 L 286 293 L 284 294 L 284 297 C 282 297 279 302 275 299 L 275 302 C 275 303 285 302 284 299 L 286 299 C 288 296 290 291 292 295 C 295 300 297 292 296 289 L 296 288 C 295 288 302 287 302 285 Z M 294 290 C 293 291 294 290 294 290 Z M 240 326 L 239 325 C 236 326 239 325 240 326 Z M 310 274 C 308 273 305 272 304 274 L 303 274 L 303 275 L 302 278 C 300 279 303 276 303 278 C 304 285 307 276 310 274 Z M 282 293 C 283 292 281 291 280 289 L 279 291 C 276 291 279 293 281 293 C 282 295 281 293 282 293 Z M 274 300 L 274 297 C 277 297 274 295 275 294 C 277 291 278 283 273 290 L 272 290 C 272 287 271 286 269 288 C 267 287 268 285 266 285 C 267 284 266 285 264 284 L 264 283 C 263 279 263 279 261 279 C 258 277 265 280 264 277 L 264 276 C 263 274 261 274 261 272 C 264 271 264 268 268 268 C 270 269 283 267 277 270 C 280 274 263 285 278 278 C 281 278 278 276 279 276 C 281 278 281 275 282 276 C 281 269 286 272 286 269 C 281 268 284 263 279 262 L 280 259 C 279 258 278 257 279 256 C 281 254 274 254 276 252 L 273 246 L 269 246 C 268 245 268 246 267 247 C 268 245 266 247 266 246 C 268 245 267 243 267 243 C 270 240 265 241 265 239 C 266 237 262 239 262 236 L 263 235 C 260 235 260 230 256 230 C 256 228 259 227 256 226 L 256 225 C 256 223 255 224 254 224 L 255 223 C 255 222 252 223 251 221 L 248 221 L 246 223 L 245 224 C 247 225 248 227 247 229 L 245 233 C 247 233 247 235 245 235 L 243 238 L 242 240 C 241 243 240 241 238 241 C 237 242 237 240 236 240 C 235 241 234 237 232 236 L 230 236 C 231 238 231 240 229 241 L 226 244 L 226 248 L 224 249 C 222 250 222 245 219 247 C 218 246 218 249 218 249 L 217 250 L 217 252 C 217 252 215 253 217 254 L 216 256 L 216 258 L 215 261 L 215 264 L 210 264 C 208 265 208 264 208 263 C 202 270 196 264 197 267 L 197 274 C 197 275 198 277 196 278 L 194 281 C 195 282 194 282 193 283 C 191 284 188 284 191 285 C 194 286 195 288 198 286 C 200 286 202 288 204 286 C 206 288 208 286 209 288 C 206 291 210 292 211 291 C 211 289 214 290 216 290 C 219 290 220 287 223 290 C 226 294 223 294 223 297 C 226 298 224 300 224 303 C 226 302 226 308 230 306 C 231 309 224 306 225 308 C 226 310 227 310 228 309 C 229 310 231 313 232 310 C 228 310 231 307 233 307 C 235 308 232 305 233 305 L 235 303 C 235 302 233 303 235 302 C 233 301 233 299 236 297 C 237 294 240 297 241 296 C 246 294 240 302 249 299 C 249 307 253 295 254 299 L 253 301 C 251 302 253 306 250 308 C 250 311 247 316 247 310 C 245 308 238 313 242 316 C 244 315 244 315 243 317 C 241 317 244 319 244 318 C 244 315 247 320 247 320 C 249 317 249 323 253 318 C 255 320 260 322 257 317 C 260 316 259 312 263 310 C 263 309 266 313 268 309 C 270 308 274 304 274 300 Z M 250 329 C 247 326 237 324 241 332 L 242 333 L 243 330 C 245 329 244 330 245 331 C 247 330 245 333 247 333 C 249 333 251 331 250 329 Z M 255 326 C 257 326 256 324 256 324 L 253 323 L 251 321 C 250 322 252 321 252 323 C 254 324 251 324 252 326 L 253 327 C 254 327 256 328 256 326 L 255 326 Z M 284 262 C 286 265 290 263 288 260 L 285 260 L 284 262 Z M 238 312 C 242 315 240 308 240 306 C 235 307 231 313 238 312 Z M 288 270 C 286 270 290 272 291 271 C 291 268 290 268 288 270 Z M 298 273 L 298 274 C 299 273 302 272 301 270 L 302 269 C 301 269 300 267 299 268 L 300 267 L 298 267 C 301 269 299 271 298 273 Z M 242 306 C 243 302 241 301 239 304 L 242 306 Z M 290 280 C 292 282 291 278 290 280 C 290 279 291 280 290 280 Z M 289 281 C 288 279 284 279 284 282 C 286 282 286 284 287 284 C 288 282 290 283 289 281 Z M 291 275 C 291 274 287 275 288 277 C 288 279 292 277 291 275 Z"/>
            <path id="CZ-41" fill="#fddb00" stroke="#231f20" stroke-width="0.4" stroke-linejoin="round" d="M 356 238 L 355 237 C 353 234 353 235 350 235 L 347 231 L 346 228 L 345 227 L 344 226 L 341 224 L 337 216 C 337 213 334 219 329 217 C 328 219 320 215 323 218 L 323 222 C 324 223 322 223 322 224 L 321 224 C 321 226 320 223 319 224 C 316 226 321 230 315 228 C 315 234 311 230 309 233 C 308 235 306 232 305 233 C 305 234 304 235 303 234 C 302 234 300 235 301 236 C 300 237 299 236 298 234 L 297 233 C 295 234 294 232 293 234 C 288 231 294 232 292 230 C 290 230 291 229 290 228 L 288 225 L 288 221 L 286 219 L 286 218 C 285 216 288 216 287 213 C 288 211 287 212 285 211 C 276 209 283 212 279 214 L 277 213 L 276 214 C 273 212 271 213 269 213 C 268 217 266 213 264 216 L 264 217 L 257 217 L 255 218 C 255 219 255 220 253 221 L 251 221 C 252 223 255 222 255 223 L 254 224 C 255 224 256 223 256 225 L 256 226 C 259 227 256 228 256 230 C 260 230 260 235 263 235 L 262 237 C 262 239 266 237 265 239 C 267 242 269 239 267 245 C 264 246 268 246 269 246 L 272 247 C 274 244 275 251 276 249 C 274 254 277 253 279 255 C 278 256 279 260 282 258 L 284 258 C 284 256 286 259 286 256 C 289 252 289 252 290 256 C 290 258 293 258 291 260 L 294 263 C 295 266 296 262 296 261 C 299 263 302 259 303 265 C 301 266 302 267 302 268 C 300 270 301 269 303 270 L 309 271 C 310 270 311 273 312 273 L 312 274 C 312 276 320 275 324 275 C 327 274 328 271 330 273 L 335 273 C 336 271 336 267 340 269 C 341 268 344 266 346 268 L 346 267 C 347 269 348 266 348 265 C 346 264 348 262 347 259 C 344 257 346 258 346 256 C 344 255 346 255 346 255 C 344 254 344 254 345 253 C 346 252 353 255 350 253 L 351 251 C 349 247 359 251 355 245 C 356 243 350 240 354 240 C 353 237 354 238 356 238 Z"/>
            <path id="CZ-40" fill="#fdbd10" stroke="#231f20" stroke-width="0.4" stroke-linejoin="round" d="M 361 166 C 360 159 355 165 353 167 C 346 165 358 156 349 152 C 348 149 345 154 345 151 C 342 147 341 154 339 146 C 340 155 336 144 333 151 C 329 156 326 145 323 150 C 317 145 318 150 316 152 C 320 153 314 157 316 158 C 314 161 318 162 319 161 C 321 161 321 159 323 160 C 324 162 322 161 321 163 C 320 164 324 163 322 165 L 329 166 L 331 166 L 333 168 L 332 170 C 331 170 333 173 331 173 L 328 173 C 328 177 322 177 319 176 C 315 178 318 181 315 184 C 314 186 311 185 309 187 C 307 190 303 190 302 192 C 301 196 296 195 293 196 L 292 195 C 292 195 292 194 292 195 C 287 197 289 200 286 201 C 282 200 283 203 282 206 C 284 207 285 209 283 210 C 283 211 290 211 287 213 C 288 215 285 217 286 218 L 286 219 L 288 221 L 288 225 L 290 229 L 292 230 C 295 232 288 231 293 234 C 294 232 295 234 297 233 L 298 234 C 301 239 300 234 303 234 C 304 235 305 234 305 233 C 307 232 308 235 309 233 C 311 230 315 234 315 228 C 321 230 316 226 319 224 C 320 223 321 226 321 224 L 322 224 C 322 223 324 223 323 222 C 320 212 330 220 336 216 C 334 212 338 209 337 204 C 338 203 340 202 340 200 C 342 202 341 199 341 198 C 340 191 344 196 343 190 C 344 190 341 189 343 188 L 341 187 C 342 187 346 184 345 187 L 349 187 L 350 188 L 352 187 L 353 187 L 354 184 L 354 181 C 352 179 356 180 357 179 L 358 175 L 359 175 L 359 168 L 361 166 Z"/>
            <path id="CZ-39" fill="#e7c91d" stroke="#231f20" stroke-width="0.4" stroke-linejoin="round" d="M 496 412 C 490 409 489 410 492 405 C 488 404 487 398 489 395 C 491 395 489 393 490 392 C 494 390 489 389 488 387 L 489 382 C 490 380 487 383 488 379 C 489 376 493 375 489 374 L 490 373 L 488 373 C 487 375 487 372 485 373 L 484 371 L 481 370 L 480 370 C 481 372 471 375 469 374 C 467 371 468 374 465 375 C 464 376 461 373 461 377 C 460 376 460 376 461 377 L 460 379 C 461 382 457 378 455 379 C 454 379 455 377 454 378 C 453 378 454 380 453 379 C 451 380 448 383 446 381 L 441 381 L 439 383 C 438 384 441 383 441 385 C 441 388 432 386 437 390 C 435 391 435 396 432 393 L 429 389 L 428 388 L 428 387 L 427 387 C 424 389 427 390 424 388 C 421 385 418 387 416 385 C 415 383 415 384 415 385 L 413 387 C 412 387 415 389 412 389 L 411 389 L 413 390 L 412 391 C 411 392 411 394 413 394 L 413 395 L 414 396 C 414 396 413 396 414 396 C 414 397 411 399 410 398 L 409 399 C 408 402 405 402 406 405 C 406 408 403 401 399 404 L 397 404 C 399 404 398 399 398 401 C 397 403 396 401 396 402 C 395 403 396 400 395 403 C 395 404 388 404 389 402 L 385 402 L 386 403 L 384 404 L 384 405 L 383 405 L 382 403 C 381 401 380 404 380 404 C 378 402 378 402 377 403 C 375 402 379 406 378 405 C 377 406 377 403 375 405 L 374 407 L 373 407 C 372 409 372 407 369 409 C 370 407 369 406 366 405 C 365 408 365 404 364 404 L 362 404 C 361 403 359 406 358 404 C 356 406 358 406 357 407 L 356 410 L 355 410 C 353 411 351 410 350 412 C 346 410 347 414 344 412 L 344 413 L 343 414 C 340 414 339 413 340 410 C 341 408 337 408 336 410 C 331 413 335 412 333 415 C 333 420 332 413 330 419 C 326 418 326 419 326 422 C 328 422 329 419 330 422 C 331 422 330 424 332 424 C 333 422 336 424 333 424 L 334 425 L 334 426 C 336 427 335 424 336 425 C 338 426 334 429 336 429 C 334 429 333 429 332 431 L 335 432 C 334 433 334 434 336 435 C 340 436 332 437 336 437 L 338 437 C 339 439 340 439 337 440 C 339 441 340 442 337 442 C 340 443 338 444 337 445 C 339 447 337 448 337 449 C 341 451 344 455 346 457 C 348 459 344 458 347 461 C 347 462 348 459 349 461 L 352 466 C 351 467 355 466 355 468 C 355 468 355 470 356 469 L 360 469 C 364 466 359 475 365 471 C 367 471 365 474 366 474 C 367 472 370 474 371 472 C 375 474 374 473 375 469 L 378 465 C 376 464 373 458 376 457 L 377 458 L 377 456 L 378 454 C 381 456 378 449 377 448 C 376 445 382 446 381 445 C 381 443 380 441 383 442 C 384 443 384 445 387 444 C 387 445 387 450 390 448 C 393 446 392 449 393 449 C 393 450 395 450 394 451 C 397 452 393 452 395 452 C 395 453 397 452 396 455 C 397 457 400 454 402 455 C 403 455 404 457 405 456 C 410 454 406 459 411 461 C 413 461 413 461 412 462 C 413 464 414 462 415 464 C 415 463 416 463 417 465 L 421 466 C 421 465 422 468 423 466 L 423 465 L 424 465 C 427 464 428 473 431 469 C 431 463 439 474 438 468 L 435 467 L 434 466 L 432 464 C 430 464 432 462 433 461 L 434 460 L 433 459 C 429 459 433 459 431 457 C 428 459 428 453 426 452 C 427 447 431 455 436 449 C 438 449 437 446 438 447 C 441 448 438 445 439 443 L 438 443 C 440 440 442 439 437 438 C 437 436 437 435 440 435 C 446 429 450 441 452 436 L 453 435 L 455 434 L 457 434 C 458 437 460 436 462 436 C 466 436 465 441 462 440 L 465 441 C 469 436 469 447 474 443 L 474 442 L 475 441 C 475 440 475 439 476 440 C 477 442 481 441 482 441 L 483 441 L 484 440 L 484 432 L 485 430 C 486 428 485 432 487 431 C 491 430 489 431 489 426 C 491 425 489 423 491 423 C 494 423 489 420 490 420 C 490 418 495 421 492 417 L 492 413 L 496 412 Z"/>
            <path id="CZ-38" fill="#ffdd19" stroke="#231f20" stroke-width="0.4" stroke-linejoin="round" d="M 524 459 L 522 454 L 521 453 C 519 452 522 452 522 452 C 521 449 520 450 518 450 C 516 450 519 451 517 451 C 514 450 512 456 508 453 C 506 451 506 453 505 455 C 505 453 502 453 500 453 C 497 449 497 451 493 451 C 488 451 491 454 492 458 C 485 457 494 462 490 463 C 488 466 487 463 489 467 L 489 468 C 491 467 492 463 493 468 L 494 468 L 494 467 L 493 467 C 494 467 494 467 493 467 L 494 467 L 494 466 C 496 466 494 464 496 465 C 497 467 503 468 506 468 C 512 466 507 473 512 472 L 516 473 C 518 474 519 470 519 470 C 521 468 520 468 520 466 C 525 464 517 462 518 459 L 519 460 C 519 460 523 463 522 461 C 519 458 524 460 524 459 Z M 443 558 C 441 556 443 551 441 551 C 442 546 440 547 437 544 L 436 538 C 436 542 429 532 426 531 C 426 529 421 533 422 529 L 422 528 C 423 523 414 531 412 531 C 410 531 411 529 412 530 L 409 527 C 410 526 408 526 408 525 C 406 523 410 525 409 524 C 408 521 409 523 407 523 C 406 523 407 521 405 522 L 404 520 L 403 520 L 400 519 C 400 517 398 519 397 519 C 398 514 397 517 393 514 L 389 513 C 388 514 385 508 385 510 C 385 512 383 507 381 509 L 381 507 C 376 507 372 506 374 501 C 380 500 376 494 381 495 C 380 495 379 495 380 493 L 379 493 C 380 490 376 491 375 489 C 373 487 377 480 373 481 L 372 479 C 374 479 373 478 373 477 C 374 476 376 476 375 473 L 366 473 C 367 468 362 474 361 470 C 363 469 361 467 360 469 L 356 469 C 355 470 355 468 355 468 C 355 466 351 468 352 466 C 350 465 351 464 351 463 C 350 462 348 462 349 461 L 347 461 C 344 458 348 459 346 457 C 344 455 341 451 337 449 C 337 448 339 447 337 445 C 340 443 337 443 338 442 C 341 441 338 440 337 440 C 340 439 338 439 338 437 L 336 437 C 332 437 340 437 335 434 L 335 433 C 337 431 332 433 332 431 C 333 429 333 429 336 429 C 334 429 338 426 336 425 C 335 424 336 427 334 426 L 334 425 L 333 424 C 336 424 333 422 332 424 C 330 424 331 422 329 422 C 330 420 328 422 327 422 L 324 421 L 321 421 L 321 420 C 317 416 319 420 316 421 L 315 421 C 316 423 314 422 313 422 L 313 427 C 313 425 311 426 311 425 C 310 422 304 422 307 425 C 305 428 308 428 308 429 L 308 431 L 310 434 C 311 434 310 436 312 435 C 309 437 310 443 311 444 C 313 445 311 446 313 446 C 315 446 314 447 313 449 C 316 448 312 451 313 453 C 314 455 310 455 310 458 C 306 459 315 464 307 464 C 308 466 308 468 311 467 C 310 469 312 471 309 469 L 309 471 C 307 470 307 473 308 474 C 308 475 311 475 311 478 L 309 480 L 309 484 L 310 484 L 309 484 C 306 484 305 489 303 489 L 299 489 C 301 489 298 492 300 493 L 300 495 C 296 496 303 500 303 502 C 302 504 299 500 297 500 C 297 502 294 499 292 502 C 293 504 293 513 298 512 C 297 516 298 517 300 520 L 303 519 C 305 519 304 523 306 524 L 307 524 L 307 523 C 307 522 310 521 309 523 C 309 526 315 534 319 532 L 321 532 L 322 530 L 323 532 C 325 532 325 533 325 535 L 328 539 L 331 539 C 330 541 336 543 334 547 C 343 549 346 549 353 556 C 359 556 358 555 361 558 L 363 560 L 366 560 C 366 562 367 564 364 564 C 361 566 362 568 364 569 L 366 569 C 366 571 367 572 368 572 C 370 570 368 573 369 574 C 370 572 372 573 373 572 C 372 574 374 574 375 573 L 376 572 L 380 572 C 381 573 382 571 384 571 L 387 572 C 389 571 390 574 391 572 L 392 572 L 397 574 C 399 573 400 576 401 575 L 403 573 L 403 572 C 403 571 409 572 406 569 C 405 566 407 567 409 567 C 412 568 410 566 412 565 C 412 562 413 560 411 558 C 412 558 413 556 414 557 L 416 558 L 418 560 L 423 560 C 425 564 426 560 428 559 L 429 557 C 431 556 431 558 432 559 C 433 562 434 559 435 559 C 437 561 437 565 440 562 C 442 563 442 560 443 558 Z M 532 454 C 531 454 531 452 530 453 L 528 457 C 531 460 531 456 532 454 Z M 526 458 L 525 458 L 526 458 Z"/>
            <path id="CZ-37" fill="#ffd00f" stroke="#231f20" stroke-width="0.4" stroke-linejoin="round" d="M 523 455 C 523 458 525 461 526 458 L 526 456 C 526 455 522 455 525 454 L 523 454 L 523 455 Z M 525 458 L 526 458 L 525 458 Z M 518 459 C 518 465 524 463 519 460 L 518 459 Z M 529 481 L 528 480 C 528 476 525 477 521 477 L 521 474 C 520 474 519 473 518 475 C 518 476 516 475 517 474 L 516 473 L 512 472 C 507 473 512 466 506 468 C 503 468 497 467 496 465 C 495 464 496 466 494 466 L 494 467 L 493 467 C 494 467 494 467 493 467 L 494 467 L 494 468 L 493 468 C 492 463 491 467 489 468 L 489 467 C 487 463 488 466 490 463 C 494 462 485 457 492 458 C 486 446 499 455 495 448 C 494 449 494 447 494 446 L 495 444 C 493 441 493 438 489 441 C 486 443 485 437 484 440 L 483 441 L 482 441 C 481 441 477 442 476 440 C 475 439 475 440 475 441 L 474 442 L 474 443 C 469 447 469 436 465 441 L 462 440 C 465 441 466 435 462 436 C 460 436 458 437 457 434 L 455 434 L 453 435 L 452 436 C 450 441 446 429 440 435 C 437 435 437 436 437 438 C 442 439 440 440 438 443 L 439 443 C 438 445 441 448 438 447 C 437 446 438 449 436 449 C 431 455 427 447 426 452 C 428 453 428 459 431 457 C 433 459 429 459 433 459 L 434 460 L 433 461 C 432 462 430 464 432 464 L 434 466 L 435 468 L 438 468 C 439 474 431 463 431 469 C 428 473 427 464 424 465 L 423 465 L 423 466 C 423 468 421 465 421 466 L 417 465 C 416 463 415 463 415 464 L 412 463 C 412 461 413 461 411 461 C 407 460 410 453 405 456 C 404 457 403 455 402 455 C 400 454 397 458 396 454 C 397 452 395 453 395 452 C 393 452 397 452 394 451 C 395 450 393 450 393 449 C 392 448 392 446 389 449 C 386 448 388 442 385 444 C 384 441 379 440 381 445 C 382 447 376 445 377 448 C 379 449 380 457 378 454 L 377 456 L 377 458 L 376 457 C 373 459 377 464 378 466 L 375 469 C 373 471 377 475 374 477 C 371 476 375 480 372 479 C 371 480 373 480 373 481 C 377 479 373 487 375 489 C 376 491 380 490 379 493 L 380 493 C 379 495 380 495 381 495 C 376 494 380 500 374 501 C 372 506 376 506 381 507 L 381 509 C 383 507 386 513 385 509 C 387 513 390 512 393 514 C 398 516 398 515 397 519 C 398 519 400 517 400 519 L 403 520 L 404 520 L 405 522 L 407 523 C 408 524 409 521 408 523 C 410 525 408 523 408 525 L 411 529 C 413 528 409 532 412 531 C 415 531 423 523 422 528 L 422 529 C 421 532 426 530 426 531 C 428 532 437 542 436 538 L 437 544 C 438 546 442 547 441 545 C 442 540 447 540 448 535 C 450 534 447 531 448 529 C 446 526 449 526 451 525 C 452 525 453 527 454 525 C 456 524 458 528 460 526 C 464 529 471 523 463 521 C 463 518 465 511 464 510 C 461 507 467 502 462 498 C 461 494 459 489 461 486 C 462 484 462 484 460 483 L 462 482 L 463 481 L 468 481 C 470 487 478 478 480 484 C 478 484 482 486 482 487 L 481 490 L 483 490 C 486 491 488 484 492 487 C 493 487 495 483 493 481 C 493 476 496 485 501 480 C 506 480 513 484 517 483 C 525 488 523 491 528 484 C 526 485 529 483 527 482 L 529 482 L 529 481 Z"/>
            <path id="CZ-36" fill="#fddb00" stroke="#231f20" stroke-width="0.4" stroke-linejoin="round" d="M 239 336 L 238 335 C 235 337 237 331 236 331 C 239 333 238 330 237 329 C 234 327 235 327 230 327 C 227 326 232 326 230 326 C 231 324 233 325 234 324 L 234 323 C 230 321 238 323 232 316 L 230 315 C 231 313 230 314 228 314 L 229 310 C 230 309 224 310 225 308 C 229 306 223 302 224 299 C 226 298 223 297 223 296 C 225 293 224 292 223 290 C 220 287 219 290 216 290 C 214 290 211 289 211 291 C 209 292 206 291 209 288 C 208 286 206 288 204 286 C 202 288 200 286 198 286 C 194 291 171 270 175 283 C 172 277 164 286 164 291 C 159 287 154 290 161 293 C 161 294 159 294 160 295 C 161 296 159 296 159 298 L 162 302 C 162 303 161 309 163 307 L 163 306 C 163 305 165 308 166 307 C 166 308 166 311 169 311 C 170 314 172 308 173 315 C 177 315 179 317 176 319 L 176 323 L 178 324 C 179 324 179 326 180 325 C 179 322 187 324 184 326 C 182 327 182 330 184 328 L 185 327 L 186 327 C 186 332 185 331 190 334 L 188 333 L 185 336 C 186 338 187 336 188 337 L 189 336 C 190 337 189 338 188 338 L 187 340 L 187 341 L 186 342 C 184 341 182 342 180 343 C 177 342 178 342 176 344 L 175 346 C 178 350 186 340 188 347 C 186 348 187 351 189 351 L 189 353 C 188 356 186 356 184 359 C 184 363 188 362 188 364 L 189 369 L 190 369 L 192 368 C 194 369 193 370 195 369 C 197 369 196 367 198 367 C 201 368 201 369 203 368 C 203 366 207 364 205 363 C 207 362 203 361 204 359 C 207 357 209 358 208 356 C 210 355 212 355 212 353 L 214 351 C 217 351 215 350 215 349 C 217 349 216 348 217 347 C 218 345 218 349 220 347 L 226 347 L 228 349 L 228 347 C 235 356 233 342 232 341 L 234 341 C 234 340 234 341 234 341 L 237 339 C 235 337 238 340 238 337 L 239 336 Z M 223 306 L 223 307 L 223 306 Z M 223 307 C 223 306 223 307 223 307 Z"/>
            <path id="CZ-35" fill="#fdbd10" stroke="#231f20" stroke-width="0.4" stroke-linejoin="round" d="M 190 334 C 186 330 186 334 186 327 L 185 327 C 184 326 185 328 184 328 C 181 329 184 326 184 326 C 186 324 178 322 180 325 C 179 325 178 323 176 324 L 176 319 C 179 317 177 315 173 315 C 172 308 170 314 169 311 C 168 312 166 309 165 308 C 166 308 167 307 166 306 C 166 308 164 307 164 306 L 163 306 C 162 309 161 304 162 302 C 160 300 161 298 159 298 L 160 296 C 159 294 161 294 161 293 C 159 292 157 288 154 290 C 150 294 138 293 142 303 L 141 303 C 136 301 138 311 133 309 C 132 312 135 315 130 316 L 129 322 L 130 325 C 126 323 127 326 128 328 C 126 330 129 331 129 333 C 127 335 130 336 129 336 C 126 337 125 336 124 335 C 122 334 123 333 123 331 C 124 330 123 331 123 331 C 122 330 125 328 122 328 C 124 326 116 328 117 323 C 122 327 118 319 117 321 C 112 322 111 320 111 315 C 109 315 109 312 105 314 L 103 314 L 103 315 C 102 316 101 315 100 314 C 99 316 101 316 102 316 C 104 316 102 318 103 320 L 105 321 C 106 323 101 325 101 327 C 102 328 104 330 107 329 C 106 328 109 328 107 329 C 109 330 110 331 109 332 C 109 333 111 331 111 333 L 112 333 L 112 334 L 113 334 L 114 336 C 116 338 117 340 115 343 L 117 350 L 120 350 C 119 352 121 351 122 351 L 126 354 L 124 357 L 131 357 L 131 359 L 134 359 L 135 360 L 136 361 C 138 361 139 363 141 362 C 140 364 144 363 145 364 C 144 369 147 363 149 365 C 160 372 138 371 164 378 C 167 382 170 369 175 378 C 177 380 173 373 178 374 C 177 369 178 375 182 370 L 184 370 L 188 368 L 188 364 C 189 362 184 363 184 359 C 186 356 189 355 189 353 L 189 351 C 187 350 186 348 188 347 C 186 340 178 350 175 346 C 175 345 175 344 177 344 C 177 341 178 343 180 342 L 186 342 L 187 341 L 187 340 L 188 338 L 189 336 C 188 335 188 339 187 337 C 184 336 186 336 188 334 L 190 334 Z"/>
            <path id="CZ-34" fill="#e7c91d" stroke="#231f20" stroke-width="0.4" stroke-linejoin="round" d="M 314 450 L 314 448 C 314 448 315 446 313 446 C 311 446 313 445 311 444 C 310 443 310 440 309 442 L 305 440 C 304 440 302 442 301 440 C 297 439 293 443 290 438 C 289 436 290 441 288 440 C 288 442 286 440 284 441 C 283 438 283 441 281 441 C 277 442 279 442 278 445 C 277 446 273 447 275 448 C 276 449 273 449 273 450 L 274 450 C 274 453 270 452 270 455 C 273 456 274 456 270 459 C 272 461 267 459 268 462 C 269 463 271 463 269 465 L 268 465 L 267 464 C 264 465 266 467 266 469 C 268 470 264 473 267 475 L 265 475 C 265 478 270 480 269 483 C 264 485 273 485 271 488 C 271 490 267 492 271 493 C 271 497 271 494 268 494 C 264 497 266 498 263 493 C 259 489 256 484 258 479 C 259 476 255 474 260 475 C 261 473 258 471 261 470 C 263 468 258 468 260 466 L 259 465 L 260 465 C 257 463 261 455 255 458 C 254 455 251 459 248 458 L 245 459 C 244 458 244 459 244 460 L 245 462 C 243 463 244 461 243 460 C 240 457 248 455 244 453 C 241 454 241 451 240 449 C 239 448 236 448 238 447 C 238 446 237 444 239 445 C 237 443 240 445 240 444 C 242 444 240 443 240 443 L 240 440 C 240 439 241 438 242 439 L 243 440 C 245 439 247 442 248 442 C 251 442 250 440 249 438 C 250 437 254 439 251 440 L 253 441 C 254 439 254 441 254 441 C 255 444 258 440 260 442 C 263 439 268 440 271 442 C 273 438 278 445 273 438 C 275 436 273 434 274 433 C 271 433 274 432 273 432 C 272 431 269 434 268 432 C 266 430 262 434 260 432 C 258 432 256 429 256 432 C 256 433 256 430 255 432 L 250 433 C 247 434 246 436 244 434 C 241 434 237 433 236 430 C 239 428 234 430 235 428 C 237 427 239 425 238 424 C 237 423 238 422 236 422 L 234 418 L 231 417 C 230 417 231 415 230 417 L 230 416 C 221 415 221 426 220 420 C 222 419 219 419 218 417 C 220 417 219 416 220 415 C 226 414 220 407 224 407 L 223 407 C 222 405 225 404 223 404 C 222 403 224 404 224 403 C 224 401 222 403 221 402 L 225 397 C 226 396 228 397 228 395 C 226 396 227 394 226 394 L 224 393 C 225 391 223 392 222 392 C 221 390 223 388 224 386 C 224 385 220 383 220 381 L 216 382 C 220 376 212 374 212 369 C 208 368 205 362 203 368 C 201 370 200 366 197 368 C 196 369 195 368 194 370 C 193 370 194 368 192 368 C 191 368 190 370 189 368 C 188 367 186 369 184 370 L 182 370 C 181 371 180 373 177 372 L 178 374 C 173 373 177 380 174 378 C 170 369 167 382 164 378 C 158 378 157 387 156 391 C 153 389 154 399 155 400 C 152 402 144 408 152 411 C 153 414 155 415 158 415 C 162 419 163 413 164 419 C 166 420 164 420 164 421 L 165 422 L 164 423 L 165 424 L 165 426 C 166 429 169 425 170 429 C 173 436 175 443 181 442 L 183 448 L 182 450 C 182 450 183 452 184 451 L 185 456 C 187 460 197 457 199 464 C 200 469 205 472 210 469 L 214 470 C 210 465 224 468 226 470 L 227 471 C 234 475 229 472 233 479 C 235 478 236 479 236 481 L 237 481 L 237 482 C 239 481 239 482 240 483 C 239 486 243 484 243 486 C 243 491 253 491 252 498 C 259 504 266 497 273 504 C 289 516 273 517 294 526 C 297 526 293 517 299 520 L 299 519 C 297 517 298 515 298 512 C 293 513 293 505 292 502 C 292 499 298 502 297 500 C 298 499 303 505 303 502 C 302 500 297 496 300 495 L 300 493 L 299 488 L 303 489 C 305 489 306 484 309 484 L 310 484 L 309 484 L 309 480 L 311 478 C 311 475 308 475 308 474 C 307 473 307 470 309 471 L 309 469 C 312 471 310 468 311 467 C 308 469 308 465 307 464 C 313 463 309 463 309 458 C 310 458 310 454 313 455 C 313 453 312 451 314 450 Z"/>
            <path id="CZ-33" fill="#ffdd19" stroke="#231f20" stroke-width="0.4" stroke-linejoin="round" d="M 326 375 C 326 373 322 373 321 373 C 318 378 313 374 317 368 C 316 367 316 368 315 369 C 314 368 313 371 312 371 C 310 372 312 373 312 373 L 312 376 L 310 376 C 312 376 310 377 309 378 L 308 378 C 309 380 306 382 307 379 C 306 378 307 379 306 380 C 305 380 303 377 302 380 L 302 375 C 300 372 303 372 302 370 L 302 366 L 301 365 L 301 361 C 305 360 303 358 301 354 C 301 352 300 351 302 350 L 298 350 C 296 348 293 350 292 349 C 295 347 289 344 286 347 L 286 346 C 287 344 284 345 283 344 C 281 340 278 342 276 343 C 272 345 270 343 267 341 C 266 341 265 342 264 340 C 260 341 265 338 266 338 C 264 338 264 336 262 338 C 260 341 260 338 259 338 L 257 338 C 255 338 256 339 255 340 C 254 343 253 339 251 341 C 250 340 251 338 252 338 C 253 334 254 333 250 332 C 251 329 248 334 247 333 C 245 333 247 330 245 331 C 244 330 244 329 243 330 L 242 333 L 241 332 C 241 329 238 332 236 332 C 239 332 234 337 238 335 L 239 336 L 238 337 C 238 340 236 337 237 339 C 233 340 235 342 232 341 C 234 342 235 356 228 347 C 227 350 228 347 226 347 L 220 347 C 219 348 218 346 217 346 C 215 348 217 349 215 349 L 215 351 L 212 353 C 212 355 210 355 208 356 C 209 358 207 357 204 359 C 203 361 207 362 205 363 L 208 366 L 212 369 C 212 374 219 376 216 382 L 220 381 C 220 383 225 385 224 386 C 223 388 221 390 222 392 C 222 392 225 391 224 393 L 226 394 C 227 394 226 396 228 395 C 228 397 226 395 224 397 C 224 398 221 401 222 402 C 225 403 224 402 223 404 C 225 405 220 407 225 407 C 220 407 226 414 220 415 C 219 416 220 417 218 417 C 219 419 221 418 220 420 C 218 420 221 424 221 422 C 222 417 226 417 230 416 L 230 417 C 231 416 229 418 234 418 L 236 422 C 238 421 237 424 238 424 C 240 426 235 427 235 429 C 235 429 238 428 236 430 C 237 433 241 434 244 434 C 246 436 247 434 250 433 L 255 432 L 256 432 C 255 430 257 430 259 432 L 268 432 C 269 434 272 430 274 432 L 274 433 C 273 434 275 436 273 438 C 278 444 274 439 270 442 C 268 440 266 439 264 441 C 263 438 260 442 260 442 C 258 440 255 444 254 441 C 254 441 254 439 253 441 L 251 440 C 255 438 248 437 249 439 C 250 439 249 441 251 441 L 249 442 C 247 443 246 439 243 440 L 242 440 C 241 438 241 439 240 440 L 240 442 C 240 443 242 444 240 444 C 240 445 237 443 239 445 C 236 444 239 447 238 447 C 236 448 239 448 240 449 C 241 450 240 455 244 453 C 247 456 240 457 243 460 C 244 461 243 463 245 462 L 244 460 C 244 459 244 458 245 459 L 248 458 C 251 459 254 455 255 458 C 261 455 257 463 260 465 C 259 466 262 465 259 466 C 259 468 264 469 260 471 C 260 478 259 474 257 475 C 258 482 257 487 262 492 C 267 502 265 490 271 495 C 272 490 268 495 271 487 C 271 486 265 484 269 483 C 270 480 265 478 265 475 L 267 475 C 264 473 268 470 266 469 C 266 467 264 465 267 464 L 268 465 L 269 465 C 271 463 269 463 268 462 C 267 459 272 461 270 459 C 273 457 273 455 270 455 C 270 452 273 453 274 450 L 273 450 C 273 449 276 449 275 448 C 273 447 277 446 278 445 C 279 442 277 442 281 441 C 283 441 283 438 284 441 C 286 440 288 442 288 440 C 290 441 289 436 290 438 C 293 443 297 439 301 440 C 302 442 304 440 305 440 L 309 442 C 310 441 311 441 310 439 C 310 438 310 436 312 435 C 310 436 311 434 310 434 L 308 431 L 308 429 C 308 428 305 428 307 425 C 305 424 308 422 307 420 C 306 413 302 419 303 415 L 302 404 L 307 404 C 312 400 308 398 314 399 L 317 399 L 319 398 C 318 397 316 396 318 395 C 317 394 321 393 321 392 C 321 390 324 387 321 386 C 322 384 320 385 319 384 L 321 382 C 320 380 321 381 322 381 C 324 380 326 380 325 377 C 324 376 326 376 326 375 Z M 322 375 L 321 375 L 321 374 L 322 375 Z M 260 400 C 257 400 258 405 256 406 L 256 404 C 255 400 251 407 250 398 C 248 397 250 396 249 395 L 249 393 L 247 393 C 247 386 246 390 244 387 L 245 386 C 245 382 248 385 250 386 L 251 385 L 253 386 C 256 383 250 381 257 380 C 260 379 259 383 260 384 C 263 379 261 385 264 384 L 266 384 L 269 392 C 268 394 264 393 266 396 C 260 396 272 401 262 401 C 261 401 262 399 260 400 Z"/>
            <path id="CZ-30-32" fill="#fddb00" stroke="#231f20" stroke-width="0.4" stroke-linejoin="round" d="M 269 391 C 267 388 268 385 266 384 L 264 384 C 261 385 263 380 260 384 C 259 379 258 379 253 381 L 253 385 C 253 386 251 384 250 386 L 248 385 C 246 383 245 383 244 387 C 243 390 248 386 247 393 L 249 393 L 248 394 C 250 398 249 405 255 403 C 255 406 256 406 257 404 C 257 402 261 397 261 401 C 263 401 268 401 266 399 C 262 395 266 396 265 395 C 265 392 269 394 269 391 Z"/>
            <path id="CZ-29" fill="#e7c91d" stroke="#231f20" stroke-width="0.4" stroke-linejoin="round" d="M 426 253 C 428 255 429 253 431 251 C 430 247 426 249 428 246 C 429 244 430 246 431 244 C 429 243 430 242 432 241 C 432 239 432 238 430 236 C 431 235 429 234 428 234 L 428 230 L 427 228 C 425 226 422 225 425 224 C 428 222 426 220 423 221 C 420 221 422 216 418 216 C 416 213 414 217 413 214 C 412 215 409 211 409 210 C 407 212 406 211 406 211 C 405 212 406 213 404 213 C 403 213 403 210 402 212 C 400 212 401 209 399 210 C 396 210 400 212 397 213 C 398 214 399 218 397 216 C 396 218 392 218 393 221 C 394 221 395 222 394 223 L 393 224 L 392 225 C 385 224 382 222 384 231 C 381 230 381 232 381 235 L 378 236 L 379 238 C 384 242 379 239 378 242 C 380 242 378 243 378 244 L 378 246 L 380 247 C 381 248 386 251 384 253 C 384 254 381 252 383 255 C 386 257 388 256 388 260 L 386 261 L 385 262 L 384 262 C 384 262 383 261 384 262 C 383 261 383 262 383 263 L 379 263 C 380 264 379 265 378 266 C 378 269 382 268 378 270 L 381 271 C 380 272 383 273 383 274 C 381 277 383 277 385 279 C 386 281 385 285 390 285 C 388 286 390 288 391 288 C 397 287 396 281 396 277 C 400 276 399 275 401 274 L 399 274 C 399 272 400 274 401 273 C 402 270 410 274 414 273 L 415 272 C 420 274 416 269 419 266 C 418.799805 265.556152 418.443848 265.200195 418 265 C 417 265 420 264 418 263 L 421 261 C 425 260 420 259 424 259 C 422 256 428 258 424 256 C 423 254 426 255 426 253 Z M 446 279 C 444 279 446 274 443 276 C 442 272 442 271 439 276 C 437 276 436 277 436 278 C 435 279 430 279 431 281 C 430 284 433 282 433 285 C 434 288 428 288 429 292 C 429 294 430 292 431 291 C 434 290 433 294 435 296 C 437 296 438 299 438 295 C 438 294 438 293 440 292 L 439 291 C 439 290 443 290 443 287 C 442 283 444 280 446 279 Z"/>
            <path id="CZ-27" fill="#ffd00f" stroke="#231f20" stroke-width="0.4" stroke-linejoin="round" d="M 388 258 C 383 256 380 254 384 253 C 386 251 381 248 380 247 L 378 246 L 378 244 C 378 243 380 242 378 242 C 380 239 384 242 379 238 C 376 236 374 239 373 239 C 372 238 372 238 372 240 C 371 240 370 239 370 241 C 370 242 368 239 368 241 C 366 241 366 237 366 237 C 366 234 364 237 362 237 C 364 239 362 239 361 239 C 357 233 359 241 356 239 C 356 238 353 237 354 240 C 350 240 356 243 355 245 C 359 251 349 247 351 251 C 351 251 349 253 351 253 C 353 256 346 252 345 253 C 343 254 347 254 345 255 C 346 257 347 256 345 258 C 348 259 348 261 347 264 L 347 267 L 343 267 L 343 268 C 341 267 341 269 341 269 L 337 269 C 336 275 335 272 331 273 C 328 272 326 275 321 275 C 316 276 303 273 307 280 C 307 282 309 283 307 283 C 305 284 303 282 304 285 L 303 288 L 298 290 C 295 291 296 300 292 295 C 290 291 288 295 286 298 C 285 300 285 298 284 299 C 285 302 275 303 275 302 C 274 298 268 315 264 310 C 263 309 259 314 260 314 C 260 316 257 316 257 317 C 259 320 256 320 258 322 C 258 325 255 321 256 324 L 256 326 C 256 329 251 325 251 328 L 251 333 C 255 332 252 336 252 338 C 251 338 250 340 251 341 C 253 338 254 343 255 340 C 256 339 255 338 257 338 L 259 338 C 260 338 260 341 262 338 C 263 337 266 338 266 339 C 263 338 261 341 264 340 C 265 342 266 341 267 341 C 270 343 272 345 276 343 C 278 341 281 340 283 344 C 284 345 286 344 286 347 C 286 347 287 346 286 347 C 289 344 295 347 292 349 C 293 350 296 348 298 350 L 299 351 C 300 350 301 348 299 348 C 298 348 296 346 298 344 C 299 345 299 344 300 343 L 302 344 C 303 342 310 346 310 343 L 310 341 C 309 340 310 339 312 337 C 310 337 312 335 312 335 C 311 335 310 332 312 332 C 313 331 314 335 316 334 L 316 330 C 318 328 319 328 320 325 C 322 326 326 322 328 324 C 328 324 328 323 328 324 L 328 323 L 330 323 L 334 321 C 335 320 338 320 337 318 C 336 319 336 317 335 315 L 338 312 L 338 309 C 337 309 338 308 338 309 L 339 308 C 339 308 339 309 339 308 L 339 307 L 340 306 C 340 304 337 306 338 303 C 338 300 342 303 340 299 L 340 298 C 342 297 344 297 341 295 L 342 294 L 343 294 C 344 291 346 293 349 291 L 350 292 L 351 292 L 352 290 L 352 291 C 352 290 354 289 352 288 L 352 284 C 354 284 354 279 357 284 C 359 286 357 282 359 283 C 360 283 362 280 362 283 C 363 286 365 280 367 282 C 368 284 369 281 370 282 L 371 286 L 375 287 C 376 288 377 286 379 286 C 381 286 380 290 383 287 L 384 284 L 386 284 C 388 278 380 278 383 274 C 382 273 380 272 382 271 L 379 270 C 382 268 378 269 378 266 C 379 265 380 264 379 263 L 383 263 C 383 261 383 263 384 262 C 383 261 384 262 384 262 L 385 262 L 386 261 L 388 260 L 388 258 Z M 299 324 C 297 325 295 324 293 326 C 290 324 289 324 287 325 C 286 330 285 323 283 324 C 281 324 280 326 281 323 C 281 322 276 319 278 318 C 279 316 280 314 283 315 L 286 320 C 289 321 291 317 292 321 C 296 321 298 320 299 324 Z"/>
            <path id="CZ-28" fill="#ffdd19" stroke="#231f20" stroke-width="0.4" stroke-linejoin="round" d="M 490 314 C 487 313 488 312 489 310 C 488 310 488 308 487 309 C 487 308 480 308 480 305 C 482 305 479 301 479 303 C 478 305 479 302 478 302 C 478 302 477 304 476 303 L 475 303 C 474 300 470 304 467 299 L 471 297 C 470 298 473 298 473 298 L 472 295 C 472 292 468 290 472 289 C 471 288 468 290 469 287 L 470 286 L 471 287 C 474 288 471 284 473 283 L 470 282 L 469 281 C 467 281 469 283 467 282 C 466 279 459 283 463 280 C 466 278 461 279 462 277 C 463 278 463 276 463 276 C 464 276 466 273 464 273 C 462 276 464 271 461 272 C 459 267 465 270 461 263 C 463 262 460 259 460 257 C 458 257 457 255 456 256 C 454 256 453 260 452 259 C 448 257 447 259 444 259 C 438 259 443 254 440 254 L 437 254 C 437 253 439 252 437 252 C 435 251 433 254 431 251 C 430 255 424 252 424 256 C 427 258 423 256 424 259 C 420 259 425 260 421 261 L 418 263 C 420 264 417 265 418 265 L 419 266 C 416 269 420 274 415 272 L 414 273 C 410 274 402 270 401 273 C 399 273 398 274 400 274 L 396 277 L 396 284 L 401 289 C 400 290 402 290 402 292 L 404 292 C 403 294 404 294 406 295 C 406 297 399 294 401 297 C 404 299 395 301 401 302 C 400 304 402 304 402 306 C 398 307 399 308 399 311 C 399 314 403 315 401 317 C 400 319 404 318 403 320 C 405 326 403 326 410 330 C 407 331 409 333 410 334 C 412 337 413 337 416 336 C 417 338 422 338 417 339 L 417 340 C 421 341 415 345 419 345 C 423 346 422 345 424 344 L 426 344 C 425 347 430 345 429 347 L 428 348 C 430 347 429 352 431 351 C 433 349 433 350 434 350 C 436 349 435 351 436 351 C 434 354 439 352 438 354 C 438 355 442 352 440 356 C 442 355 442 357 445 357 C 445 358 446 359 449 359 C 447 363 457 359 458 362 L 459 359 L 461 356 C 460 353 462 354 462 352 C 460 351 462 350 463 350 C 463 349 464 348 465 349 C 464 352 465 349 466 351 C 466 349 468 350 467 349 L 468 348 L 476 343 C 477 341 476 339 479 340 C 479 339 482 341 483 339 L 483 337 C 482 336 482 335 481 336 C 479 335 483 328 485 331 C 485 330 487 331 486 329 C 487 328 488 329 488 327 L 487 321 C 490 319 489 317 490 314 Z M 444 276 C 446 274 445 279 446 279 C 443 279 445 282 443 284 C 444 288 440 290 439 291 L 440 292 C 438 293 438 294 438 295 C 438 299 437 296 435 296 C 433 295 434 291 432 291 C 430 291 429 294 429 292 C 428 288 434 288 433 285 C 433 282 430 284 431 281 C 430 278 438 280 436 276 C 443 276 439 268 444 276 Z"/>
            <path id="CZ-26" fill="#fddb00" stroke="#231f20" stroke-width="0.4" stroke-linejoin="round" d="M 389 387 C 388 386 386 387 387 386 C 387 385 385 385 385 383 C 384 382 386 382 387 381 C 387 381 385 379 387 379 C 388 378 384 377 384 373 C 383 372 383 374 382 374 C 380 374 381 375 380 376 C 378 377 379 373 377 374 C 375 375 374 371 375 371 C 374 370 374 372 374 372 C 373 371 371 372 372 370 C 371 369 369 368 373 367 C 370 363 370 362 366 364 C 363 362 367 358 362 358 C 363 354 361 355 359 357 C 358 353 358 356 355 356 L 354 355 C 353 356 354 354 353 354 L 353 356 C 352 358 348 356 349 358 L 348 358 C 345 359 341 358 344 354 C 346 353 348 351 345 350 L 345 344 L 346 343 L 346 341 C 346 341 347 343 348 342 L 349 339 C 347 339 349 337 347 337 C 345 338 348 336 345 336 C 347 334 345 335 345 334 L 347 333 L 346 333 C 347 332 346 332 345 332 L 343 331 L 342 328 L 339 329 C 340 332 340 330 338 331 C 337 329 340 329 339 328 L 337 328 L 335 327 L 334 327 L 333 325 L 331 324 C 331 324 329 324 330 323 L 328 323 L 328 324 L 327 324 C 322 323 314 329 317 333 C 314 336 313 330 311 333 L 312 335 C 312 335 310 337 312 337 C 310 339 309 340 310 341 L 310 343 C 310 346 303 342 302 344 L 300 343 C 299 344 299 345 298 344 C 296 346 298 348 299 348 C 301 348 300 350 299 351 C 304 351 300 350 301 354 C 303 358 305 360 301 361 L 301 365 L 302 366 L 302 370 C 303 372 300 372 302 375 L 302 378 C 301 379 301 381 303 379 L 306 380 C 307 379 306 378 307 379 C 306 382 309 380 308 378 L 309 378 C 310 377 312 377 310 376 L 312 376 L 312 373 C 312 373 310 372 312 371 C 319 366 317 365 316 373 C 318 376 318 377 320 374 C 321 374 322 374 321 373 C 323 372 329 374 324 377 C 327 380 322 380 320 381 L 320 383 C 321 384 320 383 319 384 L 321 385 C 321 387 324 388 321 391 C 321 393 319 394 318 394 L 317 396 L 319 398 L 317 399 L 314 399 C 308 398 312 400 307 404 L 302 404 L 303 415 C 302 419 306 413 307 420 C 307 423 310 424 312 425 C 315 429 312 422 313 422 C 314 422 316 423 315 421 L 316 421 C 319 420 317 416 321 420 L 321 421 L 324 421 C 328 422 325 418 328 418 C 330 420 331 418 331 416 C 332 416 334 417 333 415 C 335 412 331 413 336 410 C 337 408 341 408 340 410 C 340 413 340 414 343 414 L 344 413 L 344 412 C 347 414 346 410 350 412 C 351 410 353 411 355 410 C 355 410 355 412 356 410 L 357 407 C 358 406 356 406 358 404 C 359 406 361 403 362 404 L 364 404 C 365 404 365 408 366 405 L 370 407 L 370 409 C 372 407 372 409 373 407 L 374 407 L 375 405 C 375 405 377 404 377 406 L 378 405 L 377 402 L 378 402 C 380 405 381 402 382 403 L 383 405 L 384 405 L 384 404 L 386 403 C 382 402 381 398 382 396 C 383 397 387 395 387 394 C 390 395 389 390 388 389 C 386 390 388 388 389 387 Z M 297 325 C 299 326 299 320 296 320 C 294 321 290 321 291 319 C 289 319 287 321 286 320 L 284 315 C 281 315 279 315 279 317 L 277 319 L 281 323 C 280 326 281 324 283 324 C 285 323 285 328 286 326 C 287 322 291 325 293 326 C 295 326 295 323 297 325 Z M 321 374 L 321 375 L 322 375 C 323 374 321 374 321 374 Z"/>
            <path id="CZ-25" fill="#fdbd10" stroke="#231f20" stroke-width="0.4" stroke-linejoin="round" d="M 468 371 C 464 361 462 372 457 361 C 455 360 446 362 449 359 C 445 360 446 357 444 357 C 441 358 442 354 440 356 C 440 355 441 353 439 354 C 438 355 439 353 437 353 C 436 352 435 353 436 351 C 435 347 435 351 433 350 C 432 349 431 353 430 350 C 429 349 430 348 428 348 L 429 347 C 430 345 425 347 426 345 L 424 344 C 422 345 422 346 419 345 C 416 344 418 344 418 341 C 419 340 416 340 417 340 L 417 339 C 421 338 417 338 416 336 C 413 337 412 337 410 334 C 409 333 407 331 410 330 C 403 326 405 326 404 320 C 404 318 401 319 401 317 C 403 315 399 314 399 311 C 399 308 398 307 402 306 C 401 304 400 304 401 302 C 395 300 404 300 401 297 C 399 294 406 297 405 295 C 404 294 403 293 404 292 L 402 292 C 402 290 400 290 401 289 L 396 284 C 394 285 394 289 391 288 L 389 285 L 386 283 C 386 285 385 285 384 284 C 386 286 380 290 380 288 C 381 286 378 287 378 286 C 376 288 374 287 373 286 L 370 285 C 370 279 368 284 367 282 C 365 280 363 287 362 282 L 359 283 C 357 284 359 285 357 284 C 355 279 353 284 352 284 L 352 287 C 351 288 354 290 352 290 C 352 290 352 292 352 290 L 351 292 L 350 292 L 349 291 C 346 293 345 291 343 294 L 342 294 L 341 295 C 344 297 342 297 340 298 L 340 299 C 342 303 338 300 338 302 C 337 306 340 304 340 306 C 339 307 338 307 339 308 C 339 309 339 308 339 308 L 338 309 C 338 308 337 309 338 309 L 338 311 C 338 313 338 314 335 315 L 337 319 C 337 318 338 319 337 319 C 336 319 336 321 335 320 L 334 321 L 330 323 C 329 324 331 324 331 324 L 333 325 L 334 327 L 335 327 L 337 328 L 339 328 C 340 329 337 329 338 331 C 340 330 340 332 339 329 L 342 328 L 343 331 L 345 332 L 346 333 L 347 333 L 345 334 C 345 335 347 334 345 336 C 348 336 345 338 347 337 C 349 337 347 339 349 339 L 348 342 C 347 343 346 341 346 341 L 346 343 L 345 344 L 345 350 C 348 351 346 353 344 354 C 341 358 345 359 348 358 L 349 358 C 348 356 352 358 353 356 L 353 354 C 355 355 354 356 357 356 C 359 354 358 355 359 357 C 361 354 363 354 362 358 C 367 358 363 362 366 364 C 369 363 369 362 372 367 C 375 367 367 370 372 369 C 371 371 371 372 374 372 C 374 373 374 370 375 371 L 375 372 C 376 375 379 373 379 376 C 381 377 380 374 381 374 C 382 375 383 372 384 373 C 384 377 388 378 387 379 C 385 379 387 381 387 381 C 386 382 384 382 385 383 C 385 385 387 385 387 386 L 388 387 C 390 387 385 390 388 389 C 389 390 390 395 387 394 C 387 395 383 397 382 396 C 381 397 381 403 385 402 L 389 402 C 388 404 395 404 395 403 L 396 402 L 398 401 C 398 399 399 404 397 404 L 399 404 C 403 401 406 408 406 405 C 405 402 408 402 409 399 C 410 400 409 398 410 398 C 411 399 414 397 414 396 C 413 396 414 396 414 396 L 413 395 L 413 394 C 411 394 411 392 412 391 L 413 390 L 411 389 L 412 389 C 415 389 412 387 413 387 L 415 385 C 415 384 415 383 416 385 C 418 387 421 385 424 388 C 427 390 424 389 427 387 L 428 387 L 428 389 C 430 389 431 391 432 393 C 435 396 435 391 437 390 C 432 386 441 388 441 385 C 441 383 438 384 439 383 L 441 381 L 446 381 C 449 382 451 380 453 379 L 454 378 L 455 379 C 457 378 460 382 460 379 C 461 378 460 375 461 377 C 462 373 463 376 465 375 C 467 374 468 373 468 371 Z M 373 295 C 376 294 374 299 379 296 C 376 301 384 299 387 300 C 387 306 402 302 387 312 C 387 316 389 311 390 314 C 387 315 393 318 391 319 C 391 321 389 320 388 320 C 392 323 386 322 386 322 L 382 321 C 382 319 381 322 379 321 L 379 322 C 374 321 377 323 376 325 L 374 325 C 375 324 371 326 372 327 L 371 328 C 370 328 371 330 369 330 C 367 329 367 334 364 332 C 363 331 363 334 363 335 L 363 336 L 361 336 L 360 335 C 359 338 352 334 357 333 C 358 330 355 334 355 332 L 355 329 L 352 329 C 349 327 354 327 352 324 L 350 324 L 348 323 C 347 323 346 321 347 320 C 344 319 343 321 344 317 C 346 316 348 317 347 315 C 347 314 346 316 346 314 C 344 314 344 313 343 312 C 342 311 340 314 340 312 C 341 310 342 311 343 310 L 346 309 L 347 306 C 349 306 349 306 349 308 L 354 307 C 353 305 352 304 354 302 C 355 301 358 303 358 301 L 360 300 C 361 299 364 299 364 297 C 365 295 368 295 370 294 C 370 294 371 294 370 294 C 372 293 371 295 371 295 L 373 295 Z"/>
            <path id="CZ-10-18" fill="#e7c91d" stroke="#231f20" stroke-width="0.4" stroke-linejoin="round" d="M 393 305 C 391 302 387 305 387 300 C 384 300 376 301 379 296 C 374 299 377 296 373 295 L 372 296 C 371 295 372 292 370 294 C 364 296 361 299 357 302 C 350 300 355 305 354 307 C 351 308 349 309 349 306 L 347 307 L 347 308 L 342 310 L 340 313 C 343 311 343 313 345 314 C 353 316 338 319 347 320 C 345 325 354 323 352 326 C 352 327 349 328 352 329 C 353 331 355 329 356 329 L 356 332 L 355 332 C 354 334 357 331 357 332 C 354 335 356 337 360 336 L 361 336 C 362 336 363 334 363 336 C 365 338 362 332 363 331 C 366 334 368 330 370 330 C 370 328 372 328 372 327 C 371 326 375 323 374 326 C 378 325 374 321 378 322 L 380 321 C 381 323 382 318 382 321 C 385 320 386 324 390 321 C 387 320 390 320 391 320 L 391 319 C 388 314 392 314 387 313 C 386 309 394 310 393 305 Z M 350 308 Z"/>
        </g>
    </g>
</svg>
