<?xml version="1.0" encoding="UTF-8"?>
<!-- Generated by Pixelmator Pro 3.6.10 -->
<svg width="684" height="777" viewBox="0 0 684 777" xmlns="http://www.w3.org/2000/svg">
    <g id="Landen">
        <g id="IERLAND">
            <path id="IR-XX" fill="#ef778b" stroke="#231f20" stroke-width="0.4" stroke-linejoin="round" d="M 144 323 C 144 322 144 325 145 324 C 146 322 145 324 146 325 C 147 326 146 325 147 324 L 147 323 L 149 324 L 150 323 L 151 324 L 152 325 L 151 326 C 151 326 152 326 151 326 L 152 327 C 151 327 151 329 149 328 L 148 328 L 148 327 L 149 327 C 149 327 149 328 149 327 L 146 327 C 146 328 147 327 146 327 C 144 325 143 326 144 323 Z M 190 396 C 188 394 191 394 194 394 C 193 391 196 393 196 392 C 197 391 197 393 197 394 C 196 394 196 392 196 394 C 200 397 194 405 193 401 C 190 401 190 401 189 399 C 188 397 193 396 190 396 Z M 187 421 C 184 419 180 416 175 415 C 175 411 181 413 182 413 C 184 413 182 418 184 416 C 188 414 190 417 192 418 C 195 418 191 420 192 420 C 190 419 191 422 192 422 C 192 423 192 422 192 422 C 193 422 194 424 195 422 L 193 425 C 190 425 190 421 187 421 Z M 176 369 L 174 370 C 175 371 176 374 173 372 C 174 371 173 365 176 369 Z M 259 412 C 255 411 261 410 262 411 C 259 412 261 413 259 412 Z M 178 707 C 176 707 177 706 178 706 L 179 708 L 179 706 C 179 705 178 704 180 704 L 180 706 L 181 708 C 180 708 177 711 176 710 C 175 708 179 709 178 707 Z M 139 328 L 140 326 C 141 324 145 329 141 327 L 139 328 Z M 358 118 C 360 118 359 121 357 120 C 356 119 357 119 358 118 Z M 162 701 L 165 701 L 162 701 Z M 192 389 C 190 388 194 387 195 387 L 197 389 C 198 388 200 390 199 390 C 198 389 198 392 196 391 L 192 391 L 193 391 C 194 390 193 390 192 389 Z M 198 430 C 192 432 196 425 199 424 L 200 424 C 202 424 202 426 201 427 C 199 427 200 430 198 430 Z M 188 397 C 190 396 189 400 188 400 C 188 399 186 401 185 399 C 188 399 185 398 188 397 Z M 97 616 C 96 622 82 621 81 622 C 82 616 90 619 90 614 L 94 615 C 93 618 95 615 97 616 Z M 358 116 C 357 118 355 114 357 114 L 358 116 Z M 359 101 C 360 100 360 101 361 102 L 359 102 L 359 101 Z M 354 112 L 354 114 C 355 117 352 114 351 115 L 350 115 C 348 115 346 114 347 113 C 345 113 348 113 347 112 C 347 110 348 110 349 110 L 348 108 L 348 107 L 350 107 L 350 106 C 350 106 351 106 350 106 L 353 110 C 353 108 354 110 354 110 L 354 112 Z M 190 393 C 189 390 192 391 192 393 L 190 393 Z M 199 387 C 196 386 203 385 199 387 C 202 388 200 388 199 387 Z M 490 630 C 488 632 489 628 491 628 C 492 629 490 630 490 630 Z M 187 396 L 187 394 L 187 396 Z M 197 386 C 197 386 194 386 195 385 C 194 385 195 384 195 385 C 195 386 197 384 197 386 Z M 178 387 C 178 390 176 385 175 385 C 177 383 178 384 178 387 Z M 180 389 L 182 387 L 180 389 Z M 178 702 L 177 705 C 177 703 176 704 175 704 L 178 702 Z M 372 94 L 373 95 C 372 96 371 95 372 94 Z M 152 343 C 149 344 151 342 149 341 C 150 340 153 341 152 343 Z M 166 714 C 164 713 174 707 173 711 C 171 712 169 716 168 714 C 169 710 167 716 166 714 C 166 714 167 714 166 714 Z M 173 700 C 171 699 174 699 175 699 L 173 700 Z M 369 96 L 370 98 L 369 98 L 367 97 C 368 96 369 97 367 96 L 369 96 Z M 151 347 L 153 348 C 152 347 150 348 151 347 Z M 70 577 C 72 576 72 576 71 578 C 71 578 69 578 70 577 Z M 162 312 C 163 311 165 312 163 313 L 163 314 L 158 315 L 159 312 C 159 310 161 313 162 312 Z M 169 311 L 170 312 C 169 313 168 311 169 311 Z M 178 296 C 179 297 181 296 181 298 C 179 298 180 300 179 299 L 170 299 C 168 299 170 299 170 298 L 170 297 L 175 296 C 177 294 177 291 178 296 Z M 207 432 C 208 434 205 434 204 435 C 203 435 202 433 201 434 C 201 431 205 429 207 432 Z M 181 705 L 182 703 C 182 703 183 705 181 705 Z M 170 701 C 168 701 170 699 171 699 L 170 701 Z M 363 108 C 362 111 362 107 361 107 L 360 107 L 361 106 L 362 105 L 361 103 C 363 101 363 107 363 108 Z M 99 675 L 94 676 L 96 675 C 99 671 107 673 99 675 Z M 100 650 L 99 651 C 99 651 100 648 100 650 Z M 385 66 L 389 70 C 389 69 390 68 389 70 C 390 73 380 65 385 66 Z M 389 84 C 387 84 389 83 389 83 C 390 82 389 84 390 84 C 391 86 389 85 389 84 Z M 96 650 C 99 650 96 652 94 651 L 96 650 Z M 78 583 C 76 585 72 585 70 586 C 72 585 78 581 78 583 Z M 66 591 L 65 591 L 66 591 Z M 486 50 L 487 50 L 486 50 Z M 354 138 C 353 137 354 137 355 137 L 354 138 Z M 81 630 L 83 629 L 81 630 Z M 67 589 L 66 589 L 67 589 Z M 95 615 C 92 614 97 613 97 615 L 95 615 Z M 181 287 C 178 287 181 285 182 287 C 182 290 180 289 181 287 Z M 353 118 L 353 117 L 353 118 Z M 165 379 C 167 379 166 381 165 381 L 165 379 Z M 372 93 L 371 91 C 372 90 374 93 372 93 Z M 324 205 L 326 206 C 325 206 323 207 324 205 Z M 356 112 L 357 113 L 358 113 C 359 117 354 111 356 112 Z M 366 101 L 367 101 L 366 101 Z M 574 396 L 577 396 C 575 396 576 398 575 398 C 574 397 573 397 574 396 Z M 359 121 L 360 120 L 359 121 Z M 214 294 C 215 294 217 295 215 295 C 215 295 213 295 214 294 Z M 139 674 L 139 673 C 142 671 146 672 141 674 C 143 675 134 675 132 677 C 131 676 133 676 130 676 C 128 675 129 673 131 672 C 133 672 139 671 139 674 Z M 255 421 C 256 421 252 422 252 420 C 254 419 256 420 255 421 Z M 250 423 L 249 423 L 250 423 Z M 174 669 C 167 671 175 668 177 666 C 177 668 174 672 174 669 Z M 152 346 C 150 347 151 345 152 345 L 152 346 Z M 131 670 L 130 670 L 131 670 Z M 169 338 L 170 339 L 169 338 Z M 391 82 L 391 81 L 391 82 Z M 213 298 L 211 298 C 213 297 212 297 211 297 C 212 296 214 297 213 298 Z M 211 295 L 209 296 L 211 295 Z M 213 301 L 213 302 C 212 301 211 300 213 301 Z M 571 380 L 570 380 L 571 380 Z M 486 47 L 487 47 L 486 47 Z M 371 99 C 371 98 373 100 371 100 L 371 99 Z M 485 47 L 486 47 L 485 47 Z M 569 380 Z M 564 434 C 564 434 565 434 564 434 C 565 435 564 435 564 434 Z M 569 412 L 568 411 C 569 410 569 411 569 412 Z M 569 382 C 569 382 570 383 569 382 Z M 556 410 C 550 408 546 409 542 406 C 542 403 544 398 541 397 C 539 397 541 401 538 402 C 537 401 537 402 536 403 C 534 402 533 402 533 404 C 528 413 516 421 519 431 L 521 432 C 513 434 524 435 525 438 C 527 437 531 439 531 442 C 533 440 535 443 533 445 C 538 451 541 445 541 441 C 546 448 553 439 556 446 C 575 441 558 482 568 488 L 560 505 C 552 513 549 518 550 526 C 541 534 537 545 541 555 C 538 566 519 583 519 591 C 512 586 510 592 511 598 C 514 598 511 605 513 598 C 515 601 514 603 517 598 C 517 598 515 611 522 608 L 524 611 C 514 631 513 611 493 620 C 489 608 465 608 469 617 C 463 616 460 623 456 625 C 449 623 442 620 438 622 L 440 619 C 436 614 433 618 431 620 L 423 620 C 422 619 418 617 417 619 L 416 618 L 414 618 C 411 617 409 619 407 619 C 402 617 400 620 397 622 L 396 622 C 393 620 391 624 390 626 C 393 633 387 630 386 635 C 384 636 386 639 384 641 C 382 641 380 643 378 642 C 374 642 370 642 369 646 C 373 647 369 648 368 648 C 365 649 363 642 361 647 C 356 645 354 649 350 651 C 350 647 344 656 349 651 C 346 655 355 654 352 657 L 349 657 C 337 658 335 658 336 665 C 330 667 324 665 318 670 C 314 664 305 668 300 671 C 307 668 303 675 302 677 C 299 675 300 681 295 679 L 293 681 C 292 681 290 680 289 682 C 290 684 284 682 283 685 L 280 684 C 278 682 278 687 276 688 C 274 690 276 691 277 692 C 274 693 278 695 276 696 C 273 687 270 690 260 689 C 260 691 257 691 259 692 L 260 693 C 258 694 262 694 259 694 C 258 696 256 696 258 698 L 256 700 C 255 701 255 698 253 699 C 252 697 252 701 252 699 C 250 699 253 696 251 695 C 252 698 248 696 247 695 C 242 692 240 696 237 698 C 235 699 238 701 236 701 L 233 702 C 233 698 228 707 230 703 C 230 694 222 699 220 697 C 221 700 218 696 217 697 C 220 700 212 700 211 700 C 212 702 209 700 210 702 L 209 702 C 206 703 209 701 209 701 C 206 702 208 703 204 703 L 204 704 C 203 705 202 703 202 705 C 199 705 202 709 200 708 C 195 710 200 705 198 706 C 196 706 195 708 194 707 C 195 708 196 703 195 705 L 193 705 C 192 707 193 703 191 703 C 193 707 191 706 186 709 C 185 707 184 709 183 708 L 182 708 L 183 707 C 184 704 186 707 186 704 C 186 702 184 706 184 705 C 182 705 182 705 183 703 C 176 704 181 700 179 700 L 178 701 C 180 700 184 696 182 694 L 180 696 L 180 693 C 178 695 179 694 177 692 L 176 691 L 177 693 L 177 695 C 179 695 177 697 176 697 C 175 699 173 695 174 697 C 173 699 170 697 168 698 L 168 696 C 166 696 166 701 162 699 C 161 696 162 700 158 700 C 164 699 158 702 156 701 C 159 701 156 700 156 699 C 157 697 154 698 155 696 C 154 696 154 698 153 696 C 152 697 155 698 153 699 L 152 698 L 150 699 C 148 699 148 701 148 702 C 147 704 146 702 142 704 C 150 702 146 705 142 705 C 137 709 143 704 139 703 C 138 707 135 706 135 704 C 136 703 137 701 135 700 C 131 700 141 696 143 695 L 155 692 C 154 689 163 683 168 683 C 169 682 167 681 170 681 C 169 679 167 682 166 682 C 166 681 161 681 161 683 C 159 682 158 682 157 684 L 155 685 L 154 685 L 148 686 C 147 687 148 688 146 688 C 147 687 146 687 145 687 L 137 690 C 136 689 132 690 135 688 C 138 687 141 686 141 684 C 152 678 169 674 179 671 C 179 669 182 669 179 668 C 178 668 183 666 181 666 L 180 667 L 182 664 C 181 663 178 666 181 663 C 181 660 181 663 179 664 L 175 664 C 174 660 172 664 173 658 C 172 659 173 658 173 658 L 171 658 L 171 659 L 170 660 L 171 662 C 170 664 168 665 167 664 C 165 665 162 669 158 669 L 156 670 L 157 667 C 155 669 154 667 152 668 C 150 668 152 667 151 666 L 150 666 C 150 666 151 670 149 669 L 146 670 L 142 670 L 135 669 C 133 671 130 667 129 671 C 129 672 129 671 129 671 L 127 672 C 128 672 129 672 127 673 L 127 674 C 126 676 123 675 123 674 L 115 678 C 112 678 118 676 113 677 C 116 674 114 677 112 675 L 107 675 C 105 676 100 679 103 676 C 106 674 102 673 103 672 C 106 670 105 673 107 673 C 109 671 111 673 113 672 L 113 670 C 114 669 115 668 114 667 C 112 667 113 666 112 665 C 109 666 110 662 113 663 C 114 663 116 665 118 663 C 119 664 120 665 121 664 C 120 661 125 664 124 662 L 128 658 C 125 657 117 658 125 654 L 131 653 L 132 653 C 134 652 135 650 137 652 C 136 651 132 657 136 653 C 141 653 138 651 140 649 C 143 649 138 651 142 651 L 144 651 L 143 651 C 148 650 142 653 146 652 L 146 653 L 147 651 L 147 650 L 144 650 C 145 648 141 649 143 647 L 148 646 C 146 643 153 644 152 641 C 155 639 160 640 163 640 C 163 639 174 635 168 636 L 160 636 C 152 636 147 641 145 642 C 148 638 142 640 141 643 C 142 641 143 640 143 642 C 140 643 139 643 138 645 L 139 642 L 135 642 L 136 639 C 134 641 136 635 135 639 C 135 643 137 644 130 643 L 122 647 L 116 647 C 119 646 117 650 115 648 L 111 650 C 109 649 109 652 108 651 C 107 650 112 648 109 647 C 108 647 108 649 107 648 C 107 648 109 647 107 646 L 106 646 L 102 643 C 101 645 98 641 101 643 C 106 643 108 635 103 632 C 103 632 107 632 106 630 C 106 630 101 633 99 631 L 94 638 C 93 637 90 640 87 640 C 87 638 86 638 89 636 C 87 635 92 629 88 629 C 84 629 82 632 85 626 C 82 620 86 623 92 622 L 95 622 C 95 621 99 617 100 620 C 100 624 102 616 98 616 C 101 613 106 614 109 611 L 98 614 C 98 613 99 612 97 612 C 89 612 100 608 99 610 C 101 610 100 608 101 607 C 102 605 103 606 105 605 L 106 606 C 107 602 112 604 114 602 C 118 600 133 605 135 593 L 134 599 C 140 594 136 597 140 598 C 138 597 137 594 140 592 C 142 592 142 585 144 586 C 141 597 156 583 156 591 C 158 589 150 585 158 585 L 158 586 C 159 585 160 585 158 584 C 156 586 155 584 154 583 C 152 586 153 582 151 583 C 144 583 132 581 139 589 C 138 595 135 584 134 583 L 122 585 C 121 584 120 585 120 586 L 117 587 L 117 586 L 116 585 C 112 586 111 587 110 584 C 110 582 112 581 109 581 L 110 582 L 109 584 C 107 583 106 585 105 583 C 104 580 102 579 100 581 C 111 584 99 586 97 582 C 90 575 95 585 94 584 C 91 583 88 585 85 585 C 83 585 84 582 81 582 L 84 580 L 83 575 C 85 575 83 573 85 573 C 90 569 78 572 90 567 C 94 565 89 568 91 569 C 90 572 98 573 94 569 C 101 562 92 568 97 563 L 103 562 C 104 562 104 558 106 560 C 108 561 108 556 111 557 C 114 559 120 552 120 558 C 121 562 112 567 119 564 C 121 566 122 564 120 564 C 126 567 138 557 130 554 C 132 552 134 557 135 554 L 136 554 C 131 560 134 564 138 567 C 145 573 151 566 155 567 C 143 569 173 570 159 564 C 156 565 150 559 151 563 L 150 563 L 149 562 C 150 560 147 561 148 559 C 148 556 151 558 151 560 C 149 561 150 562 151 560 C 160 558 146 559 152 557 C 154 559 153 555 155 557 C 157 555 152 554 153 557 C 157 549 157 542 148 540 C 143 539 146 535 149 535 C 152 535 155 537 158 536 L 172 529 C 174 529 181 533 178 530 C 179 530 178 530 178 530 L 178 529 C 174 530 174 529 175 525 C 177 521 177 517 173 511 C 171 509 164 516 160 512 C 158 511 157 515 154 514 C 148 513 150 512 154 510 C 155 509 159 510 157 508 L 159 508 C 160 507 165 508 165 505 C 166 502 173 503 174 499 C 175 499 177 499 177 497 L 179 497 L 180 495 C 181 495 184 497 183 495 C 181 491 186 491 186 490 C 187 489 184 487 186 488 C 187 489 186 486 188 487 C 188 484 196 484 195 487 C 196 488 197 488 197 486 C 199 487 202 484 200 482 C 205 482 199 475 205 475 C 207 475 206 473 207 472 C 208 473 210 472 208 470 C 206 469 213 466 209 467 C 209 461 223 462 219 455 C 224 452 215 456 212 455 C 212 453 206 456 207 454 C 206 452 213 451 213 447 C 215 443 218 445 216 440 C 218 438 221 436 222 433 C 225 430 230 429 230 424 C 231 415 239 423 244 424 C 238 422 245 430 247 426 C 251 420 252 428 253 426 L 252 423 C 250 424 250 422 249 422 C 244 421 253 421 256 421 C 256 423 257 423 258 423 C 257 424 259 424 260 425 C 259 424 262 423 261 424 L 261 423 C 261 422 260 424 260 422 C 250 420 265 419 265 420 C 265 422 260 420 263 422 C 266 423 266 424 267 426 C 270 426 267 425 267 424 C 267 420 265 418 268 417 C 268 415 265 419 269 415 C 265 417 271 413 273 415 C 277 415 272 415 271 414 L 274 412 C 269 415 262 412 265 414 C 266 415 260 413 265 412 C 263 412 264 412 265 411 C 259 411 266 409 268 409 L 266 409 C 268 408 265 408 264 407 L 266 406 L 269 405 C 270 405 269 405 269 405 L 270 403 L 266 403 L 266 404 C 263 405 265 402 262 403 C 258 400 257 407 258 404 L 252 404 L 252 403 L 251 404 C 250 406 240 403 237 404 L 211 404 C 209 406 208 402 206 401 L 207 397 C 206 401 204 396 206 396 L 208 393 C 207 392 205 392 208 393 C 206 394 205 393 204 395 C 205 397 204 400 202 401 C 201 402 202 399 201 400 C 199 403 198 399 199 397 C 201 394 203 394 202 391 L 202 388 C 201 387 200 386 201 385 C 201 383 198 383 197 382 C 199 382 204 382 200 381 C 199 379 201 379 201 379 C 201 378 200 376 202 376 L 202 375 C 200 376 199 378 201 375 C 203 373 198 374 198 376 L 192 378 C 196 379 191 381 192 382 C 190 383 189 384 190 386 C 188 387 187 385 186 387 L 185 388 C 184 389 184 387 184 387 L 183 386 L 182 386 C 180 385 183 383 181 383 C 180 383 182 384 180 385 C 181 384 181 385 180 385 L 179 385 C 179 384 179 382 177 383 L 176 381 C 177 382 176 385 175 383 C 175 385 173 383 174 382 C 171 384 172 380 174 378 C 176 379 175 378 175 377 C 176 378 176 376 176 376 C 174 378 174 374 176 374 C 178 375 181 372 182 373 C 181 374 185 371 186 372 C 184 372 187 370 184 371 C 184 369 187 369 186 368 C 183 370 181 367 185 367 L 184 367 C 182 364 179 372 179 369 C 180 367 177 368 179 370 C 177 372 177 368 176 367 C 178 364 180 367 180 364 C 181 365 182 366 183 365 C 181 364 179 364 178 362 C 178 364 179 363 180 364 C 179 365 176 367 175 365 C 178 363 171 366 173 369 C 172 373 166 369 168 373 C 163 371 170 371 166 370 C 162 371 160 369 161 365 L 157 362 L 156 364 C 156 362 153 365 153 363 L 152 365 C 151 360 147 363 146 362 L 153 355 C 152 357 155 356 156 357 L 156 358 C 156 357 158 360 159 358 C 159 356 163 356 162 355 L 157 354 C 155 354 159 353 157 352 C 157 348 164 354 163 356 L 166 353 L 164 354 C 163 354 159 352 164 352 L 155 348 C 153 348 155 346 155 348 C 156 345 153 347 153 346 C 159 346 152 346 153 340 C 143 341 151 335 152 337 C 152 339 152 337 153 337 C 150 333 162 343 157 337 C 153 333 161 336 162 337 C 168 337 167 338 167 341 C 168 343 168 341 170 342 C 170 341 168 341 170 341 C 170 339 172 343 173 341 C 171 339 170 340 168 340 L 169 340 C 171 338 175 338 169 337 C 166 336 164 333 165 330 C 166 329 168 332 169 330 C 172 333 180 335 179 332 C 180 331 184 331 185 333 C 186 332 183 331 184 331 C 182 330 183 328 182 326 C 181 324 179 325 180 322 L 181 315 C 184 315 180 315 182 314 L 183 313 C 185 314 182 311 184 310 C 186 310 182 309 184 308 C 179 306 188 305 191 305 C 196 303 199 308 206 305 C 207 306 210 302 210 303 C 208 304 210 308 210 305 C 212 305 214 306 212 307 C 214 308 216 303 216 306 L 215 306 L 215 307 C 218 307 216 304 218 305 L 218 304 L 221 304 C 222 303 219 304 220 303 L 216 303 L 217 302 C 215 301 213 302 213 300 L 215 301 C 216 300 214 300 213 299 L 215 299 C 215 299 212 299 216 298 C 216 298 212 298 215 297 L 214 296 C 215 294 221 297 219 296 C 218 295 216 295 217 294 C 219 293 217 296 219 295 C 216 294 222 296 219 294 C 223 294 214 293 219 294 C 221 294 222 294 219 293 C 223 292 219 293 217 292 L 219 292 C 223 291 220 291 218 291 C 217 290 221 291 221 290 L 219 290 C 220 289 223 290 222 289 L 217 289 C 219 288 222 289 220 287 C 221 285 219 289 218 288 L 219 287 C 217 287 217 289 216 288 C 217 286 215 288 214 288 C 216 286 213 287 212 287 C 214 289 210 287 212 287 C 213 285 211 286 210 287 L 210 286 L 207 285 C 206 284 205 286 203 284 C 203 286 205 285 203 286 C 197 278 196 296 179 284 L 177 281 L 177 278 C 176 279 176 276 175 277 L 173 278 L 172 276 C 176 265 172 269 164 267 C 162 268 159 264 159 268 C 157 267 156 263 153 265 C 155 262 162 266 161 258 C 165 260 168 264 171 260 C 175 255 178 264 184 260 C 186 267 191 264 191 257 C 193 258 191 252 193 253 L 194 256 C 195 256 194 254 196 254 L 197 254 C 198 252 194 254 194 253 C 195 252 195 249 197 251 C 198 250 199 249 197 249 L 197 248 C 195 246 201 248 200 247 L 199 246 L 200 245 C 200 244 199 244 200 245 C 199 246 199 248 198 246 L 195 245 C 195 246 198 246 195 247 C 196 249 193 248 194 250 C 192 250 194 249 193 248 L 192 249 C 194 253 191 252 189 254 C 188 253 184 254 185 252 C 188 251 182 246 184 246 C 187 246 190 243 192 244 C 194 245 191 243 192 243 C 192 241 189 242 190 243 C 188 243 188 239 188 238 L 190 239 C 192 240 191 237 190 237 L 190 238 C 191 235 183 232 187 232 C 188 235 191 234 191 231 C 192 231 192 233 193 231 C 190 232 187 228 186 224 C 184 225 186 227 183 226 C 182 227 185 229 185 230 C 181 230 184 231 184 232 C 183 232 181 228 180 230 L 181 232 C 180 233 180 237 179 235 C 181 232 175 234 174 235 C 181 238 175 237 176 241 L 176 240 L 174 241 C 173 242 176 244 176 246 C 174 249 170 245 169 244 L 170 242 L 172 237 C 176 235 175 229 177 226 C 183 226 178 222 176 220 C 175 221 176 219 176 220 C 178 220 178 222 179 222 C 180 220 175 219 177 219 L 178 219 L 179 218 L 179 216 L 180 216 C 179 215 181 215 182 215 L 182 214 L 185 214 L 185 213 L 187 213 L 187 212 C 187 211 188 210 189 212 C 190 211 187 214 189 214 C 191 214 190 217 191 217 C 192 217 192 219 194 218 L 193 219 C 193 220 193 222 192 221 C 194 222 194 216 195 218 C 195 222 197 218 200 218 C 201 217 206 218 206 216 C 203 215 204 213 202 213 L 202 210 L 203 210 L 207 208 L 209 208 C 210 209 210 206 210 208 C 212 207 209 208 210 209 C 211 207 211 210 213 208 L 214 211 L 216 211 C 216 210 216 211 216 211 L 217 213 C 217 211 219 213 219 213 L 221 213 C 221 212 221 214 221 213 C 222 215 222 213 223 214 C 224 212 225 213 227 212 C 227 214 227 213 228 213 L 229 213 L 230 214 L 231 214 L 232 215 L 234 215 L 234 216 L 236 217 C 238 217 237 216 238 215 L 240 216 L 242 218 C 242 218 250 217 248 220 C 250 223 251 218 253 218 C 254 218 253 215 254 216 C 256 220 265 218 262 225 L 262 227 C 264 225 261 225 264 226 C 268 222 266 230 265 232 C 270 231 263 239 266 234 L 264 235 C 266 236 261 236 264 237 C 262 238 268 238 268 240 C 278 243 279 227 284 226 C 299 227 293 229 304 235 C 307 236 312 229 311 234 C 318 237 318 231 324 237 C 326 235 328 232 328 229 C 331 230 334 224 330 223 C 327 224 324 223 324 226 C 321 225 326 223 322 221 C 320 221 323 221 322 220 C 320 220 321 219 322 218 C 322 219 325 216 326 218 L 331 215 C 334 215 332 209 334 212 C 336 213 338 211 338 210 L 343 209 C 346 208 342 205 343 205 L 345 204 L 345 202 C 348 201 345 206 349 205 C 353 203 358 204 360 203 C 364 204 364 202 367 198 C 366 197 365 195 368 194 C 371 193 373 191 372 188 C 376 188 380 180 379 176 L 380 176 C 380 174 377 176 378 177 C 374 175 367 184 364 180 C 372 173 364 173 360 178 C 358 182 350 182 350 185 C 345 188 350 183 349 182 C 351 182 359 180 357 177 C 355 177 358 174 356 175 C 357 176 355 175 355 176 C 356 174 353 176 353 177 C 353 177 351 176 351 178 C 352 176 349 176 349 178 C 345 182 347 175 347 174 C 346 173 344 175 342 176 L 339 175 L 337 177 L 336 177 C 338 176 334 175 333 175 L 331 174 C 330 175 324 174 327 172 C 327 170 323 168 321 167 L 319 166 L 318 165 C 318 166 318 165 318 165 L 317 165 L 318 161 C 317 161 316 160 317 159 C 316 158 317 158 318 158 L 319 159 C 320 159 321 157 322 158 L 324 157 C 321 158 324 154 323 153 L 325 152 L 328 152 L 327 151 C 327 150 329 151 328 150 C 330 152 329 148 329 149 C 331 151 332 149 332 148 L 335 148 C 338 148 339 147 341 149 C 345 151 347 151 344 147 C 347 146 351 149 348 143 C 347 143 346 142 347 141 L 343 140 C 342 138 347 138 348 140 L 348 139 L 350 138 C 352 134 354 142 358 137 C 362 141 361 130 364 133 C 366 131 369 136 368 134 C 373 131 366 133 367 130 C 368 128 365 128 365 130 C 363 129 363 128 363 131 C 364 134 357 127 356 126 L 356 124 C 357 125 358 123 357 122 C 354 121 361 119 359 122 L 363 122 C 364 120 364 124 364 122 C 367 121 365 120 363 119 L 361 119 L 359 114 L 359 110 C 360 110 362 111 361 109 C 362 109 362 112 363 111 C 363 109 362 109 364 108 L 364 106 L 365 104 C 365 106 368 107 367 105 L 368 105 C 370 106 370 103 370 103 C 369 101 371 102 373 101 L 373 97 C 375 96 373 91 376 93 L 376 91 C 377 90 376 88 378 88 C 375 84 384 88 385 88 C 393 91 391 84 394 88 C 397 88 402 85 403 86 C 407 85 404 82 405 80 L 408 79 C 407 78 410 78 409 77 L 411 80 L 422 79 C 423 80 423 77 424 78 C 424 79 424 80 426 79 C 427 78 424 77 427 78 L 427 76 L 428 75 L 429 76 C 428 73 433 74 433 76 L 434 76 L 435 75 C 434 78 439 77 438 75 C 438 72 440 76 441 73 L 442 72 L 445 72 C 448 72 462 74 461 72 C 461 68 463 75 465 74 C 464 72 468 72 469 72 C 472 71 470 66 475 69 C 476 68 474 66 473 66 L 474 61 C 471 62 471 59 470 58 L 470 57 L 471 57 C 474 56 475 60 479 60 L 491 66 C 492 69 490 70 492 71 C 491 76 497 74 499 77 C 499 79 501 79 503 79 L 506 81 C 505 83 507 82 508 83 C 521 81 505 107 503 111 C 489 117 445 165 470 115 C 464 116 461 124 462 128 C 460 133 462 131 456 132 C 453 135 457 144 453 147 C 436 163 447 167 440 165 C 438 167 440 164 439 164 C 437 166 435 165 434 163 L 421 170 C 418 170 419 168 418 167 C 416 167 416 166 415 164 C 412 162 409 171 406 169 C 403 168 405 171 406 171 C 407 173 404 173 405 175 C 406 177 408 177 410 178 C 409 182 412 183 414 180 C 416 184 419 185 423 184 C 426 181 425 189 421 188 C 419 188 418 189 418 190 C 416 191 414 191 414 193 L 411 195 C 409 196 412 197 410 197 C 406 199 403 198 399 197 C 397 196 393 193 391 197 C 388 200 389 206 383 204 C 381 209 368 203 377 210 C 372 212 381 216 382 220 C 384 223 384 227 388 227 C 392 230 392 240 400 239 C 399 240 403 240 401 241 C 399 244 402 249 400 253 C 405 258 415 255 418 258 C 417 262 422 260 423 265 C 423 270 428 269 429 272 C 431 273 430 272 432 271 C 434 272 436 274 437 273 C 437 271 446 266 444 270 C 439 273 452 270 447 272 C 443 278 449 272 449 274 C 450 278 452 273 453 276 C 455 278 454 272 452 271 C 457 264 458 269 456 274 C 453 272 455 280 459 273 L 460 270 C 459 269 462 268 462 268 C 457 263 466 261 468 259 C 474 264 471 255 473 255 L 472 251 C 469 251 471 251 471 249 C 467 248 467 243 471 244 C 471 234 474 246 483 231 C 485 228 488 226 490 228 C 492 227 490 231 492 229 L 493 231 C 494 230 495 231 494 232 L 496 233 C 495 234 497 233 497 234 C 499 234 496 235 497 235 C 498 235 499 235 499 237 L 499 238 C 498 241 501 240 502 241 L 503 248 C 503 249 505 251 503 251 C 502 254 502 252 501 251 C 500 252 502 253 502 254 C 509 256 502 264 513 270 C 515 272 516 269 516 268 C 520 268 523 273 523 277 C 522 278 523 280 521 281 L 520 282 C 521 286 520 286 519 290 C 517 291 520 295 521 296 C 523 299 526 292 528 295 C 530 296 531 293 534 295 L 537 293 C 539 294 535 290 538 292 C 541 292 540 296 544 294 C 551 297 547 286 551 286 C 554 286 551 293 555 289 C 559 282 573 304 573 306 C 575 312 564 311 560 309 C 559 308 549 301 550 305 C 551 307 549 308 547 309 L 547 313 C 544 313 546 316 546 315 C 542 336 561 319 555 340 C 556 342 558 341 559 342 C 553 346 556 357 555 363 C 557 370 560 373 563 379 L 568 380 C 566 382 570 384 569 386 L 569 387 C 571 387 566 390 569 391 C 567 392 562 393 566 396 C 566 397 563 402 561 402 L 562 404 C 564 405 564 413 562 411 C 562 410 562 408 560 408 C 559 406 559 412 556 410 Z M 213 294 L 214 294 L 213 294 Z"/>
            <path id="IR-01" fill="#f6b0c2" stroke="#231f20" stroke-width="0.4" stroke-linejoin="round" d="M 564 444 C 560 429 558 437 563 422 C 561 421 561 415 564 415 C 563 412 563 409 560 408 C 559 407 557 412 552 409 C 549 408 543 408 542 405 C 543 402 543 392 540 399 C 540 402 537 401 536 403 C 532 401 528 411 526 415 C 524 415 515 426 519 425 C 517 430 521 431 519 433 C 518 438 530 436 531 441 C 533 442 538 455 541 442 C 544 441 548 447 554 442 C 556 449 562 444 564 444 Z"/>
        </g>
    </g>
</svg>
