<?xml version="1.0" encoding="UTF-8"?>
<!-- Generated by Pixelmator Pro 3.6.10 -->
<svg width="270" height="317" viewBox="0 0 270 317" xmlns="http://www.w3.org/2000/svg">
    <g id="Landen">
        <g id="MONTENEGRO">
            <path id="ME-85" fill="#148040" stroke="#231f20" stroke-width="0.4" stroke-linejoin="round" d="M 94 243 L 92 242 L 94 243 Z M 51 229 L 50 229 L 51 229 Z M 176 293 C 178 289 169 291 171 287 C 178 284 168 284 170 279 C 171 278 176 277 172 276 C 172 271 167 269 169 263 C 173 248 147 240 134 237 C 122 236 137 252 126 249 C 110 245 88 229 77 218 C 78 203 50 175 42 197 C 44 198 41 200 39 198 C 35 196 35 202 32 203 C 28 203 29 209 31 212 C 31 219 41 224 49 227 L 50 226 C 49 227 50 228 51 228 L 53 228 L 53 229 L 52 230 L 54 230 L 55 231 L 56 231 L 55 231 L 57 232 L 58 232 C 58 233 58 232 58 232 L 58 233 L 59 233 L 59 232 L 60 233 L 61 233 L 61 232 L 62 231 C 62 231 61 231 62 231 L 63 232 L 64 232 L 64 230 L 63 229 L 63 228 L 66 228 L 67 227 L 67 228 L 68 228 L 68 230 L 70 230 L 70 231 L 71 232 C 71 231 71 232 71 232 L 69 232 L 69 233 L 70 233 L 71 234 L 72 234 L 72 235 L 73 236 L 72 237 L 74 238 L 75 239 L 76 239 L 76 240 L 77 240 L 79 241 L 81 242 L 82 243 C 83 245 85 245 84 243 C 84 241 86 243 87 243 C 84 239 89 242 90 242 L 91 241 L 91 240 C 90 240 93 238 93 240 C 93 241 96 238 96 240 L 98 240 L 98 243 L 99 243 L 99 244 L 100 245 L 100 246 L 101 246 L 102 249 L 105 250 L 108 251 L 109 251 C 112 250 111 254 112 255 L 114 256 C 115 256 114 256 114 256 L 115 256 C 115 256 115 257 115 256 C 117 255 117 258 118 259 C 120 262 118 258 120 259 C 120 260 126 256 126 260 C 125 261 127 260 128 261 L 130 264 C 130 264 129 264 130 264 L 129 264 L 130 264 L 130 265 C 129 266 131 266 129 266 C 128 263 130 265 128 266 L 130 267 L 136 271 C 138 271 140 271 139 273 C 140 275 142 274 140 276 C 142 277 142 276 141 278 L 142 279 C 141 279 141 279 142 279 L 142 280 L 141 281 L 142 281 C 144 281 143 282 142 282 L 142 283 C 142 284 142 285 144 285 C 150 289 139 285 146 288 L 147 289 L 149 289 L 150 290 L 152 290 L 152 291 L 153 290 L 155 291 L 156 292 C 161 287 180 305 176 293 Z M 52 229 Z"/>
            <path id="ME-84" fill="#006432" stroke="#231f20" stroke-width="0.4" stroke-linejoin="round" d="M 258 98 C 255 94 255 89 254 86 L 252 86 L 250 85 L 247 85 C 245 85 244 83 243 84 L 232 82 C 230 79 226 82 226 79 C 224 78 225 86 221 83 C 216 76 200 76 198 63 C 197 63 196 66 194 66 C 194 67 192 67 192 69 L 191 69 C 190 68 190 67 189 68 C 188 69 187 68 187 67 C 184 65 184 69 183 69 C 181 73 182 67 181 67 C 180 66 178 69 177 67 C 173 67 174 63 170 61 C 169 62 167 64 166 62 C 163 59 161 65 157 60 C 150 62 153 52 142 54 C 139 55 135 49 136 45 C 136 40 130 43 127 41 C 125 40 124 39 124 37 C 121 36 122 31 118 33 C 116 34 113 32 112 31 C 110 31 107 32 105 28 C 102 28 98 28 94 26 C 92 25 88 24 89 21 C 88 10 79 18 73 21 C 65 28 67 24 62 19 C 59 19 57 14 57 23 C 54 25 45 33 54 30 C 58 30 55 40 60 36 C 61 36 63 38 64 37 L 64 36 L 66 39 C 66 43 70 43 70 45 C 86 65 70 52 74 75 C 80 111 118 96 138 117 C 153 120 178 106 169 129 C 181 132 171 162 180 156 C 181 154 182 156 183 154 L 184 152 C 185 151 183 149 185 149 C 187 146 189 151 192 151 L 191 152 C 191 157 201 158 194 161 L 194 167 L 199 174 C 206 180 208 176 213 173 C 212 169 215 173 216 172 C 215 166 222 166 226 165 C 232 166 226 159 230 158 C 233 157 232 154 235 155 C 231 134 242 137 221 131 C 220 129 225 128 221 128 C 216 120 226 114 233 118 C 237 119 235 114 240 118 C 244 120 254 111 247 106 C 247 103 251 102 252 100 C 253 99 254 100 254 101 C 254 98 258 100 258 98 Z"/>
            <path id="ME-81" fill="#195036" stroke="#231f20" stroke-width="0.4" stroke-linejoin="round" d="M 178 157 C 171 151 180 145 175 137 C 176 129 163 130 172 122 C 169 120 171 113 167 114 C 141 124 127 108 106 101 C 87 105 75 86 72 70 C 68 67 61 65 63 59 C 60 57 56 53 52 56 C 44 58 52 60 48 64 C 32 74 31 84 32 101 C 46 123 21 115 18 132 C 16 141 25 144 24 150 C 18 156 21 170 30 173 C 46 174 32 177 41 184 C 45 186 28 193 44 195 C 51 174 80 207 77 220 C 92 228 108 246 124 248 C 138 254 122 238 134 236 C 162 252 157 220 164 204 C 167 203 167 198 168 196 L 173 180 C 171 177 178 174 178 171 C 177 169 175 167 177 164 C 177 162 180 159 178 157 Z"/>
        </g>
    </g>
</svg>
