<?xml version="1.0" encoding="UTF-8"?>
<!-- Generated by Pixelmator Pro 3.6.10 -->
<svg width="639" height="579" viewBox="0 0 639 579" xmlns="http://www.w3.org/2000/svg">
    <g id="Landen">
        <g id="MOLDAVIE">
            <path id="MD-77" fill="#777777" stroke="#231f20" stroke-width="0.4" stroke-linejoin="round" d="M 449 300 C 461 291 444 287 444 279 C 436 269 441 282 434 276 C 433 279 431 278 429 278 C 426 276 429 282 426 280 C 424 271 420 276 420 282 C 417 283 413 289 409 286 C 403 282 405 289 401 292 C 393 286 393 303 398 305 C 397 307 406 305 405 307 C 409 312 414 311 417 309 C 423 307 424 322 429 326 C 434 323 440 318 441 326 C 458 328 451 312 449 300 Z"/>
            <path id="MD-74" fill="#777777" stroke="#231f20" stroke-width="0.4" stroke-linejoin="round" d="M 432 455 C 451 449 450 425 437 416 C 430 426 441 455 418 432 C 417 437 409 436 409 431 C 412 431 416 427 412 424 C 407 422 398 426 401 432 C 402 450 414 452 421 462 C 416 465 407 454 406 463 C 404 468 410 465 410 469 C 411 476 416 462 418 470 C 426 471 429 473 436 479 C 444 476 428 469 440 470 C 468 450 419 474 432 455 Z M 464 406 C 444 401 476 377 453 376 C 441 393 460 442 464 406 Z"/>
            <path id="MD-73" fill="#777777" stroke="#231f20" stroke-width="0.4" stroke-linejoin="round" d="M 403 417 C 397 410 393 405 404 402 C 399 395 401 384 392 388 C 390 383 379 365 376 372 C 373 372 376 375 376 378 C 367 390 373 375 360 380 C 358 379 360 382 360 382 C 358 384 356 385 353 384 C 353 385 355 384 354 386 L 353 387 C 354 389 352 388 352 389 L 353 390 L 353 391 C 355 389 353 393 352 391 L 352 393 C 353 392 351 393 352 393 C 353 394 355 393 354 395 C 352 396 355 396 354 397 L 356 397 C 359 397 353 403 355 402 L 355 403 C 356 406 354 402 354 402 C 354 404 355 407 353 405 L 352 404 C 351 405 354 406 352 407 C 350 404 351 407 352 409 C 352 410 350 411 352 411 C 354 409 354 413 352 412 L 351 414 L 350 413 L 353 420 L 353 419 C 354 418 355 420 354 421 C 354 423 356 421 357 421 C 358 422 358 423 356 423 C 356 424 359 422 358 424 L 356 424 C 360 426 358 426 358 429 L 359 431 C 359 432 361 432 359 433 C 360 434 361 435 359 435 C 361 437 371 432 374 431 C 381 427 386 435 395 428 C 402 427 391 418 399 418 C 402 417 406 421 403 417 Z"/>
            <path id="MD-72" fill="#777777" stroke="#231f20" stroke-width="0.4" stroke-linejoin="round" d="M 344 112 C 338 105 327 113 323 107 C 326 102 309 95 313 102 C 298 116 313 109 304 124 C 302 128 297 121 293 123 C 289 125 289 129 285 132 C 287 135 283 137 283 140 C 284 145 287 145 285 141 C 299 135 296 153 314 151 C 317 149 316 144 317 142 C 318 141 331 147 328 143 C 323 143 333 142 328 139 C 319 131 335 132 333 122 L 339 121 C 334 115 340 111 344 112 Z"/>
            <path id="MD-71" fill="#777777" stroke="#231f20" stroke-width="0.4" stroke-linejoin="round" d="M 189 71 C 179 55 156 79 152 67 C 150 61 139 81 140 85 C 133 89 133 83 128 82 C 122 85 128 97 119 100 C 119 108 148 119 156 115 C 155 110 157 106 154 104 C 154 102 152 95 155 95 C 152 93 152 88 161 90 C 168 88 168 77 181 83 C 185 83 179 81 181 80 C 184 77 184 72 189 71 Z"/>
            <path id="MD-68" fill="#777777" stroke="#231f20" stroke-width="0.4" stroke-linejoin="round" d="M 420 274 C 423 269 415 274 420 271 C 419 266 417 272 415 272 C 413 270 405 279 404 272 C 402 266 398 268 394 265 C 392 263 393 270 388 269 C 386 266 383 263 381 266 C 379 268 381 265 380 265 C 377 268 371 261 365 261 C 364 259 361 261 358 260 C 355 264 360 263 357 265 C 367 269 356 268 350 265 C 347 264 345 261 343 259 C 343 261 340 264 344 264 C 346 265 335 262 340 265 C 343 267 349 266 348 272 C 351 273 353 271 352 273 L 358 280 C 359 282 360 276 361 279 C 365 284 370 279 371 287 C 379 293 366 276 383 288 C 387 291 382 291 385 294 C 385 295 381 296 383 297 C 387 298 388 301 387 303 C 389 303 392 301 395 304 C 394 282 401 299 405 285 C 412 291 424 281 420 274 Z"/>
            <path id="MD-67" fill="#777777" stroke="#231f20" stroke-width="0.4" stroke-linejoin="round" d="M 445 360 L 431 342 C 434 341 446 334 437 335 C 431 336 445 329 441 326 C 440 317 428 325 425 330 C 427 329 424 336 422 338 C 421 353 409 345 428 359 C 438 367 415 370 417 376 C 420 384 452 372 445 360 Z"/>
            <path id="MD-66" fill="#777777" stroke="#231f20" stroke-width="0.4" stroke-linejoin="round" d="M 337 92 C 329 97 325 91 317 87 C 316 82 316 70 308 73 C 304 73 298 78 294 78 C 291 76 282 75 277 77 C 267 89 284 92 281 101 C 272 107 286 114 286 120 C 285 130 292 123 296 123 C 298 121 303 129 304 124 C 312 111 299 114 312 103 C 313 86 334 126 331 103 C 334 100 331 92 334 100 C 337 102 339 93 337 92 Z"/>
            <path id="MD-65" fill="#777777" stroke="#231f20" stroke-width="0.4" stroke-linejoin="round" d="M 461 241 C 458 227 439 258 437 237 C 436 239 439 241 438 238 C 445 234 446 234 440 227 C 446 232 442 225 442 222 C 424 216 424 212 426 230 C 424 233 425 233 428 234 C 428 236 426 234 427 235 L 427 236 C 422 235 419 241 420 245 C 420 246 419 248 418 247 C 417 247 419 248 417 249 C 408 241 416 245 402 246 C 402 250 407 253 400 250 C 398 249 400 252 399 253 C 399 254 406 253 403 256 C 400 257 404 259 402 260 C 398 263 407 262 409 261 C 413 261 414 274 416 271 C 417 269 418 270 419 269 C 421 272 419 270 419 272 C 419 273 421 270 421 272 C 420 275 426 275 426 280 C 429 282 426 276 430 278 C 432 279 435 274 435 278 C 439 278 441 272 443 279 C 454 278 444 270 450 271 C 447 269 454 271 450 268 C 457 266 464 264 457 258 C 457 256 464 256 460 253 C 457 248 453 248 458 243 C 460 242 462 245 461 241 Z"/>
            <path id="MD-64" fill="#777777" stroke="#231f20" stroke-width="0.4" stroke-linejoin="round" d="M 326 278 C 314 275 327 250 314 255 C 306 261 310 254 303 254 C 298 255 299 256 293 254 C 289 257 291 254 288 253 C 286 254 285 251 284 251 C 281 251 281 250 279 249 C 270 253 272 260 277 264 C 275 267 272 268 275 272 C 275 277 281 275 282 278 C 286 279 285 285 289 283 C 294 281 293 288 293 288 L 294 288 C 298 290 291 288 293 291 C 294 289 294 291 295 291 L 296 291 C 295 290 297 290 296 291 C 297 292 301 291 300 293 C 302 293 302 295 301 296 C 302 298 304 296 303 299 C 305 296 305 301 304 300 L 304 301 L 303 301 L 311 301 C 312 299 313 301 314 302 C 320 301 314 297 317 297 C 327 305 319 290 318 284 L 323 280 C 325 281 327 282 326 278 Z M 339 263 C 332 268 331 263 329 263 L 331 266 C 331 266 329 263 328 265 C 324 264 330 265 328 266 C 326 271 333 274 338 276 C 337 270 336 270 339 263 Z"/>
            <path id="MD-63" fill="#777777" stroke="#231f20" stroke-width="0.4" stroke-linejoin="round" d="M 394 369 C 389 363 384 367 385 359 C 389 351 381 339 379 328 C 376 325 373 322 369 328 C 363 326 360 323 356 324 C 346 330 368 342 348 346 C 350 339 341 340 341 345 L 342 345 L 343 348 L 343 350 C 344 351 343 352 342 352 C 345 352 343 353 342 354 L 343 355 C 343 356 345 356 345 358 C 343 357 344 359 344 360 C 343 361 344 361 345 361 C 344 359 348 364 345 363 C 345 364 347 364 345 365 C 345 367 346 368 346 366 C 347 368 349 368 348 370 L 350 370 L 351 369 L 351 371 C 353 372 354 371 352 374 C 352 376 354 373 355 375 L 355 379 C 351 380 356 382 353 382 C 353 385 355 381 356 383 C 356 384 354 385 356 385 C 364 381 356 381 361 380 C 364 381 365 374 368 380 C 373 387 377 374 375 372 C 377 371 380 369 383 372 C 380 382 399 383 394 369 Z"/>
            <path id="MD-62" fill="#777777" stroke="#231f20" stroke-width="0.4" stroke-linejoin="round" d="M 297 176 C 291 172 295 163 289 164 C 288 161 284 163 283 161 L 282 158 C 278 157 280 158 278 161 C 274 160 273 163 270 160 C 262 164 270 157 270 155 C 253 164 262 142 249 154 C 239 143 255 145 235 144 C 240 154 221 155 229 162 C 233 172 235 162 238 159 C 243 157 249 164 242 168 C 244 170 245 172 241 172 C 237 169 235 182 237 183 C 239 189 241 183 244 186 C 245 190 255 189 248 194 C 243 193 251 202 245 203 C 235 215 260 203 254 217 C 251 225 264 207 263 219 C 265 222 266 217 268 220 C 271 218 265 214 269 213 C 287 217 268 198 271 189 C 306 192 287 176 297 176 Z"/>
            <path id="MD-61" fill="#777777" stroke="#231f20" stroke-width="0.4" stroke-linejoin="round" d="M 441 449 C 433 452 424 463 435 465 C 448 461 462 437 441 449 Z M 454 417 C 439 404 465 377 440 372 C 438 371 441 377 440 380 C 440 385 438 389 433 390 C 429 387 424 392 421 389 C 417 396 432 404 419 407 C 418 411 419 415 421 419 C 423 424 415 420 417 424 C 439 471 429 407 440 418 C 443 430 459 425 454 417 Z"/>
            <path id="MD-59" fill="#777777" stroke="#231f20" stroke-width="0.4" stroke-linejoin="round" d="M 255 213 C 251 205 235 214 247 200 C 242 192 259 192 245 188 C 244 187 243 184 241 185 C 235 190 239 176 235 176 C 232 177 226 181 227 179 C 231 175 214 173 216 179 C 220 193 201 184 206 201 C 213 206 192 207 188 219 C 185 225 188 221 189 223 C 187 226 192 224 191 227 C 193 227 191 230 195 229 C 194 229 195 233 197 230 C 195 234 202 236 204 236 C 205 236 204 233 205 234 L 206 236 C 206 233 209 237 207 233 L 213 236 C 213 239 211 243 215 243 C 216 243 217 246 217 244 L 218 246 L 217 246 L 217 247 L 218 250 C 219 252 218 249 220 249 C 218 254 221 246 223 247 C 228 244 225 239 230 238 C 233 237 231 232 236 233 C 237 233 238 234 238 232 C 238 230 242 233 243 229 C 241 228 245 227 243 228 C 244 232 248 226 249 226 C 247 224 244 219 247 218 C 251 219 254 217 255 213 Z"/>
            <path id="MD-58" fill="#777777" stroke="#231f20" stroke-width="0.4" stroke-linejoin="round" d="M 331 171 C 324 145 325 168 309 150 C 297 146 301 159 292 160 C 286 162 300 178 294 176 C 289 174 298 187 293 187 C 286 189 274 188 271 191 C 272 204 280 217 291 211 C 302 213 303 206 310 208 L 316 209 C 316 207 312 205 315 203 C 335 195 309 201 331 171 Z"/>
            <path id="MD-57" fill="#777777" stroke="#231f20" stroke-width="0.4" stroke-linejoin="round" d="M 538 279 C 535 275 534 259 530 250 C 524 242 523 245 524 234 C 522 232 518 233 518 235 C 516 246 511 226 508 229 C 500 241 494 235 488 229 C 484 238 470 223 473 236 C 476 245 460 242 469 255 C 478 273 478 248 485 273 C 486 269 491 272 492 272 C 491 272 498 272 494 271 C 493 271 497 268 493 270 C 490 268 494 268 496 267 C 493 267 492 265 496 265 C 496 264 493 259 496 263 C 502 259 497 279 502 271 C 506 277 505 270 508 271 C 513 266 509 276 512 272 L 513 272 C 510 275 514 274 515 275 C 514 276 509 276 514 277 C 514 278 508 278 513 279 C 514 280 510 283 511 283 C 514 283 521 285 519 281 C 518 279 523 282 519 279 C 518 278 522 278 521 280 C 522 280 521 277 524 278 C 524 285 524 277 527 280 C 530 281 527 276 529 279 C 529 280 527 281 530 281 C 525 283 535 280 533 283 C 531 283 529 282 531 285 C 533 283 540 281 538 279 Z M 532 270 C 532 274 530 272 529 273 C 522 272 531 268 532 270 Z M 486 251 C 482 253 483 254 482 250 C 481 251 480 253 478 253 C 473 254 473 242 476 243 C 479 240 481 241 484 242 C 484 237 490 240 491 244 C 485 247 484 246 486 251 Z"/>
            <path id="MD-56" fill="#777777" stroke="#231f20" stroke-width="0.4" stroke-linejoin="round" d="M 230 166 C 227 155 216 164 218 151 C 215 153 213 152 210 150 C 206 158 205 157 203 151 C 199 151 194 154 192 153 C 188 154 188 151 190 148 C 185 146 186 144 186 142 C 187 136 187 130 181 135 C 178 138 173 136 171 134 C 164 132 174 139 168 142 C 163 147 159 153 155 155 C 148 151 144 155 143 163 C 144 170 143 169 138 175 C 141 178 148 186 153 188 C 157 188 152 190 151 190 C 150 195 157 188 154 193 C 154 195 155 194 156 194 L 158 197 C 158 198 159 195 159 197 C 160 197 160 200 161 199 C 168 197 160 184 169 181 C 178 184 173 176 176 174 L 199 172 C 203 170 204 162 209 166 C 209 169 229 177 228 174 C 232 173 224 168 230 166 Z"/>
            <path id="MD-55" fill="#777777" stroke="#231f20" stroke-width="0.4" stroke-linejoin="round" d="M 394 166 C 393 161 392 170 390 167 C 394 163 391 162 390 158 C 384 161 376 154 386 147 L 386 137 C 387 132 383 137 383 133 C 385 129 381 125 378 123 C 379 117 383 111 380 106 C 364 114 374 98 375 91 C 364 101 364 85 356 80 C 352 81 346 85 350 86 C 352 90 349 86 348 87 C 353 92 346 93 343 93 C 335 87 339 108 333 97 C 321 119 356 96 350 120 C 351 145 386 182 394 166 Z"/>
            <path id="MD-54" fill="#777777" stroke="#231f20" stroke-width="0.4" stroke-linejoin="round" d="M 370 162 C 355 149 351 97 337 109 C 340 109 349 113 341 112 C 331 118 346 121 333 122 C 334 129 327 130 325 134 C 324 136 334 141 328 142 C 325 143 327 144 328 143 C 330 145 326 146 325 144 C 323 143 318 141 316 142 C 316 150 309 162 323 158 C 329 149 326 171 334 172 C 341 174 336 167 341 166 C 343 166 350 168 345 164 C 347 162 351 164 352 157 C 353 156 353 160 355 157 C 357 161 358 156 360 159 C 364 161 365 167 370 162 Z"/>
            <path id="MD-53" fill="#777777" stroke="#231f20" stroke-width="0.4" stroke-linejoin="round" d="M 442 516 C 436 505 443 494 429 491 C 432 485 428 479 433 478 C 429 475 428 470 425 470 C 419 475 419 468 416 468 C 409 475 412 465 407 468 C 404 471 410 476 404 478 C 405 482 408 487 402 487 C 398 487 395 483 390 485 C 384 484 384 489 384 492 C 386 494 389 495 389 497 C 388 498 392 499 390 501 C 392 503 393 508 394 510 C 396 509 395 511 394 512 C 393 513 396 515 394 514 C 393 516 391 514 392 516 C 391 516 389 514 389 517 C 384 520 395 525 395 523 C 396 525 395 521 397 524 C 397 521 399 523 397 525 L 399 525 C 398 527 402 527 401 529 C 401 530 403 532 401 533 L 406 537 C 415 543 411 520 419 520 C 430 518 442 530 442 516 Z M 410 460 L 419 463 C 424 459 409 451 410 460 Z"/>
            <path id="MD-52" fill="#777777" stroke="#231f20" stroke-width="0.4" stroke-linejoin="round" d="M 238 139 C 212 123 248 111 216 100 C 212 98 205 103 201 100 C 198 99 197 94 193 97 C 201 130 186 104 186 119 C 193 124 184 129 189 132 C 191 133 191 135 188 134 C 183 141 188 153 192 153 C 195 154 200 151 203 151 C 204 152 203 155 206 156 C 210 147 210 153 217 151 C 219 164 222 155 228 162 C 225 148 233 164 238 139 Z"/>
            <path id="MD-51" fill="#777777" stroke="#231f20" stroke-width="0.4" stroke-linejoin="round" d="M 214 88 C 213 72 208 86 205 76 C 199 81 189 69 187 72 C 185 72 180 81 181 81 C 183 86 166 77 167 85 C 164 91 160 89 154 90 C 152 92 153 96 155 94 C 157 95 153 96 153 97 C 156 98 152 103 153 103 C 157 106 155 112 157 117 C 169 118 160 121 164 127 C 167 134 177 141 181 133 C 184 132 187 135 190 134 C 192 134 188 130 187 131 C 190 123 182 114 188 114 C 200 118 192 111 195 105 C 187 87 200 105 206 96 C 208 80 206 95 214 88 Z"/>
            <path id="MD-50" fill="#777777" stroke="#231f20" stroke-width="0.4" stroke-linejoin="round" d="M 301 148 C 287 127 282 154 284 136 C 287 135 285 132 285 132 C 289 128 290 127 286 124 C 288 119 281 111 278 107 C 272 108 274 109 276 112 C 276 115 276 116 272 113 C 267 116 262 117 258 116 C 255 112 255 123 251 122 C 245 126 233 125 230 131 C 236 137 237 152 245 143 C 247 147 243 151 249 154 C 250 153 254 149 256 149 C 259 164 271 151 269 157 C 268 156 267 161 267 162 C 268 161 268 159 270 160 C 272 160 273 163 276 161 C 280 162 278 157 280 158 C 285 157 282 161 286 163 C 291 164 288 161 294 160 C 299 160 298 152 301 148 Z"/>
            <path id="MD-49" fill="#777777" stroke="#231f20" stroke-width="0.4" stroke-linejoin="round" d="M 222 173 C 217 172 215 169 211 169 C 203 159 203 178 190 172 C 187 174 181 174 175 173 C 175 178 176 184 170 181 C 161 183 166 194 163 200 C 162 202 164 199 165 200 C 164 201 162 204 165 203 C 167 206 162 204 162 204 C 161 206 162 207 164 207 C 164 210 165 209 166 209 C 166 210 165 212 167 212 L 169 212 L 170 214 C 173 213 174 220 178 219 C 180 218 182 221 182 222 C 192 225 190 206 207 205 C 205 192 205 190 216 186 C 218 185 214 173 218 176 C 220 177 222 174 222 173 Z"/>
            <path id="MD-48" fill="#777777" stroke="#231f20" stroke-width="0.4" stroke-linejoin="round" d="M 427 215 C 420 212 418 209 419 216 C 409 209 417 221 416 225 C 409 216 416 238 405 235 C 391 232 415 218 408 207 C 406 205 400 199 401 205 C 403 212 391 210 394 204 C 395 197 386 198 383 196 C 382 196 385 199 382 198 C 382 198 381 200 384 201 L 377 203 C 378 206 377 205 375 205 L 374 208 C 375 210 371 209 372 211 C 373 216 366 214 365 216 C 359 215 368 232 366 235 C 363 239 370 239 370 236 C 372 235 376 241 376 236 C 378 236 375 232 374 232 C 379 231 377 216 385 227 C 387 229 382 232 385 233 C 380 236 377 239 381 244 C 389 245 387 229 397 235 C 398 240 393 238 395 241 C 398 245 397 249 401 251 C 407 253 401 249 402 245 C 408 245 415 243 417 250 L 418 246 L 420 246 C 419 243 421 235 426 236 C 425 234 429 236 427 235 L 428 235 C 424 235 424 215 427 215 Z"/>
            <path id="MD-47" fill="#777777" stroke="#231f20" stroke-width="0.4" stroke-linejoin="round" d="M 132 120 C 125 114 131 106 119 104 C 122 102 118 97 115 98 C 103 110 104 93 93 99 C 90 101 101 103 98 107 C 92 106 93 113 86 113 C 81 111 71 102 65 113 C 51 118 78 120 78 126 C 77 141 56 114 62 129 C 61 132 54 142 60 142 C 63 145 61 140 63 141 C 64 146 66 142 67 139 C 71 143 69 139 72 139 C 71 144 80 135 82 137 C 84 142 86 137 90 142 C 96 142 91 142 94 145 C 99 146 92 138 99 141 C 98 149 101 144 106 146 C 95 152 110 152 111 146 C 110 142 118 137 112 131 C 104 124 119 118 119 126 C 126 127 126 123 132 120 Z"/>
            <path id="MD-46" fill="#777777" stroke="#231f20" stroke-width="0.4" stroke-linejoin="round" d="M 170 139 C 169 133 163 128 163 122 C 167 123 163 117 160 117 C 151 120 118 99 131 121 C 125 123 126 128 119 126 C 118 119 106 122 111 130 C 119 136 110 142 111 147 C 110 150 116 148 114 155 C 117 157 122 158 123 162 C 129 158 122 171 128 163 L 130 164 C 127 170 134 164 135 166 C 133 173 141 174 144 168 C 144 166 141 166 143 163 C 145 160 142 160 143 158 C 146 153 150 153 155 155 C 160 153 164 146 170 139 Z"/>
            <path id="MD-45" fill="#777777" stroke="#231f20" stroke-width="0.4" stroke-linejoin="round" d="M 427 183 C 422 178 425 165 416 174 C 413 172 410 159 407 164 C 400 178 402 157 397 170 C 396 173 394 167 393 168 C 392 175 391 169 388 169 C 384 170 385 180 381 181 C 386 186 375 179 379 184 C 381 188 375 188 379 191 C 382 187 383 201 390 198 C 396 199 394 205 394 209 C 396 205 398 214 400 208 C 404 207 398 200 404 203 C 417 210 400 222 404 230 C 411 232 412 232 413 225 C 411 221 415 221 416 225 C 419 221 410 217 414 215 C 420 214 420 217 418 212 C 422 212 418 211 418 210 C 420 209 416 209 418 208 C 422 208 420 201 417 200 C 415 197 418 196 420 195 C 423 189 426 189 427 183 Z"/>
            <path id="MD-44" fill="#777777" stroke="#231f20" stroke-width="0.4" stroke-linejoin="round" d="M 332 219 C 331 217 329 216 328 217 C 327 216 329 217 330 216 C 332 216 328 215 329 214 C 331 213 330 217 332 214 L 328 210 C 331 218 320 208 320 204 C 317 199 310 205 316 207 C 316 210 308 207 306 208 C 302 213 291 211 283 213 C 284 216 289 222 287 226 C 286 224 284 227 284 229 L 284 231 C 278 234 281 234 281 240 C 287 244 283 237 287 239 C 287 242 285 243 281 243 C 281 251 280 243 279 248 C 279 252 284 249 285 253 C 288 253 289 252 289 255 C 291 255 295 254 298 256 C 300 256 301 253 304 254 C 308 252 307 260 310 257 C 312 254 316 255 316 251 C 320 251 318 252 320 250 C 322 249 324 250 324 247 C 329 243 323 247 325 243 C 325 241 326 244 326 243 L 326 242 C 327 240 331 243 330 241 C 332 241 325 235 330 235 C 330 234 323 231 325 230 C 323 229 322 232 321 230 C 320 229 321 228 322 229 C 322 229 322 227 323 228 C 324 229 324 228 324 227 L 324 228 C 322 225 331 226 324 223 C 320 221 328 223 328 221 C 324 218 332 221 332 219 Z"/>
            <path id="MD-43" fill="#777777" stroke="#231f20" stroke-width="0.4" stroke-linejoin="round" d="M 488 283 C 484 279 493 282 484 275 C 485 269 477 254 478 262 C 473 263 473 259 471 264 C 469 263 466 257 462 263 C 459 261 459 263 460 265 C 457 266 448 267 452 269 C 448 271 444 271 450 274 C 438 282 451 284 453 293 C 456 296 445 302 452 313 C 456 314 469 318 463 328 C 467 331 469 337 466 342 C 475 342 470 333 478 332 C 470 327 477 323 473 318 C 476 312 482 326 486 326 C 479 323 488 315 485 313 C 479 310 478 309 480 304 C 472 302 483 289 485 294 C 486 289 489 285 488 283 Z"/>
            <path id="MD-42" fill="#777777" stroke="#231f20" stroke-width="0.4" stroke-linejoin="round" d="M 573 293 C 568 287 573 295 569 295 C 570 293 566 291 566 293 C 563 291 564 292 564 294 C 562 291 560 301 559 293 C 543 297 558 288 551 291 C 546 291 550 287 546 285 L 544 290 C 544 282 544 291 541 290 C 543 287 539 292 540 288 C 538 289 534 287 535 286 C 534 285 533 283 532 285 C 531 285 529 282 531 283 C 537 283 526 282 529 281 L 530 281 C 525 282 532 278 528 278 C 529 280 527 281 526 279 C 525 279 523 283 524 280 C 525 279 524 279 523 278 C 521 277 523 283 521 278 L 519 279 C 521 278 520 286 516 283 C 506 285 516 280 511 278 C 513 277 516 278 512 277 C 512 276 517 273 513 275 C 513 275 511 274 512 273 C 515 270 511 274 511 273 C 512 268 505 271 507 273 C 505 274 503 273 503 271 C 502 274 498 273 496 274 C 492 274 488 267 484 273 C 482 276 491 278 488 280 C 483 281 492 284 488 285 C 488 287 486 296 482 292 C 481 293 480 297 478 297 C 475 312 495 319 506 322 C 509 333 520 327 521 323 C 519 319 513 313 516 311 C 530 317 512 295 528 306 C 539 318 542 317 550 306 C 560 304 568 301 573 293 Z"/>
            <path id="MD-41" fill="#777777" stroke="#231f20" stroke-width="0.4" stroke-linejoin="round" d="M 427 324 C 423 314 421 305 411 311 C 404 307 404 305 398 306 C 399 302 393 305 389 302 C 387 307 389 300 386 300 C 380 304 386 314 377 310 C 374 312 379 319 381 321 C 377 326 377 327 381 334 C 381 355 400 364 420 353 C 412 349 427 335 426 330 L 425 330 C 426 328 429 326 427 324 Z"/>
            <path id="MD-40" fill="#777777" stroke="#231f20" stroke-width="0.4" stroke-linejoin="round" d="M 473 239 C 476 237 470 233 468 232 C 474 227 469 209 464 206 C 456 209 460 218 453 208 C 451 211 449 205 451 206 C 470 201 440 187 452 180 C 447 171 443 157 434 170 C 436 173 438 178 433 181 C 426 182 428 186 424 189 C 421 188 422 194 419 196 C 419 196 414 198 417 199 C 418 201 423 207 417 208 C 423 218 450 220 442 230 C 451 234 435 239 437 238 C 434 242 452 249 455 236 C 468 241 457 258 473 239 Z"/>
            <path id="MD-39" fill="#777777" stroke="#231f20" stroke-width="0.4" stroke-linejoin="round" d="M 413 456 C 391 439 412 417 401 418 C 392 418 404 436 378 430 C 373 433 355 435 360 440 C 361 442 359 441 359 442 L 360 444 C 361 445 358 445 360 446 C 361 446 362 445 361 447 C 363 448 360 448 361 450 C 361 452 364 452 362 454 C 363 455 367 456 365 458 C 367 458 367 458 366 459 C 367 460 370 462 370 465 C 374 466 371 470 373 472 L 373 473 C 375 474 375 471 376 474 C 376 479 373 475 375 480 C 375 481 378 483 377 484 L 380 487 C 380 488 377 488 379 489 C 384 492 384 485 388 485 C 394 484 397 486 403 487 C 404 488 408 483 405 481 C 400 477 410 478 406 473 C 406 466 404 461 413 456 Z"/>
            <path id="MD-38" fill="#777777" stroke="#231f20" stroke-width="0.4" stroke-linejoin="round" d="M 440 380 C 442 363 428 378 420 382 C 409 369 438 370 427 359 C 423 353 418 353 413 358 C 359 350 405 365 390 384 C 394 390 400 386 402 399 C 393 414 400 407 405 421 C 404 429 412 418 413 425 C 417 428 408 431 409 432 C 411 437 417 436 418 432 C 418 430 418 430 419 432 C 424 437 415 424 417 423 C 426 421 416 412 419 407 C 432 405 414 392 422 389 C 425 392 429 386 433 390 C 438 388 440 385 440 380 Z"/>
            <path id="MD-37" fill="#777777" stroke="#231f20" stroke-width="0.4" stroke-linejoin="round" d="M 371 254 C 366 251 362 246 356 243 C 357 240 368 249 367 244 C 369 238 364 240 366 235 C 365 229 368 228 362 226 C 357 231 357 218 352 225 C 353 229 349 222 347 223 C 347 221 345 221 346 220 C 346 220 348 220 346 219 C 335 218 341 213 337 213 L 332 216 C 330 215 330 217 332 219 C 332 221 328 219 327 220 C 331 221 325 223 324 221 C 320 222 329 223 326 225 C 325 225 324 225 325 227 C 324 226 323 227 324 228 C 323 226 324 229 323 228 C 321 227 323 229 321 229 C 321 232 323 230 325 230 C 324 232 328 233 330 235 C 326 236 332 239 330 242 C 331 243 328 240 326 242 C 327 244 325 242 325 243 C 323 247 328 244 324 247 C 325 252 317 248 319 251 C 318 252 315 249 316 254 C 325 254 315 264 321 266 C 322 267 322 269 324 267 C 326 268 323 263 326 266 C 326 267 327 265 328 267 C 328 266 329 265 327 265 L 330 265 C 333 268 330 264 329 262 C 328 263 329 264 328 263 C 327 260 331 265 332 264 C 336 267 338 260 344 264 C 341 264 342 257 345 261 C 347 267 370 270 357 265 C 360 263 355 264 358 260 C 356 264 352 261 348 262 C 350 255 363 262 365 260 C 372 265 369 257 371 254 Z"/>
            <path id="MD-36" fill="#777777" stroke="#231f20" stroke-width="0.4" stroke-linejoin="round" d="M 292 286 C 296 283 289 282 287 284 C 285 282 286 278 282 278 C 282 275 277 277 275 274 C 276 269 271 267 277 265 C 268 257 274 252 280 247 C 283 246 277 243 284 243 C 286 242 288 237 285 239 L 285 241 L 281 240 C 281 233 278 235 284 231 L 284 229 C 284 228 284 226 286 226 C 289 226 285 213 281 212 C 277 210 272 216 270 212 C 263 216 274 219 265 220 C 261 219 264 213 257 216 C 257 217 255 220 253 220 C 251 218 254 218 253 217 C 252 219 248 217 246 218 C 247 224 250 231 243 229 L 243 228 C 242 229 244 230 242 230 C 240 232 237 232 233 234 C 233 237 216 252 221 251 L 221 250 C 223 250 222 253 223 254 C 223 254 224 252 224 254 L 225 254 C 227 257 219 257 224 258 L 225 259 C 225 258 224 256 226 257 C 226 258 226 259 227 257 C 227 254 231 262 231 259 C 230 258 233 258 233 258 C 236 261 233 254 236 260 L 239 259 C 237 257 239 256 240 257 C 242 256 245 260 244 261 C 244 262 248 261 246 262 L 246 264 C 247 267 248 263 248 266 C 249 266 251 264 250 267 C 253 266 252 267 252 270 C 254 267 253 271 254 272 C 257 271 255 272 256 274 C 258 275 259 275 258 277 C 259 278 255 278 257 279 C 259 277 259 280 256 279 L 263 279 C 265 277 267 282 264 279 C 262 283 267 281 268 283 C 267 281 270 281 269 282 L 269 283 C 269 281 273 284 273 285 C 274 287 274 285 275 285 C 276 286 278 287 279 286 C 278 286 283 286 282 287 C 279 287 282 289 283 287 L 283 289 C 284 287 285 289 286 289 C 286 287 288 288 288 289 C 290 290 294 287 292 286 Z"/>
            <path id="MD-35" fill="#777777" stroke="#231f20" stroke-width="0.4" stroke-linejoin="round" d="M 386 169 C 380 164 369 163 365 164 C 363 162 360 156 357 159 C 355 156 352 160 352 157 C 350 159 351 166 345 162 C 348 169 345 165 341 166 C 336 166 340 171 338 172 C 333 169 326 180 324 182 C 318 194 326 193 319 203 C 320 207 330 218 328 210 L 331 213 L 331 215 C 330 213 329 215 331 216 C 328 216 326 217 330 217 L 331 216 C 332 214 332 218 333 216 C 335 215 339 209 340 218 C 341 220 345 217 347 220 C 344 220 347 222 348 223 C 354 229 351 223 356 223 C 359 222 357 226 359 227 C 361 226 365 227 364 225 C 361 213 364 217 371 214 C 373 213 373 212 372 210 C 373 209 375 209 374 207 L 375 205 C 377 205 378 206 377 203 C 378 200 386 204 382 199 C 385 197 382 195 381 189 C 374 193 380 187 379 184 C 377 180 380 184 382 183 C 384 183 380 182 381 181 C 385 180 384 174 386 169 Z"/>
            <path id="MD-34" fill="#777777" stroke="#231f20" stroke-width="0.4" stroke-linejoin="round" d="M 387 299 C 384 297 381 297 385 294 C 383 292 383 292 385 291 C 381 286 370 280 374 288 C 369 289 371 282 368 282 C 367 283 365 281 363 281 C 361 281 361 277 360 279 C 359 284 356 277 355 275 C 354 274 350 275 352 272 C 353 272 347 273 348 270 C 349 265 330 263 338 274 C 339 278 326 272 328 267 L 325 265 C 324 267 326 267 324 267 C 322 270 322 266 321 266 C 316 272 330 279 325 281 C 313 279 322 292 322 299 C 318 300 315 292 316 301 C 313 303 307 297 307 304 C 308 305 305 304 307 305 C 305 305 306 306 306 307 C 306 308 307 306 308 308 L 308 307 C 309 308 309 304 310 308 C 312 309 310 310 309 311 C 310 311 314 312 312 313 L 314 313 L 313 314 C 312 314 314 316 312 315 L 315 319 C 316 317 315 318 316 319 L 317 320 C 318 321 321 320 320 321 C 321 322 323 323 321 321 L 324 323 C 323 323 321 324 323 324 C 324 323 324 324 323 324 L 324 325 C 325 323 325 327 326 326 L 325 328 L 326 328 C 328 328 325 328 327 330 C 329 329 329 329 329 331 L 331 332 L 332 334 C 333 335 335 335 333 336 L 334 336 C 334 333 336 338 337 338 L 336 336 L 339 341 C 341 341 339 344 342 342 C 350 337 345 349 351 345 C 365 341 351 336 353 329 C 357 325 350 325 359 324 C 363 325 368 329 375 324 C 381 327 381 319 376 313 C 373 310 380 310 381 311 C 384 309 381 304 387 299 Z"/>
            <path id="MD-33" fill="#777777" stroke="#231f20" stroke-width="0.4" stroke-linejoin="round" d="M 490 243 C 490 239 484 237 484 242 C 480 240 478 242 474 242 C 475 248 475 258 482 250 C 482 255 482 252 486 251 C 481 243 491 248 490 243 Z M 532 270 C 530 269 524 271 528 273 C 530 272 533 273 532 270 Z M 500 266 L 495 261 C 495 262 497 265 495 265 C 493 263 492 269 495 266 C 497 267 493 269 492 267 C 492 271 494 268 495 270 C 490 271 498 272 493 272 C 491 275 502 274 500 266 Z"/>
            <path id="MD-32" fill="#777777" stroke="#231f20" stroke-width="0.4" stroke-linejoin="round" d="M 472 263 C 470 255 459 234 455 249 C 465 254 457 255 458 259 C 461 264 463 261 467 260 C 468 261 471 266 472 263 Z"/>
            <path id="MD-30" fill="#777777" stroke="#231f20" stroke-width="0.4" stroke-linejoin="round" d="M 282 95 C 278 94 274 93 278 97 C 266 101 261 66 257 91 C 256 92 254 94 252 93 C 251 90 259 66 247 77 C 239 78 237 95 230 79 C 220 88 223 92 217 75 C 209 67 199 86 213 78 C 216 95 209 87 207 90 C 198 114 206 92 223 103 C 242 112 219 121 228 128 C 233 130 249 124 254 120 C 256 112 259 119 262 116 C 267 117 271 112 276 115 C 276 113 277 109 274 110 C 273 107 284 101 282 95 Z"/>
            <path id="MD-20" fill="#777777" stroke="#231f20" stroke-width="0.4" stroke-linejoin="round" d="M 400 232 C 401 233 411 237 411 232 L 403 230 C 402 227 399 231 400 232 Z M 351 258 C 343 260 357 265 358 260 L 351 258 Z M 415 271 C 413 256 397 265 403 260 C 401 252 408 258 399 252 C 398 250 399 249 397 247 C 398 244 395 242 394 240 C 402 234 391 229 385 242 C 382 246 379 243 379 239 C 384 234 389 228 381 223 C 377 221 378 233 375 232 C 375 233 379 236 376 236 C 374 241 366 230 367 246 C 360 242 350 242 362 246 C 368 252 370 253 370 260 C 369 263 378 266 379 265 C 379 266 381 264 380 266 L 381 266 C 381 268 382 266 382 265 C 386 264 387 271 391 268 C 393 268 392 263 394 264 C 397 267 400 267 403 269 C 404 280 412 271 415 271 Z"/>
        </g>
    </g>
</svg>
