<?xml version="1.0" encoding="UTF-8"?>
<!-- Generated by Pixelmator Pro 3.6.10 -->
<svg width="749" height="844" viewBox="0 0 749 844" xmlns="http://www.w3.org/2000/svg">
    <g id="Landen">
        <g id="NEDERLAND">
            <path id="NL-09" fill="#777777" stroke="#231f20" stroke-width="0.4" stroke-linejoin="round" d="M 595 142 C 591 136 593 126 589 121 C 589 119 589 116 591 113 C 594 113 591 105 590 101 L 590 103 L 589 103 L 589 102 L 588 103 L 587 103 L 587 102 L 586 103 L 586 102 L 585 101 C 585 102 583 100 584 103 L 582 101 L 580 101 L 580 100 L 579 101 C 579 100 579 101 579 101 L 579 100 L 578 100 C 577 99 576 99 576 96 C 575 100 576 99 576 96 C 576 96 578 94 576 94 L 572 96 L 569 96 L 559 92 C 559 90 564 95 567 93 C 565 94 563 93 561 92 C 556 89 561 88 556 85 C 555 80 552 74 553 70 L 549 68 C 549 66 548 70 550 69 C 550 71 545 70 548 69 L 546 68 L 548 68 C 549 68 547 67 548 68 L 548 67 L 546 67 C 539 67 532 66 526 71 L 524 72 C 524 73 522 72 523 73 L 522 73 C 522 73 521 73 522 73 L 521 73 L 520 74 C 520 73 520 74 520 74 C 520 73 519 74 520 74 L 508 77 L 500 79 L 497 79 C 498 81 495 81 495 82 C 492 80 487 79 483 81 L 484 81 L 483 80 L 482 80 C 480 79 477 83 474 82 L 465 83 L 463 83 L 460 84 C 459 86 451 88 450 85 C 450 90 441 92 435 96 L 434 97 C 428 100 416 104 417 111 L 418 111 L 420 114 L 423 117 L 423 116 L 424 118 L 425 119 L 427 119 L 427 121 C 427 121 423 121 425 122 L 424 124 L 424 125 L 426 125 L 426 126 L 427 126 C 427 126 427 127 427 126 L 430 126 L 431 125 L 432 125 C 432 126 432 127 433 126 L 433 128 L 434 128 L 433 129 L 434 130 L 433 130 L 433 133 L 434 133 L 435 135 C 435 135 434 135 435 135 L 437 135 L 437 137 C 439 137 437 137 438 138 L 439 139 L 439 141 C 438 141 437 142 438 143 L 440 145 L 442 145 C 444 150 447 140 450 140 L 452 140 L 453 139 L 454 139 L 454 138 L 455 137 L 456 137 L 456 136 L 458 137 C 459 138 461 135 459 139 L 459 140 L 460 141 C 459 141 460 143 461 142 L 461 144 L 471 144 C 470 145 472 146 473 146 C 476 146 479 143 481 143 C 481 141 483 145 483 145 C 484 147 486 150 487 147 L 488 145 L 489 145 L 496 141 C 496 141 496 139 498 139 C 502 136 506 138 505 143 C 505 149 515 153 511 158 C 511 162 506 164 505 166 C 507 167 508 169 507 171 C 508 173 508 171 508 170 C 510 168 513 171 514 172 C 515 174 513 177 517 176 L 518 176 L 516 183 C 518 186 524 184 522 189 L 523 189 L 523 190 C 524 189 529 188 528 190 C 532 185 532 189 535 185 C 537 184 537 188 539 183 L 541 183 L 542 181 L 542 178 C 543 177 545 176 543 174 C 546 174 546 172 544 171 L 547 166 C 549 173 552 164 553 168 C 556 167 557 163 560 162 C 561 161 562 166 563 167 C 563 171 565 167 567 166 L 574 158 L 577 161 C 579 162 573 168 577 167 C 578 166 578 168 579 168 C 580 169 581 172 582 171 C 582 179 594 147 595 142 C 594 142 595 142 595 142 Z M 451 124 C 449 125 449 124 449 123 L 448 123 C 451 125 443 128 443 126 L 444 125 L 445 125 L 445 124 L 446 124 L 446 123 L 438 123 L 438 121 C 439 120 436 118 438 118 L 438 117 C 436 118 437 115 437 115 C 436 114 438 114 438 113 C 440 113 441 114 441 115 C 443 115 445 115 445 117 C 447 117 447 115 449 116 C 449 114 450 114 451 114 C 453 113 452 115 453 115 L 454 115 C 452 115 454 117 455 116 L 455 117 L 450 119 L 450 121 L 451 124 Z M 475 72 C 477 77 478 71 478 70 L 479 71 L 483 70 C 481 69 487 69 484 68 C 486 70 485 67 483 67 L 484 67 L 486 69 L 485 67 C 486 67 485 67 485 67 L 486 67 C 486 68 486 69 488 68 C 488 68 487 68 488 68 L 489 68 L 488 68 L 489 67 L 489 66 C 489 64 489 68 490 67 L 490 66 L 489 65 L 490 66 C 491 66 494 66 491 65 L 494 64 L 495 64 C 508 60 478 63 476 66 C 478 63 474 71 475 72 Z M 422 78 C 424 83 429 83 433 79 C 433 77 439 78 439 79 L 451 75 C 472 69 434 76 429 75 C 425 74 429 74 430 74 C 427 73 423 74 422 78 Z"/>
            <path id="NL-08" fill="#777777" stroke="#231f20" stroke-width="0.4" stroke-linejoin="round" d="M 381 98 C 378 98 382 96 382 96 C 382 94 385 95 386 93 C 390 94 391 91 393 92 C 396 91 398 87 402 87 C 404 87 410 86 408 85 L 406 85 C 406 86 406 85 406 85 C 407 85 405 85 406 85 L 405 84 C 406 84 404 83 405 84 L 405 83 L 406 84 L 407 85 L 408 84 L 407 84 L 407 83 C 408 84 409 85 410 83 C 409 82 409 82 410 83 L 412 82 C 411 82 411 82 412 82 C 412 81 411 81 412 82 C 412 82 415 82 414 81 C 422 77 386 84 378 92 C 374 95 375 100 381 98 Z M 522 242 C 523 240 520 241 520 239 C 520 237 519 239 518 239 C 516 235 514 234 513 240 L 511 240 C 510 242 510 243 507 243 C 509 249 498 243 494 244 L 492 244 L 491 243 L 493 242 C 493 242 495 242 494 241 L 495 239 L 494 239 C 494 238 491 236 492 235 C 494 235 493 233 493 231 C 496 227 494 221 488 224 L 486 225 L 486 223 C 484 221 483 221 483 218 C 481 217 483 215 483 212 C 486 209 483 211 481 211 C 484 205 476 209 474 208 C 472 205 482 205 481 202 L 482 202 L 482 201 C 483 200 481 197 483 196 C 484 193 488 194 489 191 C 491 189 488 188 490 187 C 495 186 504 178 493 179 L 494 175 L 497 169 C 498 168 499 173 500 170 L 503 171 C 505 171 507 173 508 169 C 507 169 504 166 505 165 C 509 163 511 160 512 156 C 513 152 505 148 505 143 C 506 138 502 136 498 139 C 496 139 496 141 496 141 L 489 145 L 488 145 L 487 147 C 486 150 484 147 483 145 C 483 145 481 141 481 143 C 479 143 476 146 473 146 C 472 146 470 145 471 144 L 461 144 L 461 142 C 460 143 459 141 460 141 L 459 140 L 459 139 C 461 135 459 138 458 137 L 456 136 L 455 137 L 454 138 L 454 139 L 453 139 L 452 140 L 450 140 C 447 140 444 150 442 145 L 440 145 L 438 143 C 437 142 438 141 439 141 L 439 139 L 438 138 C 437 137 439 137 437 137 L 437 135 L 435 135 L 434 133 L 433 133 L 433 129 L 434 128 L 433 128 L 433 126 C 432 127 432 126 432 125 L 431 125 L 430 126 L 427 126 C 427 127 427 126 427 126 L 426 126 L 426 125 L 424 125 L 424 124 L 425 122 C 423 121 426 121 427 121 L 427 119 L 425 119 L 424 118 L 423 116 L 423 117 L 420 114 L 418 111 L 417 111 C 412 111 405 122 404 127 L 406 124 L 404 126 L 404 127 L 405 128 L 404 127 C 407 132 402 141 398 144 L 397 145 C 397 144 397 143 397 145 C 396 146 396 143 396 144 L 384 155 C 377 161 383 156 385 155 C 386 153 397 143 398 145 C 401 140 402 142 405 148 L 404 148 C 404 147 404 148 404 148 L 404 149 L 403 148 C 403 148 403 149 403 148 L 402 148 L 402 150 L 403 150 C 403 151 404 153 404 151 L 405 151 L 404 152 L 405 153 L 405 156 L 404 157 L 405 157 L 405 158 L 406 162 L 407 163 C 407 163 407 164 407 163 C 408 163 406 162 407 163 L 406 164 L 407 165 C 406 164 406 166 406 166 C 404 167 406 168 406 170 C 407 173 405 173 403 175 L 401 177 L 402 177 C 401 178 406 182 409 183 L 412 183 L 412 182 L 422 185 C 426 186 425 181 428 182 L 432 180 C 432 180 434 181 433 182 C 435 183 435 182 435 181 C 435 184 438 181 438 183 L 438 182 L 439 183 L 439 182 L 439 183 L 440 183 C 429 185 426 204 429 215 C 428 215 429 215 429 215 L 430 215 C 430 216 437 221 434 223 L 423 229 L 422 230 C 424 232 418 235 415 235 L 415 237 L 414 238 L 415 237 L 415 238 L 414 239 L 413 239 C 415 232 418 228 410 221 L 411 220 L 410 220 C 408 217 399 209 397 212 L 396 213 C 397 214 399 211 398 212 L 396 213 L 397 212 C 407 211 420 229 412 239 C 413 242 412 238 413 239 C 414 238 414 242 414 241 C 410 246 402 250 396 256 C 401 261 408 263 413 256 C 416 250 421 262 426 263 C 428 262 429 258 431 258 C 437 257 433 262 434 265 L 436 263 L 446 256 L 447 256 C 447 257 448 257 447 256 C 448 257 450 254 451 253 L 454 251 C 453 251 454 247 455 249 L 456 250 L 455 250 L 456 250 L 455 252 L 447 259 L 447 260 L 447 259 L 446 260 L 445 261 C 443 261 444 263 443 263 L 441 263 L 444 267 L 444 269 L 445 270 L 445 272 L 449 273 L 449 278 C 450 279 451 280 449 281 L 458 281 C 461 281 461 285 464 282 C 467 279 473 281 474 278 C 477 275 474 281 477 279 L 480 279 L 481 280 L 481 279 L 480 276 L 481 272 C 480 269 485 267 483 271 C 485 271 485 272 485 274 L 488 274 C 492 273 495 272 497 270 C 499 267 507 278 513 269 C 513 267 509 264 511 260 C 514 256 517 260 517 251 C 514 248 520 249 521 246 L 521 244 C 520 244 521 244 521 244 L 522 243 C 521 243 521 242 522 243 L 522 242 Z M 454 229 C 448 225 440 229 435 224 C 435 221 443 222 446 222 C 451 221 468 220 470 213 L 472 213 L 474 215 L 476 217 C 474 215 473 216 471 218 L 471 219 C 471 218 471 219 471 219 L 471 218 L 470 219 C 468 218 467 219 468 221 C 468 218 467 219 466 220 L 463 220 L 462 221 C 462 221 462 220 462 221 L 462 220 L 459 220 L 459 221 L 458 221 L 455 222 C 456 222 455 222 455 222 L 455 226 C 456 227 459 226 456 227 L 454 227 C 456 227 456 230 457 231 L 458 232 L 458 233 L 454 229 Z M 459 238 L 457 245 C 458 245 455 250 455 247 C 457 245 454 248 456 249 C 456 249 457 250 456 249 C 453 247 459 242 458 238 L 458 234 C 458 234 459 234 458 234 L 459 234 L 459 238 Z M 437 114 L 437 115 C 437 116 437 118 438 117 L 438 118 C 436 118 439 120 438 121 L 438 123 L 441 122 C 442 123 447 122 446 123 L 446 124 L 445 124 L 445 125 L 444 125 C 441 128 447 126 449 125 L 448 123 C 449 123 449 122 449 124 L 451 124 L 450 121 L 450 119 L 455 117 L 455 116 C 454 117 452 115 454 115 L 453 115 C 452 115 453 113 451 114 C 450 114 449 114 449 116 C 447 115 447 117 445 117 C 445 115 443 115 441 115 C 441 114 440 113 438 113 L 437 114 Z M 447 225 C 447 223 443 223 444 224 L 445 226 C 446 225 447 228 447 225 Z M 370 107 C 361 103 352 118 345 123 C 346 126 349 122 352 123 L 355 118 C 355 117 357 118 355 117 L 357 116 C 356 115 359 116 358 115 L 358 114 C 361 112 366 107 370 108 L 369 107 L 370 107 Z"/>
            <path id="NL-07" fill="#777777" stroke="#231f20" stroke-width="0.4" stroke-linejoin="round" d="M 590 276 C 578 269 596 255 585 249 C 583 247 581 244 581 241 C 578 233 578 240 575 243 C 572 244 565 242 564 240 C 558 241 553 241 548 237 C 547 233 548 229 545 225 L 549 225 C 550 222 551 225 554 223 C 546 218 550 219 548 213 L 547 212 C 550 210 550 208 553 208 L 555 207 L 556 207 L 557 208 L 559 207 C 560 206 562 208 564 206 L 568 207 C 569 210 573 208 575 207 C 577 207 581 210 583 207 L 582 171 C 581 172 580 169 579 168 C 578 168 578 166 577 167 C 573 168 579 162 577 161 L 574 157 C 573 160 570 163 567 166 C 565 167 563 171 563 167 C 562 166 561 160 560 162 C 557 163 556 167 553 168 C 552 164 549 173 547 166 L 544 171 C 546 172 546 174 543 174 C 544 176 543 177 542 178 C 544 181 541 181 541 183 C 541 184 539 182 539 184 C 538 185 537 187 536 185 C 535 186 533 189 532 186 C 526 192 531 187 523 190 L 523 189 L 522 189 C 524 184 518 186 516 183 L 518 176 L 517 176 C 513 177 515 174 514 172 C 513 170 508 168 508 172 C 507 172 508 170 507 171 L 506 172 L 503 171 L 500 170 C 499 172 499 170 498 169 C 497 168 496 171 496 172 L 493 175 C 493 178 492 180 495 179 C 503 180 492 186 491 187 C 487 187 491 189 489 191 C 488 194 485 193 483 195 L 482 197 L 482 202 L 481 202 C 482 205 471 205 474 208 C 476 209 484 206 481 211 C 483 211 486 209 483 212 C 483 215 481 217 483 218 C 483 221 484 221 486 223 L 486 225 L 488 224 C 494 221 496 227 493 232 C 493 233 494 235 492 235 C 491 236 494 238 494 239 L 495 239 L 494 241 C 495 242 493 242 493 242 L 491 243 L 492 244 L 494 244 C 498 243 509 249 507 243 C 510 244 510 241 511 240 L 513 240 C 514 234 517 236 519 239 C 519 237 520 238 520 240 C 521 241 522 240 522 242 C 522 242 522 243 522 242 L 522 243 L 521 244 L 521 246 C 519 249 514 248 518 251 C 517 260 515 256 511 260 C 509 264 514 267 513 269 C 507 278 499 267 497 270 C 495 272 492 273 488 274 L 487 274 L 485 273 L 484 271 L 483 271 C 485 267 480 269 481 272 C 479 275 481 277 481 279 L 481 280 L 480 279 C 478 278 474 281 475 277 C 474 279 472 280 470 279 C 468 280 459 282 463 284 C 464 287 464 287 461 288 L 460 289 L 457 290 C 456 292 460 293 459 293 C 457 292 458 294 455 294 L 457 296 C 454 303 463 299 463 305 C 464 304 458 306 461 308 L 460 309 L 461 310 L 465 310 L 467 311 C 468 309 475 309 473 313 C 476 314 481 314 482 310 C 482 306 485 303 489 302 L 490 302 L 492 301 C 492 301 494 301 493 300 L 495 300 L 497 301 L 498 302 L 498 303 C 500 307 506 308 497 310 C 498 314 488 317 492 320 C 497 318 502 319 507 321 C 509 323 510 323 511 326 C 510 326 509 328 508 327 L 507 327 L 507 328 L 506 329 L 505 328 L 505 327 C 504 327 505 327 505 327 L 504 327 L 504 328 L 505 328 L 504 329 L 496 329 L 498 333 L 499 334 L 500 334 L 501 335 L 500 337 C 500 339 498 341 497 341 L 498 341 C 497 342 498 342 499 343 C 503 345 499 349 508 347 C 510 348 511 345 513 347 C 514 347 513 351 516 350 C 517 350 519 349 520 351 L 521 353 L 523 352 L 525 353 L 525 349 L 524 348 L 523 346 L 526 346 L 527 347 L 529 347 C 530 345 531 350 532 348 C 533 347 536 347 535 346 L 539 343 L 541 343 C 544 340 550 337 554 336 C 557 337 558 341 562 336 C 565 334 566 331 566 327 C 569 327 570 323 568 321 C 564 320 561 316 556 314 C 552 315 552 312 553 309 C 556 308 560 307 558 304 C 560 304 559 302 559 300 C 570 299 570 301 573 291 C 576 286 578 291 581 283 L 581 280 L 582 280 C 584 278 589 280 590 276 Z M 507 171 Z"/>
            <path id="NL-06" fill="#777777" stroke="#231f20" stroke-width="0.4" stroke-linejoin="round" d="M 511 325 L 510 324 C 510 324 511 324 510 324 C 508 324 508 321 507 320 C 504 320 500 318 498 319 L 496 319 C 496 317 490 323 491 317 C 494 315 497 313 498 309 C 506 308 500 306 498 303 L 497 302 L 497 301 L 495 300 L 493 300 C 494 301 492 301 492 301 L 490 302 L 489 302 C 485 303 482 306 482 310 C 481 314 476 314 473 313 C 475 309 468 309 467 311 L 465 310 L 461 310 L 460 309 L 461 308 C 458 306 464 304 463 305 C 463 298 452 303 448 303 C 449 305 446 305 445 305 C 444 307 443 305 442 306 L 435 308 L 432 309 L 432 308 L 431 310 L 430 311 L 431 313 L 431 315 C 433 316 432 319 432 321 C 435 322 431 322 435 323 L 435 327 L 436 329 L 437 330 C 439 330 438 333 440 334 L 440 337 C 441 338 439 338 438 339 C 439 339 441 341 442 340 C 443 338 441 337 445 337 L 444 338 L 443 339 C 442 339 443 340 443 339 L 444 339 L 444 341 L 442 341 C 443 342 442 341 442 341 L 442 342 C 439 342 440 343 440 346 C 437 349 420 346 419 355 C 419 360 409 367 415 367 L 417 363 C 421 359 419 368 429 360 C 430 362 433 362 434 360 L 437 359 C 447 360 453 375 465 370 C 469 368 470 372 471 375 C 475 377 479 375 480 381 C 480 385 480 391 484 386 C 485 385 488 386 486 384 L 487 382 L 487 380 C 487 379 485 377 486 376 C 489 376 487 375 487 375 C 485 372 480 372 478 372 C 476 369 484 368 481 366 L 481 364 L 480 364 L 480 362 L 476 360 C 476 358 477 359 477 359 C 474 356 479 355 481 356 C 483 356 483 354 484 354 L 486 353 L 488 351 C 489 348 501 358 499 349 C 497 349 497 348 496 346 L 492 344 C 493 344 493 342 494 343 C 496 343 498 341 499 343 C 499 342 497 342 498 341 L 497 341 C 498 340 500 339 500 337 L 501 335 L 500 334 L 499 334 L 498 333 L 496 329 L 504 329 L 505 328 L 504 328 L 504 327 L 505 327 C 505 327 504 327 505 327 L 505 328 L 506 329 L 507 328 L 507 327 L 508 327 C 509 328 511 326 511 325 Z M 509 466 C 507 464 504 467 502 469 L 501 470 L 500 470 C 497 469 497 464 497 461 C 500 461 498 459 497 457 C 494 456 496 455 493 457 L 492 457 L 491 456 C 490 457 491 456 491 456 L 489 454 C 490 448 476 447 472 445 C 469 440 468 442 462 444 L 457 446 C 456 446 452 449 452 447 L 452 446 C 449 440 448 431 444 441 L 444 442 C 442 443 447 446 443 447 C 441 447 439 449 438 450 C 434 452 438 455 440 457 L 441 457 C 438 468 450 464 453 470 L 455 471 L 457 470 L 460 470 C 461 469 464 469 465 471 L 466 472 C 463 473 467 473 466 475 C 466 475 466 476 466 475 L 467 474 L 469 474 C 470 475 470 472 471 472 C 474 477 475 476 470 481 L 470 482 C 479 486 465 483 470 487 L 469 491 C 468 492 466 489 466 492 C 465 496 466 496 467 498 L 466 502 L 463 507 C 459 514 471 503 463 514 C 464 520 460 516 460 520 C 459 523 457 523 455 525 L 455 530 L 456 533 C 456 532 456 533 456 533 L 456 534 L 459 535 L 460 535 L 461 536 C 460 538 462 539 462 541 C 461 542 459 545 462 545 L 464 544 L 465 543 C 467 546 467 539 470 539 C 470 542 471 542 472 542 C 474 545 476 543 478 542 L 478 544 L 482 541 L 484 544 L 485 543 C 486 543 486 545 487 543 C 489 543 490 541 492 542 L 492 543 L 496 543 C 498 542 497 542 497 541 L 497 539 L 495 538 L 495 537 L 494 537 L 494 536 L 493 536 C 491 536 492 534 493 533 C 495 536 498 532 497 530 C 495 529 495 526 498 526 L 499 525 L 500 525 L 501 526 C 502 527 502 525 502 524 L 503 522 L 503 520 L 502 520 L 502 518 L 503 514 L 503 513 L 501 513 C 500 513 499 514 499 512 C 497 512 494 511 494 508 C 492 506 499 501 490 503 C 488 505 487 501 484 504 C 480 507 481 505 482 502 C 482 499 479 499 478 497 L 478 494 L 477 492 C 486 487 480 491 486 494 C 488 494 486 494 487 493 C 489 492 487 490 488 489 L 492 484 C 493 484 495 484 495 482 C 497 481 496 479 498 479 L 499 478 L 500 478 L 500 477 L 501 476 L 502 476 L 503 475 L 504 474 L 505 474 L 506 473 L 508 473 C 512 469 500 471 509 466 Z M 469 474 Z"/>
            <path id="NL-05" fill="#777777" stroke="#231f20" stroke-width="0.4" stroke-linejoin="round" d="M 512 436 C 509 428 510 424 510 415 L 510 414 C 509 408 505 406 502 401 C 499 398 494 396 494 391 C 496 391 495 387 497 386 L 495 385 L 492 384 C 490 385 487 382 486 384 C 488 386 485 385 484 386 C 483 387 482 390 481 388 C 480 380 479 376 471 375 C 471 368 465 369 460 371 C 450 371 445 358 436 359 C 432 359 434 365 428 360 C 422 367 421 360 417 363 L 415 367 C 407 359 402 365 390 364 C 388 365 386 362 383 363 C 380 364 378 365 375 364 C 376 365 376 367 378 367 C 380 367 381 369 382 371 C 387 369 385 369 389 372 C 392 392 360 374 368 388 C 369 390 367 390 369 392 L 368 396 L 367 398 L 366 399 C 366 399 368 399 367 400 C 369 403 366 405 363 407 L 362 407 L 363 409 C 363 411 362 413 359 414 L 360 415 L 359 416 L 360 416 L 361 415 C 362 414 364 414 365 416 C 368 418 369 422 366 424 C 365 423 366 424 366 424 L 361 424 L 360 428 C 362 428 361 429 360 428 L 360 429 C 359 430 359 435 361 435 C 361 434 361 434 361 435 L 360 435 L 359 434 L 356 434 L 354 433 L 353 433 L 353 434 L 354 435 L 354 436 L 355 436 L 355 437 L 362 436 L 364 436 L 366 435 L 367 436 L 368 436 C 368 435 368 437 368 436 L 369 437 L 370 438 L 369 439 L 371 438 L 372 438 L 378 430 L 379 429 L 379 427 L 380 424 L 380 423 C 384 420 380 426 387 425 C 393 432 383 438 392 443 C 395 446 393 455 399 450 C 410 448 401 464 414 459 L 417 459 L 417 457 C 421 457 425 460 428 456 C 428 454 432 455 432 452 C 434 451 436 453 438 450 C 439 449 441 447 443 447 C 447 446 442 443 444 442 L 444 441 C 448 431 449 440 452 446 L 452 447 C 452 449 456 446 457 446 L 462 444 C 473 439 467 445 475 446 C 478 447 490 448 489 454 L 491 456 C 491 456 490 457 491 456 L 492 457 C 494 458 494 456 495 456 C 500 462 506 438 512 436 Z M 366 424 Z"/>
            <path id="NL-04" fill="#777777" stroke="#231f20" stroke-width="0.4" stroke-linejoin="round" d="M 445 339 L 443 339 C 443 338 442 340 443 339 L 444 338 L 445 337 C 442 337 443 338 442 340 C 437 340 432 336 427 334 C 422 330 417 337 412 336 C 407 342 402 335 398 336 C 393 345 387 330 382 332 L 382 333 C 378 333 378 341 374 337 C 371 336 371 342 367 340 C 363 341 369 345 366 347 C 364 348 366 350 366 351 C 363 353 366 356 366 359 C 367 361 365 360 365 361 C 370 363 362 365 359 369 C 348 368 347 381 335 387 L 334 387 L 334 390 C 334 388 334 387 332 388 L 333 389 C 334 390 331 389 332 391 L 332 389 C 331 387 329 389 330 391 L 329 389 L 327 390 L 325 390 L 325 391 L 320 391 L 316 389 C 315 389 316 389 316 389 L 315 389 L 312 390 L 314 388 C 313 389 311 391 312 389 C 312 390 311 389 312 389 L 310 390 C 311 389 311 390 310 390 L 311 390 C 312 390 309 393 311 391 L 310 392 C 311 393 310 395 309 395 C 307 396 310 395 309 396 L 308 396 C 305 399 303 397 301 399 L 300 399 L 301 400 L 300 400 L 300 399 L 298 400 C 298 399 295 401 297 401 C 295 401 297 401 296 402 C 296 399 291 402 290 405 C 291 399 297 403 289 398 C 286 398 286 396 288 397 C 290 397 283 396 287 396 L 286 396 C 285 395 289 395 286 395 C 285 394 285 391 284 393 L 280 394 L 278 396 L 274 394 C 267 392 272 392 266 387 L 266 388 L 266 386 L 265 387 L 265 385 L 265 386 C 265 383 258 386 258 385 L 256 384 C 256 382 253 384 252 384 C 251 384 248 386 249 382 L 250 381 C 251 382 249 383 251 382 C 250 379 248 386 243 384 C 222 388 244 400 236 402 L 235 405 L 234 405 C 236 414 226 408 220 412 C 212 418 202 421 214 428 C 217 430 218 434 221 435 L 221 436 C 222 435 223 436 223 437 L 227 437 L 226 437 C 225 437 224 437 225 436 C 225 435 225 437 225 436 L 226 436 L 226 437 C 226 436 227 434 227 437 C 230 439 232 433 234 436 L 234 433 L 235 433 C 235 433 235 434 235 433 L 237 432 L 237 433 C 236 434 239 434 238 435 C 236 434 235 434 235 436 C 237 435 240 439 240 440 C 241 443 243 440 244 441 C 247 441 248 446 251 446 L 254 445 C 256 445 256 443 257 444 C 261 446 262 436 262 434 L 268 432 C 269 434 272 437 271 433 L 271 436 L 274 436 C 275 437 276 440 279 441 L 281 441 C 278 441 283 442 283 442 C 288 445 291 438 293 442 C 298 442 295 448 303 445 C 308 443 306 449 310 448 L 314 448 C 315 447 318 447 317 446 C 316 440 310 440 313 434 C 314 432 311 433 311 432 L 320 428 L 320 427 L 321 427 C 323 427 327 424 329 426 C 328 433 325 437 334 434 L 340 435 C 344 436 341 431 344 430 C 346 430 345 428 346 428 C 346 427 348 427 347 426 L 347 425 L 348 424 L 349 424 C 351 423 351 420 354 420 L 354 421 L 355 421 C 355 421 355 422 355 421 L 356 421 C 356 421 356 422 356 421 L 358 422 L 358 423 C 359 425 359 424 361 424 L 366 424 C 366 424 365 423 366 424 C 369 422 368 418 365 416 C 364 414 362 414 361 415 L 360 416 L 359 416 L 360 415 L 359 414 C 362 413 363 411 363 409 L 362 407 L 363 407 C 366 405 369 403 367 400 C 368 399 366 399 366 399 L 367 398 L 368 396 L 369 392 C 367 390 369 390 368 388 C 364 379 372 381 378 383 C 384 383 394 376 389 371 C 386 370 385 369 383 371 C 381 371 381 368 379 368 L 375 364 C 378 365 381 363 384 363 C 391 366 399 365 406 362 C 424 371 407 348 440 346 C 440 343 439 342 442 342 L 444 341 L 445 339 Z M 255 419 C 253 420 250 416 250 418 L 249 418 L 248 419 L 243 418 L 241 419 L 240 422 L 240 423 C 239 422 239 423 240 423 C 239 422 237 424 238 424 L 237 424 L 239 424 L 237 424 C 238 425 237 425 237 424 L 237 425 L 236 422 C 235 422 234 416 233 420 L 233 418 C 226 414 230 408 231 414 L 235 416 C 236 417 237 414 236 415 C 235 417 237 418 237 420 L 237 419 L 237 422 C 239 420 241 417 243 417 C 244 416 250 419 248 416 C 248 416 248 417 248 416 L 249 417 C 248 416 249 417 249 417 L 250 416 C 252 415 253 419 254 418 L 255 419 Z M 294 435 L 292 434 C 289 433 288 436 286 436 L 284 436 C 279 435 275 428 275 425 C 275 425 276 426 275 425 L 274 424 C 271 422 272 421 270 425 L 270 424 L 271 422 L 270 421 L 270 423 L 270 422 C 269 422 270 423 270 422 L 269 421 C 266 419 263 422 261 419 C 263 418 260 417 258 418 L 255 419 C 252 417 258 416 258 414 L 257 413 C 257 413 257 412 257 413 L 256 411 C 253 406 251 408 247 408 C 247 408 248 408 247 408 L 243 409 L 241 409 L 240 410 L 238 410 C 238 410 239 410 238 410 C 235 409 234 410 235 406 C 237 406 234 407 235 405 L 235 406 L 236 406 C 234 405 237 403 237 405 C 237 404 237 403 238 404 C 239 405 240 403 239 402 L 239 404 C 238 404 236 404 237 403 L 238 402 L 238 400 C 240 400 237 396 240 397 L 247 393 C 242 394 249 389 249 393 L 248 393 L 252 395 C 255 395 257 400 257 402 L 258 402 L 257 403 L 262 402 C 263 405 265 406 270 405 C 272 403 279 401 279 398 C 281 397 277 396 280 395 L 284 394 C 285 394 286 395 285 396 L 286 396 L 283 396 C 285 395 286 397 283 397 L 285 398 L 285 397 C 285 399 291 398 289 401 L 289 400 L 287 400 C 287 400 287 399 287 400 L 285 399 L 284 398 C 282 398 280 398 280 400 C 280 399 279 400 280 400 L 279 400 C 279 400 279 403 280 402 L 281 403 C 282 405 284 405 286 405 L 288 404 L 287 405 C 287 405 288 405 287 405 L 287 406 C 286 405 284 407 281 407 C 279 404 275 405 271 408 L 269 408 L 270 410 C 268 407 265 412 270 412 L 272 414 C 272 416 275 416 276 417 C 276 422 282 420 286 420 C 287 420 290 422 287 422 C 289 423 286 422 287 422 C 292 425 294 428 294 435 Z M 295 433 C 294 431 295 432 295 433 L 294 432 L 295 436 C 293 433 294 427 293 425 L 288 424 C 288 420 293 426 293 420 L 294 418 L 294 419 L 294 418 L 293 422 L 294 423 L 294 424 C 294 423 294 424 294 424 C 294 424 295 425 295 423 L 295 424 L 295 423 C 295 423 295 424 295 423 C 295 423 295 424 295 423 L 297 423 C 294 423 298 425 297 425 L 294 425 L 295 433 Z M 296 450 L 295 450 C 296 450 295 450 295 450 L 295 449 L 295 450 C 295 450 294 450 295 450 L 295 449 L 293 447 C 294 445 289 446 290 448 L 292 449 L 289 449 C 289 446 289 446 287 447 C 287 449 289 450 290 450 L 288 450 C 291 452 287 450 289 452 C 290 453 286 448 284 448 C 282 448 282 450 284 450 L 285 450 C 287 449 284 450 285 451 C 286 452 285 453 286 452 L 286 453 C 287 454 285 453 286 453 L 283 451 C 284 451 284 450 283 451 C 284 450 283 450 282 450 L 282 449 C 282 449 281 450 282 449 C 278 448 274 449 274 444 L 273 443 L 272 442 C 270 442 267 441 267 443 L 266 449 C 262 448 258 453 255 454 C 253 455 252 453 252 453 L 251 453 L 251 454 L 251 453 L 251 454 L 250 454 L 251 455 C 250 453 249 452 247 452 C 244 452 247 454 245 454 L 244 454 C 245 452 244 453 241 453 L 237 449 C 230 449 222 444 222 444 C 221 445 221 444 221 443 L 216 443 C 214 446 207 446 203 449 C 201 450 203 452 203 454 C 206 457 198 460 203 462 C 200 463 204 464 204 465 L 203 466 L 204 467 L 206 469 L 208 469 C 209 472 211 473 215 472 C 220 472 221 471 219 466 C 218 463 219 464 221 465 C 221 462 223 464 223 463 C 224 462 225 464 225 464 L 226 463 C 224 459 230 462 230 463 C 232 464 235 462 236 465 L 244 466 L 246 468 C 247 468 247 466 248 468 C 250 469 248 473 249 475 L 250 476 L 255 476 L 258 474 C 260 473 260 475 259 476 L 259 477 L 260 477 C 262 478 263 476 263 475 L 269 473 L 269 472 C 270 472 273 468 274 470 L 275 470 L 281 467 L 289 461 L 289 460 L 296 450 Z M 209 447 Z"/>
            <path id="NL-03" fill="#777777" stroke="#231f20" stroke-width="0.4" stroke-linejoin="round" d="M 435 258 Z M 464 287 L 463 284 C 460 279 454 282 449 281 C 451 280 450 279 449 279 L 449 273 L 445 272 L 445 270 L 444 269 L 444 267 L 441 263 L 439 266 L 437 266 C 437 266 435 266 437 266 L 436 267 L 434 265 C 436 255 430 257 425 263 C 416 253 414 254 405 263 C 397 266 407 271 410 276 C 399 278 408 282 413 286 C 414 288 420 284 420 285 C 420 285 421 285 420 285 L 420 286 C 420 286 420 285 420 286 C 419 287 416 286 415 288 C 413 289 410 285 411 286 L 411 287 L 410 287 L 410 285 C 410 286 410 286 410 285 L 405 284 L 403 284 L 402 283 C 400 283 398 282 398 284 L 394 293 C 394 292 394 293 394 293 L 394 294 C 395 297 392 299 392 301 L 385 301 C 382 300 373 303 375 299 L 374 298 L 375 298 L 374 296 L 375 295 L 375 294 C 375 294 374 294 375 294 L 375 293 L 376 292 L 375 290 L 374 288 C 374 289 373 290 372 289 C 372 287 372 288 372 289 L 371 293 L 370 293 L 368 294 L 366 288 L 366 289 L 364 290 C 363 289 363 292 363 291 L 362 291 C 361 290 360 291 361 290 L 356 290 L 355 292 L 354 293 L 354 294 L 353 295 L 353 294 L 352 294 L 352 295 C 351 298 352 299 354 302 C 354 303 360 304 355 305 C 357 308 353 308 353 308 C 354 309 353 310 352 310 L 351 310 L 351 312 L 350 313 C 349 314 352 314 352 315 C 354 316 352 321 354 321 C 352 326 344 319 351 331 C 352 333 355 331 356 331 L 357 333 L 354 334 C 352 334 355 336 355 337 C 357 339 360 341 360 344 C 365 346 365 338 370 340 C 371 339 372 335 375 338 C 378 340 379 333 382 333 L 382 332 C 387 330 388 338 393 338 C 399 340 395 332 406 339 C 409 340 410 337 411 336 C 414 336 416 336 418 334 C 425 328 437 344 440 337 L 440 334 C 438 333 439 330 437 330 L 436 328 L 435 327 L 435 323 C 431 322 435 322 432 321 C 432 319 433 315 431 315 L 431 313 L 430 311 L 431 310 L 432 308 L 432 309 L 435 308 L 442 306 C 443 305 444 307 445 305 C 450 306 447 304 449 303 C 456 303 460 299 455 294 L 458 293 L 460 293 C 454 290 461 287 464 287 Z M 420 284 L 423 283 C 424 283 426 283 426 281 L 427 279 L 428 273 C 428 273 428 272 428 273 L 427 272 C 428 272 427 272 427 272 L 428 272 C 425 270 428 265 434 266 L 435 267 C 434 267 435 267 435 267 L 435 268 C 436 268 436 268 435 268 C 435 269 434 267 435 268 L 433 271 L 430 273 L 430 274 C 429 274 429 275 430 274 L 429 275 L 429 274 L 429 277 L 427 282 L 427 283 C 427 283 426 284 427 283 C 426 283 427 283 427 283 C 426 284 423 283 421 285 L 423 284 L 426 284 L 423 284 C 422 284 421 287 420 285 L 421 285 L 420 284 Z M 319 351 L 319 352 L 319 351 Z M 367 363 C 367 361 365 362 365 361 L 366 360 L 364 353 C 362 354 363 355 361 355 L 359 357 L 355 359 L 354 360 L 350 359 L 347 359 L 346 360 C 346 362 343 363 341 362 L 340 362 C 339 365 333 354 336 360 L 335 361 L 333 361 C 332 361 332 364 331 363 L 331 365 L 330 367 L 328 368 C 327 363 321 367 320 364 L 319 362 C 319 362 320 362 319 362 L 318 361 L 319 359 C 321 358 324 359 326 357 L 327 357 L 328 353 C 329 351 324 353 326 351 L 325 350 L 325 352 C 322 349 327 351 327 348 C 325 345 329 346 327 344 L 327 343 L 330 341 L 330 340 C 331 336 329 336 326 338 C 325 339 327 341 328 340 L 326 340 L 326 341 L 325 340 L 323 341 L 322 342 L 321 343 L 319 341 L 317 340 C 316 339 315 340 315 341 L 314 343 L 313 342 C 312 339 311 341 309 342 L 306 343 C 304 343 306 345 304 345 L 303 345 L 301 347 C 300 347 300 342 298 344 L 295 342 L 296 343 L 293 345 C 289 346 293 347 291 347 L 290 347 C 286 346 287 344 285 343 L 282 341 C 283 339 281 339 280 339 C 279 336 277 342 275 340 L 279 342 C 286 345 295 355 301 355 L 304 354 C 304 355 305 353 304 354 L 305 354 L 305 353 L 307 354 L 307 353 L 307 354 L 309 353 L 308 353 L 309 353 C 309 354 309 353 309 353 L 311 353 L 311 351 C 311 352 311 352 311 351 C 311 353 312 351 312 352 C 310 354 312 352 313 352 C 311 353 313 352 313 353 L 313 352 L 313 353 L 316 353 C 315 353 316 354 316 353 L 316 352 C 317 354 318 352 318 352 C 319 350 321 350 322 351 C 322 353 323 353 324 352 C 326 353 322 354 322 353 L 321 351 L 320 351 L 319 352 C 321 353 318 353 318 353 L 318 354 C 320 353 320 354 318 354 L 316 354 C 314 353 312 354 316 355 C 314 354 314 355 316 355 L 314 355 L 315 356 C 317 356 314 357 315 357 L 313 357 C 314 357 314 356 313 357 L 313 356 L 314 355 L 312 355 C 315 354 310 355 313 354 C 312 354 313 354 313 354 L 311 354 L 312 355 L 311 354 C 309 355 311 354 311 355 C 309 354 310 355 311 355 L 310 355 L 312 356 L 311 356 C 310 357 312 357 312 357 L 310 357 L 310 355 L 309 356 C 310 354 303 354 307 356 L 306 356 C 303 358 308 353 304 355 L 304 358 C 304 357 304 356 303 357 C 304 353 300 356 302 359 C 302 361 301 355 300 356 C 299 357 302 361 299 358 C 297 359 299 358 299 357 L 296 358 C 296 360 296 359 296 358 L 295 357 C 297 357 295 356 296 355 L 297 356 C 297 357 298 357 297 356 L 298 356 C 299 356 299 356 298 356 L 292 353 C 291 350 276 341 281 344 C 283 344 295 357 290 352 L 289 352 C 290 352 289 352 289 352 L 288 352 L 288 351 L 287 351 L 287 350 L 286 349 L 285 348 L 284 348 C 284 348 284 347 284 348 C 283 349 283 347 283 347 L 282 346 L 281 346 C 281 346 281 345 281 346 C 281 346 281 344 280 346 C 280 347 281 348 279 347 L 279 344 L 276 343 L 276 347 L 275 347 C 274 349 278 348 278 349 C 274 347 269 353 270 348 C 270 351 280 345 270 347 C 276 347 275 344 270 346 L 269 344 C 269 344 271 346 272 344 L 270 343 L 272 343 C 269 343 273 343 273 344 C 273 344 274 344 273 344 L 274 344 C 277 344 273 340 271 341 C 268 338 266 345 268 346 C 268 348 263 352 266 353 L 267 353 C 267 354 267 353 267 353 C 269 351 272 351 272 353 C 273 353 272 353 272 353 C 266 358 278 363 271 369 L 271 367 L 268 367 C 268 367 267 366 268 367 C 269 367 268 367 268 367 L 268 366 L 264 366 L 265 366 C 265 366 265 365 265 366 L 266 366 L 266 365 L 269 364 C 263 366 249 369 253 377 C 254 380 248 381 252 382 C 251 382 252 381 252 382 L 253 382 C 253 382 254 382 253 382 L 253 380 C 251 383 253 376 254 377 L 256 376 L 256 375 C 258 375 266 370 268 375 C 270 376 271 380 271 380 C 269 380 270 384 271 383 L 271 382 C 271 383 271 382 271 382 L 272 383 C 270 383 272 384 272 385 L 273 385 C 271 385 273 386 273 387 L 274 389 L 274 388 L 278 389 C 281 388 282 389 285 391 C 286 391 284 394 286 392 L 289 393 C 292 394 291 393 291 391 L 292 394 L 294 396 C 296 397 298 398 300 396 C 303 396 308 394 308 391 C 308 391 311 388 311 390 L 311 388 C 312 387 312 388 311 388 C 310 382 315 387 318 385 L 321 386 L 324 388 L 326 387 L 327 387 C 328 387 329 387 330 385 L 331 385 C 331 386 336 383 335 381 C 336 384 334 383 336 384 C 351 375 351 369 367 363 Z"/>
            <path id="NL-02" fill="#777777" stroke="#231f20" stroke-width="0.4" stroke-linejoin="round" d="M 367 346 C 366 340 364 345 360 344 C 360 341 357 339 355 337 C 355 336 352 334 354 334 L 357 333 L 356 331 C 355 331 352 333 351 331 C 344 319 352 326 354 321 C 352 321 354 316 352 315 C 352 314 349 314 350 313 L 351 312 L 351 310 L 352 310 C 353 310 354 309 353 308 C 353 308 357 307 355 305 C 360 304 354 303 353 302 L 352 300 L 350 299 C 349 298 350 295 348 296 C 348 295 347 294 346 295 C 346 297 344 297 343 298 C 341 301 342 293 340 294 C 338 294 338 296 337 296 C 334 296 337 293 338 292 C 337 291 337 293 336 293 C 336 294 336 292 336 293 C 334 291 338 290 338 288 C 341 286 344 279 339 278 L 339 271 C 338 279 343 275 340 272 C 338 271 339 268 336 269 C 335 268 337 268 338 268 C 338 268 337 265 339 265 L 339 263 L 340 263 L 340 262 C 343 258 337 260 335 263 L 335 262 C 334 263 334 261 333 261 L 331 261 L 331 259 L 332 257 L 330 258 C 329 260 330 259 329 258 L 326 258 C 327 260 324 260 322 259 C 317.336182 280.070801 308.121094 299.866211 295 317 C 296 318 292 319 292 319 C 293 320 294 319 293 320 C 294 320 294 319 293 320 C 293 321 294 320 293 320 C 293 320 292 320 293 320 C 292 321 280 334 280 339 L 282 340 C 282 342 284 342 285 343 C 287 344 287 346 290 347 L 291 347 C 293 347 289 346 293 345 L 296 343 L 295 342 L 298 344 C 300 342 300 347 301 347 L 303 345 L 304 345 C 306 345 304 343 306 343 L 309 342 C 311 341 312 340 313 342 C 314 343 315 342 315 341 C 315 340 316 339 317 340 L 319 341 L 321 343 L 322 342 L 323 341 L 325 340 L 326 341 L 326 340 L 328 340 C 327 341 325 339 326 338 C 329 336 331 336 330 340 L 330 341 L 327 343 L 327 344 C 329 346 325 345 327 348 C 327 351 322 349 325 352 L 325 350 L 326 351 C 324 353 329 351 328 353 L 327 357 L 326 357 C 324 359 321 358 319 359 L 318 361 L 319 362 C 320 362 319 362 319 362 L 320 363 C 319 367 327 363 328 368 L 329 367 L 331 365 L 331 364 L 332 362 L 334 361 L 335 361 L 336 360 C 333 354 339 365 340 362 L 341 362 C 343 363 344 362 346 361 L 346 360 L 350 359 L 353 359 C 354 361 354 360 355 359 L 359 357 L 361 355 L 366 351 L 365 348 L 367 346 Z"/>
            <path id="NL-01" fill="#777777" stroke="#231f20" stroke-width="0.4" stroke-linejoin="round" d="M 371 272 L 370 272 C 370 271 369 270 368 271 L 368 270 L 367 271 L 368 271 L 369 272 C 369 273 371 274 371 272 Z M 369 272 L 368 272 L 369 272 Z M 370 268 L 371 268 L 370 268 Z M 376 269 L 377 269 L 376 269 Z M 410 276 C 389 254 419 269 396 256 L 383 266 C 381 268 385 272 383 274 L 384 274 L 385 275 C 385 276 383 275 384 276 L 383 275 C 381 276 377 271 377 275 C 377 275 377 276 377 275 C 377 273 374 275 373 274 L 372 274 C 375 271 370 274 369 273 L 368 272 L 367 271 L 365 270 C 366 270 364 270 365 270 L 367 270 C 366 269 368 269 366 269 L 366 267 L 367 268 L 369 267 L 369 268 C 371 269 370 268 370 266 L 371 266 L 373 262 C 375 260 377 260 377 258 C 379 258 377 255 380 254 C 386 250 378 254 378 248 C 380 253 379 259 374 256 L 373 254 C 375 252 373 253 373 253 L 372 253 C 372 253 371 252 372 253 L 372 252 C 373 252 372 252 372 252 L 375 251 L 375 248 C 377 248 377 244 376 243 C 376 242 374 244 376 243 C 373 239 370 231 369 228 L 369 223 C 370 223 371 221 372 222 L 373 223 L 373 222 C 373 223 373 223 373 222 C 373 222 374 221 373 222 L 374 222 C 374 223 374 221 374 222 L 375 221 L 376 221 C 376 222 376 220 376 221 L 378 222 C 377 223 378 223 379 223 C 381 228 387 220 391 218 C 392 216 391 213 393 212 L 395 212 L 396 211 L 395 213 L 396 212 L 396 210 L 397 210 L 396 210 L 397 210 L 397 209 L 398 209 L 398 208 C 395 208 396 205 395 203 L 393 202 C 395 200 385 200 384 203 L 385 203 C 385 203 384 202 385 203 L 383 203 L 383 204 L 381 204 C 381 202 377 201 378 199 L 377 198 L 377 199 C 377 199 377 198 377 199 C 375 198 377 184 376 184 C 373 182 370 171 368 173 C 368 170 375 164 380 159 L 368 171 C 361 167 356 183 348 178 C 345 177 340 173 343 169 L 342 167 L 342 168 C 342 168 342 169 342 168 L 341 168 C 341 169 341 168 341 168 L 340 168 C 341 168 340 168 340 168 C 341 167 340 168 340 168 L 340 169 C 339 167 341 167 341 167 C 339 165 332 168 334 175 C 335 189 326 204 328 216 C 326 227 326 252 321 254 L 326 253 C 327 253 327 253 326 253 L 326 254 L 325 254 L 326 254 C 325 254 323 254 326 254 L 324 255 C 326 256 325 255 324 255 L 324 256 C 323 255 324 254 322 256 L 322 255 L 322 256 C 321 254 320 257 319 255 C 324 257 320 259 324 260 L 326 260 L 326 258 L 329 258 C 330 259 329 260 330 258 L 332 257 L 331 259 L 331 261 L 333 261 L 334 262 L 335 263 C 337 260 343 258 340 262 L 340 263 L 339 263 L 339 265 C 337 265 338 268 338 268 C 337 268 335 268 336 269 L 338 269 C 338 271 340 271 342 273 C 339 278 339 275 339 271 L 339 278 C 344 279 341 286 338 288 C 338 290 334 291 336 293 C 336 292 336 294 336 293 C 337 293 337 291 338 292 C 337 293 334 296 337 295 C 341 291 341 298 343 299 C 343 297 345 297 346 296 C 347 295 347 294 348 296 C 351 295 348 300 351 299 L 352 301 L 354 302 C 352 299 351 298 352 295 L 352 294 L 353 294 L 353 295 L 354 294 L 354 293 L 355 292 L 356 290 L 361 290 C 360 291 361 290 362 291 L 363 291 C 363 292 363 289 364 290 L 366 289 L 366 288 L 368 294 L 370 293 L 371 293 L 372 289 C 372 288 372 287 372 289 C 373 290 374 289 374 288 L 375 290 L 376 292 L 375 293 L 375 294 C 374 294 375 294 375 294 L 375 295 L 374 296 L 375 298 L 373 298 L 374 298 L 375 299 C 373 303 382 300 385 301 L 392 301 C 392 299 395 296 394 294 L 394 293 C 394 293 394 292 394 293 L 397 286 C 398 283 397 282 401 283 C 405 284 398 281 403 279 C 404 276 408 278 410 276 Z M 403 279 C 402 278 401 281 400 280 L 400 279 C 400 280 400 279 400 279 L 398 279 L 396 278 L 396 277 L 396 278 L 396 277 L 396 278 L 396 277 L 395 278 L 388 279 C 387 280 386 278 386 278 C 386 279 386 278 386 278 L 386 279 L 385 278 L 386 278 L 385 277 C 384 276 385 275 386 275 C 393 273 396 274 403 279 Z M 332 157 C 333 164 334 164 339 161 L 338 161 L 337 159 L 340 160 C 341 160 342 160 341 159 C 341 157 347 155 347 154 C 349 153 353 143 352 136 C 346 128 346 124 340 136 C 336 143 332 149 332 157 Z M 323 255 L 324 255 L 323 255 Z"/>
        </g>
        <g id="LUXEMBURG">
            <path id="LU-00" fill="#777777" stroke="#231f20" stroke-width="0.4" stroke-linejoin="round" d="M 498 761 C 490 760 494 754 488 754 L 494 748 L 494 745 C 494 746 491 746 492 744 C 496 743 494 739 496 737 C 499 738 497 735 497 734 C 497 732 499 732 497 732 C 486 730 499 725 492 722 C 488 724 487 722 488 718 C 485 717 485 709 480 711 C 478 712 479 708 478 707 L 477 704 C 479 702 476 702 479 702 C 479 700 476 701 478 700 C 480 699 476 697 480 697 C 481 699 480 696 481 696 C 481 694 475 695 476 692 C 478 689 480 687 479 684 C 479 681 481 681 483 681 C 482 679 488 679 486 676 C 480 673 487 672 488 669 C 487 668 488 667 489 666 L 487 664 C 491 660 489 653 495 652 C 499 651 498 647 498 644 C 504 641 504 642 508 646 C 512 647 510 640 515 644 C 514 649 516 648 518 651 C 516 655 517 658 517 661 C 516 664 521 671 520 673 C 524 674 522 677 525 680 C 525 679 525 675 526 679 C 527 681 528 679 530 680 C 528 682 532 686 530 687 C 539 696 549 701 562 702 C 565 703 568 701 563 705 C 567 709 560 714 565 717 C 564 718 562 715 564 719 C 555 725 556 738 551 743 C 548 745 556 766 549 762 C 548 763 547 761 546 761 L 544 761 L 544 760 L 543 759 C 543 759 541 759 542 757 C 538 755 536 756 532 757 C 525 756 531 761 525 761 C 526 765 520 763 522 767 L 520 766 C 517 762 516 769 514 769 C 514 766 510 768 508 768 C 511 766 506 767 507 764 C 508 760 502 760 498 761 Z"/>
        </g>
        <g id="BELGIE">
            <path id="BE-09" fill="#777777" stroke="#231f20" stroke-width="0.4" stroke-linejoin="round" d="M 308 483 C 307 480 307 476 305 476 L 304 469 C 304 467 302 467 304 465 C 306 462 297 444 294 454 C 288 465 276 469 269 474 C 266 478 262 473 263 477 C 261 478 257 479 259 476 C 261 472 253 479 251 477 C 246 463 241 469 226 461 C 225 462 227 465 225 464 C 223 463 223 464 221 465 C 215 465 224 473 216 473 C 210 475 208 470 204 468 C 204 469 208 473 205 475 C 200 476 208 480 203 482 C 204 484 210 486 206 491 C 201 500 197 496 207 503 C 208 504 210 504 209 506 C 211 506 213 507 212 508 C 207 508 216 513 212 517 C 209 519 211 520 212 521 C 204 526 216 522 214 525 C 209 525 215 526 214 527 C 208 525 213 530 210 531 L 211 532 C 212 535 214 529 216 532 C 219 537 211 536 216 540 C 218 539 218 540 219 541 L 220 543 C 220 543 222 543 221 544 C 220 545 218 545 220 545 L 221 547 C 224 550 215 553 216 556 C 218 556 220 558 223 556 C 225 555 226 559 225 561 L 233 561 C 236 567 238 553 241 553 C 246 551 241 555 246 554 C 247 553 249 550 248 554 L 251 557 C 254 556 256 559 258 557 L 262 556 C 264 557 263 561 266 560 C 266 560 271 560 270 558 C 269 556 269 557 268 557 C 267 551 271 551 273 553 C 275 553 274 549 276 552 C 277 550 279 551 280 550 C 283 549 284 540 280 541 C 279 540 281 538 281 536 C 282 534 284 535 283 533 L 283 531 C 282 528 286 529 284 525 C 286 522 289 528 291 525 L 291 520 C 289 518 289 517 290 516 L 291 514 C 295 515 297 514 299 511 C 297 510 301 503 298 505 C 295 508 294 504 294 501 C 283 486 310 496 308 483 Z"/>
            <path id="BE-08" fill="#777777" stroke="#231f20" stroke-width="0.4" stroke-linejoin="round" d="M 222 548 L 220 545 C 220 545 222 544 221 543 C 219 543 219 541 218 540 L 216 540 L 214 538 C 216 537 218 531 214 531 C 212 534 211 533 210 532 C 214 527 207 528 214 527 C 214 526 210 525 214 525 C 216 523 211 524 210 524 C 208 522 212 522 213 521 L 211 519 L 213 516 L 213 513 L 210 509 C 209 507 215 509 211 506 C 192 494 202 503 208 487 C 198 477 207 485 204 477 C 201 475 209 475 204 470 C 204 466 201 463 202 460 C 208 444 188 460 184 453 C 186 453 187 455 186 456 C 187 456 186 458 185 456 C 187 459 184 457 184 457 L 184 459 L 183 458 L 183 457 L 182 458 C 185 454 183 457 182 456 L 151 478 C 122 502 107 491 122 528 C 122 531 117 531 121 533 L 122 541 C 120 545 121 542 123 546 C 124 553 129 548 134 550 C 135 554 138 558 141 560 C 142 561 141 565 143 565 C 145 567 146 566 148 566 C 154 569 148 564 148 561 C 148 559 151 559 151 560 C 152 557 152 561 154 559 L 156 558 C 163 555 159 555 159 552 C 173 545 159 558 175 555 C 177 554 176 550 179 553 C 183 550 182 560 186 558 C 193 555 188 558 195 559 C 203 557 199 564 204 565 C 206 566 206 562 208 562 C 210 561 209 559 211 559 C 214 558 212 557 215 557 C 214 555 221 552 222 548 Z"/>
            <path id="BE-07" fill="#777777" stroke="#231f20" stroke-width="0.4" stroke-linejoin="round" d="M 168 555 C 163 549 169 548 158 553 C 163 555 159 557 156 558 C 157 560 155 559 154 560 C 153 561 151 557 152 560 C 151 560 150 558 149 559 C 145 563 154 574 157 568 C 158 558 163 561 168 555 Z M 313 586 C 311 586 310 587 309 584 C 307 581 307 582 304 582 C 304 579 304 576 298 577 C 298 574 299 572 296 571 C 293 570 293 578 288 576 L 286 572 C 288 572 286 569 286 567 L 286 564 L 288 563 L 286 563 C 283 561 280 568 277 565 C 274 567 272 567 269 567 L 267 566 L 266 566 C 265 566 265 563 263 563 C 263 561 265 559 263 558 C 261 555 259 557 258 558 C 255 558 254 556 252 557 C 250 558 250 556 249 556 C 247 554 250 551 247 553 C 240 557 246 548 239 555 C 238 556 235 566 233 561 L 225 561 C 225 552 221 559 216 556 C 215 557 216 556 215 555 L 215 557 C 213 557 213 557 213 559 C 209 559 210 561 208 562 C 204 563 206 567 203 564 C 200 564 202 559 198 558 C 196 560 192 558 189 556 C 188 558 184 557 185 559 C 185 561 188 562 186 563 C 186 565 189 564 188 565 C 187 567 192 564 193 567 L 194 569 L 194 570 C 196 572 190 573 193 576 L 193 578 C 197 583 197 590 197 595 C 198 598 200 599 202 599 C 203 602 206 600 207 602 C 208 605 211 602 213 601 C 217 600 215 599 219 596 C 221 596 226 597 222 600 C 221 603 222 605 224 602 C 230 602 235 600 238 607 C 241 606 242 617 241 620 C 238 625 242 623 241 627 L 244 631 C 246 632 243 632 243 632 C 245 632 245 635 247 635 C 248 634 246 633 246 632 C 246 630 248 635 249 633 L 248 632 C 249 629 248 627 250 626 L 254 626 C 256 626 258 624 257 627 C 260 624 262 626 264 628 L 266 628 L 266 630 C 270 630 274 624 276 627 L 280 625 C 281 622 281 625 283 627 C 286 622 294 635 295 623 C 295 621 299 621 299 624 C 301 625 298 620 304 623 L 302 621 C 303 620 304 619 302 620 C 302 618 306 620 304 619 C 303 617 306 615 303 614 C 303 614 306 613 305 611 C 310 610 311 610 313 607 C 314 604 311 608 310 607 C 311 602 311 599 309 596 C 313 593 312 593 311 589 C 314 589 313 588 313 586 Z"/>
            <path id="BE-06" fill="#777777" stroke="#231f20" stroke-width="0.4" stroke-linejoin="round" d="M 346 609 C 343 609 340 607 342 606 C 340 604 345 602 343 600 L 343 596 C 342 596 338 599 339 597 C 338 591 346 586 333 592 C 332 591 333 589 330 591 L 329 592 C 327 591 330 588 329 587 L 322 586 L 316 587 C 314 589 315 591 312 589 C 308 592 315 591 309 596 C 312 600 307 610 314 606 C 312 610 309 610 305 611 C 306 613 303 614 303 614 C 306 615 303 617 304 619 C 305 620 301 618 303 620 C 302 621 305 623 304 623 C 303 622 299 621 300 623 C 299 626 298 622 298 622 L 296 622 C 293 621 296 624 295 625 C 292 633 287 623 284 626 C 282 627 288 629 287 632 C 290 630 293 634 292 638 C 294 638 294 639 294 640 L 297 640 C 298 638 296 638 295 637 L 297 635 C 298 638 300 637 302 638 C 306 642 299 643 298 647 L 298 648 C 295 648 298 652 296 655 C 299 657 290 662 296 663 C 302 659 302 664 303 668 C 309 671 303 677 299 677 C 298 676 296 681 296 682 C 297 684 297 685 299 685 C 301 688 293 690 299 689 C 301 689 304 691 303 693 L 308 692 L 314 691 C 315 690 316 689 317 690 C 328 694 334 697 327 682 C 326 678 327 675 324 675 L 324 668 C 322 665 326 662 323 660 C 324 657 320 658 320 655 C 325 653 323 651 323 647 L 324 644 L 320 642 C 317 645 317 645 313 642 C 309 641 312 639 313 638 L 314 637 L 315 636 L 318 636 L 320 635 C 319 633 323 635 323 632 C 323 630 323 630 325 631 L 328 630 C 331 632 330 624 335 627 C 335 630 343 627 344 627 C 345 625 343 623 343 621 C 342 619 345 619 344 617 C 345 616 345 616 343 615 C 342 613 344 614 344 613 L 346 609 Z M 505 638 C 505 636 503 638 503 637 L 502 621 C 501 617 497 618 495 616 C 493 614 493 617 491 616 C 485 614 481 614 486 620 C 482 628 484 624 487 626 C 486 627 485 629 483 629 C 482 628 479 629 480 630 C 479 632 480 629 478 629 C 472 629 467 633 473 624 C 471 619 470 626 467 618 C 469 619 468 615 468 616 C 472 612 467 614 464 614 L 464 612 L 459 612 C 460 610 455 610 454 607 L 450 609 C 446 608 445 606 445 603 C 442 604 440 608 439 605 C 438 604 437 605 436 603 C 429 605 439 606 435 609 C 432 611 433 613 433 614 C 433 616 430 618 433 619 C 433 621 429 621 427 624 L 429 624 C 430 621 434 624 433 626 L 433 628 L 432 629 L 430 630 L 428 632 C 426 638 416 635 419 639 C 418 641 414 638 413 642 C 419 641 418 649 421 652 C 426 655 413 653 422 659 L 414 662 C 411 661 409 663 406 663 C 403 662 397 666 399 659 C 397 666 400 668 395 673 C 393 674 391 671 392 675 C 391 676 388 675 390 676 L 394 681 L 394 684 C 397 685 398 681 400 683 C 399 685 403 686 404 686 C 405 688 403 691 406 692 C 407 694 406 693 404 694 L 402 695 C 400 696 401 698 399 698 C 397 700 403 699 398 702 C 397 703 396 701 397 704 C 395 705 393 705 392 708 C 393 711 392 711 391 715 C 394 715 394 717 397 719 C 401 722 404 719 407 723 C 409 725 409 732 412 728 C 416 736 415 730 420 733 C 426 731 427 732 432 736 C 436 739 428 741 431 744 C 431 745 431 746 432 745 C 432 744 435 745 434 744 C 435 740 442 745 444 747 C 448 751 446 755 450 757 L 449 760 L 448 761 C 450 762 450 763 450 764 L 462 758 L 466 762 C 467 758 467 755 470 754 C 473 752 476 757 479 754 C 480 753 480 755 481 755 C 483 755 482 753 482 751 C 484 749 486 753 488 753 C 490 754 492 752 493 750 C 495 748 495 747 494 745 C 488 747 496 743 495 741 C 496 739 495 737 498 737 L 498 732 C 486 730 497 727 493 722 C 491 721 486 724 488 719 L 483 711 L 480 711 C 479 712 479 710 479 709 C 479 707 477 707 478 706 L 477 703 C 479 703 477 701 479 702 C 480 701 476 701 478 700 C 480 700 478 699 478 697 L 481 697 C 483 692 472 697 478 689 L 479 686 C 480 685 478 681 480 682 C 482 681 484 682 483 680 C 484 679 487 679 486 677 C 485 675 482 673 485 671 C 488 671 487 668 489 667 C 488 664 486 663 490 660 C 489 653 496 653 498 650 C 497 638 504 647 505 638 Z"/>
            <path id="BE-05" fill="#777777" stroke="#231f20" stroke-width="0.4" stroke-linejoin="round" d="M 433 614 C 432 605 418 621 420 610 C 417 608 412 610 414 604 C 414 603 410 595 408 597 C 406 600 404 596 405 595 C 402 597 401 593 403 591 C 402 590 401 593 399 592 C 399 585 389 590 392 587 C 395 585 389 581 390 578 C 387 577 383 573 385 570 C 382 568 380 568 379 572 C 378 574 374 571 375 573 C 372 575 361 576 364 579 C 363 578 360 577 359 580 L 359 579 L 358 578 L 357 576 C 354 576 355 578 354 579 C 348 575 348 579 350 584 C 348 586 347 584 345 585 C 345 583 343 584 342 585 C 338 586 342 592 339 594 C 338 599 340 597 342 596 L 343 600 L 342 604 C 340 604 344 607 341 606 C 341 607 343 607 342 608 L 346 609 C 345 613 341 614 345 616 C 345 617 343 617 344 618 C 341 619 344 622 343 623 C 349 630 334 627 331 627 C 330 631 329 630 326 630 L 323 630 C 324 632 322 635 320 633 L 319 635 L 319 636 L 316 636 L 315 637 L 314 638 C 313 638 310 640 311 641 L 317 645 C 318 645 319 641 321 642 C 322 643 325 644 323 645 L 323 650 C 325 653 319 653 320 656 C 323 658 322 660 324 662 C 322 666 325 671 324 674 C 323 676 325 675 325 675 C 326 680 331 689 330 694 L 339 692 C 340 691 341 688 342 689 L 357 683 C 358 683 359 683 358 682 L 358 674 C 359 671 355 673 357 668 C 359 663 365 664 365 658 C 370 656 369 652 373 655 C 375 655 378 654 378 656 C 377 657 381 656 379 658 C 376 659 377 662 377 665 C 379 665 377 667 376 665 C 377 664 375 663 375 664 C 372 665 376 667 374 667 C 375 670 372 669 372 671 L 373 673 L 374 674 C 375 675 372 676 372 677 L 372 683 C 368 686 369 689 374 690 C 377 690 379 694 380 696 C 381 697 379 706 377 704 C 377 707 379 709 380 711 C 380 719 375 718 387 718 C 389 715 391 716 392 712 L 393 706 C 396 705 397 703 397 702 C 402 701 399 700 399 698 C 401 698 400 695 403 695 C 403 693 408 694 406 693 C 403 691 405 688 404 686 C 402 686 400 684 400 683 C 398 682 396 685 394 684 C 393 682 395 681 393 680 C 391 679 392 679 392 678 C 390 676 388 675 391 675 C 391 671 393 675 395 672 C 396 671 399 669 397 667 C 399 666 397 666 398 664 C 398 663 398 657 399 659 C 396 666 408 662 411 662 C 415 663 416 660 421 660 C 425 657 413 657 422 653 L 422 651 L 421 651 C 417 647 419 643 415 642 C 410 640 422 641 418 637 C 422 636 425 637 428 632 L 430 630 C 432 630 432 629 433 628 L 433 626 C 433 625 433 623 431 623 C 429 622 429 624 428 625 C 425 623 432 621 433 620 C 434 617 429 620 433 614 Z"/>
            <path id="BE-04" fill="#777777" stroke="#231f20" stroke-width="0.4" stroke-linejoin="round" d="M 545 612 C 538 606 538 604 540 595 C 542 590 532 591 537 586 C 531 584 527 584 522 585 C 522 582 520 582 519 580 C 520 579 520 579 518 578 C 512 573 538 562 519 562 C 515 564 518 565 515 560 C 519 560 514 558 514 556 C 510 554 510 546 505 548 C 501 547 499 548 499 546 C 501 542 495 543 492 543 C 491 540 487 544 486 544 C 485 542 481 544 485 545 C 486 547 483 551 482 551 C 475 549 477 554 472 546 C 470 544 468 547 467 545 L 465 546 C 456 546 463 544 461 537 C 462 535 460 534 460 536 L 456 537 C 456 540 453 540 452 541 C 451 541 453 542 451 542 L 449 543 C 448 542 448 543 447 544 C 445 544 445 547 443 545 L 443 548 C 440 550 438 553 437 550 C 435 549 437 553 433 552 L 431 553 L 430 551 L 428 550 C 427 546 419 551 419 554 C 418 555 418 553 418 553 C 416 553 415 552 414 554 C 412 557 412 551 411 555 C 410 553 407 555 406 555 L 404 555 C 403 556 405 556 405 557 C 403 561 400 557 398 557 C 397 556 397 557 396 558 C 395 558 393 558 393 556 C 389 556 392 551 388 550 C 386 550 388 554 385 555 C 386 559 388 557 386 562 C 386 568 383 573 387 577 C 391 579 394 586 391 588 C 399 587 396 590 400 592 C 401 593 402 591 403 591 C 404 591 400 595 404 595 C 406 593 403 597 406 598 C 411 593 411 601 414 603 L 414 604 C 415 605 412 606 413 607 C 415 610 418 609 420 610 C 420 621 426 609 429 612 L 433 612 C 432 610 436 609 436 607 C 433 606 432 602 436 604 L 439 605 C 440 609 442 604 445 603 C 445 606 449 611 452 608 C 455 607 458 612 460 612 C 464 613 463 612 464 614 C 465 614 471 612 469 615 C 466 615 470 618 467 618 L 470 623 L 472 622 L 472 623 L 470 629 C 472 632 474 627 476 629 L 479 629 C 479 629 480 632 480 630 C 480 628 482 629 483 629 L 487 626 C 485 625 482 627 484 624 C 488 619 482 619 484 614 C 487 615 491 617 493 615 C 502 618 503 622 502 632 C 503 634 502 639 505 637 C 506 639 503 645 508 646 C 510 647 512 645 511 643 C 514 642 517 645 515 647 C 514 652 523 646 518 646 C 517 642 519 642 523 640 L 523 636 C 519 633 521 632 524 630 C 529 621 532 630 534 615 C 537 614 538 616 541 617 C 539 615 546 615 545 612 Z"/>
            <path id="BE-03" fill="#777777" stroke="#231f20" stroke-width="0.4" stroke-linejoin="round" d="M 460 536 L 457 534 L 455 533 L 455 525 C 460 523 462 516 466 511 C 467 507 460 512 462 508 C 470 503 462 492 469 491 C 467 486 476 484 470 483 C 470 477 477 479 472 473 C 470 472 468 475 466 476 C 466 473 463 473 466 472 C 463 467 459 471 455 471 C 452 468 439 467 441 459 C 441 457 438 456 437 454 C 432 447 428 459 424 459 C 419 456 418 459 414 459 C 394 459 409 470 410 480 C 407 483 407 482 404 482 C 404 486 399 485 397 486 C 395 486 393 491 391 492 L 386 494 C 382 494 382 498 380 501 C 379 499 377 501 374 501 C 372 501 372 503 371 504 L 366 505 C 358 509 364 496 351 507 L 350 508 C 352 505 349 507 348 505 L 339 508 L 338 511 C 336 512 337 510 336 510 L 335 510 L 335 509 L 334 510 C 333 508 333 510 332 510 C 326 517 335 514 336 517 C 337 516 341 516 341 518 C 342 522 338 519 338 523 L 332 526 C 334 527 332 526 332 527 C 329 529 331 530 333 533 L 333 537 C 332 540 329 537 331 539 L 330 540 L 328 540 C 330 542 322 540 324 543 L 325 545 C 330 546 326 546 325 548 C 325 549 327 547 328 549 C 328 551 331 549 331 552 C 330 550 329 556 330 555 L 331 556 L 333 557 C 335 557 332 555 334 555 C 335 555 336 553 337 554 L 338 553 C 339 554 339 552 339 552 L 340 551 C 342 550 340 555 342 554 L 345 554 L 347 552 L 346 550 L 345 548 L 345 544 L 350 545 C 351 545 351 547 353 544 C 353 544 353 546 354 545 C 355 544 354 542 356 543 C 357 541 363 543 364 547 C 366 547 367 546 366 549 L 371 548 C 372 550 373 548 373 547 C 374 547 374 549 375 548 L 375 551 C 379 554 380 548 383 548 C 385 545 387 551 390 552 C 390 553 390 556 393 556 C 394 559 398 555 400 558 C 401 559 406 559 405 556 L 404 555 L 405 554 L 406 555 C 407 555 409 553 410 555 C 412 551 411 555 414 555 L 416 552 L 418 553 L 419 554 C 419 552 427 546 428 550 C 429 551 430 553 432 553 L 435 552 C 436 550 436 548 438 552 L 443 548 L 442 546 C 443 545 445 547 446 544 C 449 544 446 542 450 543 L 452 542 C 451 541 452 540 453 541 C 456 539 456 535 460 536 Z M 485 547 C 480 536 477 549 469 540 C 467 541 467 546 464 543 L 462 545 C 460 545 459 544 461 546 L 465 546 C 465 545 466 544 467 545 C 468 547 470 543 473 547 C 474 553 484 552 485 547 Z"/>
            <path id="BE-02" fill="#777777" stroke="#231f20" stroke-width="0.4" stroke-linejoin="round" d="M 410 480 C 410 475 408 472 405 469 C 401 464 409 456 404 452 C 383 457 394 419 380 425 C 380 430 370 441 370 439 L 368 436 L 362 436 C 360 436 356 438 354 437 L 353 435 L 355 433 L 357 434 L 359 435 L 361 435 C 357 435 361 427 360 428 C 360 426 361 425 358 424 C 358 422 356 422 354 422 C 350 418 343 435 341 435 C 313 441 343 414 312 434 C 313 433 313 436 313 436 C 309 440 324 447 312 449 C 283 438 308 456 303 467 L 305 473 C 306 474 304 475 306 476 C 319 494 284 486 294 503 C 292 505 297 507 297 505 C 300 503 298 508 304 504 C 306 504 309 507 311 506 C 311 508 310 508 312 508 L 314 505 C 316 507 311 508 316 509 C 316 513 320 511 322 509 C 324 510 324 512 326 512 C 328 504 329 514 333 509 C 334 508 334 511 334 510 L 336 510 L 337 511 L 338 511 L 339 510 C 339 507 340 508 342 507 C 352 500 350 513 351 507 C 355 505 359 500 362 505 C 362 507 362 506 364 506 L 371 504 C 372 503 373 501 375 501 L 378 500 L 380 501 C 381 498 383 497 383 494 L 386 494 L 391 492 C 393 491 395 486 397 486 C 400 485 404 486 404 482 C 407 483 408 482 410 480 Z"/>
            <path id="BE-01" fill="#777777" stroke="#231f20" stroke-width="0.4" stroke-linejoin="round" d="M 387 550 C 383 540 377 560 374 548 C 373 547 374 548 373 549 L 370 549 C 363 549 370 547 364 547 C 362 541 356 542 354 543 C 355 544 353 547 353 544 C 352 547 351 545 350 545 L 348 545 C 347 545 345 543 346 545 C 347 547 344 548 346 550 L 346 551 L 347 552 L 345 554 L 342 554 C 340 555 342 550 340 551 L 339 552 L 337 554 C 336 553 335 555 333 555 C 334 556 334 558 331 557 L 331 556 C 330 556 331 554 330 555 L 330 552 C 331 551 332 552 331 551 C 330 549 328 551 328 549 C 327 547 325 549 325 548 C 331 545 323 545 325 543 C 322 543 327 541 328 541 L 330 539 L 331 539 C 331 539 329 537 331 538 C 335 539 331 534 333 533 C 331 531 329 529 332 527 C 332 527 334 527 332 526 C 334 524 336 524 339 523 C 337 521 340 521 341 520 C 342 518 339 514 337 517 L 335 516 C 336 515 332 516 331 515 C 331 513 327 505 327 511 C 326 513 324 511 323 509 L 319 511 C 315 512 317 508 314 508 L 314 506 C 313 506 311 509 311 507 C 312 506 309 507 308 506 C 307 504 304 504 302 504 L 300 505 C 298 505 300 509 297 509 C 301 512 295 516 292 514 C 290 513 291 515 290 516 C 289 517 290 519 291 520 L 291 525 C 287 526 288 525 284 524 C 282 526 286 528 284 529 C 281 530 285 532 283 533 C 284 535 282 534 282 535 C 282 538 279 540 280 541 C 284 540 283 546 281 549 C 281 550 279 549 279 551 C 278 551 277 550 277 552 C 273 549 275 557 271 551 C 263 555 274 559 269 560 L 264 559 C 262 563 265 563 266 566 L 268 566 C 270 567 274 568 277 565 C 278 567 280 564 281 564 C 283 568 281 559 288 563 C 285 563 287 565 286 567 L 286 572 C 286 573 288 577 289 575 C 292 578 293 572 295 570 C 297 570 299 573 298 575 C 299 579 305 575 304 581 L 305 582 C 307 581 309 585 310 586 C 313 585 314 585 313 589 C 312 589 314 591 314 589 C 315 589 315 587 316 588 C 316 587 316 586 317 587 C 318 588 322 585 323 587 C 325 587 330 586 329 588 L 329 592 C 329 590 333 589 333 592 C 335 593 337 590 340 589 C 340 586 341 584 345 584 L 350 584 C 349 580 347 575 354 579 C 356 579 354 577 356 576 C 359 576 358 578 359 579 C 359 581 362 575 364 579 C 362 575 380 573 382 569 C 385 570 386 566 385 562 C 385 560 389 559 386 557 C 385 557 384 555 385 554 C 387 554 387 553 387 550 Z"/>
        </g>
    </g>
</svg>
