<?xml version="1.0" encoding="UTF-8"?>
<!-- Generated by Pixelmator Pro 3.6.10 -->
<svg width="747" height="580" viewBox="0 0 747 580" xmlns="http://www.w3.org/2000/svg">
    <g id="Landen">
        <g id="SLOWAKIJE">
            <path id="SK-99" fill="#777777" stroke="#231f20" stroke-width="0.4" stroke-linejoin="round" d="M 381 349 C 380 349 379 347 378 348 C 376 349 375 351 373 347 C 373 344 370 344 369 343 L 366 339 C 365 338 363 342 363 340 C 362 339 364 335 362 337 L 358 335 L 357 333 C 356 332 355 338 353 336 C 350 335 358 338 356 341 C 348 349 361 353 354 354 C 346 354 346 352 344 347 C 343 346 341 343 340 344 C 340 345 341 346 339 347 L 338 349 L 339 351 L 339 355 C 341 355 341 358 342 359 L 344 360 L 343 363 L 341 364 C 340 364 341 368 340 366 C 336 363 342 373 334 368 C 333 368 334 371 332 372 C 331 373 327 369 327 372 C 326 374 326 375 329 376 C 327 378 330 378 328 378 L 328 382 C 329 384 331 385 330 388 L 327 394 C 325 396 328 399 329 398 C 330 399 333 400 335 397 C 339 395 348 396 354 394 C 355 389 364 385 367 386 C 368 382 370 388 372 384 C 374 385 373 381 376 381 C 376 381 377 385 378 383 C 378 381 381 379 380 377 L 379 373 C 381 372 379 368 379 366 C 379 366 381 365 381 363 C 379 362 380 362 381 361 C 382 360 382 357 380 356 C 380 353 377 350 381 349 Z"/>
            <path id="SK-98" fill="#777777" stroke="#231f20" stroke-width="0.4" stroke-linejoin="round" d="M 475 291 C 473 285 469 292 469 289 C 466 285 463 291 461 289 C 459 289 460 292 459 292 L 461 287 L 460 285 C 458 287 457 290 454 288 C 452 288 449 286 448 284 C 449 282 446 282 447 280 C 437 272 446 289 434 282 C 432 282 428 282 430 279 C 427 276 423 275 422 271 C 423 262 410 265 406 264 C 409 255 401 257 395 255 L 395 259 C 392 259 392 263 391 264 L 390 268 L 388 272 C 385 271 386 274 385 275 C 382 276 381 278 385 280 L 378 287 C 377 287 373 286 374 288 L 375 295 C 373 298 370 300 370 303 C 371 306 369 301 369 302 C 365 303 362 301 362 304 C 361 306 360 310 357 311 L 358 312 L 356 316 C 356 319 349 316 350 319 C 350 319 353 319 352 320 C 351 322 355 322 353 323 C 348 324 355 326 355 330 C 356 333 359 337 362 336 C 364 335 361 342 364 340 C 364 340 366 338 366 340 L 368 342 L 369 344 C 373 343 374 354 377 348 C 378 347 379 348 380 349 C 381 350 381 350 379 350 C 378 351 381 353 380 354 L 381 357 C 381 366 388 353 389 351 C 390 350 392 353 394 351 C 396 354 397 358 402 356 L 403 353 L 407 354 C 407 354 409 354 410 356 C 410 356 411 354 412 356 C 413 357 411 358 411 359 C 411 360 410 361 412 361 C 412 363 414 362 414 361 L 414 359 C 415 358 417 361 418 359 L 418 357 L 421 357 C 423 358 424 356 425 359 C 427 360 425 362 425 364 L 426 363 L 428 362 L 430 360 C 431 356 433 354 436 352 C 437 350 440 353 441 352 C 441 350 442 350 443 349 C 442 348 441 348 442 347 C 445 346 444 343 446 341 C 448 340 447 338 447 337 C 443 333 452 336 454 334 L 454 332 C 455 332 458 330 456 329 C 457 324 466 335 467 323 L 467 320 C 471 317 468 312 471 310 C 472 308 473 306 471 305 L 471 300 C 470 298 471 298 472 297 C 473 295 473 292 475 291 Z M 431 310 C 433 312 435 310 438 312 C 439 316 433 313 431 319 L 431 322 L 424 327 C 423 329 420 328 420 331 L 420 328 C 418 325 422 323 421 320 L 422 318 C 420 318 418 313 416 317 C 411 314 417 307 417 315 L 420 315 L 421 314 L 422 314 C 424 314 420 312 422 311 C 424 310 422 307 422 305 C 424 303 425 309 428 309 C 429 308 430 309 431 310 Z"/>
            <path id="SK-97" fill="#777777" stroke="#231f20" stroke-width="0.4" stroke-linejoin="round" d="M 433 226 C 422 222 415 230 401 229 C 396 226 386 237 381 233 C 378 233 375 240 372 237 L 367 235 C 364 237 363 236 360 234 C 349 235 335 239 329 249 C 325 254 329 257 321 259 C 320 259 323 254 319 253 C 316 251 311 259 307 258 C 302 262 293 258 294 266 C 294 268 291 268 294 270 C 295 273 292 276 297 277 C 298 280 296 285 299 288 C 300 293 301 290 304 294 L 316 300 C 315 295 318 300 321 298 C 322 297 323 292 325 294 C 330 294 325 298 328 300 C 328 298 331 298 332 296 C 334 293 334 296 336 295 C 337 292 339 291 342 289 C 347 288 347 291 351 287 C 358 282 355 288 358 285 C 363 282 368 285 374 284 C 375 285 372 287 374 287 C 377 286 378 287 380 284 C 381 282 388 280 383 279 C 381 278 384 275 386 275 C 386 273 385 271 388 272 C 390 270 390 269 390 267 C 392 267 390 265 391 263 C 392 262 393 259 395 260 L 395 254 C 394 251 398 254 399 253 C 399 249 403 253 404 250 C 409 248 409 243 413 245 C 415 243 417 243 417 246 C 420 246 424 246 425 243 C 429 244 429 242 428 238 C 432 234 430 229 433 226 Z M 278 291 C 278 288 275 286 272 285 C 270 285 270 282 270 281 C 268 281 269 280 269 280 C 267 281 267 278 265 278 C 264 277 259 277 259 275 C 258 273 257 270 258 268 L 255 263 C 258 261 258 259 254 257 C 249 260 238 256 239 262 C 230 267 236 271 230 272 C 229 279 220 264 218 272 C 214 272 214 271 215 276 C 217 279 220 279 221 282 C 228 281 228 286 229 290 C 244 305 214 302 233 311 C 235 315 239 307 239 313 C 243 317 238 318 240 320 C 246 323 246 332 254 328 L 259 324 L 262 314 C 263 311 269 314 270 312 C 268 307 273 309 272 303 C 271 297 276 304 278 291 Z M 438 314 C 438 310 435 311 432 311 C 429 308 425 308 423 305 C 420 305 425 310 421 311 C 420 312 424 314 422 314 L 421 314 L 419 315 C 419 315 416 316 417 314 C 414 307 413 316 416 318 C 418 313 420 318 422 318 C 421 319 418 334 420 330 L 431 323 L 431 319 C 433 315 436 314 438 314 Z"/>
            <path id="SK-96" fill="#777777" stroke="#231f20" stroke-width="0.4" stroke-linejoin="round" d="M 375 290 C 371 285 378 284 369 284 C 365 283 360 283 357 286 C 355 286 355 283 353 286 C 352 287 349 286 350 288 C 345 290 339 289 336 294 C 336 296 333 294 333 294 C 332 297 329 298 328 299 C 327 302 328 292 325 295 C 323 293 323 295 322 296 C 321 302 315 295 316 300 C 307 296 299 294 297 284 C 295 286 291 285 290 287 L 289 287 L 289 288 L 288 288 L 287 287 C 285 287 284 286 283 284 C 279 285 278 291 277 295 C 277 301 271 298 272 304 L 272 306 L 270 309 C 271 315 270 312 264 313 C 261 311 259 323 259 325 C 256 325 255 328 252 329 C 251 328 249 331 248 329 C 249 330 246 333 248 333 C 249 335 251 336 252 335 C 251 336 249 339 250 341 C 252 339 253 337 255 339 C 256 340 255 346 257 343 C 258 343 258 343 257 343 C 253 349 260 348 259 353 C 256 360 261 368 263 371 L 266 365 C 266 363 266 365 267 364 L 270 364 L 271 363 L 272 361 L 275 362 C 276 361 278 359 277 357 C 278 357 279 354 278 353 L 281 348 L 284 349 L 288 353 L 291 354 L 293 355 L 294 358 L 296 361 C 299 361 299 364 299 367 C 302 370 293 374 298 376 L 298 377 L 300 380 C 302 382 296 384 299 388 C 302 391 301 382 308 388 L 314 386 C 314 385 313 383 315 383 C 318 380 324 379 326 375 C 328 368 328 372 333 372 C 334 364 336 371 338 369 C 338 361 340 369 340 365 L 343 363 L 344 360 C 341 360 341 356 339 355 L 339 351 L 338 348 L 340 346 C 338 342 343 345 343 346 C 345 347 345 349 346 351 C 346 355 359 354 356 352 C 352 349 353 343 356 341 C 358 338 352 338 352 335 C 356 338 356 331 355 329 C 353 326 349 324 353 323 C 355 322 350 322 353 320 C 350 319 347 318 353 318 C 356 319 358 313 357 311 C 358 310 361 310 360 308 L 362 303 C 362 301 366 303 368 302 C 370 301 369 305 371 304 C 370 300 373 298 375 296 L 375 290 Z"/>
            <path id="SK-95" fill="#777777" stroke="#231f20" stroke-width="0.4" stroke-linejoin="round" d="M 261 367 C 255 361 263 352 256 348 L 257 343 L 256 344 L 255 339 C 253 337 246 345 252 335 C 250 336 247 333 248 329 C 243 326 245 322 240 320 C 237 319 243 317 240 314 C 239 310 238 311 235 312 C 234 313 233 311 233 310 C 232 309 231 312 230 310 C 221 301 237 305 233 294 C 227 291 229 287 226 283 C 221 283 220 278 216 278 L 214 281 C 213 282 212 279 210 281 C 197 286 215 302 205 303 C 204 301 204 304 203 304 C 204 302 199 303 202 305 C 202 307 198 305 199 307 C 200 310 197 311 196 311 C 192 307 187 308 185 313 C 185 315 188 317 186 319 C 187 324 190 326 191 329 L 191 332 C 190 331 191 335 189 334 C 187 336 191 338 188 339 C 182 346 180 336 179 345 C 176 362 177 352 188 359 C 197 361 187 367 188 374 C 185 382 186 386 184 393 C 185 395 188 392 189 395 C 188 400 187 403 193 405 C 193 407 193 413 196 410 C 203 406 212 416 216 410 C 220 405 224 401 228 399 L 229 400 L 229 401 C 229 402 227 403 229 403 C 230 407 232 403 235 402 C 236 396 233 399 241 398 L 241 400 L 243 400 C 247 400 249 396 245 393 C 248 389 251 395 255 387 C 248 381 246 377 258 379 C 252 377 259 376 256 373 C 255 369 257 370 261 367 Z M 218 392 C 211 397 216 396 211 392 C 210 388 206 397 204 390 C 202 385 208 382 207 380 L 206 377 L 207 376 L 208 375 L 209 374 C 208 373 209 374 210 373 L 209 372 C 211 369 211 376 212 377 C 214 377 212 379 214 379 C 215 379 215 382 217 381 C 218 381 218 383 219 382 C 221 381 220 385 222 386 C 225 388 224 389 222 391 C 220 395 220 391 218 392 Z"/>
            <path id="SK-05" fill="#777777" stroke="#231f20" stroke-width="0.4" stroke-linejoin="round" d="M 524 208 L 524 207 L 522 206 C 523 205 520 205 519 204 C 519 198 524 204 519 197 C 514 201 512 191 507 190 C 505 195 503 191 500 192 C 495 192 497 188 495 186 C 491 179 499 167 485 174 C 483 173 480 169 477 172 C 476 169 474 170 472 171 C 468 169 459 169 458 164 C 458 160 453 161 451 159 L 443 156 L 443 155 C 442 154 440 153 441 151 C 440 148 437 142 435 147 C 427 158 428 139 421 140 C 415 140 419 145 416 146 C 414 144 412 146 411 147 C 408 146 406 148 404 149 C 404 152 402 152 402 154 L 402 157 C 401 157 400 152 399 156 C 398 160 400 164 398 168 L 398 177 C 403 187 384 171 379 176 C 376 176 378 179 377 180 C 373 183 378 181 378 183 C 378 185 379 185 380 185 C 382 187 383 190 381 192 C 380 194 380 194 382 195 C 383 196 382 194 383 193 C 382 190 387 191 388 189 C 389 186 391 185 389 189 C 389 191 385 191 386 194 C 388 197 388 195 389 194 C 389 196 391 195 392 195 C 393 197 395 194 395 194 C 398 192 396 197 397 199 L 397 201 C 403 217 384 207 401 217 C 403 219 401 221 404 223 L 405 223 C 409 221 406 227 403 228 C 396 233 424 224 424 225 C 430 224 437 230 435 222 C 435 219 440 220 439 216 L 445 217 L 447 217 C 446 218 443 218 445 219 C 447 221 447 224 449 222 C 448 223 445 229 449 227 L 453 228 L 456 228 L 460 231 C 460 234 461 235 461 231 C 474 231 465 243 479 236 C 487 241 477 246 494 247 C 497 239 490 238 501 232 L 502 231 C 503 230 501 223 504 225 C 510 226 512 223 516 221 C 518 221 523 221 522 219 C 521 217 520 214 522 214 C 524 212 520 212 524 212 C 525 209 521 210 524 208 Z M 404 180 C 412 167 413 178 424 182 C 425 183 427 186 425 185 C 423 183 423 185 423 183 C 422 184 419 180 419 183 C 415 184 422 188 418 189 C 409 187 418 193 413 192 L 411 192 C 410 191 412 188 409 190 C 409 193 405 191 405 189 C 411 190 406 183 404 180 Z M 437 172 C 437 173 448 167 445 171 C 444 174 443 173 441 174 C 440 175 442 175 442 176 L 440 178 C 441 178 438 181 437 180 C 437 180 438 179 437 180 C 436 181 434 179 433 178 L 428 176 C 425 174 429 175 431 176 L 436 175 C 437 174 436 171 437 172 Z M 423 137 C 424 138 426 143 427 140 C 428 141 428 143 428 141 C 428 137 428 136 430 134 L 426 132 C 426 135 423 135 423 137 Z M 432 265 C 430 265 429 255 431 254 C 428 252 429 248 431 245 C 424 238 424 249 422 250 C 422 256 422 250 419 253 C 419 257 416 258 415 261 C 413 266 419 264 421 267 C 425 268 429 266 432 265 Z"/>
            <path id="SK-94" fill="#777777" stroke="#231f20" stroke-width="0.4" stroke-linejoin="round" d="M 203 385 C 203 390 206 396 210 390 C 214 392 212 397 213 396 C 214 395 219 390 219 393 C 220 394 226 388 223 387 L 219 381 C 218 383 218 382 217 381 C 215 382 215 379 214 379 C 212 379 214 377 212 377 C 211 375 210 369 209 372 L 209 373 C 210 373 209 374 209 373 C 209 374 209 374 209 373 L 208 375 C 208 375 207 375 208 375 L 206 377 C 207 381 208 383 203 385 Z M 320 445 C 316 445 312 439 308 440 C 306 437 304 431 306 429 C 305 424 299 429 296 428 C 294 428 295 431 293 431 C 287 429 266 445 268 427 C 267 423 264 422 263 417 C 257 413 261 413 263 412 C 265 401 254 407 252 402 C 247 402 246 398 241 400 C 242 398 236 398 234 398 C 239 401 229 407 229 404 L 229 400 C 227 397 220 405 216 410 C 215 416 205 407 206 418 C 215 417 207 425 211 429 C 213 431 217 434 215 436 C 209 445 219 447 203 445 C 198 445 206 451 203 454 C 203 455 207 455 206 457 L 198 467 C 198 473 198 479 192 479 C 190 500 256 476 276 467 C 286 465 301 464 307 454 C 305 445 319 449 320 445 Z"/>
            <path id="SK-93" fill="#777777" stroke="#231f20" stroke-width="0.4" stroke-linejoin="round" d="M 206 456 C 201 454 206 451 203 449 C 199 448 195 443 192 443 L 187 439 C 187 436 185 436 182 436 L 179 437 L 177 436 C 175 437 176 438 177 438 C 176 438 176 440 177 438 C 180 438 176 439 176 440 C 177 441 176 445 180 444 C 177 448 179 450 182 451 C 180 453 177 453 181 455 L 171 456 C 171 452 166 451 168 448 C 172 444 179 429 167 433 C 168 429 165 430 165 433 C 165 436 163 429 162 432 C 162 434 161 432 162 432 C 162 429 158 435 158 432 C 160 430 156 429 157 432 L 152 431 C 151 427 149 430 148 427 C 146 426 146 432 143 428 C 139 431 142 423 140 426 C 136 426 137 431 140 431 L 136 435 C 132 438 131 434 132 440 C 134 442 138 438 137 442 C 135 443 136 445 135 447 C 132 445 132 447 134 449 C 131 451 125 460 134 458 C 151 458 191 502 192 479 C 198 479 198 473 198 466 C 201 464 204 460 206 456 Z M 177 459 C 179 460 179 457 180 457 C 182 458 185 456 183 461 C 192 461 183 464 184 469 C 186 467 185 470 185 470 C 186 472 182 471 183 473 C 180 470 181 473 179 471 C 176 470 179 470 179 469 C 184 465 176 462 177 459 Z M 331 386 L 328 382 L 328 379 C 330 377 327 378 329 376 C 325 374 326 377 323 378 C 320 378 317 383 315 383 C 313 387 314 387 309 387 L 308 388 C 307 386 307 387 305 387 C 301 383 302 390 300 388 C 296 384 303 382 300 380 C 299 379 296 377 299 377 C 299 376 296 376 297 375 C 297 372 298 371 299 370 L 299 364 C 300 363 298 362 297 361 C 296 362 296 361 295 360 L 294 358 L 293 357 L 293 355 L 292 354 C 289 354 286 352 284 349 L 283 349 L 282 348 L 281 349 C 280 352 277 353 278 357 C 276 357 279 360 276 361 L 275 362 L 272 361 L 271 363 L 270 364 L 266 364 L 266 365 C 265 366 264 366 265 367 C 264 369 263 373 263 370 C 265 367 254 368 256 371 L 257 375 C 253 377 257 378 258 379 C 243 376 251 382 254 387 C 253 394 244 389 246 394 C 249 395 245 402 251 402 C 252 402 252 404 254 404 C 257 404 261 404 263 408 C 265 415 255 411 263 417 C 267 424 268 443 282 433 C 285 433 287 433 288 430 C 291 431 294 432 295 428 C 299 428 310 427 302 423 C 302 419 310 420 308 416 C 309 415 307 414 307 412 L 307 410 C 306 410 309 406 310 407 C 313 406 313 407 314 405 C 317 407 320 401 324 403 L 325 400 L 327 399 C 328 398 325 395 327 394 L 331 386 Z"/>
            <path id="SK-92" fill="#777777" stroke="#231f20" stroke-width="0.4" stroke-linejoin="round" d="M 187 462 C 184 458 183 464 184 457 L 180 457 C 179 456 179 460 177 459 C 177 463 182 463 180 467 L 178 471 C 179 471 180 473 181 471 C 183 472 182 474 184 472 C 186 472 186 467 184 469 C 183 467 187 464 187 462 Z M 214 433 C 206 424 211 415 204 407 C 202 411 194 411 193 408 C 193 407 193 405 191 404 C 184 404 193 393 185 394 C 185 384 187 371 193 362 C 192 358 175 356 177 354 C 179 352 178 351 178 348 C 178 345 180 344 179 341 C 186 343 193 338 186 335 C 183 334 180 336 178 334 C 176 336 177 335 175 334 C 172 337 172 332 169 333 C 170 335 168 336 166 336 C 155 336 159 326 149 335 L 146 335 C 146 336 146 335 146 335 L 145 336 C 148 341 144 339 142 342 L 143 345 L 143 347 C 144 350 142 349 142 351 C 142 354 145 352 146 353 C 150 360 157 359 160 366 C 164 375 167 367 169 372 L 169 374 L 167 376 C 166 377 168 379 168 380 C 167 381 168 382 169 383 C 162 389 176 383 174 391 C 172 392 168 392 167 396 C 169 396 169 396 168 398 C 169 400 163 400 165 403 C 162 401 158 405 157 408 C 153 411 147 399 146 411 C 143 412 137 412 140 416 C 142 417 141 414 142 413 C 144 415 140 420 146 417 C 147 413 152 410 151 418 C 153 417 153 417 153 420 C 154 425 145 417 147 424 C 152 424 146 428 150 429 C 151 428 152 433 154 431 C 157 434 156 429 159 431 C 157 438 163 427 162 433 C 164 429 164 435 165 433 C 165 432 166 429 167 431 C 166 434 171 433 173 433 C 176 435 170 446 168 448 C 166 451 171 452 171 456 C 174 456 177 453 180 456 C 183 455 177 454 179 453 C 183 451 182 451 179 449 C 177 448 180 444 179 444 C 177 445 175 438 177 439 L 176 439 C 177 438 178 438 176 438 C 177 435 183 437 185 436 C 187 439 188 441 191 442 L 193 443 C 195 443 196 447 198 446 L 202 449 C 201 446 202 444 205 445 C 212 445 213 447 214 439 C 213 438 219 435 214 433 Z"/>
            <path id="SK-91" fill="#777777" stroke="#231f20" stroke-width="0.4" stroke-linejoin="round" d="M 216 278 C 214 276 216 271 212 274 C 208 274 207 278 203 277 C 201 276 200 280 197 278 C 195 276 194 278 193 277 C 189 276 195 274 192 273 C 193 269 189 270 188 266 C 187 264 183 263 185 262 C 182 252 184 260 178 263 C 163 267 165 267 165 284 C 154 288 152 288 147 301 C 133 303 140 311 142 316 C 142 318 144 317 144 317 L 146 318 L 144 319 L 145 322 C 146 324 144 324 144 328 L 145 333 C 143 335 145 334 146 334 L 146 335 C 145 336 147 335 147 336 C 147 335 151 336 149 335 L 151 334 C 155 327 160 337 166 336 C 168 335 170 335 169 333 C 172 332 171 337 175 334 C 177 335 176 336 178 334 C 179 336 182 335 183 335 C 186 334 187 338 189 334 C 192 334 189 331 192 333 C 192 328 190 327 188 325 L 186 320 C 187 317 186 317 185 314 C 186 308 192 307 196 311 C 197 311 200 310 199 307 C 198 306 203 306 202 304 C 199 304 204 302 203 304 C 204 302 205 303 207 303 C 211 299 204 294 205 289 C 205 285 210 279 214 282 L 216 278 Z M 174 388 C 172 385 163 387 169 383 C 169 382 167 381 168 380 C 168 379 166 377 167 376 L 169 374 L 169 372 C 168 371 167 369 165 371 C 161 371 160 364 156 361 C 154 364 147 353 144 352 C 140 354 143 349 143 348 C 141 346 144 342 140 341 C 136 345 134 352 131 357 C 131 359 130 356 129 358 L 128 359 C 124 359 123 359 122 362 C 120 364 122 367 120 368 C 119 369 121 369 122 369 L 120 374 C 121 374 116 377 118 379 C 121 381 127 379 129 381 C 125 383 132 383 131 385 C 132 385 135 387 135 390 C 139 389 144 394 140 398 C 140 400 158 414 159 405 C 160 403 165 402 165 403 C 163 400 172 398 168 396 C 167 391 176 393 174 388 Z"/>
            <path id="SK-90" fill="#777777" stroke="#231f20" stroke-width="0.4" stroke-linejoin="round" d="M 154 418 C 147 418 155 413 148 413 C 145 415 148 418 142 418 L 142 413 C 141 415 141 417 139 416 C 139 409 148 413 149 404 C 146 402 138 401 141 398 C 145 391 136 391 135 389 C 133 388 134 384 131 386 L 131 384 C 129 384 127 383 129 381 C 127 380 122 381 119 379 C 116 377 120 374 121 374 C 119 373 125 368 120 369 L 121 367 C 120 363 123 358 128 359 C 129 357 131 359 132 356 C 134 352 136 340 143 341 C 149 340 144 337 146 334 L 144 334 C 146 332 144 331 144 328 C 143 325 147 324 146 322 C 146 320 142 318 145 318 C 146 317 145 318 145 318 L 144 317 C 142 318 143 316 142 316 L 142 315 C 143 315 139 312 139 310 C 137 299 137 314 132 309 C 133 311 128 316 128 311 C 126 313 120 307 118 311 C 117 317 109 319 105 313 L 101 313 C 99 312 99 311 97 312 C 78 309 74 346 71 363 C 69 368 80 376 72 379 C 73 380 71 381 73 383 C 69 383 70 390 67 392 C 70 398 68 402 69 406 C 69 410 73 408 73 410 C 78 413 77 410 79 417 C 81 422 87 420 91 422 C 95 422 97 421 101 423 C 100 417 122 420 119 429 C 122 431 121 431 123 434 C 126 435 133 442 125 440 C 122 439 122 443 121 445 C 120 452 123 451 129 457 C 129 453 134 451 133 447 C 131 444 134 447 135 446 C 135 444 139 441 136 440 C 134 444 130 436 132 436 C 134 437 137 435 138 433 C 144 433 133 427 140 426 C 140 424 142 427 140 428 C 143 430 148 428 149 425 C 149 423 144 424 148 421 C 155 421 151 424 154 418 Z"/>
            <path id="SK-81-85" fill="#777777" stroke="#231f20" stroke-width="0.4" stroke-linejoin="round" d="M 129 439 C 129 436 119 434 122 430 C 119 430 119 427 120 425 C 116 421 111 420 108 420 L 101 420 L 100 423 C 98 422 96 421 94 422 C 78 420 89 427 92 436 C 96 440 101 439 103 441 C 103 444 106 444 108 447 C 103 449 110 452 107 453 C 111 455 105 458 110 459 C 115 455 121 461 128 455 C 120 450 121 449 122 442 C 124 437 129 443 129 439 Z"/>
            <path id="SK-09" fill="#777777" stroke="#231f20" stroke-width="0.4" stroke-linejoin="round" d="M 608 192 C 606 191 608 189 605 188 L 602 179 L 601 178 L 601 177 C 600 175 601 173 599 174 C 600 173 598 171 598 170 L 598 162 C 597 161 595 161 595 159 L 593 157 L 593 151 C 592 149 594 146 595 144 C 596 145 598 144 598 142 L 598 138 C 597 137 596 136 598 136 C 599 134 597 136 596 135 L 592 133 C 589 132 589 126 586 123 C 585 122 590 122 588 121 L 589 119 L 588 117 L 588 112 C 592 107 591 106 585 103 C 583 101 582 100 580 101 C 579 98 575 98 575 95 C 573 93 569 94 569 91 C 566 89 564 92 562 92 C 554 84 557 91 547 93 C 544 94 548 98 543 95 C 541 94 542 98 540 99 C 537 98 539 102 537 103 C 534 106 538 110 539 113 C 536 116 536 116 541 117 C 545 116 543 121 547 121 C 549 121 552 123 551 125 C 552 126 554 127 554 129 C 558 132 552 132 552 135 C 552 138 554 139 556 138 C 555 141 559 140 561 143 C 562 144 564 142 564 144 C 564 146 567 147 567 151 L 563 155 L 560 154 C 555 153 557 157 556 160 L 554 162 C 554 162 554 164 553 163 C 553 167 552 166 555 169 C 556 170 553 170 554 172 C 556 171 556 173 557 173 L 558 174 C 564 177 566 182 568 189 C 572 189 569 193 572 194 C 576 194 575 198 578 199 C 579 202 581 199 582 200 C 584 200 584 202 585 201 C 588 202 589 200 591 199 C 592 198 592 200 594 200 C 598 202 600 198 600 197 C 604 198 604 193 608 192 Z"/>
            <path id="SK-08" fill="#777777" stroke="#231f20" stroke-width="0.4" stroke-linejoin="round" d="M 567 151 L 564 145 C 565 143 563 143 562 143 C 561 144 560 142 560 142 C 559 140 555 141 556 139 C 557 136 552 141 553 136 C 550 133 556 134 555 131 C 555 129 553 126 551 125 C 551 125 552 122 550 122 C 544 120 546 120 543 117 C 541 118 534 116 538 114 C 540 111 535 110 536 107 C 535 104 541 99 535 99 L 531 97 C 530 98 529 99 528 97 L 517 97 L 513 104 L 513 108 C 510 112 506 105 501 106 C 501 107 501 109 499 107 L 495 110 C 491 113 501 114 502 116 C 502 121 497 118 495 121 L 493 124 C 494 127 492 126 492 128 C 492 129 494 130 493 131 C 492 133 499 134 496 136 C 492 136 499 140 497 143 C 496 148 490 149 487 151 C 485 151 487 148 484 148 L 485 151 C 484 152 484 150 482 150 L 482 151 C 481 151 482 151 482 151 L 481 151 L 482 150 L 479 150 C 479 149 472 150 473 152 C 475 164 452 165 471 172 C 473 171 476 168 477 172 C 481 167 486 179 490 172 C 498 171 493 181 494 186 C 498 187 495 192 499 192 C 504 191 505 195 508 190 C 511 191 513 200 518 197 L 526 197 C 527 196 530 194 532 196 C 532 198 534 198 535 199 C 535 194 539 199 539 196 C 541 196 542 199 543 196 C 546 198 544 198 543 200 C 543 202 544 205 547 205 L 550 205 L 551 204 L 551 203 C 551 203 551 204 551 203 C 549 200 555 200 557 198 L 557 197 C 560 194 553 189 559 190 C 563 192 559 188 560 187 L 562 191 L 562 190 L 564 190 C 565 190 569 187 567 186 C 565 180 563 177 558 174 L 557 173 L 556 173 C 556 171 554 172 554 171 C 558 167 552 168 553 166 L 553 163 C 554 164 554 161 555 161 C 557 160 555 156 557 155 C 563 152 563 159 567 151 Z"/>
            <path id="SK-07" fill="#777777" stroke="#231f20" stroke-width="0.4" stroke-linejoin="round" d="M 672 172 C 669 168 670 159 665 161 L 655 165 C 653 165 654 163 653 162 L 651 160 C 650 157 646 154 644 157 L 642 162 C 642 164 641 164 639 165 C 638 170 646 174 635 174 C 630 179 625 177 621 178 C 621 174 611 172 607 174 C 606 175 607 176 606 175 C 605 176 605 173 603 174 C 602 173 600 176 601 176 L 601 178 L 602 179 C 604 182 604 187 607 189 L 607 192 L 603 195 C 604 198 599 196 600 199 C 599 199 595 203 592 199 L 591 199 C 589 201 587 202 585 201 C 584 201 584 202 583 200 C 581 199 577 200 579 203 L 583 214 L 583 216 C 585 218 583 223 585 225 C 586 227 590 227 591 229 C 590 231 590 231 589 230 L 585 234 C 586 236 589 234 588 236 C 585 241 587 239 588 243 C 591 254 598 243 601 248 L 605 255 L 606 256 L 608 257 C 608 259 611 260 611 262 C 612 264 612 264 614 264 C 619 267 618 269 625 270 C 630 267 635 271 633 265 C 632 260 637 265 637 262 C 639 264 637 260 638 261 C 638 264 640 259 639 260 L 643 260 C 642 255 649 257 651 254 C 652 251 657 255 658 252 C 659 251 659 253 660 254 C 661 253 661 251 663 251 C 666 233 649 218 670 194 C 674 193 674 182 670 182 C 668 178 672 175 672 172 Z"/>
            <path id="SK-06" fill="#777777" stroke="#231f20" stroke-width="0.4" stroke-linejoin="round" d="M 446 170 C 444 170 440 170 440 172 L 436 172 C 437 177 429 175 426 175 L 431 178 L 436 180 L 437 180 C 437 182 441 178 440 178 C 441 176 443 177 441 174 L 443 174 L 446 170 Z M 426 185 C 426 183 424 183 422 182 C 413 175 409 169 405 181 C 411 186 401 196 411 189 C 410 193 416 193 414 191 C 413 186 415 190 418 188 C 422 187 415 184 419 182 C 419 181 422 184 423 183 L 423 184 C 424 183 425 186 426 185 Z M 498 142 C 498 139 492 136 496 136 C 498 135 493 133 492 131 C 490 131 489 133 488 134 C 484 137 483 128 480 133 C 480 133 480 130 478 129 C 476 126 476 134 473 131 C 472 128 470 132 470 130 C 469 127 470 130 471 128 C 466 126 469 131 467 126 C 463 131 462 113 453 125 C 452 127 448 126 447 124 C 445 124 447 127 446 129 L 443 132 L 436 131 C 435 129 433 130 432 129 C 431 128 429 130 428 130 C 428 130 429 130 428 130 C 423 129 429 133 430 134 C 426 135 430 144 427 141 C 426 140 425 142 424 139 L 421 133 C 420 136 415 134 415 137 C 415 139 416 137 416 137 C 416 138 415 140 417 141 C 426 140 424 142 429 150 C 435 153 436 138 440 149 C 442 150 441 151 441 153 C 441 155 444 155 443 156 C 444 155 444 156 445 157 C 446 156 447 158 449 158 C 450 159 452 161 454 160 C 459 162 456 167 462 168 C 464 167 464 162 467 164 L 473 155 C 473 152 472 150 477 150 C 479 148 479 151 480 149 C 483 149 480 152 481 151 L 483 150 L 484 151 L 484 149 L 486 149 C 485 153 489 151 490 149 C 494 150 497 145 498 142 Z M 678 131 C 678 127 676 121 677 118 L 674 117 L 669 120 C 663 117 664 119 660 120 C 656 119 654 114 651 115 C 645 117 650 119 641 117 C 639 116 636 119 636 116 C 638 114 633 111 633 114 C 631 117 628 114 626 114 L 625 113 L 621 113 C 610 114 612 111 609 103 C 608 102 604 102 603 99 C 598 94 599 93 591 95 C 590 96 589 93 588 92 C 585 93 584 93 582 91 C 577 90 576 102 582 100 L 587 105 C 591 105 591 107 589 109 C 589 112 585 112 589 115 L 588 118 L 588 120 L 589 122 C 582 122 589 127 590 131 C 590 134 594 133 596 135 C 596 136 599 134 598 136 C 596 136 598 137 598 138 C 596 140 600 143 596 144 C 596 146 595 143 595 144 C 593 147 593 149 593 153 L 593 157 L 595 158 C 594 161 598 161 599 163 L 598 170 C 600 171 599 174 599 174 C 601 173 601 178 602 174 C 604 172 605 176 606 175 L 607 174 L 614 173 L 620 175 L 621 178 C 625 177 627 179 632 176 C 643 169 642 178 639 165 L 642 163 C 641 161 643 159 644 157 C 648 152 649 160 652 161 C 654 163 653 166 656 164 C 659 163 661 161 664 161 L 667 160 C 668 161 668 162 668 160 C 674 155 667 146 673 139 C 670 134 680 135 678 131 Z"/>
            <path id="SK-04" fill="#777777" stroke="#231f20" stroke-width="0.4" stroke-linejoin="round" d="M 421 252 C 423 254 422 250 422 250 C 424 249 425 243 419 246 C 417 247 417 244 416 244 C 414 244 412 247 412 244 C 407 245 407 251 402 251 C 398 250 400 254 396 253 C 392 259 407 254 406 259 C 408 261 406 263 407 264 C 408 264 408 262 409 264 C 415 268 415 259 418 257 C 419 256 418 252 421 252 Z M 459 291 C 459 292 461 292 459 291 Z M 591 229 C 586 226 583 225 584 218 C 583 217 582 216 583 215 L 582 210 L 578 200 L 575 195 C 567 193 573 189 569 190 C 566 184 566 192 564 190 L 562 190 C 561 189 559 185 561 191 C 559 191 557 189 556 191 C 560 196 557 200 552 200 C 550 201 550 203 551 203 L 552 204 L 548 206 L 547 205 C 544 205 544 203 543 201 C 542 200 546 198 544 197 C 543 194 543 198 542 197 C 540 197 536 194 535 199 C 532 198 531 194 528 195 C 524 200 517 194 521 202 C 520 200 519 202 520 205 C 521 205 523 205 522 206 L 524 207 C 525 208 523 209 522 209 C 523 209 525 211 523 212 C 520 212 524 212 522 214 C 520 214 521 217 522 219 C 520 222 513 221 510 225 C 504 225 502 224 502 231 L 501 232 C 487 239 501 249 491 246 C 480 247 485 239 480 237 C 478 234 475 239 473 239 C 469 236 467 230 461 231 C 461 234 460 235 460 231 L 456 227 L 453 228 L 449 227 C 445 229 448 223 449 221 C 447 225 447 220 445 219 C 444 217 447 218 447 217 C 449 215 443 217 441 216 L 439 216 L 438 220 C 433 219 436 223 435 226 C 430 227 431 228 431 233 C 425 239 431 244 429 251 C 432 255 427 262 432 265 L 426 267 C 423 268 421 265 422 270 C 422 274 427 276 430 279 C 428 282 435 283 437 284 C 445 285 438 273 447 280 C 446 282 448 282 449 283 C 448 286 450 285 451 287 C 457 293 459 282 460 286 C 463 286 458 292 460 290 C 461 287 463 291 464 288 C 468 285 469 292 472 289 C 473 287 475 292 476 286 C 479 283 472 276 477 276 C 480 277 479 272 484 273 L 487 271 L 490 269 C 494 264 498 264 504 261 C 511 258 510 258 514 262 C 524 261 517 257 527 265 C 530 264 533 260 537 261 C 541 259 542 264 545 265 C 549 265 547 256 551 258 L 553 256 C 555 250 561 256 565 253 C 563 253 568 251 565 251 L 566 249 C 564 249 566 248 566 248 C 563 246 565 247 567 246 C 570 246 573 243 575 244 C 578 244 574 236 578 239 L 585 241 L 586 242 L 587 242 C 589 244 588 242 587 241 C 586 240 589 236 588 235 C 582 236 588 232 588 230 C 590 231 590 231 591 229 Z"/>
            <path id="SK-03" fill="#777777" stroke="#231f20" stroke-width="0.4" stroke-linejoin="round" d="M 407 223 L 404 223 C 403 222 401 220 402 219 C 401 216 392 214 394 211 C 400 213 398 203 397 200 L 397 197 C 397 194 396 192 395 194 C 394 196 392 195 390 196 C 389 196 389 193 389 195 C 388 197 385 194 387 192 L 389 190 L 390 186 L 383 192 C 382 193 383 196 381 194 C 378 193 385 189 381 186 C 379 184 378 187 378 182 C 374 182 373 186 370 184 C 368 183 366 187 364 185 C 361 185 361 188 358 187 C 355 189 351 180 349 188 L 346 188 C 342 188 342 193 338 192 C 339 195 333 202 334 196 C 332 193 331 195 332 198 L 327 201 C 327 198 323 202 320 201 C 317 206 319 208 312 208 L 310 208 C 308 202 303 216 303 211 C 302 208 296 208 294 210 C 295 212 299 215 294 215 C 288 216 288 207 286 204 C 285 201 286 209 284 209 L 279 209 C 279 211 276 211 275 212 C 275 216 271 214 270 217 C 267 217 268 219 266 220 C 260 222 264 232 260 236 C 257 239 253 239 256 244 L 254 251 C 250 252 247 252 247 257 C 247 260 253 258 254 257 C 258 259 258 262 255 263 L 258 267 L 259 275 C 259 277 264 277 265 278 C 267 279 267 281 269 280 C 268 281 269 281 270 281 L 272 285 C 275 285 277 291 279 289 C 280 288 282 282 284 285 L 285 287 L 287 287 L 289 288 L 290 286 L 296 285 C 297 284 298 278 296 277 C 292 276 295 272 294 270 C 291 267 294 268 294 265 C 294 260 297 260 301 261 C 307 257 312 257 317 253 C 319 251 323 257 321 259 C 323 259 328 257 327 252 C 333 240 347 235 360 234 C 366 239 365 233 371 237 C 375 240 378 231 382 234 C 390 231 403 231 407 223 Z"/>
            <path id="SK-02" fill="#777777" stroke="#231f20" stroke-width="0.4" stroke-linejoin="round" d="M 214 239 C 214 237 213 238 212 238 L 209 232 C 207 230 202 230 203 226 C 202 221 198 227 197 223 C 193 222 192 212 188 213 C 184 214 184 216 184 219 C 180 222 182 225 183 228 C 183 230 181 235 184 238 C 181 240 181 242 185 241 C 191 246 196 252 203 256 C 202 254 205 251 206 250 C 205 244 214 243 214 239 Z M 224 260 C 221 258 217 254 218 260 C 215 264 225 264 224 260 Z M 366 171 C 356 167 361 139 348 155 L 344 154 L 339 155 L 339 150 L 338 148 C 339 143 336 151 333 147 C 328 148 322 136 320 130 C 314 131 313 125 309 125 C 309 129 306 133 303 135 C 307 146 290 140 291 150 C 294 161 285 160 290 166 L 281 171 C 279 168 277 169 276 170 C 274 175 263 179 267 170 C 266 169 265 166 263 166 L 262 161 C 264 153 254 157 249 158 C 243 158 241 165 236 166 C 232 163 227 166 224 168 C 221 169 219 165 216 169 C 211 175 221 172 212 182 C 212 194 201 188 205 193 C 208 198 200 205 199 207 C 204 206 205 201 209 202 C 212 200 216 199 217 195 C 219 198 220 194 221 193 C 224 193 225 194 225 192 C 225 192 225 191 225 192 C 226 193 227 191 227 193 C 231 194 229 189 235 191 L 244 203 C 248 208 247 198 252 205 C 254 207 254 204 254 202 L 259 202 C 261 207 271 197 265 195 C 264 193 261 194 262 191 C 264 192 267 195 267 191 C 269 187 272 191 274 189 C 274 188 276 191 277 189 L 281 189 C 283 189 284 185 286 186 C 288 186 286 186 286 188 C 285 192 287 194 288 197 C 290 204 284 202 287 206 C 288 211 291 217 296 214 C 297 211 292 211 296 209 C 307 209 299 216 308 207 C 312 209 314 207 318 207 C 318 205 319 201 321 202 L 331 199 C 333 199 330 194 332 194 L 334 196 C 332 201 338 196 338 193 C 337 190 340 193 341 191 C 344 189 344 187 348 188 C 352 181 353 187 357 188 C 367 188 358 175 366 171 Z"/>
            <path id="SK-01" fill="#777777" stroke="#231f20" stroke-width="0.4" stroke-linejoin="round" d="M 288 201 C 288 197 284 192 286 188 C 286 187 288 185 286 187 L 284 187 C 283 189 281 189 280 189 L 278 189 C 277 188 278 189 277 190 L 275 189 C 275 188 273 191 272 190 C 271 188 267 190 266 192 C 266 195 263 192 262 191 C 262 195 274 197 262 203 C 260 204 253 199 254 203 C 253 209 250 202 248 202 C 248 202 246 206 244 203 C 242 201 233 184 230 193 L 225 191 L 224 194 C 220 192 221 195 218 196 C 217 195 217 196 216 197 C 216 198 209 203 207 201 C 204 205 198 207 195 210 C 185 213 198 222 197 224 C 198 226 204 222 203 225 C 202 230 207 230 209 232 C 211 234 211 239 214 238 C 216 241 209 244 207 246 C 207 250 202 252 203 255 C 204 257 202 255 201 255 C 200 255 200 251 198 253 C 196 253 195 249 193 248 C 191 246 182 236 182 244 C 183 245 185 253 182 255 C 183 258 185 261 184 263 C 188 263 188 271 193 270 C 191 273 192 273 194 274 C 190 274 193 280 195 277 C 197 279 199 280 201 277 C 204 277 206 277 209 275 C 211 273 215 272 218 272 C 219 266 223 273 226 272 C 228 273 229 277 230 272 C 232 272 234 271 233 269 C 234 265 235 267 237 264 C 241 264 239 258 241 259 C 243 261 243 260 245 259 C 248 259 247 255 248 253 C 251 250 253 253 256 249 L 256 244 L 255 238 C 264 238 260 228 263 224 C 262 220 267 221 267 219 C 268 218 268 217 269 218 C 270 215 273 216 274 214 C 275 211 278 212 279 209 C 290 207 281 207 288 201 Z M 224 260 C 224 264 215 264 218 259 C 216 254 222 259 224 260 Z"/>
        </g>
    </g>
</svg>
