<?xml version="1.0" encoding="UTF-8"?>
<!-- Generated by Pixelmator Pro 3.6.10 -->
<svg width="416" height="369" viewBox="0 0 416 369" xmlns="http://www.w3.org/2000/svg">
    <g id="Landen">
        <g id="MACEDONIE">
            <path id="MK-75" fill="#777777" stroke="#231f20" stroke-width="0.4" stroke-linejoin="round" d="M 230 233 C 227 231 226 225 229 222 C 226 218 224 214 224 209 C 217 214 217 204 209 203 C 195 218 208 214 184 210 C 168 207 154 175 157 215 C 149 212 149 219 148 226 C 147 232 137 230 135 235 C 132 246 152 239 149 248 C 150 253 154 250 156 248 C 157 254 162 255 164 259 C 172 250 182 264 194 264 C 198 262 206 265 209 261 C 212 261 210 264 213 264 C 216 270 223 263 224 260 C 223 257 219 255 222 253 C 222 248 227 246 229 243 C 226 238 234 236 230 233 Z"/>
            <path id="MK-73" fill="#777777" stroke="#231f20" stroke-width="0.4" stroke-linejoin="round" d="M 175 320 C 174 310 158 316 165 306 C 165 297 172 299 168 293 C 175 286 165 288 162 286 C 142 273 148 297 139 280 C 134 266 127 284 122 286 C 119 292 121 302 118 309 C 120 313 127 312 127 316 C 127 318 128 318 128 316 C 155 318 150 350 175 320 Z"/>
            <path id="MK-72" fill="#777777" stroke="#231f20" stroke-width="0.4" stroke-linejoin="round" d="M 252 269 C 254 255 235 250 239 233 C 237 232 230 235 229 238 C 229 245 223 246 222 253 C 219 254 223 258 224 260 C 223 264 215 270 213 264 C 210 265 211 260 209 261 C 206 266 198 259 195 265 C 186 266 171 248 166 259 C 163 260 158 252 156 248 C 150 255 150 247 148 243 C 143 246 138 237 133 243 C 135 252 108 251 119 263 C 130 262 142 295 147 282 C 154 280 157 285 163 287 C 171 285 176 295 183 291 C 184 295 188 297 189 301 C 188 302 183 301 185 303 C 193 308 168 318 173 297 C 177 294 164 289 170 295 C 171 299 166 298 166 301 C 167 304 164 306 164 309 C 162 317 172 307 177 326 C 191 322 195 308 210 308 C 213 310 216 315 220 313 C 223 311 224 305 229 305 C 225 293 234 299 240 297 C 248 295 239 287 245 284 C 247 283 247 281 248 278 C 249 276 251 276 250 273 C 253 273 254 271 252 269 Z"/>
            <path id="MK-65" fill="#777777" stroke="#231f20" stroke-width="0.4" stroke-linejoin="round" d="M 156 187 C 160 184 150 177 155 177 C 155 175 151 175 151 173 C 138 179 131 154 119 162 C 115 169 108 174 106 184 C 111 189 113 201 120 199 C 131 217 131 218 121 232 C 129 239 148 234 148 222 C 151 214 149 214 158 215 C 156 206 157 194 156 187 Z"/>
            <path id="MK-63" fill="#777777" stroke="#231f20" stroke-width="0.4" stroke-linejoin="round" d="M 98 293 C 93 293 93 289 97 290 C 109 264 103 278 129 270 C 122 260 108 255 104 244 C 89 241 69 251 62 261 C 64 263 61 267 61 270 C 59 272 57 267 57 272 C 63 277 63 291 70 294 C 74 294 77 300 79 302 C 81 304 77 307 81 308 C 97 311 96 313 98 293 Z M 149 327 C 147 318 131 316 127 317 C 128 312 112 306 113 314 C 83 301 103 345 120 334 C 118 325 125 329 130 329 C 131 326 135 326 137 328 C 140 328 140 334 142 337 C 149 336 153 334 149 327 Z M 120 292 C 119 291 116 286 113 288 C 111 290 112 286 109 287 C 107 286 108 292 108 293 C 112 291 110 292 115 293 C 116 298 118 295 120 292 Z"/>
            <path id="MK-62" fill="#777777" stroke="#231f20" stroke-width="0.4" stroke-linejoin="round" d="M 134 243 C 146 234 110 235 124 229 C 127 229 124 226 125 224 C 136 217 119 195 110 197 C 104 194 109 206 101 203 C 95 194 78 207 81 213 C 91 211 86 228 86 236 C 77 236 75 242 77 250 C 121 225 98 280 134 243 Z"/>
            <path id="MK-60" fill="#777777" stroke="#231f20" stroke-width="0.4" stroke-linejoin="round" d="M 98 293 C 90 291 96 290 99 288 C 105 287 97 281 103 278 C 105 271 129 269 132 274 C 112 299 130 290 108 287 C 107 289 108 296 110 292 C 116 289 129 308 113 311 C 99 315 91 318 98 293 Z"/>
            <path id="MK-24" fill="#777777" stroke="#231f20" stroke-width="0.4" stroke-linejoin="round" d="M 373 180 L 368 169 C 370 166 372 164 367 162 C 363 149 368 152 353 154 C 342 158 338 147 327 152 C 329 143 321 140 319 145 C 318 129 307 119 294 127 C 289 126 289 121 287 128 C 284 132 288 150 279 146 C 267 149 286 162 275 173 C 285 179 289 185 291 196 C 305 199 314 205 321 220 C 326 219 321 210 329 213 C 333 206 338 207 338 200 C 348 200 347 198 352 190 C 356 187 369 186 373 180 Z"/>
            <path id="MK-23" fill="#777777" stroke="#231f20" stroke-width="0.4" stroke-linejoin="round" d="M 364 117 C 358 102 353 114 351 107 C 346 105 346 98 342 95 C 339 92 339 96 337 90 C 337 87 332 87 332 84 C 330 79 329 73 327 71 C 318 75 319 67 317 71 L 309 72 C 307 70 306 68 304 70 C 301 72 297 69 293 68 L 290 67 C 286 68 283 63 279 63 C 276 60 259 73 260 74 C 266 78 261 93 259 97 C 242 120 251 123 278 124 C 284 123 290 125 297 127 C 301 121 313 125 316 132 C 321 142 312 144 325 143 C 331 145 323 154 330 150 C 341 152 347 157 355 153 C 357 155 365 152 365 152 C 363 151 363 149 364 148 C 364 144 362 142 359 140 C 359 137 356 134 358 131 C 358 130 361 131 361 129 C 360 125 363 121 364 117 Z"/>
            <path id="MK-22" fill="#777777" stroke="#231f20" stroke-width="0.4" stroke-linejoin="round" d="M 287 123 C 207 132 290 81 251 83 C 246 84 258 100 245 89 C 243 95 243 88 239 90 C 224 103 216 104 200 111 C 199 119 194 133 209 136 C 207 145 214 148 210 154 C 220 155 228 178 230 159 C 224 159 225 155 228 152 C 235 155 239 145 235 140 C 246 135 230 119 244 121 C 246 122 246 124 244 124 C 243 126 246 128 244 129 C 251 131 245 141 247 140 C 252 142 251 139 253 137 C 252 134 249 137 249 135 C 265 134 291 151 287 123 Z"/>
            <path id="MK-20" fill="#777777" stroke="#231f20" stroke-width="0.4" stroke-linejoin="round" d="M 276 146 C 271 150 278 159 282 160 C 276 181 264 167 255 171 C 251 168 247 154 246 168 C 240 160 232 164 226 158 C 224 155 229 150 231 154 C 234 153 232 148 236 148 C 240 145 234 142 235 140 C 243 135 238 128 238 121 C 249 121 243 121 245 128 C 243 130 250 133 248 136 C 246 137 246 142 247 140 C 251 142 253 138 252 136 C 245 136 255 133 257 133 C 266 142 275 141 286 136 C 284 145 285 148 276 146 Z"/>
            <path id="MK-14" fill="#777777" stroke="#231f20" stroke-width="0.4" stroke-linejoin="round" d="M 355 220 C 352 205 351 191 336 202 C 340 206 330 208 329 213 C 321 209 326 221 321 220 C 315 209 313 205 303 199 C 294 198 291 197 288 189 C 286 166 254 179 249 162 C 242 169 247 166 239 163 C 231 157 225 175 221 162 C 212 152 209 151 209 136 C 203 135 201 130 198 127 C 193 129 189 132 194 136 C 191 141 197 152 188 145 C 173 151 185 145 181 161 C 176 165 164 161 160 169 C 162 178 151 175 156 182 C 158 188 153 198 165 195 C 172 201 172 213 183 208 C 187 213 196 210 201 214 C 205 215 203 203 209 204 C 217 201 216 215 224 209 C 226 218 229 223 228 231 C 232 236 235 234 238 233 C 239 238 241 249 246 254 C 253 256 252 265 257 256 C 259 254 267 252 267 247 C 284 257 276 240 291 239 C 294 238 299 241 301 239 C 303 242 302 245 305 241 C 308 236 313 241 318 240 C 325 234 343 237 341 224 C 342 214 354 235 355 220 Z"/>
            <path id="MK-13" fill="#777777" stroke="#231f20" stroke-width="0.4" stroke-linejoin="round" d="M 276 61 C 270 51 270 58 265 51 C 263 47 257 48 255 43 C 252 39 238 42 239 34 C 240 30 229 39 233 39 C 233 43 227 40 226 44 C 226 47 224 48 222 47 C 222 51 219 49 217 50 C 211 59 201 48 194 51 C 199 66 182 51 183 60 C 182 62 181 64 178 63 C 180 65 177 67 178 68 C 176 73 171 70 170 76 C 169 78 161 75 157 77 C 154 76 151 80 149 82 C 146 80 142 78 141 83 C 137 87 151 85 149 94 C 142 96 160 113 166 110 C 162 101 173 109 174 111 C 180 109 178 114 181 116 C 187 118 188 120 194 116 C 196 122 203 115 200 113 C 205 101 214 113 221 101 C 223 100 230 103 229 96 C 250 80 251 105 251 83 C 260 83 269 81 259 73 C 267 72 271 66 276 61 Z"/>
            <path id="MK-12" fill="#777777" stroke="#231f20" stroke-width="0.4" stroke-linejoin="round" d="M 129 162 C 131 151 119 154 117 146 C 119 139 111 138 111 133 C 112 129 113 123 111 121 C 110 114 108 127 106 119 C 123 115 105 102 97 102 C 92 106 90 115 84 118 C 80 120 75 120 75 126 C 65 133 55 138 61 154 C 74 167 60 173 50 179 C 48 177 44 175 42 179 C 44 190 50 189 43 195 C 43 205 46 216 52 224 C 57 236 33 232 54 251 C 55 253 55 254 58 253 C 64 260 80 254 76 241 C 82 235 88 235 88 225 C 83 218 90 218 85 213 C 73 213 86 203 93 200 C 99 198 107 209 107 198 C 114 196 114 194 108 187 C 103 179 112 174 114 169 C 117 160 123 160 129 162 Z"/>
            <path id="MK-10" fill="#777777" stroke="#231f20" stroke-width="0.4" stroke-linejoin="round" d="M 198 121 C 198 117 191 114 189 119 C 184 118 179 116 179 111 C 172 114 172 104 165 106 C 170 120 144 98 147 95 C 153 82 137 90 141 81 C 152 78 137 77 135 80 C 137 81 135 81 135 83 C 138 86 137 89 134 85 C 127 86 125 97 125 104 C 121 107 133 114 124 112 C 124 121 101 112 108 122 C 111 115 113 123 111 127 C 110 141 116 133 118 146 C 121 152 129 157 132 163 C 137 169 144 177 151 173 C 155 180 162 175 160 169 C 165 160 188 167 180 151 C 177 144 186 149 188 145 C 190 145 190 148 193 147 C 193 143 195 135 191 133 C 192 128 200 128 198 121 Z"/>
        </g>
    </g>
</svg>
