<?xml version="1.0" encoding="UTF-8"?>
<!-- Generated by Pixelmator Pro 3.6.17 -->
<svg width="3456" height="2234" viewBox="0 0 3456 2234" xmlns="http://www.w3.org/2000/svg">
    <g id="AAGroup">
        <path id="AA-01" fill="#000000" stroke="none" d="M 1359 767 C 1359 789.091431 1376.908569 807 1399 807 L 1550 807 C 1572.091431 807 1590 789.091431 1590 767 L 1590 598 C 1590 575.908569 1572.091431 558 1550 558 L 1399 558 C 1376.908569 558 1359 575.908569 1359 598 Z"/>
        <path id="AA-02" fill="#000000" stroke="none" d="M 1359 1040 C 1359 1062.091431 1376.908569 1080 1399 1080 L 1550 1080 C 1572.091431 1080 1590 1062.091431 1590 1040 L 1590 903 C 1590 880.908569 1572.091431 863 1550 863 L 1399 863 C 1376.908569 863 1359 880.908569 1359 903 Z"/>
        <path id="AA-03" fill="#000000" stroke="none" d="M 1359 469 C 1359 491.091431 1376.908569 509 1399 509 L 1550 509 C 1572.091431 509 1590 491.091431 1590 469 L 1590 308 C 1590 285.908569 1572.091431 268 1550 268 L 1399 268 C 1376.908569 268 1359 285.908569 1359 308 Z"/>
        <path id="AA-04" fill="#000000" stroke="none" d="M 1069 767 C 1069 789.091431 1086.908569 807 1109 807 L 1269 807 C 1291.091431 807 1309 789.091431 1309 767 L 1309 598 C 1309 575.908569 1291.091431 558 1269 558 L 1109 558 C 1086.908569 558 1069 575.908569 1069 598 Z"/>
        <path id="AA-05" fill="#000000" stroke="none" d="M 1359 1331 C 1359 1353.091309 1376.908569 1371 1399 1371 L 1550 1371 C 1572.091431 1371 1590 1353.091309 1590 1331 L 1590 1146 C 1590 1123.908569 1572.091431 1106 1550 1106 L 1399 1106 C 1376.908569 1106 1359 1123.908569 1359 1146 Z"/>
        <path id="Path" fill="#1ee5ce" fill-rule="evenodd" stroke="#e5d7c7" stroke-width="2.506674" stroke-linecap="round" stroke-linejoin="round" d="M 881 912 L 1245 903 L 1330 1075 C 1330 1075 1117.696777 1051.657227 1115 1042 C 1112.303223 1032.342773 961 1035 961 1035 L 743 1162"/>
    </g>
    <g id="BBGroup">
        <path id="BB-01" fill="#000000" stroke="none" d="M 1590 1260 C 1590 1282.091309 1607.908569 1300 1630 1300 L 1944 1300 C 1966.091431 1300 1984 1282.091309 1984 1260 L 1984 231 C 1984 208.908569 1966.091431 191 1944 191 L 1630 191 C 1607.908569 191 1590 208.908569 1590 231 Z"/>
        <path id="BB-02" fill="#000000" stroke="none" d="M 2033 1122 C 2033 1144.091431 2050.908691 1162 2073 1162 L 2422 1162 C 2444.091309 1162 2462 1144.091431 2462 1122 L 2462 302 C 2462 279.908691 2444.091309 262 2422 262 L 2073 262 C 2050.908691 262 2033 279.908691 2033 302 Z"/>
    </g>
</svg>
