<?xml version="1.0" encoding="UTF-8"?>
<!-- Generated by Pixelmator Pro 3.6.10 -->
<svg width="728" height="589" viewBox="0 0 728 589" xmlns="http://www.w3.org/2000/svg">
    <g id="Landen">
        <g id="LITHOUWE">
            <path id="LT-09" fill="#777777" stroke="#231f20" stroke-width="0.4" stroke-linejoin="round" d="M 235 385 C 232 380 228 372 232 372 C 236 373 231 370 230 370 L 225 371 C 222 374 218 368 217 371 C 218 372 216 372 216 372 C 209 378 210 376 205 369 C 202 365 204 362 198 362 C 183 360 186 362 190 348 C 193 347 195 337 192 337 C 194 332 186 334 181 333 C 177 338 177 335 175 330 C 174 329 172 323 171 326 C 169 323 167 321 168 318 C 168 316 166 317 166 317 C 164 318 167 312 168 312 C 172 311 167 308 170 306 C 174 306 176 302 179 302 C 186 303 183 295 185 291 C 191 291 193 285 200 282 C 196 281 199 276 197 273 C 192 272 195 265 192 265 C 182 264 186 264 182 259 C 178 260 182 258 179 256 C 177 252 185 256 182 253 C 182 248 178 251 176 247 C 175 245 176 243 174 243 C 173 243 174 243 174 243 L 173 243 C 173 242 172 240 171 242 C 170 243 173 242 171 243 C 169 243 171 240 169 239 C 166 240 169 237 168 237 C 166 235 167 234 169 232 C 169 231 167 230 169 229 C 169 224 164 232 164 223 C 162 223 163 220 162 219 C 160 217 165 214 162 214 C 155 217 157 209 154 210 C 149 216 141 205 151 202 L 145 193 C 143 192 143 190 143 188 C 143 184 141 183 138 185 C 133 180 142 178 138 173 C 134 176 132 178 125 180 C 123 182 123 185 120 187 C 118 197 109 189 104 195 C 105 196 103 195 103 196 L 103 198 L 100 202 L 98 202 C 98 213 84 217 83 227 C 84 229 80 229 80 232 L 82 237 L 81 243 C 82 249 78 245 76 246 C 71 249 77 253 77 255 C 74 261 83 269 81 277 C 78 300 101 324 100 353 C 91 384 110 399 134 376 C 137 372 139 371 142 376 C 152 393 162 378 176 387 C 181 392 191 389 198 392 C 204 395 205 388 211 389 C 214 408 224 386 235 385 Z"/>
            <path id="LT-08" fill="#777777" stroke="#231f20" stroke-width="0.4" stroke-linejoin="round" d="M 280 215 C 280 215 280 216 280 215 Z M 367 228 C 373 222 367 225 365 221 C 367 221 365 218 365 217 C 364 218 364 216 363 216 L 362 216 C 364 208 355 216 353 205 C 352 202 356 203 357 202 C 355 200 356 200 359 200 C 358 194 363 197 360 189 C 361 175 349 193 349 168 C 350 169 352 171 351 167 L 350 162 C 351 161 354 160 352 159 C 353 154 350 152 355 150 C 357 147 354 142 351 142 C 352 137 350 139 347 137 C 347 135 350 135 346 134 C 345 132 345 131 347 130 C 347 128 345 131 343 131 C 344 128 340 127 338 127 C 332 126 330 118 320 123 C 311 121 306 136 305 121 C 298 123 291 128 287 134 C 278 137 267 128 261 135 C 258 139 248 138 251 143 C 254 149 244 154 239 151 C 235 147 230 132 226 141 C 226 147 221 150 216 151 C 213 153 209 151 207 155 C 207 160 200 156 197 154 C 191 156 183 155 177 156 C 176 158 173 158 173 160 C 170 161 166 157 165 161 C 164 161 162 163 161 162 C 161 161 159 162 158 160 C 156 159 153 162 149 160 C 148 161 148 162 146 162 L 145 163 L 143 164 C 143 166 142 164 141 164 C 140 165 139 165 140 166 C 136 168 138 175 140 178 C 138 179 135 183 138 185 C 141 183 143 184 143 188 C 143 190 143 192 145 193 L 151 202 C 140 205 150 216 154 210 C 157 211 156 217 162 214 C 165 214 160 217 162 219 C 163 220 162 223 164 223 C 164 231 170 224 168 230 C 170 234 164 233 168 237 C 169 237 166 239 168 239 C 171 238 169 244 172 243 C 171 242 171 240 173 242 C 174 242 173 244 174 243 L 176 244 L 176 245 C 176 249 187 253 181 255 C 179 252 178 257 180 257 L 180 259 C 185 260 183 260 185 264 C 184 265 191 265 193 265 C 194 270 199 274 198 281 L 206 283 C 206 280 206 282 208 281 C 210 280 211 283 213 282 C 216 278 223 275 224 283 C 228 282 228 285 228 288 C 228 293 239 290 238 294 L 239 295 L 240 296 L 242 298 C 244 297 244 300 245 299 L 246 301 C 247 301 248 301 247 302 C 248 303 252 304 253 301 C 258 300 253 295 262 295 L 266 294 C 266 296 268 299 265 299 C 265 299 268 302 268 300 C 267 299 269 300 270 299 C 273 302 276 291 281 292 L 281 291 L 283 290 C 284 289 283 286 284 288 C 289 290 282 285 288 287 L 286 282 L 285 281 C 289 280 284 277 288 275 C 290 279 297 274 298 271 C 298 269 300 275 301 276 C 302 279 306 277 304 275 L 306 275 C 310 267 317 277 323 276 C 326 280 327 275 325 272 L 330 270 C 331 272 332 270 333 271 C 336 270 333 280 339 276 C 342 276 346 275 343 272 L 345 270 C 349 261 365 255 361 242 C 361 239 367 243 366 238 C 376 237 365 232 367 228 Z M 295 223 L 290 223 C 282 223 289 215 283 220 L 282 219 C 280 218 281 218 282 216 L 280 215 C 279 219 277 214 276 216 C 274 220 273 216 272 215 C 273 214 276 209 274 209 C 274 207 278 204 276 202 C 280 198 281 194 275 194 C 274 188 282 195 280 190 C 288 184 290 201 293 194 C 294 189 298 196 300 194 C 302 192 303 194 306 194 C 308 196 308 196 306 196 C 306 199 306 201 304 202 C 303 203 299 201 300 204 C 298 189 296 204 293 209 C 292 212 294 208 295 209 L 299 212 C 301 212 299 214 300 215 L 298 215 C 296 215 302 223 295 223 Z M 290 202 L 288 202 C 287 203 290 207 289 205 C 291 205 289 204 290 204 L 290 202 Z"/>
            <path id="LT-07" fill="#777777" stroke="#231f20" stroke-width="0.4" stroke-linejoin="round" d="M 363 354 C 364 343 339 356 345 345 C 346 340 347 336 344 332 C 347 325 338 323 335 327 C 319 320 329 327 314 328 C 309 332 314 318 305 327 C 302 327 291 336 294 327 C 288 327 288 320 284 323 C 285 324 282 324 281 325 C 282 328 279 327 280 329 C 279 331 279 327 277 326 L 275 326 C 275 323 271 327 270 324 L 270 322 C 271 323 270 322 271 321 L 270 318 C 270 317 268 318 269 317 C 267 314 264 320 263 316 C 258 318 262 312 259 311 C 254 317 252 305 251 303 C 250 302 246 303 248 301 L 246 300 L 246 299 C 244 300 244 298 243 298 C 241 298 240 296 239 295 C 237 295 238 288 235 293 C 233 290 228 291 228 288 C 228 285 228 282 224 283 C 223 277 220 278 214 280 C 213 281 213 283 210 282 C 210 279 207 282 206 281 C 206 282 206 284 204 282 C 200 279 197 286 193 286 C 190 288 190 291 185 291 C 183 296 186 302 178 302 C 176 303 173 306 170 306 C 167 308 172 310 169 312 C 166 312 163 318 168 317 C 167 321 169 322 171 326 C 172 323 174 328 175 330 C 176 334 177 338 181 333 C 187 334 194 332 192 337 C 195 337 193 347 190 348 C 186 363 183 360 199 362 C 204 362 202 366 206 370 C 211 377 209 377 216 372 C 219 371 217 368 222 372 C 227 371 229 370 233 371 C 235 373 228 371 231 373 C 229 390 254 384 264 375 L 276 390 C 276 389 278 390 277 389 C 274 385 278 385 280 388 C 283 385 284 393 288 392 C 286 396 288 394 291 393 C 295 400 291 391 298 395 C 300 398 298 401 303 402 C 302 407 307 406 306 412 L 304 413 C 305 414 306 417 304 417 L 302 420 L 302 422 C 298 420 299 425 297 426 C 296 429 300 429 298 431 C 296 434 298 435 300 436 C 298 439 304 438 302 441 C 304 444 299 448 299 452 C 305 455 299 459 303 463 C 307 471 314 482 322 485 C 324 482 321 476 327 476 C 343 477 341 478 337 466 C 345 463 347 457 350 451 C 355 447 349 444 348 438 C 361 436 352 424 358 417 C 358 414 356 414 354 414 C 348 416 350 410 348 405 C 351 400 357 395 358 390 C 356 385 361 393 359 385 C 358 381 362 387 359 381 C 362 374 354 369 348 370 C 350 366 351 362 357 362 C 358 361 359 360 358 359 C 358 355 362 357 363 354 Z M 273 215 L 275 218 C 277 214 279 218 280 215 C 283 217 279 218 283 219 C 290 216 282 222 290 223 C 298 223 300 222 297 215 C 300 216 300 213 298 211 L 295 209 L 293 209 C 296 204 298 189 300 204 C 299 201 303 203 304 202 C 307 201 306 199 306 196 C 309 196 308 196 306 194 C 303 194 301 192 299 195 C 297 196 294 189 293 194 C 290 201 288 184 280 190 C 280 190 281 193 279 192 C 277 190 273 193 276 194 C 282 194 279 198 276 202 C 278 203 273 207 274 209 C 276 209 272 215 273 215 Z M 288 202 C 288 200 290 202 290 202 L 289 205 C 290 207 287 203 288 202 Z"/>
            <path id="LT-06" fill="#777777" stroke="#231f20" stroke-width="0.4" stroke-linejoin="round" d="M 328 323 C 331 327 332 328 338 324 C 341 329 348 321 348 326 C 355 330 350 320 351 319 C 354 315 348 314 348 313 C 347 302 352 315 350 303 C 345 301 352 301 351 300 C 350 299 347 299 349 298 C 349 296 345 297 346 295 C 345 290 338 292 337 287 C 334 284 342 283 337 282 C 341 278 338 277 334 275 L 334 271 L 331 271 C 330 268 327 272 325 272 C 324 273 328 275 326 277 C 324 280 315 272 310 272 C 308 270 306 278 305 274 C 303 285 298 266 297 272 C 290 281 286 271 287 278 C 288 280 287 281 285 281 L 286 282 C 286 282 290 290 286 286 C 284 285 288 291 284 288 C 283 286 283 290 282 291 C 280 289 282 292 281 292 C 275 292 273 301 270 299 C 269 300 267 299 268 300 C 268 302 266 299 265 299 C 268 299 267 294 265 294 C 264 294 260 297 257 295 L 252 303 C 252 306 254 317 260 311 C 262 312 259 315 261 317 C 263 315 264 319 265 317 L 268 316 L 270 318 L 271 321 L 270 323 C 269 325 271 324 272 325 C 273 326 275 322 275 326 L 277 326 C 280 327 279 330 280 329 C 279 327 282 328 281 325 C 284 323 285 324 284 322 C 290 322 288 327 294 327 C 291 334 300 331 301 327 L 305 327 C 314 318 309 332 314 328 C 319 329 323 325 328 323 Z M 542 474 C 538 474 536 475 535 470 C 533 467 529 467 528 464 C 527 463 532 462 532 459 C 528 457 533 457 531 454 C 529 453 527 447 523 451 C 522 450 519 446 521 444 C 523 445 523 443 525 442 C 523 440 525 440 525 439 C 525 438 529 438 527 435 C 529 433 530 434 528 431 C 539 427 521 419 530 413 C 536 412 534 406 533 402 L 527 405 C 525 406 524 407 524 410 C 522 408 518 412 518 413 C 516 416 507 415 507 420 C 503 419 508 413 503 413 C 497 412 493 415 492 421 C 489 421 488 419 484 420 C 484 422 478 424 477 422 C 477 421 476 422 477 422 L 476 424 C 473 423 477 419 475 418 C 476 415 468 417 471 415 C 474 412 468 411 471 409 C 468 410 470 405 468 406 C 468 410 461 411 456 411 C 453 410 455 405 453 406 L 445 414 C 442 414 441 415 440 417 C 439 418 437 412 434 414 C 424 417 435 424 430 427 C 425 429 425 434 420 437 C 421 432 416 437 413 437 C 413 438 414 439 412 438 C 412 440 408 438 409 436 C 414 433 405 423 402 427 C 383 423 408 419 388 416 C 397 409 380 404 386 399 C 379 395 386 389 377 395 C 376 393 382 390 378 388 C 383 386 373 385 376 382 C 374 378 370 382 367 378 C 371 377 370 376 366 375 C 363 373 363 379 362 377 C 359 376 359 383 360 384 C 357 383 360 385 359 389 C 358 390 356 385 358 390 C 357 395 351 400 348 405 C 348 407 349 414 351 414 L 353 414 L 357 415 L 355 436 C 340 436 358 446 350 451 C 351 459 329 469 341 472 C 339 478 342 480 348 482 C 346 494 358 482 360 484 C 364 491 377 485 383 490 C 390 495 400 496 403 505 C 417 515 403 527 412 530 C 414 531 416 533 417 532 C 419 532 423 531 423 533 C 426 534 432 528 435 528 C 438 530 440 527 442 530 C 442 531 444 534 445 530 C 447 527 441 527 443 525 C 445 518 450 524 452 519 C 449 514 461 518 459 521 C 471 522 475 503 485 509 C 487 505 490 515 493 510 C 493 514 497 513 499 514 C 505 510 509 510 510 503 C 512 496 517 491 518 486 C 537 473 520 505 535 483 C 538 482 540 481 540 478 C 537 475 542 476 542 474 Z"/>
            <path id="LT-05" fill="#777777" stroke="none" d="M 487 334 C 485 328 476 329 473 331 C 470 325 457 329 457 325 C 455 323 458 322 458 321 C 458 319 457 318 459 317 C 463 316 457 316 462 313 L 460 313 C 459 312 461 312 459 311 C 460 310 459 311 458 310 C 457 309 455 312 455 309 C 453 310 455 309 454 308 L 453 306 C 452 306 453 304 451 305 L 450 305 L 450 306 L 447 303 C 445 303 444 303 446 300 C 446 297 443 301 443 298 C 438 298 438 292 438 289 C 420 295 434 272 425 278 C 422 277 425 280 425 280 C 424 281 424 280 423 279 C 419 273 424 269 422 264 C 420 264 418 264 418 261 C 417 261 415 260 416 258 C 414 256 411 259 408 257 C 406 256 407 261 401 259 C 395 253 398 259 395 262 C 392 261 394 265 391 265 C 387 260 385 270 382 266 C 385 263 376 257 373 257 C 370 262 365 257 364 252 C 357 255 349 264 345 270 L 343 272 C 346 275 342 276 339 276 C 337 277 339 276 339 278 C 339 281 335 281 339 283 C 334 284 337 292 341 290 C 346 293 346 298 351 300 C 348 301 348 301 350 304 C 348 306 353 306 350 308 C 347 308 348 310 348 313 C 348 314 352 314 352 317 C 349 320 356 325 349 327 C 344 321 344 326 345 332 C 347 337 346 343 344 347 C 345 354 364 344 363 355 C 361 357 358 356 358 359 C 359 360 358 361 357 362 C 352 362 349 366 348 370 C 356 368 357 375 361 377 C 362 377 366 372 370 376 C 363 378 373 382 373 380 C 374 379 381 388 378 388 C 381 390 378 393 376 395 C 386 390 379 394 386 399 C 380 404 396 407 388 416 C 407 418 383 423 402 427 C 405 423 414 433 409 436 C 408 438 412 440 412 438 C 414 439 413 438 413 437 C 416 436 421 432 420 437 C 425 434 425 429 430 427 C 434 424 424 416 435 414 C 444 419 436 415 447 413 C 448 409 451 408 454 406 C 454 407 454 409 456 411 C 469 410 471 408 467 396 C 466 394 469 397 469 394 C 470 394 468 396 471 395 C 471 395 471 394 471 395 C 467 391 473 393 472 391 C 469 389 463 379 467 376 C 464 374 468 373 466 371 C 465 372 467 371 465 370 C 463 369 463 363 466 365 L 468 366 C 472 370 470 361 471 358 C 455 357 476 350 483 348 L 484 348 L 484 346 C 489 347 478 337 484 337 L 484 336 L 485 337 C 485 335 486 338 487 334 Z M 404 358 Z M 404 378 L 404 375 C 406 377 405 374 406 374 L 406 372 C 406 370 404 369 401 370 C 398 374 399 369 397 371 C 396 373 395 371 395 370 C 393 367 399 369 396 364 C 394 363 389 364 385 362 C 383 361 389 362 387 356 L 390 356 C 390 359 395 355 394 354 L 395 351 C 396 353 394 353 396 353 C 397 351 403 349 403 352 C 403 354 407 352 406 353 L 405 354 L 404 355 C 405 355 404 355 404 355 L 404 357 L 402 357 C 401 357 399 357 400 358 L 400 360 L 401 360 L 402 359 L 402 360 L 403 361 L 405 360 C 408 360 409 362 410 364 C 412 363 412 365 413 366 C 414 365 415 366 416 367 C 416 367 414 368 415 369 C 416 366 418 367 420 369 C 419 372 416 374 413 375 C 423 379 410 389 411 381 C 408 384 408 377 405 379 L 404 378 Z M 387 262 C 390 262 391 260 391 258 C 389 257 385 260 387 262 Z M 396 363"/>
            <path id="LT-04" fill="#777777" stroke="#231f20" stroke-width="0.4" stroke-linejoin="round" d="M 404 358 Z M 420 369 C 416 365 415 370 415 368 C 416 367 415 365 413 366 C 412 365 412 363 410 364 C 409 362 408 360 405 360 L 403 361 L 402 360 L 402 359 L 401 360 L 400 360 L 400 358 C 399 357 401 357 402 357 L 404 357 L 404 355 C 404 355 405 355 404 355 L 405 354 L 406 353 C 407 352 404 354 403 352 C 404 349 397 351 396 353 C 394 353 396 353 395 351 L 394 353 C 393 355 393 357 390 357 C 389 355 388 358 387 356 C 386 358 389 362 383 361 C 388 364 393 363 396 364 C 399 369 393 368 395 370 C 396 371 396 373 397 371 C 399 369 398 374 401 370 C 404 369 406 370 406 372 L 406 374 C 405 375 406 377 404 375 C 404 377 403 380 407 378 C 408 381 409 382 411 380 C 410 381 409 382 412 383 C 417 386 419 377 414 375 C 416 374 419 372 420 369 Z M 540 118 C 540 114 534 116 534 116 L 530 114 L 523 114 C 518 116 519 114 517 110 C 512 107 504 108 498 106 C 498 91 488 106 479 99 C 477 101 477 107 473 103 C 471 102 470 108 468 105 C 463 105 459 112 453 106 C 450 102 445 112 437 110 C 434 108 434 103 431 102 C 431 100 429 97 427 97 L 419 93 C 417 90 418 85 414 84 L 407 79 C 407 75 404 69 401 76 C 402 79 404 80 400 81 C 397 78 398 82 396 84 C 396 85 387 86 390 89 C 391 93 382 91 384 95 C 386 99 383 100 382 103 C 385 109 383 110 378 114 C 379 118 381 121 378 124 C 381 126 383 130 386 131 C 388 130 390 131 388 133 C 389 133 392 134 391 137 C 392 141 399 140 397 134 C 400 132 400 138 402 140 C 405 137 409 145 406 146 C 400 147 404 149 402 153 C 403 160 406 157 405 163 C 408 164 407 166 407 168 C 409 169 411 169 411 172 C 414 173 412 163 415 165 C 418 166 421 170 421 173 C 424 173 425 178 428 181 C 425 184 429 185 428 188 C 426 189 423 192 425 193 C 426 195 425 196 427 196 C 428 196 428 201 430 198 C 433 201 434 198 436 199 C 440 196 440 195 444 197 L 444 194 C 446 191 449 194 451 191 C 452 189 454 187 456 189 C 457 187 462 189 464 188 C 466 188 465 195 470 191 C 477 181 489 185 483 178 C 486 176 488 175 488 172 C 488 171 490 169 491 171 C 492 169 496 173 499 173 C 500 167 503 175 506 172 C 506 168 511 172 511 166 C 512 168 514 166 516 166 C 517 166 516 164 518 164 L 520 167 C 522 169 522 162 522 162 C 523 162 522 159 521 160 L 521 156 C 523 156 521 154 523 154 C 530 156 531 154 529 148 L 528 147 C 528 145 529 148 529 147 L 529 146 L 528 143 C 529 143 532 142 531 144 L 533 143 C 535 142 533 140 533 139 C 530 135 536 134 537 133 L 537 132 L 538 130 C 535 126 533 120 540 118 Z"/>
            <path id="LT-03" fill="#777777" stroke="#231f20" stroke-width="0.4" stroke-linejoin="round" d="M 437 217 C 436 215 432 208 431 213 C 428 216 425 209 430 209 C 431 207 432 210 434 210 C 437 208 435 205 432 205 C 432 202 430 200 427 198 C 429 195 427 196 426 196 C 424 192 424 190 428 187 C 428 185 426 184 428 181 C 425 178 424 173 421 173 C 413 153 412 179 410 170 C 407 169 408 165 405 163 C 404 161 407 158 404 158 C 402 157 401 153 403 151 C 403 148 402 146 406 146 C 409 145 405 141 404 139 C 403 139 401 140 401 137 C 397 126 395 148 391 135 C 392 133 388 133 388 133 L 390 131 L 387 131 C 386 133 384 129 383 130 C 378 121 377 130 380 119 C 377 114 377 114 374 119 C 369 118 365 120 362 117 C 358 113 348 130 345 133 C 352 134 345 136 348 138 C 350 136 358 149 355 150 C 352 152 352 153 353 156 C 351 158 353 160 352 160 C 349 162 351 165 352 168 C 351 171 350 168 349 169 C 348 170 351 177 350 181 C 350 185 358 181 360 184 C 360 189 362 193 360 196 C 356 205 347 201 357 212 C 358 214 359 211 360 211 C 362 212 364 214 362 216 L 365 217 C 368 218 363 223 368 223 C 373 224 362 230 370 234 C 374 238 360 240 361 242 C 363 244 359 255 362 252 C 364 250 366 261 370 259 C 374 255 376 259 382 261 L 382 267 C 386 269 387 261 391 265 C 393 265 393 264 394 263 C 394 261 399 263 396 258 C 395 254 401 259 402 259 C 409 259 406 257 413 257 C 419 257 413 261 418 261 C 419 269 432 256 430 253 C 424 245 435 251 439 244 C 436 237 434 238 436 231 C 436 226 429 221 437 217 Z M 391 259 C 391 261 389 262 387 262 C 385 260 391 256 391 259 Z M 654 198 C 651 190 642 198 635 196 C 634 197 632 202 632 198 L 631 199 L 631 200 L 629 201 C 628 200 627 204 625 202 C 612 202 611 206 620 192 C 624 185 610 178 613 169 C 618 164 618 153 612 144 C 611 139 609 142 606 143 L 600 145 C 597 144 589 140 586 146 C 577 136 582 145 572 139 C 564 126 552 128 540 118 C 533 119 535 126 538 130 L 537 132 L 537 133 C 536 134 530 135 533 139 C 534 140 535 142 533 144 L 531 144 C 531 142 529 143 528 143 L 529 146 L 529 147 C 529 148 528 145 528 147 L 529 148 C 534 160 520 151 522 155 L 521 159 C 521 160 523 160 523 162 C 523 162 519 169 522 168 L 522 169 L 521 169 C 521 172 524 168 526 171 C 532 169 533 180 536 181 L 537 178 C 539 176 543 179 546 180 C 554 174 549 185 557 185 C 558 187 562 190 559 191 L 563 195 C 566 201 569 193 569 202 C 571 201 575 207 575 208 L 572 208 C 567 202 568 211 562 208 C 559 210 562 211 564 211 L 565 215 C 565 213 566 216 568 215 C 570 215 568 219 567 220 C 561 220 561 217 561 224 C 559 225 562 226 562 228 C 560 231 565 229 566 232 C 567 234 568 231 570 232 C 568 228 571 232 572 230 C 575 230 579 230 580 226 C 576 228 579 226 580 224 L 581 224 C 580 225 579 219 581 224 C 583 224 586 224 587 222 C 589 223 591 223 591 226 C 599 225 589 236 597 231 C 596 228 599 230 600 227 C 601 226 603 230 605 228 C 606 226 611 229 611 226 L 614 226 C 615 224 617 226 618 225 C 619 223 622 225 623 225 C 622 221 630 223 629 220 C 630 218 631 220 632 219 L 636 215 C 636 213 638 211 636 212 L 636 210 L 639 209 L 639 210 L 640 209 C 639 209 640 209 640 209 C 642 208 647 204 649 205 C 648 205 646 207 648 207 C 650 205 653 202 654 198 Z M 568 277 C 568 275 567 278 566 277 L 566 274 C 564 275 568 269 564 271 L 563 271 L 564 269 C 565 271 565 269 566 269 C 566 267 564 268 564 267 C 563 266 565 265 565 266 C 566 265 568 262 566 261 C 566 264 562 261 561 262 C 558 261 556 261 555 257 L 550 257 L 549 256 C 547 254 548 253 549 252 L 549 250 C 548 252 548 250 548 249 C 547 246 549 245 551 246 L 550 244 L 549 245 C 550 242 548 244 548 243 L 547 241 L 549 242 L 549 237 L 550 236 L 549 236 C 549 235 551 233 549 234 L 548 234 C 549 234 547 232 549 232 L 548 232 L 549 232 L 549 230 L 548 229 C 550 229 548 227 550 226 C 549 225 548 222 548 224 L 544 223 C 543 225 542 225 542 223 L 540 224 L 539 225 C 536 227 537 225 536 225 C 533 226 529 225 528 228 C 526 230 526 224 523 229 C 519 228 520 225 517 230 C 515 229 514 224 511 226 C 509 226 511 226 511 227 C 510 233 507 233 501 236 C 497 237 495 233 492 237 L 492 241 L 491 242 C 491 244 488 243 487 243 C 482 251 487 247 491 251 C 494 254 483 254 488 256 C 489 259 493 257 493 261 L 497 262 L 499 259 L 501 259 C 501 274 503 266 511 269 L 512 269 C 514 269 509 269 510 270 C 510 274 509 277 505 279 C 506 280 508 281 506 282 L 507 288 C 507 290 508 288 509 288 L 512 287 C 514 286 518 291 516 292 C 515 293 516 294 517 295 C 513 296 517 303 519 301 C 517 300 519 296 520 296 C 515 293 524 291 527 293 C 531 293 533 290 535 289 C 537 290 539 288 541 287 L 544 285 C 547 285 546 284 546 282 C 554 282 547 279 552 279 C 554 279 554 276 556 278 L 558 278 L 558 279 C 559 279 559 281 560 279 L 562 278 C 563 280 567 278 568 277 Z"/>
            <path id="LT-02" fill="#777777" stroke="#231f20" stroke-width="0.4" stroke-linejoin="round" d="M 490 421 Z M 527 359 Z M 542 382 C 542 377 536 383 535 379 C 533 376 532 383 528 382 C 526 380 533 369 524 370 C 521 371 524 369 524 369 C 526 368 528 363 530 366 C 533 366 528 363 530 361 C 528 360 525 361 527 359 C 523 359 524 356 522 355 C 520 352 513 357 516 352 C 515 350 510 357 511 352 C 516 349 500 351 508 344 C 508 342 504 342 502 342 C 500 342 505 350 501 347 C 496 346 502 335 495 340 L 490 334 C 489 335 487 333 486 336 C 485 337 485 334 485 337 C 484 335 484 336 484 337 C 478 336 489 347 485 346 L 483 347 C 484 349 481 349 480 349 C 474 350 465 354 466 357 C 463 360 475 355 471 361 C 470 363 473 369 468 366 L 466 365 C 464 362 463 369 465 369 C 466 370 465 372 466 371 C 469 372 464 374 467 376 C 463 378 469 386 468 388 C 470 388 472 391 471 392 C 469 392 470 392 470 394 C 474 395 468 397 469 394 C 467 395 469 397 467 395 C 467 399 470 403 469 407 C 469 408 469 410 471 409 C 469 411 472 411 472 413 C 467 417 475 414 475 418 C 477 419 473 423 476 424 L 477 422 L 477 423 C 480 423 484 421 486 419 C 488 421 490 421 492 420 C 490 416 497 415 498 412 C 500 412 501 414 503 413 C 507 413 503 419 507 420 C 508 415 518 415 520 411 C 521 407 524 411 524 409 C 524 405 528 405 530 403 C 532 403 534 399 537 398 C 538 397 534 394 537 394 C 545 386 539 389 542 382 Z M 575 208 C 574 204 569 203 568 200 C 569 193 565 200 562 194 C 557 190 561 192 559 187 C 557 184 552 185 551 182 C 554 179 550 179 548 178 C 548 179 547 181 545 180 C 542 179 536 175 537 181 C 532 181 532 169 526 171 C 524 169 523 170 522 170 L 521 169 L 522 169 L 521 168 L 519 164 C 517 163 517 165 516 166 L 512 166 C 510 173 506 167 506 172 C 503 175 500 167 499 173 C 496 173 492 169 491 171 C 490 169 488 171 488 172 C 488 175 486 176 483 178 C 489 185 478 180 468 193 C 464 192 466 187 464 188 C 462 189 457 187 456 189 C 454 187 452 189 451 191 C 449 194 442 191 445 197 C 441 197 440 195 436 199 L 433 199 C 432 200 429 197 430 199 C 433 202 430 207 434 205 C 438 207 432 212 432 208 L 429 210 C 425 210 430 216 431 212 C 434 210 436 215 437 217 C 435 219 431 222 434 226 C 434 228 433 227 436 229 C 437 234 432 237 436 239 C 445 250 425 246 429 251 C 434 258 420 259 423 266 C 423 270 419 277 424 280 C 426 280 422 278 427 277 C 431 274 426 290 431 290 C 442 285 435 297 443 298 C 443 300 448 298 444 302 C 446 304 446 302 447 303 L 448 303 C 448 305 449 305 450 306 L 450 305 L 451 305 C 453 304 452 306 453 306 C 457 313 456 298 462 305 C 462 302 464 305 465 304 C 466 302 465 299 468 299 C 471 297 470 299 473 300 C 477 298 483 295 486 291 C 483 288 493 285 491 283 C 492 281 497 283 500 284 C 505 283 505 278 510 275 C 511 274 509 271 511 270 C 513 269 512 268 511 269 L 509 269 C 507 264 502 271 501 267 C 501 265 501 258 500 259 C 498 259 497 261 497 263 C 493 262 492 258 489 258 L 487 255 C 488 253 493 253 491 251 C 488 247 482 251 487 244 C 488 242 491 244 491 242 L 492 241 L 492 237 C 495 233 497 237 501 237 C 507 233 511 232 511 226 L 510 226 L 511 226 C 514 225 515 230 518 230 C 519 225 521 229 523 228 C 526 224 526 230 528 228 C 529 225 533 226 536 225 C 538 224 536 227 539 225 L 540 224 L 542 223 C 541 225 543 225 544 223 L 548 224 L 549 226 C 549 227 550 229 548 229 L 549 230 L 549 232 C 549 231 549 232 549 232 C 547 231 549 232 549 232 C 547 232 549 234 548 234 L 549 234 L 551 233 L 552 232 C 552 229 554 233 556 232 C 557 230 557 234 558 236 C 563 235 560 230 562 229 C 563 227 559 226 561 224 C 559 214 570 226 568 215 C 567 216 565 213 565 215 C 565 214 563 212 564 211 C 562 211 559 210 562 207 C 567 211 567 204 571 207 L 573 208 L 575 208 Z"/>
            <path id="LT-01" fill="#777777" stroke="#231f20" stroke-width="0.4" stroke-linejoin="round" d="M 546 368 Z M 536 345 L 536 346 L 536 345 Z M 649 205 C 645 205 640 209 639 209 L 638 209 L 636 210 C 636 211 635 212 637 212 C 636 213 637 216 633 218 C 633 220 630 218 629 220 C 630 224 623 221 623 225 L 616 225 C 614 225 613 228 611 226 L 609 227 L 606 227 L 604 229 C 599 226 601 227 598 229 C 597 230 598 233 594 232 C 592 230 597 226 592 227 C 590 227 591 221 588 223 C 587 222 586 222 585 224 L 582 224 C 580 224 580 220 580 223 C 581 225 582 225 580 225 C 580 223 576 229 579 226 C 581 230 574 230 572 230 C 571 232 568 228 570 232 C 568 231 567 234 566 232 C 559 224 562 243 556 232 C 556 234 552 229 552 231 L 551 234 C 550 236 551 233 550 233 L 549 236 L 549 242 L 547 242 C 547 244 550 242 549 245 L 551 245 C 549 246 546 246 548 249 C 548 250 548 252 549 250 L 549 252 C 549 253 547 253 548 254 L 549 256 L 550 257 L 555 257 C 556 261 558 261 561 262 C 562 261 566 264 566 261 C 567 262 566 265 565 266 C 565 265 563 266 564 267 C 563 267 567 268 566 269 C 565 269 565 271 564 269 L 563 271 C 565 273 564 271 565 270 C 567 270 564 275 566 274 C 567 274 564 276 566 276 C 567 277 566 278 568 276 C 569 277 566 278 565 278 C 563 280 563 276 562 279 L 559 280 L 558 279 L 557 277 L 555 277 L 551 279 C 547 280 554 282 546 282 L 546 283 C 547 285 544 285 543 286 L 536 289 C 533 289 532 292 528 293 C 525 291 514 293 520 296 C 519 296 517 300 519 301 C 517 303 513 296 517 295 C 516 294 515 293 517 292 C 517 291 514 286 512 287 L 509 288 C 508 288 508 290 507 288 L 506 282 L 506 279 C 499 285 505 285 493 283 C 491 281 491 284 491 285 C 489 284 484 290 486 291 C 483 294 480 297 475 298 C 474 299 471 301 471 298 C 466 298 466 301 464 304 C 462 303 462 304 462 305 C 457 300 457 307 454 309 L 455 309 C 455 309 455 311 456 310 L 457 310 L 459 311 L 460 312 C 460 312 459 312 460 312 C 460 314 461 312 462 313 C 462 315 458 314 461 317 C 458 318 457 322 457 325 C 458 330 470 325 473 332 C 476 328 481 330 485 331 C 487 331 486 335 488 335 C 490 333 493 338 494 339 C 501 337 496 340 499 344 C 501 351 504 348 502 342 C 503 342 508 342 508 344 C 503 349 508 349 511 351 C 515 351 510 352 511 354 C 515 354 515 349 516 355 C 523 350 524 365 530 357 C 532 356 534 359 535 356 C 535 352 532 354 530 353 C 529 354 530 350 528 353 C 525 352 531 352 529 351 C 527 347 533 349 534 350 L 535 348 C 533 346 534 346 535 345 L 535 344 C 535 344 535 345 535 344 L 536 343 C 538 341 536 342 536 341 L 536 339 L 537 337 C 540 336 540 339 542 338 L 542 335 C 543 334 538 334 540 333 C 543 333 539 332 541 332 C 543 334 543 331 545 331 C 550 333 546 337 545 339 C 537 343 546 343 545 348 C 545 349 546 351 547 350 C 546 348 549 347 549 346 L 550 347 C 551 348 550 348 549 348 L 549 352 L 545 352 L 546 353 L 545 353 L 546 353 L 545 354 L 547 354 C 547 355 552 355 550 356 L 550 361 C 552 364 553 365 551 367 C 548 365 548 370 546 368 L 544 368 C 543 369 545 370 547 371 C 546 372 543 370 541 369 C 539 368 537 369 536 370 L 536 375 C 536 377 534 378 533 376 C 531 376 529 380 531 381 C 534 376 536 382 541 380 C 543 382 540 385 542 388 L 536 394 C 538 397 537 398 533 400 C 532 403 536 409 533 412 C 524 415 529 421 533 428 C 525 430 530 434 526 438 C 525 440 523 440 525 442 L 520 446 C 523 454 523 447 528 451 C 531 459 537 454 541 449 C 545 447 555 457 557 445 C 563 435 563 426 567 420 C 573 424 578 416 581 411 C 583 409 583 411 585 411 L 587 406 C 593 411 596 411 600 417 L 598 417 L 596 418 C 605 423 591 426 599 431 C 605 429 612 433 613 429 C 617 427 613 421 618 423 C 620 423 622 420 624 422 C 622 419 621 414 617 413 C 618 408 621 411 614 406 C 613 402 608 408 607 402 C 606 394 596 403 592 404 C 585 397 596 387 591 378 C 584 379 591 375 590 373 C 588 365 596 358 596 352 C 586 335 575 312 586 297 C 582 290 591 288 595 282 C 603 287 604 278 606 272 C 613 272 614 264 613 258 C 611 255 617 253 610 250 C 607 245 617 243 616 239 C 618 237 621 237 623 239 C 624 236 626 238 628 237 C 631 236 630 228 636 232 C 639 229 647 228 647 224 C 652 221 646 222 645 219 C 651 215 645 209 649 205 Z"/>
            <path id="LT-00" fill="#777777" stroke="#231f20" stroke-width="0.4" stroke-linejoin="round" d="M 552 374 C 549 373 550 368 550 366 L 548 365 L 547 364 L 545 364 L 546 363 L 545 363 L 546 363 L 545 362 L 549 362 L 549 358 C 550 358 551 358 550 357 C 548 357 551 356 549 356 L 547 358 L 546 360 C 544 360 547 352 542 354 C 539 350 547 350 546 347 C 548 345 547 342 545 341 C 543 341 543 344 540 342 C 540 343 543 343 540 343 C 538 344 543 344 542 345 L 542 348 C 540 349 540 346 537 347 L 536 349 L 536 351 C 536 352 538 351 536 352 L 535 354 C 535 355 535 354 535 354 L 535 355 C 535 355 535 356 535 355 C 532 356 536 358 534 359 C 535 362 529 356 529 360 C 532 362 525 361 528 363 C 530 361 529 363 531 364 C 533 363 537 364 534 368 C 532 367 530 366 529 369 L 526 370 C 528 371 530 370 529 372 C 530 373 532 375 531 376 L 530 376 C 528 373 525 379 524 379 C 521 381 534 380 528 388 C 525 393 532 392 531 390 C 530 389 531 385 533 387 C 535 390 538 381 536 381 C 536 378 539 378 541 379 C 543 380 546 382 547 381 C 545 380 543 379 544 378 L 546 378 C 547 380 548 377 550 377 C 551 380 551 375 552 374 Z M 536 355 L 536 356 L 536 355 Z"/>
        </g>
    </g>
</svg>
