<?xml version="1.0" encoding="UTF-8"?>
<!-- Generated by Pixelmator Pro 3.6.10 -->
<svg width="2526" height="1966" viewBox="0 0 2526 1966" xmlns="http://www.w3.org/2000/svg">
    <g id="Landen">
        <g id="OEKRAINE">
            <path id="UA-99" fill="#fdbd10" stroke="#231f20" stroke-width="0.4" stroke-linejoin="round" d="M 2121 1333 C 2115 1330 2110 1325 2106 1318 C 2105 1315 2107 1304 2104 1306 C 2104 1306 2106 1308 2105 1309 C 2105 1308 2103 1309 2104 1308 C 2105 1307 2101 1307 2102 1305 C 2104 1297 2112 1297 2103 1294 C 2101 1296 2103 1290 2103 1291 C 2102 1292 2103 1290 2102 1290 L 2103 1289 C 2104 1289 2103 1287 2105 1288 L 2110 1288 C 2118 1285 2118 1283 2119 1276 C 2118 1275 2113 1276 2112 1273 C 2113 1271 2108 1270 2106 1271 C 2108 1282 2090 1269 2090 1278 C 2087 1282 2080 1278 2077 1278 C 2078 1280 2075 1282 2073 1281 C 2070 1280 2069 1283 2068 1284 L 2059 1289 C 2056 1293 2047 1298 2051 1303 C 2060 1321 2019 1321 2025 1307 C 2023 1306 2020 1309 2020 1311 L 2020 1312 L 2021 1313 C 2025 1314 2018 1323 2017 1325 C 2017 1328 2023 1328 2018 1334 C 2020 1337 2018 1338 2015 1340 L 2010 1344 C 1975 1384 1884 1285 1837 1295 C 1833 1320 1820 1300 1807 1298 C 1795 1308 1777 1296 1769 1306 C 1747 1297 1731 1309 1715 1307 C 1709 1309 1720 1319 1723 1322 C 1716 1325 1723 1327 1726 1331 C 1721 1338 1735 1347 1734 1354 C 1737 1352 1740 1347 1746 1347 C 1755 1344 1747 1352 1745 1356 C 1740 1356 1750 1365 1749 1367 C 1747 1364 1740 1364 1739 1363 C 1737 1361 1735 1371 1735 1368 C 1732 1369 1735 1376 1733 1376 C 1732 1376 1732 1374 1731 1375 C 1730 1378 1726 1377 1727 1374 C 1720 1381 1705 1424 1695 1400 C 1692 1403 1703 1417 1692 1419 L 1680 1435 C 1673 1445 1671 1458 1664 1466 C 1664 1467 1661 1469 1663 1470 L 1658 1473 L 1649 1486 C 1648 1491 1645 1498 1646 1503 C 1654 1506 1645 1512 1660 1508 C 1674 1507 1670 1507 1678 1494 C 1700 1469 1752 1517 1756 1496 C 1760 1494 1762 1492 1764 1489 C 1762 1489 1763 1487 1765 1487 C 1791 1485 1821 1519 1811 1539 C 1813 1553 1826 1563 1821 1577 C 1821 1576 1822 1577 1821 1577 L 1820 1576 L 1820 1577 L 1819 1578 L 1818 1577 L 1819 1581 L 1817 1578 L 1815 1579 L 1816 1581 C 1816 1581 1816 1582 1816 1581 L 1815 1581 C 1814 1579 1814 1581 1814 1582 C 1814 1582 1812 1582 1814 1583 C 1814 1585 1815 1585 1816 1586 L 1815 1586 L 1814 1585 C 1811 1583 1815 1589 1814 1588 C 1812 1584 1813 1590 1812 1587 C 1811 1584 1811 1585 1809 1587 L 1813 1590 L 1814 1590 L 1822 1592 L 1826 1594 L 1828 1595 C 1829 1592 1832 1593 1834 1593 C 1836 1593 1837 1594 1838 1592 L 1839 1591 L 1841 1591 L 1840 1590 L 1840 1589 C 1840 1588 1842 1589 1841 1590 L 1844 1590 C 1849 1591 1849 1597 1853 1598 C 1856 1599 1857 1598 1859 1596 L 1861 1597 C 1862 1598 1864 1601 1866 1599 L 1867 1598 L 1870 1598 C 1871 1597 1871 1595 1873 1595 C 1876 1590 1882 1588 1889 1588 L 1892 1586 L 1894 1584 L 1895 1583 L 1896 1582 L 1898 1581 C 1900 1576 1903 1574 1907 1572 L 1907 1560 C 1907 1560 1907 1558 1908 1559 L 1908 1558 L 1911 1556 C 1917 1553 1916 1549 1917 1545 C 1919 1539 1925 1543 1923 1538 C 1922 1536 1920 1533 1923 1532 L 1922 1517 L 1922 1516 C 1922 1516 1922 1515 1922 1516 L 1922 1515 C 1922 1515 1923 1515 1922 1515 C 1922 1515 1923 1515 1922 1515 L 1923 1515 C 1922 1515 1923 1515 1923 1515 L 1923 1514 C 1922 1514 1923 1514 1923 1514 L 1923 1511 L 1924 1510 L 1923 1510 L 1924 1510 C 1923 1509 1924 1507 1925 1506 L 1926 1505 L 1926 1504 L 1927 1503 L 1928 1502 C 1928 1502 1928 1501 1928 1502 L 1928 1501 C 1938 1486 1955 1469 1967 1465 C 1968 1464 1972 1456 1976 1459 C 1977 1458 1979 1456 1982 1457 C 1984 1457 1984 1462 1987 1460 L 1989 1460 L 1991 1455 C 1993 1448 1986 1438 1994 1434 L 1997 1431 C 1997 1429 1998 1427 1996 1426 L 1996 1423 C 1997 1420 2002 1419 2005 1418 C 2007 1417 2011 1420 2011 1418 L 2011 1417 L 2009 1418 L 2007 1416 C 2000 1414 2012 1407 2010 1405 C 1987 1401 2029 1355 2058 1384 C 2063 1385 2065 1373 2071 1375 C 2074 1363 2088 1360 2099 1358 L 2101 1356 C 2101 1350 2109 1347 2115 1344 C 2116 1340 2121 1338 2121 1333 Z"/>
            <path id="UA-91" fill="#e7c91d" stroke="#231f20" stroke-width="0.4" stroke-linejoin="round" d="M 2242 692 C 2240 688 2239 684 2240 681 L 2236 676 C 2236 674 2231 675 2229 672 C 2226 669 2238 667 2239 663 C 2229 667 2233 653 2231 646 C 2224 634 2238 630 2232 621 C 2229 619 2221 613 2224 619 C 2220 619 2224 625 2221 627 C 2218 624 2215 621 2210 625 C 2205 620 2218 617 2216 611 C 2214 612 2214 608 2213 607 C 2213 612 2209 609 2209 607 C 2208 605 2203 603 2203 601 C 2201 600 2196 602 2195 598 C 2187 567 2172 599 2164 589 C 2166 581 2163 579 2164 574 C 2162 573 2163 572 2160 572 L 2159 570 C 2158 568 2160 568 2160 567 C 2158 565 2161 563 2158 562 C 2157 561 2159 559 2160 559 C 2161 559 2160 553 2158 551 C 2159 549 2155 544 2159 545 C 2176 549 2194 528 2176 519 C 2173 520 2173 526 2175 529 C 2167 531 2156 531 2156 537 C 2153 533 2152 533 2149 535 C 2146 533 2148 529 2143 529 C 2142 527 2139 528 2139 526 C 2138 525 2137 526 2136 527 C 2131 527 2129 527 2127 522 C 2140 511 2155 503 2150 479 C 2153 470 2169 455 2154 452 C 2153 434 2124 447 2121 427 C 2119 422 2126 415 2128 410 C 2121 407 2120 403 2115 412 C 2071 466 2061 397 2033 430 C 1992 442 2019 392 1983 448 C 1980 448 1976 443 1976 439 C 1965 443 1945 446 1943 431 C 1936 426 1943 436 1940 440 C 1930 435 1929 452 1919 446 C 1912 441 1912 460 1897 438 C 1879 449 1887 450 1894 464 C 1867 496 1908 482 1888 494 C 1886 501 1899 498 1894 501 C 1893 504 1893 512 1889 507 C 1889 514 1892 519 1898 513 C 1899 518 1899 518 1905 521 C 1900 525 1902 527 1902 532 C 1899 533 1901 535 1900 537 C 1907 540 1900 541 1899 547 C 1912 541 1894 554 1899 558 C 1903 558 1902 569 1907 563 C 1908 565 1910 568 1913 569 C 1915 582 1919 582 1929 584 C 1925 587 1925 590 1926 592 C 1920 597 1930 599 1933 598 C 1937 600 1931 604 1933 607 C 1945 610 1949 604 1954 598 C 1956 615 1975 620 1964 628 C 1960 641 1982 629 1987 623 C 1994 637 1997 637 2007 637 C 2002 640 2009 645 2007 650 C 2015 650 2016 650 2017 654 C 2019 659 2015 663 2013 667 C 2021 667 2023 683 2034 685 C 2033 691 2040 697 2046 692 C 2049 697 2049 687 2052 688 C 2057 701 2063 695 2065 699 C 2064 701 2060 705 2064 708 C 2068 726 2081 691 2092 719 C 2092 721 2095 721 2096 720 C 2101 717 2105 719 2107 719 C 2112 721 2124 712 2122 724 C 2143 740 2154 705 2172 742 C 2185 743 2194 714 2209 726 C 2210 718 2212 716 2221 720 C 2229 710 2252 707 2242 692 Z"/>
            <path id="UA-88" fill="#ffdd19" stroke="#231f20" stroke-width="0.4" stroke-linejoin="round" d="M 584 1410 L 567 1399 C 564 1393 572 1384 559 1385 C 560 1378 552 1378 548 1375 C 545 1371 538 1373 537 1367 C 524 1364 532 1368 528 1376 C 526 1375 524 1376 523 1378 C 520 1374 518 1375 514 1373 C 511 1368 509 1360 504 1357 C 507 1350 502 1348 500 1353 C 498 1355 496 1360 492 1359 C 491 1365 490 1374 482 1366 C 484 1362 481 1359 480 1356 C 482 1351 476 1356 474 1355 C 473 1357 468 1355 469 1353 L 464 1353 C 462 1350 463 1346 460 1344 C 457 1343 454 1348 452 1347 C 448 1346 442 1344 441 1340 C 431 1336 423 1342 412 1343 C 409 1341 407 1334 405 1340 C 403 1344 397 1336 398 1341 C 388 1350 385 1335 377 1334 C 377 1328 364 1336 363 1340 C 358 1337 356 1332 348 1331 C 336 1322 352 1320 343 1314 C 337 1319 333 1310 326 1311 C 326 1314 323 1313 321 1312 C 319 1312 318 1317 316 1315 C 302 1306 299 1309 304 1326 C 301 1329 296 1329 298 1334 C 295 1338 295 1344 296 1348 C 298 1352 294 1351 294 1354 C 292 1358 295 1361 296 1364 C 299 1368 290 1375 297 1377 L 297 1380 C 299 1386 294 1389 291 1395 C 281 1407 284 1424 289 1440 C 294 1437 296 1435 303 1435 C 302 1442 305 1444 312 1444 C 311 1447 324 1463 325 1460 C 328 1455 330 1458 334 1457 C 336 1451 339 1457 342 1459 C 348 1460 347 1463 351 1467 C 352 1467 354 1468 353 1470 C 355 1471 354 1474 355 1475 C 363 1477 367 1472 372 1468 C 373 1468 377 1470 374 1467 C 376 1467 379 1464 378 1468 C 381 1462 382 1470 384 1471 C 387 1468 387 1475 389 1475 C 395 1473 384 1490 391 1487 C 392 1489 393 1487 394 1489 L 396 1489 C 414 1486 386 1479 402 1479 C 406 1479 408 1481 412 1477 C 422 1473 411 1463 417 1457 C 417 1454 420 1451 422 1455 C 425 1459 430 1451 432 1454 C 436 1458 435 1463 442 1461 C 442 1466 450 1463 454 1466 C 471 1470 460 1459 467 1458 C 473 1458 477 1455 482 1458 C 486 1455 489 1453 494 1453 C 500 1453 501 1455 505 1459 C 514 1457 517 1447 526 1450 C 531 1447 534 1455 538 1453 C 542 1448 548 1454 551 1451 C 555 1446 563 1446 565 1441 C 564 1437 567 1436 569 1433 C 580 1434 586 1430 582 1422 C 580 1417 589 1414 584 1410 Z"/>
            <path id="UA-83" fill="#ffd00f" stroke="#231f20" stroke-width="0.4" stroke-linejoin="round" d="M 2170 740 C 2158 704 2133 746 2119 718 C 2114 717 2105 722 2104 717 C 2101 719 2094 722 2092 719 C 2085 693 2062 726 2065 707 C 2058 707 2065 700 2066 697 C 2060 699 2057 697 2054 691 C 2051 685 2050 690 2048 694 C 2045 689 2042 696 2038 693 C 2040 690 2032 692 2036 691 C 2031 683 2020 669 2013 667 C 2015 663 2019 659 2017 654 C 2016 650 2015 650 2007 650 C 2009 646 2002 639 2007 637 C 1994 641 1994 627 1986 626 C 1979 631 1954 638 1967 629 C 1969 615 1957 616 1954 599 C 1949 600 1946 612 1933 607 C 1934 593 1934 602 1924 596 C 1926 605 1923 602 1920 606 C 1863 617 1915 626 1897 640 C 1912 647 1883 648 1893 657 C 1889 657 1899 666 1891 663 L 1888 667 C 1890 668 1891 667 1888 669 C 1888 672 1889 670 1891 672 C 1893 671 1892 672 1891 673 C 1892 676 1895 672 1895 674 C 1899 679 1886 677 1890 682 C 1877 684 1898 705 1885 700 C 1882 699 1876 700 1879 707 C 1875 709 1874 710 1873 713 C 1871 717 1877 718 1879 717 C 1881 720 1880 720 1877 720 C 1869 716 1864 718 1857 722 C 1857 725 1858 730 1855 728 C 1850 728 1839 725 1842 736 C 1851 736 1851 750 1856 752 C 1866 767 1862 753 1873 761 C 1876 758 1879 760 1882 761 C 1892 761 1876 767 1883 771 C 1877 775 1887 779 1889 783 C 1884 784 1890 791 1891 796 C 1891 804 1900 799 1904 797 C 1908 804 1920 814 1912 817 C 1912 817 1915 819 1911 819 C 1917 825 1930 847 1915 844 C 1913 843 1913 846 1910 846 C 1908 848 1906 844 1903 843 C 1901 844 1896 846 1894 844 C 1892 848 1897 844 1894 847 C 1892 848 1894 849 1891 848 L 1890 849 C 1890 850 1888 851 1889 852 C 1891 852 1890 854 1891 856 C 1890 860 1896 859 1893 863 C 1896 861 1896 868 1899 871 C 1904 866 1905 870 1908 873 C 1904 877 1896 880 1902 885 C 1906 880 1906 891 1910 886 C 1913 890 1910 894 1913 898 C 1928 882 1930 917 1944 902 L 1944 905 C 1944 906 1940 907 1942 908 C 1931 916 1952 910 1944 915 C 1952 922 1949 901 1967 918 C 1968 910 1970 912 1976 912 C 1980 912 1984 910 1991 916 C 2008 920 2012 897 2013 928 C 2017 930 2014 933 2012 935 C 2002 923 2007 939 2006 944 C 1993 957 1981 945 2003 969 C 1998 971 1986 975 1996 978 C 1999 977 2005 976 2010 979 C 2011 980 2012 980 2013 978 C 2014 980 2016 980 2016 982 C 2018 983 2018 985 2016 987 C 2022 987 2030 984 2034 985 C 2029 996 2044 989 2038 999 C 2025 1006 2040 1021 2048 1003 C 2049 989 2072 990 2067 1002 C 2070 999 2073 971 2073 961 L 2074 959 L 2074 958 L 2075 960 C 2074 959 2075 960 2075 960 L 2076 960 L 2074 959 L 2074 955 L 2075 955 L 2076 954 C 2076 954 2077 953 2076 954 L 2078 952 L 2077 951 C 2078 951 2077 951 2077 951 C 2076 949 2077 951 2078 951 L 2079 951 C 2077 950 2076 949 2079 951 L 2079 952 C 2080 952 2082 952 2080 951 C 2083 951 2083 947 2084 947 C 2100 948 2105 926 2121 928 C 2122 927 2118 928 2122 926 C 2129 926 2126 919 2132 918 C 2142 919 2143 927 2139 931 C 2146 922 2147 901 2138 891 C 2135 891 2145 881 2144 879 L 2142 877 C 2142 876 2143 874 2141 874 C 2128 879 2123 878 2130 861 C 2127 850 2111 841 2117 830 C 2123 827 2111 822 2122 819 C 2129 815 2124 810 2135 806 C 2143 804 2140 800 2142 797 C 2145 796 2145 796 2143 794 C 2139 789 2151 787 2151 789 C 2151 791 2152 788 2153 788 C 2156 787 2151 782 2151 781 C 2150 778 2152 777 2149 774 L 2145 765 C 2146 764 2150 763 2148 762 C 2140 751 2160 747 2170 740 Z M 2091 947 C 2089 947 2091 948 2091 947 Z"/>
            <path id="UA-79" fill="#fddb00" stroke="#231f20" stroke-width="0.4" stroke-linejoin="round" d="M 567 1068 C 559 1059 534 1056 530 1040 C 531 1034 524 1037 523 1031 C 524 1028 525 1024 523 1020 C 495 1027 512 1016 501 1015 C 475 1008 502 1018 483 1021 C 468 1034 467 1017 451 1020 C 450 1016 446 1004 446 1007 C 444 1009 443 1008 442 1008 C 441 990 422 1012 421 997 L 418 997 C 418 992 415 1000 412 999 C 414 1010 398 1001 396 1001 C 376 984 396 1026 387 1041 C 328 1068 312 1175 290 1233 C 290 1241 310 1253 311 1268 C 314 1274 308 1285 315 1284 C 314 1286 312 1292 315 1294 C 315 1291 318 1287 318 1291 C 316 1297 322 1293 323 1293 C 324 1297 327 1296 329 1297 C 332 1301 331 1297 333 1298 C 333 1300 336 1299 337 1299 C 338 1299 338 1302 336 1303 L 336 1304 L 337 1306 C 337 1307 337 1306 337 1306 L 338 1307 C 337 1312 340 1308 339 1310 C 338 1312 344 1313 341 1315 C 338 1317 346 1313 346 1318 C 347 1319 348 1321 346 1320 C 337 1328 354 1332 358 1335 C 362 1347 368 1330 374 1332 C 376 1332 378 1332 378 1334 C 380 1335 383 1336 384 1338 C 387 1346 396 1345 398 1339 C 402 1341 405 1342 406 1337 C 414 1347 421 1340 429 1339 L 429 1327 C 425 1324 423 1315 427 1312 C 430 1309 423 1312 423 1309 C 420 1305 424 1298 419 1297 C 419 1293 423 1289 422 1286 C 423 1284 425 1286 426 1284 C 429 1279 422 1273 427 1271 C 430 1271 430 1267 431 1265 C 436 1265 445 1264 449 1262 C 451 1255 456 1253 461 1256 C 462 1253 463 1250 465 1249 C 479 1253 484 1236 497 1232 C 505 1238 502 1219 498 1223 C 484 1231 493 1217 486 1216 C 482 1222 479 1216 481 1213 C 488 1212 491 1209 488 1203 C 490 1201 493 1195 486 1197 C 481 1194 480 1190 485 1187 C 483 1179 480 1180 485 1176 C 477 1167 493 1164 490 1169 C 493 1175 497 1165 498 1168 C 503 1170 517 1172 515 1165 C 510 1150 513 1158 522 1149 C 526 1152 521 1146 523 1146 C 525 1146 525 1146 526 1144 C 532 1145 526 1141 532 1142 C 537 1139 534 1126 535 1117 C 551 1122 539 1108 536 1100 L 542 1100 C 544 1099 542 1097 544 1096 C 547 1094 553 1096 555 1092 C 559 1094 558 1089 558 1087 C 573 1080 557 1074 567 1068 Z"/>
            <path id="UA-76" fill="#fdbd10" stroke="#231f20" stroke-width="0.4" stroke-linejoin="round" d="M 677 1319 C 672 1306 656 1282 662 1264 C 660 1264 655 1265 657 1261 C 659 1250 631 1257 632 1245 C 626 1244 629 1247 631 1249 C 627 1252 617 1247 621 1254 C 604 1247 608 1267 605 1246 C 606 1240 598 1246 600 1247 C 596 1251 604 1256 597 1257 C 584 1240 601 1252 587 1238 C 587 1238 587 1235 586 1237 C 584 1244 574 1234 571 1243 C 570 1235 555 1238 561 1229 C 572 1230 567 1227 564 1221 C 551 1225 545 1214 554 1204 C 546 1203 536 1201 538 1190 C 540 1188 538 1187 536 1186 C 533 1180 531 1184 529 1186 C 528 1182 525 1177 521 1174 C 517 1167 511 1168 507 1170 C 500 1166 495 1171 491 1170 C 491 1165 484 1166 483 1172 C 489 1178 477 1177 484 1183 C 487 1187 483 1188 481 1191 C 483 1200 496 1194 488 1203 C 496 1213 474 1210 483 1219 C 495 1208 480 1233 501 1222 C 500 1224 505 1234 500 1233 C 491 1228 484 1246 477 1246 C 472 1253 463 1244 461 1256 C 452 1252 449 1265 438 1265 C 434 1266 431 1262 430 1268 C 426 1274 424 1269 427 1281 C 427 1285 424 1285 422 1285 C 422 1287 422 1290 420 1293 C 419 1296 420 1313 428 1310 C 424 1315 424 1323 430 1328 C 426 1341 432 1338 441 1340 C 442 1344 448 1346 452 1347 C 454 1348 457 1343 460 1344 C 464 1347 462 1356 469 1353 C 472 1360 479 1351 481 1355 C 479 1357 482 1359 482 1361 C 480 1367 489 1372 491 1366 C 487 1359 498 1357 500 1353 C 506 1345 503 1355 506 1357 C 510 1361 511 1372 517 1374 C 520 1374 518 1377 520 1375 C 523 1377 523 1379 525 1376 C 529 1375 529 1375 529 1371 C 531 1370 528 1367 529 1366 C 534 1367 537 1366 539 1371 L 550 1375 C 565 1381 554 1385 564 1385 C 569 1387 566 1389 566 1391 C 568 1393 565 1398 567 1400 C 573 1405 582 1406 586 1413 C 582 1417 582 1420 582 1424 C 582 1430 590 1427 593 1432 C 600 1433 599 1441 604 1442 C 611 1445 614 1442 621 1443 C 621 1450 632 1450 633 1457 C 639 1457 639 1428 635 1429 C 628 1427 633 1424 629 1421 C 623 1419 617 1408 622 1400 L 625 1393 C 626 1392 618 1386 625 1387 C 632 1388 627 1377 632 1376 C 625 1370 637 1374 635 1370 C 623 1363 638 1361 639 1352 C 640 1338 651 1323 664 1321 C 667 1320 669 1323 671 1322 C 674 1321 675 1322 677 1319 Z"/>
            <path id="UA-73" fill="#e7c91d" stroke="#231f20" stroke-width="0.4" stroke-linejoin="round" d="M 1560 1395 L 1559 1395 L 1560 1395 Z M 1538 1385 L 1539 1385 L 1538 1385 Z M 1560 1396 C 1560 1396 1559 1396 1560 1396 Z M 1559 1396 L 1538 1398 C 1543 1399 1554 1397 1559 1396 Z M 1534 1391 L 1535 1391 L 1534 1391 Z M 1534 1385 L 1534 1384 L 1534 1385 Z M 1536 1391 C 1536 1391 1535 1391 1536 1391 Z M 1537 1391 L 1536 1391 L 1537 1391 Z M 1529 1398 L 1529 1397 L 1529 1398 Z M 1656 1357 L 1655 1357 L 1656 1357 Z M 1634 1383 C 1633 1383 1634 1383 1634 1383 Z M 1656 1357 L 1657 1357 L 1656 1357 Z M 1613 1387 Z M 1667 1371 C 1661 1372 1651 1372 1646 1377 C 1647 1375 1646 1377 1645 1377 C 1648 1375 1642 1375 1640 1374 L 1640 1376 C 1640 1376 1639 1375 1640 1376 C 1634 1385 1630 1385 1615 1387 C 1589 1393 1658 1382 1667 1371 Z M 1624 1385 C 1625 1385 1624 1385 1624 1385 C 1624 1386 1624 1386 1624 1385 Z M 1563 1395 L 1560 1396 L 1563 1395 Z M 1498 1391 L 1498 1390 L 1498 1391 Z M 1497 1351 C 1496 1351 1497 1351 1497 1351 C 1497 1351 1497 1350 1497 1351 Z M 1537 1399 C 1511 1403 1476 1420 1468 1392 C 1466 1421 1521 1403 1537 1399 Z M 1486 1374 C 1490 1377 1495 1382 1495 1379 C 1494 1378 1492 1378 1493 1377 L 1491 1376 L 1489 1375 L 1491 1376 C 1491 1377 1485 1371 1486 1374 Z M 1669 1339 C 1669 1338 1669 1339 1669 1339 Z M 1497 1397 L 1498 1397 C 1497 1397 1497 1395 1497 1397 Z M 1495 1348 L 1498 1348 L 1495 1348 Z M 1498 1348 L 1499 1348 L 1498 1348 Z M 1499 1348 L 1499 1349 L 1499 1348 Z M 1510 1392 C 1510 1392 1511 1392 1510 1392 Z M 1509 1394 L 1508 1394 L 1509 1394 Z M 1515 1388 C 1514 1388 1515 1389 1515 1388 Z M 1510 1392 L 1511 1392 L 1510 1392 Z M 1498 1389 L 1498 1390 L 1498 1389 Z M 1499 1388 L 1498 1389 L 1499 1388 Z M 1498 1403 L 1497 1402 L 1498 1403 Z M 1509 1393 C 1509 1394 1509 1394 1509 1393 C 1509 1393 1508 1393 1509 1393 Z M 1562 1395 C 1562 1395 1561 1395 1562 1395 Z M 1510 1348 L 1510 1347 L 1510 1348 Z M 1523 1339 L 1521 1342 C 1522 1342 1523 1341 1523 1339 Z M 1523 1361 L 1523 1362 L 1523 1361 Z M 1673 1343 C 1673 1344 1673 1343 1673 1343 Z M 1521 1342 C 1519 1343 1520 1343 1521 1343 L 1521 1342 Z M 1524 1365 L 1525 1364 L 1524 1365 Z M 1526 1362 C 1525 1362 1525 1362 1526 1362 Z M 1526 1363 L 1526 1362 L 1526 1363 Z M 1527 1338 C 1525 1338 1532 1341 1533 1340 L 1527 1338 Z M 1543 1334 L 1542 1334 L 1543 1334 Z M 1543 1335 L 1542 1336 L 1543 1335 Z M 1542 1330 C 1543 1331 1542 1329 1542 1330 C 1542 1330 1543 1330 1542 1330 Z M 1541 1335 C 1541 1334 1540 1334 1541 1335 Z M 1540 1335 L 1541 1336 C 1542 1336 1542 1335 1540 1335 Z M 1543 1336 C 1544 1338 1543 1336 1545 1336 L 1543 1336 Z M 1544 1336 C 1545 1336 1543 1338 1546 1337 C 1544 1336 1545 1336 1547 1336 C 1548 1334 1541 1336 1544 1336 Z M 1525 1363 L 1526 1363 L 1525 1363 Z M 1706 1350 C 1706 1349 1706 1350 1706 1350 C 1707 1350 1707 1350 1706 1350 Z M 1677 1355 L 1678 1355 L 1677 1355 Z M 1523 1363 L 1522 1364 L 1523 1363 Z M 1691 1348 L 1691 1349 L 1691 1348 Z M 1690 1349 C 1689 1349 1690 1349 1690 1349 Z M 1675 1353 Z M 1677 1348 L 1677 1349 L 1677 1348 Z M 1676 1353 L 1676 1354 L 1676 1353 Z M 1678 1355 L 1677 1356 L 1678 1355 Z M 1514 1378 L 1514 1377 L 1514 1378 Z M 1511 1379 L 1513 1378 L 1511 1379 Z M 1707 1350 Z M 1514 1377 L 1515 1376 L 1514 1377 Z M 1512 1358 C 1512 1359 1509 1358 1510 1359 L 1512 1358 Z M 1900 1310 C 1868 1283 1833 1251 1872 1217 C 1862 1223 1860 1184 1849 1192 C 1819 1198 1839 1176 1814 1195 C 1812 1189 1807 1194 1804 1187 C 1813 1183 1803 1171 1796 1179 C 1795 1175 1792 1179 1790 1180 C 1787 1178 1785 1174 1790 1172 C 1789 1165 1804 1167 1793 1152 C 1803 1149 1795 1136 1788 1143 L 1780 1131 C 1775 1136 1772 1128 1767 1135 C 1762 1130 1752 1128 1748 1117 C 1736 1121 1734 1093 1730 1091 C 1727 1095 1726 1090 1724 1088 C 1726 1087 1729 1085 1726 1082 C 1726 1081 1718 1090 1716 1090 C 1717 1093 1720 1093 1717 1095 C 1719 1100 1708 1096 1709 1104 C 1702 1101 1696 1088 1690 1082 C 1678 1070 1619 1109 1617 1100 C 1607 1112 1613 1090 1605 1091 C 1601 1089 1590 1097 1598 1103 C 1583 1110 1586 1115 1583 1122 C 1574 1114 1580 1111 1570 1119 C 1571 1105 1562 1118 1552 1117 C 1553 1131 1567 1116 1561 1127 C 1564 1134 1574 1141 1563 1145 C 1561 1145 1559 1130 1556 1138 C 1559 1145 1558 1158 1570 1146 C 1579 1158 1569 1165 1588 1168 C 1585 1171 1580 1171 1586 1175 C 1584 1179 1578 1172 1578 1177 L 1577 1177 C 1580 1180 1576 1182 1576 1184 C 1577 1187 1573 1184 1572 1184 L 1567 1187 C 1562 1206 1575 1208 1592 1209 C 1594 1224 1582 1213 1579 1221 C 1582 1227 1586 1224 1589 1227 C 1587 1230 1580 1231 1584 1234 C 1582 1236 1574 1239 1576 1243 C 1579 1244 1583 1240 1585 1239 C 1586 1241 1587 1241 1590 1240 C 1591 1245 1572 1251 1573 1257 C 1563 1260 1564 1252 1553 1258 C 1544 1263 1540 1250 1547 1268 C 1512 1274 1548 1286 1512 1280 C 1520 1283 1509 1287 1516 1292 C 1510 1298 1507 1301 1500 1305 C 1515 1315 1499 1313 1503 1318 C 1489 1331 1514 1317 1522 1331 C 1526 1325 1537 1314 1541 1323 C 1543 1325 1540 1325 1541 1326 C 1541 1330 1542 1325 1542 1327 C 1544 1326 1541 1328 1542 1328 L 1544 1330 C 1542 1332 1544 1331 1546 1331 C 1540 1334 1543 1331 1546 1332 C 1547 1333 1541 1335 1546 1333 C 1542 1336 1549 1333 1549 1336 C 1550 1336 1555 1325 1560 1328 C 1561 1335 1537 1341 1530 1340 C 1521 1341 1516 1349 1509 1350 L 1497 1350 C 1484 1361 1497 1360 1511 1359 L 1506 1358 L 1510 1358 C 1504 1357 1516 1358 1513 1355 C 1512 1356 1514 1356 1512 1356 C 1513 1358 1510 1357 1512 1356 C 1516 1350 1523 1360 1526 1362 C 1526 1363 1523 1366 1522 1365 C 1522 1380 1500 1380 1498 1390 C 1499 1392 1498 1393 1499 1391 C 1498 1391 1503 1394 1503 1396 C 1505 1396 1503 1393 1504 1393 L 1506 1394 L 1505 1393 L 1506 1393 C 1509 1397 1506 1392 1510 1392 C 1510 1392 1509 1392 1510 1392 C 1511 1392 1509 1392 1510 1392 C 1511 1393 1511 1390 1514 1392 C 1515 1390 1514 1386 1515 1388 C 1515 1385 1512 1386 1511 1384 L 1512 1383 C 1513 1382 1513 1384 1514 1385 C 1518 1381 1522 1389 1526 1387 C 1527 1389 1528 1387 1528 1385 L 1528 1387 C 1528 1389 1530 1387 1531 1387 C 1533 1388 1533 1384 1534 1384 C 1537 1382 1544 1393 1550 1387 L 1551 1387 C 1552 1386 1553 1388 1554 1386 C 1554 1389 1550 1387 1555 1390 L 1556 1390 C 1555 1388 1558 1389 1557 1388 C 1556 1387 1567 1382 1562 1387 C 1553 1418 1667 1359 1652 1353 L 1650 1352 C 1651 1352 1650 1350 1651 1351 C 1651 1353 1652 1350 1655 1349 C 1664 1355 1673 1346 1667 1337 C 1669 1337 1670 1327 1670 1334 C 1669 1337 1671 1339 1674 1341 C 1674 1343 1672 1350 1676 1350 C 1673 1347 1676 1343 1680 1341 C 1685 1339 1692 1348 1685 1347 C 1684 1350 1689 1352 1689 1349 C 1686 1341 1689 1343 1694 1344 L 1695 1343 C 1694 1342 1696 1343 1695 1343 C 1694 1347 1709 1352 1704 1350 C 1709 1343 1710 1349 1716 1346 C 1707 1343 1711 1336 1719 1336 C 1700 1334 1714 1331 1712 1328 C 1710 1331 1712 1326 1714 1325 L 1714 1322 C 1718 1319 1719 1327 1722 1322 C 1689 1292 1790 1312 1808 1297 C 1822 1305 1834 1315 1837 1295 C 1844 1296 1867 1300 1871 1297 C 1872 1313 1893 1315 1900 1310 Z M 1512 1384 L 1513 1384 L 1512 1384 Z"/>
            <path id="UA-69" fill="#ffdd19" stroke="#231f20" stroke-width="0.4" stroke-linejoin="round" d="M 2035 993 C 2031 994 2034 987 2034 985 C 2031 985 2029 982 2028 986 C 2015 989 2019 984 2013 978 C 2013 981 2005 978 2003 976 C 1994 981 1987 975 1999 970 C 2008 971 1991 957 1989 952 C 1995 950 2005 950 2006 942 C 2009 938 2001 933 2007 930 C 2020 943 2011 920 2012 913 C 2010 910 2000 912 2002 916 C 1996 921 1982 909 1976 912 C 1962 909 1974 926 1953 910 C 1952 915 1941 920 1946 913 C 1946 910 1943 914 1941 914 C 1936 910 1941 908 1944 905 C 1946 899 1939 906 1936 908 C 1935 908 1931 896 1929 901 C 1922 883 1911 907 1911 888 C 1904 887 1896 905 1887 901 C 1879 903 1885 907 1878 910 C 1875 904 1866 918 1866 908 C 1864 908 1860 917 1856 915 C 1851 920 1847 905 1854 913 C 1862 910 1851 904 1852 901 C 1848 898 1848 905 1844 898 C 1842 902 1840 899 1843 897 C 1842 893 1837 894 1835 891 C 1839 890 1837 887 1836 886 C 1833 880 1829 893 1827 889 C 1828 888 1826 886 1826 888 C 1823 886 1826 883 1822 883 C 1816 893 1809 895 1803 893 C 1790 892 1782 895 1773 908 C 1751 913 1731 914 1718 937 C 1716 934 1713 940 1710 940 C 1706 935 1710 934 1703 936 C 1697 937 1708 945 1709 948 C 1704 951 1706 953 1709 956 C 1714 958 1719 959 1723 965 C 1710 970 1721 968 1712 974 C 1717 980 1716 984 1721 977 C 1723 982 1733 978 1728 986 C 1733 1000 1738 986 1743 994 C 1741 996 1747 999 1742 1000 C 1744 1003 1747 1006 1742 1008 C 1743 1012 1755 1015 1750 1019 C 1765 1023 1757 1037 1742 1035 C 1721 1038 1657 1078 1690 1082 C 1695 1089 1702 1098 1709 1104 C 1709 1097 1713 1100 1718 1096 C 1716 1089 1719 1088 1726 1082 C 1724 1100 1729 1085 1735 1095 C 1724 1103 1760 1133 1765 1132 C 1767 1140 1772 1126 1775 1134 C 1784 1123 1784 1150 1794 1140 C 1805 1154 1789 1143 1797 1163 C 1795 1168 1782 1173 1790 1180 C 1794 1176 1798 1180 1803 1175 C 1806 1179 1811 1184 1804 1187 C 1807 1193 1812 1190 1814 1195 C 1838 1177 1819 1198 1849 1192 C 1858 1187 1863 1213 1869 1219 C 1876 1228 1820 1262 1877 1255 C 1909 1232 1896 1112 1955 1103 C 1960 1094 1974 1095 1976 1105 L 1976 1102 L 1974 1099 C 1975 1099 1971 1097 1974 1098 L 1977 1102 L 1975 1098 C 1975 1097 1974 1098 1975 1098 L 1974 1097 L 1976 1097 C 1975 1096 1969 1097 1972 1096 L 1975 1096 C 1972 1096 1974 1095 1976 1095 C 1978 1099 1976 1107 1977 1110 L 1975 1118 L 1973 1122 L 1973 1125 L 1972 1123 L 1972 1122 L 1970 1121 L 1971 1121 L 1970 1120 C 1969 1121 1972 1124 1971 1126 C 1972 1127 1970 1129 1969 1129 L 1968 1130 C 1971 1131 1971 1124 1975 1125 C 1978 1115 1977 1101 1977 1090 C 1977 1092 1978 1095 1976 1093 C 1975 1092 1976 1088 1977 1090 C 1976 1087 1978 1084 1978 1090 C 1979 1074 2007 1043 2020 1051 C 2031 1049 2031 1063 2028 1066 L 2026 1068 C 2026 1068 2028 1070 2026 1070 C 2030 1076 2031 1059 2030 1056 C 2019 1038 2048 1015 2032 1009 C 2032 1002 2047 993 2035 993 Z"/>
            <path id="UA-68" fill="#ffd00f" stroke="#231f20" stroke-width="0.4" stroke-linejoin="round" d="M 1309 1445 C 1309 1454 1299 1451 1296 1457 C 1290 1458 1283 1458 1281 1465 C 1283 1480 1249 1441 1259 1462 C 1256 1467 1251 1462 1251 1466 C 1261 1477 1254 1481 1247 1481 C 1244 1468 1233 1478 1231 1471 C 1235 1468 1221 1463 1222 1466 C 1221 1472 1218 1476 1222 1479 C 1219 1477 1214 1468 1211 1469 C 1209 1471 1213 1473 1211 1475 C 1206 1479 1215 1482 1213 1485 C 1207 1484 1211 1493 1207 1494 C 1199 1496 1208 1488 1204 1487 C 1197 1484 1204 1474 1199 1474 C 1192 1453 1189 1478 1179 1481 C 1157 1510 1179 1490 1182 1523 C 1180 1533 1206 1526 1198 1538 C 1191 1562 1213 1568 1181 1582 C 1183 1605 1196 1594 1183 1613 C 1191 1620 1170 1622 1172 1624 C 1175 1627 1176 1630 1172 1632 C 1165 1626 1164 1648 1168 1646 C 1182 1646 1172 1661 1177 1667 C 1185 1674 1168 1681 1169 1671 C 1117 1683 1181 1728 1217 1713 C 1225 1712 1235 1705 1223 1702 C 1232 1691 1212 1686 1239 1692 C 1260 1662 1305 1612 1337 1670 C 1337 1669 1335 1669 1336 1667 C 1337 1667 1337 1670 1338 1669 C 1338 1667 1337 1667 1339 1667 L 1339 1668 L 1339 1667 C 1343 1670 1331 1660 1336 1663 C 1343 1666 1340 1664 1339 1660 C 1339 1658 1334 1658 1335 1656 C 1338 1653 1339 1664 1338 1654 C 1338 1646 1332 1636 1329 1634 C 1332 1635 1327 1622 1327 1625 C 1325 1630 1325 1619 1324 1622 C 1325 1625 1320 1627 1322 1628 C 1321 1627 1318 1627 1320 1629 C 1281 1643 1377 1519 1372 1466 C 1373 1454 1379 1425 1376 1429 C 1363 1431 1303 1456 1309 1445 Z"/>
            <path id="UA-65" fill="#fddb00" stroke="#231f20" stroke-width="0.4" stroke-linejoin="round" d="M 1409 1366 C 1409 1357 1396 1347 1393 1334 C 1385 1333 1358 1322 1375 1315 C 1374 1309 1399 1309 1388 1300 C 1395 1297 1396 1294 1391 1287 C 1376 1258 1374 1289 1365 1282 C 1360 1276 1366 1282 1368 1277 C 1363 1269 1369 1255 1355 1270 C 1345 1280 1345 1261 1334 1274 C 1331 1267 1322 1268 1329 1263 C 1320 1262 1326 1246 1318 1253 C 1316 1248 1316 1245 1312 1240 C 1317 1238 1314 1235 1312 1232 C 1310 1233 1308 1236 1306 1233 C 1302 1235 1298 1238 1295 1232 C 1301 1230 1295 1225 1295 1221 C 1298 1215 1289 1223 1287 1224 C 1291 1228 1290 1231 1284 1233 C 1283 1222 1276 1233 1271 1233 C 1265 1240 1261 1234 1255 1238 C 1254 1233 1239 1220 1247 1218 C 1242 1212 1250 1214 1243 1208 C 1226 1224 1229 1191 1213 1192 C 1208 1185 1212 1179 1202 1178 C 1206 1176 1204 1171 1209 1171 C 1209 1167 1213 1168 1216 1165 C 1215 1161 1209 1167 1208 1161 C 1204 1162 1200 1165 1194 1164 C 1178 1182 1170 1158 1167 1164 C 1159 1161 1160 1167 1160 1173 C 1153 1170 1149 1172 1145 1176 C 1128 1184 1138 1180 1140 1193 C 1137 1194 1142 1196 1139 1195 C 1136 1196 1135 1193 1132 1194 C 1132 1199 1131 1201 1127 1203 C 1121 1205 1108 1200 1110 1210 C 1109 1213 1105 1212 1103 1215 C 1099 1215 1098 1216 1096 1214 C 1093 1213 1092 1218 1089 1214 C 1091 1212 1093 1213 1094 1210 C 1093 1210 1092 1205 1091 1209 L 1081 1214 C 1083 1212 1080 1210 1079 1212 C 1075 1211 1071 1207 1068 1209 C 1067 1212 1073 1226 1065 1218 L 1063 1219 C 1050 1218 1067 1228 1052 1233 C 1053 1231 1049 1234 1051 1235 C 1054 1233 1053 1243 1057 1242 C 1065 1250 1073 1245 1083 1246 C 1088 1245 1085 1243 1084 1240 C 1089 1243 1086 1239 1084 1239 C 1085 1237 1088 1237 1089 1236 C 1085 1235 1093 1233 1093 1233 L 1096 1237 C 1103 1260 1117 1235 1108 1252 C 1104 1264 1110 1262 1117 1259 C 1118 1265 1117 1271 1114 1273 C 1116 1280 1121 1282 1120 1288 C 1124 1286 1122 1292 1121 1291 C 1124 1293 1122 1294 1122 1296 C 1123 1301 1117 1305 1116 1307 C 1126 1319 1122 1305 1128 1315 C 1129 1316 1125 1322 1127 1321 C 1131 1312 1130 1328 1133 1323 C 1137 1311 1135 1323 1139 1324 C 1145 1306 1150 1328 1153 1332 C 1160 1310 1163 1356 1174 1335 C 1169 1325 1174 1327 1179 1321 C 1177 1309 1191 1336 1189 1335 C 1178 1342 1209 1356 1187 1359 C 1186 1361 1198 1370 1196 1365 C 1204 1350 1206 1370 1207 1377 C 1212 1382 1204 1387 1206 1390 C 1209 1392 1208 1391 1209 1390 C 1217 1375 1217 1393 1225 1382 C 1227 1381 1233 1395 1235 1391 C 1253 1374 1244 1389 1255 1390 C 1256 1388 1256 1384 1260 1387 C 1263 1392 1257 1399 1265 1400 C 1271 1410 1272 1428 1276 1433 C 1267 1441 1270 1440 1274 1445 C 1281 1447 1279 1448 1281 1440 C 1281 1451 1283 1444 1283 1439 C 1285 1438 1285 1441 1285 1443 C 1284 1451 1286 1434 1286 1443 C 1285 1449 1285 1447 1289 1446 C 1289 1447 1285 1448 1288 1448 C 1294 1446 1286 1450 1288 1450 C 1288 1448 1287 1446 1290 1446 C 1290 1447 1290 1451 1292 1450 L 1292 1447 C 1296 1443 1298 1452 1299 1446 C 1300 1446 1303 1448 1300 1445 C 1299 1444 1299 1450 1301 1449 C 1301 1446 1302 1443 1306 1447 C 1303 1454 1380 1429 1378 1427 C 1379 1413 1371 1409 1368 1409 C 1363 1397 1372 1399 1379 1393 C 1387 1383 1401 1375 1409 1366 Z"/>
            <path id="UA-61" fill="#fdbd10" stroke="#231f20" stroke-width="0.4" stroke-linejoin="round" d="M 1925 590 C 1931 582 1928 580 1919 584 C 1915 578 1914 568 1907 565 C 1904 564 1902 565 1901 558 C 1892 554 1906 551 1903 544 C 1896 550 1900 541 1904 540 C 1897 537 1902 534 1902 530 C 1904 527 1900 524 1905 521 C 1903 519 1895 517 1899 515 C 1896 510 1893 520 1890 515 C 1889 510 1888 507 1893 508 C 1892 490 1906 512 1911 515 C 1898 515 1905 509 1910 504 C 1907 503 1896 498 1897 496 C 1898 490 1875 483 1867 484 C 1855 469 1839 469 1825 464 C 1820 463 1818 459 1813 457 C 1809 428 1786 457 1779 428 C 1767 439 1764 449 1755 461 C 1745 467 1729 475 1724 488 C 1714 495 1723 516 1705 510 C 1706 503 1705 503 1698 506 C 1696 504 1690 504 1688 507 C 1682 501 1685 518 1674 517 C 1665 510 1651 500 1639 505 C 1622 516 1615 518 1613 537 C 1610 539 1606 539 1605 543 C 1609 541 1609 539 1609 545 C 1606 554 1602 543 1599 551 C 1589 554 1603 560 1588 559 C 1586 556 1577 560 1581 563 C 1583 568 1574 562 1573 566 L 1573 571 C 1585 571 1568 575 1573 580 C 1572 584 1567 586 1562 586 C 1560 593 1556 596 1557 603 C 1555 604 1556 600 1552 602 C 1552 605 1544 603 1551 608 C 1544 613 1553 620 1557 622 C 1544 643 1566 659 1582 647 C 1579 657 1600 641 1603 649 C 1609 672 1614 654 1616 665 C 1615 673 1625 661 1629 667 C 1631 666 1639 658 1637 663 C 1664 681 1638 674 1649 685 C 1653 683 1658 683 1658 689 C 1654 691 1646 692 1641 693 C 1642 698 1642 704 1648 701 C 1655 710 1648 719 1653 729 C 1652 734 1641 732 1634 737 C 1631 740 1623 732 1623 739 C 1623 750 1635 774 1639 760 C 1641 759 1640 764 1642 761 L 1643 764 C 1644 756 1650 761 1653 755 C 1658 755 1653 757 1656 760 C 1656 758 1660 758 1660 759 C 1659 759 1658 760 1659 761 C 1658 761 1657 763 1658 764 C 1660 762 1661 763 1662 763 L 1662 760 L 1664 759 L 1668 762 L 1671 761 C 1674 763 1681 767 1686 765 C 1689 768 1694 767 1697 768 C 1699 769 1701 770 1701 766 L 1703 766 C 1707 765 1708 765 1710 762 C 1714 760 1713 763 1716 762 C 1716 760 1718 760 1719 761 C 1722 756 1723 765 1724 762 C 1725 761 1725 754 1728 760 C 1730 759 1731 757 1733 757 C 1733 760 1739 761 1737 757 C 1738 754 1741 752 1741 748 C 1749 747 1743 741 1753 743 C 1752 747 1759 748 1763 748 C 1762 752 1760 756 1766 755 C 1760 766 1771 756 1773 761 C 1773 764 1774 765 1777 763 C 1790 759 1786 781 1808 776 C 1806 791 1823 778 1817 795 C 1821 797 1821 793 1822 790 L 1827 792 C 1826 790 1830 784 1827 785 C 1827 744 1842 783 1856 758 C 1867 757 1848 749 1853 746 C 1841 733 1836 726 1855 728 C 1858 730 1857 724 1857 722 C 1865 716 1872 719 1880 719 C 1878 715 1864 718 1879 707 C 1876 695 1885 702 1891 701 C 1883 690 1886 680 1896 677 C 1896 672 1890 676 1892 671 C 1891 672 1889 671 1890 670 C 1888 672 1888 671 1888 669 C 1890 669 1889 660 1893 664 C 1895 659 1889 655 1892 649 C 1898 648 1905 645 1897 638 C 1911 629 1897 630 1901 628 C 1873 618 1913 607 1925 603 C 1924 603 1926 595 1923 595 C 1925 593 1928 590 1925 590 Z"/>
            <path id="UA-58" fill="#e7c91d" stroke="#231f20" stroke-width="0.4" stroke-linejoin="round" d="M 883 1228 C 875 1230 860 1194 854 1213 C 852 1219 847 1212 843 1214 C 839 1219 851 1219 846 1225 C 834 1223 831 1235 818 1234 C 812 1229 811 1241 806 1243 C 801 1243 798 1239 797 1235 C 791 1234 792 1240 796 1242 C 798 1255 785 1235 788 1244 C 791 1244 792 1248 792 1250 C 789 1255 776 1243 778 1254 C 784 1251 800 1258 786 1261 C 772 1254 786 1265 783 1269 C 774 1276 769 1256 761 1260 C 754 1261 754 1270 748 1270 C 739 1266 738 1274 726 1272 C 726 1266 715 1255 718 1266 C 720 1268 726 1271 722 1275 C 710 1274 716 1261 709 1259 C 708 1266 708 1264 702 1267 C 696 1285 688 1264 678 1265 C 678 1281 666 1262 661 1274 C 658 1286 671 1301 674 1312 C 673 1317 675 1313 676 1315 C 678 1320 675 1322 672 1321 C 669 1323 667 1320 664 1321 C 657 1323 646 1329 644 1338 C 638 1351 641 1355 630 1365 C 642 1377 628 1367 631 1375 C 634 1377 627 1377 629 1379 C 633 1382 626 1383 628 1387 C 616 1387 629 1391 623 1397 C 617 1407 622 1413 625 1419 C 631 1422 631 1422 631 1427 C 641 1430 637 1435 636 1445 C 634 1462 650 1450 655 1445 C 660 1437 663 1427 662 1417 C 673 1406 695 1395 711 1389 C 721 1389 729 1376 738 1375 C 750 1367 765 1367 765 1349 C 770 1340 767 1320 773 1321 C 777 1322 780 1313 783 1313 C 785 1311 791 1314 790 1309 C 790 1308 794 1311 791 1306 C 790 1303 798 1306 796 1303 C 794 1301 799 1303 796 1299 C 793 1296 798 1290 798 1287 C 794 1270 814 1300 815 1283 C 812 1274 810 1281 805 1278 C 792 1271 800 1273 805 1267 C 817 1260 818 1272 824 1269 C 830 1269 831 1268 831 1265 C 833 1262 836 1266 835 1262 C 826 1253 831 1260 835 1253 C 842 1261 845 1261 852 1255 C 863 1259 861 1249 862 1241 C 865 1240 867 1238 869 1242 C 878 1248 877 1232 883 1228 Z"/>
            <path id="UA-54" fill="#ffdd19" stroke="#231f20" stroke-width="0.4" stroke-linejoin="round" d="M 1438 1360 C 1437 1360 1439 1362 1438 1360 Z M 1493 1352 C 1477 1348 1466 1369 1450 1358 C 1456 1364 1475 1369 1483 1372 C 1478 1372 1480 1364 1482 1362 C 1483 1362 1497 1357 1493 1352 Z M 1486 1372 L 1485 1372 L 1486 1372 Z M 1454 1350 L 1455 1350 L 1454 1350 Z M 1482 1371 C 1482 1371 1483 1371 1482 1371 Z M 1571 1206 C 1564 1203 1566 1187 1571 1184 C 1576 1187 1579 1184 1577 1177 C 1578 1172 1584 1179 1586 1175 C 1581 1174 1583 1171 1586 1169 C 1592 1168 1579 1164 1576 1164 C 1573 1157 1577 1153 1570 1146 C 1562 1154 1559 1151 1556 1142 C 1560 1142 1557 1139 1556 1138 C 1559 1130 1561 1144 1563 1145 C 1578 1141 1557 1131 1563 1125 C 1560 1119 1560 1121 1557 1126 C 1554 1106 1536 1126 1539 1119 C 1536 1107 1523 1100 1538 1092 C 1538 1089 1530 1088 1534 1086 C 1532 1082 1528 1078 1532 1076 C 1524 1068 1531 1060 1518 1068 C 1514 1064 1510 1042 1503 1051 C 1502 1049 1497 1053 1499 1053 C 1498 1056 1494 1055 1495 1056 C 1499 1057 1502 1063 1498 1064 C 1496 1062 1491 1070 1491 1067 C 1488 1064 1482 1071 1479 1073 C 1482 1081 1486 1073 1488 1078 C 1469 1091 1488 1078 1487 1099 C 1481 1109 1462 1115 1458 1119 C 1454 1121 1446 1115 1442 1122 C 1443 1125 1444 1126 1442 1127 L 1445 1132 C 1440 1135 1437 1138 1434 1136 C 1432 1140 1431 1134 1430 1133 C 1427 1136 1427 1132 1426 1133 C 1425 1130 1423 1133 1422 1131 C 1416 1135 1391 1156 1401 1138 L 1397 1135 C 1398 1133 1397 1132 1400 1131 L 1395 1123 C 1387 1124 1392 1113 1380 1122 C 1382 1129 1365 1109 1376 1107 C 1372 1097 1354 1100 1348 1103 C 1352 1109 1347 1107 1345 1109 C 1348 1113 1350 1115 1344 1116 C 1347 1121 1338 1119 1340 1116 C 1339 1096 1331 1121 1326 1112 C 1318 1122 1310 1118 1300 1114 C 1299 1101 1276 1113 1277 1123 C 1269 1127 1281 1127 1270 1130 C 1266 1135 1262 1125 1261 1132 C 1261 1137 1257 1131 1256 1131 C 1248 1135 1244 1135 1241 1142 C 1241 1147 1232 1147 1230 1145 C 1227 1153 1214 1149 1209 1157 C 1208 1168 1211 1162 1216 1165 C 1212 1168 1210 1167 1209 1171 C 1203 1172 1206 1176 1202 1178 C 1214 1180 1206 1192 1222 1196 C 1227 1213 1236 1211 1246 1210 C 1248 1213 1245 1213 1245 1214 C 1250 1218 1244 1219 1244 1221 C 1252 1235 1258 1244 1271 1233 C 1290 1222 1279 1239 1290 1229 C 1283 1224 1295 1217 1296 1221 C 1292 1224 1302 1230 1295 1232 C 1301 1242 1312 1225 1315 1237 C 1309 1240 1316 1245 1318 1249 C 1313 1251 1319 1254 1321 1251 C 1324 1256 1323 1260 1329 1263 C 1327 1265 1325 1267 1328 1269 C 1330 1265 1333 1275 1335 1273 C 1343 1267 1344 1269 1349 1275 C 1368 1260 1363 1259 1368 1277 C 1366 1281 1364 1278 1363 1279 C 1365 1281 1364 1283 1365 1284 C 1373 1284 1374 1274 1379 1275 C 1385 1273 1391 1290 1394 1292 C 1394 1300 1392 1295 1388 1300 C 1397 1305 1381 1311 1379 1310 L 1368 1320 C 1374 1329 1385 1332 1393 1335 C 1397 1345 1405 1357 1409 1363 C 1420 1379 1437 1345 1454 1353 L 1454 1348 C 1460 1332 1492 1346 1489 1324 C 1503 1320 1512 1312 1500 1304 C 1507 1301 1511 1297 1516 1292 C 1509 1286 1520 1283 1512 1280 C 1518 1280 1537 1286 1528 1275 C 1538 1267 1552 1274 1543 1258 C 1548 1260 1555 1259 1562 1254 C 1565 1262 1570 1256 1574 1255 C 1571 1254 1599 1237 1587 1241 C 1585 1235 1576 1249 1576 1240 C 1584 1236 1583 1230 1588 1227 C 1586 1225 1582 1227 1579 1221 C 1598 1214 1593 1206 1571 1206 Z M 1457 1357 L 1456 1357 L 1457 1357 Z"/>
            <path id="UA-49" fill="#ffd00f" stroke="#231f20" stroke-width="0.4" stroke-linejoin="round" d="M 1921 838 C 1921 825 1904 820 1916 813 C 1894 775 1896 826 1886 779 C 1879 778 1885 770 1880 767 C 1885 764 1887 761 1881 760 C 1874 758 1873 764 1869 757 C 1864 759 1862 762 1859 756 L 1851 762 C 1850 776 1828 756 1828 771 C 1826 774 1829 787 1827 792 C 1823 789 1821 790 1821 796 C 1814 797 1819 788 1818 786 C 1811 784 1809 785 1808 779 C 1809 774 1793 776 1789 774 C 1789 768 1785 759 1777 763 C 1772 766 1774 757 1764 760 C 1765 757 1767 754 1762 755 C 1765 747 1758 750 1756 746 C 1753 745 1746 739 1746 744 C 1749 744 1745 746 1745 747 C 1739 746 1742 754 1737 755 L 1736 758 L 1736 760 C 1730 753 1730 763 1726 757 C 1723 758 1726 764 1723 762 C 1724 758 1716 760 1716 762 L 1710 762 C 1709 765 1706 765 1704 766 L 1701 766 C 1701 770 1699 769 1697 768 L 1673 764 C 1674 760 1667 760 1668 762 C 1666 759 1662 758 1662 763 C 1659 762 1654 766 1660 759 C 1657 757 1656 762 1655 758 C 1656 755 1656 755 1653 755 C 1651 756 1650 760 1648 760 C 1648 756 1643 761 1644 764 C 1642 763 1642 762 1642 761 C 1640 764 1641 759 1639 760 C 1630 763 1642 761 1636 766 L 1634 765 C 1628 762 1622 763 1626 770 C 1624 773 1621 773 1619 771 C 1627 766 1614 768 1612 771 C 1615 771 1613 776 1613 774 L 1612 773 C 1610 774 1610 773 1609 775 C 1606 779 1613 778 1609 782 C 1607 781 1606 788 1603 786 C 1602 786 1604 791 1601 789 C 1596 792 1592 799 1597 803 C 1596 809 1589 802 1589 807 C 1588 809 1573 805 1578 809 C 1581 816 1576 820 1576 826 C 1584 829 1574 843 1588 849 C 1594 848 1586 851 1589 854 C 1593 853 1584 857 1590 862 C 1597 855 1592 867 1595 871 L 1577 870 C 1575 874 1568 872 1569 867 C 1566 864 1562 868 1557 867 C 1555 861 1550 867 1545 865 C 1539 866 1537 862 1539 871 C 1538 875 1547 889 1540 888 C 1539 886 1534 882 1535 886 C 1534 888 1531 886 1531 890 C 1528 893 1528 887 1525 888 C 1523 890 1521 888 1521 892 C 1522 897 1515 895 1513 897 C 1515 904 1517 902 1522 906 C 1527 903 1533 906 1538 905 C 1542 906 1552 902 1542 911 C 1544 912 1547 914 1544 917 C 1540 922 1538 927 1532 926 C 1529 928 1538 931 1532 934 C 1529 929 1520 940 1521 942 C 1522 950 1538 964 1533 973 C 1537 975 1536 980 1540 975 C 1544 979 1545 984 1550 986 C 1555 991 1549 990 1548 992 L 1548 999 C 1541 1003 1545 1007 1537 1010 C 1531 1016 1530 1014 1535 1019 C 1535 1028 1530 1019 1529 1016 C 1526 1019 1518 1010 1523 1019 C 1529 1020 1523 1025 1522 1026 C 1524 1031 1527 1024 1528 1024 C 1531 1029 1517 1033 1522 1036 C 1527 1043 1522 1036 1518 1038 C 1516 1039 1519 1042 1519 1042 C 1514 1045 1511 1048 1513 1052 C 1516 1056 1513 1055 1512 1057 C 1520 1079 1522 1056 1529 1068 C 1524 1072 1537 1076 1530 1079 C 1535 1085 1533 1089 1538 1092 C 1524 1099 1534 1106 1539 1117 C 1533 1128 1547 1116 1552 1115 C 1553 1122 1566 1111 1569 1111 C 1571 1112 1568 1116 1569 1116 C 1570 1125 1577 1106 1578 1117 C 1578 1119 1585 1121 1585 1121 C 1591 1117 1578 1116 1584 1113 C 1601 1106 1590 1095 1604 1089 C 1606 1093 1611 1091 1610 1095 C 1607 1096 1612 1107 1614 1103 C 1644 1092 1677 1083 1708 1050 C 1716 1033 1781 1038 1751 1019 C 1755 1015 1742 1012 1742 1007 C 1747 1006 1742 998 1743 996 C 1738 981 1734 1008 1727 980 C 1720 984 1723 972 1717 982 C 1709 974 1717 974 1716 968 C 1724 967 1722 964 1717 958 C 1713 962 1711 955 1709 956 C 1705 949 1707 943 1700 937 C 1704 936 1708 932 1709 937 C 1707 946 1725 933 1724 927 C 1731 921 1739 918 1744 914 C 1764 910 1775 910 1791 890 C 1796 895 1802 895 1805 891 C 1810 905 1820 877 1825 885 C 1822 888 1828 887 1827 888 C 1827 895 1834 879 1836 886 C 1839 889 1837 890 1836 892 C 1839 894 1845 894 1841 899 C 1846 896 1847 906 1850 900 L 1856 907 C 1857 911 1855 916 1851 910 C 1847 912 1850 913 1852 914 C 1856 919 1864 911 1866 908 C 1866 918 1876 904 1878 910 C 1885 897 1897 903 1902 893 C 1916 883 1899 887 1899 881 C 1917 866 1900 874 1895 865 C 1898 862 1893 863 1893 863 C 1896 860 1890 857 1890 854 C 1891 853 1889 852 1889 852 C 1888 851 1891 849 1890 849 C 1891 848 1893 849 1894 847 C 1896 845 1895 846 1893 846 C 1894 846 1895 843 1895 845 C 1899 845 1906 841 1908 847 C 1910 846 1910 844 1912 846 C 1913 845 1914 843 1915 844 C 1918 846 1923 843 1920 840 C 1922 840 1923 839 1921 838 Z"/>
            <path id="UA-46" fill="#fddb00" stroke="#231f20" stroke-width="0.4" stroke-linejoin="round" d="M 759 1261 C 757 1258 757 1263 754 1261 C 747 1256 755 1263 750 1264 C 749 1261 750 1261 746 1261 C 745 1260 749 1254 746 1257 C 745 1258 745 1257 745 1256 L 738 1253 C 742 1251 740 1250 736 1251 C 739 1245 737 1249 733 1250 C 733 1248 734 1246 732 1246 C 730 1249 727 1245 726 1245 C 729 1243 727 1243 725 1241 C 726 1238 726 1236 722 1235 C 722 1233 728 1234 722 1233 C 724 1228 719 1232 718 1228 C 719 1227 724 1229 719 1225 C 720 1224 725 1222 721 1222 C 719 1223 713 1217 715 1216 C 711 1214 715 1208 712 1209 C 708 1214 709 1205 708 1201 C 706 1202 702 1198 706 1199 C 712 1195 698 1198 704 1194 C 705 1194 707 1194 706 1193 C 705 1189 701 1188 700 1184 C 701 1184 703 1181 701 1182 C 699 1182 699 1173 696 1172 C 694 1168 699 1167 694 1166 C 686 1150 701 1154 692 1143 C 693 1141 683 1137 689 1135 C 686 1133 689 1132 685 1131 C 687 1126 683 1126 679 1124 C 678 1119 675 1114 670 1113 C 674 1113 670 1112 669 1112 C 668 1112 670 1099 673 1104 C 677 1102 668 1095 670 1093 C 670 1086 677 1088 673 1084 C 676 1081 666 1076 663 1077 C 661 1071 668 1068 661 1062 L 652 1055 C 656 1050 648 1050 644 1048 C 647 1041 644 1042 641 1035 C 643 1031 651 1026 642 1026 C 647 1020 645 1021 642 1016 C 636 1011 649 1011 647 1007 C 643 1007 641 1004 639 1004 C 636 1002 639 998 633 997 C 630 998 633 993 630 992 C 635 991 632 988 632 985 C 628 981 631 995 619 992 C 614 991 615 996 612 998 C 609 996 605 995 601 997 C 598 1017 594 1011 584 1018 C 581 1018 577 1022 575 1026 C 571 1023 568 1023 568 1028 C 562 1029 554 1028 558 1037 C 563 1038 566 1038 560 1042 C 563 1047 559 1051 554 1053 C 555 1058 553 1063 561 1062 C 564 1063 563 1066 564 1068 C 566 1068 567 1068 565 1070 C 559 1070 567 1078 565 1081 C 565 1085 556 1086 558 1092 C 556 1093 553 1091 554 1094 C 549 1096 542 1093 543 1100 C 540 1100 535 1099 537 1102 C 539 1108 550 1122 536 1117 C 533 1124 538 1138 533 1140 C 533 1143 526 1140 530 1144 C 528 1145 526 1142 525 1145 C 525 1147 520 1146 524 1149 C 522 1149 522 1148 519 1150 C 515 1161 507 1145 517 1170 C 523 1174 527 1181 529 1186 C 531 1182 534 1182 537 1187 C 539 1187 539 1188 538 1190 C 536 1201 546 1202 554 1204 C 549 1211 547 1219 556 1222 C 562 1221 566 1220 567 1226 C 566 1229 572 1227 566 1230 C 561 1227 559 1232 561 1237 C 561 1235 573 1239 571 1243 C 575 1234 584 1243 587 1237 C 587 1239 588 1243 591 1243 C 597 1243 588 1248 593 1250 L 597 1256 C 602 1257 599 1253 598 1251 C 599 1249 602 1247 599 1245 C 602 1246 605 1239 605 1247 C 609 1267 603 1246 620 1255 C 620 1248 623 1250 630 1250 C 627 1240 633 1245 634 1251 C 639 1254 646 1251 650 1255 C 663 1257 652 1264 662 1264 C 664 1267 657 1272 664 1271 C 676 1267 674 1280 679 1265 C 688 1265 688 1276 694 1274 C 702 1277 700 1263 708 1266 C 710 1264 705 1259 710 1259 C 713 1263 716 1282 723 1272 C 724 1268 712 1263 719 1261 C 726 1262 721 1276 732 1272 C 746 1266 748 1273 759 1261 Z"/>
            <path id="UA-43" fill="#fdbd10" stroke="#231f20" stroke-width="0.4" stroke-linejoin="round" d="M 579 895 C 577 895 575 892 572 894 C 572 887 566 881 566 878 C 573 876 573 871 576 866 C 573 850 549 866 553 852 C 571 844 560 836 544 833 C 541 825 534 825 528 822 C 525 821 527 818 525 817 C 525 815 527 815 525 814 C 524 813 521 820 517 817 C 516 811 512 816 513 819 C 511 818 512 822 511 819 C 513 816 502 816 502 813 C 499 797 482 807 492 800 C 482 796 497 788 481 786 C 478 790 480 780 483 783 L 487 777 C 486 771 490 762 485 756 C 483 761 484 754 483 754 C 477 753 481 750 480 747 C 474 745 481 738 481 734 C 474 738 462 729 460 737 C 453 739 443 744 434 739 C 420 738 413 754 402 762 C 298 797 375 778 324 844 C 323 848 304 851 312 841 C 305 839 299 848 297 840 C 291 844 283 847 281 854 C 283 856 291 857 289 861 C 284 866 297 867 293 872 C 291 872 285 872 289 873 C 290 877 294 872 296 876 C 294 876 295 879 294 879 L 294 880 C 295 882 296 880 297 881 C 299 879 297 882 299 882 C 297 883 300 885 301 884 C 302 884 300 886 302 885 C 301 886 303 887 301 888 C 299 888 303 889 300 889 L 302 889 L 301 890 L 301 891 L 302 893 C 301 894 300 893 301 895 L 300 895 L 300 897 L 301 898 C 299 899 302 898 301 899 C 298 900 301 904 301 905 C 303 905 302 908 303 907 L 304 906 L 306 906 C 306 906 308 907 308 905 C 308 907 310 907 309 908 L 311 908 L 312 909 C 312 910 313 909 312 909 L 313 910 L 314 912 L 314 913 C 314 913 313 914 315 914 C 317 914 316 915 316 917 L 318 917 L 320 918 C 322 917 322 920 325 919 L 328 922 L 330 921 L 331 923 C 332 921 333 923 333 923 C 333 924 336 926 334 927 L 333 928 L 335 929 L 335 931 L 336 932 L 337 932 C 338 936 338 933 340 935 L 341 934 L 342 935 C 342 937 345 938 344 939 C 345 941 347 939 345 940 C 344 943 350 943 347 944 C 344 946 353 945 355 953 C 360 957 369 959 375 961 C 381 959 377 965 375 967 L 369 969 C 367 969 364 968 363 973 L 363 975 C 361 974 362 976 362 977 C 362 980 364 979 363 981 L 365 982 L 366 983 C 366 982 372 980 371 983 C 370 981 369 984 371 983 C 369 985 372 983 371 984 L 372 985 C 372 989 372 988 376 989 C 379 984 379 992 380 994 L 381 995 C 380 994 382 996 381 995 L 382 995 C 383 997 384 997 383 1000 C 385 1000 386 1002 388 998 C 387 997 391 997 392 997 C 396 1003 395 999 400 1003 C 407 1010 413 998 418 995 C 419 998 420 997 422 998 C 420 1005 431 1005 434 999 C 440 999 440 1007 443 1009 C 447 1006 444 1005 448 1009 C 449 1021 466 1024 474 1026 C 477 1024 485 1016 486 1021 C 490 1020 493 1018 489 1014 C 490 1008 499 1019 503 1014 C 506 1014 504 1022 507 1022 C 508 1023 517 1023 512 1021 L 512 1019 C 511 1016 520 1013 513 1012 C 512 1009 511 1003 516 1007 C 520 1008 517 999 514 1002 C 512 1002 512 997 509 999 C 506 995 508 992 501 992 C 515 990 497 978 501 978 C 512 975 527 976 515 964 C 508 953 519 963 522 959 C 529 959 522 955 519 955 L 518 955 C 517 953 522 952 520 949 C 514 942 530 952 528 945 C 527 944 531 945 532 943 C 540 937 541 932 549 929 C 557 944 558 926 570 940 C 570 930 565 913 566 903 C 572 901 579 902 579 895 Z"/>
            <path id="UA-40" fill="#e7c91d" stroke="#231f20" stroke-width="0.4" stroke-linejoin="round" d="M 1609 543 C 1609 538 1605 545 1605 542 C 1594 548 1591 526 1586 530 C 1571 534 1542 505 1562 503 C 1562 497 1559 501 1556 497 C 1556 493 1552 495 1554 491 C 1555 484 1551 484 1543 483 C 1540 473 1534 473 1531 465 C 1518 469 1527 460 1519 457 C 1516 453 1522 455 1524 449 C 1526 443 1513 443 1510 446 C 1507 449 1505 454 1500 455 C 1498 452 1490 452 1496 450 C 1493 444 1481 442 1483 431 C 1472 428 1477 441 1468 436 C 1461 437 1464 445 1458 448 C 1453 449 1457 453 1454 455 L 1450 455 C 1441 468 1436 451 1428 452 C 1424 458 1415 460 1406 461 C 1399 459 1402 474 1391 470 C 1389 469 1385 469 1389 466 C 1384 464 1389 463 1388 460 C 1391 457 1384 456 1391 454 C 1392 443 1381 451 1374 446 C 1376 444 1372 444 1376 442 C 1376 440 1372 436 1376 434 C 1378 431 1371 428 1375 427 C 1374 422 1369 427 1367 423 C 1364 415 1362 423 1360 419 C 1357 418 1355 417 1351 412 C 1349 415 1345 415 1343 412 C 1339 417 1343 408 1344 407 L 1359 396 C 1358 392 1370 393 1371 385 L 1370 383 L 1369 382 C 1369 379 1362 379 1363 374 L 1362 373 C 1362 370 1357 370 1355 371 C 1354 369 1353 368 1351 369 C 1342 364 1343 374 1340 367 C 1340 363 1334 369 1335 364 C 1329 361 1327 360 1322 361 C 1320 359 1321 355 1316 358 C 1313 356 1312 348 1307 350 C 1310 346 1308 344 1308 341 C 1309 333 1298 337 1296 329 C 1291 334 1291 327 1287 328 C 1281 330 1281 322 1276 320 C 1267 325 1266 313 1257 316 C 1252 322 1241 325 1241 335 L 1239 335 C 1243 337 1234 339 1232 339 C 1231 334 1236 328 1226 332 C 1224 328 1225 341 1223 341 C 1224 343 1223 340 1224 341 C 1225 343 1222 343 1222 343 C 1225 344 1226 352 1224 355 C 1231 358 1219 362 1225 363 C 1225 366 1224 368 1227 369 C 1231 370 1228 375 1230 374 C 1231 370 1243 373 1246 376 C 1252 373 1252 376 1255 382 C 1250 385 1231 392 1240 395 C 1243 394 1244 398 1247 399 C 1249 399 1246 397 1248 398 C 1254 400 1248 401 1248 404 C 1250 409 1242 405 1243 409 C 1242 411 1240 414 1238 412 C 1238 413 1235 415 1238 414 C 1239 417 1236 414 1237 416 C 1230 414 1238 425 1231 424 C 1231 428 1232 431 1236 433 C 1238 435 1235 435 1235 436 L 1234 443 C 1233 446 1244 450 1248 452 C 1244 459 1251 452 1247 457 C 1248 462 1254 470 1262 469 C 1259 475 1258 476 1264 479 C 1267 483 1260 485 1261 488 C 1263 491 1261 495 1264 498 C 1265 498 1270 504 1268 505 C 1266 504 1263 505 1266 506 C 1270 508 1263 511 1262 509 C 1259 507 1260 501 1257 506 C 1252 509 1259 510 1260 511 C 1261 513 1262 515 1264 513 C 1267 514 1270 520 1266 521 C 1271 521 1264 524 1267 523 C 1274 520 1268 533 1272 536 C 1272 539 1265 543 1269 548 C 1277 548 1270 559 1273 560 C 1276 559 1286 555 1287 559 C 1291 562 1287 569 1291 571 C 1295 574 1293 563 1297 566 C 1303 576 1308 564 1310 573 C 1313 578 1314 578 1311 582 C 1312 585 1313 587 1315 588 C 1312 592 1315 594 1317 597 C 1315 601 1326 604 1329 604 C 1320 612 1321 610 1326 621 C 1322 623 1325 630 1328 631 C 1326 633 1324 641 1326 644 C 1328 647 1337 644 1336 643 C 1337 638 1341 642 1344 641 C 1348 640 1341 628 1348 631 C 1355 634 1358 629 1362 634 C 1366 630 1365 636 1369 635 C 1367 632 1372 629 1374 632 C 1373 627 1374 629 1377 630 C 1380 628 1382 622 1387 625 C 1398 624 1410 620 1409 610 C 1400 613 1409 602 1413 604 C 1417 602 1420 594 1427 601 C 1428 598 1436 594 1435 601 C 1438 602 1437 586 1446 587 C 1458 601 1456 602 1474 605 C 1474 607 1475 607 1477 608 C 1481 608 1478 613 1481 612 C 1487 616 1492 610 1495 613 C 1496 614 1499 620 1499 617 C 1498 616 1500 616 1501 616 C 1507 617 1501 626 1505 629 C 1508 637 1513 633 1519 633 L 1523 631 L 1523 629 C 1528 634 1525 626 1524 623 L 1526 621 C 1527 620 1529 619 1528 621 C 1533 619 1540 611 1549 610 C 1555 606 1542 604 1552 603 C 1552 600 1555 603 1557 604 C 1558 595 1560 585 1570 584 C 1576 582 1569 577 1574 575 C 1582 570 1572 572 1574 566 C 1581 561 1579 570 1582 557 C 1587 559 1595 560 1596 557 C 1589 553 1598 554 1599 550 C 1601 545 1608 552 1608 547 L 1609 543 Z"/>
            <path id="UA-36" fill="#ffdd19" stroke="#231f20" stroke-width="0.4" stroke-linejoin="round" d="M 1649 691 C 1654 691 1661 688 1655 684 C 1652 684 1648 686 1647 681 C 1639 683 1649 677 1650 676 C 1651 671 1640 667 1637 663 C 1639 659 1635 663 1633 664 C 1629 668 1622 665 1616 668 C 1617 656 1607 668 1605 654 C 1602 654 1603 652 1605 651 C 1603 651 1603 649 1603 648 C 1596 645 1591 649 1583 651 C 1580 650 1585 645 1579 648 C 1569 657 1545 644 1555 627 C 1559 618 1548 620 1548 611 C 1538 612 1535 617 1528 622 C 1529 617 1525 622 1524 624 C 1527 629 1526 634 1523 628 C 1524 633 1520 632 1515 633 C 1512 634 1506 634 1505 628 C 1500 627 1510 615 1498 616 C 1499 621 1494 606 1488 614 C 1476 611 1475 602 1460 602 C 1451 601 1453 587 1444 587 C 1435 593 1438 602 1434 601 C 1437 591 1426 604 1427 600 C 1420 600 1415 595 1414 605 C 1411 603 1409 604 1406 607 C 1408 608 1405 609 1405 609 C 1402 611 1408 610 1409 611 C 1408 623 1394 624 1381 625 C 1379 627 1378 632 1374 628 C 1374 634 1371 629 1368 634 C 1370 637 1365 633 1365 632 C 1362 635 1360 634 1359 631 C 1352 635 1340 625 1346 639 C 1344 644 1336 637 1336 643 C 1330 647 1330 642 1325 650 C 1328 663 1321 649 1323 663 C 1321 663 1319 666 1322 666 C 1319 668 1320 669 1320 672 C 1319 675 1308 684 1313 685 C 1314 689 1307 685 1307 688 C 1304 690 1294 688 1296 693 C 1288 696 1281 704 1278 693 C 1268 698 1256 691 1259 706 C 1253 708 1262 715 1253 712 C 1242 717 1252 723 1245 731 C 1256 750 1265 739 1279 747 C 1270 749 1280 757 1286 759 C 1287 750 1292 761 1296 763 C 1297 768 1306 764 1305 771 C 1307 772 1305 777 1310 778 C 1306 783 1303 783 1311 786 C 1316 789 1319 794 1323 788 C 1326 792 1328 793 1331 791 C 1340 805 1342 798 1354 802 L 1357 806 C 1360 806 1359 809 1359 811 C 1363 812 1362 810 1366 813 C 1377 822 1359 829 1368 837 C 1364 843 1372 839 1372 845 C 1395 850 1367 853 1358 854 C 1350 847 1356 859 1353 863 C 1355 869 1370 868 1377 871 C 1390 868 1412 852 1421 861 C 1435 860 1438 858 1446 870 C 1449 866 1450 871 1451 871 C 1459 871 1452 859 1449 855 C 1452 856 1463 860 1458 863 C 1456 864 1457 866 1459 866 C 1460 864 1470 872 1468 873 C 1463 879 1474 880 1472 884 C 1474 887 1476 884 1477 883 C 1477 885 1485 885 1483 884 C 1479 878 1492 875 1493 883 C 1495 875 1499 880 1503 879 C 1501 878 1507 875 1504 873 C 1503 874 1506 862 1508 863 C 1513 869 1517 867 1522 863 C 1538 862 1554 868 1568 865 C 1571 867 1569 872 1573 872 C 1580 868 1586 872 1592 869 C 1598 876 1592 866 1593 863 C 1596 855 1590 864 1589 861 C 1584 853 1594 857 1588 851 C 1594 850 1587 848 1587 846 C 1576 845 1579 827 1577 822 C 1577 819 1580 814 1578 809 C 1572 803 1586 811 1585 808 C 1585 806 1588 807 1589 807 C 1589 803 1593 806 1595 806 C 1597 803 1594 796 1595 795 C 1598 789 1603 791 1604 785 C 1607 787 1608 780 1610 780 C 1607 777 1608 776 1610 774 C 1612 774 1611 772 1613 774 L 1613 771 C 1614 768 1627 766 1619 771 C 1620 771 1622 773 1624 772 L 1625 771 C 1623 764 1626 762 1633 765 C 1642 769 1617 749 1624 742 C 1621 736 1627 734 1630 738 C 1637 739 1647 728 1651 732 C 1653 724 1653 709 1648 701 C 1639 705 1639 690 1649 691 Z"/>
            <path id="UA-33" fill="#ffd00f" stroke="#231f20" stroke-width="0.4" stroke-linejoin="round" d="M 717 892 C 718 888 714 889 712 887 C 714 886 714 881 711 881 C 711 879 713 878 714 877 C 716 875 713 872 715 870 C 711 860 703 856 703 844 C 704 840 699 840 696 837 C 699 833 696 833 694 830 C 688 826 692 823 690 819 C 695 817 702 814 698 811 C 701 802 698 797 700 789 C 696 785 707 775 701 774 C 690 765 710 755 697 751 C 695 747 691 738 696 737 C 695 742 705 744 707 742 C 703 739 694 733 704 728 C 706 722 708 715 707 707 C 702 703 697 709 693 708 C 686 706 678 710 685 713 C 686 719 680 717 681 713 C 680 712 679 717 678 714 C 674 715 666 721 659 723 C 655 728 656 718 657 716 C 653 711 648 719 647 711 C 641 682 614 721 600 716 C 600 715 597 714 596 715 L 596 713 C 595 708 576 709 573 717 C 568 729 552 707 531 721 C 528 723 524 718 519 717 C 505 715 508 723 497 724 C 474 720 499 728 468 734 C 472 738 477 733 481 734 C 481 738 475 744 479 747 C 479 755 482 751 484 757 C 489 753 487 764 487 767 C 488 774 487 778 484 782 C 485 785 478 782 480 786 C 480 789 481 783 482 785 C 484 789 485 786 488 789 C 493 792 483 798 492 799 C 484 806 494 801 497 804 C 507 823 502 810 511 819 L 511 820 L 514 819 C 513 817 512 814 516 814 C 517 821 523 817 524 813 C 526 815 527 815 525 817 C 526 825 535 825 542 828 C 542 839 560 832 563 843 C 562 847 559 849 557 848 C 556 851 557 852 553 853 C 550 865 574 851 575 867 C 573 881 560 873 569 884 C 571 899 580 889 578 900 C 573 903 565 899 566 907 L 570 938 C 571 945 564 934 563 934 C 554 937 553 935 549 928 C 538 934 539 939 529 945 C 526 945 529 948 523 948 C 521 948 517 944 519 948 C 522 951 518 952 518 954 C 518 955 531 958 522 959 C 520 961 516 959 513 958 C 511 965 526 968 516 975 C 482 979 517 982 502 992 C 507 993 509 993 507 997 C 510 1001 521 1001 517 1007 C 512 1003 511 1009 515 1012 C 518 1014 510 1018 511 1021 C 519 1025 527 1012 523 1031 C 520 1035 533 1034 530 1038 C 529 1047 551 1063 555 1058 C 552 1050 563 1052 561 1041 C 565 1038 563 1038 559 1037 C 557 1035 556 1029 560 1029 C 569 1031 567 1022 576 1025 C 580 1020 580 1019 583 1019 C 585 1015 590 1015 594 1013 C 602 1010 597 992 608 997 C 615 1000 613 990 622 992 C 629 995 628 984 632 985 C 633 991 627 1002 640 998 C 648 993 643 978 655 977 L 656 976 C 657 977 662 973 661 973 C 659 969 662 971 661 968 C 662 963 664 968 663 964 C 664 961 666 958 666 953 C 673 950 671 946 674 940 C 676 940 672 935 675 935 C 677 934 673 932 674 930 C 675 931 678 933 679 928 C 674 931 678 927 677 924 C 680 923 680 920 681 918 C 684 921 685 918 685 915 C 685 909 695 916 697 911 C 698 905 700 905 704 903 C 701 902 704 898 704 897 C 707 898 705 895 708 896 C 707 904 725 896 717 892 Z"/>
            <path id="UA-29" fill="#fddb00" stroke="#231f20" stroke-width="0.4" stroke-linejoin="round" d="M 877 1093 C 869 1091 870 1084 865 1077 C 861 1066 857 1077 857 1057 C 831 1065 856 1045 841 1051 C 840 1049 838 1045 840 1044 C 847 1047 842 1041 844 1039 C 839 1039 836 1035 839 1032 C 846 1022 822 1021 836 1014 C 834 1013 838 1005 834 1010 C 828 1010 817 1008 821 1001 C 814 999 814 1008 809 1001 C 806 998 801 986 795 992 C 797 985 781 969 795 972 C 795 963 801 969 800 964 C 798 955 790 962 790 954 C 791 954 791 952 789 952 C 787 948 792 947 793 944 C 787 940 789 939 786 945 C 783 939 780 939 778 932 C 773 934 772 945 766 937 C 763 938 759 933 759 936 C 754 935 754 935 757 932 C 754 926 743 933 743 928 C 736 916 730 932 732 905 C 728 905 719 903 717 897 C 711 901 710 899 706 895 C 705 897 700 901 704 903 C 700 906 697 906 697 912 C 683 910 685 919 677 924 C 678 926 674 932 679 928 C 678 935 672 927 674 933 C 678 935 674 935 674 936 C 675 940 672 941 673 946 C 669 948 671 952 666 953 C 668 957 662 960 665 962 L 661 966 L 661 970 C 664 978 653 974 650 980 C 642 985 647 997 638 999 C 635 996 638 1005 640 1004 C 643 1003 641 1005 642 1006 L 647 1008 C 647 1011 636 1011 642 1016 C 649 1023 643 1021 642 1026 C 652 1026 641 1032 642 1035 C 651 1048 639 1045 649 1050 C 656 1050 651 1053 653 1056 C 656 1060 666 1064 665 1070 C 655 1080 675 1077 673 1085 C 675 1088 669 1087 670 1092 C 667 1095 678 1102 672 1104 C 670 1100 668 1112 669 1112 L 672 1113 L 671 1113 C 678 1114 677 1125 684 1126 L 685 1131 C 689 1131 687 1133 689 1135 C 683 1138 698 1145 694 1147 L 696 1148 L 695 1151 C 690 1154 690 1165 696 1167 C 696 1169 694 1169 698 1172 C 698 1174 700 1184 702 1182 C 698 1185 701 1187 704 1189 C 702 1191 707 1192 706 1194 C 705 1194 703 1194 703 1196 C 713 1197 700 1199 709 1202 C 709 1206 708 1214 712 1209 C 713 1212 714 1221 720 1223 L 722 1222 C 723 1225 717 1223 719 1225 C 726 1230 717 1226 718 1228 C 719 1232 723 1228 723 1231 C 722 1234 728 1234 722 1234 C 725 1236 726 1238 726 1242 C 729 1243 726 1244 726 1245 C 729 1246 730 1248 732 1246 C 735 1247 731 1252 736 1249 C 741 1244 732 1254 740 1250 C 738 1255 735 1251 745 1256 L 746 1257 C 751 1254 743 1262 747 1261 C 750 1261 753 1267 751 1260 C 756 1261 752 1263 759 1261 C 766 1253 779 1281 784 1266 C 776 1259 781 1258 787 1261 C 797 1258 787 1256 785 1252 C 782 1252 775 1257 779 1250 C 784 1249 798 1255 789 1244 C 783 1238 793 1245 794 1247 C 801 1244 791 1240 793 1237 C 799 1230 804 1257 811 1235 C 817 1232 824 1234 831 1232 C 834 1223 839 1226 846 1224 C 850 1220 843 1219 842 1218 C 843 1207 856 1224 853 1210 C 859 1202 854 1190 849 1185 C 855 1175 836 1161 839 1150 C 831 1148 834 1140 835 1134 C 835 1132 844 1132 841 1130 C 839 1131 837 1118 841 1121 C 846 1122 839 1116 842 1118 C 848 1121 849 1116 847 1113 C 853 1106 869 1116 865 1100 C 866 1100 868 1102 868 1099 C 871 1099 879 1100 877 1093 Z"/>
            <path id="UA-25" fill="#fdbd10" stroke="#231f20" stroke-width="0.4" stroke-linejoin="round" d="M 1552 989 C 1550 983 1542 983 1542 975 C 1534 979 1539 975 1534 975 C 1535 965 1526 952 1520 943 C 1530 922 1535 943 1533 926 C 1538 926 1547 917 1544 912 C 1539 911 1547 908 1547 907 C 1545 900 1540 908 1537 906 C 1531 903 1526 905 1522 906 C 1517 902 1515 904 1513 897 C 1516 895 1519 897 1521 893 C 1520 889 1523 890 1525 888 C 1528 887 1528 893 1531 890 C 1531 886 1536 889 1535 885 C 1538 882 1539 889 1541 888 C 1543 873 1538 853 1516 867 C 1510 867 1505 859 1505 868 C 1503 871 1505 873 1505 877 C 1503 878 1501 877 1503 879 C 1490 876 1496 889 1490 877 C 1483 879 1481 880 1483 885 C 1479 885 1476 883 1474 885 C 1472 881 1463 878 1469 872 C 1464 868 1463 865 1457 865 C 1463 859 1454 858 1449 855 C 1451 859 1459 871 1451 871 C 1447 866 1449 870 1445 869 C 1442 858 1431 860 1423 861 C 1420 863 1415 854 1413 856 C 1410 862 1402 858 1402 865 C 1389 886 1411 875 1417 883 C 1405 890 1418 900 1423 901 C 1419 907 1411 911 1403 912 C 1400 912 1406 917 1401 918 C 1399 918 1394 924 1391 921 C 1388 921 1392 924 1393 925 L 1390 926 L 1381 916 C 1376 920 1376 906 1370 918 C 1361 914 1365 912 1354 914 C 1349 918 1354 929 1353 933 C 1346 933 1354 937 1347 941 C 1355 945 1350 951 1347 952 C 1346 954 1346 952 1346 951 C 1344 952 1340 953 1338 952 C 1336 958 1330 958 1330 965 C 1328 960 1320 960 1317 961 C 1310 958 1312 967 1305 966 C 1300 972 1309 973 1296 975 L 1293 980 L 1293 985 L 1295 991 C 1292 993 1294 995 1293 997 C 1285 1002 1287 1009 1285 1012 C 1280 1018 1280 1011 1280 1017 C 1276 1020 1272 1009 1269 1018 C 1267 1014 1264 1017 1261 1019 C 1257 1021 1255 1025 1255 1028 C 1253 1029 1251 1025 1251 1028 C 1252 1029 1248 1029 1249 1027 C 1245 1025 1243 1028 1239 1028 C 1232 1030 1231 1033 1224 1037 C 1222 1039 1220 1035 1219 1036 C 1217 1041 1206 1039 1202 1047 C 1201 1048 1202 1053 1198 1053 C 1195 1056 1206 1057 1203 1062 C 1192 1071 1206 1072 1207 1080 C 1200 1084 1194 1080 1189 1087 C 1192 1096 1183 1099 1177 1104 C 1181 1111 1170 1109 1168 1109 C 1168 1128 1160 1111 1148 1122 C 1147 1131 1138 1138 1136 1147 C 1143 1149 1138 1156 1138 1160 C 1133 1162 1146 1166 1144 1171 C 1145 1177 1150 1172 1153 1170 C 1162 1176 1160 1169 1161 1163 C 1167 1164 1166 1161 1169 1163 C 1173 1163 1170 1171 1174 1167 C 1176 1167 1178 1172 1180 1171 C 1185 1170 1209 1163 1209 1158 C 1211 1151 1220 1153 1225 1149 C 1229 1148 1228 1148 1230 1145 C 1235 1148 1237 1146 1241 1144 C 1242 1133 1254 1132 1261 1133 C 1259 1128 1265 1129 1267 1132 C 1269 1132 1270 1129 1271 1130 C 1272 1128 1275 1129 1275 1128 C 1275 1126 1271 1125 1276 1124 C 1279 1110 1278 1116 1293 1108 C 1299 1107 1299 1113 1303 1115 C 1311 1119 1319 1121 1326 1112 C 1331 1119 1332 1108 1338 1108 C 1342 1112 1339 1115 1340 1119 C 1342 1117 1346 1123 1345 1117 C 1350 1114 1347 1113 1345 1108 C 1350 1107 1349 1107 1348 1103 C 1390 1093 1361 1111 1381 1124 C 1381 1118 1391 1116 1393 1124 C 1396 1121 1397 1127 1398 1129 C 1403 1130 1393 1135 1399 1137 C 1395 1162 1416 1128 1425 1131 C 1427 1135 1431 1133 1433 1138 C 1434 1136 1435 1138 1436 1137 C 1437 1134 1436 1136 1438 1136 C 1451 1131 1435 1122 1449 1118 C 1461 1123 1474 1109 1487 1100 C 1486 1096 1489 1095 1484 1092 C 1490 1082 1468 1091 1488 1078 C 1486 1073 1480 1082 1479 1072 C 1482 1071 1488 1065 1489 1066 C 1490 1067 1491 1069 1492 1068 C 1497 1062 1505 1062 1495 1056 C 1508 1048 1501 1045 1515 1056 C 1511 1049 1513 1045 1519 1042 C 1514 1038 1522 1035 1524 1040 C 1517 1031 1527 1033 1528 1025 C 1528 1023 1525 1025 1527 1026 C 1522 1030 1520 1026 1525 1024 C 1529 1020 1517 1017 1524 1014 C 1528 1018 1530 1018 1534 1024 C 1537 1020 1535 1018 1531 1015 C 1534 1011 1546 1008 1543 1002 C 1553 997 1544 993 1552 989 Z"/>
            <path id="UA-21" fill="#e7c91d" stroke="#231f20" stroke-width="0.4" stroke-linejoin="round" d="M 1150 1114 C 1145 1115 1153 1112 1150 1109 C 1146 1103 1140 1106 1138 1102 C 1139 1099 1144 1095 1137 1095 C 1134 1093 1133 1091 1130 1092 C 1125 1090 1116 1088 1122 1084 C 1117 1077 1112 1080 1105 1080 C 1105 1072 1090 1068 1094 1062 C 1084 1065 1079 1059 1083 1049 C 1079 1042 1078 1052 1072 1045 C 1068 1041 1073 1045 1074 1042 C 1072 1039 1071 1033 1077 1034 C 1070 1030 1080 1029 1078 1025 C 1073 1028 1070 1001 1066 1006 C 1067 1014 1054 1009 1054 1002 C 1047 1000 1044 1005 1037 995 C 1037 991 1042 987 1043 981 C 1040 978 1030 975 1038 972 C 1036 970 1031 972 1030 967 C 1022 960 1023 958 1022 951 C 1005 948 1011 960 1005 961 C 1004 964 992 961 999 971 L 972 981 C 964 983 969 973 960 971 C 955 971 962 963 961 959 C 959 956 954 958 953 953 C 947 955 954 949 951 948 C 948 946 949 944 946 942 C 941 943 941 939 937 939 C 933 941 934 951 926 951 C 928 955 928 955 928 960 C 927 961 926 959 926 959 L 924 959 C 921 962 916 960 911 964 C 915 966 914 973 910 969 C 904 962 901 971 898 967 C 888 973 896 981 875 977 C 875 979 876 982 874 983 C 868 982 861 993 853 994 C 846 993 838 1003 835 1006 C 831 1007 841 1013 831 1017 C 831 1022 844 1024 840 1028 C 840 1031 837 1034 838 1037 C 843 1037 848 1047 840 1044 C 838 1045 840 1049 841 1051 C 853 1047 840 1055 846 1060 C 849 1058 860 1056 857 1062 C 861 1066 854 1072 861 1071 C 868 1077 867 1086 873 1092 C 880 1090 878 1102 871 1099 C 865 1098 870 1102 866 1100 C 865 1116 858 1107 847 1112 C 849 1117 848 1122 841 1118 C 844 1121 842 1121 839 1120 C 837 1128 846 1131 835 1133 C 834 1138 831 1148 839 1150 C 837 1158 843 1163 847 1170 C 847 1176 854 1182 849 1185 C 852 1189 857 1195 854 1199 C 855 1213 869 1208 879 1228 C 900 1217 883 1239 909 1221 C 925 1234 954 1224 958 1244 C 965 1246 961 1232 969 1237 C 972 1254 979 1232 985 1234 C 999 1221 982 1258 994 1249 C 999 1223 1002 1257 1015 1254 C 1004 1237 1018 1227 1032 1236 C 1036 1231 1041 1234 1044 1230 C 1051 1230 1050 1232 1054 1234 C 1055 1232 1053 1231 1056 1230 C 1066 1235 1051 1216 1063 1219 L 1065 1218 C 1073 1226 1067 1211 1069 1208 C 1074 1208 1080 1214 1083 1213 C 1085 1211 1088 1214 1089 1210 C 1091 1210 1092 1206 1093 1209 C 1096 1211 1090 1213 1089 1214 C 1091 1216 1093 1217 1094 1214 C 1099 1214 1094 1217 1103 1215 C 1106 1210 1111 1214 1110 1207 C 1117 1199 1130 1208 1132 1197 C 1130 1193 1137 1193 1137 1196 C 1142 1195 1139 1195 1139 1193 C 1141 1189 1133 1182 1134 1181 C 1138 1183 1140 1175 1145 1176 C 1147 1173 1142 1168 1141 1164 C 1139 1164 1137 1162 1137 1161 L 1139 1159 C 1137 1155 1143 1149 1136 1147 C 1137 1139 1150 1129 1148 1123 C 1145 1118 1153 1118 1150 1114 Z"/>
            <path id="UA-18" fill="#ffdd19" stroke="#231f20" stroke-width="0.4" stroke-linejoin="round" d="M 1422 900 C 1416 901 1407 887 1417 883 C 1404 876 1392 884 1402 861 C 1389 869 1350 878 1353 854 C 1354 849 1356 854 1358 854 C 1363 852 1382 855 1380 847 C 1369 846 1375 842 1367 840 C 1364 827 1365 833 1370 821 C 1366 811 1364 812 1359 811 C 1360 806 1357 807 1356 803 L 1349 800 C 1335 807 1337 787 1327 792 C 1323 785 1321 792 1318 791 C 1316 786 1303 785 1306 780 C 1310 782 1310 777 1307 776 C 1306 770 1304 765 1297 765 C 1282 744 1291 770 1276 751 C 1287 736 1255 752 1253 738 C 1245 744 1254 748 1241 748 C 1243 751 1243 759 1238 758 C 1251 764 1235 764 1243 776 C 1244 774 1253 771 1251 775 C 1239 779 1254 789 1250 794 C 1238 786 1241 806 1239 811 C 1239 823 1224 823 1223 814 C 1218 815 1221 820 1219 822 C 1213 823 1219 828 1216 829 C 1194 825 1207 803 1192 811 C 1188 813 1180 817 1187 817 C 1184 821 1195 818 1199 825 C 1177 844 1189 846 1194 866 C 1199 870 1192 887 1197 890 L 1194 892 C 1195 892 1196 892 1195 893 C 1193 893 1192 902 1194 905 C 1200 904 1194 909 1194 911 C 1197 915 1193 911 1193 912 C 1190 916 1196 920 1191 921 C 1180 924 1194 933 1185 936 L 1168 948 C 1164 945 1159 948 1155 947 L 1150 957 C 1132 950 1140 966 1140 980 C 1131 971 1116 990 1114 973 C 1107 975 1110 976 1107 980 C 1107 981 1113 986 1107 985 C 1099 972 1097 982 1089 986 C 1088 988 1096 994 1094 996 C 1090 999 1090 1007 1090 1009 C 1084 1014 1074 1019 1073 1009 C 1071 1011 1067 1011 1071 1014 C 1076 1015 1073 1027 1078 1026 C 1080 1028 1075 1029 1074 1030 C 1077 1036 1075 1034 1072 1035 C 1072 1042 1075 1043 1070 1043 C 1072 1045 1076 1051 1078 1047 C 1086 1041 1078 1061 1085 1061 C 1086 1065 1093 1060 1093 1062 C 1090 1066 1100 1071 1101 1071 C 1104 1084 1111 1079 1118 1079 C 1125 1087 1119 1081 1120 1088 C 1126 1092 1133 1092 1140 1095 C 1143 1099 1132 1105 1143 1104 C 1148 1105 1153 1112 1148 1114 C 1152 1114 1150 1118 1148 1119 C 1145 1127 1155 1117 1157 1117 C 1169 1124 1166 1112 1168 1108 C 1175 1110 1179 1109 1178 1104 C 1182 1100 1189 1096 1189 1093 C 1185 1080 1199 1084 1203 1081 C 1210 1078 1204 1078 1204 1073 C 1192 1072 1204 1065 1203 1060 C 1205 1056 1193 1055 1200 1053 C 1201 1044 1208 1042 1213 1038 C 1221 1039 1218 1034 1223 1037 C 1228 1034 1233 1032 1234 1029 C 1239 1031 1246 1022 1249 1029 C 1256 1030 1258 1015 1268 1016 L 1269 1018 C 1272 1010 1276 1019 1279 1017 C 1280 1012 1280 1016 1283 1015 C 1282 1011 1285 1013 1285 1011 C 1285 1008 1292 997 1295 990 L 1293 985 C 1295 982 1294 983 1293 981 C 1294 976 1299 973 1304 973 C 1301 965 1306 968 1310 963 C 1314 960 1311 960 1317 960 C 1322 958 1330 965 1330 964 C 1330 959 1334 957 1337 955 C 1337 949 1343 954 1345 951 C 1347 951 1346 952 1346 953 L 1347 953 C 1353 948 1351 945 1347 940 C 1354 938 1346 933 1353 933 C 1354 934 1354 933 1354 932 C 1346 920 1359 905 1367 918 C 1374 921 1371 910 1375 913 C 1381 920 1381 913 1383 918 C 1386 920 1391 930 1392 924 C 1384 918 1408 923 1402 912 C 1409 912 1421 907 1422 900 Z"/>
            <path id="UA-14" fill="#ffd00f" stroke="#231f20" stroke-width="0.4" stroke-linejoin="round" d="M 1329 604 C 1326 604 1314 601 1317 596 C 1314 594 1313 590 1315 587 C 1312 588 1308 580 1314 579 C 1312 577 1309 572 1308 568 C 1301 577 1294 557 1294 571 C 1282 572 1298 549 1272 560 C 1275 547 1270 552 1268 543 C 1268 540 1272 539 1273 537 C 1268 534 1274 519 1267 523 C 1270 520 1265 522 1267 521 C 1269 520 1267 516 1266 514 C 1262 513 1262 514 1259 511 C 1251 507 1260 502 1262 510 C 1266 510 1270 506 1264 505 C 1271 506 1267 500 1264 498 C 1258 491 1265 484 1264 479 C 1254 474 1268 468 1254 467 C 1252 462 1250 463 1247 461 C 1249 459 1246 456 1249 456 C 1248 454 1245 457 1248 453 C 1245 450 1237 447 1235 444 C 1233 446 1233 441 1235 442 C 1234 440 1235 436 1237 434 C 1231 431 1233 429 1230 425 C 1236 422 1233 422 1234 417 L 1238 416 L 1238 415 C 1239 412 1235 417 1238 412 C 1242 414 1242 409 1245 407 C 1248 409 1249 404 1249 401 C 1256 398 1244 400 1243 395 C 1242 395 1235 396 1238 394 C 1238 390 1243 383 1249 387 C 1249 384 1252 383 1255 382 C 1254 383 1251 370 1250 375 C 1243 378 1238 368 1230 374 C 1232 374 1232 374 1230 375 L 1229 372 C 1231 369 1224 368 1225 366 C 1227 363 1222 363 1223 361 C 1225 363 1225 360 1226 360 C 1226 357 1227 356 1224 355 C 1226 352 1225 345 1222 343 C 1225 343 1225 341 1223 341 C 1225 339 1224 338 1223 336 C 1214 330 1220 343 1198 343 C 1195 346 1201 349 1195 351 C 1194 355 1192 364 1190 356 C 1188 362 1185 375 1178 377 C 1174 369 1170 378 1167 381 C 1164 381 1161 383 1160 386 C 1148 379 1137 382 1127 386 C 1112 385 1127 398 1129 400 C 1119 412 1132 407 1129 417 L 1130 418 C 1130 421 1133 415 1135 417 C 1135 420 1130 421 1131 423 C 1128 428 1131 425 1129 430 C 1129 431 1123 435 1124 438 C 1123 439 1121 438 1119 440 C 1120 446 1114 450 1106 450 C 1102 450 1101 453 1100 453 L 1098 454 C 1100 453 1096 454 1098 453 C 1102 450 1100 447 1096 447 C 1092 446 1087 445 1085 449 C 1084 453 1079 448 1078 451 C 1072 458 1058 455 1050 462 C 1045 464 1042 457 1039 464 L 1038 465 C 1043 467 1034 470 1035 473 C 1041 486 1027 485 1019 482 C 1014 478 1007 492 1000 492 C 998 487 1000 493 999 494 C 996 494 999 496 1000 496 C 1002 499 999 497 998 496 C 997 497 999 498 1000 499 C 999 502 1000 500 1001 501 C 998 501 1002 502 1001 503 C 998 503 1001 504 1001 505 C 1000 507 1001 505 1002 506 C 1005 509 994 506 1002 509 C 999 511 1000 511 1000 513 L 996 517 C 996 518 1000 517 997 518 C 995 517 996 519 994 520 C 1003 529 982 534 991 555 C 987 557 987 558 992 558 C 996 565 984 569 989 573 C 992 583 982 570 988 585 C 989 586 994 585 993 587 C 992 588 987 588 990 590 C 992 592 994 590 995 591 C 990 594 997 599 999 595 C 1004 611 1012 601 1007 611 C 1009 617 1013 611 1016 617 C 1020 619 1018 623 1021 626 C 1014 633 1020 632 1022 634 C 1012 646 1024 645 1015 649 C 1015 653 1021 652 1019 656 C 1022 655 1022 657 1020 658 C 1012 662 1027 668 1023 673 C 1031 690 1030 676 1041 681 C 1049 678 1050 699 1061 694 C 1053 698 1062 693 1064 697 C 1068 698 1066 697 1067 696 C 1069 701 1073 706 1067 707 C 1072 715 1069 712 1080 711 C 1085 711 1080 712 1082 713 C 1088 714 1084 709 1086 707 C 1095 710 1103 697 1110 696 C 1111 700 1113 700 1116 700 C 1118 702 1119 702 1120 701 C 1122 706 1128 703 1127 710 C 1126 713 1129 715 1131 715 C 1136 721 1122 719 1128 724 L 1138 724 C 1140 728 1144 726 1148 728 C 1152 734 1150 722 1155 724 C 1158 723 1160 728 1163 725 C 1166 717 1174 716 1180 714 C 1179 705 1186 703 1193 700 C 1190 694 1190 689 1196 685 C 1205 687 1208 687 1209 692 C 1215 700 1223 684 1225 696 C 1226 702 1218 699 1219 703 C 1216 702 1219 705 1220 706 C 1222 707 1225 704 1226 706 C 1230 711 1233 717 1236 709 C 1236 727 1241 708 1246 714 C 1243 723 1254 710 1257 713 C 1261 711 1252 709 1258 707 C 1260 700 1257 693 1268 696 C 1270 695 1280 692 1279 696 C 1282 703 1291 695 1296 693 C 1295 688 1303 690 1307 688 C 1306 686 1315 689 1313 685 C 1309 684 1319 675 1321 671 C 1318 668 1321 667 1322 666 C 1318 665 1323 663 1323 662 C 1322 658 1322 657 1326 656 C 1324 652 1327 650 1327 646 C 1324 644 1325 634 1328 631 C 1325 631 1325 627 1324 624 C 1328 611 1314 616 1329 604 Z"/>
            <path id="UA-10" fill="#fddb00" stroke="#231f20" stroke-width="0.4" stroke-linejoin="round" d="M 1017 908 C 1020 887 1032 902 1012 881 C 1012 876 1010 872 1003 870 C 1006 867 1003 868 1002 863 C 1007 858 1002 861 998 858 C 1000 850 1000 846 994 842 C 999 840 990 838 994 835 C 991 830 983 841 984 828 C 975 830 976 814 963 830 C 958 827 964 828 965 825 C 967 817 961 824 959 822 C 958 818 960 819 962 820 C 968 812 956 813 955 808 C 959 806 958 802 956 799 C 939 790 957 785 956 771 L 950 765 C 947 765 936 772 944 767 C 942 765 946 764 942 763 C 936 761 943 760 945 759 C 944 758 943 755 942 758 C 937 759 938 754 939 751 C 933 746 922 745 919 737 C 929 733 921 731 924 720 C 918 718 895 704 901 717 C 900 718 900 717 899 716 C 875 701 909 679 885 675 C 883 676 884 678 882 675 C 879 663 866 666 866 652 C 865 647 861 650 859 650 C 857 649 858 646 857 646 C 854 646 853 644 853 643 C 848 645 852 636 849 639 C 848 638 849 639 849 639 L 846 640 C 838 639 844 664 832 658 C 828 660 825 661 824 665 C 812 672 829 693 821 693 C 819 691 817 683 817 690 C 813 698 804 675 803 675 C 798 678 805 672 802 674 C 766 675 791 698 758 680 C 755 659 747 688 746 694 C 741 698 728 711 732 697 C 726 707 727 692 717 696 C 713 698 719 707 722 709 C 722 712 716 716 717 722 C 720 730 707 722 706 722 C 704 734 692 730 707 743 C 703 744 696 741 695 738 C 690 742 698 752 701 754 C 700 767 691 763 703 776 C 696 785 701 796 700 805 C 696 806 700 813 700 813 C 694 817 690 818 691 823 C 687 826 697 830 697 834 C 695 839 700 837 702 841 C 704 846 703 853 707 857 C 711 862 720 872 712 878 C 709 882 715 881 713 888 C 716 888 719 894 720 895 C 717 897 716 897 718 899 C 732 905 733 908 733 923 C 738 924 745 924 743 929 C 744 932 759 926 755 933 C 752 937 761 934 761 936 C 761 939 765 936 766 937 C 772 945 773 932 778 932 C 781 939 783 939 786 945 C 788 943 787 936 790 943 C 788 972 795 948 800 965 C 801 966 799 967 799 967 C 794 962 797 974 794 972 C 781 971 798 983 794 988 C 795 995 799 987 804 994 L 811 1003 C 815 1005 813 1004 814 1002 C 825 998 814 1007 831 1011 C 838 1004 844 994 857 993 C 862 991 865 987 868 985 C 873 982 875 984 875 980 C 873 977 888 978 891 977 C 893 964 897 971 904 965 C 923 978 902 962 924 959 C 925 958 926 960 927 960 C 927 957 929 955 927 954 C 926 950 931 949 934 946 C 936 941 936 935 941 942 C 947 941 951 947 952 950 C 950 954 954 954 955 957 C 961 957 960 959 961 962 C 955 976 964 966 969 982 C 982 977 1001 975 997 964 C 1017 960 999 954 1018 951 C 1022 951 1012 943 1013 941 C 1011 942 1009 944 1008 943 C 1005 940 1009 936 1006 933 C 1004 929 1001 929 1004 927 C 1012 927 1001 920 1010 921 C 1014 923 1010 918 1012 918 C 1014 917 1016 915 1016 913 C 1018 912 1024 904 1017 908 Z M 902 722 C 905 726 902 726 901 729 C 900 727 899 722 902 722 Z"/>
            <path id="UA-01" fill="#fdbd10" stroke="#231f20" stroke-width="0.4" stroke-linejoin="round" d="M 1249 737 C 1246 733 1244 730 1249 725 C 1243 718 1251 707 1237 717 C 1238 714 1235 712 1237 709 C 1235 708 1234 716 1232 713 C 1225 700 1217 712 1219 701 C 1225 702 1226 696 1224 692 C 1222 687 1214 698 1211 694 C 1207 689 1207 687 1199 686 C 1190 684 1190 696 1193 700 C 1186 703 1178 705 1181 713 C 1164 718 1162 730 1158 724 C 1148 725 1152 730 1140 727 C 1140 723 1136 725 1134 724 C 1130 727 1131 722 1128 724 C 1124 720 1130 720 1132 718 C 1133 716 1130 717 1131 715 C 1124 715 1129 707 1125 704 C 1123 704 1121 704 1120 701 C 1117 702 1110 699 1110 696 C 1104 698 1099 703 1093 706 C 1089 708 1083 705 1086 712 C 1080 716 1083 710 1080 711 C 1073 710 1070 717 1069 708 L 1067 707 C 1068 705 1071 708 1071 705 L 1067 696 C 1067 697 1067 698 1065 697 C 1063 695 1053 697 1060 695 C 1054 698 1044 676 1036 679 C 1032 682 1027 685 1026 679 C 1026 673 1022 673 1023 668 C 1016 664 1018 660 1021 656 C 1008 646 1019 651 1019 646 C 1008 638 1003 645 990 637 C 987 633 987 624 976 621 C 965 617 962 621 957 621 C 959 627 951 625 947 626 C 944 626 948 632 943 631 C 944 637 940 632 937 633 C 933 636 934 638 936 642 C 932 643 928 642 926 644 C 924 653 917 639 915 634 L 906 644 C 906 652 906 652 899 651 C 909 680 873 656 895 682 C 873 732 926 698 923 729 C 925 734 928 736 922 735 C 917 737 921 744 925 743 C 928 744 931 745 932 748 C 934 749 940 750 939 752 C 936 761 944 755 945 759 C 942 759 936 762 941 763 C 943 764 944 764 943 765 C 946 768 940 768 940 769 C 945 770 949 761 951 767 C 960 774 954 774 953 783 C 951 789 949 784 949 792 C 948 796 964 801 955 808 C 956 812 967 813 963 818 C 962 822 956 817 960 822 C 974 816 955 835 966 829 C 972 815 978 832 984 827 C 987 829 983 832 985 834 C 994 836 992 830 995 840 C 997 838 996 842 994 841 C 993 842 995 843 995 843 C 1005 846 995 855 1000 859 C 1007 861 999 871 1011 874 C 1012 884 1014 885 1020 889 C 1027 890 1020 900 1017 904 C 1015 909 1019 907 1021 907 C 1019 911 1016 912 1016 915 C 1012 916 1012 921 1010 921 C 1004 919 1008 924 1007 926 C 1000 925 1004 931 1007 935 C 1006 949 1012 935 1019 951 C 1024 951 1023 953 1022 956 C 1024 962 1032 972 1037 971 C 1030 985 1051 970 1037 994 C 1044 1009 1053 994 1057 1009 C 1076 1015 1056 994 1078 1016 C 1086 1012 1090 1011 1091 1006 C 1091 998 1097 993 1089 988 C 1103 972 1097 980 1110 985 C 1110 982 1108 981 1107 981 C 1108 978 1109 977 1108 975 C 1116 970 1115 977 1118 981 C 1125 981 1135 973 1140 980 C 1136 932 1147 974 1156 947 C 1160 949 1162 947 1164 946 C 1166 947 1169 949 1169 947 C 1174 944 1185 938 1188 933 L 1188 928 C 1182 922 1197 923 1192 915 C 1201 900 1190 910 1194 894 C 1195 893 1196 892 1194 892 C 1193 891 1197 890 1197 890 C 1194 887 1196 877 1196 870 C 1193 854 1175 842 1198 827 C 1198 817 1167 818 1198 809 C 1203 817 1203 828 1214 827 C 1219 832 1215 824 1216 823 C 1221 822 1220 817 1220 815 C 1226 811 1224 825 1229 821 C 1244 819 1237 802 1241 794 C 1264 793 1237 785 1250 775 C 1255 770 1239 780 1240 768 C 1248 759 1241 762 1238 758 C 1244 759 1242 749 1241 749 C 1241 744 1248 750 1249 747 C 1247 741 1255 738 1249 737 Z"/>
        </g>
    </g>
</svg>
