<?xml version="1.0" encoding="UTF-8"?>
<!-- Generated by Pixelmator Pro 3.6.10 -->
<svg width="829" height="851" viewBox="0 0 829 851" xmlns="http://www.w3.org/2000/svg">
    <g id="Landen">
        <g id="SERVIE">
            <path id="RS-38" fill="#ffdd19" stroke="#231f20" stroke-width="0.4" stroke-linejoin="round" d="M 573 680 C 572 683 571 682 569 683 L 569 686 L 571 690 C 563 688 565 688 561 694 C 559 700 557 706 559 712 C 562 713 562 718 558 716 L 554 720 C 548 722 548 716 545 713 C 541 712 540 706 536 706 C 525 703 525 721 514 723 C 512 723 509 726 509 728 C 507 735 496 734 495 740 C 486 753 508 765 496 776 C 492 782 487 774 484 782 C 481 781 480 778 478 775 C 474 771 485 767 479 761 C 464 748 465 721 441 717 C 421 705 416 725 414 707 C 410 703 407 704 409 698 C 408 696 403 696 404 693 C 393 682 377 683 384 662 L 370 656 C 374 654 367 654 369 650 C 368 641 378 643 384 645 C 384 640 403 649 397 633 C 393 630 401 628 400 626 C 402 625 402 626 403 627 C 404 624 406 626 407 624 C 414 620 424 618 428 609 C 418 609 417 591 425 596 C 430 578 430 593 436 582 C 437 579 438 576 434 574 C 438 571 439 565 434 564 C 431 562 432 561 430 559 C 425 560 422 555 421 552 C 432 554 433 539 443 540 C 441 531 451 537 455 540 C 461 547 447 543 453 547 C 448 553 463 549 467 554 C 472 556 474 547 480 553 C 484 556 484 551 485 548 C 497 554 492 551 498 563 C 500 564 501 570 502 568 C 509 553 512 580 520 583 C 527 574 531 588 536 582 C 545 579 538 588 542 592 C 538 595 544 599 540 602 C 541 607 547 599 548 602 C 551 604 550 601 552 601 C 557 606 568 595 567 604 C 569 605 572 603 574 603 C 578 613 581 600 588 599 C 602 613 587 605 594 624 C 590 628 586 627 591 632 C 588 632 589 637 587 639 C 580 646 596 658 583 659 C 581 660 583 660 583 662 C 581 662 580 664 578 663 C 575 667 580 671 580 673 C 582 674 582 672 583 671 C 586 675 593 678 585 683 C 581 688 579 680 573 680 Z"/>
            <path id="RS-37" fill="#e7c91d" stroke="#231f20" stroke-width="0.4" stroke-linejoin="round" d="M 533 427 C 532 424 523 421 531 421 C 532 420 532 420 530 419 C 531 417 525 416 524 414 C 522 413 520 417 518 416 C 517 416 515 415 514 417 L 511 418 L 509 421 C 508 423 508 423 506 422 C 506 427 500 431 498 433 C 497 434 498 437 496 434 C 494 428 491 436 491 431 C 492 431 495 428 492 428 C 491 430 489 432 489 428 C 487 425 485 431 484 428 C 485 430 482 431 480 432 C 474 433 478 428 477 424 C 477 419 472 418 474 425 C 476 428 474 429 474 432 L 471 436 C 470 439 470 437 469 437 L 468 438 C 469 439 467 440 467 441 C 466 439 467 438 465 440 C 461 436 463 444 465 445 C 458 450 460 443 456 448 L 454 447 L 452 447 L 450 448 C 448 447 447 448 446 446 L 445 448 L 442 449 L 440 448 L 439 449 L 437 451 C 440 451 437 453 438 454 C 440 462 442 455 437 463 L 436 466 C 439 467 440 464 440 465 L 441 467 L 442 468 L 446 468 L 446 470 L 445 472 C 442 473 443 477 444 480 C 446 479 446 479 446 481 L 447 483 L 448 484 C 447 486 451 486 449 488 C 446 491 440 492 436 489 L 434 492 C 432 492 429 490 428 492 L 434 500 L 433 510 C 435 512 434 514 437 513 L 439 512 L 440 512 L 441 511 L 442 511 L 444 515 C 444 517 447 520 445 522 L 444 525 C 443 537 452 536 457 544 C 452 544 451 544 453 548 C 447 551 460 550 462 552 C 466 552 464 545 468 544 C 467 542 470 542 468 542 C 466 542 468 538 466 539 C 465 536 465 534 467 532 C 465 527 468 529 472 529 C 474 523 477 530 480 529 L 482 528 C 484 528 484 527 484 526 C 486 525 486 524 486 522 C 487 521 488 521 487 519 L 487 515 L 490 511 C 493 509 489 508 490 506 C 492 503 489 503 494 503 C 494 501 496 501 497 500 L 497 499 L 499 498 C 501 496 504 496 505 494 L 512 493 C 513 491 516 493 518 494 C 520 494 521 492 522 494 C 522 493 526 490 526 488 L 526 487 L 527 486 C 530 487 531 482 531 480 C 530 478 528 480 529 478 C 524 477 527 470 527 465 C 526 461 523 465 522 461 L 519 457 C 517 456 518 451 520 454 L 520 452 C 522 450 520 449 520 447 C 521 447 523 449 523 447 L 525 448 C 526 447 529 445 527 445 C 530 442 523 438 527 434 C 529 431 532 430 533 427 Z"/>
            <path id="RS-36" fill="#ffdd19" stroke="#231f20" stroke-width="0.4" stroke-linejoin="round" d="M 450 486 L 448 485 L 448 484 L 447 483 L 447 482 C 446 481 445 481 446 480 L 444 480 L 443 474 C 442 473 445 473 445 472 C 445 469 450 467 443 467 L 441 467 L 440 466 C 440 463 439 466 438 466 C 436 466 437 465 437 464 C 435 461 442 460 439 457 C 436 456 440 452 437 451 L 440 448 C 441 446 439 445 437 445 L 431 434 L 428 433 L 425 433 L 424 432 C 420 434 424 433 423 435 L 419 435 C 417 436 411 438 414 440 L 416 441 L 416 444 L 415 446 C 413 447 411 449 409 448 C 408 447 404 446 404 444 C 402 444 402 442 401 441 C 400 440 393 435 394 439 L 392 440 L 390 444 C 387 446 392 447 390 450 C 389 451 391 452 389 452 C 387 452 389 453 388 454 L 387 455 L 386 456 L 384 458 C 385 459 385 462 383 462 L 382 463 C 380 463 378 463 379 465 C 376 465 375 466 376 469 C 376 472 380 470 379 474 C 382 475 381 480 379 481 C 378 482 378 480 377 480 C 376 481 375 481 375 483 C 372 486 376 486 377 489 C 375 492 378 494 376 497 C 377 498 375 498 374 499 L 373 502 L 371 503 C 372 504 374 502 373 504 C 375 504 375 506 377 507 L 382 508 L 388 514 L 388 516 L 389 519 L 389 522 L 391 522 L 389 524 C 389 526 391 528 392 525 L 393 527 L 392 527 L 394 531 L 394 536 C 390 532 391 540 390 542 L 388 544 C 388 544 386 544 387 545 C 391 557 377 542 374 542 C 372 543 370 543 371 545 C 368 544 366 547 364 547 C 361 549 356 550 355 545 C 356 543 353 543 353 542 C 352 541 352 539 350 539 C 346 535 344 529 340 535 C 337 535 340 539 339 539 L 332 539 L 331 540 C 331 543 327 546 328 549 C 330 549 329 552 327 551 L 326 553 C 327 555 325 557 328 557 C 329 558 330 558 328 559 C 329 561 323 562 322 563 L 323 565 L 323 566 C 323 568 327 569 326 572 C 324 576 334 575 328 580 L 325 581 L 323 581 L 320 583 C 319 584 317 582 318 584 C 322 587 322 596 328 593 C 331 591 330 599 332 595 C 333 595 333 591 335 593 L 339 594 L 341 595 C 341 593 344 592 345 592 C 348 585 346 596 351 597 L 369 607 C 370 610 374 610 374 606 C 375 602 375 608 376 606 L 381 608 L 386 609 L 394 610 L 398 611 C 397 612 399 611 400 612 C 406 611 402 616 405 621 C 409 627 424 615 428 609 C 421 607 417 601 422 595 C 423 593 424 595 425 596 C 427 596 425 590 428 589 C 428 584 433 588 435 585 C 434 581 439 580 436 575 C 434 573 442 564 432 562 C 431 558 425 560 421 554 C 420 551 431 552 432 548 C 434 540 442 543 443 536 C 448 533 442 527 445 524 L 446 521 L 444 515 L 443 514 C 442 513 443 510 441 512 L 441 511 L 440 512 L 439 512 L 438 513 L 436 513 L 435 512 C 432 509 434 503 434 500 C 432 496 423 489 434 492 C 436 490 436 487 439 491 C 443 491 448 490 450 486 Z"/>
            <path id="RS-35" fill="#ffd00f" stroke="#231f20" stroke-width="0.4" stroke-linejoin="round" d="M 531 365 C 530 363 529 359 527 361 C 526 363 525 363 523 363 C 520 361 522 359 517 362 C 510 366 513 358 503 360 C 500 358 500 364 496 361 C 494 362 494 358 494 357 C 494 361 490 355 488 355 C 487 357 486 354 485 354 C 484 354 482 353 482 355 L 481 355 C 480 354 478 353 477 354 L 475 354 L 474 355 C 474 354 474 354 474 355 C 474 355 472 355 473 356 C 475 356 472 357 471 358 L 470 357 L 469 358 L 468 358 C 468 355 471 352 468 351 C 467 350 465 351 465 352 C 465 348 458 341 456 347 L 456 348 L 455 351 L 456 351 L 453 351 C 450 353 448 348 446 347 C 443 345 428 347 439 352 C 443 352 436 353 437 354 C 440 354 444 357 441 360 C 445 367 438 362 440 367 C 443 363 443 370 441 372 C 444 371 444 373 444 376 C 445 378 449 372 449 376 C 449 377 451 378 449 378 C 446 379 446 383 446 384 C 446 383 445 386 444 385 L 443 386 L 440 389 L 442 390 C 443 389 443 392 444 391 L 445 393 L 446 396 C 446 403 443 398 442 401 L 442 402 L 441 403 C 437 402 444 407 445 408 L 444 411 L 442 411 C 444 411 443 413 444 413 C 445 416 444 417 442 415 L 439 418 C 440 418 439 420 441 421 L 441 422 C 444 422 442 423 443 425 C 442 425 441 425 442 426 C 442 428 439 429 438 430 L 436 433 L 436 436 C 429 435 437 441 437 445 L 440 447 L 440 448 L 442 449 L 445 448 L 446 446 C 447 448 449 447 450 448 C 451 446 451 447 452 447 L 454 447 L 456 448 C 460 444 459 450 464 445 C 464 444 460 436 465 440 C 467 438 466 440 467 441 L 468 438 L 469 437 C 469 437 470 439 470 437 C 472 436 471 434 472 434 C 476 433 473 430 475 428 C 472 425 473 416 477 422 L 477 428 C 477 429 475 431 477 432 L 480 432 C 482 431 484 431 484 429 C 485 430 484 428 484 429 C 485 431 485 428 487 427 C 491 425 488 432 491 430 C 494 425 492 431 490 433 C 497 430 496 438 498 433 C 501 431 505 426 506 422 C 508 424 510 419 511 418 C 511 418 515 418 515 416 C 517 416 519 417 521 415 C 523 412 525 407 525 403 L 522 401 L 522 397 C 523 395 526 395 528 394 C 529 391 526 390 526 388 C 529 387 528 384 528 382 C 531 381 529 377 528 375 C 528 372 531 372 529 369 C 528 367 532 367 531 365 Z"/>
            <path id="RS-34" fill="#fddb00" stroke="#231f20" stroke-width="0.4" stroke-linejoin="round" d="M 450 378 C 449 371 444 380 444 374 C 443 372 444 370 441 372 C 441 371 444 367 441 366 C 440 366 439 370 439 366 C 442 363 438 365 437 363 C 434 364 431 366 429 364 C 425 363 421 364 420 359 C 420 357 417 361 416 359 L 413 361 L 413 362 L 410 361 C 408 363 408 364 406 362 L 405 362 C 405 362 405 363 405 362 L 403 362 L 400 361 C 398 360 401 356 398 357 L 393 357 C 391 358 389 356 387 355 L 384 355 C 383 355 385 353 383 353 L 381 354 L 377 357 L 376 355 L 374 355 L 373 353 L 372 351 C 371 352 371 351 372 351 C 368 345 361 364 361 351 C 359 348 358 349 356 349 C 355 349 354 351 353 350 L 349 348 C 348 347 347 348 346 349 L 346 351 C 345 352 342 354 345 354 C 345 357 348 357 350 358 L 348 360 L 348 363 L 347 365 L 347 371 C 348 372 348 370 349 369 L 350 372 C 350 372 352 373 351 374 C 350 376 352 378 353 378 C 354 379 354 381 355 380 L 355 381 C 355 381 356 382 355 381 L 356 382 L 356 383 L 355 383 L 356 383 C 357 383 355 385 357 384 L 357 386 L 358 387 L 360 389 L 361 388 C 362 389 361 392 363 393 C 364 392 364 391 365 392 C 369 393 374 397 374 401 C 377 405 382 403 385 406 L 387 407 L 389 409 C 391 411 387 411 389 412 C 388 414 386 412 386 412 L 385 412 C 385 413 385 412 385 412 L 385 413 C 386 415 383 421 381 423 C 380 424 381 425 379 425 L 381 426 L 381 427 L 382 428 L 383 430 L 384 430 L 387 431 C 388 432 391 433 391 435 L 393 435 L 394 436 C 396 437 398 440 401 440 L 404 444 C 403 445 405 446 406 446 L 409 448 C 411 449 413 447 415 446 L 416 444 L 415 441 C 413 440 412 438 415 437 L 420 435 L 423 435 C 421 432 424 433 425 432 L 426 433 L 428 433 C 432 434 432 437 436 436 L 436 433 L 438 430 C 439 429 442 428 442 426 C 441 425 442 425 443 425 L 443 422 L 441 422 L 440 420 L 440 418 C 439 418 439 417 440 418 L 443 415 C 444 417 445 416 444 413 L 443 412 L 442 410 C 443 410 444 411 444 409 C 446 408 444 408 443 407 C 441 406 438 401 441 403 C 441 401 441 402 442 402 L 442 400 C 442 401 442 400 442 400 L 445 400 L 446 393 L 444 391 C 443 392 443 389 441 390 C 439 389 442 387 443 386 L 444 385 C 447 385 445 379 450 378 Z"/>
            <path id="RS-32" fill="#fdbd10" stroke="#231f20" stroke-width="0.4" stroke-linejoin="round" d="M 395 437 L 393 436 L 392 435 L 389 432 L 387 431 C 385 432 384 429 383 430 C 383 430 381 430 382 428 L 381 428 L 380 426 L 379 425 L 380 425 L 382 422 L 385 414 L 385 412 L 387 413 C 388 414 390 412 388 412 L 389 411 C 391 409 388 409 387 407 L 374 402 C 374 397 370 394 367 393 L 364 392 C 363 393 362 393 362 391 C 362 385 360 391 359 388 C 357 388 358 386 357 385 L 357 384 L 356 384 L 356 383 L 355 383 C 358 383 355 382 356 382 C 356 382 355 382 356 382 C 357 382 355 380 356 382 L 356 381 L 353 378 L 352 379 L 353 380 L 353 381 L 352 382 L 352 383 L 353 384 C 353 388 349 381 350 390 C 351 392 349 391 349 392 C 348 393 345 393 346 395 C 348 400 345 397 342 401 C 344 403 342 404 340 403 L 337 406 C 335 407 333 406 332 408 C 329 408 327 409 328 411 L 325 412 C 324 413 323 412 324 414 L 326 416 L 309 417 C 306 418 307 426 309 429 C 312 429 308 433 310 434 C 311 434 311 432 312 433 C 315 428 321 430 320 435 C 322 435 322 436 323 437 C 323 438 325 438 325 440 C 326 440 330 441 328 442 C 327 447 333 448 336 449 C 331 453 331 447 331 458 C 334 458 333 461 335 462 C 338 464 341 464 337 468 L 337 469 C 339 469 339 470 340 471 L 341 475 L 347 476 L 348 482 C 345 484 348 485 350 485 L 351 487 L 349 489 C 352 493 340 489 340 491 L 340 494 C 343 497 343 499 337 499 C 335 499 335 503 333 504 C 331 504 332 505 331 506 L 331 508 C 328 514 326 507 324 510 C 320 512 325 512 322 515 C 320 517 325 519 325 520 L 331 520 C 333 524 336 519 340 525 C 340 528 342 531 344 531 C 345 534 349 538 352 540 L 353 542 C 356 543 355 544 355 547 C 358 548 361 551 363 547 L 371 545 C 370 543 372 543 374 542 C 377 542 391 557 387 545 C 386 544 388 544 388 544 L 390 542 C 391 539 389 533 394 536 L 394 529 C 390 528 394 526 393 525 C 391 525 392 529 389 525 C 388 523 391 524 391 522 L 390 522 C 389 523 390 521 389 521 L 389 519 L 388 516 C 389 515 389 514 387 514 C 386 512 384 512 384 510 L 380 507 C 377 507 375 506 374 504 C 372 504 375 502 371 504 L 374 500 C 374 498 377 498 377 496 C 378 493 375 492 377 489 C 376 486 372 486 375 482 C 377 478 378 482 380 480 C 382 478 381 475 379 473 C 380 472 378 470 377 471 C 375 470 376 468 375 466 L 379 464 C 378 463 381 463 382 462 L 383 462 C 385 462 385 459 384 458 L 386 456 L 387 455 L 388 454 C 389 453 388 451 390 452 L 390 448 L 389 446 L 392 440 L 394 439 L 395 437 Z"/>
            <path id="RS-31" fill="#e7c91d" stroke="#231f20" stroke-width="0.4" stroke-linejoin="round" d="M 351 487 L 350 485 L 347 484 L 348 482 C 346 481 348 477 346 476 C 336 475 343 473 337 468 L 338 467 C 339 466 340 464 338 464 C 335 463 333 461 333 458 L 331 457 C 331 448 332 453 336 449 C 333 448 327 447 328 442 C 330 441 326 440 325 440 C 325 438 323 438 323 437 C 322 436 322 435 320 435 C 321 430 315 428 312 433 C 311 432 310 436 310 433 C 311 429 306 426 307 421 C 305 421 302 423 302 421 L 297 420 L 297 419 L 296 419 L 297 418 C 297 416 298 416 295 415 C 291 415 290 414 290 418 L 288 419 C 289 421 289 421 287 420 L 283 420 C 282 419 281 420 280 421 L 284 422 C 284 424 285 423 286 425 C 288 427 288 433 284 431 L 283 428 L 281 427 L 277 424 L 276 423 L 274 423 C 273 420 269 424 267 421 L 264 421 C 264 420 262 419 261 420 C 259 421 261 422 261 423 L 261 425 C 260 430 259 424 256 426 L 254 429 L 253 433 L 250 434 L 249 434 L 248 436 L 247 436 C 244 440 256 437 257 442 C 260 444 257 439 258 438 C 261 436 260 443 262 441 C 265 439 261 444 264 445 C 267 448 256 450 259 453 C 255 476 201 446 224 469 L 244 489 C 248 492 256 492 259 498 C 260 501 265 499 265 503 C 264 506 272 510 267 513 C 269 519 264 512 265 516 C 266 518 267 519 266 522 C 269 522 269 524 266 526 C 263 526 259 526 258 528 C 257 531 257 528 256 528 L 255 528 C 257 526 255 526 253 526 L 250 524 C 248 526 246 531 243 528 C 241 527 240 530 238 527 C 237 530 238 528 239 528 C 240 530 237 530 236 530 C 239 533 237 537 239 541 C 234 542 238 543 237 546 C 237 551 244 553 250 554 C 254 552 256 559 260 557 C 262 556 262 558 263 558 C 266 561 271 556 271 561 C 271 563 273 562 273 564 C 274 565 273 566 275 566 C 291 571 280 568 288 580 C 292 580 296 579 299 582 C 305 591 304 583 308 588 C 311 589 315 585 316 588 C 317 590 319 586 320 587 C 321 585 315 583 320 583 C 321 581 324 582 325 581 L 328 580 C 334 574 324 577 326 570 L 323 566 L 323 565 L 322 563 C 325 562 333 558 326 557 C 326 554 325 553 327 552 C 327 550 329 552 329 551 C 328 546 328 547 330 542 L 332 540 L 336 540 C 337 539 341 540 339 538 C 339 535 341 534 344 531 C 343 530 340 530 341 527 L 337 523 C 336 520 331 524 331 520 L 325 520 L 323 518 C 319 515 323 516 323 512 C 321 511 324 508 326 509 C 327 512 331 510 331 508 L 331 506 C 332 505 331 504 333 504 C 335 503 335 499 337 499 C 342 499 342 498 341 495 C 341 495 339 494 340 492 C 340 492 340 491 340 492 C 340 491 339 491 341 491 L 349 491 C 350 490 349 488 351 487 Z"/>
            <path id="RS-26" fill="#ffdd19" stroke="#231f20" stroke-width="0.4" stroke-linejoin="round" d="M 460 235 C 458 223 441 231 437 224 C 426 220 433 218 441 214 C 435 204 448 197 442 189 C 421 178 404 196 395 176 C 394 174 392 176 391 177 C 387 186 368 174 360 191 C 353 195 362 204 350 207 C 350 216 343 216 341 210 C 333 209 328 206 326 214 C 322 213 322 217 320 217 C 317 216 320 213 318 215 C 316 216 319 221 317 219 C 316 219 316 218 316 220 C 317 221 318 221 316 222 L 316 224 C 316 227 317 233 312 239 C 315 239 314 244 316 247 C 321 252 329 252 333 258 C 336 261 342 257 347 264 C 346 266 349 270 348 271 C 344 272 346 272 349 272 C 348 273 343 273 344 275 C 371 307 379 306 412 278 L 439 253 C 439 251 436 246 440 245 C 448 243 454 242 460 235 Z"/>
            <path id="RS-25" fill="#ffd00f" stroke="#231f20" stroke-width="0.4" stroke-linejoin="round" d="M 192 164 C 187 163 185 161 187 157 C 185 159 181 152 180 155 C 157 168 151 119 139 120 L 123 125 C 119 110 109 125 116 132 C 98 135 115 140 104 142 C 101 142 95 141 96 145 C 100 148 89 149 99 154 C 94 157 94 156 95 162 L 95 165 C 100 167 97 159 103 161 C 106 164 105 171 100 168 C 91 172 107 178 109 171 C 113 165 116 180 108 177 C 103 181 111 179 112 177 C 119 179 111 182 107 180 C 107 184 123 185 114 190 C 109 191 120 195 112 194 C 109 198 113 196 115 195 C 117 200 109 198 111 203 C 111 206 118 202 115 207 C 119 213 124 202 128 203 C 131 205 146 211 131 215 C 131 221 135 215 136 216 C 137 220 141 215 142 218 C 140 223 149 215 152 218 C 153 219 154 222 155 219 C 158 218 162 217 162 213 C 168 220 177 213 171 204 C 178 201 173 196 180 193 C 183 195 185 194 187 191 C 188 183 193 173 192 164 Z"/>
            <path id="RS-24" fill="#fddb00" stroke="#231f20" stroke-width="0.4" stroke-linejoin="round" d="M 255 138 C 250 121 237 123 241 118 C 253 119 232 106 236 97 C 219 101 240 86 224 82 C 233 74 221 73 217 68 C 203 70 196 89 182 77 C 179 74 178 79 175 76 C 175 84 163 79 164 83 C 162 88 155 89 162 92 C 157 97 155 102 152 108 C 147 110 142 111 138 118 C 151 122 156 166 180 155 C 181 152 185 159 187 157 C 183 166 212 184 209 164 C 203 132 243 145 255 138 Z"/>
            <path id="RS-23" fill="#fdbd10" stroke="#231f20" stroke-width="0.4" stroke-linejoin="round" d="M 375 180 C 372 176 364 174 361 172 C 363 167 354 169 352 167 C 357 157 339 164 339 160 C 339 152 347 150 336 142 C 329 145 334 122 331 115 C 333 101 323 119 318 118 C 316 112 308 113 309 106 C 303 101 297 104 295 96 C 288 103 278 88 265 87 C 268 80 248 74 252 70 C 251 69 247 72 247 69 C 246 69 243 71 241 67 C 237 63 231 74 228 65 C 220 69 231 77 225 81 C 224 83 240 92 227 94 C 227 97 234 99 236 97 C 231 106 253 119 241 118 C 238 121 252 127 253 130 C 248 136 261 136 252 143 C 243 149 257 152 243 158 C 246 165 248 153 251 158 C 241 175 260 157 256 166 C 255 168 253 171 249 172 C 253 174 250 181 253 185 C 259 171 257 177 269 184 C 261 186 271 193 274 188 C 277 187 277 214 281 201 C 283 200 286 203 283 205 C 280 215 296 214 296 225 C 292 231 293 237 300 241 C 304 246 306 244 308 239 L 313 239 C 314 233 318 230 315 224 C 317 225 316 223 316 222 C 317 222 318 221 316 221 L 316 219 C 319 222 316 217 318 215 C 320 213 318 216 318 216 C 323 217 321 213 326 214 C 327 207 332 209 340 210 C 355 226 352 184 375 180 Z"/>
            <path id="RS-22" fill="#e7c91d" stroke="#231f20" stroke-width="0.4" stroke-linejoin="round" d="M 310 253 C 310 247 288 228 284 231 C 280 230 278 234 276 231 C 270 229 265 248 264 232 C 259 228 263 247 248 245 C 246 245 244 244 243 246 C 241 248 236 247 232 248 C 227 250 220 254 214 255 C 210 254 205 256 203 254 C 201 253 192 256 199 257 C 197 257 196 256 196 259 C 194 261 195 261 193 258 L 184 258 C 183 257 183 262 181 259 C 178 259 179 251 174 255 C 171 255 174 258 175 260 C 173 262 166 261 162 259 C 156 258 167 267 158 272 C 155 272 151 269 151 273 L 153 278 L 157 282 C 155 288 163 295 154 300 C 161 303 166 293 168 302 L 161 308 C 161 311 161 315 155 311 C 142 314 159 330 168 311 C 170 309 172 303 176 308 C 180 309 188 303 194 306 C 183 300 196 304 200 299 C 202 299 206 298 202 296 C 203 293 208 297 208 297 C 208 299 210 301 212 300 C 214 299 212 293 217 297 L 222 297 C 222 295 225 296 224 295 C 225 291 229 294 232 291 C 254 281 227 322 250 318 C 259 316 264 325 281 321 C 283 325 267 330 276 331 C 282 331 292 314 295 312 C 290 311 294 311 294 308 C 296 306 289 308 294 303 C 292 301 285 302 288 297 C 300 297 283 281 303 270 C 309 268 298 260 310 253 Z"/>
            <path id="RS-21" fill="#ffdd19" stroke="#231f20" stroke-width="0.4" stroke-linejoin="round" d="M 296 224 C 290 209 284 218 281 201 C 280 206 275 204 280 200 C 269 200 282 184 271 190 C 269 189 267 191 266 188 C 270 183 264 179 256 176 C 254 178 259 184 253 185 C 251 174 249 172 256 166 C 261 157 241 175 251 158 C 248 153 246 165 243 158 C 245 153 257 155 248 150 C 247 143 253 144 249 140 C 229 137 206 141 209 164 C 211 185 188 156 187 190 C 186 197 172 191 175 201 C 167 204 177 211 173 213 C 163 216 163 214 154 221 C 152 214 146 219 142 220 C 140 221 143 217 141 217 C 137 219 135 213 134 218 C 128 213 123 212 128 223 C 139 228 128 228 128 234 C 145 243 166 253 188 247 C 193 251 192 253 191 258 L 195 261 L 196 257 L 198 257 C 192 255 204 252 205 255 L 216 255 L 235 247 C 239 248 241 248 244 245 C 253 245 261 243 261 232 C 267 228 264 246 271 233 C 272 230 275 230 277 232 C 280 232 283 230 286 231 C 288 233 294 232 294 236 C 293 231 294 230 296 224 Z"/>
            <path id="RS-19" fill="#ffd00f" stroke="#231f20" stroke-width="0.4" stroke-linejoin="round" d="M 667 448 C 665 440 658 449 655 442 C 652 440 648 444 646 439 C 642 434 636 428 636 421 L 633 417 L 633 413 C 628 410 621 411 619 404 C 617 398 614 396 610 391 C 609 379 610 365 606 356 C 608 351 624 351 620 344 C 617 343 621 342 621 342 C 634 338 624 334 625 323 L 624 321 C 623 322 623 321 623 320 L 625 318 C 623 317 624 318 625 317 C 624 314 625 314 627 309 C 631 295 615 302 607 297 C 603 291 584 276 592 273 C 605 273 593 246 613 259 C 640 244 594 246 587 238 C 552 215 567 313 536 277 C 532 275 529 264 527 272 L 527 274 L 526 276 C 524 279 526 278 526 280 C 525 280 522 281 523 283 C 525 283 526 286 524 286 L 524 291 C 523 293 525 292 525 294 C 524 295 527 298 524 298 C 523 299 519 297 521 300 L 519 305 C 517 306 520 301 518 304 C 517 305 516 305 516 307 C 516 307 517 307 516 307 L 515 311 L 515 314 C 513 317 518 316 518 318 C 516 324 522 321 524 321 L 530 323 C 527 323 533 328 531 327 C 529 328 532 329 532 330 C 533 334 536 335 538 331 L 539 330 L 539 332 C 542 334 539 333 541 335 C 543 336 542 338 543 340 L 543 343 C 544 344 543 345 542 344 C 546 350 547 351 539 354 C 538 355 536 357 536 359 C 534 360 531 360 530 364 C 532 366 529 367 529 368 C 531 371 529 372 528 374 C 531 379 528 382 527 387 C 525 389 528 390 528 392 C 528 395 524 393 525 395 C 521 395 522 399 522 402 C 530 404 519 412 524 415 C 527 416 530 419 533 418 C 537 417 542 419 545 417 C 549 415 553 410 558 414 C 561 413 561 417 563 419 C 568 423 580 415 580 426 L 582 429 L 582 430 L 581 432 C 581 434 589 433 586 436 C 586 435 586 436 586 436 L 585 437 C 583 438 581 434 580 436 L 579 437 L 577 439 L 576 444 L 579 444 C 579 446 580 445 581 445 C 584 446 579 450 584 450 L 588 453 C 589 453 589 450 590 451 L 597 453 L 599 455 L 603 454 L 604 454 L 605 453 L 607 451 C 609 451 612 451 611 454 L 612 454 C 612 454 610 453 612 454 C 612 453 615 453 616 455 L 616 454 L 617 453 L 618 452 C 618 451 618 449 619 450 L 621 450 L 622 451 L 623 451 L 624 452 L 625 452 L 625 453 C 626 454 627 455 626 456 L 626 458 L 627 460 C 625 463 629 463 631 462 L 635 464 L 638 463 C 639 465 641 465 642 464 C 644 465 644 463 645 463 C 646 462 645 460 647 460 C 648 460 648 462 650 462 L 653 464 L 660 464 C 658 461 659 458 662 455 C 664 453 663 449 667 448 Z"/>
            <path id="RS-18" fill="#fddb00" stroke="#231f20" stroke-width="0.4" stroke-linejoin="round" d="M 721 481 C 718 460 713 478 701 466 L 695 462 C 694 460 694 458 692 457 C 689 453 682 451 678 448 C 675 447 672 448 669 449 C 667 447 665 449 664 450 C 664 455 658 457 659 462 C 664 466 656 463 654 464 C 653 465 653 463 651 463 L 649 462 C 648 461 647 458 646 460 L 645 463 L 643 465 C 642 464 640 465 638 463 C 636 462 635 465 634 463 L 631 462 C 630 463 626 464 627 461 L 626 459 L 626 456 C 627 455 626 454 625 453 L 625 452 L 624 452 L 623 451 L 622 451 L 621 450 L 619 450 C 618 449 618 451 618 452 L 617 453 L 616 455 L 613 453 L 611 453 C 611 454 613 455 611 454 L 611 451 L 606 451 L 604 453 L 604 454 L 602 454 C 600 454 597 455 597 453 L 593 452 L 592 452 C 587 450 591 455 586 452 C 584 448 580 452 582 446 C 581 444 579 446 579 445 C 578 443 575 445 577 443 L 577 439 L 580 436 C 581 434 583 439 585 436 L 586 436 C 590 434 580 434 582 431 L 582 429 L 581 429 L 581 428 C 578 414 572 423 563 419 C 561 416 560 414 557 413 C 551 410 547 417 542 418 C 539 417 537 418 533 419 L 531 419 C 534 420 531 422 529 421 C 527 421 528 424 530 424 C 538 427 529 432 527 435 C 524 438 527 441 528 443 L 527 445 L 527 446 C 525 449 522 448 520 447 C 519 449 521 449 521 450 L 520 454 L 519 454 C 519 451 518 455 518 456 C 520 458 522 459 522 462 C 523 464 525 463 526 463 C 528 466 526 472 526 475 L 528 478 L 529 479 L 531 480 C 531 483 529 486 527 487 L 526 490 C 525 492 522 492 522 494 C 521 492 520 494 518 494 C 515 492 513 492 511 494 L 505 494 C 504 496 500 496 499 498 C 497 498 498 500 496 501 C 495 501 494 501 494 503 C 490 503 492 503 490 506 C 490 508 492 510 489 512 C 489 514 486 514 487 516 L 487 521 C 485 521 486 523 486 524 C 485 525 484 525 484 528 L 482 528 L 480 529 C 477 530 474 523 472 529 C 469 529 464 527 467 532 C 465 534 465 536 466 539 C 468 538 466 541 467 541 C 471 544 464 545 465 549 C 462 552 468 556 471 554 C 472 550 478 551 481 553 C 484 556 484 550 485 548 C 487 550 489 552 491 551 C 497 552 497 565 502 568 C 508 556 511 570 513 576 C 519 583 519 582 526 579 C 528 579 529 582 530 583 C 534 585 536 581 540 581 C 542 582 540 577 542 578 L 542 576 L 540 574 L 541 573 C 538 573 544 568 540 566 C 537 559 535 564 541 557 C 545 555 544 550 548 549 L 554 546 C 555 545 554 542 556 541 L 560 541 L 563 536 L 566 534 C 566 531 571 531 572 528 C 573 526 575 526 574 524 L 576 523 C 574 521 572 520 576 520 L 578 520 C 580 520 580 519 581 517 C 584 516 581 515 585 516 C 587 517 586 520 588 519 L 589 517 C 590 512 590 520 594 513 C 595 511 600 516 600 511 L 603 514 L 607 517 L 610 518 C 612 519 617 520 619 523 C 621 523 622 520 623 523 L 623 522 L 628 522 C 627 521 629 519 629 518 L 633 520 L 629 526 C 625 529 631 530 633 529 C 634 530 637 533 636 531 L 641 530 C 642 531 641 532 643 531 L 645 531 L 647 532 C 649 532 651 531 653 533 C 655 532 657 536 654 537 C 652 539 657 539 658 541 C 660 544 668 543 672 543 C 678 546 673 538 683 542 C 681 541 682 539 682 537 C 683 538 683 536 684 536 C 685 537 686 535 686 535 C 690 539 693 534 695 538 L 699 533 C 705 532 702 529 705 525 C 706 522 701 522 703 520 C 704 519 704 521 704 519 L 703 515 C 714 506 716 492 721 481 Z"/>
            <path id="RS-17" fill="#fdbd10" stroke="#231f20" stroke-width="0.4" stroke-linejoin="round" d="M 700 608 C 696 602 686 596 680 598 L 680 585 C 681 584 680 583 678 583 L 680 578 C 674 575 679 577 678 572 C 679 570 682 565 678 565 L 668 556 C 668 552 665 556 664 557 C 659 558 662 559 660 564 C 657 567 654 566 653 569 C 654 573 651 572 649 572 C 646 575 642 570 641 568 C 640 567 639 566 639 568 L 639 570 L 634 568 C 634 567 637 566 635 566 L 634 567 L 632 567 L 630 570 C 624 570 629 569 628 566 C 627 566 627 564 626 565 L 623 566 C 621 565 620 570 617 571 C 615 571 615 569 614 568 C 613 568 611 570 612 572 C 612 573 613 575 611 575 C 610 573 610 579 608 577 C 606 576 599 581 597 581 C 594 583 593 581 592 585 C 591 587 595 586 593 588 C 589 588 594 589 590 591 C 590 593 592 593 591 594 C 592 596 591 600 589 599 C 593 609 597 600 592 613 C 588 618 599 624 589 627 C 592 636 580 643 588 651 C 590 660 586 657 582 660 C 585 665 574 659 578 671 C 583 672 577 675 584 671 C 584 675 590 676 589 679 L 592 679 C 599 678 605 683 606 674 C 611 675 613 671 612 666 C 617 667 615 662 618 659 C 634 668 623 648 638 656 C 643 660 660 650 660 646 C 662 643 668 646 666 641 C 667 640 674 632 672 638 C 672 641 680 644 683 643 C 683 641 685 641 687 640 C 687 637 689 639 690 638 L 692 639 C 694 636 695 634 693 631 C 693 629 695 628 694 627 C 694 626 693 625 695 625 C 698 623 699 624 699 619 C 701 616 698 612 700 608 Z"/>
            <path id="RS-16" fill="#e7c91d" stroke="#231f20" stroke-width="0.4" stroke-linejoin="round" d="M 676 545 C 676 543 672 542 670 543 C 666 543 661 544 658 541 C 658 539 653 539 654 537 C 659 533 651 531 647 532 L 645 531 L 642 531 C 641 531 642 531 642 531 L 640 530 L 636 532 L 633 529 L 630 530 C 626 527 628 529 630 524 L 633 520 L 629 518 C 629 519 627 521 628 522 L 624 522 L 623 523 C 622 520 621 523 619 523 C 617 519 612 519 609 518 L 600 511 C 600 516 596 511 594 513 C 594 514 593 516 591 516 C 590 515 590 514 589 518 C 588 522 587 516 583 516 C 582 515 582 516 583 516 L 581 518 C 580 519 579 520 578 519 L 576 520 C 572 521 574 521 576 523 L 574 524 L 573 527 C 572 530 566 531 566 534 L 563 536 C 562 540 559 541 556 541 C 554 542 555 546 553 546 C 552 548 549 547 547 549 C 544 550 544 553 543 556 C 541 557 536 561 537 562 C 541 565 542 569 540 573 C 540 574 543 573 540 574 C 540 575 542 574 542 576 L 542 578 L 541 578 L 541 603 C 543 604 546 602 548 601 C 549 603 552 603 551 601 C 555 601 559 605 562 601 C 564 599 568 600 567 605 C 571 604 574 601 576 606 C 579 609 584 597 591 599 L 591 591 C 591 590 593 590 591 588 L 593 587 C 594 586 591 587 592 585 L 593 583 L 598 580 C 599 581 600 581 601 579 L 610 576 C 610 574 611 575 612 575 C 613 573 610 570 613 569 L 615 569 C 617 575 621 565 623 566 C 625 566 625 566 626 564 L 628 567 C 628 570 625 570 631 570 C 632 569 632 566 636 566 C 634 567 634 570 637 569 C 638 569 638 571 639 570 L 639 568 C 640 566 640 567 641 568 C 642 570 646 574 649 572 C 651 572 654 573 653 569 C 654 566 657 567 660 564 C 662 559 660 559 664 557 C 665 554 671 553 673 549 C 673 548 676 547 676 545 Z"/>
            <path id="RS-15" fill="#ffdd19" stroke="#231f20" stroke-width="0.4" stroke-linejoin="round" d="M 286 337 L 285 336 L 284 336 L 284 335 L 283 334 C 281 334 282 333 281 332 L 282 331 C 283 327 278 335 274 331 C 270 327 285 325 281 320 C 260 328 259 312 248 319 C 228 316 255 280 230 292 C 227 292 225 292 224 295 C 222 297 220 296 217 297 C 216 297 213 293 213 297 C 215 298 211 297 213 298 C 212 300 211 301 210 299 L 208 297 C 207 296 204 294 202 296 C 201 297 207 298 202 298 C 202 301 202 298 200 299 C 199 303 185 300 192 305 C 195 304 194 306 195 307 C 198 307 195 310 198 312 C 193 312 196 315 197 317 C 196 318 194 317 195 319 L 193 319 C 195 321 194 320 193 321 C 192 322 196 324 193 324 C 189 330 197 323 196 327 C 192 328 194 329 196 329 C 196 330 194 332 197 331 C 200 332 194 333 195 335 C 199 336 194 338 196 339 C 198 339 195 341 197 342 C 197 344 195 341 195 343 C 197 344 194 345 195 346 L 195 348 C 190 348 198 352 189 357 C 196 360 183 366 189 368 C 188 381 177 368 187 387 C 193 392 182 399 187 402 C 189 402 186 408 191 407 C 196 424 215 406 222 418 C 220 422 237 435 239 431 C 243 424 241 432 242 434 C 245 433 245 437 246 436 L 248 436 L 249 434 L 250 434 L 253 433 C 253 430 255 427 258 426 C 260 426 260 429 261 425 L 261 423 C 261 422 259 421 261 420 L 257 419 C 256 418 254 418 254 416 L 251 412 L 247 411 L 244 411 C 241 411 242 409 239 411 L 235 410 L 232 409 C 230 409 232 407 232 409 L 233 408 C 235 406 230 406 233 405 C 236 402 233 403 234 399 C 235 398 239 396 238 394 C 236 395 235 390 233 393 L 232 391 L 231 390 C 231 388 233 390 234 389 C 236 387 233 385 235 383 L 235 381 C 236 380 235 378 234 378 C 227 377 238 375 240 372 C 243 374 247 377 249 373 L 252 371 L 254 370 C 257 367 256 370 259 371 L 266 370 C 268 371 267 375 269 374 C 273 373 278 375 276 370 C 275 368 274 367 276 366 L 276 364 C 278 363 275 363 277 362 C 275 358 277 356 276 353 C 273 354 273 349 272 348 L 273 345 L 275 344 C 275 342 276 342 278 342 L 280 342 L 282 341 L 283 340 L 284 340 L 285 338 L 286 337 Z"/>
            <path id="RS-14" fill="#ffd00f" stroke="#231f20" stroke-width="0.4" stroke-linejoin="round" d="M 353 378 C 352 377 350 375 351 373 C 350 371 350 366 348 371 C 346 372 346 370 345 372 L 343 373 L 343 376 C 342 376 342 378 341 377 C 341 383 335 378 337 383 L 334 383 L 333 382 C 334 382 333 382 333 382 L 331 382 C 330 379 330 382 329 380 L 328 380 L 328 378 L 327 379 L 326 378 L 326 377 L 325 377 L 324 376 C 322 376 323 376 324 375 L 323 375 L 323 374 C 322 373 322 376 321 374 L 321 373 C 320 374 319 373 320 372 C 328 370 318 369 321 364 C 319 364 319 362 321 362 L 320 362 L 320 360 C 321 358 324 357 322 356 L 322 354 C 321 354 322 354 322 354 L 320 353 L 320 351 L 321 350 L 320 348 L 320 346 C 319 346 318 346 319 344 L 318 344 L 317 343 C 317 344 317 344 317 343 L 317 344 L 316 343 C 316 344 315 345 315 343 C 313 344 316 343 315 343 C 316 342 313 344 314 342 C 314 342 315 342 314 342 L 315 340 L 314 339 C 314 340 312 339 314 339 L 313 338 C 314 338 312 338 313 338 C 312 339 312 337 312 337 L 313 336 L 312 336 L 312 335 L 310 335 L 310 338 C 311 339 310 340 309 342 C 308 345 307 348 304 343 C 302 343 303 342 302 341 C 301 340 302 343 301 341 C 295 341 300 347 295 347 C 294 346 291 346 292 345 L 290 346 C 282 344 288 335 283 340 L 281 341 L 279 342 L 277 342 L 275 343 L 274 345 L 273 346 C 272 348 273 350 274 353 L 276 354 C 277 356 275 358 277 360 C 277 362 275 362 277 363 L 275 365 C 277 367 274 367 275 368 C 279 374 274 373 269 374 C 267 375 268 371 266 370 L 258 371 C 257 370 257 368 256 369 L 253 370 L 251 371 C 249 373 248 375 245 375 C 243 374 240 370 238 374 C 236 375 232 375 232 378 C 233 378 237 378 235 381 L 235 383 C 233 385 236 387 234 389 C 233 390 230 388 231 390 L 232 391 L 233 393 C 235 390 236 395 238 395 C 239 397 234 398 234 399 L 234 403 L 233 404 L 233 405 C 232 405 231 406 233 406 L 232 409 C 232 407 230 409 231 409 L 235 410 L 239 411 C 242 409 241 411 244 411 L 247 411 L 251 412 L 253 416 C 254 418 256 418 258 419 C 258 421 261 420 262 420 L 264 421 L 267 421 C 269 424 272 420 274 423 L 276 423 C 277 422 277 424 278 424 L 281 427 L 283 428 L 284 431 C 288 433 288 427 286 425 C 285 423 283 424 284 422 L 280 421 L 283 419 L 286 420 C 289 420 289 422 289 419 C 291 419 290 416 291 415 C 292 415 298 414 297 417 L 297 420 L 300 420 L 301 421 L 304 422 C 305 421 309 422 308 420 C 307 414 316 417 320 416 C 321 414 323 418 324 416 C 326 417 327 416 325 414 C 324 415 324 413 323 412 L 326 412 L 328 411 C 327 409 329 408 332 408 C 333 406 335 407 337 406 L 340 403 C 343 404 344 403 342 401 C 345 397 348 400 346 395 C 345 393 348 393 349 391 C 350 391 351 392 350 390 C 349 381 353 388 353 384 L 352 383 L 353 381 L 353 378 Z"/>
            <path id="RS-12" fill="#fddb00" stroke="#231f20" stroke-width="0.4" stroke-linejoin="round" d="M 545 350 C 546 348 540 344 543 344 L 543 340 C 542 338 543 336 541 335 L 541 333 C 537 333 541 330 539 330 C 538 328 537 335 535 334 C 533 332 533 333 533 331 C 532 329 530 328 531 327 C 533 328 529 324 529 323 C 533 323 522 319 522 322 C 515 322 520 321 517 317 C 514 316 514 316 515 313 L 515 311 L 516 307 L 518 303 C 519 305 518 306 520 303 L 520 298 C 521 298 526 299 525 296 L 525 293 C 523 292 525 290 524 289 C 524 284 526 286 523 282 C 522 280 529 279 525 279 C 536 257 509 265 495 268 C 471 272 443 237 420 270 C 420 276 401 284 405 284 C 407 282 405 287 406 285 L 407 283 C 407 285 409 285 408 286 C 405 286 409 288 405 289 C 406 289 411 291 408 291 C 404 292 410 292 409 295 C 410 296 410 293 412 294 C 408 298 414 294 416 296 L 414 299 C 412 297 413 299 414 300 C 417 299 418 305 419 301 C 421 300 421 303 424 301 C 426 302 421 305 426 307 C 421 308 426 311 426 309 C 427 307 428 310 427 311 C 425 311 425 311 425 313 C 429 315 434 317 431 322 C 437 320 430 325 434 325 C 436 327 435 327 433 327 L 430 331 C 429 333 431 331 432 331 C 433 335 428 338 436 337 C 439 336 441 341 437 342 L 436 344 C 435 344 433 346 434 347 C 438 346 445 346 448 348 C 447 349 449 350 450 350 L 452 352 L 454 350 L 454 351 L 456 351 L 455 351 L 456 348 C 457 341 464 347 465 352 L 467 351 L 468 351 C 470 352 468 356 468 358 L 469 358 L 470 357 L 471 358 C 472 357 475 356 473 356 L 474 354 L 480 354 C 481 354 481 356 482 355 C 482 353 484 354 485 354 C 486 354 487 357 489 355 C 490 356 494 361 494 357 C 494 360 494 361 497 361 C 498 362 500 361 501 360 L 509 360 C 514 368 519 358 521 361 C 526 366 527 357 530 363 C 532 359 536 361 537 358 C 538 352 544 353 545 350 Z"/>
            <path id="RS-11" fill="#fdbd10" stroke="#231f20" stroke-width="0.4" stroke-linejoin="round" d="M 442 359 C 442 355 439 354 437 354 C 440 351 440 354 437 351 C 434 349 436 347 434 346 L 437 342 C 438 341 441 338 438 338 C 437 336 434 337 432 337 C 431 330 436 334 430 331 C 432 330 431 327 434 327 L 434 325 C 433 324 431 324 433 323 C 436 321 432 323 431 322 C 433 319 432 316 428 315 C 428 312 425 315 425 311 C 426 311 427 312 427 310 C 427 306 426 309 426 310 C 425 310 422 308 424 308 C 428 310 422 303 424 302 C 427 300 422 301 421 302 C 420 300 420 300 419 302 L 413 298 C 414 300 417 295 414 295 C 413 297 412 296 411 296 C 410 295 413 293 411 294 C 410 295 408 296 409 294 C 411 293 403 290 409 291 C 402 288 408 291 407 286 C 410 284 407 286 407 283 C 406 282 407 285 406 285 L 406 283 C 405 286 403 285 405 283 C 396 281 391 303 377 300 C 358 299 346 273 345 272 L 348 270 C 347 267 346 259 340 260 C 337 259 332 260 331 255 C 324 252 315 249 315 241 C 312 237 303 242 306 245 C 317 253 297 260 306 268 C 281 282 301 297 288 297 C 285 303 293 301 294 304 C 293 305 291 306 293 307 C 296 308 293 308 294 310 C 290 311 294 312 295 312 C 292 318 278 326 282 331 L 281 332 L 282 334 L 283 335 L 284 335 L 285 336 L 285 338 C 286 340 285 343 287 344 C 291 346 289 347 292 345 L 295 347 C 299 347 296 342 299 342 C 298 341 302 342 301 341 C 303 341 302 343 303 343 C 308 349 308 343 310 339 C 312 339 309 335 310 335 L 311 335 L 313 336 L 312 337 L 313 338 L 314 338 L 314 339 L 313 339 L 314 339 L 314 340 L 315 340 L 314 342 C 315 342 314 342 314 342 L 315 342 L 315 343 C 316 343 313 344 315 343 C 315 345 316 344 316 343 L 317 344 L 317 343 C 317 344 317 344 317 343 L 318 344 L 319 345 C 318 346 319 345 320 346 L 320 349 L 321 350 L 320 352 C 321 351 321 353 320 352 L 321 354 C 322 353 321 354 321 354 C 323 354 322 355 322 356 C 324 357 322 358 320 360 L 321 362 C 321 362 319 362 320 363 L 320 366 L 324 370 C 323 371 318 372 320 373 L 321 373 L 321 374 C 323 376 322 372 323 375 C 324 375 323 375 323 375 L 323 376 L 324 377 L 325 377 L 325 378 L 326 379 L 327 378 C 327 379 329 379 327 379 L 329 379 L 329 380 L 330 381 L 332 381 L 332 382 L 333 381 L 334 382 L 333 383 L 336 383 C 338 384 336 382 337 381 L 340 380 L 341 378 L 342 377 L 343 376 L 343 373 L 344 372 L 347 371 C 347 369 346 364 348 363 C 348 362 348 359 350 358 C 351 357 345 357 345 355 L 344 354 C 343 353 344 351 346 351 C 347 350 346 348 349 347 L 350 348 L 351 348 C 351 348 352 350 353 349 L 353 350 C 354 351 355 349 356 349 C 358 349 360 348 361 351 C 360 362 369 347 371 350 L 372 352 L 373 354 L 374 356 L 374 355 L 376 355 C 376 355 376 357 377 356 C 379 357 380 353 382 354 L 383 353 C 385 353 382 356 385 355 C 388 353 390 358 392 357 L 393 357 C 393 359 396 356 398 357 L 399 357 L 399 360 C 400 362 402 363 403 362 L 405 362 C 405 363 405 363 405 362 L 407 363 C 408 363 410 363 409 361 L 411 362 L 413 361 L 416 359 C 418 360 418 359 420 358 C 419 363 423 363 428 364 C 431 365 430 366 434 364 C 439 362 437 365 440 364 L 441 364 C 445 366 440 360 442 359 Z"/>
        </g>
    </g>
</svg>
