<?xml version="1.0" encoding="UTF-8"?>
<!-- Generated by Pixelmator Pro 3.6.10 -->
<svg width="500" height="521" viewBox="0 0 500 521" xmlns="http://www.w3.org/2000/svg">
    <g id="Landen">
        <g id="NEDERLAND">
            <path id="NL-09" fill="#777777" stroke="#231f20" stroke-width="0.4" stroke-linejoin="round" d="M 431 106 C 427 100 429 90 425 85 C 425 83 425 80 427 77 C 430 77 427 69 426 65 L 426 67 L 425 67 L 425 66 L 424 67 L 423 67 L 423 66 L 422 67 L 422 66 L 421 65 C 421 66 419 64 420 67 L 418 65 L 416 65 L 416 64 L 415 65 C 415 64 415 65 415 65 L 415 64 L 414 64 C 413 63 412 63 412 60 C 411 64 412 63 412 60 C 412 60 414 58 412 58 L 408 60 L 405 60 L 395 56 C 395 54 400 59 403 57 C 401 58 399 57 397 56 C 392 53 397 52 392 49 C 391 44 388 38 389 34 L 385 32 C 385 30 384 34 386 33 C 386 35 381 34 384 33 L 382 32 L 384 32 C 385 32 383 31 384 32 L 384 31 L 382 31 C 375 31 368 30 362 35 L 360 36 C 360 37 358 36 359 37 L 358 37 C 358 37 357 37 358 37 L 357 37 L 356 38 C 356 37 356 38 356 38 C 356 37 355 38 356 38 L 344 41 L 336 43 L 333 43 C 334 45 331 45 331 46 C 328 44 323 43 319 45 L 320 45 L 319 44 L 318 44 C 316 43 313 47 310 46 L 301 47 L 299 47 L 296 48 C 295 50 287 52 286 49 C 286 54 277 56 271 60 L 270 61 C 264 64 252 68 253 75 L 254 75 L 256 78 L 259 81 L 259 80 L 260 82 L 261 83 L 263 83 L 263 85 C 263 85 259 85 261 86 L 260 88 L 260 89 L 262 89 L 262 90 L 263 90 C 263 90 263 91 263 90 L 266 90 L 267 89 L 268 89 C 268 90 268 91 269 90 L 269 92 L 270 92 L 269 93 L 270 94 L 269 94 L 269 97 L 270 97 L 271 99 C 271 99 270 99 271 99 L 273 99 L 273 101 C 275 101 273 101 274 102 L 275 103 L 275 105 C 274 105 273 106 274 107 L 276 109 L 278 109 C 280 114 283 104 286 104 L 288 104 L 289 103 L 290 103 L 290 102 L 291 101 L 292 101 L 292 100 L 294 101 C 295 102 297 99 295 103 L 295 104 L 296 105 C 295 105 296 107 297 106 L 297 108 L 307 108 C 306 109 308 110 309 110 C 312 110 315 107 317 107 C 317 105 319 109 319 109 C 320 111 322 114 323 111 L 324 109 L 325 109 L 332 105 C 332 105 332 103 334 103 C 338 100 342 102 341 107 C 341 113 351 117 347 122 C 347 126 342 128 341 130 C 343 131 344 133 343 135 C 344 137 344 135 344 134 C 346 132 349 135 350 136 C 351 138 349 141 353 140 L 354 140 L 352 147 C 354 150 360 148 358 153 L 359 153 L 359 154 C 360 153 365 152 364 154 C 368 149 368 153 371 149 C 373 148 373 152 375 147 L 377 147 L 378 145 L 378 142 C 379 141 381 140 379 138 C 382 138 382 136 380 135 L 383 130 C 385 137 388 128 389 132 C 392 131 393 127 396 126 C 397 125 398 130 399 131 C 399 135 401 131 403 130 L 410 122 L 413 125 C 415 126 409 132 413 131 C 414 130 414 132 415 132 C 416 133 417 136 418 135 C 418 143 430 111 431 106 C 430 106 431 106 431 106 Z M 287 88 C 285 89 285 88 285 87 L 284 87 C 287 89 279 92 279 90 L 280 89 L 281 89 L 281 88 L 282 88 L 282 87 L 274 87 L 274 85 C 275 84 272 82 274 82 L 274 81 C 272 82 273 79 273 79 C 272 78 274 78 274 77 C 276 77 277 78 277 79 C 279 79 281 79 281 81 C 283 81 283 79 285 80 C 285 78 286 78 287 78 C 289 77 288 79 289 79 L 290 79 C 288 79 290 81 291 80 L 291 81 L 286 83 L 286 85 L 287 88 Z M 311 36 C 313 41 314 35 314 34 L 315 35 L 319 34 C 317 33 323 33 320 32 C 322 34 321 31 319 31 L 320 31 L 322 33 L 321 31 C 322 31 321 31 321 31 L 322 31 C 322 32 322 33 324 32 C 324 32 323 32 324 32 L 325 32 L 324 32 L 325 31 L 325 30 C 325 28 325 32 326 31 L 326 30 L 325 29 L 326 30 C 327 30 330 30 327 29 L 330 28 L 331 28 C 344 24 314 27 312 30 C 314 27 310 35 311 36 Z M 258 42 C 260 47 265 47 269 43 C 269 41 275 42 275 43 L 287 39 C 308 33 270 40 265 39 C 261 38 265 38 266 38 C 263 37 259 38 258 42 Z"/>
            <path id="NL-08" fill="#777777" stroke="#231f20" stroke-width="0.4" stroke-linejoin="round" d="M 217 62 C 214 62 218 60 218 60 C 218 58 221 59 222 57 C 226 58 227 55 229 56 C 232 55 234 51 238 51 C 240 51 246 50 244 49 L 242 49 C 242 50 242 49 242 49 C 243 49 241 49 242 49 L 241 48 C 242 48 240 47 241 48 L 241 47 L 242 48 L 243 49 L 244 48 L 243 48 L 243 47 C 244 48 245 49 246 47 C 245 46 245 46 246 47 L 248 46 C 247 46 247 46 248 46 C 248 45 247 45 248 46 C 248 46 251 46 250 45 C 258 41 222 48 214 56 C 210 59 211 64 217 62 Z M 358 206 C 359 204 356 205 356 203 C 356 201 355 203 354 203 C 352 199 350 198 349 204 L 347 204 C 346 206 346 207 343 207 C 345 213 334 207 330 208 L 328 208 L 327 207 L 329 206 C 329 206 331 206 330 205 L 331 203 L 330 203 C 330 202 327 200 328 199 C 330 199 329 197 329 195 C 332 191 330 185 324 188 L 322 189 L 322 187 C 320 185 319 185 319 182 C 317 181 319 179 319 176 C 322 173 319 175 317 175 C 320 169 312 173 310 172 C 308 169 318 169 317 166 L 318 166 L 318 165 C 319 164 317 161 319 160 C 320 157 324 158 325 155 C 327 153 324 152 326 151 C 331 150 340 142 329 143 L 330 139 L 333 133 C 334 132 335 137 336 134 L 339 135 C 341 135 343 137 344 133 C 343 133 340 130 341 129 C 345 127 347 124 348 120 C 349 116 341 112 341 107 C 342 102 338 100 334 103 C 332 103 332 105 332 105 L 325 109 L 324 109 L 323 111 C 322 114 320 111 319 109 C 319 109 317 105 317 107 C 315 107 312 110 309 110 C 308 110 306 109 307 108 L 297 108 L 297 106 C 296 107 295 105 296 105 L 295 104 L 295 103 C 297 99 295 102 294 101 L 292 100 L 291 101 L 290 102 L 290 103 L 289 103 L 288 104 L 286 104 C 283 104 280 114 278 109 L 276 109 L 274 107 C 273 106 274 105 275 105 L 275 103 L 274 102 C 273 101 275 101 273 101 L 273 99 L 271 99 L 270 97 L 269 97 L 269 93 L 270 92 L 269 92 L 269 90 C 268 91 268 90 268 89 L 267 89 L 266 90 L 263 90 C 263 91 263 90 263 90 L 262 90 L 262 89 L 260 89 L 260 88 L 261 86 C 259 85 262 85 263 85 L 263 83 L 261 83 L 260 82 L 259 80 L 259 81 L 256 78 L 254 75 L 253 75 C 248 75 241 86 240 91 L 242 88 L 240 90 L 240 91 L 241 92 L 240 91 C 243 96 238 105 234 108 L 233 109 C 233 108 233 107 233 109 C 232 110 232 107 232 108 L 220 119 C 213 125 219 120 221 119 C 222 117 233 107 234 109 C 237 104 238 106 241 112 L 240 112 C 240 111 240 112 240 112 L 240 113 L 239 112 C 239 112 239 113 239 112 L 238 112 L 238 114 L 239 114 C 239 115 240 117 240 115 L 241 115 L 240 116 L 241 117 L 241 120 L 240 121 L 241 121 L 241 122 L 242 126 L 243 127 C 243 127 243 128 243 127 C 244 127 242 126 243 127 L 242 128 L 243 129 C 242 128 242 130 242 130 C 240 131 242 132 242 134 C 243 137 241 137 239 139 L 237 141 L 238 141 C 237 142 242 146 245 147 L 248 147 L 248 146 L 258 149 C 262 150 261 145 264 146 L 268 144 C 268 144 270 145 269 146 C 271 147 271 146 271 145 C 271 148 274 145 274 147 L 274 146 L 275 147 L 275 146 L 275 147 L 276 147 C 265 149 262 168 265 179 C 264 179 265 179 265 179 L 266 179 C 266 180 273 185 270 187 L 259 193 L 258 194 C 260 196 254 199 251 199 L 251 201 L 250 202 L 251 201 L 251 202 L 250 203 L 249 203 C 251 196 254 192 246 185 L 247 184 L 246 184 C 244 181 235 173 233 176 L 232 177 C 233 178 235 175 234 176 L 232 177 L 233 176 C 243 175 256 193 248 203 C 249 206 248 202 249 203 C 250 202 250 206 250 205 C 246 210 238 214 232 220 C 237 225 244 227 249 220 C 252 214 257 226 262 227 C 264 226 265 222 267 222 C 273 221 269 226 270 229 L 272 227 L 282 220 L 283 220 C 283 221 284 221 283 220 C 284 221 286 218 287 217 L 290 215 C 289 215 290 211 291 213 L 292 214 L 291 214 L 292 214 L 291 216 L 283 223 L 283 224 L 283 223 L 282 224 L 281 225 C 279 225 280 227 279 227 L 277 227 L 280 231 L 280 233 L 281 234 L 281 236 L 285 237 L 285 242 C 286 243 287 244 285 245 L 294 245 C 297 245 297 249 300 246 C 303 243 309 245 310 242 C 313 239 310 245 313 243 L 316 243 L 317 244 L 317 243 L 316 240 L 317 236 C 316 233 321 231 319 235 C 321 235 321 236 321 238 L 324 238 C 328 237 331 236 333 234 C 335 231 343 242 349 233 C 349 231 345 228 347 224 C 350 220 353 224 353 215 C 350 212 356 213 357 210 L 357 208 C 356 208 357 208 357 208 L 358 207 C 357 207 357 206 358 207 L 358 206 Z M 290 193 C 284 189 276 193 271 188 C 271 185 279 186 282 186 C 287 185 304 184 306 177 L 308 177 L 310 179 L 312 181 C 310 179 309 180 307 182 L 307 183 C 307 182 307 183 307 183 L 307 182 L 306 183 C 304 182 303 183 304 185 C 304 182 303 183 302 184 L 299 184 L 298 185 C 298 185 298 184 298 185 L 298 184 L 295 184 L 295 185 L 294 185 L 291 186 C 292 186 291 186 291 186 L 291 190 C 292 191 295 190 292 191 L 290 191 C 292 191 292 194 293 195 L 294 196 L 294 197 L 290 193 Z M 295 202 L 293 209 C 294 209 291 214 291 211 C 293 209 290 212 292 213 C 292 213 293 214 292 213 C 289 211 295 206 294 202 L 294 198 C 294 198 295 198 294 198 L 295 198 L 295 202 Z M 273 78 L 273 79 C 273 80 273 82 274 81 L 274 82 C 272 82 275 84 274 85 L 274 87 L 277 86 C 278 87 283 86 282 87 L 282 88 L 281 88 L 281 89 L 280 89 C 277 92 283 90 285 89 L 284 87 C 285 87 285 86 285 88 L 287 88 L 286 85 L 286 83 L 291 81 L 291 80 C 290 81 288 79 290 79 L 289 79 C 288 79 289 77 287 78 C 286 78 285 78 285 80 C 283 79 283 81 281 81 C 281 79 279 79 277 79 C 277 78 276 77 274 77 L 273 78 Z M 283 189 C 283 187 279 187 280 188 L 281 190 C 282 189 283 192 283 189 Z M 206 71 C 197 67 188 82 181 87 C 182 90 185 86 188 87 L 191 82 C 191 81 193 82 191 81 L 193 80 C 192 79 195 80 194 79 L 194 78 C 197 76 202 71 206 72 L 205 71 L 206 71 Z"/>
            <path id="NL-07" fill="#777777" stroke="#231f20" stroke-width="0.4" stroke-linejoin="round" d="M 426 240 C 414 233 432 219 421 213 C 419 211 417 208 417 205 C 414 197 414 204 411 207 C 408 208 401 206 400 204 C 394 205 389 205 384 201 C 383 197 384 193 381 189 L 385 189 C 386 186 387 189 390 187 C 382 182 386 183 384 177 L 383 176 C 386 174 386 172 389 172 L 391 171 L 392 171 L 393 172 L 395 171 C 396 170 398 172 400 170 L 404 171 C 405 174 409 172 411 171 C 413 171 417 174 419 171 L 418 135 C 417 136 416 133 415 132 C 414 132 414 130 413 131 C 409 132 415 126 413 125 L 410 121 C 409 124 406 127 403 130 C 401 131 399 135 399 131 C 398 130 397 124 396 126 C 393 127 392 131 389 132 C 388 128 385 137 383 130 L 380 135 C 382 136 382 138 379 138 C 380 140 379 141 378 142 C 380 145 377 145 377 147 C 377 148 375 146 375 148 C 374 149 373 151 372 149 C 371 150 369 153 368 150 C 362 156 367 151 359 154 L 359 153 L 358 153 C 360 148 354 150 352 147 L 354 140 L 353 140 C 349 141 351 138 350 136 C 349 134 344 132 344 136 C 343 136 344 134 343 135 L 342 136 L 339 135 L 336 134 C 335 136 335 134 334 133 C 333 132 332 135 332 136 L 329 139 C 329 142 328 144 331 143 C 339 144 328 150 327 151 C 323 151 327 153 325 155 C 324 158 321 157 319 159 L 318 161 L 318 166 L 317 166 C 318 169 307 169 310 172 C 312 173 320 170 317 175 C 319 175 322 173 319 176 C 319 179 317 181 319 182 C 319 185 320 185 322 187 L 322 189 L 324 188 C 330 185 332 191 329 196 C 329 197 330 199 328 199 C 327 200 330 202 330 203 L 331 203 L 330 205 C 331 206 329 206 329 206 L 327 207 L 328 208 L 330 208 C 334 207 345 213 343 207 C 346 208 346 205 347 204 L 349 204 C 350 198 353 200 355 203 C 355 201 356 202 356 204 C 357 205 358 204 358 206 C 358 206 358 207 358 206 L 358 207 L 357 208 L 357 210 C 355 213 350 212 354 215 C 353 224 351 220 347 224 C 345 228 350 231 349 233 C 343 242 335 231 333 234 C 331 236 328 237 324 238 L 323 238 L 321 237 L 320 235 L 319 235 C 321 231 316 233 317 236 C 315 239 317 241 317 243 L 317 244 L 316 243 C 314 242 310 245 311 241 C 310 243 308 244 306 243 C 304 244 295 246 299 248 C 300 251 300 251 297 252 L 296 253 L 293 254 C 292 256 296 257 295 257 C 293 256 294 258 291 258 L 293 260 C 290 267 299 263 299 269 C 300 268 294 270 297 272 L 296 273 L 297 274 L 301 274 L 303 275 C 304 273 311 273 309 277 C 312 278 317 278 318 274 C 318 270 321 267 325 266 L 326 266 L 328 265 C 328 265 330 265 329 264 L 331 264 L 333 265 L 334 266 L 334 267 C 336 271 342 272 333 274 C 334 278 324 281 328 284 C 333 282 338 283 343 285 C 345 287 346 287 347 290 C 346 290 345 292 344 291 L 343 291 L 343 292 L 342 293 L 341 292 L 341 291 C 340 291 341 291 341 291 L 340 291 L 340 292 L 341 292 L 340 293 L 332 293 L 334 297 L 335 298 L 336 298 L 337 299 L 336 301 C 336 303 334 305 333 305 L 334 305 C 333 306 334 306 335 307 C 339 309 335 313 344 311 C 346 312 347 309 349 311 C 350 311 349 315 352 314 C 353 314 355 313 356 315 L 357 317 L 359 316 L 361 317 L 361 313 L 360 312 L 359 310 L 362 310 L 363 311 L 365 311 C 366 309 367 314 368 312 C 369 311 372 311 371 310 L 375 307 L 377 307 C 380 304 386 301 390 300 C 393 301 394 305 398 300 C 401 298 402 295 402 291 C 405 291 406 287 404 285 C 400 284 397 280 392 278 C 388 279 388 276 389 273 C 392 272 396 271 394 268 C 396 268 395 266 395 264 C 406 263 406 265 409 255 C 412 250 414 255 417 247 L 417 244 L 418 244 C 420 242 425 244 426 240 Z M 343 135 Z"/>
            <path id="NL-06" fill="#777777" stroke="#231f20" stroke-width="0.4" stroke-linejoin="round" d="M 347 289 L 346 288 C 346 288 347 288 346 288 C 344 288 344 285 343 284 C 340 284 336 282 334 283 L 332 283 C 332 281 326 287 327 281 C 330 279 333 277 334 273 C 342 272 336 270 334 267 L 333 266 L 333 265 L 331 264 L 329 264 C 330 265 328 265 328 265 L 326 266 L 325 266 C 321 267 318 270 318 274 C 317 278 312 278 309 277 C 311 273 304 273 303 275 L 301 274 L 297 274 L 296 273 L 297 272 C 294 270 300 268 299 269 C 299 262 288 267 284 267 C 285 269 282 269 281 269 C 280 271 279 269 278 270 L 271 272 L 268 273 L 268 272 L 267 274 L 266 275 L 267 277 L 267 279 C 269 280 268 283 268 285 C 271 286 267 286 271 287 L 271 291 L 272 293 L 273 294 C 275 294 274 297 276 298 L 276 301 C 277 302 275 302 274 303 C 275 303 277 305 278 304 C 279 302 277 301 281 301 L 280 302 L 279 303 C 278 303 279 304 279 303 L 280 303 L 280 305 L 278 305 C 279 306 278 305 278 305 L 278 306 C 275 306 276 307 276 310 C 273 313 256 310 255 319 C 255 324 245 331 251 331 L 253 327 C 257 323 255 332 265 324 C 266 326 269 326 270 324 L 273 323 C 283 324 289 339 301 334 C 305 332 306 336 307 339 C 311 341 315 339 316 345 C 316 349 316 355 320 350 C 321 349 324 350 322 348 L 323 346 L 323 344 C 323 343 321 341 322 340 C 325 340 323 339 323 339 C 321 336 316 336 314 336 C 312 333 320 332 317 330 L 317 328 L 316 328 L 316 326 L 312 324 C 312 322 313 323 313 323 C 310 320 315 319 317 320 C 319 320 319 318 320 318 L 322 317 L 324 315 C 325 312 337 322 335 313 C 333 313 333 312 332 310 L 328 308 C 329 308 329 306 330 307 C 332 307 334 305 335 307 C 335 306 333 306 334 305 L 333 305 C 334 304 336 303 336 301 L 337 299 L 336 298 L 335 298 L 334 297 L 332 293 L 340 293 L 341 292 L 340 292 L 340 291 L 341 291 C 341 291 340 291 341 291 L 341 292 L 342 293 L 343 292 L 343 291 L 344 291 C 345 292 347 290 347 289 Z M 345 430 C 343 428 340 431 338 433 L 337 434 L 336 434 C 333 433 333 428 333 425 C 336 425 334 423 333 421 C 330 420 332 419 329 421 L 328 421 L 327 420 C 326 421 327 420 327 420 L 325 418 C 326 412 312 411 308 409 C 305 404 304 406 298 408 L 293 410 C 292 410 288 413 288 411 L 288 410 C 285 404 284 395 280 405 L 280 406 C 278 407 283 410 279 411 C 277 411 275 413 274 414 C 270 416 274 419 276 421 L 277 421 C 274 432 286 428 289 434 L 291 435 L 293 434 L 296 434 C 297 433 300 433 301 435 L 302 436 C 299 437 303 437 302 439 C 302 439 302 440 302 439 L 303 438 L 305 438 C 306 439 306 436 307 436 C 310 441 311 440 306 445 L 306 446 C 315 450 301 447 306 451 L 305 455 C 304 456 302 453 302 456 C 301 460 302 460 303 462 L 302 466 L 299 471 C 295 478 307 467 299 478 C 300 484 296 480 296 484 C 295 487 293 487 291 489 L 291 494 L 292 497 C 292 496 292 497 292 497 L 292 498 L 295 499 L 296 499 L 297 500 C 296 502 298 503 298 505 C 297 506 295 509 298 509 L 300 508 L 301 507 C 303 510 303 503 306 503 C 306 506 307 506 308 506 C 310 509 312 507 314 506 L 314 508 L 318 505 L 320 508 L 321 507 C 322 507 322 509 323 507 C 325 507 326 505 328 506 L 328 507 L 332 507 C 334 506 333 506 333 505 L 333 503 L 331 502 L 331 501 L 330 501 L 330 500 L 329 500 C 327 500 328 498 329 497 C 331 500 334 496 333 494 C 331 493 331 490 334 490 L 335 489 L 336 489 L 337 490 C 338 491 338 489 338 488 L 339 486 L 339 484 L 338 484 L 338 482 L 339 478 L 339 477 L 337 477 C 336 477 335 478 335 476 C 333 476 330 475 330 472 C 328 470 335 465 326 467 C 324 469 323 465 320 468 C 316 471 317 469 318 466 C 318 463 315 463 314 461 L 314 458 L 313 456 C 322 451 316 455 322 458 C 324 458 322 458 323 457 C 325 456 323 454 324 453 L 328 448 C 329 448 331 448 331 446 C 333 445 332 443 334 443 L 335 442 L 336 442 L 336 441 L 337 440 L 338 440 L 339 439 L 340 438 L 341 438 L 342 437 L 344 437 C 348 433 336 435 345 430 Z M 305 438 Z"/>
            <path id="NL-05" fill="#777777" stroke="#231f20" stroke-width="0.4" stroke-linejoin="round" d="M 348 400 C 345 392 346 388 346 379 L 346 378 C 345 372 341 370 338 365 C 335 362 330 360 330 355 C 332 355 331 351 333 350 L 331 349 L 328 348 C 326 349 323 346 322 348 C 324 350 321 349 320 350 C 319 351 318 354 317 352 C 316 344 315 340 307 339 C 307 332 301 333 296 335 C 286 335 281 322 272 323 C 268 323 270 329 264 324 C 258 331 257 324 253 327 L 251 331 C 243 323 238 329 226 328 C 224 329 222 326 219 327 C 216 328 214 329 211 328 C 212 329 212 331 214 331 C 216 331 217 333 218 335 C 223 333 221 333 225 336 C 228 356 196 338 204 352 C 205 354 203 354 205 356 L 204 360 L 203 362 L 202 363 C 202 363 204 363 203 364 C 205 367 202 369 199 371 L 198 371 L 199 373 C 199 375 198 377 195 378 L 196 379 L 195 380 L 196 380 L 197 379 C 198 378 200 378 201 380 C 204 382 205 386 202 388 C 201 387 202 388 202 388 L 197 388 L 196 392 C 198 392 197 393 196 392 L 196 393 C 195 394 195 399 197 399 C 197 398 197 398 197 399 L 196 399 L 195 398 L 192 398 L 190 397 L 189 397 L 189 398 L 190 399 L 190 400 L 191 400 L 191 401 L 198 400 L 200 400 L 202 399 L 203 400 L 204 400 C 204 399 204 401 204 400 L 205 401 L 206 402 L 205 403 L 207 402 L 208 402 L 214 394 L 215 393 L 215 391 L 216 388 L 216 387 C 220 384 216 390 223 389 C 229 396 219 402 228 407 C 231 410 229 419 235 414 C 246 412 237 428 250 423 L 253 423 L 253 421 C 257 421 261 424 264 420 C 264 418 268 419 268 416 C 270 415 272 417 274 414 C 275 413 277 411 279 411 C 283 410 278 407 280 406 L 280 405 C 284 395 285 404 288 410 L 288 411 C 288 413 292 410 293 410 L 298 408 C 309 403 303 409 311 410 C 314 411 326 412 325 418 L 327 420 C 327 420 326 421 327 420 L 328 421 C 330 422 330 420 331 420 C 336 426 342 402 348 400 Z M 202 388 Z"/>
            <path id="NL-04" fill="#777777" stroke="#231f20" stroke-width="0.4" stroke-linejoin="round" d="M 281 303 L 279 303 C 279 302 278 304 279 303 L 280 302 L 281 301 C 278 301 279 302 278 304 C 273 304 268 300 263 298 C 258 294 253 301 248 300 C 243 306 238 299 234 300 C 229 309 223 294 218 296 L 218 297 C 214 297 214 305 210 301 C 207 300 207 306 203 304 C 199 305 205 309 202 311 C 200 312 202 314 202 315 C 199 317 202 320 202 323 C 203 325 201 324 201 325 C 206 327 198 329 195 333 C 184 332 183 345 171 351 L 170 351 L 170 354 C 170 352 170 351 168 352 L 169 353 C 170 354 167 353 168 355 L 168 353 C 167 351 165 353 166 355 L 165 353 L 163 354 L 161 354 L 161 355 L 156 355 L 152 353 C 151 353 152 353 152 353 L 151 353 L 148 354 L 150 352 C 149 353 147 355 148 353 C 148 354 147 353 148 353 L 146 354 C 147 353 147 354 146 354 L 147 354 C 148 354 145 357 147 355 L 146 356 C 147 357 146 359 145 359 C 143 360 146 359 145 360 L 144 360 C 141 363 139 361 137 363 L 136 363 L 137 364 L 136 364 L 136 363 L 134 364 C 134 363 131 365 133 365 C 131 365 133 365 132 366 C 132 363 127 366 126 369 C 127 363 133 367 125 362 C 122 362 122 360 124 361 C 126 361 119 360 123 360 L 122 360 C 121 359 125 359 122 359 C 121 358 121 355 120 357 L 116 358 L 114 360 L 110 358 C 103 356 108 356 102 351 L 102 352 L 102 350 L 101 351 L 101 349 L 101 350 C 101 347 94 350 94 349 L 92 348 C 92 346 89 348 88 348 C 87 348 84 350 85 346 L 86 345 C 87 346 85 347 87 346 C 86 343 84 350 79 348 C 58 352 80 364 72 366 L 71 369 L 70 369 C 72 378 62 372 56 376 C 48 382 38 385 50 392 C 53 394 54 398 57 399 L 57 400 C 58 399 59 400 59 401 L 63 401 L 62 401 C 61 401 60 401 61 400 C 61 399 61 401 61 400 L 62 400 L 62 401 C 62 400 63 398 63 401 C 66 403 68 397 70 400 L 70 397 L 71 397 C 71 397 71 398 71 397 L 73 396 L 73 397 C 72 398 75 398 74 399 C 72 398 71 398 71 400 C 73 399 76 403 76 404 C 77 407 79 404 80 405 C 83 405 84 410 87 410 L 90 409 C 92 409 92 407 93 408 C 97 410 98 400 98 398 L 104 396 C 105 398 108 401 107 397 L 107 400 L 110 400 C 111 401 112 404 115 405 L 117 405 C 114 405 119 406 119 406 C 124 409 127 402 129 406 C 134 406 131 412 139 409 C 144 407 142 413 146 412 L 150 412 C 151 411 154 411 153 410 C 152 404 146 404 149 398 C 150 396 147 397 147 396 L 156 392 L 156 391 L 157 391 C 159 391 163 388 165 390 C 164 397 161 401 170 398 L 176 399 C 180 400 177 395 180 394 C 182 394 181 392 182 392 C 182 391 184 391 183 390 L 183 389 L 184 388 L 185 388 C 187 387 187 384 190 384 L 190 385 L 191 385 C 191 385 191 386 191 385 L 192 385 C 192 385 192 386 192 385 L 194 386 L 194 387 C 195 389 195 388 197 388 L 202 388 C 202 388 201 387 202 388 C 205 386 204 382 201 380 C 200 378 198 378 197 379 L 196 380 L 195 380 L 196 379 L 195 378 C 198 377 199 375 199 373 L 198 371 L 199 371 C 202 369 205 367 203 364 C 204 363 202 363 202 363 L 203 362 L 204 360 L 205 356 C 203 354 205 354 204 352 C 200 343 208 345 214 347 C 220 347 230 340 225 335 C 222 334 221 333 219 335 C 217 335 217 332 215 332 L 211 328 C 214 329 217 327 220 327 C 227 330 235 329 242 326 C 260 335 243 312 276 310 C 276 307 275 306 278 306 L 280 305 L 281 303 Z M 91 383 C 89 384 86 380 86 382 L 85 382 L 84 383 L 79 382 L 77 383 L 76 386 L 76 387 C 75 386 75 387 76 387 C 75 386 73 388 74 388 L 73 388 L 75 388 L 73 388 C 74 389 73 389 73 388 L 73 389 L 72 386 C 71 386 70 380 69 384 L 69 382 C 62 378 66 372 67 378 L 71 380 C 72 381 73 378 72 379 C 71 381 73 382 73 384 L 73 383 L 73 386 C 75 384 77 381 79 381 C 80 380 86 383 84 380 C 84 380 84 381 84 380 L 85 381 C 84 380 85 381 85 381 L 86 380 C 88 379 89 383 90 382 L 91 383 Z M 130 399 L 128 398 C 125 397 124 400 122 400 L 120 400 C 115 399 111 392 111 389 C 111 389 112 390 111 389 L 110 388 C 107 386 108 385 106 389 L 106 388 L 107 386 L 106 385 L 106 387 L 106 386 C 105 386 106 387 106 386 L 105 385 C 102 383 99 386 97 383 C 99 382 96 381 94 382 L 91 383 C 88 381 94 380 94 378 L 93 377 C 93 377 93 376 93 377 L 92 375 C 89 370 87 372 83 372 C 83 372 84 372 83 372 L 79 373 L 77 373 L 76 374 L 74 374 C 74 374 75 374 74 374 C 71 373 70 374 71 370 C 73 370 70 371 71 369 L 71 370 L 72 370 C 70 369 73 367 73 369 C 73 368 73 367 74 368 C 75 369 76 367 75 366 L 75 368 C 74 368 72 368 73 367 L 74 366 L 74 364 C 76 364 73 360 76 361 L 83 357 C 78 358 85 353 85 357 L 84 357 L 88 359 C 91 359 93 364 93 366 L 94 366 L 93 367 L 98 366 C 99 369 101 370 106 369 C 108 367 115 365 115 362 C 117 361 113 360 116 359 L 120 358 C 121 358 122 359 121 360 L 122 360 L 119 360 C 121 359 122 361 119 361 L 121 362 L 121 361 C 121 363 127 362 125 365 L 125 364 L 123 364 C 123 364 123 363 123 364 L 121 363 L 120 362 C 118 362 116 362 116 364 C 116 363 115 364 116 364 L 115 364 C 115 364 115 367 116 366 L 117 367 C 118 369 120 369 122 369 L 124 368 L 123 369 C 123 369 124 369 123 369 L 123 370 C 122 369 120 371 117 371 C 115 368 111 369 107 372 L 105 372 L 106 374 C 104 371 101 376 106 376 L 108 378 C 108 380 111 380 112 381 C 112 386 118 384 122 384 C 123 384 126 386 123 386 C 125 387 122 386 123 386 C 128 389 130 392 130 399 Z M 131 397 C 130 395 131 396 131 397 L 130 396 L 131 400 C 129 397 130 391 129 389 L 124 388 C 124 384 129 390 129 384 L 130 382 L 130 383 L 130 382 L 129 386 L 130 387 L 130 388 C 130 387 130 388 130 388 C 130 388 131 389 131 387 L 131 388 L 131 387 C 131 387 131 388 131 387 C 131 387 131 388 131 387 L 133 387 C 130 387 134 389 133 389 L 130 389 L 131 397 Z M 132 414 L 131 414 C 132 414 131 414 131 414 L 131 413 L 131 414 C 131 414 130 414 131 414 L 131 413 L 129 411 C 130 409 125 410 126 412 L 128 413 L 125 413 C 125 410 125 410 123 411 C 123 413 125 414 126 414 L 124 414 C 127 416 123 414 125 416 C 126 417 122 412 120 412 C 118 412 118 414 120 414 L 121 414 C 123 413 120 414 121 415 C 122 416 121 417 122 416 L 122 417 C 123 418 121 417 122 417 L 119 415 C 120 415 120 414 119 415 C 120 414 119 414 118 414 L 118 413 C 118 413 117 414 118 413 C 114 412 110 413 110 408 L 109 407 L 108 406 C 106 406 103 405 103 407 L 102 413 C 98 412 94 417 91 418 C 89 419 88 417 88 417 L 87 417 L 87 418 L 87 417 L 87 418 L 86 418 L 87 419 C 86 417 85 416 83 416 C 80 416 83 418 81 418 L 80 418 C 81 416 80 417 77 417 L 73 413 C 66 413 58 408 58 408 C 57 409 57 408 57 407 L 52 407 C 50 410 43 410 39 413 C 37 414 39 416 39 418 C 42 421 34 424 39 426 C 36 427 40 428 40 429 L 39 430 L 40 431 L 42 433 L 44 433 C 45 436 47 437 51 436 C 56 436 57 435 55 430 C 54 427 55 428 57 429 C 57 426 59 428 59 427 C 60 426 61 428 61 428 L 62 427 C 60 423 66 426 66 427 C 68 428 71 426 72 429 L 80 430 L 82 432 C 83 432 83 430 84 432 C 86 433 84 437 85 439 L 86 440 L 91 440 L 94 438 C 96 437 96 439 95 440 L 95 441 L 96 441 C 98 442 99 440 99 439 L 105 437 L 105 436 C 106 436 109 432 110 434 L 111 434 L 117 431 L 125 425 L 125 424 L 132 414 Z M 45 411 Z"/>
            <path id="NL-03" fill="#777777" stroke="#231f20" stroke-width="0.4" stroke-linejoin="round" d="M 271 222 Z M 300 251 L 299 248 C 296 243 290 246 285 245 C 287 244 286 243 285 243 L 285 237 L 281 236 L 281 234 L 280 233 L 280 231 L 277 227 L 275 230 L 273 230 C 273 230 271 230 273 230 L 272 231 L 270 229 C 272 219 266 221 261 227 C 252 217 250 218 241 227 C 233 230 243 235 246 240 C 235 242 244 246 249 250 C 250 252 256 248 256 249 C 256 249 257 249 256 249 L 256 250 C 256 250 256 249 256 250 C 255 251 252 250 251 252 C 249 253 246 249 247 250 L 247 251 L 246 251 L 246 249 C 246 250 246 250 246 249 L 241 248 L 239 248 L 238 247 C 236 247 234 246 234 248 L 230 257 C 230 256 230 257 230 257 L 230 258 C 231 261 228 263 228 265 L 221 265 C 218 264 209 267 211 263 L 210 262 L 211 262 L 210 260 L 211 259 L 211 258 C 211 258 210 258 211 258 L 211 257 L 212 256 L 211 254 L 210 252 C 210 253 209 254 208 253 C 208 251 208 252 208 253 L 207 257 L 206 257 L 204 258 L 202 252 L 202 253 L 200 254 C 199 253 199 256 199 255 L 198 255 C 197 254 196 255 197 254 L 192 254 L 191 256 L 190 257 L 190 258 L 189 259 L 189 258 L 188 258 L 188 259 C 187 262 188 263 190 266 C 190 267 196 268 191 269 C 193 272 189 272 189 272 C 190 273 189 274 188 274 L 187 274 L 187 276 L 186 277 C 185 278 188 278 188 279 C 190 280 188 285 190 285 C 188 290 180 283 187 295 C 188 297 191 295 192 295 L 193 297 L 190 298 C 188 298 191 300 191 301 C 193 303 196 305 196 308 C 201 310 201 302 206 304 C 207 303 208 299 211 302 C 214 304 215 297 218 297 L 218 296 C 223 294 224 302 229 302 C 235 304 231 296 242 303 C 245 304 246 301 247 300 C 250 300 252 300 254 298 C 261 292 273 308 276 301 L 276 298 C 274 297 275 294 273 294 L 272 292 L 271 291 L 271 287 C 267 286 271 286 268 285 C 268 283 269 279 267 279 L 267 277 L 266 275 L 267 274 L 268 272 L 268 273 L 271 272 L 278 270 C 279 269 280 271 281 269 C 286 270 283 268 285 267 C 292 267 296 263 291 258 L 294 257 L 296 257 C 290 254 297 251 300 251 Z M 256 248 L 259 247 C 260 247 262 247 262 245 L 263 243 L 264 237 C 264 237 264 236 264 237 L 263 236 C 264 236 263 236 263 236 L 264 236 C 261 234 264 229 270 230 L 271 231 C 270 231 271 231 271 231 L 271 232 C 272 232 272 232 271 232 C 271 233 270 231 271 232 L 269 235 L 266 237 L 266 238 C 265 238 265 239 266 238 L 265 239 L 265 238 L 265 241 L 263 246 L 263 247 C 263 247 262 248 263 247 C 262 247 263 247 263 247 C 262 248 259 247 257 249 L 259 248 L 262 248 L 259 248 C 258 248 257 251 256 249 L 257 249 L 256 248 Z M 155 315 L 155 316 L 155 315 Z M 203 327 C 203 325 201 326 201 325 L 202 324 L 200 317 C 198 318 199 319 197 319 L 195 321 L 191 323 L 190 324 L 186 323 L 183 323 L 182 324 C 182 326 179 327 177 326 L 176 326 C 175 329 169 318 172 324 L 171 325 L 169 325 C 168 325 168 328 167 327 L 167 329 L 166 331 L 164 332 C 163 327 157 331 156 328 L 155 326 C 155 326 156 326 155 326 L 154 325 L 155 323 C 157 322 160 323 162 321 L 163 321 L 164 317 C 165 315 160 317 162 315 L 161 314 L 161 316 C 158 313 163 315 163 312 C 161 309 165 310 163 308 L 163 307 L 166 305 L 166 304 C 167 300 165 300 162 302 C 161 303 163 305 164 304 L 162 304 L 162 305 L 161 304 L 159 305 L 158 306 L 157 307 L 155 305 L 153 304 C 152 303 151 304 151 305 L 150 307 L 149 306 C 148 303 147 305 145 306 L 142 307 C 140 307 142 309 140 309 L 139 309 L 137 311 C 136 311 136 306 134 308 L 131 306 L 132 307 L 129 309 C 125 310 129 311 127 311 L 126 311 C 122 310 123 308 121 307 L 118 305 C 119 303 117 303 116 303 C 115 300 113 306 111 304 L 115 306 C 122 309 131 319 137 319 L 140 318 C 140 319 141 317 140 318 L 141 318 L 141 317 L 143 318 L 143 317 L 143 318 L 145 317 L 144 317 L 145 317 C 145 318 145 317 145 317 L 147 317 L 147 315 C 147 316 147 316 147 315 C 147 317 148 315 148 316 C 146 318 148 316 149 316 C 147 317 149 316 149 317 L 149 316 L 149 317 L 152 317 C 151 317 152 318 152 317 L 152 316 C 153 318 154 316 154 316 C 155 314 157 314 158 315 C 158 317 159 317 160 316 C 162 317 158 318 158 317 L 157 315 L 156 315 L 155 316 C 157 317 154 317 154 317 L 154 318 C 156 317 156 318 154 318 L 152 318 C 150 317 148 318 152 319 C 150 318 150 319 152 319 L 150 319 L 151 320 C 153 320 150 321 151 321 L 149 321 C 150 321 150 320 149 321 L 149 320 L 150 319 L 148 319 C 151 318 146 319 149 318 C 148 318 149 318 149 318 L 147 318 L 148 319 L 147 318 C 145 319 147 318 147 319 C 145 318 146 319 147 319 L 146 319 L 148 320 L 147 320 C 146 321 148 321 148 321 L 146 321 L 146 319 L 145 320 C 146 318 139 318 143 320 L 142 320 C 139 322 144 317 140 319 L 140 322 C 140 321 140 320 139 321 C 140 317 136 320 138 323 C 138 325 137 319 136 320 C 135 321 138 325 135 322 C 133 323 135 322 135 321 L 132 322 C 132 324 132 323 132 322 L 131 321 C 133 321 131 320 132 319 L 133 320 C 133 321 134 321 133 320 L 134 320 C 135 320 135 320 134 320 L 128 317 C 127 314 112 305 117 308 C 119 308 131 321 126 316 L 125 316 C 126 316 125 316 125 316 L 124 316 L 124 315 L 123 315 L 123 314 L 122 313 L 121 312 L 120 312 C 120 312 120 311 120 312 C 119 313 119 311 119 311 L 118 310 L 117 310 C 117 310 117 309 117 310 C 117 310 117 308 116 310 C 116 311 117 312 115 311 L 115 308 L 112 307 L 112 311 L 111 311 C 110 313 114 312 114 313 C 110 311 105 317 106 312 C 106 315 116 309 106 311 C 112 311 111 308 106 310 L 105 308 C 105 308 107 310 108 308 L 106 307 L 108 307 C 105 307 109 307 109 308 C 109 308 110 308 109 308 L 110 308 C 113 308 109 304 107 305 C 104 302 102 309 104 310 C 104 312 99 316 102 317 L 103 317 C 103 318 103 317 103 317 C 105 315 108 315 108 317 C 109 317 108 317 108 317 C 102 322 114 327 107 333 L 107 331 L 104 331 C 104 331 103 330 104 331 C 105 331 104 331 104 331 L 104 330 L 100 330 L 101 330 C 101 330 101 329 101 330 L 102 330 L 102 329 L 105 328 C 99 330 85 333 89 341 C 90 344 84 345 88 346 C 87 346 88 345 88 346 L 89 346 C 89 346 90 346 89 346 L 89 344 C 87 347 89 340 90 341 L 92 340 L 92 339 C 94 339 102 334 104 339 C 106 340 107 344 107 344 C 105 344 106 348 107 347 L 107 346 C 107 347 107 346 107 346 L 108 347 C 106 347 108 348 108 349 L 109 349 C 107 349 109 350 109 351 L 110 353 L 110 352 L 114 353 C 117 352 118 353 121 355 C 122 355 120 358 122 356 L 125 357 C 128 358 127 357 127 355 L 128 358 L 130 360 C 132 361 134 362 136 360 C 139 360 144 358 144 355 C 144 355 147 352 147 354 L 147 352 C 148 351 148 352 147 352 C 146 346 151 351 154 349 L 157 350 L 160 352 L 162 351 L 163 351 C 164 351 165 351 166 349 L 167 349 C 167 350 172 347 171 345 C 172 348 170 347 172 348 C 187 339 187 333 203 327 Z"/>
            <path id="NL-02" fill="#777777" stroke="#231f20" stroke-width="0.4" stroke-linejoin="round" d="M 203 310 C 202 304 200 309 196 308 C 196 305 193 303 191 301 C 191 300 188 298 190 298 L 193 297 L 192 295 C 191 295 188 297 187 295 C 180 283 188 290 190 285 C 188 285 190 280 188 279 C 188 278 185 278 186 277 L 187 276 L 187 274 L 188 274 C 189 274 190 273 189 272 C 189 272 193 271 191 269 C 196 268 190 267 189 266 L 188 264 L 186 263 C 185 262 186 259 184 260 C 184 259 183 258 182 259 C 182 261 180 261 179 262 C 177 265 178 257 176 258 C 174 258 174 260 173 260 C 170 260 173 257 174 256 C 173 255 173 257 172 257 C 172 258 172 256 172 257 C 170 255 174 254 174 252 C 177 250 180 243 175 242 L 175 235 C 174 243 179 239 176 236 C 174 235 175 232 172 233 C 171 232 173 232 174 232 C 174 232 173 229 175 229 L 175 227 L 176 227 L 176 226 C 179 222 173 224 171 227 L 171 226 C 170 227 170 225 169 225 L 167 225 L 167 223 L 168 221 L 166 222 C 165 224 166 223 165 222 L 162 222 C 163 224 160 224 158 223 C 153.336182 244.070801 144.121094 263.866211 131 281 C 132 282 128 283 128 283 C 129 284 130 283 129 284 C 130 284 130 283 129 284 C 129 285 130 284 129 284 C 129 284 128 284 129 284 C 128 285 116 298 116 303 L 118 304 C 118 306 120 306 121 307 C 123 308 123 310 126 311 L 127 311 C 129 311 125 310 129 309 L 132 307 L 131 306 L 134 308 C 136 306 136 311 137 311 L 139 309 L 140 309 C 142 309 140 307 142 307 L 145 306 C 147 305 148 304 149 306 C 150 307 151 306 151 305 C 151 304 152 303 153 304 L 155 305 L 157 307 L 158 306 L 159 305 L 161 304 L 162 305 L 162 304 L 164 304 C 163 305 161 303 162 302 C 165 300 167 300 166 304 L 166 305 L 163 307 L 163 308 C 165 310 161 309 163 312 C 163 315 158 313 161 316 L 161 314 L 162 315 C 160 317 165 315 164 317 L 163 321 L 162 321 C 160 323 157 322 155 323 L 154 325 L 155 326 C 156 326 155 326 155 326 L 156 327 C 155 331 163 327 164 332 L 165 331 L 167 329 L 167 328 L 168 326 L 170 325 L 171 325 L 172 324 C 169 318 175 329 176 326 L 177 326 C 179 327 180 326 182 325 L 182 324 L 186 323 L 189 323 C 190 325 190 324 191 323 L 195 321 L 197 319 L 202 315 L 201 312 L 203 310 Z"/>
            <path id="NL-01" fill="#777777" stroke="#231f20" stroke-width="0.4" stroke-linejoin="round" d="M 207 236 L 206 236 C 206 235 205 234 204 235 L 204 234 L 203 235 L 204 235 L 205 236 C 205 237 207 238 207 236 Z M 205 236 L 204 236 L 205 236 Z M 206 232 L 207 232 L 206 232 Z M 212 233 L 213 233 L 212 233 Z M 246 240 C 225 218 255 233 232 220 L 219 230 C 217 232 221 236 219 238 L 220 238 L 221 239 C 221 240 219 239 220 240 L 219 239 C 217 240 213 235 213 239 C 213 239 213 240 213 239 C 213 237 210 239 209 238 L 208 238 C 211 235 206 238 205 237 L 204 236 L 203 235 L 201 234 C 202 234 200 234 201 234 L 203 234 C 202 233 204 233 202 233 L 202 231 L 203 232 L 205 231 L 205 232 C 207 233 206 232 206 230 L 207 230 L 209 226 C 211 224 213 224 213 222 C 215 222 213 219 216 218 C 222 214 214 218 214 212 C 216 217 215 223 210 220 L 209 218 C 211 216 209 217 209 217 L 208 217 C 208 217 207 216 208 217 L 208 216 C 209 216 208 216 208 216 L 211 215 L 211 212 C 213 212 213 208 212 207 C 212 206 210 208 212 207 C 209 203 206 195 205 192 L 205 187 C 206 187 207 185 208 186 L 209 187 L 209 186 C 209 187 209 187 209 186 C 209 186 210 185 209 186 L 210 186 C 210 187 210 185 210 186 L 211 185 L 212 185 C 212 186 212 184 212 185 L 214 186 C 213 187 214 187 215 187 C 217 192 223 184 227 182 C 228 180 227 177 229 176 L 231 176 L 232 175 L 231 177 L 232 176 L 232 174 L 233 174 L 232 174 L 233 174 L 233 173 L 234 173 L 234 172 C 231 172 232 169 231 167 L 229 166 C 231 164 221 164 220 167 L 221 167 C 221 167 220 166 221 167 L 219 167 L 219 168 L 217 168 C 217 166 213 165 214 163 L 213 162 L 213 163 C 213 163 213 162 213 163 C 211 162 213 148 212 148 C 209 146 206 135 204 137 C 204 134 211 128 216 123 L 204 135 C 197 131 192 147 184 142 C 181 141 176 137 179 133 L 178 131 L 178 132 C 178 132 178 133 178 132 L 177 132 C 177 133 177 132 177 132 L 176 132 C 177 132 176 132 176 132 C 177 131 176 132 176 132 L 176 133 C 175 131 177 131 177 131 C 175 129 168 132 170 139 C 171 153 162 168 164 180 C 162 191 162 216 157 218 L 162 217 C 163 217 163 217 162 217 L 162 218 L 161 218 L 162 218 C 161 218 159 218 162 218 L 160 219 C 162 220 161 219 160 219 L 160 220 C 159 219 160 218 158 220 L 158 219 L 158 220 C 157 218 156 221 155 219 C 160 221 156 223 160 224 L 162 224 L 162 222 L 165 222 C 166 223 165 224 166 222 L 168 221 L 167 223 L 167 225 L 169 225 L 170 226 L 171 227 C 173 224 179 222 176 226 L 176 227 L 175 227 L 175 229 C 173 229 174 232 174 232 C 173 232 171 232 172 233 L 174 233 C 174 235 176 235 178 237 C 175 242 175 239 175 235 L 175 242 C 180 243 177 250 174 252 C 174 254 170 255 172 257 C 172 256 172 258 172 257 C 173 257 173 255 174 256 C 173 257 170 260 173 259 C 177 255 177 262 179 263 C 179 261 181 261 182 260 C 183 259 183 258 184 260 C 187 259 184 264 187 263 L 188 265 L 190 266 C 188 263 187 262 188 259 L 188 258 L 189 258 L 189 259 L 190 258 L 190 257 L 191 256 L 192 254 L 197 254 C 196 255 197 254 198 255 L 199 255 C 199 256 199 253 200 254 L 202 253 L 202 252 L 204 258 L 206 257 L 207 257 L 208 253 C 208 252 208 251 208 253 C 209 254 210 253 210 252 L 211 254 L 212 256 L 211 257 L 211 258 C 210 258 211 258 211 258 L 211 259 L 210 260 L 211 262 L 209 262 L 210 262 L 211 263 C 209 267 218 264 221 265 L 228 265 C 228 263 231 260 230 258 L 230 257 C 230 257 230 256 230 257 L 233 250 C 234 247 233 246 237 247 C 241 248 234 245 239 243 C 240 240 244 242 246 240 Z M 239 243 C 238 242 237 245 236 244 L 236 243 C 236 244 236 243 236 243 L 234 243 L 232 242 L 232 241 L 232 242 L 232 241 L 232 242 L 232 241 L 231 242 L 224 243 C 223 244 222 242 222 242 C 222 243 222 242 222 242 L 222 243 L 221 242 L 222 242 L 221 241 C 220 240 221 239 222 239 C 229 237 232 238 239 243 Z M 168 121 C 169 128 170 128 175 125 L 174 125 L 173 123 L 176 124 C 177 124 178 124 177 123 C 177 121 183 119 183 118 C 185 117 189 107 188 100 C 182 92 182 88 176 100 C 172 107 168 113 168 121 Z M 159 219 L 160 219 L 159 219 Z"/>
        </g>
    </g>
</svg>
