<?xml version="1.0" encoding="UTF-8"?>
<!-- Generated by Pixelmator Pro 3.6.10 -->
<svg width="542" height="445" viewBox="0 0 542 445" xmlns="http://www.w3.org/2000/svg">
    <g id="Landen">
        <g id="BELGIE">
            <path id="BE-09" fill="#777777" stroke="#231f20" stroke-width="0.4" stroke-linejoin="round" d="M 248 122 C 247 119 247 115 245 115 L 244 108 C 244 106 242 106 244 104 C 246 101 237 83 234 93 C 228 104 216 108 209 113 C 206 117 202 112 203 116 C 201 117 197 118 199 115 C 201 111 193 118 191 116 C 186 102 181 108 166 100 C 165 101 167 104 165 103 C 163 102 163 103 161 104 C 155 104 164 112 156 112 C 150 114 148 109 144 107 C 144 108 148 112 145 114 C 140 115 148 119 143 121 C 144 123 150 125 146 130 C 141 139 137 135 147 142 C 148 143 150 143 149 145 C 151 145 153 146 152 147 C 147 147 156 152 152 156 C 149 158 151 159 152 160 C 144 165 156 161 154 164 C 149 164 155 165 154 166 C 148 164 153 169 150 170 L 151 171 C 152 174 154 168 156 171 C 159 176 151 175 156 179 C 158 178 158 179 159 180 L 160 182 C 160 182 162 182 161 183 C 160 184 158 184 160 184 L 161 186 C 164 189 155 192 156 195 C 158 195 160 197 163 195 C 165 194 166 198 165 200 L 173 200 C 176 206 178 192 181 192 C 186 190 181 194 186 193 C 187 192 189 189 188 193 L 191 196 C 194 195 196 198 198 196 L 202 195 C 204 196 203 200 206 199 C 206 199 211 199 210 197 C 209 195 209 196 208 196 C 207 190 211 190 213 192 C 215 192 214 188 216 191 C 217 189 219 190 220 189 C 223 188 224 179 220 180 C 219 179 221 177 221 175 C 222 173 224 174 223 172 L 223 170 C 222 167 226 168 224 164 C 226 161 229 167 231 164 L 231 159 C 229 157 229 156 230 155 L 231 153 C 235 154 237 153 239 150 C 237 149 241 142 238 144 C 235 147 234 143 234 140 C 223 125 250 135 248 122 Z"/>
            <path id="BE-08" fill="#777777" stroke="#231f20" stroke-width="0.4" stroke-linejoin="round" d="M 162 187 L 160 184 C 160 184 162 183 161 182 C 159 182 159 180 158 179 L 156 179 L 154 177 C 156 176 158 170 154 170 C 152 173 151 172 150 171 C 154 166 147 167 154 166 C 154 165 150 164 154 164 C 156 162 151 163 150 163 C 148 161 152 161 153 160 L 151 158 L 153 155 L 153 152 L 150 148 C 149 146 155 148 151 145 C 132 133 142 142 148 126 C 138 116 147 124 144 116 C 141 114 149 114 144 109 C 144 105 141 102 142 99 C 148 83 128 99 124 92 C 126 92 127 94 126 95 C 127 95 126 97 125 95 C 127 98 124 96 124 96 L 124 98 L 123 97 L 123 96 L 122 97 C 125 93 123 96 122 95 L 91 117 C 62 141 47 130 62 167 C 62 170 57 170 61 172 L 62 180 C 60 184 61 181 63 185 C 64 192 69 187 74 189 C 75 193 78 197 81 199 C 82 200 81 204 83 204 C 85 206 86 205 88 205 C 94 208 88 203 88 200 C 88 198 91 198 91 199 C 92 196 92 200 94 198 L 96 197 C 103 194 99 194 99 191 C 113 184 99 197 115 194 C 117 193 116 189 119 192 C 123 189 122 199 126 197 C 133 194 128 197 135 198 C 143 196 139 203 144 204 C 146 205 146 201 148 201 C 150 200 149 198 151 198 C 154 197 152 196 155 196 C 154 194 161 191 162 187 Z"/>
            <path id="BE-07" fill="#777777" stroke="#231f20" stroke-width="0.4" stroke-linejoin="round" d="M 108 194 C 103 188 109 187 98 192 C 103 194 99 196 96 197 C 97 199 95 198 94 199 C 93 200 91 196 92 199 C 91 199 90 197 89 198 C 85 202 94 213 97 207 C 98 197 103 200 108 194 Z M 253 225 C 251 225 250 226 249 223 C 247 220 247 221 244 221 C 244 218 244 215 238 216 C 238 213 239 211 236 210 C 233 209 233 217 228 215 L 226 211 C 228 211 226 208 226 206 L 226 203 L 228 202 L 226 202 C 223 200 220 207 217 204 C 214 206 212 206 209 206 L 207 205 L 206 205 C 205 205 205 202 203 202 C 203 200 205 198 203 197 C 201 194 199 196 198 197 C 195 197 194 195 192 196 C 190 197 190 195 189 195 C 187 193 190 190 187 192 C 180 196 186 187 179 194 C 178 195 175 205 173 200 L 165 200 C 165 191 161 198 156 195 C 155 196 156 195 155 194 L 155 196 C 153 196 153 196 153 198 C 149 198 150 200 148 201 C 144 202 146 206 143 203 C 140 203 142 198 138 197 C 136 199 132 197 129 195 C 128 197 124 196 125 198 C 125 200 128 201 126 202 C 126 204 129 203 128 204 C 127 206 132 203 133 206 L 134 208 L 134 209 C 136 211 130 212 133 215 L 133 217 C 137 222 137 229 137 234 C 138 237 140 238 142 238 C 143 241 146 239 147 241 C 148 244 151 241 153 240 C 157 239 155 238 159 235 C 161 235 166 236 162 239 C 161 242 162 244 164 241 C 170 241 175 239 178 246 C 181 245 182 256 181 259 C 178 264 182 262 181 266 L 184 270 C 186 271 183 271 183 271 C 185 271 185 274 187 274 C 188 273 186 272 186 271 C 186 269 188 274 189 272 L 188 271 C 189 268 188 266 190 265 L 194 265 C 196 265 198 263 197 266 C 200 263 202 265 204 267 L 206 267 L 206 269 C 210 269 214 263 216 266 L 220 264 C 221 261 221 264 223 266 C 226 261 234 274 235 262 C 235 260 239 260 239 263 C 241 264 238 259 244 262 L 242 260 C 243 259 244 258 242 259 C 242 257 246 259 244 258 C 243 256 246 254 243 253 C 243 253 246 252 245 250 C 250 249 251 249 253 246 C 254 243 251 247 250 246 C 251 241 251 238 249 235 C 253 232 252 232 251 228 C 254 228 253 227 253 225 Z"/>
            <path id="BE-06" fill="#777777" stroke="#231f20" stroke-width="0.4" stroke-linejoin="round" d="M 286 248 C 283 248 280 246 282 245 C 280 243 285 241 283 239 L 283 235 C 282 235 278 238 279 236 C 278 230 286 225 273 231 C 272 230 273 228 270 230 L 269 231 C 267 230 270 227 269 226 L 262 225 L 256 226 C 254 228 255 230 252 228 C 248 231 255 230 249 235 C 252 239 247 249 254 245 C 252 249 249 249 245 250 C 246 252 243 253 243 253 C 246 254 243 256 244 258 C 245 259 241 257 243 259 C 242 260 245 262 244 262 C 243 261 239 260 240 262 C 239 265 238 261 238 261 L 236 261 C 233 260 236 263 235 264 C 232 272 227 262 224 265 C 222 266 228 268 227 271 C 230 269 233 273 232 277 C 234 277 234 278 234 279 L 237 279 C 238 277 236 277 235 276 L 237 274 C 238 277 240 276 242 277 C 246 281 239 282 238 286 L 238 287 C 235 287 238 291 236 294 C 239 296 230 301 236 302 C 242 298 242 303 243 307 C 249 310 243 316 239 316 C 238 315 236 320 236 321 C 237 323 237 324 239 324 C 241 327 233 329 239 328 C 241 328 244 330 243 332 L 248 331 L 254 330 C 255 329 256 328 257 329 C 268 333 274 336 267 321 C 266 317 267 314 264 314 L 264 307 C 262 304 266 301 263 299 C 264 296 260 297 260 294 C 265 292 263 290 263 286 L 264 283 L 260 281 C 257 284 257 284 253 281 C 249 280 252 278 253 277 L 254 276 L 255 275 L 258 275 L 260 274 C 259 272 263 274 263 271 C 263 269 263 269 265 270 L 268 269 C 271 271 270 263 275 266 C 275 269 283 266 284 266 C 285 264 283 262 283 260 C 282 258 285 258 284 256 C 285 255 285 255 283 254 C 282 252 284 253 284 252 L 286 248 Z M 445 277 C 445 275 443 277 443 276 L 442 260 C 441 256 437 257 435 255 C 433 253 433 256 431 255 C 425 253 421 253 426 259 C 422 267 424 263 427 265 C 426 266 425 268 423 268 C 422 267 419 268 420 269 C 419 271 420 268 418 268 C 412 268 407 272 413 263 C 411 258 410 265 407 257 C 409 258 408 254 408 255 C 412 251 407 253 404 253 L 404 251 L 399 251 C 400 249 395 249 394 246 L 390 248 C 386 247 385 245 385 242 C 382 243 380 247 379 244 C 378 243 377 244 376 242 C 369 244 379 245 375 248 C 372 250 373 252 373 253 C 373 255 370 257 373 258 C 373 260 369 260 367 263 L 369 263 C 370 260 374 263 373 265 L 373 267 L 372 268 L 370 269 L 368 271 C 366 277 356 274 359 278 C 358 280 354 277 353 281 C 359 280 358 288 361 291 C 366 294 353 292 362 298 L 354 301 C 351 300 349 302 346 302 C 343 301 337 305 339 298 C 337 305 340 307 335 312 C 333 313 331 310 332 314 C 331 315 328 314 330 315 L 334 320 L 334 323 C 337 324 338 320 340 322 C 339 324 343 325 344 325 C 345 327 343 330 346 331 C 347 333 346 332 344 333 L 342 334 C 340 335 341 337 339 337 C 337 339 343 338 338 341 C 337 342 336 340 337 343 C 335 344 333 344 332 347 C 333 350 332 350 331 354 C 334 354 334 356 337 358 C 341 361 344 358 347 362 C 349 364 349 371 352 367 C 356 375 355 369 360 372 C 366 370 367 371 372 375 C 376 378 368 380 371 383 C 371 384 371 385 372 384 C 372 383 375 384 374 383 C 375 379 382 384 384 386 C 388 390 386 394 390 396 L 389 399 L 388 400 C 390 401 390 402 390 403 L 402 397 L 406 401 C 407 397 407 394 410 393 C 413 391 416 396 419 393 C 420 392 420 394 421 394 C 423 394 422 392 422 390 C 424 388 426 392 428 392 C 430 393 432 391 433 389 C 435 387 435 386 434 384 C 428 386 436 382 435 380 C 436 378 435 376 438 376 L 438 371 C 426 369 437 366 433 361 C 431 360 426 363 428 358 L 423 350 L 420 350 C 419 351 419 349 419 348 C 419 346 417 346 418 345 L 417 342 C 419 342 417 340 419 341 C 420 340 416 340 418 339 C 420 339 418 338 418 336 L 421 336 C 423 331 412 336 418 328 L 419 325 C 420 324 418 320 420 321 C 422 320 424 321 423 319 C 424 318 427 318 426 316 C 425 314 422 312 425 310 C 428 310 427 307 429 306 C 428 303 426 302 430 299 C 429 292 436 292 438 289 C 437 277 444 286 445 277 Z"/>
            <path id="BE-05" fill="#777777" stroke="#231f20" stroke-width="0.4" stroke-linejoin="round" d="M 373 253 C 372 244 358 260 360 249 C 357 247 352 249 354 243 C 354 242 350 234 348 236 C 346 239 344 235 345 234 C 342 236 341 232 343 230 C 342 229 341 232 339 231 C 339 224 329 229 332 226 C 335 224 329 220 330 217 C 327 216 323 212 325 209 C 322 207 320 207 319 211 C 318 213 314 210 315 212 C 312 214 301 215 304 218 C 303 217 300 216 299 219 L 299 218 L 298 217 L 297 215 C 294 215 295 217 294 218 C 288 214 288 218 290 223 C 288 225 287 223 285 224 C 285 222 283 223 282 224 C 278 225 282 231 279 233 C 278 238 280 236 282 235 L 283 239 L 282 243 C 280 243 284 246 281 245 C 281 246 283 246 282 247 L 286 248 C 285 252 281 253 285 255 C 285 256 283 256 284 257 C 281 258 284 261 283 262 C 289 269 274 266 271 266 C 270 270 269 269 266 269 L 263 269 C 264 271 262 274 260 272 L 259 274 L 259 275 L 256 275 L 255 276 L 254 277 C 253 277 250 279 251 280 L 257 284 C 258 284 259 280 261 281 C 262 282 265 283 263 284 L 263 289 C 265 292 259 292 260 295 C 263 297 262 299 264 301 C 262 305 265 310 264 313 C 263 315 265 314 265 314 C 266 319 271 328 270 333 L 279 331 C 280 330 281 327 282 328 L 297 322 C 298 322 299 322 298 321 L 298 313 C 299 310 295 312 297 307 C 299 302 305 303 305 297 C 310 295 309 291 313 294 C 315 294 318 293 318 295 C 317 296 321 295 319 297 C 316 298 317 301 317 304 C 319 304 317 306 316 304 C 317 303 315 302 315 303 C 312 304 316 306 314 306 C 315 309 312 308 312 310 L 313 312 L 314 313 C 315 314 312 315 312 316 L 312 322 C 308 325 309 328 314 329 C 317 329 319 333 320 335 C 321 336 319 345 317 343 C 317 346 319 348 320 350 C 320 358 315 357 327 357 C 329 354 331 355 332 351 L 333 345 C 336 344 337 342 337 341 C 342 340 339 339 339 337 C 341 337 340 334 343 334 C 343 332 348 333 346 332 C 343 330 345 327 344 325 C 342 325 340 323 340 322 C 338 321 336 324 334 323 C 333 321 335 320 333 319 C 331 318 332 318 332 317 C 330 315 328 314 331 314 C 331 310 333 314 335 311 C 336 310 339 308 337 306 C 339 305 337 305 338 303 C 338 302 338 296 339 298 C 336 305 348 301 351 301 C 355 302 356 299 361 299 C 365 296 353 296 362 292 L 362 290 L 361 290 C 357 286 359 282 355 281 C 350 279 362 280 358 276 C 362 275 365 276 368 271 L 370 269 C 372 269 372 268 373 267 L 373 265 C 373 264 373 262 371 262 C 369 261 369 263 368 264 C 365 262 372 260 373 259 C 374 256 369 259 373 253 Z"/>
            <path id="BE-04" fill="#777777" stroke="#231f20" stroke-width="0.4" stroke-linejoin="round" d="M 485 251 C 478 245 478 243 480 234 C 482 229 472 230 477 225 C 471 223 467 223 462 224 C 462 221 460 221 459 219 C 460 218 460 218 458 217 C 452 212 478 201 459 201 C 455 203 458 204 455 199 C 459 199 454 197 454 195 C 450 193 450 185 445 187 C 441 186 439 187 439 185 C 441 181 435 182 432 182 C 431 179 427 183 426 183 C 425 181 421 183 425 184 C 426 186 423 190 422 190 C 415 188 417 193 412 185 C 410 183 408 186 407 184 L 405 185 C 396 185 403 183 401 176 C 402 174 400 173 400 175 L 396 176 C 396 179 393 179 392 180 C 391 180 393 181 391 181 L 389 182 C 388 181 388 182 387 183 C 385 183 385 186 383 184 L 383 187 C 380 189 378 192 377 189 C 375 188 377 192 373 191 L 371 192 L 370 190 L 368 189 C 367 185 359 190 359 193 C 358 194 358 192 358 192 C 356 192 355 191 354 193 C 352 196 352 190 351 194 C 350 192 347 194 346 194 L 344 194 C 343 195 345 195 345 196 C 343 200 340 196 338 196 C 337 195 337 196 336 197 C 335 197 333 197 333 195 C 329 195 332 190 328 189 C 326 189 328 193 325 194 C 326 198 328 196 326 201 C 326 207 323 212 327 216 C 331 218 334 225 331 227 C 339 226 336 229 340 231 C 341 232 342 230 343 230 C 344 230 340 234 344 234 C 346 232 343 236 346 237 C 351 232 351 240 354 242 L 354 243 C 355 244 352 245 353 246 C 355 249 358 248 360 249 C 360 260 366 248 369 251 L 373 251 C 372 249 376 248 376 246 C 373 245 372 241 376 243 L 379 244 C 380 248 382 243 385 242 C 385 245 389 250 392 247 C 395 246 398 251 400 251 C 404 252 403 251 404 253 C 405 253 411 251 409 254 C 406 254 410 257 407 257 L 410 262 L 412 261 L 412 262 L 410 268 C 412 271 414 266 416 268 L 419 268 C 419 268 420 271 420 269 C 420 267 422 268 423 268 L 427 265 C 425 264 422 266 424 263 C 428 258 422 258 424 253 C 427 254 431 256 433 254 C 442 257 443 261 442 271 C 443 273 442 278 445 276 C 446 278 443 284 448 285 C 450 286 452 284 451 282 C 454 281 457 284 455 286 C 454 291 463 285 458 285 C 457 281 459 281 463 279 L 463 275 C 459 272 461 271 464 269 C 469 260 472 269 474 254 C 477 253 478 255 481 256 C 479 254 486 254 485 251 Z"/>
            <path id="BE-03" fill="#777777" stroke="#231f20" stroke-width="0.4" stroke-linejoin="round" d="M 400 175 L 397 173 L 395 172 L 395 164 C 400 162 402 155 406 150 C 407 146 400 151 402 147 C 410 142 402 131 409 130 C 407 125 416 123 410 122 C 410 116 417 118 412 112 C 410 111 408 114 406 115 C 406 112 403 112 406 111 C 403 106 399 110 395 110 C 392 107 379 106 381 98 C 381 96 378 95 377 93 C 372 86 368 98 364 98 C 359 95 358 98 354 98 C 334 98 349 109 350 119 C 347 122 347 121 344 121 C 344 125 339 124 337 125 C 335 125 333 130 331 131 L 326 133 C 322 133 322 137 320 140 C 319 138 317 140 314 140 C 312 140 312 142 311 143 L 306 144 C 298 148 304 135 291 146 L 290 147 C 292 144 289 146 288 144 L 279 147 L 278 150 C 276 151 277 149 276 149 L 275 149 L 275 148 L 274 149 C 273 147 273 149 272 149 C 266 156 275 153 276 156 C 277 155 281 155 281 157 C 282 161 278 158 278 162 L 272 165 C 274 166 272 165 272 166 C 269 168 271 169 273 172 L 273 176 C 272 179 269 176 271 178 L 270 179 L 268 179 C 270 181 262 179 264 182 L 265 184 C 270 185 266 185 265 187 C 265 188 267 186 268 188 C 268 190 271 188 271 191 C 270 189 269 195 270 194 L 271 195 L 273 196 C 275 196 272 194 274 194 C 275 194 276 192 277 193 L 278 192 C 279 193 279 191 279 191 L 280 190 C 282 189 280 194 282 193 L 285 193 L 287 191 L 286 189 L 285 187 L 285 183 L 290 184 C 291 184 291 186 293 183 C 293 183 293 185 294 184 C 295 183 294 181 296 182 C 297 180 303 182 304 186 C 306 186 307 185 306 188 L 311 187 C 312 189 313 187 313 186 C 314 186 314 188 315 187 L 315 190 C 319 193 320 187 323 187 C 325 184 327 190 330 191 C 330 192 330 195 333 195 C 334 198 338 194 340 197 C 341 198 346 198 345 195 L 344 194 L 345 193 L 346 194 C 347 194 349 192 350 194 C 352 190 351 194 354 194 L 356 191 L 358 192 L 359 193 C 359 191 367 185 368 189 C 369 190 370 192 372 192 L 375 191 C 376 189 376 187 378 191 L 383 187 L 382 185 C 383 184 385 186 386 183 C 389 183 386 181 390 182 L 392 181 C 391 180 392 179 393 180 C 396 178 396 174 400 175 Z M 425 186 C 420 175 417 188 409 179 C 407 180 407 185 404 182 L 402 184 C 400 184 399 183 401 185 L 405 185 C 405 184 406 183 407 184 C 408 186 410 182 413 186 C 414 192 424 191 425 186 Z"/>
            <path id="BE-02" fill="#777777" stroke="#231f20" stroke-width="0.4" stroke-linejoin="round" d="M 350 119 C 350 114 348 111 345 108 C 341 103 349 95 344 91 C 323 96 334 58 320 64 C 320 69 310 80 310 78 L 308 75 L 302 75 C 300 75 296 77 294 76 L 293 74 L 295 72 L 297 73 L 299 74 L 301 74 C 297 74 301 66 300 67 C 300 65 301 64 298 63 C 298 61 296 61 294 61 C 290 57 283 74 281 74 C 253 80 283 53 252 73 C 253 72 253 75 253 75 C 249 79 264 86 252 88 C 223 77 248 95 243 106 L 245 112 C 246 113 244 114 246 115 C 259 133 224 125 234 142 C 232 144 237 146 237 144 C 240 142 238 147 244 143 C 246 143 249 146 251 145 C 251 147 250 147 252 147 L 254 144 C 256 146 251 147 256 148 C 256 152 260 150 262 148 C 264 149 264 151 266 151 C 268 143 269 153 273 148 C 274 147 274 150 274 149 L 276 149 L 277 150 L 278 150 L 279 149 C 279 146 280 147 282 146 C 292 139 290 152 291 146 C 295 144 299 139 302 144 C 302 146 302 145 304 145 L 311 143 C 312 142 313 140 315 140 L 318 139 L 320 140 C 321 137 323 136 323 133 L 326 133 L 331 131 C 333 130 335 125 337 125 C 340 124 344 125 344 121 C 347 122 348 121 350 119 Z"/>
            <path id="BE-01" fill="#777777" stroke="#231f20" stroke-width="0.4" stroke-linejoin="round" d="M 327 189 C 323 179 317 199 314 187 C 313 186 314 187 313 188 L 310 188 C 303 188 310 186 304 186 C 302 180 296 181 294 182 C 295 183 293 186 293 183 C 292 186 291 184 290 184 L 288 184 C 287 184 285 182 286 184 C 287 186 284 187 286 189 L 286 190 L 287 191 L 285 193 L 282 193 C 280 194 282 189 280 190 L 279 191 L 277 193 C 276 192 275 194 273 194 C 274 195 274 197 271 196 L 271 195 C 270 195 271 193 270 194 L 270 191 C 271 190 272 191 271 190 C 270 188 268 190 268 188 C 267 186 265 188 265 187 C 271 184 263 184 265 182 C 262 182 267 180 268 180 L 270 178 L 271 178 C 271 178 269 176 271 177 C 275 178 271 173 273 172 C 271 170 269 168 272 166 C 272 166 274 166 272 165 C 274 163 276 163 279 162 C 277 160 280 160 281 159 C 282 157 279 153 277 156 L 275 155 C 276 154 272 155 271 154 C 271 152 267 144 267 150 C 266 152 264 150 263 148 L 259 150 C 255 151 257 147 254 147 L 254 145 C 253 145 251 148 251 146 C 252 145 249 146 248 145 C 247 143 244 143 242 143 L 240 144 C 238 144 240 148 237 148 C 241 151 235 155 232 153 C 230 152 231 154 230 155 C 229 156 230 158 231 159 L 231 164 C 227 165 228 164 224 163 C 222 165 226 167 224 168 C 221 169 225 171 223 172 C 224 174 222 173 222 174 C 222 177 219 179 220 180 C 224 179 223 185 221 188 C 221 189 219 188 219 190 C 218 190 217 189 217 191 C 213 188 215 196 211 190 C 203 194 214 198 209 199 L 204 198 C 202 202 205 202 206 205 L 208 205 C 210 206 214 207 217 204 C 218 206 220 203 221 203 C 223 207 221 198 228 202 C 225 202 227 204 226 206 L 226 211 C 226 212 228 216 229 214 C 232 217 233 211 235 209 C 237 209 239 212 238 214 C 239 218 245 214 244 220 L 245 221 C 247 220 249 224 250 225 C 253 224 254 224 253 228 C 252 228 254 230 254 228 C 255 228 255 226 256 227 C 256 226 256 225 257 226 C 258 227 262 224 263 226 C 265 226 270 225 269 227 L 269 231 C 269 229 273 228 273 231 C 275 232 277 229 280 228 C 280 225 281 223 285 223 L 290 223 C 289 219 287 214 294 218 C 296 218 294 216 296 215 C 299 215 298 217 299 218 C 299 220 302 214 304 218 C 302 214 320 212 322 208 C 325 209 326 205 325 201 C 325 199 329 198 326 196 C 325 196 324 194 325 193 C 327 193 327 192 327 189 Z"/>
        </g>
    </g>
</svg>
