<?xml version="1.0" encoding="UTF-8"?>
<!-- Generated by Pixelmator Pro 3.6.10 -->
<svg width="1008" height="813" viewBox="0 0 1008 813" xmlns="http://www.w3.org/2000/svg">
    <g id="Landen">
        <g id="BULGARIJE">
            <path id="BG-09" fill="#f26e26" stroke="#231f20" stroke-width="0.4" stroke-linejoin="round" d="M 878 131 C 878 125 870 124 869 118 C 868 112 862 106 862 100 C 839 98 785 127 769 84 C 750 101 734 92 735 108 C 733 106 734 111 736 110 C 738 112 735 112 736 113 C 731 117 733 114 729 113 C 721 111 733 123 727 121 L 727 124 C 728 131 720 127 717 126 C 717 131 710 130 712 136 C 708 141 702 142 700 146 L 700 149 C 698 150 701 150 700 150 C 699 149 698 154 699 154 C 699 156 695 154 697 158 C 695 164 712 170 698 170 C 695 169 695 171 693 172 L 687 171 C 685 165 694 164 679 168 C 676 176 670 172 682 177 C 682 180 677 181 675 181 C 673 190 674 195 665 194 C 662 196 667 202 664 202 C 662 204 658 203 658 206 C 660 208 658 212 660 210 C 663 211 662 212 664 211 C 666 214 662 218 659 218 C 656 222 662 223 654 226 C 654 229 661 227 658 233 C 664 232 667 232 670 239 C 663 240 666 244 666 248 C 667 250 663 254 667 254 L 667 256 L 669 256 C 680 258 668 270 672 277 C 670 279 667 277 665 278 C 667 280 667 281 667 285 C 671 288 674 285 674 293 C 671 290 671 293 669 293 L 671 297 C 668 299 665 298 666 302 C 672 304 668 302 672 300 C 671 302 675 302 671 303 L 667 307 C 663 311 662 317 665 322 C 669 321 673 317 676 317 C 681 309 675 328 685 318 C 692 320 692 311 694 307 C 700 306 702 306 706 303 C 710 307 714 299 718 299 C 723 306 736 287 743 283 C 749 282 759 279 758 286 C 760 284 764 287 765 289 C 767 288 770 287 771 288 C 775 293 778 287 782 287 C 784 287 784 285 785 288 L 790 287 C 791 286 788 286 790 285 L 790 284 C 789 284 789 284 790 284 L 793 282 C 794 282 794 284 794 282 C 796 282 795 283 795 280 C 798 278 801 280 805 279 C 810 279 813 283 821 283 C 825 284 832 278 833 275 C 836 265 822 253 822 242 C 824 238 822 235 822 231 C 821 228 822 221 820 219 C 819 219 816 221 816 219 L 812 219 L 815 218 L 813 218 L 813 217 L 816 217 L 814 217 L 816 217 C 817 219 815 214 817 214 L 818 214 C 818 212 820 213 820 211 L 822 210 L 824 210 L 825 208 L 825 204 C 827 204 825 194 826 193 C 825 186 824 176 832 171 L 840 169 C 844 165 852 160 857 161 C 859 160 861 161 864 162 L 869 162 L 872 164 L 871 160 L 873 153 L 877 148 L 877 143 L 878 137 L 878 131 Z"/>
            <path id="BG-08" fill="#f16522" stroke="#231f20" stroke-width="0.4" stroke-linejoin="round" d="M 905 413 L 902 410 L 901 410 L 901 408 L 900 408 L 900 407 L 898 406 L 898 405 L 896 404 L 895 403 L 895 402 C 894 402 895 402 895 402 L 893 402 L 891 401 L 890 400 L 888 398 L 887 398 L 887 397 C 887 397 886 397 887 397 L 885 397 C 884 399 882 397 881 396 L 881 395 L 879 394 L 878 393 L 875 393 L 875 392 L 874 391 C 874 390 873 393 873 391 L 872 390 C 869 393 872 388 871 389 L 869 389 C 869 388 869 387 868 388 L 868 387 L 865 387 C 864 385 862 386 862 385 C 861 386 859 384 858 384 L 858 382 L 856 382 C 854 383 851 380 853 379 L 854 378 L 853 378 C 851 376 852 375 853 374 L 853 372 L 854 371 L 855 370 L 853 370 L 853 369 L 852 369 L 852 368 L 853 368 L 852 368 L 852 366 L 851 366 C 851 366 851 367 851 366 C 850 366 850 368 849 367 L 849 368 C 849 370 845 368 845 367 C 845 366 840 365 841 363 L 842 361 L 841 361 C 840 362 838 358 840 358 L 841 357 C 841 356 841 357 841 357 L 841 356 L 840 356 L 839 357 L 838 357 L 837 355 L 835 355 C 834 355 835 355 835 355 C 834 356 835 355 835 355 L 835 356 C 835 358 833 360 830 358 C 828 356 832 355 830 356 C 830 354 828 355 829 354 C 829 353 829 354 829 354 L 829 353 L 828 353 C 828 353 827 355 827 353 L 825 352 C 826 356 824 356 820 354 C 819 352 820 355 819 356 C 820 354 821 357 820 357 C 816 359 815 354 814 359 L 815 360 L 814 361 C 814 360 813 365 812 361 C 811 361 808 361 808 359 L 806 359 C 807 360 806 361 807 360 L 806 362 C 806 361 806 362 806 362 L 806 361 C 806 361 805 362 806 361 L 803 360 L 802 360 C 804 359 801 358 802 356 L 803 356 C 803 355 803 354 804 355 C 805 357 804 356 805 355 L 804 355 C 804 354 805 353 806 355 C 804 352 803 343 806 341 C 808 337 811 343 813 337 L 815 336 C 816 338 816 334 818 335 L 821 336 L 822 336 C 823 335 822 335 821 334 C 814 328 815 322 821 319 C 821 316 823 317 824 317 C 824 315 826 313 826 315 L 827 314 C 824 315 819 311 823 306 L 829 304 C 849 299 844 303 837 284 C 830 268 829 290 811 281 C 808 279 806 278 801 279 C 798 279 795 279 795 282 C 794 283 793 281 794 283 C 793 284 794 282 793 282 L 789 284 L 789 286 C 790 286 791 287 789 287 L 785 287 C 785 284 783 287 782 287 C 779 286 779 290 776 290 C 773 289 769 287 765 288 C 756 281 743 277 733 292 C 727 294 723 306 717 299 C 714 300 709 306 707 303 C 703 302 703 307 699 306 C 690 305 695 319 686 318 L 683 320 C 675 324 682 310 675 318 C 672 316 670 322 665 321 C 660 317 669 308 658 309 C 654 305 651 316 646 314 C 640 310 636 320 635 312 L 628 316 C 621 317 626 325 623 329 C 613 329 619 337 617 343 C 612 344 611 348 607 352 C 602 356 616 350 605 367 L 590 373 C 591 375 583 376 587 377 C 587 380 580 380 584 382 L 595 395 C 597 397 596 405 601 405 C 602 405 601 407 602 406 C 605 402 605 410 604 411 C 595 415 609 420 612 424 C 612 426 605 434 613 434 C 615 442 622 442 623 449 C 628 449 629 449 634 453 C 641 450 649 454 652 454 C 650 451 656 447 657 451 C 660 457 658 456 665 458 C 666 458 692 460 686 456 C 695 460 693 451 699 455 C 701 454 699 453 699 453 C 702 452 700 451 701 451 C 702 451 702 456 704 454 C 705 449 711 454 707 455 C 708 455 709 456 708 457 C 707 459 709 460 707 462 C 711 472 717 467 713 479 C 718 486 728 492 729 477 C 734 478 738 475 743 475 C 748 476 747 470 750 468 C 751 470 755 469 757 469 L 759 465 C 763 464 765 462 767 460 C 772 460 772 455 771 451 C 775 451 775 445 773 443 C 773 442 777 441 778 438 C 781 439 785 436 787 440 C 789 440 789 437 791 439 C 793 439 793 436 795 438 C 800 439 792 435 797 433 C 796 428 804 428 806 428 C 807 430 810 428 811 430 C 813 432 815 431 817 431 C 821 433 822 438 826 438 C 828 441 829 438 831 441 C 833 443 835 440 836 443 C 840 444 841 439 844 443 C 846 448 856 448 850 446 C 849 445 852 445 852 444 C 849 445 851 440 852 442 C 853 443 853 437 854 439 C 855 442 856 436 856 437 C 858 437 852 436 856 436 C 858 437 858 433 860 435 L 861 433 C 860 431 867 429 863 430 L 869 428 C 871 428 869 429 870 429 L 870 428 C 872 427 873 429 874 429 C 874 425 875 429 875 430 L 880 430 C 881 430 877 427 881 428 C 884 429 882 425 880 426 C 879 424 877 423 878 420 C 879 419 881 422 881 419 C 880 418 882 418 881 419 C 883 421 882 418 882 417 L 884 418 C 887 416 888 420 891 420 C 891 417 892 421 892 418 C 894 418 896 418 897 416 C 897 414 903 416 905 413 Z M 835 353 L 834 352 C 833 352 834 354 835 353 Z"/>
            <path id="BG-07" fill="#f05d22" stroke="#231f20" stroke-width="0.4" stroke-linejoin="round" d="M 740 95 C 729 80 706 114 685 97 C 681 88 670 95 658 96 C 586.20459 130.472656 528.594727 188.789551 495 261 C 497 264 499 264 502 266 C 504 267 507 271 508 266 C 517 267 508 281 516 279 C 519 279 522 282 524 282 C 531 284 530 273 534 277 C 543 283 538 277 546 280 C 561 281 559 268 566 277 C 566 284 575 279 578 279 C 585 277 592 281 585 288 C 586 290 589 288 590 290 L 592 292 L 593 292 C 594 294 601 297 597 299 C 595 301 597 304 593 302 L 593 309 C 594 313 596 311 595 316 C 599 317 599 321 602 322 C 604 326 608 319 607 326 C 606 327 599 334 607 334 C 608 332 610 331 611 333 C 617 336 617 329 621 329 C 628 328 620 318 629 315 C 631 313 632 312 634 313 C 637 310 634 316 636 315 C 641 312 643 314 648 315 C 660 300 660 318 670 304 C 673 303 673 301 672 300 C 669 304 670 303 666 302 C 665 297 670 300 671 296 L 669 294 C 670 292 671 291 674 293 C 674 287 672 287 668 286 C 666 283 668 280 666 279 C 665 280 664 278 665 278 C 677 279 667 270 674 266 C 675 252 669 258 667 254 C 663 254 667 250 666 248 C 667 244 662 241 668 240 C 672 240 665 232 663 232 L 658 233 L 658 228 L 654 227 C 652 225 661 224 659 222 C 657 221 658 217 660 217 C 662 219 666 212 664 211 C 662 213 661 208 659 210 L 659 205 C 669 201 662 200 665 194 C 682 193 666 185 682 178 C 681 173 669 179 679 169 C 681 167 692 163 686 168 C 687 173 689 170 692 172 C 694 174 695 168 697 170 C 704 171 706 167 698 164 C 698 163 694 155 698 155 C 700 156 698 152 698 152 C 700 151 698 150 700 150 C 697 149 702 149 701 148 C 700 142 711 141 712 135 C 711 128 717 131 718 125 C 721 129 724 129 727 126 L 727 121 C 733 122 722 114 727 113 C 731 111 732 118 735 114 C 738 111 736 111 734 108 C 740 106 731 99 740 95 Z"/>
            <path id="BG-06" fill="#de4026" stroke="#231f20" stroke-width="0.4" stroke-linejoin="round" d="M 730 497 C 726 495 730 492 728 491 L 714 481 C 711 478 718 469 711 468 C 709 469 710 467 710 466 C 707 463 707 458 708 455 C 706 456 707 454 709 454 C 708 453 707 453 708 452 C 704 451 703 457 702 453 C 703 449 698 453 700 454 L 698 455 C 693 451 696 458 692 457 C 690 458 688 455 686 456 C 688 459 681 459 679 458 C 672 459 666 459 661 457 C 658 457 659 451 655 449 C 652 451 651 450 652 454 C 650 452 644 455 639 451 C 632 454 632 452 629 448 C 620 452 624 443 617 442 C 614 434 605 431 612 425 C 609 421 600 416 601 413 C 604 412 607 404 603 406 C 602 407 601 404 599 404 C 596 401 596 396 595 395 L 583 380 C 596 373 570 381 566 378 C 563 383 552 385 560 389 C 560 392 557 392 553 389 C 552 395 546 391 543 395 C 529 394 546 400 527 403 C 523 400 519 405 516 402 C 515 411 511 404 507 402 C 501 402 497 411 493 414 C 489 414 484 413 485 417 C 490 423 489 431 494 437 C 492 438 491 440 494 440 C 492 444 495 443 496 446 C 496 451 501 453 506 454 C 507 457 524 446 521 454 C 521 456 517 459 520 461 C 527 460 530 470 525 468 C 515 463 516 468 521 477 C 520 479 524 487 526 488 L 528 487 C 528 490 533 487 531 490 C 525 494 518 495 525 503 C 523 511 533 508 537 510 C 539 508 532 508 536 506 C 534 504 540 505 541 506 C 544 508 545 498 548 501 C 555 508 569 508 561 519 C 557 524 569 531 565 538 C 560 542 566 552 557 550 C 555 550 554 552 554 553 C 554 555 553 558 550 558 C 550 560 553 563 551 566 C 545 569 554 572 546 574 C 544 575 544 580 545 583 C 547 585 548 583 549 585 C 551 592 557 597 558 603 C 556 603 554 608 553 609 C 553 610 550 609 550 611 C 551 613 546 615 550 616 C 571 640 554 607 574 621 C 575 637 577 625 578 634 C 575 634 578 637 579 639 C 579 642 574 648 580 647 C 583 647 585 650 586 653 C 588 653 590 652 591 654 C 594 654 594 659 596 659 C 602 658 606 658 610 654 C 612 651 616 651 618 648 C 621 646 624 639 630 642 C 634 642 629 633 635 633 C 642 636 645 627 654 632 C 652 626 654 627 658 625 C 658 623 660 625 661 624 C 661 623 661 620 663 621 C 667 612 674 627 679 619 C 682 616 686 616 688 614 C 688 611 689 609 691 609 C 693 607 699 607 699 604 C 701 603 704 604 703 601 C 704 598 705 593 704 590 C 708 585 706 584 700 582 C 700 576 703 568 694 568 C 692 564 693 560 689 559 C 687 552 688 563 679 556 C 676 551 672 544 680 544 C 681 535 690 535 697 536 C 722 536 701 531 706 519 C 709 506 730 514 730 497 Z"/>
            <path id="BG-05" fill="#f48032" stroke="#231f20" stroke-width="0.4" stroke-linejoin="round" d="M 618 337 C 615 332 615 335 609 332 C 603 337 601 329 607 326 C 607 318 606 329 597 317 C 593 316 596 313 596 311 C 593 312 592 307 594 308 L 593 303 C 597 304 596 299 598 297 C 596 294 594 293 592 292 L 592 291 C 590 292 589 288 588 289 C 579 289 592 284 587 280 C 571 274 576 289 562 273 C 559 274 557 277 555 279 C 552 278 548 281 545 279 C 535 280 541 281 534 277 C 530 273 531 285 524 282 C 517 277 511 283 513 274 C 511 263 509 268 504 268 C 505 265 500 265 499 265 C 486 257 511 254 500 245 C 474 260 429 242 398 269 C 376 258 349 271 349 293 C 345 292 344 296 345 297 C 335 293 338 305 331 307 C 332 310 325 306 324 307 C 323 312 319 308 318 311 C 319 316 316 323 317 325 C 324 331 321 333 331 335 C 330 340 328 345 325 348 C 327 352 325 353 323 355 C 322 360 330 364 326 368 C 328 370 329 377 331 378 C 331 376 342 377 340 381 C 342 397 348 392 336 398 C 344 416 344 390 354 412 C 358 413 354 416 356 418 C 367 422 369 417 372 421 C 369 422 375 422 374 426 C 375 429 373 435 379 434 C 381 435 375 435 376 437 C 377 441 381 434 381 437 C 378 441 375 443 374 446 C 384 442 421 444 418 430 C 433 419 441 436 456 433 C 459 428 463 427 468 427 C 469 424 473 425 475 425 C 476 423 475 421 479 422 C 479 420 486 418 484 417 C 486 412 489 414 493 414 C 502 407 502 397 514 406 C 516 407 514 402 517 402 C 520 405 524 400 529 403 C 533 399 537 403 537 396 L 548 393 C 551 395 552 390 553 389 C 557 392 560 391 560 389 C 552 385 564 384 565 378 C 571 378 576 380 582 377 C 589 375 595 369 601 369 C 603 366 615 358 606 353 C 603 353 612 349 612 345 C 616 344 618 342 618 337 Z"/>
            <path id="BG-04" fill="#f26e26" stroke="#231f20" stroke-width="0.4" stroke-linejoin="round" d="M 585 650 C 581 645 574 650 579 640 C 578 637 575 635 578 634 C 578 631 576 632 578 630 C 572 632 576 626 575 622 C 572 618 561 615 563 623 C 563 630 552 621 552 616 C 550 615 548 616 549 613 C 550 613 551 611 550 610 L 554 608 C 555 605 560 604 557 599 L 549 585 C 547 583 544 583 544 579 C 544 573 550 574 550 571 C 546 567 555 565 550 558 C 554 557 553 553 555 551 C 558 550 563 551 563 546 C 560 543 566 540 566 536 C 567 531 558 523 560 520 C 563 515 565 510 559 508 C 559 502 552 507 550 503 C 545 496 544 509 540 506 C 539 505 535 505 536 507 C 533 507 539 509 537 510 C 530 509 524 509 523 500 C 517 492 530 494 532 489 L 527 487 C 523 490 521 476 518 472 C 517 469 516 464 521 467 C 524 465 527 470 527 468 C 530 461 515 462 520 457 C 526 448 514 451 509 455 C 503 454 495 451 496 444 C 492 445 494 442 494 440 C 492 441 491 436 494 438 L 486 419 C 485 416 481 420 479 422 C 478 423 474 420 475 425 C 472 425 469 425 467 427 C 464 426 463 427 461 429 C 436 447 441 404 408 443 C 406 452 410 453 416 460 C 416 465 430 467 426 471 C 422 471 417 472 413 474 C 412 472 410 471 408 472 C 404 467 401 466 395 467 C 390 470 385 472 384 479 C 383 484 377 483 375 488 C 369 489 365 485 359 491 C 357 495 357 496 361 498 C 362 499 361 501 364 502 C 368 501 370 507 371 505 L 373 505 C 373 507 378 504 379 502 C 385 499 382 513 382 514 C 376 519 372 516 375 527 C 372 535 388 527 380 539 C 376 540 372 532 370 538 C 378 550 347 563 368 568 C 368 569 366 571 369 574 L 370 580 C 370 582 379 582 374 585 C 372 587 370 590 369 594 C 372 596 371 598 370 602 C 370 606 380 606 378 612 C 377 615 382 614 381 619 L 398 622 C 403 625 413 627 415 630 C 417 633 420 629 421 632 C 421 637 433 632 431 639 C 426 649 438 645 434 648 C 430 648 431 663 432 659 C 434 652 439 656 443 654 C 445 656 450 659 448 654 L 450 649 C 451 650 452 650 452 648 L 455 644 C 457 643 456 645 457 646 C 461 646 462 649 462 651 C 464 655 467 645 470 649 C 472 649 472 643 475 644 C 476 646 479 644 480 644 C 484 646 481 641 482 640 C 483 637 485 638 485 637 C 487 637 487 633 490 634 C 490 637 492 634 493 636 C 492 639 497 641 497 644 C 499 648 502 648 504 650 C 504 656 509 655 511 652 C 513 651 513 653 513 654 L 520 652 C 525 651 524 656 527 657 C 535 660 539 663 535 651 C 541 648 540 652 546 645 C 552 649 559 648 566 647 C 568 647 569 649 571 650 L 573 650 C 575 650 574 648 576 648 C 577 647 576 649 578 650 C 579 651 581 649 581 651 L 583 651 C 583 652 586 651 585 650 Z"/>
            <path id="BG-03" fill="#f16522" stroke="#231f20" stroke-width="0.4" stroke-linejoin="round" d="M 350 290 C 328 283 274 297 241 292 C 215 289 199 320 173 315 C 114 295 233 274 121 257 C 120 261 119 260 119 264 C 121 266 116 265 118 266 C 119 267 117 267 117 269 C 120 269 118 281 123 284 C 120 290 111 287 114 295 C 97 304 102 302 102 319 C 105 344 101 334 114 353 C 115 357 121 360 125 360 C 129 362 127 364 129 366 C 131 372 132 377 136 382 C 142 388 139 390 148 390 C 151 396 157 389 160 394 C 162 399 166 395 170 396 C 175 395 178 403 185 402 L 187 406 C 189 408 189 411 193 411 C 195 416 199 417 203 419 C 212 418 219 419 225 422 C 230 427 233 430 240 425 C 240 424 250 425 247 422 C 245 418 254 423 255 417 C 253 411 258 412 262 411 C 264 409 277 406 275 411 C 274 414 272 419 276 419 C 277 421 278 422 280 421 C 286 429 294 436 295 422 C 299 413 306 427 310 417 C 311 411 317 409 321 412 C 327 411 333 408 337 412 C 344 409 336 401 336 397 C 349 396 339 387 339 378 C 329 374 331 382 327 370 C 325 369 328 367 328 365 C 326 363 323 359 324 356 C 323 354 327 354 326 352 C 324 348 328 345 329 342 C 336 329 323 338 318 325 C 316 324 319 315 318 311 C 321 311 318 308 323 310 C 324 309 324 305 328 308 C 338 310 334 293 345 297 C 343 296 346 296 345 294 C 347 293 350 294 350 290 Z"/>
            <path id="BG-02" fill="#f05d22" stroke="#231f20" stroke-width="0.4" stroke-linejoin="round" d="M 427 469 C 391 447 423 441 395 441 C 391 441 371 452 376 444 C 375 440 381 440 381 437 C 380 435 377 440 377 438 C 380 432 376 436 375 431 C 375 426 372 422 371 420 C 367 418 362 422 358 418 C 352 419 358 413 354 412 C 344 398 354 402 340 405 C 338 406 342 411 338 412 C 333 409 327 411 321 412 C 319 411 315 410 312 412 C 306 432 301 411 294 423 C 294 440 284 423 278 421 C 277 422 277 419 275 419 C 272 419 275 417 274 415 C 278 405 271 409 264 410 C 262 412 253 411 255 416 C 256 422 249 419 247 421 L 247 423 L 243 424 C 230 432 229 424 219 420 C 209 412 217 429 214 434 C 208 440 210 447 205 453 C 204 458 196 461 197 464 L 198 468 C 196 469 197 470 199 472 C 198 475 198 478 196 480 L 192 483 C 190 481 190 486 190 486 L 186 484 C 184 488 181 481 179 484 L 176 485 L 176 490 C 174 489 171 488 169 490 C 171 502 155 498 166 508 L 171 513 C 174 513 173 514 174 516 C 174 518 171 520 172 522 C 172 524 169 525 173 525 C 175 526 173 530 173 531 C 175 532 174 533 174 537 C 175 540 173 543 175 546 C 180 544 187 550 192 553 C 195 555 193 558 193 561 C 194 563 193 569 192 572 C 187 572 189 575 187 579 C 187 581 190 583 187 585 C 186 587 185 586 184 586 L 182 586 L 180 588 C 179 589 175 590 178 592 C 180 591 181 593 183 594 C 184 598 189 597 191 600 C 194 602 195 607 200 606 C 203 615 214 616 218 619 C 222 618 225 621 230 622 C 231 622 233 619 234 620 C 236 621 237 624 239 622 C 243 623 245 622 246 621 C 248 625 252 622 255 622 C 258 625 259 633 261 637 C 265 639 265 642 266 644 C 267 646 268 644 268 645 L 271 647 L 276 654 C 277 657 280 657 280 660 C 282 661 285 658 286 661 C 292 665 292 667 290 674 C 287 677 290 682 286 682 C 284 684 287 688 287 691 C 288 693 292 694 292 697 C 293 699 291 699 291 700 C 291 702 293 703 294 703 C 295 705 292 707 294 709 C 296 715 300 713 296 721 C 300 725 302 731 298 735 C 305 733 326 734 335 725 C 336 721 332 717 338 714 C 339 708 345 710 349 715 L 355 706 C 360 705 367 701 371 702 C 374 704 379 701 383 703 C 389 699 388 692 400 693 C 403 694 401 685 404 684 C 409 685 410 680 413 679 C 418 680 412 669 419 675 C 421 675 420 678 423 677 C 425 679 426 677 427 675 C 427 674 429 674 429 672 C 429 670 430 673 431 673 L 433 673 C 435 672 438 668 434 666 L 431 657 L 431 650 C 432 649 438 644 432 647 C 426 645 436 636 427 634 C 424 636 422 633 420 631 C 419 631 415 632 415 629 C 408 628 399 619 392 622 C 388 618 380 622 380 615 C 376 610 378 607 370 603 C 374 591 363 599 375 583 C 372 581 368 580 370 575 C 369 573 365 570 369 569 C 356 564 361 560 368 552 C 369 548 371 545 371 540 C 366 532 377 539 380 539 C 384 533 383 531 376 531 C 373 528 376 523 374 520 C 375 517 379 516 381 515 C 383 514 385 501 379 502 C 376 508 371 503 371 506 C 369 505 366 502 361 501 C 362 497 358 497 357 494 C 361 489 366 485 373 489 C 378 487 378 482 383 481 C 386 478 384 473 388 471 C 394 469 400 463 406 469 C 407 473 412 470 413 474 C 416 475 419 469 423 472 C 424 470 427 472 427 469 Z M 244 498 C 246 490 254 491 260 491 C 265 486 260 484 259 481 C 263 479 263 475 262 473 C 261 473 264 471 262 470 C 261 467 259 460 263 459 C 271 460 275 468 281 461 L 285 457 C 286 458 287 458 287 455 C 289 454 290 458 292 456 C 295 453 296 460 299 460 C 303 459 303 451 308 452 C 310 455 309 455 312 453 C 318 452 311 458 314 463 C 315 466 313 466 312 467 L 312 474 C 313 480 304 479 306 485 C 295 487 305 492 302 494 C 304 493 305 492 308 493 C 307 496 309 494 311 495 L 315 506 C 313 509 320 512 322 513 C 324 512 328 511 326 515 C 336 516 336 529 326 527 C 325 527 324 529 323 528 C 321 529 321 531 319 529 C 314 525 322 523 318 521 C 316 521 317 520 316 519 C 314 517 312 518 311 515 C 305 514 297 516 304 522 C 304 530 290 521 285 520 C 283 520 283 520 283 518 C 283 516 281 516 280 515 C 274 517 267 510 261 516 C 259 514 264 512 264 509 C 260 507 263 502 258 503 L 253 503 C 252 499 251 503 250 501 C 247 499 244 502 244 498 Z"/>
            <path id="BG-01" fill="#de4026" stroke="#231f20" stroke-width="0.4" stroke-linejoin="round" d="M 334 523 C 333 519 329 516 326 514 C 328 511 323 512 322 513 C 319 512 312 509 316 505 L 312 497 C 313 494 309 495 308 495 C 309 491 304 493 302 494 C 306 492 297 489 304 486 C 306 484 306 486 306 481 C 308 479 311 480 312 477 L 312 467 C 314 466 315 465 314 463 C 311 458 318 452 312 453 C 310 453 309 456 309 453 C 303 448 303 463 297 459 C 295 454 292 458 289 456 C 286 453 288 458 286 458 C 284 455 280 464 276 465 C 274 462 260 453 260 465 C 262 467 262 469 263 472 C 261 473 262 474 264 475 C 257 481 267 489 256 492 C 250 488 242 495 245 500 C 250 500 252 503 258 503 C 263 502 260 506 264 509 C 264 511 258 515 262 516 C 267 510 274 516 281 515 C 284 519 286 523 294 523 C 299 525 302 528 305 522 C 303 519 299 519 303 515 C 309 515 311 516 316 519 C 317 520 316 521 319 521 C 321 524 314 525 319 529 C 321 531 321 530 322 528 C 323 527 324 530 325 528 C 328 527 334 527 334 523 Z"/>
        </g>
    </g>
</svg>
