<?xml version="1.0" encoding="UTF-8"?>
<!-- Generated by Pixelmator Pro 3.6.10 -->
<svg width="1422" height="1162" viewBox="0 0 1422 1162" xmlns="http://www.w3.org/2000/svg">
    <g id="Landen">
        <g id="ROEMENIE">
            <path id="RO-92" fill="#777777" stroke="#231f20" stroke-width="0.4" stroke-linejoin="round" d="M 962 716 C 967 727 976 719 985 716 C 985 719 986 717 988 717 C 986 721 990 719 992 719 C 993 714 998 716 997 711 C 999 713 1008 710 1011 712 C 1015 699 1024 711 1032 714 C 1032 711 1039 715 1038 709 C 1034 709 1031 709 1031 704 C 1059 710 1039 689 1060 696 C 1071 686 1095 688 1112 677 C 1121 673 1121 694 1134 687 C 1149 694 1151 712 1166 721 C 1156 733 1167 758 1150 762 C 1137 750 1130 749 1122 741 C 1110 748 1112 731 1100 738 C 1089 709 1096 743 1077 743 C 1070 737 1074 752 1062 746 C 1061 757 1052 740 1055 752 C 1040 759 1032 749 1016 761 C 1016 757 1012 762 1010 763 C 1009 759 1007 763 1007 765 C 1002 767 1000 764 1000 760 C 998 764 993 771 991 760 C 988 761 985 761 986 758 C 978 789 968 756 960 775 C 969 771 956 781 957 782 C 954 777 954 784 949 778 C 949 760 962 769 956 759 C 949 768 947 762 940 758 C 945 752 940 748 933 745 C 928 744 934 740 934 738 C 937 743 945 737 947 730 C 958 733 955 722 962 716 Z"/>
            <path id="RO-91" fill="#777777" stroke="#231f20" stroke-width="0.4" stroke-linejoin="round" d="M 1025 755 C 1032 753 1055 760 1054 747 C 1058 748 1061 754 1062 746 C 1068 747 1070 750 1074 741 C 1083 744 1092 737 1091 729 C 1092 717 1099 733 1100 738 C 1107 735 1110 737 1113 744 C 1122 740 1125 740 1128 748 C 1176 760 1107 795 1085 809 C 1056 803 968 896 983 842 C 981 841 978 835 977 837 C 975 835 980 833 976 833 C 975 829 972 832 970 832 C 968 827 960 832 958 826 C 953 825 952 824 954 820 C 947 818 956 814 957 811 C 955 812 957 809 957 809 C 955 809 955 808 954 806 C 956 805 955 803 958 803 C 957 801 960 799 961 798 C 970 793 972 786 960 791 C 957 789 954 789 956 784 C 953 786 948 784 953 781 C 955 779 955 780 957 782 C 957 780 957 778 959 780 L 963 774 L 960 774 C 969 755 977 791 986 758 C 986 763 992 759 992 765 C 1000 769 996 759 1000 761 C 999 765 1004 767 1007 765 C 1007 764 1007 761 1009 761 C 1011 760 1009 763 1010 763 C 1012 761 1014 762 1014 760 C 1018 762 1020 758 1025 755 Z"/>
            <path id="RO-90" fill="#777777" stroke="#231f20" stroke-width="0.4" stroke-linejoin="round" d="M 1254 641 C 1252 662 1240 707 1240 711 L 1239 712 C 1239 709 1236 715 1239 712 C 1239 713 1237 713 1238 714 C 1237 715 1235 714 1236 715 L 1234 716 L 1242 713 L 1235 716 C 1234 724 1240 734 1244 734 L 1246 738 L 1247 739 L 1248 739 L 1247 739 C 1248 744 1265 752 1251 744 C 1250 741 1248 743 1248 741 L 1247 740 C 1246 741 1248 741 1246 741 L 1247 741 L 1247 742 C 1246 743 1249 742 1247 742 C 1247 743 1249 742 1247 743 L 1248 743 L 1247 744 C 1250 743 1248 744 1248 745 L 1249 744 L 1249 743 L 1250 743 C 1251 744 1249 744 1248 745 L 1249 746 L 1249 750 C 1251 752 1246 753 1249 753 L 1251 754 L 1251 751 C 1251 750 1252 753 1252 751 C 1252 748 1253 753 1254 752 C 1253 749 1254 753 1254 752 C 1253 750 1255 752 1254 752 L 1256 752 L 1256 750 C 1259 754 1248 753 1252 758 C 1254 762 1261 766 1260 775 C 1260 782 1259 790 1262 795 L 1262 797 L 1261 797 L 1261 800 L 1262 802 C 1262 804 1263 804 1264 804 C 1263 804 1262 802 1261 804 L 1261 806 C 1262 807 1263 806 1263 805 C 1265 834 1183 838 1173 803 C 1145 828 1141 799 1107 823 C 1083 812 1075 809 1106 801 C 1147 759 1198 736 1133 687 C 1127 689 1116 685 1118 676 C 1125 667 1140 677 1139 662 C 1156 652 1152 670 1159 661 C 1166 657 1161 670 1176 668 C 1177 672 1184 668 1186 669 C 1186 680 1195 660 1198 671 C 1204 662 1219 658 1224 650 C 1226 651 1227 655 1229 651 C 1230 651 1232 660 1235 656 C 1241 663 1241 635 1254 641 Z"/>
            <path id="RO-82" fill="#777777" stroke="#231f20" stroke-width="0.4" stroke-linejoin="round" d="M 1170 667 C 1162 670 1166 655 1158 662 C 1153 669 1156 653 1139 662 C 1137 649 1141 638 1134 628 C 1132 619 1124 611 1132 607 C 1130 599 1126 599 1116 597 C 1118 593 1118 582 1114 586 C 1091 598 1089 544 1114 555 C 1105 527 1146 576 1167 566 C 1176 564 1206 561 1187 552 C 1189 548 1196 546 1188 543 C 1193 535 1204 547 1211 543 C 1207 528 1230 511 1242 502 C 1263 484 1293 499 1302 522 C 1290 520 1297 535 1305 528 L 1302 530 C 1304 529 1303 530 1303 531 C 1304 529 1305 527 1308 527 C 1295 543 1327 590 1312 588 C 1294 603 1261 610 1255 638 C 1241 640 1241 659 1236 656 C 1232 658 1231 653 1228 651 C 1228 655 1226 650 1224 650 C 1223 658 1205 659 1204 667 C 1197 673 1196 664 1193 668 C 1192 670 1183 677 1186 668 C 1179 671 1176 668 1170 667 Z"/>
            <path id="RO-81" fill="#777777" stroke="#231f20" stroke-width="0.4" stroke-linejoin="round" d="M 1034 575 C 1036 565 1043 574 1045 571 C 1044 569 1047 568 1047 566 C 1048 567 1047 571 1050 568 C 1054 563 1049 572 1053 570 C 1056 566 1055 571 1056 571 C 1059 567 1058 574 1060 569 C 1059 581 1065 568 1067 574 C 1076 574 1076 573 1077 568 C 1113 558 1085 594 1114 586 C 1121 587 1113 601 1132 601 C 1130 609 1124 612 1133 620 C 1131 630 1143 642 1138 654 C 1142 674 1130 667 1118 677 C 1104 678 1082 689 1072 691 C 1059 698 1048 687 1047 707 C 1025 700 1043 698 1032 688 C 1041 687 1030 674 1034 675 C 1032 673 1028 673 1035 672 C 1036 668 1033 664 1029 666 C 1028 660 1026 661 1021 662 C 1020 656 1006 636 1003 647 C 993 650 1003 628 1007 629 C 1012 633 1030 625 1025 622 C 1026 617 1022 622 1026 616 C 1028 616 1027 614 1026 613 C 1031 610 1023 606 1025 603 C 1028 601 1026 600 1025 599 C 1029 596 1029 593 1026 590 C 1033 587 1029 580 1034 575 Z"/>
            <path id="RO-80" fill="#777777" stroke="#231f20" stroke-width="0.4" stroke-linejoin="round" d="M 1035 446 C 1036 445 1038 446 1040 447 C 1043 442 1043 448 1046 450 C 1050 449 1057 443 1062 443 C 1062 444 1060 447 1062 448 C 1063 450 1060 449 1061 452 C 1064 452 1060 454 1064 454 C 1062 459 1066 462 1067 466 C 1067 467 1069 465 1068 467 C 1074 471 1073 481 1078 482 C 1077 485 1076 491 1080 493 C 1081 501 1087 494 1087 499 C 1086 502 1090 502 1091 505 C 1093 507 1092 510 1095 513 C 1095 515 1094 518 1097 518 C 1098 519 1094 521 1097 522 C 1091 525 1085 526 1095 532 C 1097 533 1097 530 1098 531 C 1099 535 1099 528 1100 532 C 1099 533 1104 535 1104 538 C 1102 539 1105 539 1104 541 C 1103 541 1106 541 1106 543 C 1109 545 1111 547 1113 545 C 1108 547 1114 552 1113 556 C 1100 549 1097 565 1090 568 C 1084 566 1072 570 1077 572 C 1074 574 1068 576 1066 572 C 1063 572 1061 578 1060 571 C 1061 569 1060 568 1059 571 C 1058 573 1059 567 1056 571 C 1055 569 1056 568 1051 570 C 1055 561 1048 572 1048 567 C 1048 563 1045 571 1045 572 C 1043 573 1038 568 1036 571 C 1035 573 1033 571 1033 570 C 1033 570 1033 572 1031 571 C 1031 569 1034 568 1030 567 C 1029 561 1022 561 1027 556 C 1024 556 1024 555 1023 554 C 1023 552 1020 555 1022 553 C 1024 548 1015 551 1013 548 C 1012 543 1010 547 1005 546 C 1004 543 1000 542 998 539 C 994 527 994 537 993 531 C 990 532 991 526 988 528 C 988 527 990 526 988 526 C 984 526 986 521 982 521 C 982 520 977 521 978 519 C 982 513 968 507 966 501 C 963 481 987 479 982 475 C 977 465 986 474 989 467 C 999 469 992 485 1006 484 C 1014 479 995 460 1000 460 C 1007 462 1011 457 1019 457 C 1026 463 1026 456 1029 453 C 1029 449 1027 447 1030 445 C 1031 449 1032 450 1035 446 Z"/>
            <path id="RO-73" fill="#777777" stroke="#231f20" stroke-width="0.4" stroke-linejoin="round" d="M 951 323 C 951 312 968 332 973 330 C 971 327 967 321 973 323 C 979 330 988 334 997 333 C 996 332 990 329 994 328 C 998 326 1001 329 1005 327 C 1007 325 1016 321 1014 323 C 1017 326 1017 328 1021 328 L 1022 329 C 1023 329 1024 332 1024 330 C 1023 329 1028 331 1024 332 L 1027 332 C 1027 334 1029 334 1027 334 C 1026 336 1030 336 1029 336 C 1028 339 1032 336 1030 339 C 1031 340 1033 338 1033 340 C 1034 340 1035 341 1034 343 C 1035 342 1037 343 1035 344 C 1036 346 1036 343 1037 343 C 1038 346 1038 346 1039 344 L 1043 351 C 1042 354 1044 352 1045 354 L 1044 360 C 1048 360 1042 361 1044 363 C 1046 365 1047 364 1046 367 L 1047 370 C 1049 370 1048 372 1047 371 C 1049 373 1046 374 1048 375 C 1048 373 1050 376 1051 377 C 1051 379 1051 378 1053 377 L 1054 379 L 1054 380 C 1058 378 1053 381 1054 383 C 1058 381 1057 385 1057 387 C 1054 388 1055 389 1057 390 L 1056 391 C 1058 390 1058 393 1056 392 C 1053 391 1057 395 1055 395 C 1052 400 1057 395 1055 398 C 1057 399 1056 400 1054 399 L 1054 401 C 1056 403 1056 400 1056 403 C 1057 404 1055 402 1055 404 C 1055 405 1057 403 1056 405 C 1055 405 1056 405 1056 405 C 1058 403 1060 407 1057 409 C 1055 410 1060 411 1057 411 C 1058 413 1056 412 1057 411 C 1055 409 1057 415 1056 412 C 1052 412 1055 412 1055 414 C 1053 415 1054 414 1054 413 C 1052 414 1054 416 1054 417 C 1051 420 1058 417 1055 420 C 1054 419 1054 423 1053 422 C 1054 424 1052 421 1052 422 L 1055 429 C 1056 424 1056 429 1057 430 L 1059 430 C 1060 431 1058 430 1058 431 C 1060 431 1061 432 1059 432 C 1062 434 1059 435 1061 438 C 1065 444 1049 448 1045 450 C 1043 443 1040 448 1035 445 C 1032 449 1031 450 1030 445 C 1027 448 1029 451 1028 455 C 1024 459 1025 461 1018 457 C 1010 458 1006 463 999 460 C 999 464 1002 468 1007 472 L 1007 483 C 1004 487 994 480 997 476 C 978 454 969 414 934 395 C 942 374 914 382 917 373 C 914 354 899 359 919 353 C 925 355 923 349 929 346 L 943 346 C 940 341 951 344 944 338 C 948 340 954 339 957 333 C 956 329 950 330 951 323 Z"/>
            <path id="RO-72" fill="#777777" stroke="#231f20" stroke-width="0.4" stroke-linejoin="round" d="M 605 305 C 645 290 599 263 679 240 C 694 233 710 213 725 225 C 727 225 730 223 730 226 C 733 224 734 227 734 229 C 740 233 734 224 744 228 C 746 233 752 229 750 233 C 751 234 752 235 753 234 C 752 236 754 237 756 239 C 762 243 768 240 766 246 C 767 246 769 249 770 248 C 770 247 770 248 770 248 L 771 248 C 773 248 772 249 774 247 L 778 251 C 776 252 779 252 780 252 C 780 253 779 254 781 254 C 780 255 783 256 784 255 C 784 258 787 255 789 256 C 788 258 790 260 792 261 L 792 266 C 795 266 796 269 799 272 C 799 274 803 270 803 274 C 794 280 801 278 804 281 C 805 285 805 285 809 283 C 810 280 814 283 815 279 C 818 285 817 290 816 294 C 820 292 823 299 816 300 C 813 304 795 293 799 302 C 802 310 806 308 812 311 C 813 313 812 318 809 319 C 813 324 800 316 799 315 C 790 307 783 323 778 326 C 778 330 771 326 766 329 C 761 333 755 337 748 338 C 736 350 738 340 725 340 C 712 341 733 347 731 352 C 732 358 726 356 723 359 C 720 365 726 383 717 383 C 712 397 702 376 692 386 C 694 399 680 388 675 397 C 675 403 668 394 664 395 C 661 399 654 402 650 396 C 650 394 649 390 647 389 C 640 387 651 376 641 376 C 636 372 650 367 633 357 C 621 352 642 350 631 344 C 639 335 627 340 624 332 C 619 324 604 330 622 315 C 620 308 606 312 605 305 Z"/>
            <path id="RO-71" fill="#777777" stroke="#231f20" stroke-width="0.4" stroke-linejoin="round" d="M 887 231 C 881 233 879 240 874 239 C 872 241 874 241 874 239 C 876 264 850 233 858 264 C 858 277 852 261 846 263 C 840 266 832 268 826 269 C 814 263 823 276 815 275 L 816 277 C 815 280 806 285 805 284 C 805 277 792 281 803 274 C 803 270 799 274 799 272 L 792 265 L 792 261 L 788 257 C 792 255 778 257 780 252 L 773 247 C 773 249 772 248 771 248 L 770 248 C 760 246 772 242 762 242 C 756 240 752 233 751 234 L 751 232 L 747 230 C 746 232 741 226 738 226 C 738 227 737 232 735 229 C 730 228 738 227 729 224 C 727 227 725 223 721 222 C 717 223 713 220 712 220 C 736 219 730 184 735 174 C 737 175 736 169 738 171 C 737 174 739 172 740 172 C 744 168 746 163 752 163 C 752 162 756 162 755 160 C 754 158 760 162 756 158 L 757 155 C 765 155 758 152 762 153 C 761 148 764 153 765 149 C 766 153 766 151 769 149 C 767 146 777 151 780 146 C 783 141 798 155 798 152 C 794 147 804 148 801 154 C 806 155 811 153 804 156 C 807 164 813 152 813 157 C 816 158 820 171 828 169 C 829 169 825 175 829 173 C 833 167 830 179 836 173 C 836 178 836 178 841 181 C 836 186 862 197 853 198 C 852 203 858 197 856 201 C 855 203 860 202 860 205 C 862 203 861 207 863 207 C 865 203 864 211 866 208 C 868 206 863 212 868 212 C 868 214 864 212 864 212 C 861 217 870 216 868 219 C 868 220 871 218 871 220 C 871 221 871 223 873 222 L 877 226 L 882 227 L 887 231 Z"/>
            <path id="RO-70" fill="#777777" stroke="#231f20" stroke-width="0.4" stroke-linejoin="round" d="M 886 231 C 888 230 893 229 891 232 C 894 234 891 235 895 235 C 894 236 895 237 897 237 L 896 238 C 898 238 898 240 899 238 C 899 239 900 244 903 244 C 906 241 905 248 907 242 C 907 246 907 243 909 243 C 912 243 908 242 909 241 L 915 244 C 917 246 912 250 917 251 C 917 248 918 253 919 252 L 920 252 C 921 254 919 254 919 255 C 920 261 923 256 921 259 L 923 259 C 923 259 923 257 924 258 C 926 260 923 262 926 261 C 926 262 927 264 927 262 C 928 263 926 265 925 265 C 922 267 927 264 926 266 C 927 268 927 261 928 266 C 930 265 929 264 931 267 C 932 264 932 270 933 267 C 932 264 937 268 937 265 L 938 268 C 941 267 939 265 943 265 L 948 270 C 951 272 946 272 949 273 C 952 271 948 275 951 274 C 951 273 955 275 954 276 C 954 277 954 278 955 277 C 956 275 955 281 957 280 C 959 277 958 282 959 283 C 963 283 959 285 958 287 C 961 286 961 287 958 288 C 960 289 964 286 964 287 C 965 286 968 286 967 288 C 966 286 964 289 965 290 L 970 291 C 969 289 973 289 971 290 L 976 294 C 977 292 979 295 981 294 L 982 294 C 987 294 981 295 983 296 C 985 296 984 295 985 297 C 987 295 989 298 992 297 C 994 297 994 294 996 297 C 995 295 998 297 997 297 C 993 296 996 299 996 299 C 998 300 1002 300 1004 302 C 1002 304 1005 305 1005 306 L 1006 306 L 1006 308 C 1007 310 1006 308 1005 309 C 1009 309 1008 308 1010 311 C 1010 313 1006 314 1008 315 C 1008 317 1012 313 1012 316 C 1015 317 1011 318 1011 319 C 1013 318 1013 320 1015 320 L 1015 321 C 1018 321 1012 323 1011 324 C 1005 328 1000 327 994 328 C 988 328 1003 337 994 333 C 985 336 962 312 972 329 C 969 333 956 317 951 320 C 947 329 963 331 955 336 C 952 338 950 341 946 338 C 940 336 951 343 943 343 C 941 343 942 344 942 345 C 942 347 938 345 936 347 L 928 347 C 923 348 925 356 921 353 C 916 352 913 358 909 355 C 907 349 894 350 896 345 C 899 345 900 339 900 336 C 908 339 907 329 898 331 C 896 322 887 323 881 328 C 880 331 882 339 877 337 C 868 324 875 347 856 345 C 851 335 835 336 833 344 C 829 343 832 338 828 337 C 828 334 825 329 822 327 C 819 324 812 323 810 320 C 807 318 812 320 812 317 C 810 314 815 314 813 312 C 807 307 803 310 798 301 C 800 294 811 304 816 300 C 822 299 821 292 816 294 C 814 292 816 292 817 290 C 817 287 815 286 817 283 C 812 277 816 276 819 273 C 813 264 840 271 845 264 C 855 261 853 277 860 264 C 844 238 881 260 874 240 C 874 242 872 240 874 239 C 879 240 881 232 886 231 Z"/>
            <path id="RO-62" fill="#777777" stroke="#231f20" stroke-width="0.4" stroke-linejoin="round" d="M 958 467 C 955 463 963 467 963 463 C 966 466 969 470 973 467 C 970 463 974 458 979 461 C 1002 476 971 464 983 476 C 982 481 968 480 969 488 C 969 495 960 499 971 506 C 971 510 984 515 978 519 C 979 520 982 522 984 521 C 987 527 991 528 993 534 C 997 531 996 537 998 539 C 1000 542 1004 543 1005 546 C 1013 545 1011 546 1015 549 C 1016 551 1025 549 1021 554 C 1022 554 1024 552 1024 555 C 1031 559 1020 555 1029 566 C 1031 569 1033 567 1031 571 C 1040 569 1029 577 1032 582 C 1031 591 1008 614 1006 593 C 1008 591 1004 587 1002 592 C 1003 597 999 593 996 594 C 992 605 987 595 984 593 C 980 608 969 589 964 589 C 955 592 950 598 942 594 C 934 594 925 593 920 586 C 915 590 909 591 905 588 C 898 582 890 578 887 569 C 884 570 878 568 878 565 C 874 555 866 523 880 525 C 896 524 895 499 912 506 C 919 505 921 499 928 502 C 926 490 933 491 943 492 C 943 486 942 487 949 487 C 949 477 942 487 949 472 C 952 475 952 472 952 470 C 954 469 960 471 958 467 Z"/>
            <path id="RO-61" fill="#777777" stroke="#231f20" stroke-width="0.4" stroke-linejoin="round" d="M 784 320 C 792 306 801 318 811 322 C 817 324 824 327 827 333 C 826 336 829 336 830 339 C 830 340 831 344 833 344 C 835 336 851 335 856 345 C 864 345 873 340 872 332 C 887 347 874 325 887 325 C 893 324 896 324 898 331 C 906 329 909 339 900 336 C 894 357 892 340 906 353 C 911 359 919 368 915 375 C 913 377 913 386 911 380 C 909 379 907 382 905 378 C 904 378 904 380 902 379 C 900 383 899 381 897 381 C 893 381 889 390 887 385 C 884 380 883 387 881 381 C 877 367 872 390 874 395 C 871 405 864 387 863 393 C 860 399 855 391 857 402 C 851 416 845 413 836 421 C 825 429 824 438 813 423 C 808 429 811 434 804 439 C 801 431 795 445 793 436 C 791 430 788 433 782 435 C 781 438 776 436 773 438 C 765 441 782 447 770 448 C 753 439 763 439 755 427 C 756 420 751 422 748 420 C 749 415 744 413 748 406 C 746 403 750 406 751 404 C 753 401 748 398 753 399 C 754 397 750 396 750 395 C 746 395 747 399 745 398 C 741 384 719 385 721 377 C 723 370 721 365 723 358 C 741 355 725 346 721 341 C 729 336 734 346 741 344 C 742 339 749 336 755 337 C 761 332 766 331 770 327 C 773 327 779 331 778 324 C 780 325 784 323 784 320 Z"/>
            <path id="RO-60" fill="#777777" stroke="#231f20" stroke-width="0.4" stroke-linejoin="round" d="M 863 393 C 886 409 865 374 880 378 C 880 382 883 385 884 383 C 887 381 887 389 890 386 C 893 379 903 382 904 378 C 907 382 909 379 911 379 C 913 386 912 377 915 375 C 932 379 935 382 935 395 C 959 410 972 434 984 457 C 988 455 987 463 986 465 C 981 463 978 458 973 461 C 972 468 975 468 967 468 C 965 465 964 461 961 465 C 954 465 964 470 952 470 C 952 473 951 473 948 473 C 947 481 943 478 948 484 C 952 486 945 488 942 487 C 942 489 945 490 943 492 C 937 492 930 489 927 495 C 933 506 919 498 917 505 C 910 508 901 502 898 510 C 893 512 891 519 888 524 C 878 526 870 529 867 517 C 851 526 854 493 839 498 C 835 495 843 476 832 485 C 833 489 829 493 825 492 C 821 491 822 479 822 476 C 814 478 792 486 799 473 C 794 466 810 465 791 453 C 790 451 789 445 782 438 C 781 433 789 435 791 431 L 795 439 C 816 440 806 414 820 431 C 831 435 837 409 849 417 C 850 409 861 404 856 396 C 857 394 864 396 863 393 Z"/>
            <path id="RO-55" fill="#777777" stroke="#231f20" stroke-width="0.4" stroke-linejoin="round" d="M 627 569 C 630 568 635 566 636 569 C 637 565 642 566 642 564 C 651 567 648 559 654 556 C 673 597 653 592 690 578 C 698 583 698 580 693 588 C 692 593 688 596 689 601 C 684 603 683 604 682 610 C 677 613 674 611 680 620 C 710 629 655 624 687 654 C 701 674 676 678 664 683 C 646 684 647 702 632 704 C 628 710 621 706 616 708 C 600 710 588 718 579 730 C 578 726 575 722 573 719 C 570 717 568 716 569 713 L 569 712 C 570 711 573 709 570 708 C 566 706 572 704 566 700 C 563 699 557 699 562 696 C 558 695 559 692 560 690 C 562 685 570 679 561 679 C 556 667 576 675 566 654 C 563 651 578 647 577 640 C 570 630 579 618 589 627 C 591 633 594 620 594 620 C 591 611 598 602 605 597 C 612 592 600 593 603 585 C 603 575 621 575 627 569 Z"/>
            <path id="RO-54" fill="#777777" stroke="#231f20" stroke-width="0.4" stroke-linejoin="round" d="M 652 398 C 674 392 685 410 689 431 C 690 445 711 457 698 474 C 697 487 666 511 684 508 C 683 511 683 516 680 518 C 674 522 680 524 684 527 C 683 535 661 528 671 538 C 672 542 678 539 674 545 C 676 549 680 546 684 548 C 685 550 686 552 688 551 C 693 551 692 555 695 549 C 703 545 713 553 718 558 C 715 565 714 561 708 563 C 707 566 704 567 701 566 C 699 571 695 574 697 580 C 691 582 687 573 682 580 C 678 584 674 584 670 589 C 659 591 658 547 650 559 C 651 566 644 562 642 565 C 640 566 637 567 636 569 C 635 570 636 568 635 568 C 623 568 609 582 600 576 C 594 575 592 572 588 568 C 572 575 571 562 571 551 C 567 550 570 555 568 557 C 563 558 563 548 559 544 C 561 537 568 534 567 526 C 549 522 572 517 567 508 C 567 505 553 506 562 499 C 564 496 572 491 569 488 C 577 488 585 494 591 489 C 595 491 596 483 599 483 C 607 487 599 474 600 472 C 610 467 602 461 605 457 C 608 456 608 449 612 446 C 616 449 617 453 622 451 C 629 452 623 443 623 437 C 624 414 638 410 652 398 Z"/>
            <path id="RO-53" fill="#777777" stroke="#231f20" stroke-width="0.4" stroke-linejoin="round" d="M 674 400 C 678 391 684 394 692 392 C 691 375 708 390 715 388 C 723 374 740 389 745 398 C 747 397 748 393 752 397 C 755 399 751 398 750 399 C 753 403 750 404 747 405 C 749 409 742 414 748 416 C 747 423 750 419 754 422 C 761 432 754 441 767 446 C 787 453 759 436 781 437 L 802 466 C 798 468 794 469 799 473 C 799 474 795 480 799 480 C 805 484 822 471 821 480 C 824 481 820 494 826 492 C 829 492 833 489 832 485 C 842 476 835 495 839 498 C 844 510 834 506 833 518 C 829 516 826 519 824 522 C 815 520 822 528 816 530 C 808 530 802 542 794 533 C 789 530 786 525 780 522 C 777 520 778 514 772 516 C 768 525 760 533 756 540 C 758 543 757 556 753 552 C 743 554 744 554 737 548 C 722 550 737 561 716 555 C 708 552 700 542 694 552 C 691 555 690 548 686 552 C 684 545 677 549 674 545 C 679 539 661 535 672 532 C 699 528 668 526 681 517 C 692 494 671 522 680 504 C 689 486 714 463 694 444 C 687 433 685 413 674 400 Z"/>
            <path id="RO-52" fill="#777777" stroke="#231f20" stroke-width="0.4" stroke-linejoin="round" d="M 774 516 C 779 515 776 521 781 522 L 795 533 C 800 539 804 536 808 532 C 811 530 819 532 819 527 C 817 521 821 522 824 521 C 826 519 830 516 834 518 C 833 508 845 509 839 499 C 856 492 850 527 867 517 C 870 523 873 528 875 535 C 867 556 890 579 882 605 C 854 605 880 617 862 628 C 863 608 838 615 840 607 C 836 600 826 607 821 603 L 813 599 C 810 602 806 598 804 600 C 798 606 801 603 796 599 C 796 601 795 599 795 598 L 794 598 C 789 598 791 594 788 596 C 783 598 781 592 780 590 C 778 589 788 587 782 585 C 779 586 775 587 778 583 C 777 581 773 581 774 578 C 768 573 776 568 773 564 C 765 557 766 568 756 561 C 751 555 760 548 756 541 C 761 533 768 522 774 516 Z"/>
            <path id="RO-51" fill="#777777" stroke="#231f20" stroke-width="0.4" stroke-linejoin="round" d="M 415 576 C 436 587 442 563 455 581 C 456 592 463 577 467 575 C 483 578 488 550 503 564 C 506 565 512 566 515 562 C 528 556 511 584 531 573 C 534 571 526 572 528 570 C 534 571 527 568 530 566 C 531 563 538 561 542 560 C 546 554 548 562 552 559 C 557 552 571 561 569 552 C 577 550 563 575 586 569 C 590 565 593 578 607 578 C 597 589 610 590 605 597 C 591 604 596 618 591 627 C 594 632 578 614 573 633 C 582 637 573 650 564 652 C 568 656 567 660 569 666 C 569 670 562 669 560 675 C 557 680 564 678 565 681 C 566 683 554 693 562 696 C 556 700 568 699 568 703 C 567 709 575 707 569 713 C 568 717 574 718 576 724 C 584 730 571 737 571 729 C 564 725 557 717 549 719 C 542 720 546 711 540 713 C 541 697 529 707 532 693 C 522 687 522 677 515 669 C 509 667 499 659 498 652 C 494 653 493 655 488 653 C 480 658 481 646 476 642 C 474 639 474 638 478 638 C 477 629 470 628 464 629 C 453 630 454 605 443 614 C 437 617 425 616 420 613 C 414 608 410 594 411 587 C 412 585 416 583 412 583 C 406 584 412 571 415 576 Z"/>
            <path id="RO-50" fill="#777777" stroke="#231f20" stroke-width="0.4" stroke-linejoin="round" d="M 723 556 C 734 561 724 547 738 549 C 742 551 742 555 750 553 C 753 550 754 554 755 556 C 753 562 760 561 763 565 C 766 560 770 560 773 564 C 777 563 770 571 772 574 C 773 578 775 580 778 583 C 775 588 780 585 782 585 C 788 587 778 589 781 589 C 780 593 784 598 788 596 C 790 594 790 598 794 598 L 795 598 L 795 600 C 796 598 798 600 798 601 C 802 608 802 599 806 599 C 808 603 814 596 815 600 C 823 606 844 600 840 611 C 848 611 863 613 862 628 C 858 645 838 620 841 652 C 823 642 828 655 818 648 C 809 651 805 662 796 659 C 785 669 793 676 783 679 C 776 685 778 673 772 676 C 772 676 769 678 770 676 C 771 671 763 670 764 664 C 759 660 752 663 746 657 C 728 656 706 670 691 666 C 685 637 664 646 689 622 C 678 619 672 615 682 609 C 686 601 690 599 693 589 C 697 583 696 571 702 566 C 708 567 710 560 716 562 C 716 559 718 553 723 556 Z"/>
            <path id="RO-45" fill="#777777" stroke="#231f20" stroke-width="0.4" stroke-linejoin="round" d="M 419 416 C 430 413 444 421 459 417 C 461 419 466 414 469 416 C 473 412 479 407 483 414 C 488 412 486 417 491 417 C 492 416 490 415 493 414 C 499 410 504 410 500 418 C 497 421 507 428 502 427 C 495 420 484 438 485 446 C 483 449 474 444 477 451 C 474 453 468 455 473 458 L 474 459 C 477 461 471 461 472 463 C 477 465 469 465 470 466 C 463 469 482 469 475 482 C 475 484 466 485 471 486 L 468 489 C 469 490 469 490 467 490 C 471 493 468 495 468 498 C 466 503 462 503 459 503 C 450 492 448 498 454 508 C 451 515 454 511 447 514 C 447 518 442 519 438 518 C 439 516 441 513 437 512 C 433 509 435 521 432 513 C 429 517 431 515 428 513 C 422 518 420 510 415 511 C 413 496 403 504 391 506 C 387 493 372 504 366 494 C 369 491 362 487 359 485 C 351 483 361 469 356 460 C 363 455 364 447 369 440 C 377 436 380 437 384 432 C 388 434 395 429 393 435 L 396 435 C 400 444 405 433 411 436 C 418 427 409 422 419 416 Z"/>
            <path id="RO-44" fill="#777777" stroke="#231f20" stroke-width="0.4" stroke-linejoin="round" d="M 360 346 C 361 343 361 341 364 340 C 374 338 354 327 366 330 C 376 330 371 329 380 326 C 382 323 381 319 380 316 C 379 314 383 312 380 311 C 383 310 383 301 386 305 C 391 310 398 299 400 309 C 399 313 406 312 407 312 C 406 316 410 314 413 315 C 423 318 463 322 445 337 C 447 344 436 347 435 353 C 429 352 421 356 414 354 C 411 354 411 363 412 365 C 413 371 418 363 419 367 C 422 368 424 365 426 367 C 429 367 427 370 431 369 C 431 372 427 378 423 379 C 429 400 422 397 406 388 C 400 397 402 407 402 415 C 389 414 397 433 406 422 C 420 418 413 439 404 437 C 401 443 397 434 394 436 C 393 435 395 432 393 432 C 388 434 382 430 381 437 C 370 431 365 457 357 451 C 352 447 345 439 338 445 C 336 447 335 446 333 445 C 328 450 325 445 323 440 C 325 435 319 438 316 437 C 316 431 311 432 309 428 C 296 425 297 405 307 396 C 305 390 314 395 318 393 C 321 391 316 375 326 381 C 343 391 344 370 354 364 C 345 354 358 356 360 346 Z"/>
            <path id="RO-43" fill="#777777" stroke="#231f20" stroke-width="0.4" stroke-linejoin="round" d="M 430 319 C 428 316 431 312 430 308 C 436 311 442 306 447 309 C 455 303 464 301 470 310 C 478 310 482 295 490 302 C 494 297 498 305 502 304 C 507 302 510 301 515 303 C 520 298 525 297 530 293 C 529 289 532 286 534 284 C 542 288 548 274 554 281 C 560 278 564 290 568 293 C 572 295 574 293 577 295 C 577 292 580 293 581 295 C 587 292 590 302 596 304 C 595 308 630 309 619 317 C 614 323 609 330 602 329 C 597 330 588 346 580 342 C 561 351 549 338 540 360 C 542 370 533 368 527 373 C 522 376 530 391 522 397 C 520 401 514 402 509 405 C 507 408 501 401 501 407 C 498 410 505 412 498 411 C 496 412 490 414 491 417 C 486 418 488 413 484 413 C 482 415 480 409 477 410 C 462 423 444 415 427 416 C 419 409 398 439 394 417 C 406 416 400 410 401 400 C 403 378 421 404 426 391 C 421 383 424 378 431 372 C 431 370 432 367 429 370 C 427 364 423 368 419 366 C 410 368 410 363 413 355 L 435 353 L 443 343 C 446 341 443 335 447 333 C 458 329 436 319 430 319 Z"/>
            <path id="RO-42" fill="#777777" stroke="#231f20" stroke-width="0.4" stroke-linejoin="round" d="M 613 326 C 617 326 620 329 623 329 C 623 331 622 332 624 332 C 627 339 636 335 633 341 C 630 342 639 353 630 350 C 625 352 635 361 637 358 C 649 372 632 372 646 378 C 643 389 647 386 650 395 C 656 408 630 404 627 419 C 627 428 619 442 627 447 C 624 454 617 453 613 447 C 612 445 606 450 609 453 C 596 462 613 462 600 472 C 602 477 605 485 598 483 C 595 489 591 489 585 491 C 564 487 571 491 568 473 C 574 470 568 472 567 469 C 564 469 564 466 562 466 C 560 469 559 465 557 466 C 556 463 559 462 553 464 C 545 458 554 435 539 438 C 533 441 534 432 530 431 C 527 436 528 430 522 434 C 500 403 528 420 521 400 C 532 387 518 373 534 369 C 538 370 541 364 540 360 C 549 338 561 351 580 342 C 594 344 598 326 613 326 Z"/>
            <path id="RO-41" fill="#777777" stroke="#231f20" stroke-width="0.4" stroke-linejoin="round" d="M 285 444 C 285 439 293 441 287 438 C 290 434 293 432 294 427 C 306 423 301 423 310 429 C 311 434 317 430 316 437 C 324 436 322 439 325 443 C 328 455 341 437 346 444 C 351 446 369 455 356 460 C 361 469 351 482 359 486 C 366 488 366 493 368 497 C 384 502 393 494 389 518 C 402 518 408 535 394 542 C 399 555 421 553 401 567 C 405 571 407 563 411 564 C 420 566 419 569 424 576 C 424 578 416 577 414 575 C 411 575 407 585 413 583 C 404 601 434 614 398 614 C 395 622 379 618 376 608 C 371 607 361 608 359 611 C 341 593 354 595 330 591 C 327 590 326 600 316 598 C 305 580 313 598 283 600 C 282 605 279 605 275 605 C 276 608 273 611 271 608 C 269 612 269 606 267 607 C 262 610 258 607 257 602 C 266 604 272 591 260 589 C 262 584 261 578 262 573 C 278 564 257 561 273 551 C 273 540 262 540 270 533 C 271 530 271 521 279 521 L 278 519 C 275 512 285 507 281 500 C 276 498 284 490 281 488 C 280 457 300 481 285 444 Z"/>
            <path id="RO-40" fill="#777777" stroke="#231f20" stroke-width="0.4" stroke-linejoin="round" d="M 504 404 C 509 410 527 390 520 410 C 520 415 517 410 514 412 C 512 419 517 429 522 434 C 524 432 527 433 529 433 C 527 428 534 434 534 437 C 540 438 550 436 548 447 C 547 453 550 457 552 464 C 556 464 559 461 556 466 L 564 466 C 564 470 571 470 571 472 C 568 471 569 486 569 488 C 570 492 563 498 559 502 C 560 509 571 504 567 513 C 567 517 557 519 561 525 C 563 526 567 523 567 527 C 565 539 553 544 565 556 C 557 559 527 558 530 570 C 523 572 542 573 522 575 C 518 548 520 569 503 564 C 495 556 485 562 480 573 C 460 576 469 576 456 585 C 452 562 435 585 423 578 C 422 569 419 566 411 564 C 407 563 405 571 400 566 C 422 554 398 554 394 542 C 410 532 399 520 389 516 C 386 503 406 501 413 503 C 411 510 422 517 428 513 C 432 516 429 516 432 513 C 434 518 434 514 435 511 C 439 512 440 514 438 518 C 445 520 446 514 450 513 C 458 512 447 500 452 496 C 454 497 456 502 459 503 C 461 502 463 505 465 501 C 467 502 471 491 468 491 C 467 489 470 491 468 488 C 471 484 473 486 476 480 C 475 478 477 476 477 474 C 475 474 475 473 474 471 L 470 469 C 465 466 471 466 474 465 C 473 463 471 462 475 461 C 474 459 468 454 474 453 C 480 449 474 447 484 447 C 486 442 486 429 494 430 C 494 423 499 425 504 428 C 502 422 498 418 502 413 C 501 410 498 405 504 404 Z"/>
            <path id="RO-33" fill="#777777" stroke="#231f20" stroke-width="0.4" stroke-linejoin="round" d="M 427 616 C 432 614 441 617 449 612 C 459 632 459 626 473 631 C 485 637 470 639 476 641 C 479 644 480 653 485 653 C 490 652 494 657 496 652 C 500 653 504 664 511 667 C 513 668 515 668 517 671 C 522 679 523 688 532 692 C 529 701 535 701 540 705 C 535 715 543 710 544 716 C 544 721 552 719 554 718 C 558 722 562 722 566 725 C 573 732 573 741 577 749 C 576 755 567 765 562 767 C 549 763 553 762 546 772 C 535 772 533 784 521 782 C 524 791 519 797 512 790 C 509 787 508 782 507 788 C 506 791 502 788 500 791 C 493 798 479 795 471 807 C 462 809 460 796 467 789 C 467 784 466 781 470 776 C 467 770 461 755 454 757 C 453 755 456 751 453 751 C 448 755 447 748 442 752 C 436 756 431 742 425 742 C 421 740 441 708 426 719 C 419 718 423 709 415 710 C 413 712 413 710 410 709 C 403 705 413 698 409 693 C 405 695 397 695 398 689 C 402 689 403 685 407 683 C 407 679 404 671 400 669 C 409 656 405 660 398 649 C 440 632 410 644 427 616 Z"/>
            <path id="RO-32" fill="#777777" stroke="#231f20" stroke-width="0.4" stroke-linejoin="round" d="M 418 745 C 419 745 428 738 428 744 C 433 745 438 757 442 752 C 445 752 448 748 449 753 C 450 753 453 750 454 751 C 456 753 452 759 456 755 C 470 766 472 783 462 798 C 467 805 463 806 472 807 C 471 812 457 823 470 825 C 482 819 478 833 474 839 C 471 844 470 850 466 855 C 467 859 470 854 468 862 C 471 873 472 888 461 893 C 451 901 434 884 442 905 C 429 914 450 924 444 934 C 430 929 400 934 378 937 C 371 915 350 933 337 920 C 333 912 341 912 346 909 C 362 908 360 892 341 894 C 337 895 336 891 335 890 C 332 890 326 887 330 885 C 338 883 338 879 339 871 C 333 866 351 857 337 857 C 333 852 345 836 333 831 C 330 827 309 819 326 815 C 326 813 311 808 324 803 C 328 800 330 798 329 794 C 327 770 361 798 364 778 C 372 774 361 787 373 781 C 376 789 377 788 385 786 C 389 780 382 775 384 770 C 391 771 392 752 398 759 C 418 766 403 746 418 745 Z"/>
            <path id="RO-31" fill="#777777" stroke="#231f20" stroke-width="0.4" stroke-linejoin="round" d="M 197 716 C 203 705 193 695 211 689 C 215 692 218 693 219 689 C 221 689 226 692 230 688 C 235 695 241 686 239 679 C 252 679 242 665 246 657 C 267 655 245 644 246 634 C 253 627 244 623 248 616 C 261 615 261 602 273 610 C 274 609 274 607 275 609 L 276 605 C 283 606 285 596 293 599 C 299 598 319 582 312 598 C 326 600 326 590 330 591 C 348 597 342 586 354 606 C 365 616 371 598 385 618 C 396 620 396 613 407 613 C 413 612 429 612 425 618 C 413 651 436 630 398 650 C 406 658 409 659 400 668 C 403 671 406 677 407 682 C 405 685 402 688 397 689 C 397 698 407 692 410 695 C 410 704 401 697 397 695 C 396 702 394 700 387 701 C 389 706 385 707 381 706 C 378 708 376 710 375 708 C 371 703 359 707 357 701 C 345 706 352 712 337 715 C 337 726 321 707 325 725 C 320 731 322 719 317 722 L 315 717 C 309 716 306 714 300 714 C 298 693 287 719 283 724 C 282 729 270 714 270 730 C 264 732 260 727 256 727 C 256 737 247 731 246 725 C 236 731 230 727 221 723 C 212 724 205 715 197 716 Z"/>
            <path id="RO-30" fill="#777777" stroke="#231f20" stroke-width="0.4" stroke-linejoin="round" d="M 165 727 C 177 725 167 712 185 721 C 196 728 192 706 215 724 C 238 723 215 731 246 727 C 250 732 256 737 256 727 C 259 727 273 737 270 725 C 276 718 280 727 283 725 C 281 720 289 720 289 715 C 290 708 300 700 300 713 C 304 716 309 715 315 717 L 317 722 C 322 719 320 731 325 725 C 321 707 337 726 337 715 L 344 712 C 351 715 347 703 353 704 C 355 701 359 700 359 705 C 365 705 374 704 376 710 C 378 704 390 710 387 701 C 393 700 396 702 397 695 C 414 701 404 702 413 711 C 417 708 423 711 422 717 C 429 719 437 716 427 728 C 423 731 429 737 424 741 C 423 747 420 742 419 745 C 406 746 414 755 407 761 C 400 759 393 754 392 764 C 385 770 381 772 387 781 C 385 786 382 786 377 788 C 372 788 377 782 373 781 C 367 785 366 782 367 777 C 357 798 335 771 330 791 C 328 796 331 799 325 802 C 307 811 333 813 323 816 C 308 825 354 828 334 854 C 318 847 304 862 293 844 C 293 840 288 843 289 845 C 282 851 276 845 269 844 C 261 842 260 835 254 835 C 247 835 254 827 243 827 C 226 833 247 817 237 813 C 227 809 232 795 229 782 C 231 768 221 786 216 785 C 213 779 207 779 207 773 C 200 768 195 770 193 763 C 186 771 180 756 163 754 C 164 747 153 742 148 738 C 150 737 150 736 148 737 C 148 727 158 725 165 727 Z"/>
            <path id="RO-24" fill="#777777" stroke="#231f20" stroke-width="0.4" stroke-linejoin="round" d="M 609 709 C 616 707 620 706 627 708 C 643 703 646 686 664 683 C 682 675 667 706 677 711 C 680 716 686 717 683 723 C 688 724 688 732 687 736 C 685 743 700 744 695 749 C 695 751 697 752 698 753 C 701 755 699 758 697 759 L 697 762 C 700 760 702 763 699 765 C 698 769 706 767 702 775 C 707 777 699 789 705 786 C 706 788 702 794 707 795 C 701 810 706 804 699 799 C 692 802 689 812 694 821 C 686 824 699 839 698 841 C 700 845 712 855 701 858 C 701 853 697 851 698 857 C 697 858 697 864 692 863 C 689 863 689 862 685 865 C 683 868 684 875 681 878 C 679 880 675 878 675 875 C 672 880 675 873 671 875 C 656 877 665 881 653 867 C 656 859 634 869 634 859 C 630 839 624 824 616 805 C 620 800 619 790 616 780 C 624 774 610 770 608 762 C 604 756 615 747 604 745 C 590 757 584 747 583 754 C 574 754 574 739 572 733 C 587 727 590 713 609 709 Z"/>
            <path id="RO-23" fill="#777777" stroke="#231f20" stroke-width="0.4" stroke-linejoin="round" d="M 712 794 C 717 792 718 807 725 808 C 727 821 737 813 743 815 C 743 822 747 828 752 834 C 753 836 750 839 755 840 C 759 850 760 863 768 870 C 776 863 776 876 783 878 L 781 882 C 789 893 777 903 792 909 C 804 919 776 922 784 929 C 758 943 775 942 783 956 L 790 961 C 790 973 791 964 796 966 C 801 963 797 970 796 972 L 793 976 C 796 990 767 977 760 996 C 713 1033 729 994 730 968 C 727 966 732 965 725 964 C 725 961 727 962 728 961 C 727 960 725 959 726 957 C 714 955 720 930 714 925 C 715 921 712 917 709 917 C 703 921 703 913 697 915 C 689 905 682 901 672 901 C 676 893 662 899 661 895 C 662 892 659 891 658 891 C 654 891 664 883 658 883 C 661 882 659 877 663 877 C 668 874 674 874 675 877 C 685 886 682 868 686 864 C 688 861 697 866 696 860 C 695 858 698 858 698 857 C 697 856 697 851 700 853 C 704 865 707 851 702 845 C 698 843 698 841 696 837 C 691 832 691 824 693 820 C 689 811 692 802 699 799 C 709 814 712 815 712 794 Z"/>
            <path id="RO-22" fill="#777777" stroke="#231f20" stroke-width="0.4" stroke-linejoin="round" d="M 526 977 C 528 962 490 966 488 940 C 505 943 489 914 510 925 C 526 926 517 910 506 909 C 427 878 478 994 425 935 C 430 933 432 936 434 930 C 439 934 440 932 444 934 C 450 923 429 914 442 905 C 432 879 466 911 470 879 C 466 879 472 872 470 870 C 467 863 468 857 467 855 C 473 847 474 832 481 828 C 488 832 499 831 506 838 C 509 841 517 838 514 847 C 515 852 521 860 523 865 C 524 869 529 866 528 871 C 531 874 531 868 534 871 C 537 873 540 878 546 877 C 547 876 547 878 547 879 L 552 881 C 556 881 562 882 569 879 C 580 880 593 883 598 887 C 613 896 587 900 580 904 C 588 907 580 907 580 912 C 575 914 579 922 575 923 C 572 925 574 926 578 926 C 597 926 571 941 576 954 C 587 986 575 959 567 984 C 560 994 535 974 526 977 Z"/>
            <path id="RO-21" fill="#777777" stroke="#231f20" stroke-width="0.4" stroke-linejoin="round" d="M 576 753 C 582 756 582 752 585 751 C 589 752 590 753 594 752 C 597 749 609 740 609 751 C 599 763 620 770 618 778 C 614 782 620 790 619 795 C 617 797 620 801 618 800 C 619 803 614 804 616 807 C 620 816 640 854 628 854 C 624 858 637 880 629 875 C 623 876 620 883 616 877 C 608 878 606 893 598 887 C 593 884 579 879 569 880 C 559 881 550 884 546 877 C 536 879 538 866 528 872 C 528 867 525 868 523 865 C 520 859 513 851 514 844 C 515 841 510 838 508 840 C 505 834 496 832 490 832 C 486 833 483 824 479 829 C 479 825 474 822 470 825 C 457 822 473 808 474 803 C 483 795 492 797 499 792 C 500 789 504 789 506 789 C 508 779 512 793 518 794 C 525 791 517 778 526 781 C 535 784 536 769 546 772 C 551 770 546 763 552 764 C 566 770 565 765 576 753 Z"/>
            <path id="RO-20" fill="#777777" stroke="#231f20" stroke-width="0.4" stroke-linejoin="round" d="M 695 1011 C 646 994 592 1050 562 1028 C 557 1000 592 1001 568 981 C 569 971 577 974 581 972 C 576 953 571 950 582 933 C 595 924 572 930 573 923 C 576 923 577 922 577 919 C 574 911 590 908 580 904 C 589 902 592 897 600 897 C 604 891 604 882 613 879 C 618 874 618 883 629 875 C 637 880 624 858 628 854 C 635 853 634 862 639 866 C 638 860 649 865 653 864 C 651 871 665 874 659 882 L 658 883 C 664 883 654 891 658 891 C 665 901 675 892 672 901 C 688 896 694 921 710 917 C 718 926 717 938 720 954 C 723 954 724 956 726 957 C 724 960 731 962 725 961 C 723 966 731 964 728 967 L 730 968 C 734 981 722 991 727 1005 C 738 1017 706 1005 695 1011 Z"/>
            <path id="RO-14" fill="#777777" stroke="#231f20" stroke-width="0.4" stroke-linejoin="round" d="M 837 823 C 841 824 847 821 844 827 C 850 829 851 829 851 835 C 862 835 854 843 857 852 C 866 854 876 842 878 852 C 883 857 880 844 884 852 L 884 853 L 887 853 C 887 877 892 865 898 879 C 889 871 900 889 891 879 C 893 881 885 888 891 890 C 886 896 893 906 898 911 C 933 974 907 963 846 974 C 827 961 795 1006 793 980 C 792 978 795 978 793 976 L 796 972 C 798 971 795 967 799 965 C 796 966 795 964 792 968 C 787 965 796 960 785 958 C 779 951 778 947 770 943 C 765 935 788 933 781 926 C 791 920 803 913 786 906 C 781 902 788 895 785 894 C 784 893 780 881 783 878 C 780 876 769 866 780 867 C 785 868 795 862 797 858 C 803 858 812 846 818 845 C 834 845 833 839 837 823 Z"/>
            <path id="RO-13" fill="#777777" stroke="#231f20" stroke-width="0.4" stroke-linejoin="round" d="M 792 666 C 798 669 798 679 799 683 C 815 684 810 695 816 706 C 823 704 829 717 839 718 C 843 722 844 737 847 737 C 847 734 855 736 856 737 C 858 734 864 739 866 741 C 866 744 864 754 871 753 C 873 755 874 754 875 752 C 880 752 886 759 891 762 C 887 763 884 766 891 771 C 891 758 904 775 895 777 C 900 782 906 782 898 791 C 881 796 898 792 893 801 C 888 802 873 805 871 809 C 859 801 865 816 858 813 C 857 812 855 816 854 812 C 853 813 849 827 846 828 C 843 825 847 822 840 823 C 832 820 839 836 834 834 C 833 843 823 853 825 837 C 823 832 823 824 819 821 C 815 817 808 817 808 811 C 807 811 801 809 803 807 C 811 803 805 798 800 797 C 803 784 792 771 786 761 C 785 750 788 745 776 743 C 770 737 785 739 775 729 C 770 723 761 703 777 719 C 776 720 778 720 778 720 C 779 719 782 721 782 718 C 782 714 779 712 784 710 C 782 702 783 690 780 681 C 795 676 784 673 792 666 Z"/>
            <path id="RO-12" fill="#777777" stroke="#231f20" stroke-width="0.4" stroke-linejoin="round" d="M 881 568 C 886 569 890 569 890 576 C 896 579 900 584 906 589 C 910 590 915 590 919 586 C 923 592 929 592 934 593 C 944 597 954 594 964 589 C 968 587 969 597 974 597 C 980 605 982 592 986 594 C 985 601 995 600 998 594 C 1003 597 1001 591 1005 589 C 1007 622 1033 578 1026 600 C 1026 605 1025 606 1028 612 C 1028 612 1025 613 1027 614 C 1029 616 1023 618 1023 619 C 1033 624 1015 633 1007 629 C 1003 627 994 646 1002 648 C 1007 641 1007 640 1011 649 C 1017 654 1021 653 1021 662 C 1030 659 1026 665 1034 667 C 1039 675 1026 670 1034 675 C 1031 676 1031 677 1034 676 C 1036 683 1035 686 1032 689 C 1041 690 1032 701 1036 701 C 1040 704 1027 702 1031 708 C 1045 708 1034 715 1027 714 C 1030 705 1008 703 1013 713 C 1010 713 1002 710 1000 712 C 995 708 995 722 987 719 C 986 712 974 724 968 721 C 965 725 962 714 958 713 C 954 716 953 708 949 710 C 945 709 950 705 951 703 C 956 704 944 690 941 699 C 937 692 929 687 930 681 C 927 679 931 670 922 668 C 919 675 910 679 911 667 C 907 667 897 681 895 669 C 894 664 892 663 889 660 C 895 651 869 648 864 643 C 859 641 859 627 867 626 C 871 619 866 611 870 605 C 891 614 881 582 881 568 Z"/>
            <path id="RO-11" fill="#777777" stroke="#231f20" stroke-width="0.4" stroke-linejoin="round" d="M 693 669 C 707 662 719 665 733 659 C 745 654 762 662 768 671 C 771 675 768 678 772 677 C 785 676 780 700 785 709 C 776 713 789 720 777 720 C 778 715 760 712 770 719 C 773 721 770 728 775 729 C 776 732 783 739 775 739 C 773 744 779 744 782 745 C 790 747 783 757 787 764 C 796 771 801 787 800 797 C 808 798 809 805 802 808 C 809 812 812 818 820 821 C 822 827 827 834 825 841 C 817 843 805 855 797 858 C 790 869 778 866 768 870 C 758 860 757 842 750 832 C 733 795 741 833 723 807 C 717 803 714 786 712 800 C 711 804 714 808 708 810 C 701 810 706 799 706 795 C 702 794 706 788 706 786 C 700 789 706 777 703 773 C 706 768 696 768 700 764 C 702 759 696 763 697 760 C 700 757 700 754 696 751 C 698 745 696 748 693 744 C 683 741 690 730 686 726 C 686 722 681 724 684 721 C 681 711 667 705 673 691 C 677 686 669 682 673 679 C 680 678 686 672 693 669 Z"/>
            <path id="RO-10" fill="#777777" stroke="#231f20" stroke-width="0.4" stroke-linejoin="round" d="M 812 651 C 816 649 819 648 823 651 C 827 647 833 645 836 652 C 849 655 832 623 860 636 C 863 648 878 647 887 654 C 894 655 888 659 891 663 C 895 662 895 669 896 672 C 901 677 906 668 911 667 C 910 678 919 676 922 668 C 934 671 926 686 932 686 C 938 695 938 698 947 696 C 949 698 949 702 951 698 C 954 703 950 705 948 708 C 948 714 967 711 959 720 C 956 734 946 726 942 740 C 932 737 930 743 926 751 L 917 751 C 918 754 913 751 913 752 C 911 752 913 753 912 754 C 909 755 908 751 906 754 C 911 760 905 754 903 759 C 903 761 902 760 902 759 L 899 759 C 898 761 897 763 895 761 C 894 761 894 763 892 763 C 896 765 891 767 891 771 C 888 768 886 766 888 764 L 888 763 C 889 761 889 765 889 763 C 893 763 882 756 880 754 C 877 751 877 751 873 753 C 861 756 870 740 863 738 C 860 737 858 734 856 737 C 853 735 850 735 847 736 C 844 740 843 716 835 717 C 801 703 823 689 799 683 C 789 650 790 672 812 651 Z"/>
            <path id="RO-08" fill="#777777" stroke="#231f20" stroke-width="0.4" stroke-linejoin="round" d="M 981 862 C 923 893 933 1028 892 891 C 886 889 892 881 892 879 C 896 886 894 880 895 878 C 895 876 900 882 897 876 C 897 871 886 872 887 864 C 890 854 887 854 881 849 C 883 856 876 853 877 848 C 873 845 858 859 856 848 C 857 844 856 841 858 837 L 851 835 C 850 832 852 829 848 828 C 846 826 854 811 854 812 C 855 817 857 812 858 813 C 859 814 860 814 861 812 C 863 805 866 807 871 809 C 874 804 890 804 895 799 C 896 802 897 803 901 802 C 899 808 906 819 896 810 C 895 813 896 816 897 818 C 899 821 894 826 897 826 C 901 825 899 827 903 829 C 901 832 906 828 909 833 C 912 831 914 832 916 834 C 919 833 915 830 919 832 C 924 833 928 838 933 837 C 936 838 942 841 945 838 C 947 835 948 832 951 830 C 950 829 953 824 955 825 C 960 830 967 828 970 832 C 974 830 977 832 978 835 C 976 835 976 838 978 836 C 989 843 970 852 981 862 Z"/>
            <path id="RO-07" fill="#777777" stroke="#231f20" stroke-width="0.4" stroke-linejoin="round" d="M 931 744 C 949 749 936 755 948 765 C 953 763 955 756 958 762 C 959 768 947 765 951 772 C 946 777 953 779 950 784 C 953 787 959 780 955 788 C 960 793 966 789 967 789 C 972 790 963 799 960 799 C 959 800 957 802 958 803 C 955 803 956 805 954 806 C 957 811 958 810 954 815 C 952 823 952 832 944 839 C 934 838 926 836 918 831 C 917 830 915 837 915 833 C 913 830 910 834 907 831 C 906 828 905 831 902 830 C 905 828 899 829 900 826 C 898 826 894 827 898 822 C 898 817 894 814 896 810 C 905 820 900 806 900 802 C 895 804 897 800 895 799 C 885 789 900 798 902 785 C 906 778 893 782 895 777 C 902 774 895 767 893 763 C 895 763 894 759 897 762 C 897 762 902 756 903 760 C 905 759 903 756 906 757 C 911 758 903 753 907 752 C 909 754 911 755 913 753 C 909 753 924 749 925 751 C 929 752 926 744 931 744 Z M 916 792 C 917 793 914 794 914 795 L 913 794 C 912 795 915 795 913 796 C 911 794 912 797 911 798 L 910 802 C 908 802 910 803 909 806 C 910 806 909 808 910 807 C 921 808 912 811 909 813 L 924 820 C 924 816 934 823 938 822 C 941 820 937 819 935 817 C 933 810 942 812 942 808 C 942 802 941 802 936 803 C 924 801 944 795 924 798 C 923 796 924 796 925 795 C 924 794 923 797 922 795 C 921 787 919 792 916 792 Z"/>
        </g>
    </g>
</svg>
