<?xml version="1.0" encoding="UTF-8"?>
<!-- Generated by Pixelmator Pro 3.6.10 -->
<svg width="853" height="716" viewBox="0 0 853 716" xmlns="http://www.w3.org/2000/svg">
    <g id="Landen">
        <g id="DENEMARKEN">
            <path id="DK-09" fill="#ffdd19" stroke="#231f20" stroke-width="0.4" stroke-linejoin="round" d="M 285 135 L 284 134 L 285 135 Z M 315 173 L 311 170 L 315 173 Z M 281 90 C 259 90 249 131 222 123 C 219 122 218 126 217 129 C 199 159 192 223 142 210 C 145 233 163 269 163 289 C 162 293 165 294 168 295 C 171 292 179 288 181 293 C 180 287 192 293 190 298 C 192 298 190 302 192 302 C 194 302 195 304 196 306 C 199 305 200 307 202 308 L 204 309 L 206 308 C 208 308 210 308 210 306 L 212 304 L 213 302 C 214 302 215 300 216 301 L 219 301 C 223 305 224 308 228 301 C 228 299 227 299 230 299 C 235 295 232 302 240 301 C 241 304 241 296 242 296 C 244 297 246 296 248 295 L 257 289 C 253 290 256 286 254 285 C 253 277 257 280 261 280 C 261 271 283 277 272 266 L 269 261 C 266 254 265 247 264 240 L 264 233 L 265 230 L 264 230 L 266 224 C 269 224 269 221 270 219 C 272 212 272 206 272 201 L 273 198 L 274 196 L 273 195 L 275 190 L 279 185 C 289 178 275 163 277 150 L 277 146 C 282 143 277 142 277 139 C 277 139 276 140 277 139 C 276 139 277 139 277 139 C 275 138 273 136 273 134 C 254 124 268 98 281 90 Z M 283 133 L 281 133 L 282 134 L 283 133 Z M 317 173 L 315 172 C 314 173 317 174 317 173 Z M 342 160 C 344 148 321 162 317 163 L 313 169 C 312 173 318 172 318 172 L 320 172 L 320 173 C 323 172 322 178 325 175 C 336 170 329 172 327 171 C 333 173 335 164 331 164 C 330 163 333 161 333 161 L 337 159 C 340 160 339 159 341 157 C 341 158 340 159 342 159 L 342 160 Z M 340 315 C 338 312 338 314 339 316 C 338 314 338 316 338 316 L 340 315 Z M 330 177 C 329 175 324 177 326 179 L 330 177 Z"/>
            <path id="DK-08" fill="#ffd00f" stroke="#231f20" stroke-width="0.4" stroke-linejoin="round" d="M 324 409 L 322 408 C 322 409 323 410 324 409 Z M 324 408 L 324 407 C 324 407 324 408 324 407 L 324 408 Z M 321 407 L 321 406 L 321 407 Z M 321 408 L 321 407 L 321 408 Z M 325 410 C 324 410 325 410 325 410 Z M 296 434 C 295 431 293 430 294 433 L 293 435 L 294 435 C 292 437 290 436 287 438 C 289 440 298 440 296 434 Z M 305 401 C 298 398 299 404 304 402 C 304 402 304 401 304 402 L 305 401 Z M 328 409 L 324 412 L 323 411 L 322 409 C 321 410 320 407 320 407 L 321 405 L 322 405 L 323 406 L 323 405 C 323 405 323 404 323 405 C 323 405 312 398 314 391 C 310 393 310 398 312 402 L 314 402 C 320 401 322 416 315 415 C 309 425 323 441 326 425 L 325 422 C 326 422 325 422 325 422 C 323 418 328 413 328 409 Z M 324 407 C 325 407 325 407 324 407 Z M 322 407 L 322 406 L 322 407 Z M 337 400 C 337 400 336 400 337 400 C 337 400 338 400 337 400 Z M 335 398 L 332 398 L 335 398 Z M 334 365 C 333 363 333 366 332 366 L 334 365 Z M 325 402 L 326 402 L 325 402 Z M 341 310 C 315 277 308 317 282 298 L 279 294 L 278 291 C 277 291 274 290 275 289 C 278 287 280 283 278 281 C 282 269 261 274 261 280 C 257 280 252 279 255 286 C 253 290 258 288 256 289 C 251 292 247 297 242 296 C 240 301 242 301 239 300 C 236 302 235 301 233 298 C 232 297 229 300 228 299 L 227 302 C 222 311 222 300 217 301 C 215 300 214 302 213 303 L 211 305 L 210 306 C 210 307 210 308 209 307 L 205 309 L 203 309 L 201 308 C 199 306 198 306 195 306 C 196 303 193 301 192 302 C 191 299 192 299 190 298 C 190 295 191 294 187 293 C 186 291 183 291 181 291 C 181 291 181 294 180 293 C 181 290 173 291 173 291 C 178 295 180 300 178 303 C 178 309 175 309 173 311 C 172 312 173 312 174 313 L 172 316 L 169 318 C 173 318 171 325 171 327 C 166 338 161 331 159 335 C 158 341 167 344 172 344 C 171 344 167 341 170 342 C 172 343 171 340 170 339 C 172 336 177 340 179 341 C 178 346 179 342 181 345 C 184 346 180 341 184 343 C 190 349 180 359 181 366 C 190 363 196 370 193 375 C 194 376 197 376 196 378 C 196 379 197 382 200 382 C 201 382 198 383 200 383 C 203 386 199 387 201 389 C 206 396 203 394 198 394 C 201 398 203 402 201 406 C 197 408 197 403 194 407 C 194 410 201 415 197 417 C 202 418 205 422 210 421 C 217 422 214 419 220 418 C 221 418 222 420 223 419 C 221 422 217 429 226 428 C 227 427 226 428 226 428 C 226 430 231 429 229 430 C 229 434 221 436 226 440 C 221 449 228 445 232 445 C 235 446 234 449 234 452 C 236 456 239 451 240 451 C 243 451 244 445 241 445 C 245 443 243 448 248 446 C 251 442 251 450 253 444 C 257 444 253 442 253 439 C 254 436 256 435 255 433 C 261 433 256 420 275 428 C 282 425 282 419 282 419 L 280 416 L 282 415 L 286 410 C 284 399 287 386 278 375 C 273 372 280 372 280 369 C 280 370 277 367 277 365 C 278 362 282 360 283 359 L 282 359 L 282 358 C 283 355 288 354 286 352 L 287 352 L 287 351 C 285 347 292 348 290 344 L 293 343 L 296 342 C 295 345 300 344 298 345 C 299 347 298 343 300 344 L 301 345 C 304 345 299 349 298 353 C 296 356 298 350 300 356 L 300 357 C 300 360 295 358 296 357 C 296 355 296 354 295 356 L 294 356 C 295 358 290 360 288 360 L 289 359 C 287 360 293 367 296 365 C 298 360 302 362 304 363 C 303 363 306 361 306 363 C 307 369 300 366 304 371 C 305 376 309 377 310 372 C 309 366 304 362 310 356 C 311 348 322 352 319 357 C 320 360 317 357 316 358 C 316 360 320 363 319 363 L 320 363 L 320 364 C 321 362 321 364 321 364 C 321 364 322 363 321 364 C 330 372 321 348 329 346 L 338 331 C 340 326 337 314 339 317 L 339 316 L 338 315 L 338 314 C 338 311 341 311 341 310 Z M 232 430 L 231 430 L 232 430 Z M 400 249 L 386 255 C 391 264 395 255 400 249 Z M 326 406 Z M 326 410 C 326 410 326 409 326 410 C 326 410 327 410 326 410 Z M 329 402 L 327 402 L 329 402 Z M 328 408 C 328 405 325 402 326 404 C 327 403 327 406 327 405 L 328 408 Z"/>
            <path id="DK-07" fill="#fddb00" stroke="#231f20" stroke-width="0.4" stroke-linejoin="round" d="M 232 430 L 231 430 L 232 430 Z M 230 488 L 230 487 L 230 488 Z M 273 441 C 262 440 266 432 274 428 C 270 423 256 425 259 432 C 257 435 254 431 255 435 C 252 438 256 445 253 444 C 251 450 251 442 248 447 C 245 448 245 446 244 445 L 242 445 C 243 448 243 450 240 451 C 239 452 237 455 234 452 C 234 449 235 446 232 445 C 225 446 223 448 226 439 C 221 436 231 434 228 431 C 232 428 224 430 226 427 C 225 430 220 426 220 424 C 221 423 223 421 223 419 L 220 418 C 215 419 217 422 211 421 C 205 422 202 418 197 417 C 200 414 194 410 194 407 C 197 404 197 408 202 406 C 203 401 201 399 198 394 C 210 397 198 389 201 385 C 198 383 200 382 200 382 C 197 382 196 379 197 378 C 197 375 194 376 193 375 C 197 372 190 365 187 365 C 172 367 193 347 183 343 C 181 342 182 344 182 345 C 181 345 180 345 181 343 C 176 345 181 341 178 341 C 167 332 173 344 169 342 C 176 348 157 342 159 335 C 159 330 167 338 171 327 C 171 325 173 318 169 318 L 171 317 L 172 315 C 173 313 174 313 173 311 C 174 309 178 307 178 303 C 179 285 169 297 163 293 C 165 270 146 237 143 212 C 133 207 121 231 102 220 L 102 221 L 103 221 L 102 220 L 102 221 C 102 221 102 222 102 221 C 94 235 70 269 73 294 C 70 307 65 323 69 336 C 70 349 69 355 82 358 C 80 360 86 367 89 363 C 90 359 93 364 94 363 C 98 364 100 362 103 365 L 110 372 C 107 375 110 375 112 375 C 110 370 122 381 122 378 C 127 380 121 379 122 382 C 125 382 122 384 122 384 L 122 389 C 124 389 125 394 125 392 C 126 392 130 385 134 389 L 136 389 C 138 389 136 394 139 396 C 146 392 142 399 144 399 C 151 402 153 397 157 404 C 157 405 159 409 157 409 C 156 407 156 410 154 409 C 151 411 158 412 156 414 C 154 415 152 416 155 415 C 154 415 155 415 155 415 C 160 407 166 419 163 425 C 163 432 157 429 153 430 C 154 426 148 424 151 421 C 155 421 146 416 144 417 L 140 418 C 137 415 137 419 137 422 C 138 433 156 430 146 441 L 149 443 C 142 444 140 456 145 455 C 158 458 146 465 146 473 C 149 478 149 476 154 476 C 159 479 163 478 158 474 C 155 471 171 480 167 474 C 164 470 173 462 171 468 C 177 469 174 467 175 462 C 177 461 184 464 180 464 L 179 464 C 189 465 182 475 188 472 C 190 468 192 467 194 467 C 194 470 195 468 197 468 C 201 468 200 464 200 464 C 204 464 203 462 203 465 C 202 467 205 467 205 468 C 201 469 204 473 206 472 C 226 467 214 462 224 477 C 226 476 228 481 230 482 C 227 484 227 482 228 485 L 231 486 C 231 488 232 488 233 488 L 233 487 C 233 487 234 487 233 487 L 234 487 C 233 487 234 487 234 487 C 235 488 236 486 237 484 C 247 485 244 486 243 479 L 243 478 L 245 478 L 245 477 L 246 478 L 247 475 L 248 473 C 248 470 252 468 254 465 C 251 457 259 451 267 450 C 269 450 269 451 268 449 L 267 448 L 267 447 C 262 448 269 442 273 441 Z M 160 476 Z"/>
            <path id="DK-06" fill="#fdbd10" stroke="#231f20" stroke-width="0.4" stroke-linejoin="round" d="M 137 585 L 136 585 L 137 585 Z M 124 527 C 123 528 122 522 120 521 C 122 519 121 514 118 514 C 116 517 115 515 115 513 C 116 508 111 507 109 510 L 110 509 C 109 510 106 511 107 513 C 113 515 120 538 124 527 Z M 248 529 L 249 529 C 248 534 256 529 253 526 L 253 528 L 252 528 L 252 529 C 253 529 252 528 252 529 C 254 529 251 529 252 530 C 252 530 250 524 248 529 Z M 138 555 C 132 553 137 552 131 554 C 130 548 126 560 127 561 C 128 561 126 572 128 571 C 130 573 126 570 127 572 C 128 574 130 578 132 578 C 132 576 135 577 134 576 L 138 573 C 137 573 137 572 138 573 L 135 570 L 135 564 L 136 559 C 136 556 138 558 138 555 Z M 106 503 L 104 501 C 102 501 106 504 106 503 Z M 261 589 C 257 587 258 581 255 576 C 253 576 250 577 249 575 L 247 575 C 242 574 241 566 237 571 C 233 572 230 577 226 574 L 225 574 C 223 574 223 572 224 571 L 223 571 C 223 571 224 571 223 571 L 224 570 C 225 573 227 568 230 569 C 232 570 232 567 234 565 C 237 563 233 559 231 558 C 229 559 229 556 228 557 L 227 557 L 225 558 C 225 558 225 556 226 557 C 226 557 225 558 226 557 C 225 555 227 555 230 555 C 232 556 228 552 228 551 C 231 549 236 540 240 544 C 244 550 248 535 248 531 L 247 529 C 245 530 241 524 239 521 L 237 522 L 238 521 C 241 518 238 513 234 514 C 237 511 234 507 232 503 C 240 498 245 496 234 490 C 231 491 231 490 230 492 L 224 493 C 223 494 221 493 221 492 L 220 493 C 222 490 226 491 229 490 L 229 488 C 228 488 225 487 228 487 L 230 487 L 227 486 C 227 485 229 486 228 485 C 225 482 232 484 228 481 C 227 476 221 477 221 472 C 219 472 221 466 218 467 C 218 469 216 468 215 469 C 211 473 199 474 204 467 C 201 467 205 464 203 463 C 203 465 199 462 200 465 C 200 470 195 467 194 469 C 195 465 194 469 192 467 C 186 474 186 474 184 465 C 183 466 178 465 179 464 C 185 466 176 460 175 462 C 174 467 178 469 171 468 C 173 463 164 469 167 473 C 171 478 164 474 160 476 C 162 479 157 478 156 477 C 150 475 151 478 148 475 C 142 467 159 459 146 454 L 144 455 C 137 442 155 446 146 441 C 159 431 129 429 138 417 C 141 420 148 414 152 421 C 149 423 150 424 152 427 C 152 431 155 430 159 429 C 170 430 161 403 155 415 L 153 415 C 153 415 156 414 156 412 C 155 412 152 409 155 409 C 156 408 156 407 157 409 C 159 409 156 407 157 406 C 159 407 157 405 158 405 C 154 396 150 402 144 399 C 144 389 137 402 137 389 L 135 390 C 134 387 130 389 128 389 C 124 396 126 391 122 389 C 123 386 121 385 123 383 C 124 382 123 382 122 382 C 122 381 123 377 124 380 C 125 377 120 379 119 377 C 118 375 116 377 112 373 L 112 375 C 113 376 106 375 110 373 C 111 369 105 370 105 367 C 100 362 99 363 94 363 C 91 363 90 360 87 364 C 82 362 79 355 73 354 C 73 349 72 353 70 352 L 70 355 C 70 394 90 442 84 484 C 74 501 94 498 103 508 C 105 508 105 508 104 506 C 105 504 100 502 99 500 C 97 500 100 499 100 499 C 91 497 101 481 103 491 C 99 496 116 504 117 510 C 120 512 122 510 124 510 C 126 511 128 509 129 509 L 136 513 L 141 525 C 141 525 141 528 143 528 C 141 528 142 529 144 529 L 143 530 L 143 532 C 141 534 144 540 142 539 L 142 541 L 143 541 L 143 543 L 144 545 C 145 545 142 550 145 548 C 145 552 147 554 147 555 L 148 560 C 148 561 146 558 146 560 C 144 561 148 561 147 563 L 148 563 C 141 577 149 584 148 598 C 146 605 162 605 165 602 C 168 600 167 602 170 602 C 171 602 174 600 175 601 L 207 606 C 211 610 210 615 217 613 C 220 613 220 614 220 612 C 222 610 223 609 223 607 C 227 604 226 609 231 606 C 236 601 235 598 241 597 L 241 593 C 243 591 246 594 246 594 L 245 594 L 246 594 L 250 596 L 249 597 L 248 599 C 250 602 253 599 255 600 C 256 602 260 604 261 600 L 257 594 C 253 594 253 590 257 591 C 259 592 262 591 261 589 Z M 291 591 C 290 588 286 583 287 582 L 280 572 C 270 569 259 555 248 562 C 245 566 242 569 249 569 C 252 569 244 571 248 572 C 251 575 255 572 259 572 C 264 571 257 574 260 575 L 262 574 C 256 577 266 576 266 578 L 267 578 C 267 577 269 578 267 578 C 268 579 264 579 266 581 C 269 580 267 581 266 582 L 270 582 L 267 584 C 266 586 264 582 262 580 C 253 573 261 588 263 591 C 264 593 272 591 272 588 C 274 587 287 594 283 596 L 275 592 C 274 591 274 589 272 591 C 268 596 278 597 282 597 C 285 595 287 592 291 591 Z M 235 557 C 240 557 232 551 234 556 L 235 557 Z M 160 476 C 160 474 157 471 158 474 L 160 476 Z M 132 542 C 134 543 136 538 136 537 C 133 534 128 540 132 542 Z M 127 528 C 129 528 125 525 126 527 L 127 528 Z"/>
            <path id="DK-05" fill="#e7c91d" stroke="#231f20" stroke-width="0.4" stroke-linejoin="round" d="M 329 571 C 330 573 332 569 331 570 C 330 571 327 570 329 571 Z M 301 557 C 300 556 304 554 300 552 C 300 552 299 552 300 552 C 301 550 303 551 302 552 L 303 552 L 308 554 L 312 558 L 314 557 C 316 559 316 553 317 555 C 319 559 325 558 327 558 C 330 561 333 559 336 557 L 341 553 C 341 552 341 553 341 553 L 341 552 C 342 552 344 554 345 552 C 356 553 355 539 357 528 C 357 522 353 512 351 510 L 352 509 L 352 508 C 352 508 352 507 352 508 L 352 507 L 352 508 L 352 507 L 353 508 L 355 509 L 356 511 C 355 511 360 510 359 509 L 358 509 C 355 505 342 487 336 484 C 336 482 341 480 344 479 C 340 472 329 457 327 456 C 329 456 327 459 326 458 L 325 456 C 324 457 328 459 327 459 C 327 457 329 459 329 460 L 330 464 L 329 464 C 332 464 330 469 328 465 L 327 461 C 323 460 336 479 328 472 C 320 475 311 464 301 461 C 299 459 295 460 296 461 C 298 461 297 464 299 465 C 301 466 295 467 296 467 L 296 465 L 295 463 C 298 462 288 464 288 466 C 287 465 286 467 288 467 L 281 470 L 277 472 C 276 472 276 472 277 472 C 277 472 276 472 277 472 L 276 472 C 274 474 257 494 255 479 C 254 475 249 479 247 480 C 244 480 247 481 247 483 L 245 487 C 244 488 241 484 238 486 C 238 489 245 489 243 490 C 245 491 246 495 249 493 L 251 494 L 249 494 C 249 495 253 497 252 494 L 253 495 C 250 496 254 497 254 498 C 253 502 244 491 243 494 C 243 500 260 499 253 502 C 248 502 263 506 254 509 C 253 509 251 509 252 511 C 257 512 260 514 261 511 L 263 514 L 262 514 L 262 513 C 261 512 263 519 264 517 C 264 517 265 517 264 517 L 264 527 C 265 528 267 530 265 530 L 266 531 C 269 534 274 532 275 537 C 276 540 276 555 283 548 C 282 545 276 543 276 540 C 276 540 276 541 276 540 C 275 538 277 540 277 538 C 279 538 275 537 276 536 C 280 536 278 540 281 540 C 288 541 288 534 292 543 C 293 542 294 546 295 547 L 293 548 L 290 549 L 291 548 C 290 548 290 552 288 552 L 288 551 L 287 552 C 285 563 290 549 301 557 Z M 289 545 L 290 544 L 289 545 Z M 286 548 L 289 547 C 289 546 282 548 286 548 Z M 328 564 C 333 564 325 564 328 561 C 326 562 326 567 328 564 Z M 351 556 C 351 554 350 551 347 553 C 345 554 344 553 345 556 L 349 555 L 347 556 C 346 559 350 555 351 556 Z M 296 461 L 297 463 C 298 462 297 462 296 461 Z M 352 570 C 352 568 347 569 348 570 C 350 569 352 572 352 570 Z M 298 561 C 298 559 292 562 294 558 C 289 560 296 567 298 561 Z M 287 465 L 288 465 L 287 465 Z M 346 472 C 346 474 349 473 348 472 L 346 472 Z M 283 458 C 284 460 286 461 285 464 C 286 464 286 465 285 464 L 286 464 C 283 462 288 456 283 458 Z M 264 530 C 265 530 265 530 264 530 C 265 529 264 530 263 529 L 262 529 L 264 530 Z M 258 520 C 258 517 254 516 256 518 C 255 519 255 518 254 517 C 252 519 256 525 258 520 Z M 286 465 C 285 464 284 466 285 466 C 284 465 286 465 286 465 Z M 246 513 C 243 509 241 516 245 514 L 246 513 Z M 242 493 C 245 492 240 489 239 489 C 238 490 240 494 242 493 Z M 341 581 L 340 581 L 341 581 Z M 338 580 C 336 579 337 581 338 581 L 338 580 Z M 342 571 C 345 573 344 567 350 566 C 350 556 347 571 343 565 C 343 564 348 556 344 557 L 343 554 L 342 554 L 334 563 C 331 562 332 565 334 565 C 333 566 334 569 336 570 C 338 572 335 572 338 572 C 337 573 337 574 339 573 C 339 572 342 573 340 572 C 339 571 340 571 342 571 Z M 313 559 L 314 558 L 312 560 C 312 561 314 560 313 559 Z M 338 590 L 337 590 L 337 589 L 337 590 C 337 591 337 589 337 590 C 338 590 338 591 336 591 L 336 589 C 335 587 327 584 330 584 L 329 584 C 327 584 336 590 330 587 L 330 588 L 329 587 C 330 591 325 587 325 585 C 325 584 325 585 325 585 C 325 584 323 584 324 583 C 324 583 324 584 324 583 C 325 582 322 580 322 581 C 325 582 323 583 322 585 C 318 587 311 576 308 578 C 292 565 318 593 326 596 C 328 598 329 596 329 594 C 330 591 337 593 338 590 Z M 372 533 C 367 523 365 552 363 556 C 363 562 359 563 356 566 L 352 572 C 351 575 348 583 354 578 L 355 580 C 353 580 355 580 355 582 C 356 581 357 583 355 583 L 354 583 L 353 584 C 351 584 353 582 352 582 C 353 585 351 582 351 582 C 350 590 351 593 344 591 C 343 591 351 595 352 598 C 351 601 355 604 354 605 L 353 605 C 361 623 364 575 365 571 C 369 563 373 546 372 533 Z M 346 579 C 344 579 345 576 342 578 C 341 580 346 585 346 579 Z M 344 591 L 342 589 L 344 591 Z M 325 571 C 326 570 324 568 323 568 L 323 570 L 322 570 C 319 570 320 568 319 570 C 317 569 318 573 319 571 C 321 568 324 574 325 571 Z M 331 584 L 334 584 L 331 584 Z M 334 577 C 336 578 330 572 332 577 L 334 577 Z M 330 579 C 331 579 333 580 331 578 L 330 579 Z M 309 564 C 312 564 316 568 314 564 L 308 564 C 303 557 303 567 309 564 Z M 303 556 L 306 558 L 303 556 Z M 331 569 L 331 570 L 331 569 Z M 326 584 L 325 583 L 326 584 Z"/>
            <path id="DK-04" fill="#ffdd19" stroke="#231f20" stroke-width="0.4" stroke-linejoin="round" d="M 390 585 L 390 584 L 390 585 Z M 389 582 L 390 582 L 389 582 Z M 414 520 C 415 519 420 520 422 518 L 421 519 L 421 518 L 420 518 L 420 516 L 417 516 C 415 517 417 518 417 519 L 415 518 L 415 519 C 414 518 414 519 414 520 Z M 385 584 C 386 586 386 588 387 585 C 386 585 386 582 385 584 Z M 391 526 C 388 529 392 533 393 527 C 395 524 392 526 391 526 Z M 411 520 L 413 520 L 411 520 Z M 411 560 C 413 561 413 557 411 558 L 411 560 Z M 392 514 C 390 505 393 530 397 521 C 396 521 397 524 395 521 L 395 520 C 395 518 391 515 392 514 Z M 443 417 C 444 417 443 417 443 417 C 443 417 443 418 443 417 Z M 436 412 C 439 415 440 418 443 415 C 442 412 444 410 441 407 C 438 404 443 415 438 410 L 438 411 L 436 412 Z M 441 419 L 441 418 L 441 419 Z M 535 541 C 532 523 510 540 503 528 L 501 531 C 501 533 502 533 503 532 C 504 533 506 534 505 536 C 505 534 506 534 506 536 L 506 535 L 507 535 L 507 541 L 500 545 L 499 543 L 496 543 C 495 542 494 540 496 541 L 492 535 C 491 535 493 532 491 533 L 490 532 L 490 531 L 489 529 C 488 529 489 529 489 529 L 490 528 C 488 528 489 526 487 527 L 487 526 L 489 526 C 489 527 489 528 490 527 C 494 529 493 523 494 521 C 491 517 488 519 486 520 C 486 519 486 520 486 520 L 484 520 L 484 519 C 480 519 483 522 481 521 L 480 521 C 478 522 481 516 477 518 L 476 517 C 477 516 477 513 480 512 C 484 510 484 510 483 515 C 483 517 483 520 486 517 C 484 513 488 505 489 504 C 492 503 496 497 501 497 C 510 498 507 493 509 494 L 516 487 C 514 482 515 476 510 473 C 501 466 487 470 486 461 L 486 459 L 485 459 C 486 459 486 459 485 459 L 486 459 C 485 458 486 456 485 458 L 485 456 C 486 455 486 456 486 457 L 486 453 C 486 453 486 456 485 455 C 486 455 486 450 484 452 C 482 453 484 451 480 450 C 479 449 483 449 481 448 C 478 448 481 445 482 444 C 482 443 481 437 484 440 C 486 435 475 435 477 428 C 477 426 476 422 481 421 C 484 418 480 421 480 419 C 482 418 483 420 483 418 C 486 417 481 416 480 415 L 477 416 C 478 413 468 407 466 408 C 464 402 451 405 455 408 C 455 411 452 407 450 409 L 446 406 C 447 407 444 407 444 409 L 444 416 C 446 417 444 420 447 418 C 446 419 444 423 444 426 L 444 428 L 444 426 C 444 428 443 432 442 429 L 442 428 C 441 427 442 426 440 426 C 440 424 439 421 437 421 C 436 421 437 421 437 421 C 438 422 437 423 436 422 C 436 421 437 423 436 422 L 435 423 L 432 423 C 433 423 432 424 432 423 L 428 425 L 426 424 L 426 423 C 425 421 430 421 431 421 L 435 419 L 437 418 L 434 416 C 433 415 434 414 435 416 C 436 415 433 413 433 411 L 431 410 L 426 414 C 424 416 422 416 420 415 L 421 415 C 421 415 421 414 421 415 L 420 415 C 420 413 423 413 423 412 L 424 407 L 430 408 C 433 404 429 402 428 399 C 422 395 423 397 423 391 C 422 391 423 391 423 391 C 423 390 423 391 423 391 L 423 390 L 425 391 C 427 389 428 395 430 391 C 432 390 428 385 431 384 C 431 380 436 386 431 378 C 427 381 422 389 416 386 C 411 382 397 389 392 385 C 384 385 380 376 385 386 C 385 384 392 388 395 388 C 405 386 409 392 409 397 L 409 395 L 410 396 C 409 397 411 405 405 405 C 401 406 398 411 394 407 C 395 408 398 412 397 415 C 400 421 394 421 391 425 L 391 424 L 390 424 C 390 434 381 422 383 428 C 378 431 382 420 368 431 C 364 432 361 428 357 429 C 349 431 348 434 357 433 C 361 431 363 435 365 437 L 371 441 C 370 440 371 439 372 440 L 374 440 L 372 441 L 374 441 L 373 442 L 372 442 L 371 443 C 367 444 360 441 357 444 C 365 446 379 445 381 457 C 384 461 380 465 376 464 C 374 467 378 470 379 467 L 379 464 L 385 470 C 386 474 395 488 389 490 C 387 491 384 495 382 492 C 381 494 380 498 382 496 L 382 497 L 384 498 L 385 498 C 385 499 384 498 385 498 L 384 499 L 385 499 C 385 500 385 499 385 499 C 384 499 386 500 385 499 L 385 500 C 385 500 385 499 385 500 C 390 503 399 504 398 511 L 401 513 C 402 509 403 510 402 513 C 398 512 395 510 399 516 C 397 517 399 517 400 518 L 399 518 L 400 518 L 400 519 C 400 519 400 518 400 519 L 401 519 L 401 520 C 401 519 410 520 409 519 C 407 519 406 520 406 517 C 407 516 408 518 409 518 C 409 518 409 515 410 517 C 413 520 413 515 416 516 C 417 516 417 512 419 514 L 420 514 C 420 515 422 514 421 515 L 424 516 C 426 517 436 516 439 518 C 439 518 440 518 439 518 L 440 518 C 441 520 446 522 447 523 L 446 523 C 448 523 446 521 445 522 L 444 520 L 443 517 C 442 516 442 518 441 519 L 441 518 C 438 516 444 508 448 513 L 447 515 C 448 514 447 513 446 513 L 444 513 C 445 515 442 519 445 517 C 448 518 446 516 447 515 L 448 515 L 448 516 C 445 517 446 522 449 520 L 452 520 C 453 519 452 520 453 521 C 454 522 453 520 454 520 C 456 520 457 521 457 522 C 458 525 455 522 453 524 L 452 526 L 449 526 C 446 524 451 532 452 531 C 452 532 454 535 455 533 C 454 533 453 532 455 531 L 457 533 C 465 539 460 539 454 536 C 450 536 434 533 443 535 C 455 538 474 543 467 553 L 463 551 C 462 551 464 555 462 556 C 461 557 460 555 459 554 C 455 551 453 557 452 559 C 459 557 455 565 458 568 C 455 571 450 566 447 565 C 445 565 448 570 448 572 C 442 576 435 573 445 580 L 448 582 L 444 579 L 440 580 L 437 579 L 433 579 C 432 579 434 578 433 579 C 434 578 429 579 430 577 C 431 574 428 574 426 575 C 425 572 418 572 418 567 L 417 566 C 413 566 411 564 410 562 C 404 561 396 562 394 565 L 393 565 L 394 567 C 394 569 394 567 393 567 C 388 564 382 577 386 578 C 387 577 386 581 387 579 C 387 577 392 583 392 585 C 393 584 393 586 393 586 C 394 585 394 584 396 585 L 397 585 L 395 585 C 395 586 395 588 393 589 C 389 585 396 592 390 592 L 386 589 C 380 587 390 592 384 592 L 383 593 C 380 592 381 588 381 587 L 383 587 C 374 584 387 601 392 600 C 403 601 421 608 424 612 L 424 613 L 430 615 C 434 619 448 621 440 620 C 434 619 436 617 439 613 C 441 612 442 613 443 611 C 443 608 446 610 444 608 L 447 608 L 447 607 L 450 607 C 451 608 451 606 452 606 L 454 607 C 455 608 454 606 455 605 L 457 605 C 459 605 459 608 461 606 C 461 606 460 606 461 606 L 461 605 C 462 606 461 607 463 607 L 469 607 C 469 606 471 607 470 606 C 470 605 473 606 471 605 L 470 604 L 472 603 C 473 603 471 602 473 601 C 471 600 472 600 474 599 C 473 597 472 598 471 598 C 470 597 468 597 469 596 L 468 596 C 466 594 469 595 469 594 C 467 594 469 592 468 592 L 468 591 L 468 592 C 489 594 465 592 483 617 L 483 618 L 483 617 L 484 617 C 494 623 475 596 497 571 C 503 570 494 560 491 560 C 489 559 488 562 487 561 L 484 561 L 480 560 C 480 558 475 550 480 553 C 480 557 484 557 487 557 L 493 558 L 496 558 L 496 559 L 495 559 L 495 558 C 493 559 497 562 500 561 C 508 558 509 539 523 543 C 526 542 533 548 535 541 Z M 365 398 C 365 401 371 402 372 404 L 380 406 C 375 404 370 399 365 398 Z M 371 500 C 370 499 369 499 367 502 L 371 500 Z M 472 592 L 473 593 L 472 592 Z M 388 418 C 388 419 391 424 391 420 C 389 420 389 415 388 418 Z M 443 515 L 443 516 L 443 515 Z M 500 529 L 497 531 C 497 532 494 532 497 533 C 498 533 500 535 500 532 L 501 531 L 501 530 L 500 529 Z M 486 519 L 485 519 L 486 519 Z M 501 539 L 501 538 L 501 539 Z M 482 519 C 483 518 481 519 482 519 Z M 420 516 L 421 516 L 420 516 Z M 447 523 C 447 525 448 527 449 524 C 448 523 447 521 447 523 Z M 424 558 C 419 557 424 559 421 561 L 419 560 C 418 563 417 560 417 559 C 414 557 418 561 419 563 C 422 566 422 565 425 561 C 430 562 428 556 424 558 Z M 414 547 C 412 551 416 547 416 546 C 417 546 415 545 414 547 Z M 422 518 L 424 516 L 422 518 Z M 431 566 C 428 566 431 566 431 568 C 431 568 429 569 431 571 C 432 569 437 571 432 568 C 428 566 435 565 431 566 Z M 435 559 C 442 551 426 550 432 555 L 435 559 Z M 468 549 L 468 548 L 468 549 Z"/>
            <path id="DK-03" fill="#ffd00f" stroke="#231f20" stroke-width="0.4" stroke-linejoin="round" d="M 781 432 L 782 432 L 781 432 Z M 780 431 L 781 431 L 780 431 Z M 511 355 L 510 354 C 510 355 510 354 510 354 C 498 347 501 348 486 348 C 471 335 451 369 438 379 C 438 380 438 379 438 379 L 438 380 C 438 379 438 380 438 380 C 438 380 439 381 438 380 C 439 381 439 383 441 383 C 441 383 440 383 441 383 C 441 382 446 382 445 387 L 452 398 C 452 400 452 403 450 404 C 448 403 444 405 446 406 C 447 406 449 410 451 409 C 452 406 455 411 455 408 C 451 404 465 403 466 408 C 469 408 478 413 477 416 L 478 416 C 479 415 481 415 480 414 L 481 413 C 482 412 485 411 485 408 L 493 408 C 495 408 496 405 496 407 L 499 407 C 498 405 501 402 500 403 L 498 403 L 498 402 C 502 402 501 398 498 400 C 496 397 500 396 501 394 C 500 392 504 391 502 388 C 503 383 492 391 494 383 C 489 376 497 376 500 373 C 501 371 504 374 505 373 L 505 371 C 506 368 506 362 509 360 L 511 355 L 510 355 L 511 355 Z M 787 473 L 785 470 L 785 465 L 784 464 L 783 464 L 782 463 L 778 463 L 767 458 L 765 454 L 764 454 C 762 456 760 454 757 454 L 753 452 L 750 451 C 749 450 750 451 750 451 C 750 451 749 451 750 451 C 748 451 747 447 746 447 C 745 446 745 445 743 445 C 743 445 744 445 743 445 L 742 444 L 741 447 L 740 453 C 736 459 743 473 741 478 L 740 480 L 741 480 L 741 479 C 741 480 741 479 741 479 L 742 480 L 741 480 C 741 479 741 480 741 480 L 740 480 L 748 484 C 753 487 760 485 764 488 C 770 489 784 495 786 485 L 784 481 L 785 479 L 786 478 L 786 477 C 786 478 785 477 786 477 L 786 476 C 785 477 786 477 786 476 L 787 473 Z"/>
            <path id="DK-02" fill="#fddb00" stroke="#231f20" stroke-width="0.4" stroke-linejoin="round" d="M 520 418 Z M 524 420 L 523 419 C 523 420 525 420 524 421 L 524 420 Z M 524 409 C 524 409 525 409 524 409 C 525 409 524 408 524 409 Z M 531 410 L 531 411 L 531 410 L 531 411 L 531 410 Z M 540 425 C 538 425 540 426 540 425 Z M 539 426 L 539 423 L 536 416 C 535 414 535 417 533 417 L 533 420 C 534 420 533 420 533 420 C 533 420 534 420 533 420 L 533 421 L 534 421 L 533 422 C 534 422 533 422 533 422 C 533 423 533 422 533 422 L 534 423 C 534 424 534 423 534 423 C 534 423 534 424 534 423 L 535 424 L 534 424 L 535 425 C 535 424 535 425 535 425 L 536 424 L 536 425 L 537 426 L 539 426 Z M 539 429 L 533 426 C 535 427 537 430 539 429 Z M 529 430 C 529 431 529 430 529 430 C 529 430 528 430 529 430 C 527 430 531 422 526 424 L 526 423 C 525 424 526 423 526 423 L 525 422 C 526 423 525 422 525 422 L 525 421 L 522 418 L 523 418 C 524 418 523 418 523 418 C 523 417 524 418 523 418 C 523 418 524 418 523 418 C 522 418 525 417 523 416 L 522 417 L 523 416 C 520 414 523 418 522 418 L 522 415 L 520 416 C 521 417 520 418 519 418 L 516 421 L 513 420 C 513 419 511 416 514 417 L 516 415 L 518 415 L 519 414 L 518 412 C 518 415 518 413 518 412 L 519 412 C 517 411 518 412 519 412 C 517 411 519 411 519 411 L 518 411 C 518 411 524 409 520 409 L 518 409 L 518 410 C 517 409 517 411 517 411 L 517 412 L 517 410 L 517 411 C 517 410 516 411 517 411 C 517 410 518 410 516 410 L 517 409 L 516 409 C 515 408 516 405 517 403 C 517 403 517 402 517 403 L 515 398 L 511 388 L 508 382 C 507 383 508 382 508 382 C 508 383 504 378 504 376 L 504 374 L 505 373 C 505 373 504 373 505 373 C 502 371 499 376 494 376 C 490 377 493 380 494 382 L 494 386 C 497 389 503 384 502 389 C 505 390 500 393 501 394 C 500 396 497 396 498 399 C 498 401 499 398 500 399 C 503 402 498 401 499 402 L 499 403 C 502 402 497 404 499 407 L 496 407 C 496 405 495 408 493 408 L 486 408 C 484 407 484 414 482 412 C 480 412 482 413 480 414 C 479 416 486 416 483 419 L 481 419 C 483 422 478 421 476 425 C 478 428 477 432 479 435 C 482 435 487 438 483 439 C 483 439 482 438 482 440 L 482 445 C 479 445 479 449 481 448 C 483 449 479 449 480 450 C 490 456 483 448 492 441 C 491 441 496 436 498 436 L 498 435 C 498 435 497 435 498 435 L 497 435 L 498 436 C 498 434 503 431 501 432 C 501 432 501 433 501 432 L 500 432 L 500 433 L 500 432 L 501 431 L 501 432 C 501 432 501 431 501 432 L 501 431 L 504 431 L 506 432 L 506 431 C 506 431 505 431 506 431 C 505 432 506 431 506 431 C 506 432 512 433 511 430 C 513 430 512 432 513 433 C 515 438 518 434 519 438 C 520 438 522 439 523 437 L 525 434 C 527 433 530 431 529 430 Z M 516 415 Z"/>
            <path id="DK-01" fill="#fdbd10" stroke="#231f20" stroke-width="0.4" stroke-linejoin="round" d="M 520 413 C 520 412 520 413 520 413 C 520 413 519 411 520 413 Z M 516 415 Z M 521 413 L 519 414 L 518 415 L 516 415 C 515 415 515 417 514 416 C 512 417 513 419 513 420 L 516 421 L 519 418 C 520 418 521 417 520 416 L 520 415 C 519 415 522 414 521 413 Z"/>
        </g>
    </g>
</svg>
