<?xml version="1.0" encoding="UTF-8"?>
<!-- Generated by Pixelmator Pro 3.6.10 -->
<svg width="632" height="511" viewBox="0 0 632 511" xmlns="http://www.w3.org/2000/svg">
    <g id="Landen">
        <g id="ZWITSERLAND">
            <path id="CH-09" fill="#777777" stroke="#231f20" stroke-width="0.4" stroke-linejoin="round" d="M 470 133 C 467 131 464 126 467 123 C 460 122 458 119 453 116 C 454 117 452 118 452 119 L 447 120 L 445 120 L 444 118 L 443 118 L 440 116 C 438 117 439 115 440 115 L 436 112 C 434 112 432 107 430 110 L 425 112 C 425 112 428 112 427 114 C 426 114 424 113 425 115 L 423 115 C 420 115 418 122 416 119 C 415 117 419 112 411 116 L 408 116 C 407 113 405 116 406 118 L 406 120 L 405 122 C 403 121 404 120 402 121 C 403 119 401 119 400 121 L 400 119 C 398 116 403 118 403 117 C 408 115 395 109 395 112 L 392 115 C 392 115 394 115 393 117 L 389 115 L 388 117 L 386 118 L 382 117 C 381 117 379 116 379 118 C 378 121 376 117 378 122 C 376 125 378 123 379 125 L 381 127 L 383 129 L 385 128 C 385 126 386 126 387 127 L 387 128 C 386 127 386 128 386 129 C 387 128 394 127 392 131 C 393 132 392 133 390 132 L 389 133 L 389 134 C 391 135 388 135 389 136 C 389 138 389 138 387 139 C 387 140 388 143 386 143 L 384 145 L 385 147 C 389 150 389 154 393 158 L 400 161 C 399 164 402 161 402 162 C 404 164 402 163 401 163 C 398 164 402 165 403 166 C 407 168 406 173 409 177 C 431 171 417 181 423 181 C 427 179 434 178 437 181 L 442 182 C 445 185 444 187 440 186 C 443 189 447 193 451 192 C 455 190 449 198 460 191 C 462 190 462 193 463 194 C 466 192 470 191 469 188 C 473 186 469 180 469 177 C 469 174 466 177 466 174 C 466 172 460 173 462 171 C 462 168 464 164 459 163 C 458 163 462 160 458 158 C 451 153 467 139 470 133 Z"/>
            <path id="CH-08" fill="#777777" stroke="#231f20" stroke-width="0.4" stroke-linejoin="round" d="M 454 195 L 453 195 L 452 194 C 452 196 450 197 449 196 L 447 194 C 448 191 443 189 440 187 C 444 187 445 185 442 182 C 440 180 437 183 436 180 C 432 179 427 178 422 181 C 420 182 421 178 423 176 C 419 175 414 175 410 177 C 406 174 407 168 403 166 C 402 165 398 165 401 163 C 401 163 404 164 402 162 L 400 162 C 401 160 397 162 398 160 C 393 159 389 153 388 149 C 386 149 386 146 384 145 C 385 143 388 143 387 141 C 386 139 389 139 389 138 L 389 135 C 390 134 388 133 390 132 C 391 133 393 133 392 131 C 394 127 387 128 386 129 C 386 128 386 127 387 128 L 387 127 C 386 126 385 126 385 128 L 383 129 L 381 127 L 379 125 C 377 123 377 124 378 122 C 376 117 378 121 379 118 C 379 116 381 117 382 117 L 386 118 L 388 117 C 390 116 390 114 392 117 C 394 116 392 115 392 115 L 395 112 C 395 109 408 115 403 117 C 403 118 398 116 400 119 L 400 121 C 400 119 403 119 402 121 C 403 121 404 120 404 122 C 406 123 405 120 407 119 C 407 118 405 118 406 116 C 407 113 408 117 410 115 C 413 116 416 113 416 115 C 415 117 416 121 417 120 L 421 116 C 423 114 425 116 425 114 L 427 114 C 429 113 424 112 426 112 C 429 110 433 111 432 106 C 418 99 405 91 391 92 C 385 92 381 97 375 99 C 374 101 372 98 370 98 C 370 99 372 95 368 94 L 368 91 C 369 91 371 92 370 90 C 369 88 367 91 366 89 C 365 88 363 90 363 88 L 361 87 C 363 86 361 84 360 86 C 360 87 354 91 360 91 C 363 93 361 97 356 94 C 352 93 352 92 353 89 C 352 88 349 88 351 85 C 354 83 354 83 351 81 C 346 84 348 81 346 78 C 340 75 343 77 342 81 C 338 87 341 72 334 77 C 329 74 333 79 333 80 C 329 80 325 81 322 84 C 320 87 321 91 319 93 C 313 96 316 103 322 104 C 324 101 323 105 324 106 L 324 104 L 325 105 C 327 105 327 103 330 104 C 332 104 331 103 330 101 C 332 102 331 101 332 100 C 337 100 339 97 342 102 C 343 104 337 105 341 103 C 339 100 338 105 340 107 C 341 109 337 113 335 111 C 335 109 338 109 335 108 C 330 104 328 109 324 112 C 322 112 324 116 326 115 C 332 116 318 118 319 121 C 320 123 319 122 318 123 L 318 124 C 319 125 316 125 317 126 C 314 126 317 129 313 129 C 312 132 316 135 315 136 C 314 137 315 137 316 138 L 317 139 C 317 142 318 143 313 142 L 312 143 L 311 144 L 314 147 L 316 151 C 311 157 318 154 318 159 L 315 160 C 318 161 314 162 317 165 C 324 166 322 179 330 179 C 333 182 335 178 338 178 L 339 177 C 341 176 343 178 343 176 L 342 174 C 342 176 343 172 343 174 L 345 178 C 347 178 351 181 350 184 C 353 185 354 184 356 186 C 358 185 359 185 360 187 C 359 187 357 190 359 190 C 363 190 360 195 361 197 C 359 200 361 205 361 208 C 362 209 367 210 366 212 C 368 212 369 210 371 212 C 373 213 381 211 382 209 C 384 207 391 218 395 217 C 392 220 397 223 393 223 C 389 227 382 229 383 233 C 384 238 382 238 386 239 C 387 244 391 244 394 245 C 407 245 406 222 413 233 C 414 235 417 232 417 231 C 419 227 425 229 427 222 C 430 221 429 218 427 216 L 427 206 C 432 202 437 205 441 200 C 445 198 440 204 442 205 C 444 207 442 200 445 199 C 448 200 447 196 450 197 C 451 198 455 197 454 195 Z M 345 94 C 349 94 343 90 347 91 C 350 90 350 91 352 94 C 349 93 346 97 345 94 Z"/>
            <path id="CH-07" fill="#777777" stroke="#231f20" stroke-width="0.4" stroke-linejoin="round" d="M 352 93 C 350 89 349 91 345 91 C 346 92 348 94 345 94 C 344 96 353 94 352 93 Z M 583 255 C 580 249 573 254 571 250 C 569 246 568 243 572 240 C 567 232 578 233 571 226 C 574 220 575 216 574 207 C 576 201 575 197 568 197 C 566 197 567 195 567 194 C 563 190 561 190 557 192 C 554 213 548 197 545 210 C 550 217 536 218 533 221 C 529 217 525 220 525 216 C 522 214 521 212 517 213 C 516 212 516 209 515 211 C 496 211 507 203 501 195 C 503 192 497 195 496 196 C 492 193 487 192 482 192 C 479 189 475 190 471 192 C 468 190 467 191 465 192 C 463 194 463 193 461 191 C 458 191 455 195 454 194 C 454 192 453 195 453 194 C 452 192 453 191 451 192 C 446 192 445 193 449 196 C 451 197 452 196 452 194 C 456 196 453 199 450 197 C 448 196 447 198 446 200 C 444 196 443 205 443 206 C 439 201 445 197 437 203 C 417 204 436 218 423 228 C 415 228 419 237 409 230 C 404 231 406 238 403 242 C 399 243 392 248 391 243 C 382 243 381 251 381 257 C 374 259 375 258 369 265 C 364 264 366 270 365 273 C 360 277 370 280 368 286 C 376 286 386 289 393 283 C 399 282 392 277 396 276 C 400 278 399 270 401 276 C 400 281 406 274 409 278 C 412 280 409 286 409 290 C 412 306 426 293 435 290 C 440 288 440 289 442 293 L 451 289 C 453 290 451 293 453 294 C 459 300 457 291 462 289 C 465 289 462 307 467 312 C 475 317 475 324 486 324 C 496 319 498 327 497 315 C 498 306 500 319 511 308 C 518 307 515 303 521 305 C 524 300 526 308 530 308 C 530 310 528 311 529 313 C 532 317 531 320 539 322 C 541 325 536 328 540 329 C 567 321 544 318 543 306 C 546 301 552 296 546 293 C 543 290 537 298 535 291 C 532 292 533 279 532 275 C 529 274 533 273 534 272 C 535 270 534 268 537 267 C 536 260 537 263 541 261 C 565 249 546 265 559 266 C 564 272 569 266 576 267 C 584 274 582 260 583 255 Z"/>
            <path id="CH-06" fill="#777777" stroke="#231f20" stroke-width="0.4" stroke-linejoin="round" d="M 446 322 C 446 318 446 318 443 315 L 443 307 C 434 304 442 299 441 292 C 438 284 422 298 414 299 C 406 293 411 285 410 278 C 400 274 405 283 399 274 C 390 278 399 279 393 284 C 385 289 376 286 368 286 C 370 280 360 277 365 273 C 365 263 370 267 376 257 C 379 263 383 252 382 249 C 394 235 380 245 383 230 C 387 229 390 224 395 223 L 395 217 C 387 218 386 209 382 208 C 381 212 372 214 369 211 C 365 214 366 209 362 209 C 359 205 361 198 362 193 C 362 189 355 190 360 187 L 359 185 C 354 186 351 185 349 180 C 346 180 347 178 345 178 L 343 173 C 339 174 345 176 343 177 C 341 176 339 177 338 178 C 335 178 333 182 330 179 C 327 177 325 179 324 175 C 318 175 331 194 322 189 C 321 199 315 183 314 180 C 313 179 313 176 311 175 L 310 172 C 311 170 305 170 305 169 L 303 172 C 301 171 301 177 300 178 L 300 180 C 299 180 298 182 297 181 L 295 180 C 294 179 292 176 290 179 C 288 179 287 173 284 177 L 282 177 C 284 179 280 180 277 179 C 278 178 275 172 274 174 C 270 176 278 175 270 179 C 268 184 265 179 261 182 C 263 184 257 185 261 188 C 258 191 264 191 263 194 C 261 196 264 198 264 199 C 263 203 261 203 264 207 C 265 209 262 213 264 216 C 267 216 267 223 269 221 L 270 221 L 275 222 C 273 224 275 227 273 229 C 273 234 268 233 266 238 C 265 239 267 238 267 239 C 267 241 267 243 265 243 C 265 248 269 248 265 252 C 264 254 259 258 264 257 C 266 262 272 259 277 258 C 279 258 282 263 283 260 C 292 253 298 262 306 265 C 317 275 319 256 327 254 C 330 253 330 260 333 256 C 340 255 334 260 338 263 C 341 275 336 268 332 272 C 339 280 331 296 345 298 C 343 303 339 305 335 305 C 335 313 334 312 342 309 C 346 313 347 326 346 333 C 341 339 347 350 355 350 C 359 352 362 359 365 361 C 367 360 366 362 366 362 C 367 363 368 367 369 366 C 376 366 380 372 384 365 C 390 373 407 364 393 383 C 389 391 397 380 408 398 L 411 394 C 411 392 411 391 413 391 C 410 389 413 388 414 385 C 416 386 415 390 414 390 C 413 394 405 401 413 406 C 408 411 409 413 415 410 C 416 411 417 412 418 411 C 420 410 420 411 420 413 C 423 414 426 413 424 410 C 426 408 426 407 426 404 C 427 402 430 400 430 398 C 427 399 429 398 428 396 C 426 397 426 395 424 395 C 421 394 421 395 420 390 C 412 383 426 387 418 376 C 435 360 416 368 430 355 C 432 351 436 351 437 347 C 437 345 439 339 442 339 C 442 333 446 327 446 322 Z"/>
            <path id="CH-05" fill="#777777" stroke="#231f20" stroke-width="0.4" stroke-linejoin="round" d="M 326 189 C 321 182 326 168 317 165 C 316 165 315 161 317 161 C 318 160 314 160 315 160 C 320 161 317 155 315 155 L 315 153 C 317 151 315 148 314 147 L 312 145 C 310 144 313 141 315 143 C 319 142 317 142 317 139 L 316 138 C 315 137 314 137 315 136 C 317 135 314 135 314 133 L 313 129 C 317 129 314 126 317 126 L 318 123 C 320 122 318 121 319 119 C 311 119 308 119 300 112 C 296 116 295 110 292 113 C 288 119 283 119 280 124 C 276 122 271 129 268 127 C 266 127 268 129 267 130 C 267 132 270 131 269 133 C 267 136 262 142 267 143 L 268 142 C 270 143 270 146 271 148 C 272 149 266 148 269 150 C 275 155 266 159 272 160 L 273 163 C 276 165 272 164 271 163 C 271 165 268 163 266 165 C 270 164 267 169 270 167 C 270 169 273 170 274 167 C 276 168 279 167 278 169 L 277 172 C 278 174 278 175 276 175 L 278 178 C 277 181 284 179 282 177 L 285 176 C 289 174 288 181 292 177 C 294 178 294 180 296 180 C 297 180 296 182 297 181 C 301 180 299 180 300 177 C 302 176 301 171 303 172 L 303 171 C 304 171 305 168 306 170 C 307 169 309 170 310 171 C 309 174 312 174 313 176 C 314 182 316 187 320 191 C 321 195 322 191 322 189 C 324 189 325 192 326 189 Z"/>
            <path id="CH-04" fill="#777777" stroke="#231f20" stroke-width="0.4" stroke-linejoin="round" d="M 241 197 C 240 196 239 198 239 199 L 241 197 Z M 279 168 C 274 165 271 172 270 167 C 267 168 266 163 270 164 L 272 164 C 273 163 275 165 274 163 C 272 163 273 159 271 160 C 271 161 269 158 271 159 C 267 158 273 156 271 153 C 271 150 264 150 271 148 C 271 147 269 140 267 143 L 265 143 C 263 138 272 133 268 131 L 267 127 C 268 128 273 126 270 126 C 264 125 261 132 258 122 C 250 117 237 142 228 130 C 226 128 234 128 234 127 C 231 125 233 122 233 122 C 231 124 228 121 227 124 C 224 129 224 123 219 127 L 213 133 L 212 136 C 214 137 214 134 215 135 C 217 136 214 138 213 138 C 213 138 215 142 210 145 C 208 142 202 142 205 145 C 215 147 194 153 201 159 C 206 164 213 162 219 165 C 232 173 210 178 208 186 C 209 184 213 184 212 186 C 208 190 219 192 215 195 C 214 196 215 198 217 198 C 217 199 215 203 213 201 C 211 201 211 202 211 203 C 211 203 209 203 210 204 C 208 206 214 206 209 207 C 207 207 208 210 208 211 C 212 209 224 207 221 200 C 222 198 224 200 225 198 L 226 198 C 226 200 227 202 229 201 C 231 198 235 201 236 199 C 235 197 238 197 238 195 C 240 192 235 192 235 189 C 234 187 234 186 232 187 C 229 186 234 185 235 184 L 240 184 C 242 186 245 185 245 187 C 245 187 242 190 244 189 C 245 189 244 192 246 193 C 247 190 253 188 249 192 C 251 192 248 195 248 197 L 248 200 L 247 201 C 248 202 246 203 246 203 L 246 207 C 247 206 247 207 248 208 C 249 207 250 208 250 209 C 252 209 254 206 255 207 C 257 207 253 211 256 212 C 253 216 260 214 262 214 C 264 217 264 209 264 209 L 262 202 C 267 200 261 197 263 193 C 257 187 262 191 259 185 C 263 177 266 185 270 179 C 278 175 270 176 274 174 C 275 172 278 178 277 173 C 276 171 279 171 279 168 Z"/>
            <path id="CH-03" fill="#777777" stroke="#231f20" stroke-width="0.4" stroke-linejoin="round" d="M 345 298 C 331 296 339 280 332 272 C 337 269 341 274 338 263 C 334 260 340 255 333 256 C 330 259 330 253 327 255 C 319 256 317 275 306 265 C 299 262 291 253 283 260 C 278 261 279 255 271 260 C 266 261 265 257 262 257 C 260 255 264 255 265 252 C 269 248 265 248 265 243 C 267 243 267 241 267 239 C 267 238 265 239 266 238 C 268 234 272 233 273 228 C 274 224 275 221 270 221 L 269 221 C 267 223 267 215 262 214 C 260 214 253 216 256 212 C 254 211 257 208 255 207 C 253 205 251 211 250 208 C 249 207 248 208 247 206 C 245 207 246 206 247 204 L 247 201 L 248 198 L 249 195 C 249 193 251 192 249 192 C 250 190 252 190 249 190 C 247 193 244 194 245 190 C 243 189 244 189 245 187 C 245 185 241 186 240 184 L 238 184 L 237 185 C 235 184 228 186 232 187 C 235 185 234 190 235 191 C 240 192 239 196 236 198 C 236 200 236 200 234 200 L 233 200 L 232 199 C 227 202 226 198 224 198 C 224 200 219 198 221 200 C 222 204 216 210 212 209 C 210 209 208 213 208 210 C 206 207 212 207 211 206 C 211 206 208 204 211 203 C 211 200 213 202 215 201 C 220 198 215 198 215 196 C 213 193 210 198 207 200 C 192 204 203 204 198 209 C 196 212 196 211 194 211 C 193 212 193 217 190 214 L 189 214 C 188 213 187 217 185 218 C 184 220 187 220 184 221 C 183 222 186 224 186 224 C 186 225 184 230 182 229 C 182 227 179 228 180 227 C 181 226 183 225 181 225 C 180 225 183 223 181 224 C 180 224 175 228 178 224 L 178 219 C 177 215 175 220 175 221 C 170 221 164 226 164 231 C 165 242 185 229 177 237 L 176 238 C 176 242 167 249 175 246 C 176 245 179 246 181 244 C 183 245 182 245 182 246 C 185 246 183 247 184 248 L 181 249 C 182 251 181 253 184 252 C 185 250 186 251 185 253 C 181 259 179 259 185 262 C 186 264 187 263 188 262 C 190 260 191 262 192 259 C 194 262 195 257 196 256 C 197 255 198 254 198 256 C 199 254 200 256 201 256 C 206 258 199 263 201 267 C 200 268 198 269 200 270 C 203 271 199 278 201 276 L 212 272 C 214 273 218 273 218 276 C 221 281 217 279 216 281 C 214 283 215 287 211 285 L 209 291 C 202 283 208 300 203 304 C 201 305 202 308 200 309 L 199 309 L 199 306 C 200 304 194 309 197 310 C 199 314 198 316 197 318 C 194 320 200 328 193 327 C 192 329 196 331 195 334 C 194 336 192 338 195 338 C 195 340 197 341 198 341 C 196 342 198 350 202 346 C 203 343 201 340 205 339 C 211 336 204 349 217 338 C 219 335 223 334 227 335 C 230 331 228 338 229 339 L 226 348 C 223 351 227 350 228 352 C 218 359 230 353 223 360 C 227 358 231 362 233 365 C 235 366 236 363 237 366 C 233 379 245 382 249 393 C 247 404 242 406 257 403 C 258 405 259 407 261 406 C 263 408 262 412 266 411 C 268 405 274 412 278 410 C 289 410 274 397 296 394 C 302 388 293 376 307 374 C 309 374 308 371 309 371 C 310 369 314 369 312 366 C 317 355 297 351 305 345 C 308 338 316 344 318 336 C 317 333 322 333 322 331 C 321 327 335 325 324 321 C 329 315 336 313 336 306 C 336 303 343 304 345 298 Z M 239 199 C 239 197 240 196 242 197 L 239 199 Z"/>
            <path id="CH-02" fill="#777777" stroke="#231f20" stroke-width="0.4" stroke-linejoin="round" d="M 224 170 C 222 166 218 166 218 163 C 213 163 205 165 204 160 C 200 160 200 156 199 154 C 193 152 188 155 184 157 C 181 152 170 158 178 145 L 162 146 C 151 143 153 148 155 154 C 148 155 150 162 146 163 L 145 167 C 143 167 141 172 142 173 C 145 170 147 172 150 171 C 156 170 163 165 163 174 C 156 178 160 181 154 182 C 147 183 156 191 148 195 C 140 202 143 206 137 211 C 132 213 130 216 128 220 C 125 219 123 226 127 226 C 120 239 98 240 96 252 C 103 275 106 256 123 254 C 126 247 134 251 132 258 C 135 258 139 262 143 254 L 171 222 C 176 223 174 220 176 217 C 180 217 177 222 177 224 C 179 223 177 226 177 226 C 179 227 180 223 182 224 C 180 225 183 225 180 227 C 179 228 182 227 182 229 C 185 229 187 224 185 223 C 182 222 187 220 185 220 C 183 218 187 217 187 215 L 189 214 L 190 214 C 195 218 191 210 197 211 C 199 208 201 207 199 205 C 198 202 203 201 205 201 C 211 199 210 195 215 195 C 218 193 213 190 212 190 C 210 187 214 184 210 185 C 200 188 224 173 224 170 Z M 415 388 C 415 382 411 389 414 389 C 415 390 415 388 415 388 Z"/>
            <path id="CH-01" fill="#777777" stroke="#231f20" stroke-width="0.4" stroke-linejoin="round" d="M 249 393 C 247 387 241 382 236 376 C 235 373 237 368 237 365 C 231 366 229 357 223 360 C 230 353 218 359 228 352 C 227 350 223 351 226 348 L 229 339 C 228 338 230 331 226 335 C 223 334 219 335 217 338 C 204 349 211 336 205 339 C 202 340 202 342 202 345 C 199 350 196 343 198 341 C 197 341 195 340 195 338 C 193 338 194 336 195 334 C 196 331 192 330 193 327 C 200 329 194 320 197 319 C 197 317 199 316 198 313 L 197 310 C 194 308 200 304 199 306 L 199 309 L 200 309 C 202 308 201 305 203 304 C 208 300 202 283 209 291 L 211 287 C 210 283 216 287 215 282 C 217 279 221 281 218 276 C 218 273 214 273 212 272 C 210 273 204 276 201 276 C 200 278 202 271 200 270 C 198 269 201 268 200 267 C 200 263 206 258 201 256 C 200 256 199 254 198 256 C 198 254 197 255 196 256 C 195 258 194 261 192 259 C 191 262 190 260 188 262 C 187 263 186 264 185 262 C 183 261 178 258 183 257 C 184 254 187 249 183 252 C 181 253 182 251 181 249 L 184 248 C 183 246 184 246 182 246 C 182 245 183 245 181 244 L 175 246 C 167 249 176 242 176 238 L 177 237 C 177 236 180 235 179 234 C 156 229 147 259 132 258 C 130 240 123 259 119 255 C 82 271 105 266 96 280 C 93 282 93 282 92 285 C 90 285 91 285 90 287 C 83 291 77 297 72 303 C 64 310 60 312 67 321 C 57 331 55 343 68 348 C 71 348 71 351 69 354 C 68 355 67 355 68 356 C 67 358 65 360 66 362 C 66 363 63 365 65 367 C 67 368 67 375 63 372 L 61 372 C 60 373 59 371 59 373 C 57 375 52 375 51 378 C 45 379 52 382 52 384 C 50 386 46 398 52 390 L 58 391 C 60 386 67 391 71 388 C 73 386 77 386 76 382 L 80 378 C 83 378 94 370 87 368 C 87 366 84 373 81 366 C 79 364 82 364 82 362 L 81 360 L 80 361 L 80 363 L 79 363 L 79 365 L 78 365 C 78 366 78 367 76 367 L 75 370 L 75 371 L 73 377 C 70 380 70 372 70 370 L 71 369 C 71 367 73 367 72 365 L 72 364 C 72 364 72 363 72 364 C 71 362 74 360 75 357 C 76 354 76 351 78 349 C 79 347 81 344 83 345 C 84 340 88 336 90 333 L 94 331 C 96 330 97 333 99 331 L 103 329 C 103 328 105 328 104 327 L 107 326 L 108 323 C 109 319 112 322 114 322 C 117 322 117 320 119 320 L 122 321 L 124 322 C 128 321 132 321 136 324 C 138 323 139 325 142 326 L 146 326 C 148 326 149 326 150 328 C 151 328 152 328 153 330 L 155 330 C 156 331 159 330 159 332 C 162 332 162 337 160 338 L 155 339 L 155 340 C 156 339 153 337 153 340 L 149 340 C 146 339 147 340 147 343 C 138 348 152 354 155 358 C 156 363 151 367 150 371 C 149 374 152 377 149 379 C 150 394 167 373 160 398 C 163 402 165 395 167 395 C 167 396 167 398 169 397 L 179 409 C 177 414 187 422 189 427 C 193 434 194 421 200 428 C 203 429 202 422 205 422 C 211 424 210 416 215 417 C 225 421 230 416 236 408 C 239 407 244 410 242 403 C 247 401 249 398 249 393 Z"/>
        </g>
    </g>
</svg>
