<?xml version="1.0" encoding="UTF-8"?>
<!-- Generated by Pixelmator Pro 3.6.10 -->
<svg width="664" height="537" viewBox="0 0 664 537" xmlns="http://www.w3.org/2000/svg">
    <g id="Landen">
        <g id="BOSNIE--HER">
            <path id="BA-89" fill="#de4f67" stroke="#231f20" stroke-width="0.4" stroke-linejoin="round" d="M 504 491 C 515 480 500 487 506 473 C 494 476 487 464 488 455 C 496 446 479 439 487 427 C 486 418 504 422 504 416 C 495 402 503 384 499 378 C 487 369 467 361 460 377 C 447 373 452 386 456 388 C 451 398 464 397 469 403 C 469 413 463 402 459 420 C 436 418 443 443 461 450 C 460 455 461 459 456 457 C 450 454 461 466 451 465 C 439 465 414 437 429 467 C 451 483 476 492 496 505 C 497 503 501 503 502 499 C 503 497 506 498 507 499 C 514 498 504 494 504 491 Z"/>
            <path id="BA-88" fill="#ef778b" stroke="#231f20" stroke-width="0.4" stroke-linejoin="round" d="M 252 339 C 248 333 254 326 244 328 C 250 338 241 349 253 353 C 247 341 251 348 252 339 Z M 482 496 C 466 498 403 451 432 456 C 443 460 453 477 456 458 C 460 460 461 455 461 450 C 450 448 446 436 442 429 C 450 428 447 418 461 421 C 461 409 463 411 469 407 C 469 397 453 403 455 391 C 457 386 453 390 453 384 C 453 377 445 375 444 370 C 439 367 437 369 436 373 C 421 373 438 364 430 355 C 434 353 437 353 441 353 C 444 351 442 349 441 347 L 438 338 C 437 334 447 333 446 330 C 440 335 443 324 436 327 C 431 333 436 338 427 331 C 426 333 425 334 425 332 C 420 311 403 328 402 321 C 396 320 406 319 401 315 C 393 315 393 299 386 309 C 380 309 375 294 371 298 C 367 298 358 303 353 309 C 339 307 306 303 317 328 C 327 331 347 345 333 361 C 322 352 323 368 313 369 C 308 368 272 372 297 381 C 301 386 305 377 312 382 C 318 383 318 392 314 396 L 329 416 C 355 423 334 426 355 432 C 366 434 376 437 382 448 C 391 457 386 457 379 463 C 375 466 371 466 377 467 C 382 470 374 468 372 467 C 370 468 369 468 373 469 C 388 476 382 461 397 466 C 406 470 401 453 414 474 C 418 475 416 475 416 478 C 422 479 430 480 433 484 C 439 486 448 487 449 494 C 456 493 454 498 460 497 C 464 498 468 503 470 504 C 472 499 484 501 482 496 Z M 276 348 C 274 348 274 345 273 347 C 274 352 258 353 263 360 C 263 361 282 352 276 348 Z"/>
            <path id="BA-80" fill="#c64e57" stroke="#231f20" stroke-width="0.4" stroke-linejoin="round" d="M 339 342 C 330 342 329 325 318 329 C 311 320 318 314 320 305 C 319 307 310 290 309 301 C 308 302 307 299 305 299 C 299 287 291 275 277 278 C 259 276 269 285 264 289 C 246 299 244 269 234 269 C 224 276 209 285 204 271 C 198 270 202 261 206 261 C 221 249 166 224 170 239 C 177 261 159 259 155 271 C 160 273 155 279 156 282 L 151 284 C 154 283 155 282 158 284 C 161 288 169 289 171 296 C 174 298 178 299 181 302 C 183 302 187 299 189 302 C 188 312 205 306 207 319 C 215 322 224 329 232 334 C 229 343 250 352 246 339 C 249 332 239 325 251 327 C 248 334 257 340 249 344 C 257 360 262 357 273 347 C 272 346 273 345 274 345 C 280 348 275 351 273 355 C 260 356 266 363 273 368 C 277 372 283 374 287 375 C 289 377 287 372 289 371 C 301 367 316 373 320 363 C 329 355 339 359 339 342 Z"/>
            <path id="BA-79" fill="#ef778b" stroke="#231f20" stroke-width="0.4" stroke-linejoin="round" d="M 240 218 C 235 211 231 203 234 195 C 232 195 223 198 225 193 C 227 186 217 189 216 183 C 221 175 202 175 206 167 C 212 163 216 163 223 164 C 225 166 225 162 223 162 L 223 160 L 220 156 C 219 155 223 151 221 149 C 220 144 229 137 226 132 C 223 132 224 124 220 129 C 218 126 215 127 213 127 C 212 123 207 127 210 123 C 211 117 220 117 216 111 C 214 105 217 85 210 88 C 215 89 209 91 207 91 C 205 87 211 87 207 85 C 203 79 205 90 201 88 L 200 88 C 204 89 198 89 199 91 L 200 91 C 202 95 198 90 199 93 C 203 94 198 94 198 97 C 198 97 197 93 195 96 C 201 103 189 102 186 101 C 181 100 177 104 171 101 C 167 98 165 100 162 102 C 158 102 157 102 155 105 C 152 111 156 117 150 121 C 142 125 150 133 145 138 C 144 143 147 146 139 146 C 135 150 130 150 126 153 C 128 169 165 167 151 180 C 140 198 189 209 197 218 C 124 239 237 234 201 269 C 212 288 245 271 238 254 C 234 244 226 248 229 240 C 226 235 232 242 233 238 C 236 235 232 232 234 230 C 231 229 234 228 233 226 C 225 221 230 222 234 217 C 236 215 241 222 240 218 Z"/>
            <path id="BA-78" fill="#c64e57" stroke="#231f20" stroke-width="0.4" stroke-linejoin="round" d="M 335 213 C 331 211 324 212 326 205 C 319 209 321 198 317 197 C 315 199 310 198 311 195 C 313 193 316 190 313 186 C 311 183 310 183 307 183 C 305 180 305 172 304 169 C 297 166 302 161 302 155 C 306 153 311 157 313 153 C 318 158 331 151 322 145 C 320 142 322 138 324 137 L 326 131 C 325 131 324 132 326 130 C 327 129 325 129 325 128 C 325 127 325 125 323 126 C 324 125 322 123 321 122 C 321 121 318 118 320 116 C 323 115 319 113 319 111 L 318 111 C 316 110 317 106 317 104 C 307 107 318 95 315 93 C 306 93 299 82 292 94 C 288 96 284 88 284 94 C 284 97 281 95 279 96 C 275 100 281 88 276 93 C 276 94 274 95 273 94 C 273 83 267 103 252 91 C 246 87 250 101 239 98 C 228 96 218 91 216 87 C 214 96 215 108 217 116 C 215 118 208 121 209 125 C 212 124 213 128 217 127 C 236 131 219 140 222 150 C 221 156 218 155 222 160 L 223 162 L 224 164 C 219 162 204 163 206 170 C 208 174 211 175 215 177 C 217 181 215 187 222 187 C 229 190 221 199 232 195 C 234 199 231 215 244 212 C 247 208 252 192 256 200 C 262 204 259 211 265 210 C 266 211 271 203 271 207 C 272 215 270 215 280 217 C 284 217 282 211 287 212 C 295 212 301 222 308 223 C 315 226 323 223 329 223 C 328 218 335 215 335 213 Z"/>
            <path id="BA-77" fill="#de4f67" stroke="#231f20" stroke-width="0.4" stroke-linejoin="round" d="M 197 219 C 191 208 135 196 152 178 C 165 170 106 158 133 150 C 137 148 138 147 135 145 L 129 145 C 130 143 127 145 127 143 C 121 144 122 135 114 135 C 112 136 110 134 108 133 L 107 128 L 102 123 C 102 121 100 123 99 122 C 95 124 100 119 98 119 L 96 116 L 92 116 C 91 114 89 119 88 119 L 86 119 C 86 121 86 118 85 120 L 85 117 C 84 116 85 118 83 118 L 81 118 L 81 119 L 80 119 L 79 120 C 77 121 75 118 74 121 L 74 123 L 73 123 L 72 122 L 72 123 L 71 125 L 69 127 L 69 130 L 68 131 L 71 137 C 72 139 73 138 72 141 C 71 142 73 143 71 143 C 70 144 71 145 72 145 L 69 149 L 69 150 L 70 151 L 72 155 L 73 156 L 73 157 L 74 157 C 74 157 74 159 75 158 L 75 159 L 76 160 C 77 160 76 160 76 160 L 76 164 C 68 165 76 179 80 184 C 87 189 72 188 77 194 C 82 198 92 212 93 203 C 95 202 94 204 96 204 L 96 203 C 98 204 96 201 97 200 C 100 199 102 207 107 205 C 108 213 118 210 121 217 C 122 216 122 219 123 220 L 121 220 C 122 222 123 223 120 224 C 114 230 130 231 134 234 C 138 239 137 244 140 250 C 142 248 143 251 144 252 L 142 254 L 139 254 C 139 256 140 258 142 257 C 143 256 145 257 146 258 C 148 258 153 259 151 261 C 147 267 153 279 156 278 C 160 271 153 273 157 265 C 168 262 174 251 170 239 C 170 228 180 218 197 219 Z"/>
            <path id="BA-76" fill="#ef778b" stroke="#231f20" stroke-width="0.4" stroke-linejoin="round" d="M 516 85 C 510 71 497 87 492 80 C 486 81 483 89 479 94 C 426 118 451 77 435 80 C 431 84 433 72 426 74 C 421 73 424 59 420 69 C 425 73 415 74 415 72 C 422 63 413 71 409 69 C 409 70 414 72 411 73 C 403 64 408 75 407 78 C 404 74 398 79 394 74 C 390 65 381 78 376 73 C 372 75 371 66 366 72 C 363 82 371 82 377 88 C 385 96 383 91 389 87 C 388 83 391 88 393 88 C 393 93 396 90 399 93 C 392 96 400 100 395 106 C 390 112 392 126 392 129 C 394 129 395 129 394 128 L 398 127 C 403 124 402 122 403 127 C 405 133 412 126 414 125 C 420 123 421 133 432 129 C 439 133 442 116 449 122 C 453 122 453 117 455 115 C 458 115 469 112 467 120 C 462 127 471 123 466 131 C 469 134 476 129 475 134 C 472 134 476 142 477 140 C 483 130 487 144 491 141 C 494 126 511 149 509 131 C 505 131 511 129 511 127 C 514 124 509 123 514 121 C 511 120 515 118 513 116 C 516 116 514 116 515 113 C 514 112 513 112 515 111 C 514 110 511 107 515 107 C 516 105 515 105 514 105 C 513 104 516 102 513 103 C 508 104 514 101 514 100 C 513 98 512 101 511 100 C 508 100 513 98 511 95 C 514 95 509 91 513 93 C 513 92 513 91 515 91 C 515 89 511 86 516 85 Z"/>
            <path id="BA-75" fill="#f6b0c2" stroke="#231f20" stroke-width="0.4" stroke-linejoin="round" d="M 582 220 L 582 219 C 579 218 583 212 579 215 C 576 209 576 214 575 217 C 572 211 564 214 562 208 C 556 210 563 201 558 203 C 555 211 552 202 547 201 C 541 201 541 195 539 191 C 533 180 527 195 522 188 C 521 187 509 190 509 180 C 506 181 505 178 506 176 C 503 177 504 176 504 173 C 508 166 507 164 504 157 C 498 149 501 150 506 147 C 510 137 493 130 490 142 C 481 128 474 149 474 132 C 467 132 465 133 468 126 C 461 122 477 111 456 115 C 452 115 454 123 449 122 C 448 121 447 120 445 122 C 440 123 439 131 433 130 C 414 131 423 118 408 129 C 401 132 404 122 402 124 C 394 128 392 130 383 130 C 367 134 391 122 378 121 C 374 119 368 122 365 117 C 364 118 369 123 365 124 C 348 138 371 131 375 139 C 384 135 383 139 383 146 L 385 145 L 389 145 L 394 148 C 396 144 395 149 397 147 L 399 151 C 403 153 408 149 408 156 C 410 154 412 155 411 158 C 404 169 390 161 401 178 C 405 194 408 187 420 193 C 410 205 428 194 430 203 C 433 200 434 203 437 204 C 439 207 435 216 442 217 C 448 223 455 220 462 224 C 466 223 467 217 474 220 C 479 216 490 227 493 219 C 497 219 499 225 502 222 L 527 237 C 527 241 533 244 536 247 L 537 244 C 544 242 536 239 535 234 C 547 232 560 240 574 234 C 575 227 578 225 582 220 Z M 501 197 L 501 198 L 501 197 Z"/>
            <path id="BA-74" fill="#bd3855" stroke="#231f20" stroke-width="0.4" stroke-linejoin="round" d="M 412 156 L 408 156 C 408 151 404 151 402 153 C 402 150 398 152 398 149 L 397 147 C 396 149 395 146 395 146 C 394 149 391 146 390 145 L 384 145 C 381 148 386 138 382 137 C 371 141 378 137 369 135 C 360 135 356 132 362 126 C 366 124 368 122 364 118 C 366 122 388 119 381 126 C 371 135 387 131 392 127 C 391 117 396 106 396 99 C 394 93 404 93 393 91 C 394 87 390 87 389 85 C 389 90 387 87 386 89 C 382 97 367 75 356 84 C 346 84 351 69 343 78 C 331 72 335 106 315 96 C 313 97 311 107 315 104 C 319 103 315 110 318 111 L 319 111 L 320 114 C 322 115 320 115 319 117 C 318 119 322 120 320 122 C 322 122 322 124 323 125 L 323 126 C 326 126 324 127 325 128 L 325 131 C 327 131 326 131 326 132 C 327 136 319 138 321 142 C 319 146 327 147 325 151 C 319 158 313 152 309 156 C 301 150 300 161 300 166 C 306 167 304 178 307 183 C 311 183 313 185 315 190 C 315 193 309 194 311 197 C 324 196 316 207 326 205 C 328 226 351 196 357 194 C 364 194 371 188 375 183 C 377 183 377 189 380 189 C 381 183 386 181 392 181 C 394 178 393 177 397 176 C 396 155 408 172 412 156 Z"/>
            <path id="BA-73" fill="#de4f67" stroke="#231f20" stroke-width="0.4" stroke-linejoin="round" d="M 587 297 C 583 296 585 293 583 290 C 584 287 586 293 585 288 C 584 286 587 287 587 285 C 586 281 584 277 581 274 C 577 274 576 269 573 268 C 565 265 560 261 553 254 C 548 251 540 236 536 247 C 532 247 525 232 523 237 C 519 238 523 243 519 242 C 515 244 513 240 509 242 C 511 245 509 248 512 250 C 510 254 511 259 510 263 C 509 264 500 260 501 266 C 503 269 489 268 495 273 C 496 274 494 274 494 274 C 488 274 493 280 493 283 C 494 281 495 285 495 284 C 496 282 498 285 500 286 C 483 288 482 293 482 308 C 493 311 481 312 481 318 C 483 329 466 308 471 335 C 470 345 474 352 476 360 C 475 369 473 365 481 369 C 493 371 499 384 510 367 C 513 365 520 362 514 359 C 517 356 524 352 527 357 C 532 358 529 360 530 364 C 541 374 542 363 545 355 C 541 351 537 349 537 344 C 533 343 532 335 530 337 C 530 339 528 334 526 336 C 523 339 524 332 523 330 C 509 331 525 326 524 321 C 524 315 528 319 529 320 C 533 320 531 326 535 325 C 537 321 543 321 545 317 C 556 316 560 316 555 305 C 554 304 559 303 557 302 C 555 303 555 303 556 301 C 558 304 560 302 562 303 C 566 304 567 297 569 298 C 570 300 576 300 573 302 C 574 304 574 300 575 303 C 578 298 585 303 587 297 Z"/>
            <path id="BA-72" fill="#de4f67" stroke="#231f20" stroke-width="0.4" stroke-linejoin="round" d="M 298 230 C 294 220 292 226 292 232 C 294 233 301 233 298 230 Z M 430 201 C 403 196 436 193 405 189 C 404 184 399 169 394 179 C 376 183 382 196 376 183 C 360 195 342 200 329 220 C 329 227 312 224 307 223 C 305 224 310 227 308 229 C 307 228 306 226 304 228 C 298 223 300 226 302 231 C 298 231 303 238 304 239 C 303 241 302 244 304 245 C 319 251 304 254 317 256 C 323 255 321 262 327 264 C 327 264 328 268 330 266 C 331 267 329 270 333 269 C 334 275 337 276 341 278 C 341 283 346 282 350 285 C 353 283 352 281 351 279 C 357 278 353 272 357 269 C 364 275 364 272 370 266 C 371 266 374 266 371 268 C 374 273 378 266 380 265 L 380 262 L 376 260 C 377 257 384 257 377 255 C 388 253 390 261 400 254 L 403 257 C 404 256 406 254 404 253 C 404 249 408 251 408 247 C 411 247 411 240 411 240 C 408 242 405 245 405 240 C 400 231 406 219 410 212 C 418 214 425 204 430 201 Z"/>
            <path id="BA-71" fill="#bd3855" stroke="#231f20" stroke-width="0.4" stroke-linejoin="round" d="M 523 236 C 513 225 505 226 494 219 C 490 224 483 221 478 219 C 472 219 467 219 462 224 C 453 220 433 221 438 205 C 430 197 426 205 418 211 C 416 213 413 211 410 212 C 406 218 406 223 404 230 C 400 236 406 247 411 240 C 412 246 404 249 404 253 C 405 256 403 258 401 255 C 396 256 392 258 387 257 C 388 252 382 256 377 255 C 385 256 371 261 379 260 C 376 263 382 261 380 264 L 380 265 C 374 270 375 271 370 266 C 364 269 364 277 358 269 C 353 270 358 279 351 279 C 354 282 349 284 349 286 C 353 287 356 291 361 288 C 372 292 364 300 373 296 C 380 304 383 308 393 306 C 391 312 407 314 400 319 C 411 327 410 312 425 326 C 424 329 423 331 426 332 C 426 328 428 331 430 332 C 436 339 432 326 436 326 C 443 323 440 335 446 329 C 446 333 436 333 439 338 L 441 347 C 445 352 439 354 435 351 C 424 355 435 358 433 364 C 423 371 436 376 439 367 C 445 368 445 373 451 377 C 470 379 455 369 479 368 C 472 368 477 363 476 359 C 470 348 471 337 471 325 C 468 315 485 326 481 318 C 480 313 484 314 486 312 C 489 310 483 307 483 309 C 482 306 483 295 485 291 C 483 283 510 292 496 283 C 494 283 496 284 495 285 C 494 283 494 282 493 283 C 492 281 493 279 491 277 C 489 276 494 273 495 274 C 496 273 491 270 495 269 C 502 269 502 258 510 264 C 509 261 512 257 510 255 C 509 253 511 251 512 250 C 508 248 512 244 509 242 C 512 240 515 245 518 242 C 522 243 520 238 523 236 Z"/>
            <path id="BA-70" fill="#f6b0c2" stroke="#231f20" stroke-width="0.4" stroke-linejoin="round" d="M 368 295 C 367 288 356 289 350 287 C 349 283 347 283 343 282 C 342 279 341 277 337 276 C 338 273 336 275 334 274 L 327 264 C 320 258 322 255 311 255 C 315 244 306 251 303 245 C 302 241 304 238 301 234 C 301 230 302 229 300 225 L 308 229 C 310 227 306 221 304 221 C 297 217 292 211 284 212 C 283 219 276 217 271 214 L 271 206 C 257 218 263 201 253 197 C 248 201 247 212 241 212 C 229 207 241 216 239 219 C 236 216 232 217 230 221 C 224 219 233 226 233 227 C 233 229 232 229 234 229 C 233 232 235 236 233 239 C 225 239 230 235 228 244 C 245 248 231 297 265 289 C 268 290 263 280 266 281 C 269 276 274 279 277 278 C 292 275 298 289 306 299 C 307 300 308 302 309 301 C 310 291 320 305 321 307 C 329 311 341 302 350 309 C 355 304 366 302 368 295 Z M 294 224 C 299 228 300 236 292 232 C 291 231 294 224 294 224 Z"/>
        </g>
    </g>
</svg>
