<?xml version="1.0" encoding="UTF-8"?>
<!-- Generated by Pixelmator Pro 3.6.10 -->
<svg width="1906" height="3143" viewBox="0 0 1906 3143" xmlns="http://www.w3.org/2000/svg">
    <g id="Landen">
        <g id="NOORWEGEN">
            <path id="NO-09" fill="#777777" fill-rule="evenodd" stroke="none" d="M 678 949 L 681 945 L 681 935 L 683 928 L 684 922 L 685 917 L 685 913 L 687 909 L 690 904 L 690 901 C 689 898 689 898 691 897 L 694 898 L 696 898 L 698 899 L 696 902 L 696 904 C 697 905 698 904 699 903 L 699 901 L 700 898 L 703 896 L 706 896 L 706 901 L 707 900 L 707 897 L 705 893 C 704 892 703 890 704 888 C 704 885 705 885 707 885 L 712 887 L 715 886 L 714 883 L 713 881 L 715 881 L 717 879 L 715 878 L 713 877 L 716 874 L 720 871 C 722 871 722 871 721 870 L 716 870 C 713 870 713 870 716 865 L 720 859 L 723 857 L 726 859 C 727 861 727 861 728 860 C 728 858 729 858 730 859 C 732 859 733 858 734 855 L 736 851 L 737 849 L 739 847 L 743 849 L 745 855 L 745 860 C 746 861 747 860 748 859 C 750 856 750 856 753 857 C 756 858 756 859 756 861 L 755 867 L 753 869 L 751 871 L 749 873 L 747 873 L 746 874 L 745 875 L 743 876 L 742 877 L 740 876 C 739 875 739 875 739 877 L 737 880 C 735 882 735 882 737 882 L 740 884 L 740 886 L 741 887 L 738 889 C 736 890 735 890 734 888 L 733 889 L 733 892 L 732 896 L 729 896 C 727 897 727 897 726 895 L 726 892 L 724 889 L 722 889 L 722 892 L 723 897 L 722 902 L 720 902 C 719 903 718 902 717 900 L 715 893 L 717 888 C 718 887 718 887 716 887 C 714 887 714 888 713 891 L 713 901 C 713 906 713 908 711 910 L 707 914 L 705 914 L 703 910 C 702 906 702 906 702 910 L 701 915 L 700 915 L 700 922 L 697 925 L 695 925 C 695 926 694 926 693 924 L 691 924 L 690 925 L 689 925 L 691 927 L 695 927 C 696 926 697 927 697 928 L 695 934 L 692 938 L 688 941 L 685 946 L 685 949 L 678 949 Z M 693 913 L 696 910 L 698 907 L 694 909 C 692 910 691 912 692 912 L 693 913 Z M 913 664 L 902 666 L 894 666 L 895 664 C 896 663 896 663 894 662 C 892 661 892 661 893 659 L 900 658 L 907 656 L 907 655 C 906 655 905 654 905 652 C 905 650 905 650 903 651 C 902 653 901 653 898 652 L 894 649 L 893 648 L 891 647 L 894 643 L 899 641 C 901 642 902 641 902 640 C 903 639 902 639 900 639 L 896 638 C 896 636 895 636 891 637 L 886 637 L 887 635 L 889 631 C 889 629 889 629 891 630 L 894 630 C 895 628 895 628 898 630 C 900 631 900 631 900 628 C 901 625 902 625 906 624 C 910 624 911 623 910 622 L 912 622 L 916 621 L 920 619 C 921 618 919 618 915 618 C 907 618 907 618 904 615 L 901 610 L 903 609 L 907 612 L 910 614 L 910 612 C 909 610 909 610 911 610 C 913 610 913 610 910 606 L 906 602 L 909 602 L 916 603 L 919 605 L 920 606 L 922 606 L 924 609 L 926 611 L 929 610 C 930 609 930 609 928 607 L 920 601 L 915 594 L 914 590 C 914 588 915 588 919 592 L 926 600 C 928 603 928 604 929 603 L 930 601 L 929 599 L 927 595 L 925 590 L 924 587 L 926 587 L 930 590 L 934 595 L 935 593 L 937 588 C 938 586 938 586 940 588 L 943 594 L 943 600 L 942 605 L 943 610 L 944 607 L 945 600 L 948 596 L 951 598 L 954 601 L 953 603 L 952 606 L 951 611 L 951 614 L 952 615 L 953 612 L 954 609 L 957 609 L 958 612 L 958 615 L 959 617 L 959 620 L 960 621 L 961 619 L 963 617 L 964 615 L 962 610 L 960 605 L 962 603 L 964 601 L 970 596 L 981 588 L 991 582 L 996 578 L 1000 575 C 1002 574 1002 573 1001 569 C 1001 566 1001 563 1003 560 L 1005 549 C 1005 544 1006 542 1008 540 L 1011 537 L 1017 533 L 1029 526 C 1034 522 1035 522 1042 522 C 1049 522 1050 522 1051 520 L 1053 515 C 1053 512 1054 512 1054 518 L 1055 524 L 1056 515 L 1057 500 L 1058 494 L 1060 497 C 1061 500 1061 500 1061 495 L 1062 487 L 1064 484 L 1068 488 C 1070 490 1073 494 1073 497 L 1076 511 C 1076 520 1076 520 1081 518 C 1084 518 1089 515 1091 514 L 1098 508 L 1100 502 L 1098 497 L 1097 492 L 1103 484 L 1112 472 L 1120 463 L 1126 460 C 1128 460 1129 459 1130 457 L 1131 450 C 1131 445 1131 445 1128 445 C 1126 445 1125 444 1124 442 C 1123 439 1122 437 1123 435 C 1123 433 1123 433 1121 435 L 1116 437 L 1110 434 L 1106 432 L 1105 430 L 1106 425 L 1110 421 L 1111 419 L 1114 417 L 1118 421 L 1121 427 L 1122 428 L 1120 421 L 1117 411 C 1117 408 1117 407 1119 407 L 1120 406 L 1122 410 L 1128 415 L 1140 423 L 1146 429 L 1144 425 L 1142 421 L 1139 418 L 1137 414 L 1137 410 L 1140 404 L 1143 398 L 1145 398 L 1147 401 C 1148 402 1148 402 1148 400 C 1149 398 1149 398 1151 400 L 1153 403 L 1155 404 L 1156 403 L 1157 401 L 1162 400 C 1165 400 1165 400 1165 405 L 1167 411 L 1168 417 L 1169 422 L 1169 425 C 1168 426 1168 426 1171 426 L 1176 423 L 1182 423 C 1186 423 1186 423 1185 422 L 1177 421 C 1171 421 1171 421 1171 419 C 1172 417 1171 414 1170 410 L 1169 403 L 1174 402 L 1180 403 L 1184 404 C 1185 404 1186 404 1186 406 L 1188 406 L 1195 404 L 1207 401 C 1215.498535 396.991699 1223.837891 392.655273 1232 388 C 1234 386 1234 386 1232 386 L 1228 388 L 1223 389 C 1221 389 1221 389 1222 387 L 1226 384 C 1227 384 1228 383 1227 382 C 1227 381 1228 380 1230 380 L 1235 377 C 1238 376 1238 376 1234 376 L 1231 375 L 1229 374 L 1228 370 L 1234 356 C 1236.694824 350.603027 1238.709961 344.892578 1240 339 C 1240.005371 337.666504 1240.005371 336.333496 1240 335 L 1235 335 L 1231 333 L 1229 330 L 1227 328 L 1225 325 C 1224 324 1223 323 1222 324 C 1220 324 1220 324 1221 322 L 1221 316 L 1219 316 L 1220 314 L 1219 311 C 1217 309 1216 307 1216 303 C 1216 299 1216 298 1220 297 L 1225 297 L 1226 298 L 1227 301 L 1227 302 L 1230 300 L 1238 301 L 1244 305 L 1246 307 L 1247 308 L 1249 311 L 1250 315 L 1249 321 L 1247 327 L 1246 332 L 1257 332 C 1263 332 1265 333 1267 334 C 1269 337 1269 337 1269 334 L 1266 330 L 1260 327 L 1254 326 L 1252 322 L 1254 315 L 1254 300 C 1254 299 1254 297 1256 296 L 1261 295 L 1265 296 L 1268 297 L 1274 301 C 1277 303 1277 303 1278 302 L 1279 299 L 1275 294 L 1271 290 L 1270 289 L 1267 288 L 1265 287 L 1264 285 C 1264 283 1264 283 1262 284 C 1256.674805 285.124023 1251.144043 284.77832 1246 283 L 1245 279 L 1244 275 L 1242 272 L 1244 269 L 1245 268 L 1245 266 L 1247 265 L 1249 267 L 1251 268 L 1253 269 C 1253 270 1255 272 1259 273 C 1265 275 1265 275 1265 272 L 1263 269 L 1261 268 L 1259 265 L 1259 262 L 1263 260 L 1265 259 L 1260 257 L 1255 256 L 1256 255 C 1257 253 1257 253 1255 253 L 1253 251 L 1252 248 L 1252 246 C 1250 246 1251 245 1253 242 C 1255 239 1256 239 1257 240 L 1259 240 L 1261 238 L 1263 240 C 1263 242 1265 243 1266 244 L 1270 247 L 1272 247 L 1273 246 L 1274 242 C 1273 238 1274 237 1275 236 L 1278 238 L 1280 242 L 1278 249 C 1276 253 1276 253 1278 253 L 1281 253 L 1282 249 C 1282 246 1283 245 1284 244 C 1286 242 1286 242 1290 245 L 1296 253 C 1299 257 1299 258 1300 257 L 1302 256 L 1303 253 L 1301 249 L 1301 248 L 1302 245 C 1302 243 1300 241 1297 237 L 1292 231 C 1293 230 1294 229 1297 230 L 1302 231 L 1305 233 L 1308 235 L 1309 240 L 1307 245 C 1305 246 1306 247 1307 248 C 1308 249 1308 249 1308 247 L 1309 244 L 1312 240 L 1314 235 L 1318 234 L 1320 236 L 1321 238 L 1322 237 L 1324 234 L 1327 232 C 1329 232 1329 233 1329 235 L 1329 237 L 1331 236 C 1332 235 1332 235 1332 237 L 1330 243 L 1328 249 C 1328 252 1328 253 1325 256 C 1322 258 1322 259 1323 260 C 1324 262 1324 262 1326 260 L 1327 259 L 1328 262 L 1328 264 L 1325 264 L 1322 271 L 1319 278 L 1317 285 L 1316 292 L 1314 298 L 1312 304 L 1309 308 C 1309 310 1309 310 1312 308 C 1315 306 1316 306 1317 307 L 1318 310 L 1313 313 L 1310 315 L 1312 317 L 1315 316 C 1317 315 1319 314 1320 315 L 1321 316 L 1320 321 C 1320 325 1320 325 1322 325 C 1324 325 1325 326 1325 327 L 1323 329 L 1321 328 C 1320 327 1320 327 1320 329 L 1318 335 C 1318 338 1318 338 1319 337 C 1321 335 1321 335 1320 339 C 1320 344 1320 344 1322 341 C 1324 340 1325 339 1326 340 L 1327 343 L 1327 347 L 1325 351 L 1322 356 C 1319 359 1319 360 1320 363 L 1321 366 L 1321 367 L 1322 369 L 1323 372 L 1324 380 C 1326 384 1327 385 1329 385 C 1331 385 1332 386 1332 387 L 1333 387 L 1334 385 L 1331 382 C 1328 381 1328 380 1328 377 C 1328 373 1328 372 1330 372 L 1331 370 L 1332 370 L 1332 373 L 1333 375 L 1334 374 C 1334.20459 373.416016 1334.667969 372.959961 1335.254883 372.764648 C 1335.841797 372.568848 1336.48584 372.655762 1337 373 L 1335 376 C 1333 378 1333 378 1336 381 L 1340 384 L 1341 382 L 1342 379 L 1342 360 C 1344 359 1344 356 1345 352 L 1346 344 L 1346 339 L 1345 337 L 1341 337 C 1339 336 1339 336 1339 331 C 1340.036133 327.343262 1341.036133 323.67627 1342 320 L 1343 311 C 1343.689453 302.405762 1345.713867 293.971191 1349 286 L 1352 280 L 1351 273 L 1349 265 L 1349 257 L 1351 255 L 1352 249 C 1353.355957 238.142578 1355.69873 227.431641 1359 217 L 1365 207 C 1368 204 1368 204 1370 206 L 1372 210 L 1374 214 L 1374 220 L 1375 225 L 1377 225 C 1379 224 1379 225 1380 228 L 1381 238 L 1379 248 C 1376.144531 253.302734 1372.796387 258.324707 1369 263 L 1373 261 L 1380 257 L 1382 256 C 1381 255 1382 254 1383 253 C 1384 252 1384 252 1384 254 L 1385 257 L 1389 267 C 1390.833984 272.142578 1391.846191 277.541992 1392 283 L 1393 286 C 1395 286 1395 287 1395 291 C 1394 295 1395 297 1396 299 L 1397 305 L 1398 309 L 1399 306 L 1401 302 L 1403 301 L 1402 300 C 1400 300 1400 299 1400 297 C 1400 294 1400 294 1403 294 C 1406 294 1406 294 1407 292 L 1405 285 C 1403 283 1403 282 1405 282 L 1407 281 C 1407 279 1408 279 1409 280 L 1413 280 C 1415 278 1415 278 1415 280 L 1416 283 L 1418 280 C 1419 277 1419 277 1421 277 L 1423 277 L 1421 276 L 1418 275 L 1416 273 L 1413 270 C 1411 268 1411 268 1412 267 C 1413 265 1413 265 1411 264 L 1409 263 L 1409 260 L 1410 255 C 1411 253 1411 253 1412 254 L 1419 255 C 1424 255 1424 255 1423 254 L 1416 251 L 1410 248 L 1411 245 C 1412 243 1412 243 1410 243 L 1411 242 C 1412 241 1412 241 1410 241 C 1407 241 1406 240 1406 236 C 1406 233 1406 232 1408 231 C 1409 229 1410 229 1414 229 C 1418 230 1418 230 1418 228 L 1417 226 L 1415 226 L 1412 223 L 1410 218 L 1410 214 L 1419 213 L 1428 212 C 1429 211 1428 211 1424 211 L 1418 210 L 1419 208 L 1420 205 L 1418 205 L 1416 204 C 1416 202 1415 202 1414 203 L 1411 204 L 1411 201 C 1411 198 1411 198 1410 201 L 1404 205 C 1400 206 1399 206 1396 204 C 1393 203 1393 202 1392 200 L 1392 195 C 1391 193 1392 193 1395 193 L 1401 195 C 1403 195 1403 195 1401 192 L 1395 188 C 1392 187 1392 187 1392 184 L 1393 180 L 1398 181 L 1408 181 L 1412 186 C 1412 188 1414 189 1414 188 L 1413 184 L 1410 178 L 1406 174 L 1404 170 L 1405 165 C 1406 164 1407 163 1408 164 L 1409 163 L 1408 160 L 1408 158 L 1409 158 L 1413 159 C 1415 159 1415 159 1415 164 L 1416 168 L 1417 168 L 1419 169 L 1420 166 L 1421 165 L 1422 167 L 1423 169 L 1425 167 L 1427 167 L 1428 163 L 1429 159 L 1430 161 C 1431 163 1431 163 1431 160 L 1433 157 L 1435 160 L 1436 162 L 1437 160 L 1438 155 C 1438 154 1439 153 1441 153 L 1445 155 L 1447 158 L 1446 160 L 1446 165 L 1447 167 C 1448 166 1448 166 1448 168 L 1449 170 L 1451 170 L 1452 167 L 1455 164 L 1462 163 C 1466 163 1466 163 1468 167 L 1469 175 C 1469 180 1469 181 1466 182 C 1463 183 1463 183 1466 183 C 1470 182 1470 182 1469 184 L 1467 188 L 1467 190 L 1468 192 L 1464 194 C 1462 194 1462 194 1464 195 C 1466 196 1466 196 1465 198 L 1464 201 L 1460 202 L 1456 203 L 1455 204 L 1451 204 C 1448 202 1448 202 1448 204 L 1446 207 L 1441 209 C 1437 211 1437 211 1440 211 C 1442 211 1443 211 1443 213 L 1441 216 L 1443 214 L 1449 210 L 1453 211 L 1460 211 C 1463 212 1463 212 1462 215 L 1456 224 L 1453 230 C 1454 231 1453 232 1450 236 C 1447 238 1446 240 1447 240 L 1451 238 L 1456 233 L 1464 222 C 1468 216 1470 215 1474 213 L 1484 212 L 1492 211 L 1488 210 L 1484 207 L 1484 200 L 1486 187 L 1489 176 L 1493 172 L 1497 171 L 1501 170 L 1506 171 L 1510 171 C 1511 170 1512 169 1513 170 L 1516 173 L 1519 177 L 1523 177 C 1527 176 1527 176 1526 179 L 1524 184 L 1524 187 L 1529 186 C 1533 184 1533 184 1530 186 L 1527 190 L 1529 191 L 1532 191 L 1530 195 C 1528 197 1528 198 1529 198 L 1531 196 L 1534 191 L 1539 187 L 1544 181 C 1546 178 1548 177 1550 177 C 1552 177 1553 178 1555 181 L 1557 191 C 1556 196 1556 196 1559 193 L 1561 186 L 1562 179 L 1565 175 L 1570 174 L 1576 175 C 1579 176 1579 176 1578 178 C 1576 181 1576 181 1582 181 L 1590 183 C 1591 185 1591 185 1589 190 C 1588 195 1587 196 1585 197 L 1583 199 L 1585 200 C 1586 199 1586 199 1585 200 L 1581 203 C 1580 204 1580 204 1583 204 C 1586 204 1587 203 1589 200 L 1596 193 C 1598 191 1600 190 1604 190 L 1609 187 L 1611 186 L 1612 187 L 1612 191 C 1612 193 1613 194 1618 195 L 1624 197 L 1624 201 C 1625 202 1625 203 1626 202 L 1628 202 C 1629 203 1629 203 1630 201 C 1630 199 1631 197 1633 196 L 1636 195 L 1640 198 L 1645 202 L 1647 205 L 1648 207 L 1651 213 L 1654 216 L 1655 217 L 1654 219 L 1650 222 L 1643 228 L 1639 232 L 1637 233 L 1631 237 C 1629 238 1629 240 1629 242 L 1627 246 L 1624 250 C 1623 252 1624 254 1625 256 C 1628 258 1628 258 1625 262 L 1622 266 L 1619 270 C 1617 273 1617 273 1620 273 C 1623 273 1623 273 1618 276 L 1610 280 C 1606 282 1603 283 1595 284 L 1581 286 L 1572 288 L 1560 290 C 1556 291 1553 292 1551 291 L 1546 292 L 1543 292 L 1540 291 L 1537 294 C 1537 296 1535 299 1533 300 L 1532 303 L 1535 304 L 1541 301 L 1546 299 L 1548 301 L 1545 303 L 1547 303 C 1552.317383 302.209961 1557.651855 301.542969 1563 301 L 1565 301 L 1567 302 L 1570 302 L 1570 304 L 1569 307 L 1571 307 L 1574 305 L 1578 303 L 1590 302 C 1601 302 1602 302 1602 304 L 1600 310 C 1598 313 1598 313 1600 313 L 1602 312 L 1605 312 C 1607 313 1607 313 1608 311 C 1609 309 1609 309 1612 311 L 1615 316 L 1617 320 C 1619 321 1619 322 1618 327 L 1617 334 L 1617 345 C 1617 347 1616 348 1615 348 L 1615 349 L 1616 353 L 1616 356 L 1617 353 L 1619 347 L 1619 342 L 1621 339 L 1625 335 L 1630 334 C 1631 335 1632 334 1632 333 L 1633 329 L 1636 325 C 1637 324 1638 323 1639 324 C 1640 324 1641 325 1640 326 L 1640 329 L 1643 331 L 1645 333 L 1646 334 L 1647 333 L 1644 328 C 1642 326 1642 326 1644 324 L 1646 321 L 1641 315 C 1638 312 1637 309 1637 307 L 1639 303 L 1642 302 L 1646 302 C 1648 302 1648 303 1647 305 L 1647 307 L 1649 306 L 1651 306 L 1655 310 L 1657 314 L 1659 315 L 1657 312 C 1656 309 1656 309 1658 307 L 1661 305 L 1667 304 L 1673 303 L 1674 307 L 1675 310 L 1677 306 L 1680 303 L 1685 306 L 1689 311 L 1693 316 L 1697 320 L 1700 327 L 1704 334 L 1703 340 C 1702 342 1701 345 1699 346 L 1691 348 L 1675 345 L 1660 341 L 1653 341 L 1651 343 L 1654 345 L 1660 351 C 1663 356 1663 358 1664 366 C 1663.788086 372.005859 1663.455078 378.007324 1663 384 C 1661 385 1660 386 1658 385 C 1656 385 1655 385 1654 387 L 1652 390 L 1650 394 L 1648 402 C 1647 407 1646 408 1644 409 L 1637 412 L 1632 417 L 1632 422 L 1635 428 C 1637 431 1639 436 1639 439 C 1640.438477 447.942383 1640.438477 457.057617 1639 466 C 1638 470 1638 470 1633 469 L 1622 470 L 1609 473 L 1600 473 C 1598 472 1595 471 1594 469 L 1593 463 L 1596 456 L 1604 447 C 1609 442 1609 442 1606 434 C 1600.512207 421.649414 1597.131836 408.467285 1596 395 C 1596 387 1594 378 1593 374 C 1591 368 1590 366 1586 363 C 1583 360 1579 358 1576 357 C 1566.932129 354.215332 1557.484863 352.865723 1548 353 C 1538 353 1537 353 1535 351 C 1534 349 1527 346 1521 343 L 1506 333 L 1500 326 L 1497 322 L 1492 326 C 1489 329 1487 330 1485 330 L 1480 332 L 1478 337 C 1478 340 1477 342 1475 345 L 1470 351 C 1468 353 1468 354 1469 356 L 1469 359 L 1463 365 C 1459 369 1459 369 1453 369 L 1445 368 L 1441 368 L 1434 371 L 1427 375 C 1425 377 1425 379 1425 386 L 1421 407 C 1418 418 1417 420 1414 423 C 1412 425 1411 426 1411 430 C 1411 434 1412 436 1415 439 L 1418 446 L 1416 452 C 1415 455 1415 456 1417 459 L 1419 470 C 1419 475 1419 476 1422 478 C 1424 480 1424 481 1424 487 L 1424 499 L 1426 510 L 1432 523 L 1439 535 L 1443 546 L 1444 559 L 1443 567 L 1436 571 C 1433 572 1429 574 1428 576 C 1425.847168 581.611816 1423.84668 587.280273 1422 593 C 1421 598 1421 599 1423 605 C 1424.532715 610.954102 1425.866699 616.957031 1427 623 L 1425 625 L 1423 626 L 1421 628 C 1419 629 1419 630 1419 635 L 1419 640 L 1414 636 L 1406 629 C 1403 628 1399 626 1395 626 L 1380 623 L 1364 621 L 1353 616 L 1344 613 L 1340 616 C 1339 617 1337 620 1337 623 L 1336 633 C 1336 639 1336 639 1329 643 C 1325 645 1319 650 1316 654 C 1310 660 1310 660 1303 658 C 1292.808105 655.90918 1282.375977 655.236328 1272 656 L 1260 659 L 1256 661 C 1251.929688 654.375977 1247.929199 647.708984 1244 641 C 1224.887207 618.394043 1201.851563 599.42334 1176 585 L 1165 582 L 1157 583 L 1152 588 L 1150 597 L 1152 609 L 1154 617 L 1157 620 L 1158 627 C 1158 631 1158 631 1156 631 L 1147 628 C 1144 626 1139 625 1137 625 C 1133 625 1132 626 1130 627 L 1127 632 C 1126 635 1125 636 1121 637 L 1115 642 C 1113 645 1113 647 1113 651 C 1113 655 1114 660 1118 671 L 1125 692 L 1126 705 L 1122 716 C 1120 721 1119 722 1121 723 L 1124 723 L 1129 722 L 1133 722 C 1135 724 1135 725 1134 727 L 1133 736 C 1133 740 1132 743 1128 751 L 1122 762 C 1121 765 1121 765 1116 763 L 1101 760 C 1078.747559 757.546387 1056.38623 756.211426 1034 756 L 1021 753 C 1015 751 1015 751 1012 753 L 1005 758 C 1000 762 1000 762 997 759 C 994.007813 756.988281 991.007813 754.988281 988 753 L 978 754 L 959 763 L 941 771 L 928 773 C 921 773 920 773 917 776 L 913 782 L 907 788 C 902 792 902 792 902 795 L 903 801 L 902 803 C 901 803 900 801 900 798 C 900 794 899 793 897 792 C 895 790 894 789 894 786 L 895 783 L 896 781 L 898 780 L 900 782 L 903 783 L 904 781 C 904 779 903 778 901 777 C 899 776 898 775 897 772 C 896 769 896 769 895 771 L 895 779 C 895 781 893 781 890 781 L 884 782 L 880 784 L 876 787 L 874 790 L 872 791 L 873 792 L 873 794 L 872 797 L 870 802 L 869 809 C 869 813 869 814 867 816 L 862 819 L 861 815 L 860 810 C 859 809 859 810 859 811 L 859 814 L 858 816 C 857 817 856 816 855 815 C 853 813 853 813 853 817 L 853 825 L 852 829 C 850 830 850 832 850 833 C 851 835 851 835 849 835 C 847.334961 834.659668 845.667969 834.326172 844 834 L 843 832 L 840 831 L 838 830 L 836 831 L 833 831 L 830 832 L 828 831 L 829 827 L 833 820 L 835 814 C 835 812 835 812 833 815 L 830 819 L 828 820 L 825 826 L 823 831 L 821 836 L 818 839 L 817 840 C 816 842 815 843 813 843 L 808 843 C 806 843 806 843 808 839 L 810 833 L 809 831 L 806 832 L 805 835 L 802 841 L 798 848 L 794 852 C 793 854 792 854 792 853 L 791 849 L 792 844 C 793 843 792 842 791 840 C 789 838 789 838 790 843 L 789 850 L 789 860 L 787 859 C 786 858 785 859 782 862 C 778.931885 865.665039 775.199951 868.71875 771 871 L 765 874 L 762 875 L 761 872 L 760 867 C 759 866 760 865 761 864 C 763 862 763 862 762 861 C 761 860 761 860 763 858 C 763 856 765 855 765 855 L 765 854 L 764 850 L 764 845 L 768 845 C 771 847 771 847 771 845 L 770 842 L 769 839 L 768 837 L 767 836 L 771 833 C 774 831 775 831 776 833 L 778 834 C 779 834 778 832 776 831 C 774 829 774 829 776 827 L 779 825 L 782 824 L 784 828 L 786 831 L 786 829 L 785 825 L 786 823 L 791 823 C 793 823 794 824 795 826 C 795.664551 827.001465 796.331299 828.001465 797 829 L 797 827 L 796 821 C 796 818 796 817 797 818 L 800 819 L 803 818 L 804 817 L 806 816 L 809 814 C 811 814 812 813 812 812 L 820 812 L 818 809 C 816 808 815 806 816 805 L 817 803 L 818 802 L 814 802 C 812 802 812 801 812 799 L 813 794 L 816 793 C 818 793 819 793 819 791 L 821 788 L 823 785 L 825 782 L 829 781 L 831 780 L 829 778 C 827 778 826 776 825 775 L 824 771 L 822 769 L 821 772 L 817 779 L 812 785 L 809 787 C 809 788 808 789 807 788 L 806 789 L 804 792 C 802 794 800 795 795 795 L 788 795 L 789 793 L 790 792 L 787 791 L 784 790 C 783 788 783 788 785 786 L 788 784 L 792 782 L 797 779 C 798 778 799 778 798 777 L 799 773 L 802 772 L 803 770 L 802 766 C 802 764 801 764 799 764 C 796 764 796 764 797 766 C 799 767 799 768 797 771 L 795 774 L 792 774 C 790 773 790 773 790 775 L 790 779 L 787 780 L 785 781 L 783 783 L 782 783 L 780 785 L 778 784 L 776 781 C 775 780 775 780 775 783 L 775 789 L 773 792 L 771 794 L 768 796 L 766 798 L 765 798 L 763 797 L 761 797 L 761 794 L 760 792 L 759 791 L 760 788 L 761 786 L 760 787 L 758 788 L 757 787 L 756 785 C 755 784 755 784 757 783 L 758 779 L 759 776 L 762 775 C 764 775 764 775 763 774 C 762 773 761 772 760 773 L 759 772 L 757 771 L 757 769 L 760 766 L 762 761 L 762 760 L 765 762 L 766 766 L 767 768 L 768 762 C 768 756 768 756 770 756 C 771 756 772 756 772 759 L 773 766 C 774 770 774 770 776 766 L 780 762 L 784 760 L 785 762 L 785 764 L 787 763 L 787 757 C 788 756 787 755 785 753 C 783 752 783 751 784 749 L 786 747 L 790 749 C 792 751 792 751 792 749 L 794 747 L 797 750 C 799 753 799 753 799 750 C 799 748 797 747 795 746 L 793 743 C 793 741 793 741 791 742 L 790 741 L 790 737 L 788 734 L 786 730 L 786 725 C 785 723 786 722 787 722 L 789 719 C 790 717 791 717 793 717 L 796 718 L 796 723 L 797 728 L 798 730 L 801 728 L 804 726 L 805 728 L 804 731 L 802 732 L 800 732 L 800 733 L 804 733 L 807 734 L 807 742 L 808 744 L 809 743 C 810 741 810 741 811 742 L 813 743 C 815 744 815 745 815 746 L 814 751 C 814 753 813 754 812 754 C 810 755 810 755 811 756 L 812 759 C 811 761 811 762 814 762 L 819 764 C 820 766 821 766 824 765 C 828 764 828 764 824 761 C 822 759 821 758 822 757 L 821 754 L 820 751 L 822 749 L 824 748 L 828 747 C 831 747 832 747 831 746 L 829 744 C 827 744 826 742 825 741 C 823 740 823 738 823 737 L 825 735 L 826 729 C 825 724 826 723 827 722 L 830 720 L 834 720 L 838 719 L 841 718 L 843 722 L 846 727 C 848 729 848 730 848 740 C 847.674316 745.437988 846.666504 750.813477 845 756 L 849 752 C 850 749 853 747 853 747 L 856 750 L 857 757 L 855 766 L 850 774 C 847 779 847 779 849 784 L 852 788 L 851 785 L 850 779 C 850 778 851 776 853 776 L 855 772 L 859 768 L 861 766 L 860 759 C 860 754 860 754 868 754 C 875 755 875 754 873 753 L 867 749 C 864 747 861 745 861 743 C 859 741 859 740 860 739 C 860 737 862 735 863 734 C 865 731 865 731 869 733 L 874 735 L 870 729 C 867 726 865 724 866 723 C 866 721 867 722 869 724 C 870 726 873 727 875 728 L 881 730 L 884 733 L 885 735 L 889 733 L 889 735 C 889 739 889 739 891 738 C 893 738 893 738 893 740 L 892 743 L 892 746 L 893 751 L 893 752 L 894 751 C 895 750 895 752 895 754 L 895 759 L 897 759 C 899 759 899 759 898 761 L 897 766 C 897 769 897 769 898 767 L 902 763 L 905 760 L 908 756 L 913 754 L 917 751 C 918 748 920 747 921 747 L 924 748 L 925 751 L 927 752 L 928 749 C 928 746 928 745 932 743 L 941 740 C 947 740 947 740 948 743 L 950 746 L 953 746 C 956 746 956 746 952 742 L 946 737 L 943 738 L 937 738 L 935 735 L 938 731 L 942 726 C 945 723 945 723 950 724 C 955.929688 725.909668 961.93457 727.577637 968 729 L 967 727 C 960.333496 724.999023 953.666992 722.999023 947 721 L 947 717 C 947 715 950 713 952 711 C 954 708 957 706 958 706 L 959 708 C 958 710 958 710 962 710 L 967 709 L 964 706 L 959 704 C 958 705 957 704 956 703 L 954 701 L 951 703 L 947 707 L 943 709 C 942 710 941 709 941 706 L 941 701 L 944 698 C 946 698 946 697 945 696 L 941 695 C 939 695 939 695 940 692 L 944 683 L 948 675 L 946 674 L 944 672 L 950 668 L 958 663 L 964 659 L 968 659 C 970 660 971 660 972 658 C 975 656 975 656 972 656 C 970 657 969 656 968 655 L 967 653 L 966 648 L 965 645 L 961 645 C 960 646 959 646 959 642 L 958 635 C 957 633 958 632 960 629 L 962 625 L 960 624 L 956 626 L 953 630 L 952 632 L 952 634 L 954 636 L 956 639 L 958 643 L 955 646 C 953 647 953 647 955 648 L 958 650 L 961 651 C 964 651 964 651 962 654 L 957 658 L 950 660 L 944 663 C 942 665 942 665 941 664 L 937 664 L 934 666 C 933 667 933 666 933 665 L 933 660 L 934 658 L 932 657 C 930 657 930 658 928 662 C 928 666 926 669 926 669 L 924 673 L 921 678 L 918 685 C 918 687 918 688 919 687 L 921 687 L 922 690 L 918 694 L 912 697 L 911 695 L 910 692 L 909 691 L 912 686 L 915 683 L 911 684 C 908 686 907 687 906 686 C 906 685 905 685 904 687 C 903 688 902 690 900 690 L 895 692 C 894 692 893 692 894 691 L 893 689 L 892 684 C 892 681 893 680 895 680 C 897 680 898 679 898 678 L 900 675 C 901 674 903 673 904 674 L 907 674 L 907 668 L 911 665 L 913 664 Z M 837 809 L 839 804 L 837 806 L 835 811 L 837 809 Z M 933 757 L 935 756 L 933 754 L 930 753 L 931 755 L 933 757 Z M 960 745 L 963 744 L 959 743 L 957 744 L 960 745 Z M 820 738 C 818 739 818 739 816 737 L 813 729 L 812 719 L 813 713 L 814 709 L 815 704 L 816 701 C 815 700 816 698 817 698 L 818 695 L 820 693 L 824 690 L 828 686 L 828 682 C 827 681 827 680 829 680 L 830 676 L 829 671 C 833.964355 665.633301 838.964355 660.299805 844 655 L 845 658 L 847 663 L 846 669 L 846 685 C 842.985352 690.496094 840.313477 696.173828 838 702 L 838 707 L 835 711 L 832 713 L 828 718 C 824 722 824 722 824 719 C 823 717 823 716 820 716 C 818 716 818 716 820 717 L 822 719 L 823 725 L 822 732 L 820 738 Z M 885 725 L 878 725 L 873 720 L 867 716 L 864 713 L 865 709 C 867 708 868 708 873 710 C 877 712 878 712 879 711 L 882 712 L 884 712 L 884 709 L 886 709 C 887 710 888 711 887 712 L 888 713 C 890 714 890 715 889 717 L 890 720 C 891 720 891 721 889 723 L 885 725 Z M 918 630 L 919 629 L 917 627 L 914 626 L 915 628 L 918 630 Z M 961 593 L 957 591 L 953 589 L 949 589 C 948 589 947 588 947 585 L 947 580 L 948 578 L 949 578 L 952 576 L 956 574 C 958 574 960 575 961 577 L 964 579 L 964 576 C 965 574 965 574 963 574 L 959 572 L 955 569 L 953 564 C 952 561 952 561 957 561 C 960 562 962 561 964 560 L 972 558 L 976 557 L 960 557 L 957 552 L 957 546 L 960 544 L 962 545 L 964 545 C 965 545 966 545 967 547 C 968 549 968 549 969 545 C 969 542 970 540 972 539 L 975 538 L 976 543 L 978 549 L 980 554 L 982 558 L 984 558 L 983 556 L 982 547 L 982 539 L 983 538 L 980 537 L 975 533 L 973 528 L 974 525 C 974 523 974 523 976 525 C 978 526 978 526 978 524 C 978 523 978 522 980 523 L 983 525 L 983 527 L 987 528 L 992 529 L 995 530 L 996 530 L 992 527 L 989 525 L 987 524 L 986 523 L 982 521 L 975 519 L 973 515 L 973 512 L 975 510 L 979 511 C 980 512 980 512 981 510 C 982 509 982 508 980 508 L 976 505 L 976 499 C 977 496 978 496 981 496 C 983 497 984 496 984 495 L 985 493 L 988 494 L 990 495 L 988 491 L 986 487 L 987 487 C 988 488 988 488 988 486 L 990 484 L 993 483 L 995 481 L 996 483 C 996 485 996 485 998 483 L 1001 481 L 1002 485 C 1002 488 1003 490 1005 493 L 1009 496 L 1009 492 L 1010 486 L 1013 484 L 1015 484 L 1018 488 C 1019 491 1019 491 1021 489 C 1023 487 1023 487 1025 488 L 1027 494 C 1027 497 1026 497 1023 499 C 1019 501 1019 501 1019 504 C 1020 506 1019 511 1018 514 C 1018 518 1016 522 1015 525 C 1014 527 1013 529 1009 531 L 1003 534 L 1000 533 C 998 533 998 533 999 536 L 1001 541 L 999 546 L 997 549 C 997 551 995 553 993 555 C 989 558 988 559 988 562 L 989 566 L 991 565 L 993 566 L 995 569 L 995 572 L 993 576 C 992 579 992 579 988 579 C 985 578 984 579 983 581 L 973 588 L 961 593 Z M 1032 479 C 1029 479 1027 478 1025 476 C 1023 474 1022 473 1023 472 C 1024 471 1024 470 1022 468 L 1018 463 C 1017 460 1015 459 1011 457 L 1006 453 L 1005 451 C 1004 450 1004 450 1006 449 C 1008 449 1008 448 1008 445 C 1008 443 1008 442 1010 442 C 1011 442 1013 444 1014 447 C 1016 450 1016 451 1017 450 C 1018 449 1018 449 1020 452 L 1023 458 C 1025 462 1025 462 1026 457 C 1026 453 1026 452 1028 453 L 1031 454 C 1032 454 1033 455 1033 457 C 1033 458 1033 460 1036 461 L 1039 463 L 1044 464 C 1048 465 1049 465 1048 467 L 1045 470 C 1043 471 1042 472 1043 473 L 1040 477 L 1032 479 Z M 1078 471 L 1076 467 C 1074 464 1074 464 1073 466 L 1071 470 L 1067 469 C 1065 468 1064 467 1063 463 L 1062 453 C 1062 448 1062 446 1064 445 L 1066 442 L 1068 438 L 1073 435 L 1080 435 L 1083 439 L 1085 446 C 1085 448 1085 449 1086 448 L 1088 447 C 1090 447 1092 448 1093 450 L 1095 456 L 1094 459 L 1090 460 L 1088 460 L 1090 462 C 1091 463 1090 464 1088 465 L 1083 467 C 1082 466 1081 467 1080 469 L 1078 471 Z M 1187 398 C 1183 399 1179 398 1176 397 L 1169 395 L 1166 392 C 1165 390 1164 389 1165 388 C 1165 386 1166 386 1168 386 L 1170 386 L 1170 383 L 1171 381 L 1173 382 L 1173 381 C 1173 378 1173 378 1175 378 L 1177 377 L 1178 376 L 1180 375 C 1181 374 1181 374 1182 376 C 1184 378 1184 378 1184 376 L 1185 374 L 1187 374 L 1190 379 C 1191 382 1191 383 1192 382 C 1193 380 1193 380 1195 381 C 1197 382 1198 383 1199 382 C 1200 381 1200 381 1200 383 C 1200 385 1201 386 1202 386 L 1206 390 C 1207 392 1208 394 1207 395 L 1204 396 L 1197 397 L 1187 398 Z M 1212 387 L 1209 386 L 1206 382 L 1206 369 L 1205 373 L 1203 378 L 1196 378 L 1193 374 L 1191 372 L 1188 370 C 1187 369 1187 369 1190 369 L 1193 369 L 1191 367 C 1189 366 1188 365 1188 363 L 1190 360 L 1191 357 L 1192 356 L 1192 354 L 1194 350 C 1197 347 1197 347 1199 348 C 1201 349 1201 349 1201 347 L 1199 344 L 1197 341 L 1201 340 L 1203 341 L 1205 345 L 1207 349 L 1208 352 L 1209 348 L 1206 342 L 1204 339 L 1207 338 C 1211 339 1211 339 1211 337 C 1210 335 1210 335 1212 334 L 1215 331 L 1213 330 C 1211 330 1211 330 1211 327 L 1211 326 L 1208 326 L 1206 325 L 1209 323 L 1213 323 L 1216 322 C 1217 321 1217 321 1218 323 C 1218 325 1219 326 1220 325 L 1221 329 L 1221 336 L 1226 340 L 1229 343 L 1231 347 C 1232 350 1232 350 1230 355 L 1227 361 L 1226 363 L 1226 367 L 1221 372 C 1219 373 1219 373 1221 374 L 1223 376 L 1222 379 L 1220 381 L 1219 382 L 1217 385 L 1212 387 Z M 1143 371 C 1141 371 1141 371 1142 370 L 1142 365 C 1142 363 1142 361 1145 359 L 1147 355 L 1145 354 C 1143 353 1143 353 1145 351 L 1147 347 L 1144 347 L 1139 349 L 1137 352 C 1137 354 1137 354 1136 353 L 1134 353 C 1133 354 1132 355 1131 354 L 1129 352 L 1130 349 L 1131 346 L 1129 347 L 1126 347 L 1124 344 L 1125 341 L 1127 341 C 1127 342 1128 343 1130 342 L 1135 343 L 1139 342 C 1140 341 1141 340 1140 339 L 1138 336 L 1138 335 L 1144 338 L 1150 340 L 1149 337 L 1146 333 L 1145 329 C 1144 326 1145 325 1146 325 L 1148 327 L 1150 329 L 1151 330 L 1153 331 L 1153 329 C 1151 328 1151 327 1152 327 L 1153 324 C 1153 322 1153 322 1155 323 L 1159 325 L 1162 325 L 1163 327 L 1162 329 L 1160 331 L 1160 334 C 1160 335 1161 336 1162 335 L 1162 333 L 1165 332 L 1167 332 L 1168 334 L 1169 332 L 1170 330 L 1173 330 C 1174 329 1173 329 1171 327 L 1168 324 L 1166 321 L 1163 319 L 1162 318 L 1161 316 L 1163 312 L 1166 310 L 1167 312 C 1167 313 1168 314 1170 313 L 1172 314 L 1173 316 L 1174 315 L 1176 315 L 1177 318 L 1177 321 L 1179 323 L 1181 324 L 1183 323 L 1182 321 L 1182 319 C 1184 319 1184 318 1183 316 L 1183 313 L 1184 312 L 1185 310 C 1186 309 1185 307 1184 306 L 1179 304 L 1177 302 L 1179 300 L 1179 298 C 1178 297 1178 297 1180 297 L 1184 299 L 1186 300 L 1186 298 L 1184 295 L 1185 294 L 1189 297 C 1191 299 1192 300 1193 298 L 1193 296 L 1192 294 L 1191 292 L 1190 288 C 1189 284 1189 284 1191 285 C 1192 286 1193 287 1194 286 L 1195 287 C 1194 289 1194 289 1197 289 L 1199 289 L 1199 290 L 1201 291 L 1203 294 C 1206 296 1206 296 1202 296 L 1199 297 L 1201 298 C 1203 299 1203 299 1202 300 C 1200 300 1200 301 1201 303 L 1201 307 L 1198 306 L 1197 306 L 1199 309 L 1198 311 L 1197 315 C 1197 317 1197 318 1194 317 C 1192 317 1191 318 1191 320 L 1193 322 C 1194 321 1194 322 1194 324 L 1192 328 L 1191 329 C 1193 329 1193 330 1193 334 L 1192 339 L 1191 338 L 1190 337 L 1190 340 C 1190 342 1190 342 1187 342 L 1183 342 L 1185 344 C 1186 344 1187 345 1187 347 L 1185 350 C 1183 350 1182 351 1182 352 L 1181 353 L 1179 354 C 1177 354 1177 354 1177 352 C 1177 350 1176 349 1175 349 C 1174 348 1174 348 1174 350 L 1176 355 C 1176 357 1176 357 1175 356 L 1173 351 L 1172 349 L 1170 351 L 1170 357 L 1169 359 C 1168 360 1167 361 1166 360 L 1162 358 L 1162 360 C 1162 363 1162 364 1160 364 L 1158 362 C 1158 360 1158 360 1157 361 L 1157 363 L 1155 365 L 1153 365 L 1151 361 L 1150 360 L 1150 368 L 1148 370 L 1143 371 Z M 1664 333 L 1666 332 L 1667 329 L 1665 326 C 1664 325 1664 325 1664 327 L 1664 333 Z M 1594 326 L 1596 325 L 1597 318 C 1598 313 1598 313 1596 316 C 1595 318 1594 321 1595 322 L 1593 325 C 1592 326 1592 326 1594 326 Z M 1663 324 L 1663 321 L 1661 317 C 1659 315 1659 315 1660 317 C 1660.585449 319.490234 1661.600586 321.858887 1663 324 Z M 1532 294 L 1535 291 L 1530 292 L 1527 295 L 1532 294 Z M 1310 232 L 1307 232 L 1303 230 L 1298 227 C 1295 226 1295 226 1297 223 L 1301 219 C 1301 217 1301 217 1299 217 L 1294 221 L 1289 224 L 1286 223 L 1285 220 L 1285 216 C 1286 214 1286 214 1284 213 L 1282 211 L 1287 210 C 1293 209 1293 209 1291 206 C 1290 204 1290 204 1292 204 L 1294 204 L 1296 203 L 1298 204 L 1302 204 L 1307 205 L 1306 204 L 1298 200 L 1292 196 L 1294 195 L 1296 193 L 1298 190 L 1299 190 L 1302 192 L 1304 190 L 1306 189 C 1308 189 1308 191 1308 194 L 1309 198 L 1312 196 C 1313 194 1313 194 1313 196 L 1313 198 L 1315 196 L 1316 193 L 1317 192 C 1318 190 1318 190 1320 191 L 1323 193 L 1323 197 L 1319 202 C 1315 204 1315 205 1317 205 C 1319 205 1321 207 1322 208 C 1325 209 1325 209 1323 211 C 1321 213 1321 213 1324 213 L 1328 210 L 1330 209 L 1331 207 L 1332 202 L 1335 199 L 1337 200 L 1338 205 L 1337 209 L 1335 211 L 1332 215 C 1329 218 1329 218 1328 217 C 1326 215 1326 215 1326 218 C 1326 220 1325 220 1323 221 C 1320.333496 221.04834 1317.666504 221.04834 1315 221 L 1315 224 C 1314 225 1314 226 1316 226 L 1317 227 L 1314 229 C 1312 229 1311 230 1311 231 L 1310 232 Z"/>
            <path id="NO-08" fill="#777777" stroke="#231f20" stroke-width="0.4" stroke-linejoin="round" d="M 1007 796 C 1002 725 962 770 918 773 C 914 790 896 788 903 797 C 905 803 900 801 901 806 C 900 808 896 810 897 812 C 896 813 892 811 892 814 C 889 813 887 816 889 817 L 888 818 C 888 819 891 818 889 820 C 892 820 890 817 890 816 L 892 820 C 889 816 891 825 889 823 C 887 823 886 822 886 824 L 885 827 L 885 825 C 883 825 884 827 883 829 C 885 830 873 839 873 838 L 870 840 C 872 840 872 840 870 841 C 871 839 871 842 872 842 L 872 844 C 873 844 874 845 873 846 L 874 849 L 873 849 L 870 851 L 869 849 C 864 855 873 854 870 857 C 872 858 878 857 873 859 C 872 858 869 859 872 860 C 871 862 870 860 873 861 C 871 863 871 868 868 865 C 867 864 870 867 867 867 C 869 869 868 870 866 869 L 865 868 C 864 868 864 868 865 868 C 860 870 867 872 862 872 C 860 872 857 874 860 875 C 860 876 860 879 858 878 C 859 876 857 877 856 876 C 857 876 856 876 856 876 L 858 874 C 859 873 857 872 856 872 C 859 871 856 871 855 869 C 854 870 854 869 855 869 L 855 870 C 857 868 865 870 861 864 L 860 863 C 858 863 858 860 859 861 C 861 862 860 860 860 859 L 860 858 L 859 858 C 857 857 859 860 858 859 L 856 859 L 857 858 C 856 857 854 857 856 857 C 857 856 856 855 855 856 L 853 856 L 854 856 L 852 857 L 854 857 C 852 858 853 856 854 857 C 853 857 852 858 854 858 L 853 858 L 854 859 L 854 860 L 855 864 L 853 864 C 854 862 851 862 852 864 C 851 864 854 866 851 866 C 853 867 852 866 851 867 L 852 867 C 853 870 849 864 849 867 L 850 868 L 849 868 C 847 867 852 872 848 870 L 846 868 C 848 867 847 867 847 866 C 846 866 849 865 848 864 C 848 865 848 865 848 864 L 847 864 C 844 863 844 864 843 865 C 844 865 844 865 843 865 L 842 865 L 842 866 L 841 866 L 842 869 C 841 868 840 874 840 873 C 839 871 837 874 838 876 C 838 878 836 877 837 879 C 838 877 838 879 838 880 L 840 880 C 835 881 833 882 837 886 C 836 888 840 889 841 890 C 840 888 842 890 843 888 L 843 890 C 844 892 846 889 846 892 L 846 889 L 847 887 C 847 885 844 887 844 884 C 844 883 846 885 845 882 L 848 882 L 848 881 L 849 880 L 850 881 C 850 880 848 880 850 880 C 848 880 850 880 850 880 C 850 879 850 878 851 879 L 850 876 L 850 875 C 850 874 848 871 850 873 L 851 874 C 854 875 857 876 854 877 C 856 877 855 879 854 879 C 857 878 854 882 859 880 L 864 879 C 866 880 869 882 872 879 L 867 879 L 868 876 C 869 877 869 879 870 877 C 870 874 873 879 875 879 L 879 879 C 880 879 880 882 880 880 C 881 879 880 881 881 881 L 883 882 C 879 883 882 885 883 884 C 885 884 884 884 883 886 C 882 885 883 884 882 885 C 881 886 883 887 883 887 C 886 889 880 887 881 888 C 884 891 880 888 880 890 C 880 888 879 888 878 888 C 877 892 885 887 878 895 C 878 897 881 898 879 899 L 879 901 L 879 900 L 878 900 C 876 895 865 887 862 896 C 857 895 862 901 859 901 L 858 902 L 857 904 C 861 889 840 915 845 906 L 844 906 C 840 908 841 914 838 917 C 835 923 837 916 836 916 C 837 916 842 911 838 912 L 837 912 C 837 911 836 913 836 911 C 839 909 837 910 835 911 C 830 915 825 907 816 917 L 815 919 L 816 919 L 813 921 C 813 925 827 916 831 917 L 830 916 C 832 916 834 919 831 917 L 831 920 C 829 920 831 919 829 918 C 829 918 826 918 825 921 C 820 921 817 923 817 926 C 815 925 810 923 812 927 C 810 927 809 928 811 928 L 810 932 C 813 930 810 931 810 933 L 811 933 L 811 934 L 812 934 C 813 933 813 932 813 934 C 814 933 816 930 816 932 L 816 933 C 815 935 816 934 817 933 C 818 935 819 932 815 937 C 816 938 819 935 820 934 C 817 939 827 930 829 932 C 826 934 828 935 826 936 C 827 935 831 934 829 936 C 828 939 834 934 836 935 C 838 934 832 939 831 938 C 832 940 827 939 828 939 C 825 938 822 943 820 943 L 815 943 C 813 943 812 947 814 945 L 814 946 C 814 946 814 945 814 946 L 816 946 C 817 946 814 947 816 947 L 817 946 C 818 946 819 947 820 945 C 827 949 810 953 813 956 L 816 956 C 814 958 817 958 818 957 C 820 959 824 955 825 956 C 839 968 831 966 826 975 C 824 974 823 977 825 977 C 822 977 822 980 822 979 C 818 981 821 983 818 983 C 818 985 814 987 816 986 C 808 999 836 988 842 990 C 836 992 833 995 831 1000 C 830 1002 832 1005 830 1003 C 827 1005 831 998 830 995 C 827 994 825 993 824 996 L 822 996 C 820 997 820 996 822 996 L 818 996 C 817 995 816 997 815 997 L 814 1001 C 816 1001 814 1002 813 1003 C 812 1003 811 1002 811 1004 L 816 1004 L 815 1006 C 815 1006 817 1006 815 1007 C 814 1008 813 1008 813 1010 C 813 1010 813 1008 813 1010 L 812 1010 C 813 1012 811 1014 809 1015 C 807 1017 809 1020 806 1019 C 806 1019 805 1023 803 1022 C 801 1024 803 1025 801 1027 C 802 1026 804 1023 803 1026 C 803 1027 795 1033 800 1032 C 797 1035 803 1030 802 1031 C 806 1028 813 1027 817 1025 L 819 1023 L 818 1023 C 821 1024 825 1017 825 1019 L 825 1022 C 826 1021 824 1023 825 1022 L 825 1025 C 826 1025 825 1025 825 1025 C 827 1027 825 1027 824 1029 C 828 1030 831 1034 825 1036 C 824 1031 809 1041 816 1039 C 817 1040 819 1038 821 1038 C 823 1038 823 1041 825 1038 C 825 1041 830 1038 830 1039 C 828 1040 828 1039 828 1041 L 823 1041 C 822 1037 819 1040 818 1042 L 818 1043 C 817 1043 813 1042 811 1044 C 813 1041 812 1041 811 1040 C 808 1042 807 1046 803 1046 C 800 1049 805 1051 803 1052 C 802 1055 804 1060 801 1058 C 802 1061 800 1061 799 1062 L 803 1062 C 803 1060 803 1063 805 1062 C 803 1064 805 1064 806 1063 C 810 1061 805 1065 804 1065 C 804 1064 801 1062 801 1065 C 799 1064 797 1067 800 1066 C 806 1068 800 1074 802 1078 C 799 1081 797 1078 797 1084 C 796 1082 798 1079 796 1078 C 795 1084 792 1068 789 1069 C 783 1060 788 1075 786 1071 C 786 1073 785 1071 785 1070 C 786 1076 786 1077 790 1081 L 788 1082 L 789 1082 C 788 1085 787 1089 787 1085 L 787 1083 L 785 1084 C 783 1098 777 1084 782 1087 C 792 1076 776 1078 777 1085 C 772 1086 763 1088 773 1089 C 770 1096 760 1090 757 1097 C 757 1096 755 1096 756 1095 C 758 1092 750 1094 753 1098 C 758 1096 756 1099 757 1103 C 760 1102 765 1098 766 1105 C 769 1106 772 1107 769 1110 C 771 1111 772 1112 769 1113 C 779 1108 771 1119 790 1114 C 791 1122 769 1114 763 1119 L 757 1120 L 758 1122 L 757 1122 C 757 1123 761 1123 759 1124 L 759 1125 L 761 1125 C 759 1127 784 1123 773 1127 C 767 1125 761 1128 763 1131 C 764 1139 771 1134 776 1130 L 788 1128 C 787 1130 783 1129 781 1131 L 773 1134 C 775 1134 775 1134 775 1136 C 776 1135 781 1135 778 1137 C 774 1133 762 1144 762 1134 L 758 1136 C 758 1136 757 1132 756 1134 C 751 1134 744 1134 741 1136 L 741 1138 C 740 1138 739 1138 740 1139 L 742 1138 L 743 1138 C 745 1138 744 1138 743 1139 C 746 1139 747 1139 745 1140 C 746 1141 752 1142 754 1140 C 757 1140 755 1141 754 1141 L 757 1141 C 759 1143 759 1143 762 1143 C 764 1143 769 1148 764 1147 C 762 1143 756 1147 753 1146 C 752 1148 756 1148 754 1149 C 751 1149 754 1145 753 1146 C 751 1144 746 1147 744 1146 C 743 1147 742 1146 743 1145 L 739 1149 L 741 1150 L 742 1150 C 741 1152 744 1152 743 1153 C 747 1149 756 1149 757 1153 L 753 1151 L 750 1151 C 747 1153 750 1152 750 1153 C 751 1156 746 1151 748 1155 C 748 1157 748 1154 747 1156 C 747 1154 746 1154 745 1155 C 744 1158 746 1157 746 1159 C 743 1156 745 1165 743 1163 L 732 1173 C 727 1172 730 1176 732 1176 L 732 1177 L 733 1177 C 735 1177 734 1181 739 1178 C 738 1179 741 1183 745 1182 C 744 1185 740 1184 738 1184 C 758 1196 727 1202 738 1208 L 744 1210 L 746 1207 L 747 1206 C 750 1208 746 1210 745 1211 C 749 1211 752 1212 752 1216 C 751 1215 749 1218 748 1219 C 747 1220 747 1222 749 1220 L 751 1217 L 749 1222 C 745 1224 745 1230 741 1230 L 743 1239 C 738 1241 729 1246 723 1254 C 720 1259 723 1258 727 1257 L 725 1259 C 714 1265 732 1255 732 1256 L 723 1262 C 730 1259 740 1257 746 1253 C 753 1249 737 1257 743 1265 C 742 1270 736 1272 734 1273 C 733 1276 728 1278 728 1281 L 728 1280 C 720 1284 727 1294 723 1297 C 722 1302 726 1307 722 1312 C 715 1320 709 1333 712 1341 C 703 1347 706 1349 704 1353 C 706 1353 706 1362 703 1368 L 705 1376 C 702 1381 703 1382 702 1387 L 701 1388 L 701 1390 L 702 1391 L 702 1393 L 700 1393 C 698 1398 702 1396 704 1395 C 703 1396 706 1396 704 1396 L 703 1399 C 701 1401 703 1399 704 1400 C 705 1400 702 1400 703 1401 C 701 1402 705 1402 703 1402 L 703 1405 C 691 1426 716 1410 716 1396 C 720 1398 724 1391 728 1393 C 729 1396 731 1397 734 1395 C 735 1390 737 1402 741 1398 C 743 1399 752 1401 747 1404 C 751 1413 752 1395 758 1397 C 761 1401 765 1404 768 1400 C 766 1393 768 1397 772 1396 C 776 1403 787 1411 779 1419 C 806 1419 835 1408 859 1403 C 890 1399 864 1257 850 1225 C 888 1219 929 1191 898 1153 C 919 1096 974 1027 912 980 C 926 954 942 927 936 888 C 962 817 1041 897 1007 796 Z"/>
            <path id="NO-07" fill="#777777" stroke="#231f20" stroke-width="0.4" stroke-linejoin="round" d="M 413 1763 C 411 1764 415 1765 416 1764 L 414 1767 L 416 1766 C 417 1767 415 1765 414 1767 C 411 1767 414 1771 416 1770 L 415 1772 C 416 1773 416 1771 416 1771 C 416 1773 417 1772 418 1772 L 418 1771 C 417 1771 419 1772 418 1771 L 418 1772 C 421 1769 427 1766 421 1771 C 421 1770 418 1772 419 1773 L 425 1773 C 423 1773 426 1772 424 1772 L 423 1772 L 433 1774 C 430 1775 425 1771 425 1774 L 428 1775 C 426 1776 430 1776 427 1776 C 427 1776 428 1778 430 1777 C 430 1778 433 1777 431 1776 L 433 1777 C 435 1778 434 1774 438 1776 L 437 1775 L 439 1775 L 434 1774 C 437 1774 443 1774 443 1772 L 441 1772 L 442 1771 C 445 1772 445 1770 445 1769 C 442 1769 447 1769 445 1768 L 446 1767 L 445 1766 C 446 1765 445 1764 444 1765 L 445 1764 C 444 1764 443 1764 444 1763 C 443 1763 442 1762 442 1764 L 442 1760 C 440 1761 442 1756 441 1758 C 440 1756 438 1752 436 1752 C 435 1750 435 1754 434 1753 L 433 1753 L 430 1752 L 430 1753 L 429 1752 C 428 1753 427 1751 426 1753 L 428 1753 L 427 1755 L 426 1754 L 424 1755 L 424 1759 C 423 1757 422 1758 422 1758 L 423 1757 C 422 1756 422 1758 421 1758 C 422 1756 420 1757 422 1758 C 420 1758 421 1760 421 1760 L 420 1760 C 420 1758 419 1760 419 1759 L 420 1757 C 420 1759 418 1757 419 1758 L 418 1758 L 418 1760 L 418 1759 C 416 1758 417 1762 416 1760 C 416 1762 416 1760 415 1761 C 414 1761 413 1762 415 1763 L 413 1763 C 413 1763 413 1764 413 1763 Z M 425 1774 Z M 430 1777 C 430 1777 431 1777 430 1777 Z M 427 1753 L 428 1753 L 427 1753 Z M 493 1744 C 495 1743 493 1746 495 1744 L 495 1745 C 497 1743 502 1742 503 1740 C 510 1738 523 1731 519 1725 L 517 1729 C 517 1727 515 1729 515 1730 C 515 1730 517 1727 515 1728 L 516 1726 C 517 1724 516 1725 515 1725 C 517 1723 515 1725 515 1723 C 514 1722 508 1720 511 1722 C 508 1721 505 1721 505 1724 L 504 1725 L 504 1724 C 502 1726 502 1726 503 1724 C 501 1724 505 1721 502 1721 L 503 1720 C 503 1719 502 1718 501 1719 C 497 1718 503 1719 503 1715 C 503 1715 504 1712 502 1713 L 499 1713 L 497 1715 L 496 1715 C 496 1715 496 1714 496 1715 C 495 1714 495 1715 495 1716 C 495 1713 493 1716 494 1717 C 496 1716 494 1717 494 1718 C 497 1716 494 1718 496 1718 C 501 1717 493 1721 496 1718 C 496 1719 494 1720 496 1719 C 494 1720 492 1722 494 1722 C 493 1723 493 1723 493 1721 L 492 1721 L 492 1720 C 495 1719 490 1717 493 1717 C 494 1714 481 1718 480 1720 C 479 1721 476 1719 477 1722 C 477 1720 476 1721 476 1722 C 473 1721 470 1725 469 1726 L 480 1730 C 483 1730 487 1731 481 1731 C 476 1728 472 1733 470 1733 L 466 1732 C 464 1734 465 1732 463 1733 L 463 1734 C 463 1735 463 1735 463 1734 L 458 1736 C 459 1738 452 1741 457 1741 C 453 1742 450 1748 452 1748 C 455 1743 456 1743 452 1748 L 453 1748 C 453 1748 453 1750 452 1749 C 452 1751 455 1748 453 1750 C 452 1753 453 1752 457 1752 C 455 1753 456 1753 458 1753 C 455 1754 457 1755 459 1755 L 458 1755 L 459 1756 C 460 1757 471 1758 475 1751 C 477 1748 491 1744 493 1744 Z M 496 1716 C 495 1716 496 1715 496 1716 C 496 1715 496 1716 496 1716 Z M 492 1717 C 493 1716 492 1717 492 1717 Z M 447 1713 L 449 1713 C 448 1713 447 1715 448 1713 L 449 1713 L 447 1714 L 449 1714 C 451 1715 450 1714 449 1716 C 450 1717 449 1714 450 1716 C 452 1715 454 1715 455 1712 C 456 1712 460 1713 460 1711 C 461 1710 464 1708 463 1710 C 453 1716 464 1712 469 1710 C 470 1711 461 1712 461 1714 C 463 1714 462 1714 461 1714 L 463 1714 C 467 1714 478 1709 478 1709 C 474 1711 484 1708 484 1708 L 485 1708 L 488 1706 C 490 1706 490 1697 487 1695 C 487 1694 484 1696 487 1694 L 486 1691 C 487 1684 484 1694 485 1689 C 484 1690 482 1685 483 1690 C 484 1692 482 1691 482 1693 C 482 1695 485 1690 484 1692 C 485 1693 469 1700 474 1700 C 476 1699 474 1700 474 1701 C 479 1699 472 1702 473 1701 C 471 1704 470 1701 469 1704 C 466 1706 473 1703 470 1704 L 469 1704 C 469 1706 469 1707 468 1706 L 462 1707 C 460 1707 461 1711 460 1708 L 461 1707 L 458 1708 L 460 1708 L 455 1709 L 452 1711 L 453 1711 C 452 1711 445 1712 447 1713 Z M 875 1520 C 786 1515 896 1416 857 1402 C 833 1413 806 1416 779 1419 C 785 1412 777 1402 772 1396 C 763 1393 771 1400 766 1401 C 767 1404 759 1400 759 1397 C 752 1395 753 1410 747 1406 C 751 1395 737 1403 735 1393 C 734 1397 729 1397 728 1393 C 724 1391 720 1398 716 1396 C 716 1408 699 1413 706 1422 C 706 1425 706 1430 710 1426 C 711 1428 710 1427 709 1428 C 705 1432 706 1426 704 1427 C 702 1430 707 1442 701 1434 C 699 1435 701 1433 700 1433 C 698 1436 695 1439 696 1441 C 692 1441 690 1450 687 1449 L 686 1452 C 688 1453 684 1456 685 1452 L 683 1453 L 681 1453 C 682 1452 681 1451 680 1450 L 677 1454 C 678 1448 672 1457 672 1458 C 670 1460 679 1454 681 1458 L 681 1456 L 685 1456 C 685 1458 681 1458 683 1461 C 682 1462 679 1460 678 1463 L 678 1460 C 678 1460 673 1458 674 1461 C 676 1461 679 1467 677 1465 C 676 1465 675 1467 676 1464 C 676 1463 673 1459 672 1462 C 671 1463 672 1466 671 1464 C 673 1457 655 1473 656 1475 L 652 1480 C 651 1482 652 1482 653 1482 L 652 1482 C 653 1485 650 1487 654 1485 C 651 1487 654 1486 655 1485 C 656 1486 650 1486 650 1488 C 651 1488 650 1488 650 1488 C 651 1488 651 1487 651 1489 C 652 1487 651 1489 651 1489 C 653 1489 651 1489 651 1489 C 650 1490 649 1491 651 1490 C 650 1491 650 1490 651 1490 L 652 1490 L 650 1491 L 652 1491 C 653 1494 655 1488 652 1490 C 654 1490 656 1487 656 1489 C 652 1490 656 1491 660 1491 C 663 1490 668 1488 663 1491 C 664 1492 660 1493 662 1493 L 661 1495 C 659 1495 661 1497 657 1499 L 655 1500 L 655 1501 L 650 1506 L 652 1505 L 662 1500 L 667 1492 L 662 1493 C 664 1492 670 1492 666 1491 C 667 1491 669 1490 666 1490 L 670 1489 C 670 1487 671 1487 673 1488 C 674 1485 677 1485 679 1483 C 681 1482 679 1486 679 1486 C 682 1486 682 1485 684 1487 C 682 1487 683 1487 684 1487 L 687 1486 L 688 1486 L 688 1487 L 687 1489 C 688 1490 688 1488 688 1488 L 690 1488 C 692 1488 690 1487 691 1487 L 697 1487 C 698 1488 694 1488 695 1489 L 693 1490 C 693 1491 694 1491 692 1491 C 693 1493 688 1491 688 1494 C 688 1495 687 1488 685 1492 C 685 1493 687 1492 686 1493 L 681 1493 C 681 1496 675 1493 675 1497 C 678 1498 679 1495 681 1496 L 680 1497 L 679 1499 L 680 1499 C 680 1501 681 1500 682 1500 L 681 1500 L 681 1501 C 680 1499 672 1497 673 1499 C 676 1501 666 1507 665 1507 C 664 1508 665 1508 666 1508 C 670 1510 664 1515 665 1511 C 662 1513 665 1518 666 1518 C 666 1520 669 1520 667 1521 C 666 1518 665 1518 666 1521 L 669 1523 C 670 1523 672 1531 674 1525 C 671 1528 678 1531 677 1533 C 679 1535 677 1534 676 1535 C 673 1535 678 1537 676 1537 C 675 1540 679 1534 678 1538 L 679 1537 C 679 1539 680 1539 678 1539 C 677 1541 675 1539 675 1540 C 673 1539 671 1547 675 1545 C 670 1546 674 1558 666 1555 C 664 1554 665 1556 664 1556 C 664 1554 663 1556 663 1555 C 662 1551 657 1556 657 1554 C 655 1555 656 1561 655 1557 C 653 1555 652 1558 654 1554 C 655 1551 654 1549 652 1547 L 647 1543 L 648 1543 C 646 1542 646 1542 646 1545 C 644 1544 644 1543 644 1541 C 642 1539 645 1536 644 1535 C 642 1537 640 1531 638 1533 C 637 1533 635 1527 634 1530 C 633 1529 633 1533 632 1533 C 631 1533 629 1537 633 1536 C 633 1539 637 1541 636 1542 L 636 1543 L 635 1545 C 636 1547 640 1548 636 1548 L 632 1546 L 633 1547 C 634 1548 632 1547 632 1548 L 631 1547 L 633 1553 C 632 1558 632 1552 630 1550 C 629 1549 632 1551 630 1548 C 629 1550 627 1546 623 1548 C 623 1550 626 1549 625 1550 C 622 1550 627 1552 628 1553 L 628 1554 L 626 1554 L 630 1556 C 627 1558 628 1556 627 1555 C 626 1553 623 1554 622 1552 C 625 1554 625 1551 623 1550 C 625 1550 621 1547 622 1549 L 622 1552 C 622 1550 621 1550 620 1551 C 622 1552 623 1554 623 1556 L 622 1554 C 623 1555 622 1557 621 1558 L 620 1556 C 619 1555 617 1553 617 1555 L 617 1558 C 615 1557 612 1562 611 1558 C 609 1559 611 1560 609 1561 L 610 1562 L 607 1562 C 608 1563 609 1566 611 1563 C 610 1566 613 1565 613 1566 C 615 1567 613 1566 612 1567 C 613 1568 616 1570 613 1570 L 613 1569 C 611 1570 611 1567 610 1567 L 605 1563 C 605 1562 604 1563 605 1563 L 605 1564 C 603 1564 602 1566 602 1566 C 603 1567 600 1567 601 1569 C 599 1567 602 1570 600 1569 L 601 1569 L 602 1570 C 604 1570 602 1571 603 1571 L 603 1570 L 606 1569 C 609 1568 609 1569 609 1571 C 609 1572 614 1569 612 1571 C 612 1573 613 1570 613 1572 C 612 1573 614 1572 614 1573 C 612 1574 613 1576 614 1575 C 615 1576 619 1572 618 1576 C 616 1576 615 1576 615 1578 C 614 1579 613 1578 614 1579 C 613 1578 611 1573 608 1574 C 601 1573 608 1580 611 1581 C 610 1583 608 1580 606 1579 C 602 1576 601 1578 606 1580 L 600 1578 C 600 1581 606 1582 601 1582 L 602 1584 L 602 1586 C 601 1589 609 1584 605 1588 C 607 1586 606 1590 603 1589 C 600 1586 603 1590 603 1591 C 600 1593 603 1585 599 1589 L 599 1591 C 600 1592 597 1591 599 1593 C 600 1592 601 1592 599 1593 L 601 1595 C 600 1598 596 1587 595 1592 L 595 1594 C 595 1595 595 1596 596 1595 C 597 1596 593 1598 593 1598 C 585 1602 597 1603 600 1605 L 598 1610 C 598 1608 598 1604 594 1605 C 591 1603 593 1606 593 1607 L 593 1609 C 591 1609 593 1606 591 1605 C 590 1606 588 1605 590 1607 C 588 1608 592 1609 590 1609 L 586 1606 L 585 1611 C 588 1609 585 1613 587 1611 L 587 1614 L 588 1616 C 586 1615 584 1614 584 1617 C 585 1617 588 1617 587 1618 C 581 1615 582 1621 581 1621 C 581 1624 587 1625 589 1623 C 590 1620 593 1622 591 1624 C 589 1623 586 1630 585 1629 C 584 1626 583 1632 583 1631 C 583 1629 581 1626 578 1625 C 577 1624 576 1625 576 1626 C 574 1625 574 1627 574 1627 C 574 1628 576 1629 575 1630 L 574 1630 C 575 1634 582 1633 578 1636 L 576 1638 L 577 1638 C 576 1640 580 1639 579 1641 C 576 1639 576 1638 574 1641 C 575 1641 576 1641 576 1643 C 570 1641 580 1645 578 1646 C 573 1643 573 1644 575 1648 C 574 1649 573 1648 573 1650 C 572 1649 572 1651 572 1651 L 572 1653 C 576 1652 576 1649 576 1649 C 578 1651 580 1649 585 1645 C 582 1648 579 1651 583 1648 C 581 1652 586 1645 589 1644 C 596 1639 581 1651 583 1652 C 580 1653 576 1655 574 1658 C 573 1658 572 1659 574 1659 C 572 1660 571 1661 574 1662 C 577 1660 572 1660 575 1659 L 575 1660 L 576 1660 L 579 1656 C 578 1659 584 1656 582 1655 C 583 1655 583 1655 582 1655 L 583 1652 C 583 1655 587 1651 589 1649 C 592 1648 589 1650 590 1651 L 591 1650 C 593 1648 591 1650 592 1650 C 592 1652 591 1648 591 1652 C 591 1655 593 1652 593 1655 C 592 1657 590 1654 590 1654 C 590 1652 588 1655 589 1653 C 587 1653 588 1656 587 1656 C 589 1653 584 1655 585 1656 C 584 1657 581 1657 580 1659 C 576 1660 573 1667 571 1667 C 572 1665 571 1665 570 1666 C 569 1667 574 1662 572 1662 C 572 1664 571 1664 570 1663 C 568 1665 566 1664 564 1667 C 564 1669 566 1669 566 1669 L 566 1670 C 567 1671 567 1671 568 1669 C 567 1668 566 1668 568 1668 C 568 1670 568 1670 566 1671 C 564 1675 566 1670 563 1672 C 563 1674 564 1675 561 1675 C 560 1678 556 1677 555 1678 C 553 1681 554 1675 554 1677 L 562 1673 L 562 1670 L 561 1670 L 557 1673 C 557 1673 560 1671 558 1669 L 555 1672 C 556 1671 557 1672 555 1672 C 553 1673 552 1673 552 1676 L 549 1677 C 550 1677 546 1680 549 1679 C 550 1678 555 1677 552 1679 L 551 1681 C 550 1680 547 1682 548 1684 C 538 1692 554 1689 563 1686 C 565 1688 556 1688 555 1690 L 551 1694 L 549 1695 C 548 1695 548 1697 547 1695 C 548 1697 544 1695 545 1698 C 545 1698 543 1696 545 1698 L 544 1698 C 543 1700 545 1698 546 1698 C 547 1699 548 1699 547 1701 C 548 1702 548 1701 547 1701 L 547 1703 L 548 1703 C 547 1704 547 1707 545 1707 C 546 1707 547 1708 546 1709 L 547 1708 L 548 1709 C 546 1704 553 1704 555 1703 C 554 1700 555 1698 556 1699 L 561 1699 C 569 1691 569 1707 561 1708 C 558 1710 540 1721 547 1718 C 549 1721 545 1718 545 1720 C 547 1718 542 1722 544 1722 C 545 1721 547 1720 549 1721 C 547 1723 551 1725 551 1728 C 552 1735 549 1719 544 1724 C 540 1721 544 1726 541 1725 C 542 1727 540 1729 538 1732 C 538 1734 541 1737 538 1736 L 536 1734 L 536 1733 C 536 1732 536 1726 537 1728 C 538 1727 536 1726 535 1726 L 532 1729 C 528 1740 531 1729 525 1734 C 526 1736 528 1736 527 1739 C 525 1740 527 1738 526 1737 C 525 1738 525 1735 525 1735 C 523 1733 522 1737 522 1737 L 520 1739 C 516 1741 519 1741 520 1742 C 519 1743 522 1744 520 1745 L 524 1746 L 526 1747 C 528 1746 529 1745 531 1747 C 532 1746 534 1742 532 1743 C 531 1742 527 1745 530 1741 C 528 1741 529 1741 528 1739 C 527 1738 533 1740 530 1742 C 535 1739 532 1746 535 1744 C 537 1744 547 1736 546 1740 C 543 1739 546 1740 546 1741 C 544 1740 546 1741 545 1742 L 541 1742 C 541 1744 540 1743 539 1744 L 535 1746 C 534 1744 530 1750 529 1748 C 528 1747 528 1750 526 1749 L 525 1751 C 526 1750 524 1750 524 1749 C 522 1751 518 1752 515 1753 C 514 1752 516 1753 516 1752 C 515 1752 513 1751 515 1749 C 512 1749 509 1750 509 1747 C 507 1744 506 1748 507 1749 C 503 1751 510 1751 506 1754 L 510 1755 C 508 1755 508 1756 508 1757 C 508 1755 506 1756 506 1756 L 504 1756 C 506 1756 504 1754 502 1755 C 503 1753 502 1753 501 1754 C 501 1756 502 1755 500 1757 C 500 1755 498 1755 499 1756 C 500 1758 502 1760 500 1760 C 486 1759 496 1766 502 1765 C 499 1771 496 1779 497 1786 C 503 1787 498 1790 498 1793 C 487 1799 499 1798 497 1805 C 497 1807 499 1807 500 1806 C 505 1812 512 1800 516 1802 C 533 1807 521 1798 528 1792 C 531 1787 534 1793 538 1789 L 540 1787 C 550 1795 550 1802 549 1816 C 550 1817 553 1816 552 1819 L 556 1821 C 569 1819 555 1823 554 1826 C 554 1828 552 1830 550 1832 C 575 1873 492 1867 522 1886 C 528 1890 532 1901 537 1901 C 544 1899 543 1906 542 1910 C 539 1916 544 1933 532 1937 C 552 1943 594 1965 596 1937 C 593 1937 595 1934 595 1933 C 598 1933 601 1938 603 1933 C 602 1926 609 1922 615 1919 C 611 1911 603 1898 607 1891 C 612 1886 611 1869 617 1873 C 628 1870 653 1869 660 1874 C 668 1863 681 1865 693 1869 C 697 1871 700 1879 701 1883 C 706 1882 705 1887 706 1890 C 711 1890 714 1892 717 1895 C 732 1891 740 1901 746 1913 C 759 1906 753 1914 760 1915 C 759 1907 775 1909 782 1911 C 787 1911 795 1919 797 1917 C 799 1914 786 1922 792 1917 C 807 1922 771 1871 773 1870 C 781 1847 759 1820 775 1800 C 737 1764 768 1734 754 1697 C 773 1548 924 1649 875 1520 Z"/>
            <path id="NO-06" fill="#777777" stroke="#231f20" stroke-width="0.4" stroke-linejoin="round" d="M 555 1824 C 559 1823 565 1819 556 1821 L 554 1820 C 553 1819 552 1819 553 1817 C 550 1818 547 1815 550 1813 C 549 1800 550 1791 538 1788 C 506 1796 547 1806 512 1802 C 508 1809 503 1808 498 1807 C 498 1803 497 1801 494 1799 C 491 1793 500 1796 498 1791 C 502 1790 500 1786 497 1786 C 496 1779 499 1771 502 1765 C 499 1766 497 1762 492 1764 C 489 1757 502 1762 499 1759 L 497 1753 C 493 1755 491 1753 487 1755 C 488 1758 486 1757 484 1756 C 476 1759 482 1763 485 1766 C 487 1769 484 1769 488 1768 C 488 1770 496 1765 496 1767 C 491 1769 483 1772 483 1774 C 478 1775 471 1776 473 1780 L 470 1780 L 470 1782 C 471 1783 473 1782 473 1784 C 473 1788 473 1785 476 1787 C 475 1788 475 1788 477 1789 L 478 1791 C 477 1793 480 1793 478 1795 C 482 1792 479 1796 481 1797 C 483 1802 479 1800 476 1803 C 480 1805 476 1808 473 1808 C 472 1805 471 1809 469 1807 L 468 1807 C 466 1807 465 1809 464 1808 C 458 1806 453 1805 448 1810 C 441 1814 428 1817 432 1825 C 433 1827 430 1828 433 1828 C 432 1830 434 1828 434 1830 L 434 1829 C 438 1844 426 1839 417 1850 C 412 1853 409 1858 413 1849 C 426 1838 410 1840 403 1848 C 406 1850 402 1849 401 1851 L 397 1854 L 393 1855 C 393 1853 391 1857 391 1855 C 397 1852 388 1843 382 1843 C 379 1844 383 1840 380 1839 C 380 1837 378 1840 376 1840 C 378 1841 377 1842 379 1841 L 376 1841 C 377 1841 377 1841 376 1841 L 376 1840 C 378 1840 378 1838 380 1837 C 378 1835 372 1841 369 1840 C 368 1839 367 1840 366 1841 L 368 1842 L 367 1842 L 365 1843 C 364 1842 366 1842 364 1841 C 363 1841 364 1843 363 1842 C 362 1842 365 1844 363 1844 C 361 1844 364 1845 363 1846 L 363 1847 L 361 1845 L 360 1845 C 359 1844 361 1846 359 1846 C 361 1848 357 1845 358 1846 L 359 1846 L 359 1847 C 360 1848 357 1847 357 1848 L 358 1848 L 357 1849 C 358 1850 357 1848 356 1850 C 354 1850 356 1850 357 1849 L 354 1851 C 355 1852 350 1855 349 1856 C 348 1857 351 1858 353 1858 C 355 1857 352 1859 352 1860 C 354 1859 356 1857 354 1860 L 354 1862 C 355 1862 357 1862 356 1863 C 356 1865 359 1865 357 1867 C 355 1868 360 1874 356 1876 C 356 1877 358 1877 356 1879 L 358 1883 C 358 1885 358 1886 356 1887 C 358 1887 358 1887 357 1889 L 376 1885 C 387 1882 383 1878 390 1885 C 393 1885 393 1885 391 1887 C 391 1887 394 1886 392 1888 C 394 1887 393 1888 392 1889 C 395 1889 387 1890 387 1892 C 391 1894 393 1889 396 1892 C 406 1898 387 1911 381 1905 C 379 1908 379 1907 375 1905 C 373 1903 367 1904 367 1901 C 362 1900 356 1900 353 1904 C 354 1907 356 1906 354 1910 C 353 1911 356 1914 354 1915 C 354 1911 345 1900 339 1903 C 330 1908 316 1912 306 1912 C 305 1914 298 1917 301 1918 C 301 1920 303 1923 301 1923 C 303 1924 303 1924 302 1926 C 298 1929 326 1921 326 1924 C 331 1926 315 1926 319 1928 C 322 1927 325 1928 329 1926 C 334 1927 326 1928 330 1928 L 330 1929 L 334 1929 L 339 1931 C 337 1931 335 1931 335 1933 C 331 1933 332 1929 329 1931 C 329 1928 325 1933 323 1930 C 321 1928 322 1933 319 1930 C 316 1933 312 1933 309 1936 C 306 1936 301 1936 299 1938 L 300 1938 C 302 1941 305 1937 310 1939 C 308 1940 310 1940 309 1941 C 311 1942 309 1942 309 1942 C 308 1944 312 1942 312 1943 C 315 1943 313 1944 313 1946 C 316 1942 318 1944 323 1942 C 328 1941 331 1935 332 1937 C 335 1936 335 1933 338 1932 L 339 1931 C 340 1932 337 1933 338 1933 C 357 1931 339 1938 331 1942 C 323 1950 314 1950 305 1956 C 295 1961 286 1968 280 1977 C 286 1979 281 1980 277 1982 C 276 1987 271 1986 267 1987 C 267 1988 266 1991 263 1990 C 261 1991 260 1993 257 1991 C 251 1994 247 1994 242 1989 C 241 1986 236 1992 238 1995 C 232 2002 239 2006 247 2005 L 247 2006 C 248 2005 249 2006 249 2007 C 253 2008 253 2010 254 2013 C 252 2016 252 2008 251 2010 C 250 2008 250 2012 249 2011 C 247 2010 249 2009 248 2009 C 245 2008 245 2011 246 2014 C 246 2016 243 2015 246 2017 L 245 2016 C 244 2019 243 2022 241 2023 C 240 2022 242 2021 242 2021 L 242 2017 C 244 2016 241 2015 241 2014 C 242 2012 241 2013 240 2013 L 237 2009 C 236 2011 234 2008 234 2007 C 231 2006 229 2003 227 2000 C 226 1992 228 2000 228 1994 C 222 1992 228 1997 225 1995 L 224 1993 L 222 1992 C 219 1991 221 1986 218 1987 C 216 1986 215 1985 216 1988 C 214 1990 218 1988 218 1990 C 217 1990 214 1989 214 1991 C 213 1991 213 1987 211 1989 C 209 1990 208 1991 210 1993 C 211 1997 208 1992 209 1996 L 213 1999 C 215 2003 216 2002 211 2002 C 211 2012 219 2001 225 2009 C 233 2011 229 2017 231 2017 C 234 2017 236 2017 238 2019 C 237 2024 233 2017 232 2019 L 232 2018 C 231 2017 230 2018 231 2019 L 228 2031 L 228 2026 C 223 2026 229 2030 227 2032 C 225 2033 224 2024 222 2028 C 221 2029 218 2027 220 2030 C 219 2033 222 2032 222 2035 C 221 2037 218 2028 219 2026 L 218 2027 L 216 2028 L 214 2036 C 211 2042 222 2036 218 2040 C 216 2040 215 2039 217 2042 C 219 2043 220 2041 222 2039 C 231 2042 233 2035 241 2034 C 239 2037 255 2035 260 2038 C 266 2038 282 2033 285 2038 C 260 2037 262 2050 280 2042 C 286 2044 293 2041 298 2048 C 310 2039 319 2051 331 2048 C 329 2036 341 2041 345 2035 C 347 2035 345 2037 346 2039 C 349 2040 362 2039 355 2041 C 355 2042 355 2050 353 2044 C 334 2029 336 2066 316 2049 C 310 2042 300 2055 295 2048 C 293 2047 294 2051 296 2051 C 298 2053 302 2058 305 2059 C 307 2060 303 2061 303 2062 C 296 2062 292 2044 287 2050 C 286 2054 287 2061 284 2065 C 282 2066 282 2070 281 2068 L 284 2060 C 296 2030 251 2061 260 2053 C 259 2050 266 2049 269 2048 C 263 2047 257 2036 250 2042 C 246 2043 251 2038 242 2039 C 236 2035 230 2045 229 2048 C 230 2048 228 2049 230 2049 L 236 2050 C 226 2050 233 2055 225 2056 C 220 2057 211 2060 213 2066 L 215 2066 C 215 2068 216 2066 217 2065 C 219 2063 220 2065 221 2064 L 229 2063 C 230 2064 227 2066 226 2065 C 225 2063 226 2066 225 2066 C 224 2065 221 2067 220 2067 C 219 2066 216 2067 217 2069 L 217 2070 C 218 2070 219 2069 218 2071 C 219 2070 225 2071 223 2073 C 218 2072 220 2074 219 2077 C 219 2073 217 2071 215 2069 C 215 2082 215 2072 212 2068 C 205 2066 204 2072 205 2074 C 200 2071 205 2078 203 2080 C 202 2083 205 2085 206 2086 C 206 2088 204 2091 206 2090 L 206 2088 C 206 2088 206 2090 208 2090 C 217 2086 226 2092 231 2088 C 231 2087 235 2089 233 2087 C 236 2086 237 2088 238 2086 L 239 2087 C 243 2083 238 2088 236 2089 C 234 2088 231 2089 229 2091 L 221 2092 C 220 2093 216 2095 217 2093 C 211 2092 212 2093 210 2095 L 210 2094 L 206 2096 C 206 2098 205 2098 208 2098 L 207 2098 L 207 2099 L 208 2098 C 208 2098 210 2098 209 2097 L 211 2097 L 225 2092 C 230 2093 241 2091 241 2095 C 245 2096 244 2095 243 2098 C 246 2100 237 2097 235 2098 L 237 2099 C 235 2099 234 2098 234 2097 C 234 2096 237 2098 237 2096 C 245 2093 221 2093 221 2096 C 222 2098 225 2097 229 2098 C 227 2100 231 2099 234 2101 L 236 2101 C 235 2103 241 2101 239 2103 C 235 2100 234 2105 229 2103 C 233 2105 230 2104 229 2105 C 223 2104 220 2098 222 2106 L 220 2106 L 221 2108 L 222 2108 C 221 2108 220 2108 221 2109 C 224 2109 221 2116 222 2120 C 215 2120 209 2123 205 2128 C 206 2133 227 2119 218 2127 C 215 2128 217 2130 216 2133 L 215 2130 C 213 2130 212 2129 212 2131 C 208 2132 211 2138 212 2140 C 215 2139 217 2142 216 2137 C 216 2134 217 2136 217 2138 C 216 2141 218 2141 214 2141 C 213 2148 223 2138 226 2143 C 224 2145 226 2145 227 2146 L 221 2147 C 221 2146 222 2144 220 2145 L 219 2148 L 221 2148 L 220 2148 C 220 2149 218 2148 220 2149 C 218 2150 219 2148 218 2148 C 217 2149 215 2148 213 2147 L 214 2148 L 211 2149 L 214 2149 L 213 2150 L 213 2151 L 210 2150 C 208 2152 206 2150 206 2154 C 207 2152 207 2154 207 2154 C 206 2153 206 2154 206 2155 L 207 2156 L 207 2155 L 208 2156 C 209 2158 209 2153 211 2153 C 210 2156 212 2156 209 2157 C 209 2160 216 2159 217 2157 L 217 2158 C 217 2159 216 2160 218 2159 C 217 2160 216 2160 218 2160 L 211 2159 L 211 2160 C 212 2160 211 2160 211 2160 L 210 2160 C 212 2161 210 2161 210 2161 L 209 2161 C 211 2164 221 2161 224 2161 C 226 2161 243 2171 231 2166 C 231 2168 233 2169 234 2169 C 234 2171 231 2170 230 2170 C 219 2157 208 2172 225 2174 C 225 2169 228 2174 231 2173 C 239 2180 228 2175 227 2175 C 230 2206 277 2172 294 2169 C 299 2177 309 2173 310 2176 C 306 2190 311 2233 330 2208 C 343 2208 335 2201 344 2214 C 348 2211 356 2208 353 2202 C 357 2200 357 2208 360 2206 C 366 2181 381 2201 383 2182 C 387 2185 392 2183 396 2180 C 397 2184 406 2189 409 2184 C 411 2184 409 2195 414 2195 C 427 2191 436 2212 448 2216 C 453 2190 474 2218 480 2189 C 485 2193 489 2190 486 2184 C 488 2183 490 2182 490 2179 C 482 2175 491 2169 477 2167 C 476 2164 470 2152 468 2156 C 468 2151 469 2148 464 2146 C 468 2144 475 2139 476 2133 C 477 2131 482 2133 480 2129 L 481 2130 L 482 2127 C 475 2119 474 2124 473 2110 C 478 2108 493 2109 483 2098 C 477 2077 447 2113 448 2060 C 439 2047 415 2069 414 2056 C 403 2039 395 2013 402 1999 C 400 1997 408 1999 409 1996 C 412 2002 415 2002 419 1998 C 410 1991 426 1979 434 1978 C 445 1989 452 1968 456 1961 C 473 1921 545 1963 542 1914 C 541 1908 547 1903 539 1900 C 531 1904 528 1885 520 1887 C 500 1863 575 1870 551 1837 C 549 1832 554 1828 555 1824 Z"/>
            <path id="NO-05" fill="#777777" stroke="#231f20" stroke-width="0.4" stroke-linejoin="round" d="M 449 2290 C 452 2275 443 2247 424 2250 C 428 2247 437 2230 444 2236 C 451 2230 443 2223 448 2216 C 437 2210 429 2198 418 2193 C 412 2198 408 2188 410 2183 C 406 2188 398 2186 396 2180 C 391 2186 380 2179 383 2187 C 372 2196 362 2189 361 2206 L 358 2206 C 357 2201 351 2200 354 2206 C 352 2210 347 2209 346 2214 C 338 2217 343 2205 338 2205 C 312 2231 307 2202 309 2176 C 312 2172 298 2178 294 2169 C 292 2173 276 2178 278 2173 C 261 2186 239 2187 225 2188 C 224 2189 224 2187 223 2186 L 223 2187 C 220 2189 212 2188 214 2193 C 212 2194 214 2195 212 2195 L 214 2196 C 215 2197 211 2196 214 2198 C 213 2197 214 2199 213 2199 L 214 2201 C 212 2205 218 2206 218 2204 L 219 2206 C 221 2206 220 2208 221 2207 C 226 2207 223 2200 227 2199 C 227 2199 224 2202 227 2201 L 227 2205 C 226 2206 228 2207 226 2206 L 221 2209 C 216 2210 209 2204 212 2212 C 213 2213 214 2215 215 2214 C 213 2216 214 2216 214 2219 C 218 2222 216 2233 220 2229 L 221 2231 C 222 2229 221 2231 223 2231 C 223 2230 224 2228 225 2230 C 225 2228 225 2229 227 2229 C 228 2228 228 2227 228 2229 L 228 2230 C 228 2236 230 2228 230 2225 C 231 2224 233 2227 230 2225 L 230 2226 C 230 2231 230 2233 234 2230 C 236 2233 237 2231 236 2233 C 240 2234 236 2239 235 2241 C 242 2251 242 2236 243 2244 C 243 2248 245 2245 246 2244 L 246 2246 C 245 2248 246 2249 247 2247 C 246 2251 249 2251 251 2251 L 249 2252 C 251 2255 254 2257 254 2260 C 247 2251 244 2253 249 2260 C 250 2260 255 2264 253 2264 C 250 2263 247 2259 245 2257 C 242 2257 247 2263 249 2264 C 241 2263 245 2245 237 2248 L 235 2245 L 233 2245 L 234 2247 L 225 2240 L 225 2241 C 220 2239 224 2241 224 2242 C 218 2234 220 2241 222 2242 C 224 2244 224 2243 222 2243 L 222 2244 C 223 2246 217 2234 213 2233 C 216 2236 210 2232 210 2235 C 209 2236 205 2234 211 2239 C 210 2235 215 2239 217 2242 C 216 2241 220 2248 222 2249 C 221 2247 225 2250 223 2247 C 224 2249 224 2248 225 2248 C 226 2246 229 2251 231 2249 L 231 2251 C 230 2251 226 2247 227 2250 L 230 2254 C 228 2253 225 2249 224 2250 C 229 2255 226 2251 223 2251 C 220 2250 247 2271 233 2261 C 233 2265 240 2271 233 2265 C 233 2262 221 2255 225 2259 C 223 2259 225 2259 224 2260 L 224 2261 C 222 2263 232 2266 232 2269 C 232 2271 238 2286 241 2279 C 244 2276 250 2278 246 2274 C 248 2275 243 2269 245 2271 C 248 2274 250 2274 248 2269 C 249 2273 247 2268 249 2269 C 249 2271 249 2268 248 2270 C 250 2271 254 2272 251 2269 C 254 2272 255 2264 259 2265 C 260 2267 263 2262 265 2266 C 262 2266 262 2270 261 2269 C 262 2267 258 2267 260 2269 C 259 2267 255 2269 258 2270 C 259 2273 257 2270 256 2270 C 253 2270 257 2278 254 2273 L 254 2275 C 250 2276 255 2281 257 2282 C 255 2285 252 2277 251 2277 C 246 2282 238 2281 252 2288 C 251 2293 260 2296 262 2301 C 270 2297 267 2299 272 2291 C 275 2290 276 2294 276 2291 C 275 2281 274 2265 277 2258 L 277 2273 C 276 2280 278 2278 281 2273 C 277 2278 276 2286 279 2292 C 280 2300 272 2291 270 2296 C 271 2301 265 2300 263 2301 C 259 2303 258 2298 255 2296 L 255 2302 C 254 2294 248 2286 240 2284 C 233 2289 240 2298 242 2299 C 243 2301 241 2298 239 2298 C 239 2302 243 2303 243 2305 C 243 2305 244 2306 242 2306 L 243 2307 C 241 2304 242 2310 245 2310 C 245 2308 247 2309 246 2310 C 243 2311 241 2307 239 2308 C 238 2307 238 2309 237 2307 C 236 2306 236 2309 235 2308 L 230 2312 C 231 2312 231 2317 232 2315 L 232 2317 C 234 2318 234 2321 235 2318 C 236 2321 237 2318 236 2317 L 236 2316 C 237 2316 237 2315 237 2318 C 238 2319 241 2324 238 2321 C 234 2318 233 2327 235 2329 L 236 2329 L 236 2330 L 238 2331 L 238 2330 C 240 2330 238 2331 237 2331 L 237 2333 C 237 2335 240 2335 240 2333 C 241 2331 242 2332 241 2330 C 240 2332 239 2331 240 2330 C 239 2329 241 2330 240 2330 L 241 2329 C 240 2331 243 2332 244 2331 L 245 2329 C 247 2331 240 2338 241 2337 L 239 2338 C 238 2339 239 2341 240 2341 C 241 2340 243 2340 242 2338 C 242 2336 244 2340 243 2337 C 244 2341 246 2336 248 2337 C 248 2335 251 2340 250 2339 C 250 2343 247 2339 247 2341 C 245 2340 248 2343 248 2343 C 247 2343 245 2340 246 2342 C 246 2343 249 2346 251 2346 C 252 2344 254 2348 252 2349 C 252 2347 249 2348 251 2349 C 250 2352 253 2350 255 2348 C 255 2359 260 2348 256 2350 C 256 2349 259 2348 257 2347 C 261 2341 265 2342 266 2334 C 272 2333 271 2341 269 2340 C 269 2341 272 2342 269 2344 C 270 2347 266 2348 269 2350 L 271 2350 C 282 2348 274 2342 282 2343 C 288 2341 276 2346 283 2350 C 282 2351 285 2350 284 2352 C 287 2354 283 2353 282 2355 C 282 2355 284 2353 282 2355 C 282 2356 284 2356 282 2356 C 280 2357 282 2358 283 2357 C 281 2360 287 2366 288 2359 C 289 2361 289 2362 291 2359 C 286 2370 291 2364 284 2363 C 285 2367 284 2363 282 2362 C 280 2362 282 2367 280 2367 C 282 2370 282 2379 285 2373 C 286 2377 286 2382 289 2376 C 289 2374 290 2373 292 2372 C 290 2374 291 2381 293 2377 C 305 2366 296 2359 297 2346 C 299 2345 298 2346 299 2348 L 301 2345 L 301 2337 C 303 2336 305 2334 304 2332 C 305 2329 305 2323 308 2328 C 313 2331 315 2327 317 2331 C 318 2329 323 2324 320 2323 C 319 2324 319 2322 319 2321 C 321 2320 329 2324 324 2325 C 325 2328 322 2327 322 2329 L 321 2334 C 320 2335 318 2337 318 2335 C 314 2334 312 2341 313 2342 C 313 2346 323 2351 318 2354 C 321 2356 329 2350 329 2344 C 333 2342 326 2352 333 2350 C 334 2351 329 2351 329 2352 C 317 2356 306 2361 305 2375 C 305 2377 308 2376 307 2377 C 307 2378 307 2384 305 2383 C 305 2382 303 2385 300 2383 L 295 2387 C 288 2387 287 2391 288 2397 L 286 2399 L 286 2397 C 284 2397 285 2398 285 2400 C 284 2400 283 2402 282 2400 C 282 2401 280 2402 282 2402 C 282 2404 280 2402 280 2402 L 281 2405 L 284 2405 C 285 2405 282 2406 284 2406 C 292 2402 289 2410 297 2415 C 300 2419 300 2410 303 2411 L 303 2416 C 303 2418 305 2417 305 2419 C 302 2419 305 2421 304 2421 C 305 2423 302 2421 301 2421 L 299 2422 C 296 2423 297 2423 298 2426 C 293 2427 294 2429 291 2431 L 292 2438 C 295 2437 295 2438 292 2438 L 280 2435 C 277 2435 276 2431 274 2432 C 273 2435 269 2439 272 2440 C 271 2442 271 2449 274 2448 C 274 2449 272 2449 272 2451 C 274 2452 272 2455 273 2456 C 270 2456 272 2458 272 2461 C 270 2455 269 2461 268 2462 C 268 2465 263 2460 265 2466 L 264 2466 L 264 2467 C 265 2466 263 2463 262 2463 C 264 2462 263 2459 262 2461 L 263 2460 C 261 2460 262 2460 262 2459 C 262 2462 265 2458 263 2458 L 263 2457 L 264 2460 C 269 2463 269 2456 265 2454 C 266 2453 267 2456 268 2456 C 268 2454 271 2453 269 2451 C 268 2449 270 2442 267 2441 C 270 2440 268 2432 269 2427 L 267 2426 C 267 2426 269 2422 267 2425 L 263 2428 L 263 2429 C 263 2429 264 2429 263 2429 C 263 2432 263 2430 262 2429 C 260 2430 263 2432 260 2432 C 259 2434 261 2434 261 2436 L 260 2436 L 259 2438 C 259 2435 258 2436 259 2438 C 260 2438 260 2440 261 2439 C 263 2437 260 2441 263 2441 C 266 2443 262 2448 262 2446 C 260 2445 262 2451 261 2450 C 260 2451 261 2444 260 2444 L 259 2443 L 259 2444 C 259 2442 258 2437 257 2439 L 256 2439 C 253 2441 258 2441 252 2443 L 250 2445 L 251 2447 L 250 2447 L 250 2448 L 249 2448 L 250 2448 L 249 2448 C 247 2450 248 2453 247 2454 L 247 2456 C 246 2454 246 2456 246 2456 L 244 2457 L 244 2461 C 241 2461 244 2462 245 2462 L 247 2462 L 247 2461 C 248 2463 246 2462 248 2463 C 248 2465 246 2461 245 2462 C 246 2464 243 2462 243 2464 L 246 2463 C 247 2464 244 2464 245 2464 C 243 2463 245 2466 246 2464 C 243 2466 248 2468 249 2467 C 251 2464 250 2467 249 2467 C 250 2470 252 2469 249 2469 C 243 2468 250 2468 245 2466 C 241 2463 243 2470 244 2470 L 243 2471 L 245 2471 C 243 2472 245 2474 245 2476 L 245 2478 L 246 2478 L 249 2485 L 254 2494 C 254 2496 256 2495 255 2496 C 257 2494 255 2497 256 2497 L 254 2498 C 255 2503 255 2508 261 2505 L 261 2506 C 263 2505 260 2501 262 2502 C 263 2501 262 2502 262 2502 L 263 2502 C 266 2501 264 2503 264 2504 C 265 2501 265 2504 268 2505 C 269 2505 268 2507 270 2505 C 271 2506 272 2504 273 2504 C 273 2504 286 2510 284 2504 C 281 2501 289 2499 290 2495 C 292 2495 289 2494 290 2494 C 290 2496 291 2493 291 2494 C 291 2493 290 2489 292 2493 C 293 2495 294 2491 295 2494 C 295 2496 297 2493 298 2494 L 299 2492 L 300 2492 C 301 2492 301 2490 302 2491 C 303 2491 304 2493 307 2491 C 289 2451 334 2484 325 2456 C 324 2455 322 2452 326 2452 L 326 2447 C 330 2446 326 2440 327 2437 C 332 2436 327 2427 334 2426 C 332 2410 355 2402 367 2399 C 377 2405 357 2431 378 2424 C 385 2410 413 2411 411 2396 C 415 2365 459 2335 449 2290 Z"/>
            <path id="NO-04" fill="#777777" stroke="#231f20" stroke-width="0.4" stroke-linejoin="round" d="M 627 2569 C 626 2566 611 2569 612 2563 C 610 2551 594 2548 590 2536 C 564 2530 575 2545 572 2557 C 575 2568 566 2560 560 2558 C 551 2536 545 2568 515 2541 C 508 2541 503 2545 512 2545 C 493 2556 488 2527 476 2517 C 471 2516 471 2505 475 2503 C 470 2497 469 2481 458 2483 C 443 2457 468 2468 449 2450 C 445 2445 450 2440 448 2436 C 443 2437 443 2427 439 2430 C 439 2425 434 2427 435 2432 C 429 2431 426 2427 420 2427 C 403 2414 401 2398 378 2423 C 349 2434 394 2379 348 2407 C 348 2412 337 2409 338 2413 C 332 2419 332 2429 328 2437 C 325 2437 331 2446 325 2448 C 327 2452 323 2451 324 2454 C 325 2456 323 2461 328 2463 C 329 2474 288 2463 306 2484 C 307 2489 306 2492 311 2489 C 316 2490 317 2495 321 2492 C 323 2494 329 2497 331 2493 C 329 2491 333 2488 333 2491 C 331 2491 332 2492 332 2493 C 328 2495 339 2493 333 2489 C 334 2484 336 2494 340 2494 L 338 2494 C 338 2495 341 2495 339 2495 L 339 2497 C 337 2493 326 2495 325 2498 C 325 2501 328 2501 328 2504 C 335 2503 342 2495 349 2493 C 355 2491 360 2493 364 2492 C 359 2494 343 2493 344 2502 C 341 2499 330 2504 331 2509 C 327 2509 327 2513 326 2512 C 325 2514 325 2511 324 2512 C 325 2514 324 2513 323 2514 C 326 2515 324 2516 322 2517 C 321 2518 323 2520 321 2519 L 318 2525 C 319 2528 323 2526 324 2524 C 326 2526 327 2525 331 2524 C 334 2528 325 2526 324 2526 L 325 2528 C 323 2528 322 2527 321 2529 C 323 2531 316 2531 316 2530 C 314 2529 314 2532 313 2531 C 312 2532 310 2532 311 2534 C 310 2534 308 2534 309 2535 C 309 2534 306 2537 307 2538 C 306 2542 310 2539 309 2543 C 311 2547 309 2558 305 2558 C 306 2562 305 2558 304 2561 L 305 2564 C 304 2563 304 2564 303 2565 C 301 2566 299 2562 299 2563 L 298 2574 L 296 2579 C 296 2576 297 2572 295 2570 C 295 2568 294 2568 296 2567 C 293 2567 295 2566 296 2566 C 297 2564 295 2561 295 2559 C 295 2560 296 2562 296 2560 C 299 2559 295 2556 294 2557 C 292 2557 289 2552 287 2553 C 288 2552 285 2550 285 2550 L 279 2547 C 277 2546 282 2552 279 2550 C 277 2551 279 2551 278 2553 L 279 2561 C 278 2565 280 2565 281 2566 C 283 2564 283 2567 281 2566 C 281 2569 279 2564 280 2567 L 281 2569 C 280 2568 280 2569 280 2570 C 280 2572 283 2571 283 2574 L 279 2576 L 279 2577 C 278 2576 279 2577 279 2577 C 277 2578 278 2580 279 2580 C 277 2584 279 2588 277 2592 C 273 2595 274 2597 276 2601 L 280 2609 C 279 2611 280 2612 281 2614 C 290 2626 296 2642 307 2643 L 307 2644 L 309 2644 C 294 2652 329 2666 330 2660 C 331 2661 331 2662 334 2662 C 330 2662 341 2669 343 2667 C 344 2667 343 2669 344 2668 L 345 2668 C 345 2669 346 2670 348 2670 L 347 2668 L 349 2670 L 349 2669 C 350 2671 349 2668 351 2670 L 353 2671 C 355 2672 350 2672 353 2675 C 356 2673 356 2676 359 2677 C 362 2679 366 2678 367 2679 C 367 2681 368 2678 369 2678 L 371 2686 C 355 2694 381 2713 387 2713 C 389 2709 392 2714 395 2712 C 396 2713 395 2714 396 2713 C 397 2713 400 2713 399 2712 C 401 2711 400 2715 402 2714 C 401 2710 405 2715 404 2710 C 404 2711 404 2710 404 2710 C 404 2708 398 2712 400 2709 C 402 2710 402 2707 405 2708 C 405 2706 406 2709 407 2709 L 411 2709 L 410 2710 L 409 2710 C 401 2733 485 2735 506 2708 C 514 2707 535 2702 533 2694 C 532 2693 534 2693 532 2692 L 534 2693 C 537 2687 565 2669 564 2654 C 564 2652 564 2654 565 2654 C 567 2652 568 2653 567 2651 C 568 2652 569 2650 570 2648 C 572 2649 573 2644 573 2644 C 593 2634 613 2587 627 2569 Z"/>
            <path id="NO-03" fill="#777777" stroke="#231f20" stroke-width="0.4" stroke-linejoin="round" d="M 733 2497 C 737 2487 725 2454 719 2445 C 720 2425 729 2407 712 2391 C 712 2377 710 2376 701 2383 C 702 2379 690 2383 694 2378 C 693 2370 688 2369 693 2362 C 694 2357 691 2354 690 2350 C 691 2352 694 2352 691 2349 C 693 2346 694 2347 696 2345 C 695 2342 695 2338 698 2337 C 704 2342 703 2330 709 2327 C 706 2323 708 2320 707 2316 C 704 2313 704 2312 704 2306 C 698 2303 701 2295 698 2292 C 697 2292 695 2290 694 2291 L 694 2292 C 692 2290 692 2289 693 2288 C 677 2291 687 2271 684 2258 C 672 2250 676 2243 668 2232 C 660 2232 668 2240 657 2233 C 658 2236 655 2232 654 2233 L 653 2236 L 647 2232 C 651 2239 638 2233 637 2237 L 641 2240 C 635 2250 630 2248 628 2237 C 617 2234 602 2224 592 2239 C 589 2238 588 2234 586 2233 C 588 2212 557 2213 546 2202 C 536 2194 524 2198 516 2184 C 511 2179 504 2181 497 2176 C 494 2164 478 2174 490 2179 C 490 2183 488 2183 486 2184 C 490 2192 484 2190 480 2189 C 472 2217 441 2189 447 2231 C 446 2237 442 2236 438 2234 L 424 2250 C 469 2254 451 2351 421 2370 C 414 2374 407 2392 411 2397 C 399 2419 418 2428 435 2432 C 434 2427 439 2425 439 2430 C 442 2427 443 2434 445 2436 C 453 2438 442 2449 454 2454 C 459 2462 454 2464 451 2472 C 456 2474 458 2479 459 2484 C 470 2479 476 2506 472 2512 C 479 2520 486 2533 493 2539 C 493 2547 507 2550 512 2545 C 503 2545 508 2541 515 2541 C 528 2548 541 2562 552 2547 C 558 2552 565 2566 573 2561 C 572 2553 579 2548 568 2544 C 581 2520 608 2549 611 2565 C 619 2566 624 2569 628 2568 L 628 2566 L 630 2566 L 630 2565 L 632 2563 L 632 2562 C 631 2562 632 2563 632 2562 C 645 2559 652 2544 655 2535 C 670 2538 666 2530 670 2528 C 672 2532 672 2527 673 2529 C 673 2525 674 2531 674 2529 L 678 2529 C 678 2528 676 2526 678 2526 L 679 2527 L 679 2528 C 680 2529 679 2526 680 2528 L 681 2526 L 682 2527 C 688 2525 691 2527 693 2520 C 693 2522 696 2518 696 2517 C 696 2519 697 2515 697 2517 C 697 2512 741 2514 733 2497 Z"/>
            <path id="NO-02" fill="#777777" stroke="#231f20" stroke-width="0.4" stroke-linejoin="round" d="M 882 2275 C 887 2225 859 2186 834 2140 C 892 2121 853 2128 888 2099 C 892 2055 832 2046 811 2020 C 805 1997 823 1906 795 1917 C 787 1911 762 1903 760 1915 C 757 1917 757 1912 755 1910 C 743 1918 741 1902 733 1895 C 723 1898 713 1892 706 1890 C 692 1867 702 1873 676 1864 C 668 1863 665 1874 660 1874 C 660 1869 653 1870 650 1873 C 612 1868 617 1866 605 1897 C 618 1921 612 1917 601 1936 C 597 1933 592 1933 596 1938 C 598 1939 596 1938 596 1939 L 596 1942 C 596 1948 582 1949 578 1954 C 525 1925 470 1938 437 1981 C 429 1972 422 1989 414 1992 C 420 1995 419 2001 413 2001 C 411 1995 405 1998 401 1999 C 403 2001 399 2006 396 2008 C 402 2023 407 2045 415 2062 C 458 2032 440 2108 475 2089 C 480 2089 482 2094 483 2098 C 496 2117 464 2099 476 2121 C 477 2123 478 2123 479 2123 C 480 2124 480 2125 482 2125 C 483 2127 482 2131 480 2129 C 482 2133 477 2131 476 2133 C 475 2138 469 2144 464 2146 C 472 2147 465 2157 470 2155 C 473 2163 484 2176 492 2168 C 497 2180 508 2178 516 2184 C 521 2185 521 2191 524 2193 C 537 2197 545 2201 556 2208 C 568 2214 588 2217 586 2233 C 595 2247 607 2210 633 2247 C 633 2250 640 2241 641 2240 C 640 2239 637 2238 637 2236 C 646 2236 649 2231 652 2236 C 653 2237 653 2236 654 2233 C 661 2231 663 2241 665 2232 C 677 2234 670 2252 680 2253 C 690 2261 677 2288 688 2288 C 690 2287 694 2286 692 2290 L 693 2292 C 694 2292 696 2292 694 2291 C 696 2289 697 2292 699 2292 C 701 2295 697 2297 700 2299 C 700 2303 704 2305 704 2309 C 705 2311 703 2312 705 2315 C 708 2314 707 2316 708 2317 C 709 2316 717 2319 714 2314 L 716 2313 C 717 2314 718 2313 718 2312 C 718 2312 720 2314 721 2313 C 723 2314 723 2307 722 2306 L 729 2306 C 731 2305 730 2310 731 2311 C 734 2310 737 2319 737 2322 C 740 2324 737 2330 743 2329 C 743 2332 743 2336 745 2336 C 748 2343 740 2335 742 2342 C 740 2341 742 2349 744 2345 C 745 2348 745 2343 748 2347 C 752 2345 749 2358 752 2363 C 751 2366 758 2366 759 2365 L 760 2362 C 770 2365 758 2351 757 2350 C 759 2347 759 2343 759 2340 C 761 2341 761 2341 762 2338 C 761 2337 760 2333 761 2330 C 760 2327 759 2323 763 2324 C 766 2327 764 2316 769 2323 C 773 2313 786 2323 785 2331 C 786 2336 799 2323 800 2322 C 804 2321 810 2325 813 2324 C 815 2319 823 2324 825 2320 C 830 2317 824 2327 825 2331 C 830 2333 825 2341 829 2342 C 830 2345 832 2354 836 2347 C 834 2344 836 2344 838 2344 C 840 2336 852 2339 858 2339 C 873 2323 890 2298 882 2275 Z"/>
            <path id="NO-01" fill="#777777" stroke="#231f20" stroke-width="0.4" stroke-linejoin="round" d="M 844 2459 C 849 2428 806 2393 845 2374 C 842 2370 843 2360 838 2355 C 835 2351 831 2351 831 2346 L 827 2338 C 827 2336 829 2333 825 2331 C 824 2327 830 2317 825 2320 C 823 2323 815 2320 812 2325 C 802 2318 794 2327 786 2333 C 785 2327 781 2322 775 2317 C 771 2319 771 2325 767 2321 C 764 2321 767 2327 761 2324 C 759 2329 762 2337 761 2340 C 757 2341 759 2341 759 2346 C 754 2352 761 2354 765 2360 C 763 2365 758 2361 759 2365 C 757 2368 748 2363 751 2359 C 750 2353 752 2346 748 2348 C 747 2347 746 2344 744 2346 C 745 2343 743 2347 742 2347 L 738 2346 C 737 2348 733 2350 736 2351 C 743 2350 740 2362 741 2362 C 732 2365 737 2360 731 2358 C 725 2353 732 2365 729 2369 C 725 2367 727 2359 722 2362 C 718 2361 718 2356 715 2354 L 715 2348 C 713 2345 707 2341 704 2342 C 692 2327 699 2347 693 2346 L 691 2349 C 693 2351 692 2353 690 2350 C 691 2354 696 2363 690 2366 C 690 2370 694 2373 694 2377 C 692 2383 699 2379 701 2382 C 700 2384 701 2381 702 2382 C 711 2376 712 2378 712 2391 C 734 2418 710 2454 734 2482 C 737 2488 732 2497 736 2502 C 743 2495 758 2486 755 2477 C 757 2477 757 2474 757 2475 C 761 2476 760 2481 763 2482 C 762 2481 765 2478 765 2480 C 766 2482 766 2481 766 2479 C 768 2480 766 2480 766 2482 L 767 2484 L 768 2484 C 768 2486 766 2487 768 2486 L 769 2486 L 770 2484 L 770 2489 L 771 2488 L 772 2488 C 774 2485 772 2490 773 2490 C 780 2487 772 2480 771 2474 C 773 2474 771 2479 774 2479 C 776 2480 776 2485 777 2485 C 779 2485 779 2482 780 2483 C 783 2483 779 2480 780 2478 C 776 2475 780 2478 782 2478 L 782 2483 L 785 2484 C 784 2490 786 2484 783 2485 C 783 2486 782 2484 782 2486 C 784 2485 781 2489 783 2488 L 783 2489 C 784 2488 783 2490 784 2490 C 785 2490 786 2487 785 2490 C 786 2492 786 2485 787 2486 C 786 2489 784 2497 787 2491 L 788 2494 C 786 2493 786 2495 788 2494 C 792 2491 803 2487 804 2483 C 806 2484 810 2481 809 2484 L 810 2482 L 810 2484 C 808 2486 813 2490 814 2492 C 812 2493 816 2495 815 2491 L 815 2495 L 819 2500 C 822 2506 820 2511 822 2522 C 834 2520 822 2526 819 2528 C 827 2526 834 2519 821 2528 C 824 2526 831 2522 831 2519 C 833 2521 835 2520 837 2517 C 841 2518 839 2513 840 2512 C 843 2509 839 2502 841 2500 C 846 2485 843 2474 844 2459 Z"/>
            <path id="NO-00" fill="#777777" stroke="#231f20" stroke-width="0.4" stroke-linejoin="round" d="M 745 2338 C 745 2335 741 2334 743 2329 C 737 2329 738 2319 735 2315 C 734 2310 730 2311 730 2306 L 722 2306 C 724 2313 721 2313 717 2313 L 715 2314 C 715 2319 709 2315 706 2321 C 715 2328 692 2341 707 2342 C 710 2344 714 2345 715 2348 L 715 2354 L 719 2361 C 726 2361 726 2363 729 2369 C 730 2365 730 2361 728 2358 C 728 2355 732 2357 733 2359 C 733 2357 735 2361 735 2362 C 740 2367 742 2358 741 2352 C 739 2350 735 2353 735 2349 C 740 2344 739 2348 743 2346 C 739 2344 744 2342 741 2338 C 743 2339 747 2341 745 2338 Z"/>
        </g>
    </g>
</svg>
