<?xml version="1.0" encoding="UTF-8"?>
<!-- Generated by Pixelmator Pro 3.6.10 -->
<svg width="1101" height="659" viewBox="0 0 1101 659" xmlns="http://www.w3.org/2000/svg">
    <g id="Landen">
        <g id="OOSTENRIJK">
            <path id="AT-99" fill="#5d4182" stroke="#231f20" stroke-width="0.4" stroke-linejoin="round" d="M 532 517 C 530 514 527 512 524 511 C 524 508 521 506 522 503 C 515 501 509 497 506 490 C 507 486 514 479 505 482 C 501 481 500 474 494 474 C 487 469 481 470 473 467 C 464 471 459 475 451 483 C 445 488 445 497 437 497 C 433 499 436 502 438 504 C 438 507 437 508 440 509 C 445 513 436 516 446 516 C 449 526 455 510 459 524 C 463 526 459 527 459 530 C 459 540 468 530 471 540 C 475 552 489 546 497 553 L 504 550 C 505 550 506 552 507 551 C 515 548 510 549 510 542 C 510 540 516 542 513 540 C 508 527 532 536 529 523 C 529 520 528 519 532 517 Z"/>
            <path id="AT-98" fill="#4e2160" stroke="#231f20" stroke-width="0.4" stroke-linejoin="round" d="M 636 482 C 635 480 632 480 632 478 C 630 467 617 475 619 464 L 613 464 C 611 460 602 466 597 463 C 591 459 584 467 581 463 C 578 458 571 464 567 464 C 563 465 566 468 566 471 C 561 474 555 474 552 478 C 549 479 546 477 546 481 C 542 481 540 476 537 477 C 531 483 530 469 523 473 C 521 471 519 474 517 473 C 514 469 508 475 504 471 C 505 468 502 466 500 469 L 496 470 C 498 472 496 473 495 474 C 500 476 501 479 504 482 C 507 483 513 480 509 484 C 503 492 512 500 520 502 C 522 503 523 508 524 511 C 529 513 531 517 536 518 C 541 522 543 515 548 515 C 553 515 554 512 558 509 C 561 508 562 509 565 510 L 569 508 C 572 503 579 508 581 506 C 583 505 587 507 589 507 L 589 510 C 591 513 594 514 598 514 C 599 517 600 517 602 517 C 603 516 605 519 606 518 C 607 517 608 515 608 517 C 618 513 605 514 609 511 C 607 510 609 510 609 508 C 607 504 621 515 622 510 C 626 504 615 506 619 497 C 625 496 620 493 621 490 L 630 487 C 630 483 633 482 636 482 Z"/>
            <path id="AT-97" fill="#8a69ad" stroke="#231f20" stroke-width="0.4" stroke-linejoin="round" d="M 643 525 C 640 523 636 521 633 517 C 633 514 630 512 627 509 C 625 505 623 507 622 510 C 619 514 606 503 609 509 C 606 512 612 513 612 516 C 609 516 609 515 607 517 C 605 519 603 517 601 517 C 599 518 599 515 597 514 C 593 514 587 511 589 507 L 582 505 C 580 508 574 504 571 506 L 564 510 C 562 508 560 509 558 509 C 554 513 552 515 546 515 C 541 520 538 519 531 517 C 527 521 531 525 527 531 C 528 533 533 530 531 534 C 532 534 534 536 534 533 C 536 535 538 533 541 532 L 550 535 C 554 535 558 533 560 537 C 565 535 573 533 573 529 C 576 527 581 534 582 531 C 584 530 588 535 592 533 C 594 533 596 537 598 535 C 609 533 596 532 611 533 C 620 531 632 537 641 529 L 643 529 C 641 528 643 526 643 525 Z"/>
            <path id="AT-96" fill="#7a54a1" stroke="#231f20" stroke-width="0.4" stroke-linejoin="round" d="M 641 546 C 639 545 641 546 641 545 C 640 544 639 545 639 543 C 638 538 637 540 634 541 C 632 541 628 537 625 538 C 623 539 621 540 620 539 C 611 538 620 532 615 533 C 611 533 608 534 604 532 C 602 535 600 535 596 535 C 593 533 586 533 583 530 C 581 533 579 530 575 529 C 572 531 567 537 560 537 C 558 532 553 536 549 534 C 546 535 544 532 541 533 L 533 535 C 529 535 532 532 531 532 C 525 532 523 529 517 532 C 511 534 512 537 513 541 C 509 539 510 550 514 550 C 515 550 516 553 517 552 C 520 546 525 552 529 551 C 530 554 530 556 534 554 L 563 552 C 571 551 577 557 583 555 C 592 556 588 552 594 551 C 595 546 600 553 604 552 C 607 551 610 547 611 551 C 613 554 616 548 619 551 C 624 550 639 557 641 546 Z"/>
            <path id="AT-95" fill="#7b3786" stroke="#231f20" stroke-width="0.4" stroke-linejoin="round" d="M 685 533 C 683 532 683 531 684 531 C 682 530 685 528 683 527 C 680 529 675 525 677 531 C 675 532 673 533 675 534 C 667 537 676 536 680 540 C 679 536 685 537 684 534 L 685 533 Z M 703 500 C 700 502 701 500 699 497 L 691 494 C 690 495 689 494 688 496 C 687 495 686 494 684 495 C 683 496 685 500 683 498 C 677 498 683 496 682 495 L 681 495 C 679 491 678 496 676 495 C 672 495 678 490 675 489 C 674 488 678 487 676 487 C 675 485 670 486 669 483 C 670 481 668 483 668 482 C 665 481 663 478 661 476 C 660 476 659 475 659 473 L 656 474 C 653 472 654 471 651 472 C 653 476 651 475 649 476 C 648 476 648 478 646 478 C 645 479 645 481 643 481 C 640 484 638 482 633 482 C 630 483 631 486 628 487 C 620 489 621 489 622 496 C 619 496 618 497 617 500 C 620 502 617 504 620 505 C 623 506 623 508 625 506 C 627 511 633 513 633 517 L 643 526 C 641 528 644 529 641 529 C 635 537 614 530 616 535 C 612 537 619 538 621 539 C 625 537 631 538 633 541 C 642 537 635 543 641 545 C 642 547 634 554 643 552 C 646 552 648 554 650 551 L 657 549 C 669 548 669 557 669 542 C 671 540 666 540 667 538 L 665 538 C 664 537 663 535 665 535 C 666 535 655 532 659 529 L 659 528 C 659 528 657 527 658 526 C 660 527 661 524 662 524 C 665 521 668 520 672 521 C 674 520 675 518 677 518 L 678 518 C 680 518 681 518 681 516 L 685 516 C 686 515 687 509 689 512 L 692 511 L 695 511 C 699 506 701 510 703 500 Z"/>
            <path id="AT-94" fill="#5d4182" stroke="#231f20" stroke-width="0.4" stroke-linejoin="round" d="M 792 500 L 790 498 L 787 498 C 787 497 786 493 788 490 C 787 489 785 488 787 487 C 784 486 785 482 783 481 C 774 482 777 474 780 469 C 777 466 778 463 779 459 C 774 439 759 449 753 438 C 749 440 728 446 728 451 C 730 456 735 454 737 458 C 735 460 739 464 737 467 C 734 471 736 480 740 481 L 750 489 L 752 489 L 753 491 L 753 494 C 753 494 756 494 755 496 C 759 497 759 503 764 502 C 765 501 768 500 767 503 C 773 505 781 505 784 510 C 785 506 787 501 792 500 Z"/>
            <path id="AT-93" fill="#4e2160" stroke="#231f20" stroke-width="0.4" stroke-linejoin="round" d="M 737 459 C 739 456 733 456 732 455 C 727 451 726 451 722 454 L 718 454 C 714 453 714 456 711 456 C 709 456 712 452 710 453 C 708 452 710 453 709 455 C 709 456 706 456 706 454 C 703 449 707 446 701 453 C 700 455 699 453 698 452 L 693 452 L 686 454 C 680 456 677 455 670 451 C 668 450 669 453 669 454 C 664 456 664 464 658 463 L 658 466 C 656 468 657 470 654 470 C 652 471 654 473 655 473 C 657 475 657 472 659 473 L 665 481 C 667 482 670 482 669 483 C 669 486 675 485 677 487 C 674 489 675 488 676 490 C 676 493 673 495 676 495 C 678 496 679 491 681 495 L 682 495 C 681 498 679 497 684 499 C 684 497 685 493 688 496 C 689 494 692 493 694 496 C 696 495 699 497 700 499 L 701 500 C 699 503 704 498 703 501 C 699 508 705 505 707 504 C 709 505 709 502 711 504 C 714 502 713 500 716 502 C 716 499 718 504 719 503 L 721 498 C 723 501 726 506 729 502 C 730 501 731 501 730 500 C 731 499 732 501 732 499 C 730 496 734 497 735 496 C 733 495 736 494 733 494 C 732 489 735 490 737 493 C 739 490 739 479 735 473 C 735 468 739 464 737 459 Z"/>
            <path id="AT-92" fill="#8a69ad" stroke="#231f20" stroke-width="0.4" stroke-linejoin="round" d="M 697 520 C 696 518 693 522 693 519 C 691 519 689 526 688 522 C 687 520 685 522 683 521 C 682 520 680 518 678 518 L 675 518 C 674 520 673 521 671 521 C 664 520 663 525 658 527 C 660 529 657 529 659 531 C 658 534 667 535 665 535 C 662 536 666 540 667 538 C 667 539 668 541 670 541 L 671 539 C 672 539 673 539 672 538 C 670 535 674 535 675 533 C 672 533 677 531 677 531 C 674 528 682 524 684 525 C 689 527 696 527 697 520 Z"/>
            <path id="AT-91" fill="#7a54a1" stroke="#231f20" stroke-width="0.4" stroke-linejoin="round" d="M 780 506 C 775 502 767 507 767 501 C 761 505 759 499 756 497 C 754 497 756 493 753 494 L 752 490 C 753 488 751 490 750 489 L 740 481 C 737 479 738 482 738 485 C 735 487 740 494 737 493 C 735 491 732 489 733 494 C 736 494 733 495 735 496 C 734 497 730 496 732 500 C 731 501 731 500 730 499 L 729 502 C 728 504 724 502 725 505 C 727 505 730 508 733 508 C 729 513 727 508 723 507 C 719 508 713 513 719 511 C 717 514 715 516 716 520 C 716 523 719 522 721 524 C 721 524 722 522 723 524 C 726 530 719 532 713 533 C 713 533 713 528 710 529 C 710 527 710 529 709 529 C 707 527 705 528 706 530 L 702 531 C 701 534 696 535 700 537 C 692 538 685 546 676 538 C 676 537 673 536 671 537 C 673 539 671 539 671 540 C 666 542 668 557 675 552 C 678 548 683 552 686 551 C 688 554 691 561 695 556 L 700 556 C 703 558 706 551 710 555 L 715 553 C 718 553 721 549 724 550 C 726 551 723 551 724 552 L 726 554 L 731 554 C 735 550 737 552 741 557 C 741 562 744 558 744 555 C 744 552 742 550 744 548 L 752 544 C 752 540 753 542 755 540 C 755 540 755 533 757 535 C 758 535 760 531 763 533 C 767 532 767 528 768 526 C 769 525 766 525 767 524 C 769 521 769 508 775 512 C 777 512 777 512 776 510 C 778 509 780 508 780 506 Z M 701 534 C 702 534 701 534 701 534 Z"/>
            <path id="AT-90" fill="#7b3786" stroke="#231f20" stroke-width="0.4" stroke-linejoin="round" d="M 701 534 C 701 534 702 534 701 534 Z M 732 508 C 727 508 725 502 721 498 L 719 503 C 716 503 717 500 716 502 C 713 498 712 506 710 504 C 709 503 708 506 707 504 C 706 506 703 504 701 506 C 701 509 697 508 696 509 C 695 511 694 510 693 511 L 688 511 C 684 515 687 515 681 516 C 677 519 681 519 684 521 C 687 522 687 520 688 523 C 690 523 692 517 693 520 C 699 518 697 523 694 525 C 690 528 686 525 683 525 C 677 526 681 530 684 527 C 685 529 682 530 684 531 C 683 531 682 532 685 533 L 684 534 C 685 537 680 536 680 539 C 685 546 694 537 700 537 C 698 538 700 535 698 535 C 697 534 700 535 700 534 C 702 533 701 531 702 531 L 705 530 C 707 530 705 527 708 528 C 712 529 712 528 713 533 C 713 533 727 530 724 526 C 723 524 723 521 721 524 C 720 524 716 523 716 520 C 715 516 717 514 719 512 C 720 510 717 511 718 511 C 715 512 721 506 724 507 L 728 510 C 729 510 733 510 732 508 Z"/>
            <path id="AT-89" fill="#5d4182" stroke="#231f20" stroke-width="0.4" stroke-linejoin="round" d="M 766 309 C 759 299 755 305 752 313 C 745 315 739 327 735 322 C 730 314 723 328 716 319 L 712 319 C 712 322 710 321 708 323 C 693 329 702 315 688 323 C 683 321 694 329 687 332 C 699 340 678 346 674 354 C 661 356 665 344 653 352 C 634 367 653 342 620 343 C 609 344 597 356 602 371 C 616 369 614 398 597 391 L 593 392 C 596 395 590 401 593 403 C 594 404 584 408 591 406 C 600 404 597 424 603 424 C 605 426 608 424 610 424 C 614 427 613 425 615 422 C 622 425 622 418 626 418 C 625 426 642 424 642 420 C 645 417 649 420 650 417 C 654 410 659 424 663 411 L 666 408 C 669 409 670 406 672 404 C 672 401 670 399 672 397 C 671 395 667 395 668 392 C 670 386 673 381 669 376 C 666 376 664 372 668 372 C 672 374 677 369 676 367 L 676 366 L 681 363 C 683 361 689 362 690 362 C 699 370 697 357 703 359 C 703 366 714 367 718 365 C 718 359 724 353 726 348 C 732 349 733 357 733 346 C 735 343 742 343 743 339 C 749 339 749 342 756 338 C 765 337 757 324 760 319 C 762 315 768 311 760 314 C 759 313 764 312 764 309 L 766 309 Z"/>
            <path id="AT-88" fill="#4e2160" stroke="#231f20" stroke-width="0.4" stroke-linejoin="round" d="M 725 451 L 714 430 C 710 430 712 427 710 426 C 707 426 705 424 705 422 C 707 419 703 419 704 417 C 704 416 702 419 702 417 C 701 415 700 416 699 417 L 694 417 C 695 416 693 416 693 415 C 692 413 692 410 689 410 C 685 413 682 407 679 407 C 678 405 676 402 672 403 C 671 405 669 409 667 408 C 665 407 666 410 665 410 C 660 412 661 420 654 415 C 653 412 650 417 649 419 C 647 418 644 418 642 420 C 644 426 631 419 633 425 C 630 429 634 430 636 432 C 638 433 639 433 638 435 C 639 435 640 434 641 436 C 641 437 646 436 647 439 C 652 440 652 443 647 444 C 645 441 643 443 642 445 C 633 451 646 452 641 458 C 639 465 640 472 634 477 C 629 479 640 485 643 481 C 645 481 648 474 651 476 C 653 475 650 473 652 472 L 656 469 L 657 467 L 657 464 C 665 461 662 461 668 455 C 671 455 666 450 671 451 C 674 453 680 458 684 453 C 686 455 686 453 688 454 L 689 454 L 691 453 C 699 450 700 457 704 449 C 705 453 705 457 709 455 C 710 452 708 452 711 453 C 710 460 714 453 718 454 C 721 452 723 456 725 451 Z"/>
            <path id="AT-87" fill="#8a69ad" stroke="#231f20" stroke-width="0.4" stroke-linejoin="round" d="M 789 380 C 784 380 783 373 782 369 C 780 370 780 368 778 366 C 775 365 777 364 776 363 C 769 363 772 369 763 359 C 761 354 760 350 754 351 C 752 350 752 343 749 347 C 742 343 753 338 745 340 C 742 339 738 345 734 345 L 733 348 C 733 358 730 347 726 348 C 725 352 719 357 719 361 C 713 375 704 357 699 359 C 698 371 690 358 687 363 C 684 359 675 366 677 367 C 675 368 673 374 668 372 C 660 375 678 374 669 390 C 666 396 672 395 672 401 C 671 404 677 402 678 406 C 680 408 685 411 688 411 C 691 408 694 417 694 417 L 699 417 C 700 418 700 416 701 416 C 702 419 702 416 704 417 L 705 419 C 707 421 704 422 705 424 C 709 426 711 427 713 430 C 717 430 724 456 728 451 C 729 444 759 438 754 436 C 758 426 759 435 761 430 C 761 428 758 427 759 425 C 763 421 761 417 765 412 C 767 409 770 409 772 405 C 770 401 775 400 776 396 L 785 387 C 784 384 787 381 789 380 Z"/>
            <path id="AT-86" fill="#7a54a1" stroke="#231f20" stroke-width="0.4" stroke-linejoin="round" d="M 861 331 C 856 317 853 331 851 323 C 855 311 847 323 847 316 C 845 314 841 315 838 317 C 834 316 835 304 830 304 C 828 311 820 303 819 300 C 819 297 818 295 816 292 L 813 293 C 809 296 799 295 800 300 C 795 294 795 303 792 294 C 798 285 779 295 780 297 C 783 304 772 298 771 303 C 770 306 773 306 771 309 L 764 309 C 764 312 757 314 761 313 C 769 311 760 316 759 320 C 758 325 762 332 760 337 C 755 340 742 339 747 346 C 749 348 749 346 751 346 C 752 352 756 350 760 352 C 762 358 765 363 770 365 C 773 364 774 362 777 363 C 776 364 775 365 778 366 C 780 369 781 370 782 369 C 783 373 784 377 787 380 C 791 379 789 377 790 375 L 793 371 L 796 369 L 799 369 C 802 363 802 375 804 373 C 807 375 810 369 813 370 L 816 370 C 818 371 822 369 823 369 C 824 369 826 370 826 368 L 829 368 L 831 367 C 830 366 832 365 832 364 C 833 363 831 362 833 362 L 830 359 L 837 357 C 838 359 837 356 839 355 C 837 349 843 353 843 349 C 844 347 843 347 841 347 C 837 344 843 345 846 340 C 847 337 849 341 849 338 C 854 338 860 337 861 331 Z"/>
            <path id="AT-85" fill="#4e2160" stroke="none" d="M 836 463 C 834 456 830 461 826 454 C 824 453 827 450 824 448 C 822 450 820 452 818 449 C 811 445 819 441 816 437 C 814 437 814 439 812 437 L 811 434 C 809 434 808 435 807 433 C 806 436 805 432 804 434 L 802 433 L 797 433 C 797 431 796 432 795 431 C 792 428 794 429 796 427 C 793 427 791 426 790 423 C 788 423 786 422 787 420 C 788 419 783 417 783 415 C 781 401 776 402 766 410 L 761 418 C 762 421 762 423 759 425 C 757 427 764 432 759 432 C 753 428 757 440 753 438 C 753 445 769 444 771 447 C 772 450 773 447 774 449 L 778 456 C 781 460 776 465 780 469 C 775 479 776 478 784 482 C 784 484 786 486 787 487 C 785 488 789 489 787 491 C 787 494 785 500 788 499 C 791 497 793 504 797 499 C 798 497 799 500 800 499 C 800 497 805 498 807 498 C 810 501 821 496 820 494 C 816 493 821 490 818 489 C 817 486 819 486 821 487 C 821 485 823 485 822 483 C 821 481 823 480 819 479 L 819 474 C 822 474 819 470 823 471 C 822 468 825 467 824 465 C 826 465 830 464 829 467 C 832 467 835 468 836 463 Z"/>
            <path id="AT-84" fill="#5d4182" stroke="#231f20" stroke-width="0.4" stroke-linejoin="round" d="M 906 476 C 906 473 906 471 904 469 C 903 469 904 467 903 468 L 901 467 L 899 466 L 898 464 L 897 462 L 897 460 L 896 456 L 895 453 C 894 455 893 452 891 453 C 892 454 891 456 893 457 L 894 460 L 892 460 L 890 461 L 888 462 C 887 460 884 460 883 462 C 884 464 881 463 881 463 C 881 462 881 459 880 460 C 877 463 877 458 877 458 C 876 459 873 460 874 462 L 874 463 L 873 464 L 874 465 C 875 466 872 467 871 467 L 867 463 C 866 463 866 465 865 464 L 862 464 C 860 464 860 460 862 461 C 864 457 858 459 859 455 C 862 453 857 451 859 450 C 862 448 857 448 856 446 L 855 447 L 854 445 L 848 445 C 847 440 841 443 838 440 L 836 444 L 836 445 C 833 446 834 435 829 435 C 828 435 827 433 828 435 C 826 434 823 435 824 437 C 825 437 825 440 826 438 C 827 438 827 440 828 438 C 830 444 833 449 825 449 C 824 455 829 458 833 459 C 836 460 837 466 834 467 L 829 467 C 829 465 828 464 827 465 C 826 466 824 464 824 466 C 825 468 822 466 824 467 C 823 468 822 469 823 471 C 819 469 822 475 819 474 C 820 475 819 474 819 474 L 819 475 C 819 480 822 479 822 483 C 823 485 821 485 821 487 L 818 487 C 817 490 820 489 819 491 C 816 493 821 496 823 495 L 828 494 C 830 493 833 491 834 492 C 834 494 836 493 836 494 L 839 494 C 839 496 841 500 843 496 L 845 496 L 846 495 L 848 493 C 848 492 849 494 849 492 C 850 490 848 491 850 489 C 848 486 848 486 850 485 L 852 483 C 853 483 854 481 855 482 L 855 483 L 858 482 L 858 480 L 859 480 C 860 476 862 478 866 478 C 880 468 895 472 906 476 Z"/>
            <path id="AT-83" fill="#4e2160" stroke="#231f20" stroke-width="0.4" stroke-linejoin="round" d="M 921 418 C 920 418 920 418 921 418 Z M 921 419 C 920 417 919 418 919 416 L 918 417 L 918 416 L 917 417 C 917 416 917 419 916 417 L 916 416 L 915 417 L 915 416 L 915 417 L 914 417 L 915 417 L 911 417 C 910 418 911 417 911 417 L 906 417 C 905 416 904 419 905 420 L 903 421 L 901 419 C 901 421 900 420 899 420 C 896 418 897 415 901 414 C 901 414 898 412 898 414 C 893 414 896 411 893 409 C 893 409 891 409 892 408 L 893 408 C 892 407 891 408 890 409 C 889 409 887 409 888 411 L 884 411 C 881 409 881 412 879 412 C 878 410 876 409 875 410 C 875 412 875 409 874 409 C 872 410 871 411 869 410 C 868 408 869 408 867 408 C 865 408 862 410 862 412 C 861 410 861 412 861 412 L 857 412 C 858 415 854 409 853 411 C 852 412 854 416 851 415 L 849 417 C 848 416 846 418 847 416 C 845 417 845 416 846 414 L 845 415 C 843 413 842 414 841 414 C 840 413 844 413 840 412 C 838 413 838 414 837 412 C 833 413 838 416 832 418 C 834 420 838 419 836 422 L 839 420 L 840 418 C 843 419 841 422 841 423 L 843 429 C 844 429 845 426 846 427 C 850 425 847 431 852 431 L 853 429 C 854 428 857 430 856 431 C 854 436 861 432 862 437 C 868 439 864 441 865 443 L 869 451 C 869 453 874 450 872 453 C 875 457 873 455 877 455 L 877 459 L 878 461 C 879 461 880 458 881 460 C 881 462 880 463 882 463 C 883 465 885 456 887 461 C 888 462 891 461 891 460 L 894 460 L 893 457 C 892 457 890 452 893 453 C 894 454 898 453 896 451 C 895 450 894 449 895 448 L 897 448 C 899 444 899 447 900 446 L 902 445 L 904 442 C 905 441 905 439 906 441 L 908 438 C 911 437 911 434 912 431 C 915 432 914 425 915 424 L 916 425 L 917 424 L 918 425 L 920 422 L 921 419 Z M 919 417 C 918 418 918 417 919 417 Z"/>
            <path id="AT-82" fill="#8a69ad" stroke="#231f20" stroke-width="0.4" stroke-linejoin="round" d="M 908 417 C 908 416 908 416 908 417 C 908 417 908 416 908 417 L 907 416 C 908 416 907 416 907 416 L 905 415 C 907 415 904 413 903 413 C 903 412 904 412 902 411 C 904 410 902 411 902 410 C 903 410 902 410 902 410 L 902 409 C 903 408 901 408 901 408 L 899 406 L 897 404 L 897 398 C 899 397 898 396 899 394 C 904 394 899 390 900 387 L 895 381 C 894 380 894 376 892 377 L 891 376 L 891 375 C 891 374 891 375 891 375 L 890 374 L 890 372 L 887 369 C 888 367 886 368 886 367 L 886 365 L 885 364 L 885 363 L 884 363 C 883 361 885 361 883 361 L 883 360 L 882 360 L 882 358 L 880 357 C 878 357 881 352 883 352 C 884 351 883 347 886 348 L 887 347 C 886 345 889 346 890 346 C 894 343 896 343 891 341 C 888 338 889 335 885 331 C 875 327 887 340 883 339 L 881 336 C 881 336 879 337 877 335 C 873 333 876 340 872 338 C 871 345 865 320 858 336 C 856 336 855 339 851 337 L 849 338 L 848 339 C 845 337 845 342 842 344 C 837 343 841 348 844 347 C 846 351 848 356 852 359 C 855 361 850 365 848 365 C 849 368 846 374 850 375 C 855 377 848 381 852 380 L 855 383 C 853 383 854 387 856 388 C 850 391 853 399 850 404 C 849 406 847 404 846 405 L 846 406 C 842 405 842 405 842 409 C 843 411 845 409 847 410 C 846 411 843 411 844 413 C 845 414 844 415 845 414 C 846 414 844 417 846 416 L 847 416 C 846 418 849 416 849 418 L 851 416 L 853 414 L 853 411 C 854 409 856 414 858 413 C 857 412 860 412 861 412 C 861 411 865 407 868 408 C 870 408 868 409 869 410 C 871 411 872 410 874 409 C 875 412 875 409 877 410 L 878 410 C 878 411 880 413 881 411 L 888 411 L 889 409 C 890 409 893 406 893 409 L 892 409 C 896 409 894 413 895 413 C 897 414 897 415 898 413 L 900 414 C 897 416 896 419 900 421 C 903 418 904 424 903 421 C 907 419 902 416 908 417 Z"/>
            <path id="AT-81" fill="#7a54a1" stroke="#231f20" stroke-width="0.4" stroke-linejoin="round" d="M 854 389 C 857 388 853 385 854 383 C 857 383 853 381 852 380 C 848 380 854 378 851 376 C 850 374 846 372 848 367 C 848 364 850 365 852 362 C 855 359 848 356 847 353 L 844 347 C 843 346 843 350 842 350 C 841 352 838 351 839 354 C 837 357 839 358 836 357 L 832 359 L 830 359 L 833 362 C 831 361 833 364 832 365 C 831 365 830 366 831 367 C 830 367 828 367 830 368 L 826 368 C 826 370 824 369 823 369 C 822 369 818 371 816 370 L 813 370 C 810 369 807 375 804 373 C 801 373 806 365 798 368 C 797 370 796 368 796 368 L 794 371 C 792 371 793 373 791 374 C 788 375 791 378 789 380 C 787 381 784 383 785 386 C 782 392 775 397 771 402 C 774 410 780 395 783 416 C 787 419 787 419 787 422 C 790 423 792 427 795 427 C 796 429 791 429 795 431 C 795 433 797 430 797 433 L 802 433 L 804 434 C 805 432 806 433 806 434 L 808 434 C 810 434 811 434 812 436 L 813 438 C 815 436 818 439 817 440 C 813 444 816 449 820 450 C 821 450 823 450 824 448 C 827 449 828 448 831 447 C 832 446 828 440 828 438 L 825 438 C 824 431 821 437 816 436 C 816 432 813 433 813 429 C 812 428 812 425 809 424 L 807 426 L 807 424 C 808 420 810 425 807 418 C 810 420 810 417 811 416 C 811 412 812 414 814 414 C 817 413 813 409 813 408 C 813 406 815 406 814 404 C 814 400 823 399 820 395 C 818 389 820 394 822 392 C 824 394 829 393 830 396 C 833 396 834 399 835 397 C 835 397 837 399 835 400 C 837 401 847 409 846 404 C 854 406 850 391 854 389 Z"/>
            <path id="AT-80" fill="#7b3786" stroke="#231f20" stroke-width="0.4" stroke-linejoin="round" d="M 877 456 C 876 453 874 459 873 452 C 868 452 866 448 865 443 C 862 441 867 443 865 440 C 866 438 861 438 860 434 C 859 433 856 436 855 432 C 856 430 855 428 853 429 L 852 431 C 849 433 849 426 847 427 C 846 428 845 426 844 428 C 841 429 842 425 841 423 C 842 421 842 418 839 418 C 839 420 837 421 836 422 C 837 420 837 419 834 420 L 832 418 C 834 416 836 416 835 413 C 837 413 837 411 838 413 L 842 413 C 841 413 839 413 841 414 C 849 414 840 413 846 410 C 838 410 847 405 834 400 C 837 399 835 399 835 396 C 834 399 833 397 830 396 C 828 393 825 394 822 393 L 820 393 L 821 397 L 816 401 C 814 403 814 404 814 406 C 811 408 815 410 815 412 C 816 417 811 412 811 414 C 812 415 811 416 810 416 C 811 417 809 419 808 418 C 805 418 810 422 809 422 L 807 424 C 807 428 808 425 810 424 C 812 426 812 428 813 431 C 814 433 814 433 815 432 L 816 436 C 818 437 821 434 823 434 C 824 436 826 435 826 434 L 827 435 C 827 435 828 433 828 435 L 830 436 C 834 438 833 445 836 445 L 836 443 C 838 441 838 439 840 442 C 844 441 847 442 848 445 L 853 446 C 855 444 854 447 855 446 L 857 447 C 857 448 860 447 860 449 C 856 451 862 452 859 455 C 858 461 864 455 861 464 L 866 464 L 867 463 C 869 465 872 469 874 466 L 874 461 C 875 459 877 459 877 456 Z"/>
            <path id="AT-75" fill="#7a54a1" stroke="none" d="M 919 417 L 919 418 L 919 417 Z M 950 406 L 946 405 L 943 402 C 939 407 939 400 943 400 L 947 398 C 952 393 940 397 942 393 C 939 391 944 387 947 384 C 946 378 938 383 937 384 L 937 387 C 936 387 934 390 934 388 C 928 386 933 385 932 380 C 928 379 927 373 923 372 C 926 371 922 367 924 366 L 923 364 C 924 361 922 363 921 363 C 921 362 914 364 916 365 C 918 373 913 361 910 362 C 907 363 907 365 908 366 L 905 368 C 902 373 900 365 895 370 C 892 373 897 373 896 375 C 898 378 897 377 894 377 C 892 376 895 380 895 381 C 895 383 899 383 898 385 C 901 386 900 390 902 393 C 901 394 897 393 898 396 L 898 397 L 897 398 L 897 403 L 898 405 L 899 406 L 899 407 C 900 406 901 409 901 408 L 902 409 C 902 409 902 410 902 409 C 903 410 901 411 903 411 C 901 411 903 411 903 412 C 904 413 904 414 906 414 L 906 415 L 907 416 L 908 417 L 909 418 L 910 417 L 914 417 C 915 417 914 417 914 417 L 915 416 L 915 417 L 917 417 C 916 416 917 418 917 417 C 917 415 918 417 919 417 L 920 417 C 925 423 921 413 924 410 C 925 413 927 410 930 412 L 930 409 L 933 409 C 933 411 934 410 934 410 C 938 406 941 413 943 408 L 946 408 L 948 407 L 950 406 Z M 921 418 C 921 418 920 418 921 418 Z M 906 415"/>
            <path id="AT-74" fill="#4e2160" stroke="#231f20" stroke-width="0.4" stroke-linejoin="round" d="M 878 335 C 879 337 881 336 881 336 L 883 339 C 886 340 881 334 881 332 C 880 331 877 334 878 335 Z M 943 325 C 937 314 935 329 929 322 C 924 317 916 332 926 327 C 925 331 923 331 924 334 C 923 333 922 334 924 335 L 921 335 C 917 338 913 330 909 327 C 909 328 909 330 907 330 C 910 331 906 333 906 334 C 903 335 903 340 900 341 C 898 342 899 342 900 343 C 900 345 897 341 895 343 C 894 344 885 346 887 347 C 886 346 883 349 884 351 C 883 353 880 353 880 355 C 878 356 880 357 880 357 L 881 358 L 882 358 L 882 360 L 883 361 C 885 361 883 361 884 362 L 885 363 C 885 363 884 363 885 363 C 884 365 885 363 886 364 L 886 367 L 887 368 L 888 369 L 890 372 L 890 374 L 891 375 L 891 376 L 892 377 L 897 377 C 898 377 895 375 896 374 C 897 373 893 372 894 371 C 897 367 899 368 903 370 C 904 368 910 366 907 364 C 910 356 920 374 916 364 C 916 362 920 365 919 362 C 919 361 922 364 923 362 C 924 362 922 364 924 365 C 923 366 922 367 924 369 C 923 375 933 377 932 384 C 928 388 935 385 934 389 L 935 388 C 938 386 938 385 937 382 C 938 380 938 379 936 376 C 933 379 931 375 931 373 L 933 373 L 933 371 C 933 366 930 365 935 364 C 937 363 935 360 936 360 L 936 358 L 931 350 C 929 351 930 349 928 349 C 926 348 930 348 929 347 C 931 345 929 344 929 343 L 929 342 C 925 338 929 336 932 338 L 932 339 L 933 339 C 934 342 935 337 935 337 C 937 335 942 338 942 334 L 943 333 C 942 332 937 328 941 327 C 943 327 943 326 943 325 Z"/>
            <path id="AT-73" fill="#8a69ad" stroke="#231f20" stroke-width="0.4" stroke-linejoin="round" d="M 953 309 L 949 307 L 946 306 C 949 303 945 297 941 297 C 936 301 932 298 927 296 C 926 297 924 299 923 297 C 910 293 918 302 910 302 C 912 304 910 304 908 305 C 909 306 909 308 907 308 L 907 313 C 908 315 909 316 911 316 L 911 318 L 910 319 C 908 317 909 319 908 320 L 911 322 C 912 324 909 326 910 328 C 912 330 918 338 920 335 C 921 334 925 336 923 334 C 927 336 921 332 924 331 L 925 329 C 929 325 916 330 921 325 C 925 318 927 322 934 325 C 935 316 947 325 941 327 C 936 328 944 334 944 332 L 945 331 L 946 331 L 950 325 C 945 309 950 324 953 309 Z"/>
            <path id="AT-72" fill="#7a54a1" stroke="#231f20" stroke-width="0.4" stroke-linejoin="round" d="M 918 286 C 917 287 918 284 917 284 C 915 285 913 283 913 282 L 908 279 C 909 280 907 281 906 281 C 905 280 905 273 899 276 C 898 277 893 269 893 278 C 901 275 895 288 900 292 C 903 297 907 294 911 301 C 916 302 913 295 917 293 C 917 291 916 287 918 286 Z"/>
            <path id="AT-71" fill="#7b3786" stroke="#231f20" stroke-width="0.4" stroke-linejoin="round" d="M 990 271 C 982 261 985 252 976 246 C 983 245 983 239 976 239 C 975 234 961 236 960 232 C 963 229 958 229 957 227 C 957 221 951 221 951 226 C 950 229 947 225 945 226 C 946 228 942 232 947 230 C 956 230 942 257 947 276 C 950 288 962 285 964 275 C 966 287 983 272 990 271 Z"/>
            <path id="AT-70" fill="#5d4182" stroke="#231f20" stroke-width="0.4" stroke-linejoin="round" d="M 951 232 C 942 226 941 237 938 237 L 936 236 C 936 238 935 238 934 239 C 927 240 928 256 919 257 C 916 248 909 255 906 256 C 904 260 906 268 901 271 C 902 275 897 277 903 276 C 907 278 904 283 908 280 C 909 279 908 280 909 281 L 912 282 C 913 285 918 284 917 285 C 919 286 916 288 917 289 C 918 289 919 293 920 291 L 921 290 C 921 288 922 287 924 286 C 932 283 921 279 931 276 C 953 281 943 258 951 240 C 946 231 945 234 951 232 Z"/>
            <path id="AT-69" fill="#4e2160" stroke="#231f20" stroke-width="0.4" stroke-linejoin="round" d="M 186 471 C 191 474 186 465 184 464 C 188 462 188 460 187 457 C 186 456 186 454 185 455 C 181 458 181 448 177 452 C 173 454 174 447 170 446 L 170 444 C 169 443 170 441 169 442 L 169 444 L 165 445 C 163 446 163 442 161 443 C 158 442 160 445 159 446 L 156 444 L 152 443 L 152 440 C 153 439 152 436 151 437 C 145 433 143 443 143 447 C 113 455 130 466 146 461 C 149 460 145 460 148 458 C 150 458 151 456 152 457 L 154 457 L 156 453 C 157 457 161 456 162 459 C 164 463 168 459 170 458 L 177 461 C 180 462 179 467 183 465 C 184 469 183 469 186 471 Z M 205 468 C 203 463 203 469 199 466 C 197 470 185 470 191 474 C 193 475 190 475 190 475 C 189 477 188 477 186 477 C 187 479 189 480 188 483 C 190 484 189 486 191 486 C 192 488 195 487 194 485 C 197 487 200 485 200 482 L 202 481 C 206 477 199 478 205 468 Z"/>
            <path id="AT-68" fill="#8a69ad" stroke="#231f20" stroke-width="0.4" stroke-linejoin="round" d="M 194 490 C 192 489 195 486 192 487 L 188 483 L 188 480 C 185 476 188 477 190 475 C 192 475 192 474 190 473 L 187 471 C 184 470 183 469 184 467 C 184 463 180 468 180 465 L 179 463 C 178 460 176 461 174 460 C 170 458 169 458 166 461 C 162 462 163 458 161 458 L 156 454 C 155 453 156 454 155 455 C 154 457 152 458 151 457 L 147 459 C 145 459 148 460 147 461 C 145 465 138 460 136 463 C 138 485 139 467 127 491 C 124 496 124 496 129 500 C 126 504 130 503 132 506 C 129 512 132 511 135 515 C 137 518 137 512 139 518 C 142 518 137 510 140 508 L 141 505 C 139 501 146 509 147 505 L 150 504 C 153 502 150 498 156 497 C 156 495 152 494 157 493 C 158 492 160 496 160 493 C 162 493 162 491 163 490 C 166 489 169 489 171 486 C 172 485 173 491 176 488 C 175 492 179 489 181 488 C 183 489 185 494 187 492 C 190 492 187 495 188 495 C 190 495 192 496 193 493 L 195 492 C 193 491 197 490 194 490 Z"/>
            <path id="AT-67" fill="#7a54a1" stroke="#231f20" stroke-width="0.4" stroke-linejoin="round" d="M 210 482 L 207 485 L 203 485 C 201 487 198 485 194 485 C 195 487 190 490 196 490 L 195 493 C 192 491 193 496 191 495 C 188 496 188 494 188 492 C 185 493 183 490 181 488 C 179 488 175 492 176 488 C 175 487 175 489 175 489 C 172 489 173 484 170 487 C 169 489 165 490 163 490 L 159 494 L 156 493 C 151 495 158 495 155 497 C 149 497 153 503 150 504 L 147 505 C 145 509 139 501 141 505 C 139 509 140 515 139 520 C 137 523 143 526 138 528 C 137 535 142 531 146 530 C 150 533 155 532 160 533 C 163 535 166 537 168 534 C 174 535 170 544 172 549 C 176 549 180 553 184 550 C 185 554 189 552 190 553 C 194 555 193 560 198 558 C 200 559 201 564 203 560 C 212 558 193 549 200 545 C 204 543 200 536 204 536 C 204 532 202 532 199 530 C 200 528 206 523 200 523 C 198 519 201 515 203 512 C 205 513 203 511 205 510 C 208 510 206 510 206 508 C 209 507 208 506 206 505 C 207 502 202 500 205 498 L 205 493 C 200 490 211 487 210 482 Z"/>
            <path id="AT-66" fill="#7b3786" stroke="#231f20" stroke-width="0.4" stroke-linejoin="round" d="M 292 453 C 293 452 288 452 290 449 C 294 445 281 442 284 438 C 281 437 279 440 276 439 C 275 436 278 434 281 433 C 282 431 280 433 280 432 C 278 430 277 429 274 430 C 271 431 264 438 263 433 C 261 431 257 432 255 431 C 254 427 248 430 244 429 C 241 428 241 432 241 434 C 237 436 223 436 228 429 C 227 428 230 428 227 427 C 226 429 223 428 223 429 L 223 431 C 229 432 223 441 226 445 C 231 445 229 448 230 451 L 231 454 C 229 454 230 457 227 458 C 227 462 228 462 225 464 C 222 464 223 467 222 469 C 221 470 218 474 219 476 L 215 479 C 213 480 212 482 210 482 C 211 488 200 490 205 493 L 205 498 C 203 500 206 502 206 504 C 207 509 216 502 218 501 C 223 501 224 497 228 500 C 231 499 233 493 232 491 C 233 486 238 487 243 487 C 248 486 247 478 242 477 C 244 473 257 486 256 476 C 254 474 247 471 251 469 C 256 471 254 467 259 467 L 260 465 C 259 463 260 462 261 463 C 265 463 267 462 267 458 C 273 456 272 458 276 461 C 280 466 280 463 284 461 C 285 454 296 462 292 453 Z"/>
            <path id="AT-65" fill="#5d4182" stroke="#231f20" stroke-width="0.4" stroke-linejoin="round" d="M 281 518 C 278 516 278 513 276 510 C 270 508 265 503 261 502 C 264 499 260 496 258 493 C 256 496 255 494 253 493 C 250 490 256 487 247 485 C 233 490 235 481 230 499 C 227 501 224 496 223 500 C 221 501 217 500 216 503 C 213 505 207 505 208 507 C 204 509 208 509 206 510 C 203 512 198 517 200 522 C 207 523 198 529 200 531 C 203 533 206 535 202 537 C 202 540 202 545 198 547 C 207 563 203 559 215 555 C 214 550 213 540 222 545 C 224 542 223 538 226 533 C 229 528 236 531 236 536 C 251 536 237 553 247 554 C 247 556 257 551 253 555 C 257 554 259 550 264 549 C 270 544 271 554 278 553 C 282 558 281 548 282 546 C 282 543 278 543 279 540 C 281 534 276 524 281 518 Z"/>
            <path id="AT-64" fill="#4e2160" stroke="#231f20" stroke-width="0.4" stroke-linejoin="round" d="M 323 471 C 321 471 322 470 321 469 C 321 468 316 469 320 467 C 320 464 316 466 316 464 L 312 465 C 309 465 311 461 309 460 C 307 459 301 457 300 459 L 300 465 C 300 467 298 468 298 466 C 294 468 293 461 295 457 C 296 454 296 450 292 453 C 293 458 292 458 287 458 C 283 460 281 468 276 461 C 272 458 273 456 267 458 C 267 462 265 463 261 463 C 259 462 260 463 260 465 C 258 465 260 467 259 467 C 254 466 257 472 251 469 C 247 472 254 474 256 476 C 258 483 248 479 245 476 C 242 475 242 477 244 479 C 248 478 245 484 248 486 C 256 485 249 492 253 493 C 256 494 256 495 258 494 C 260 497 264 500 261 503 C 266 503 270 508 276 510 C 277 513 282 517 281 519 C 277 523 281 526 279 531 L 279 542 C 284 544 281 549 281 553 C 275 557 275 565 283 559 C 285 560 287 564 289 560 C 292 562 295 564 298 561 C 319 558 305 563 317 549 C 312 544 319 539 316 534 C 317 530 325 531 324 526 C 324 521 312 525 314 518 C 319 509 308 505 307 496 C 306 491 303 487 297 491 C 286 486 298 474 306 483 C 310 479 317 481 319 473 L 322 471 L 323 471 Z"/>
            <path id="AT-63" fill="#8a69ad" stroke="#231f20" stroke-width="0.4" stroke-linejoin="round" d="M 300 451 C 294 449 291 468 298 466 C 298 469 301 466 300 465 L 300 451 Z M 489 407 L 481 398 C 478 396 486 392 481 390 C 470 391 471 379 464 386 C 461 386 456 380 454 379 C 455 373 449 377 447 378 C 437 375 430 389 431 371 C 412 387 435 385 426 397 C 427 393 424 395 422 396 C 420 397 418 395 416 397 L 409 396 C 408 398 407 397 406 396 L 393 400 C 393 405 393 404 397 403 C 399 406 402 412 406 410 C 408 413 408 416 411 418 C 413 418 411 420 412 420 C 410 421 412 421 412 422 C 415 426 404 427 404 433 C 408 431 410 435 410 438 C 415 441 416 446 415 453 C 413 460 422 454 424 452 C 425 451 425 447 428 449 C 431 453 432 447 435 448 C 438 449 438 442 441 447 C 448 445 444 440 451 441 C 457 446 460 439 466 439 C 475 436 463 431 469 429 C 469 425 471 427 473 426 L 475 424 L 476 425 C 478 427 480 422 480 421 C 483 420 485 416 483 413 C 481 410 490 411 489 407 Z"/>
            <path id="AT-62" fill="#7a54a1" stroke="#231f20" stroke-width="0.4" stroke-linejoin="round" d="M 434 487 C 432 479 425 473 426 465 C 426 462 429 458 425 457 C 417 450 414 465 415 446 C 416 442 413 441 411 439 C 408 438 409 431 405 433 C 401 430 413 426 413 423 L 411 421 L 412 418 C 410 417 408 416 407 413 C 407 409 405 409 403 411 L 397 403 C 389 406 396 397 389 402 C 387 401 389 408 386 406 C 379 404 369 410 364 408 C 362 406 363 410 363 410 C 358 408 359 417 359 420 C 355 425 349 424 344 425 C 342 425 342 423 341 426 C 340 428 334 434 339 433 C 343 436 342 442 348 444 C 358 447 364 447 370 440 C 389 440 372 437 386 451 C 384 455 388 455 387 459 C 380 463 391 471 383 474 C 378 473 375 477 378 481 C 377 483 373 485 375 488 C 376 495 381 501 377 508 C 382 512 387 508 391 513 C 397 507 405 506 410 499 L 434 487 Z"/>
            <path id="AT-61" fill="#7b3786" stroke="#231f20" stroke-width="0.4" stroke-linejoin="round" d="M 387 456 C 384 455 386 452 385 450 L 380 444 L 379 444 L 380 441 C 377 438 370 440 367 441 C 365 449 351 446 345 442 C 342 440 343 435 338 437 C 336 437 331 436 331 439 C 330 441 326 441 327 443 C 327 450 315 449 322 442 C 320 441 317 443 314 444 C 306 447 310 450 300 451 C 296 462 310 457 311 465 L 316 464 C 316 466 320 464 320 467 C 316 469 321 468 321 469 C 322 470 321 471 323 471 C 320 471 318 476 316 479 C 311 481 308 480 305 484 C 303 483 303 479 300 480 C 287 481 292 495 304 489 C 304 499 319 507 314 517 C 313 523 320 523 324 524 C 330 522 338 517 344 516 C 347 515 350 522 354 518 C 361 510 357 507 367 513 C 383 505 378 499 374 486 C 380 482 374 476 379 474 C 391 474 381 464 387 456 Z M 330 492 C 323 497 331 482 324 479 L 328 474 L 334 473 C 336 472 340 472 337 471 C 327 469 336 459 335 453 C 339 451 346 456 344 451 C 349 448 352 450 355 451 C 358 448 361 452 365 450 C 364 453 369 454 365 456 C 364 456 360 456 360 459 L 360 460 L 361 463 C 361 464 359 465 361 464 L 363 466 C 360 475 370 482 357 482 C 353 483 352 487 349 483 C 347 482 348 480 346 480 C 345 478 344 476 344 479 C 340 476 346 469 340 472 C 339 472 338 474 340 474 L 337 478 L 336 484 L 330 492 Z"/>
            <path id="AT-60" fill="#5d4182" stroke="#231f20" stroke-width="0.4" stroke-linejoin="round" d="M 367 454 C 365 450 363 451 358 450 C 357 449 356 452 354 451 C 346 446 346 455 336 452 C 334 457 332 463 332 470 C 337 470 340 472 335 473 C 333 474 331 472 328 474 C 324 479 324 478 327 483 C 326 501 331 490 336 483 L 336 478 L 340 474 C 336 474 343 470 344 472 C 341 474 345 482 345 477 L 350 484 L 354 484 C 371 477 361 483 363 466 L 360 464 L 361 463 C 362 462 360 461 360 460 L 360 458 C 362 455 365 457 367 454 Z"/>
            <path id="AT-57" fill="#4e2160" stroke="#231f20" stroke-width="0.4" stroke-linejoin="round" d="M 532 411 C 528 410 527 405 527 403 C 525 408 524 401 522 402 C 521 405 514 401 511 399 C 496 407 505 408 488 409 C 483 414 482 407 483 417 C 483 420 481 420 480 422 C 479 422 479 425 477 425 L 476 424 L 473 426 C 470 426 470 427 468 429 C 464 431 475 437 466 439 C 461 439 457 445 452 441 C 446 439 446 446 441 447 C 439 446 439 444 437 448 C 434 448 432 448 431 450 C 429 452 426 446 425 451 C 419 456 428 456 427 460 C 421 469 431 476 433 485 C 436 490 439 483 442 484 C 450 489 452 481 459 477 C 459 466 470 473 474 467 C 479 470 483 470 487 471 C 491 470 499 478 496 470 C 504 470 507 461 504 454 C 507 448 507 441 507 437 C 513 435 518 429 524 425 C 525 420 527 412 532 411 Z"/>
            <path id="AT-56" fill="#8a69ad" stroke="#231f20" stroke-width="0.4" stroke-linejoin="round" d="M 577 461 C 574 455 569 449 574 444 C 576 437 573 431 570 426 C 570 424 571 422 569 421 C 568 420 570 419 571 419 C 570 417 571 414 569 414 C 567 410 565 414 563 416 C 559 414 554 410 550 414 C 544 422 546 420 538 420 L 537 421 C 536 422 535 421 535 420 C 531 421 534 415 533 413 C 530 407 523 422 524 425 C 518 428 514 435 509 436 C 506 438 506 440 507 443 C 506 449 502 455 506 461 C 496 474 514 473 520 472 C 528 470 530 477 536 479 C 540 474 545 485 548 478 C 550 478 552 478 554 476 L 566 471 C 561 461 573 465 577 461 Z"/>
            <path id="AT-55" fill="#7a54a1" stroke="#231f20" stroke-width="0.4" stroke-linejoin="round" d="M 651 441 C 648 437 642 438 639 434 C 640 435 638 434 638 435 L 638 433 L 631 428 C 632 427 634 426 632 424 C 626 424 628 416 624 418 C 621 426 615 418 613 426 C 610 423 605 426 600 423 C 599 418 599 409 593 406 C 586 409 590 404 594 403 C 590 401 597 395 593 392 C 585 390 578 384 575 381 C 562 377 578 388 559 391 C 558 394 564 400 561 402 C 558 401 560 405 558 403 L 557 404 C 555 403 555 402 555 404 C 555 408 549 402 547 408 C 539 411 530 407 533 420 C 535 420 535 422 536 421 L 537 420 L 541 420 C 543 420 546 421 546 419 L 550 414 C 556 408 562 420 567 413 C 567 411 568 413 568 413 C 571 414 571 416 570 419 C 571 420 568 420 569 421 C 571 423 569 427 572 428 C 575 437 575 442 572 450 C 570 452 583 469 585 463 C 592 459 601 466 608 463 C 611 460 612 466 615 464 L 619 464 C 618 476 630 467 632 478 C 641 474 638 462 643 455 C 638 450 638 448 643 444 C 645 440 650 446 651 441 Z"/>
            <path id="AT-54" fill="#7b3786" stroke="#231f20" stroke-width="0.4" stroke-linejoin="round" d="M 581 368 C 580 363 576 370 574 367 C 570 367 571 360 566 363 C 562 361 555 364 550 361 L 540 351 C 538 348 537 349 537 352 C 535 351 533 352 531 355 C 525 353 529 356 524 360 C 522 362 526 364 528 365 L 529 369 C 533 373 531 377 529 380 C 529 382 531 382 528 383 C 525 384 529 387 529 388 L 527 393 C 529 394 530 397 530 399 C 528 400 527 401 527 403 C 526 415 542 410 546 409 C 548 407 550 404 554 406 C 556 406 554 403 555 403 L 558 404 L 558 403 C 568 401 555 393 560 391 C 578 389 561 375 575 382 C 578 381 577 384 579 384 C 578 378 580 374 581 368 Z"/>
            <path id="AT-53" fill="#5d4182" stroke="#231f20" stroke-width="0.4" stroke-linejoin="round" d="M 588 354 C 584 350 582 347 583 342 C 581 343 581 340 579 340 C 576 343 573 340 569 340 C 566 339 562 340 567 338 C 565 338 565 338 565 336 C 564 337 563 336 563 335 C 566 334 568 335 566 332 L 564 329 C 551 335 564 317 554 323 C 554 327 552 325 552 328 C 551 328 550 325 547 326 C 541 326 541 328 538 323 C 534 320 530 327 533 329 L 532 330 C 532 333 528 330 528 330 L 526 334 L 524 334 C 522 334 523 336 522 336 C 522 336 520 337 521 339 L 524 339 C 524 341 525 341 526 340 C 528 340 528 337 530 340 C 533 341 526 342 528 344 C 531 343 531 346 534 347 L 534 349 C 535 349 534 352 537 352 L 538 351 C 538 346 540 352 542 353 C 546 356 547 360 552 362 C 557 363 562 361 566 364 C 568 362 570 362 571 365 C 580 374 574 360 579 358 C 582 359 582 357 584 356 C 585 354 590 357 588 354 Z"/>
            <path id="AT-52" fill="#4e2160" stroke="#231f20" stroke-width="0.4" stroke-linejoin="round" d="M 554 311 C 553 309 553 310 551 310 C 549 308 546 309 544 307 C 546 305 549 301 549 297 C 548 298 549 293 546 295 C 546 293 546 292 544 291 C 542 289 546 291 544 289 C 544 288 545 284 543 283 L 543 276 C 542 274 538 275 537 272 C 537 271 540 272 538 271 C 532 267 536 274 531 268 C 529 268 530 274 527 272 C 526 270 526 273 525 272 C 523 272 522 270 519 271 C 520 270 519 269 518 270 C 517 271 514 273 512 272 L 511 267 C 508 260 495 283 501 278 C 501 276 503 277 504 277 C 504 276 503 275 505 274 C 507 274 507 278 509 277 C 513 274 513 281 516 281 C 518 281 516 283 514 284 C 515 285 516 284 514 285 L 513 286 L 511 286 L 512 287 L 512 288 C 513 290 511 290 510 292 C 511 293 511 294 514 294 C 513 291 515 294 515 294 L 516 296 C 516 297 519 297 516 298 C 513 298 519 299 517 301 C 517 303 514 307 518 307 C 532 302 522 313 526 312 C 529 309 526 313 527 315 C 528 316 525 316 526 317 C 528 318 524 324 523 321 C 521 322 524 327 520 327 C 519 326 519 328 517 328 C 517 329 520 332 522 330 C 523 331 522 337 525 334 C 527 334 527 330 528 330 L 531 331 C 532 329 532 330 533 330 L 534 328 C 528 326 538 318 540 326 C 550 329 542 318 544 314 C 548 311 550 315 552 316 C 555 317 552 313 554 311 Z"/>
            <path id="AT-51" fill="#8a69ad" stroke="#231f20" stroke-width="0.4" stroke-linejoin="round" d="M 528 311 C 519 314 530 308 525 306 C 522 305 513 310 517 303 L 517 299 C 517 299 514 298 516 297 C 519 297 517 297 516 296 L 515 294 C 515 294 514 291 513 293 C 511 295 508 291 512 290 C 512 289 511 288 513 287 L 512 287 C 511 286 511 284 513 286 C 512 284 514 285 515 285 C 516 285 513 284 515 284 C 518 282 516 282 514 280 C 513 275 508 279 506 275 C 503 274 504 277 504 277 L 501 277 C 497 281 489 276 486 288 C 466 300 498 319 506 326 C 509 331 522 349 521 337 C 522 336 524 332 522 331 L 521 331 C 520 332 516 328 518 328 L 519 326 L 522 327 C 524 325 521 323 523 321 C 524 324 528 318 525 317 C 529 315 526 314 528 311 Z"/>
            <path id="AT-50" fill="#7a54a1" stroke="#231f20" stroke-width="0.4" stroke-linejoin="round" d="M 535 351 C 534 350 535 348 534 349 L 534 347 C 532 347 531 345 532 345 C 530 344 526 344 528 343 C 528 341 532 341 530 340 C 528 336 526 343 523 339 L 521 339 C 521 344 516 339 514 338 C 515 343 509 350 508 354 C 509 353 510 353 510 355 L 510 356 C 510 358 507 358 507 361 C 506 363 509 363 509 364 L 514 363 C 517 364 518 361 520 360 L 523 361 C 524 359 527 358 527 356 C 527 352 530 358 535 351 Z M 510 399 C 511 397 509 397 508 397 L 507 397 L 506 395 C 505 392 502 395 501 394 C 499 393 496 391 496 389 L 498 386 C 496 385 498 384 499 383 C 503 382 494 380 493 378 C 491 377 493 377 494 375 C 495 371 493 375 491 375 C 490 372 484 373 481 374 C 479 374 480 376 479 376 L 477 376 C 472 374 470 384 471 388 C 474 390 478 389 481 390 C 486 392 478 396 481 398 C 485 401 488 409 492 408 C 494 408 500 408 501 405 C 503 401 508 402 510 399 Z"/>
            <path id="AT-49" fill="#7b3786" stroke="#231f20" stroke-width="0.4" stroke-linejoin="round" d="M 547 242 C 548 239 550 235 552 234 C 547 227 545 238 547 242 Z M 595 285 L 589 280 L 589 277 C 587 279 585 278 584 277 C 583 279 581 277 579 278 C 574 280 576 273 575 270 L 576 267 L 574 266 C 572 266 570 261 567 264 C 565 263 566 265 564 265 C 562 264 566 263 563 263 C 563 260 561 261 559 259 C 560 258 561 257 559 257 C 561 255 560 255 560 254 L 562 253 L 561 251 L 556 251 C 555 249 558 248 555 246 C 551 247 551 245 549 244 C 542 243 526 262 510 265 C 512 267 511 271 512 272 C 516 272 519 268 520 271 L 522 271 C 523 271 523 273 525 272 C 527 272 526 270 527 272 C 531 273 529 267 531 268 C 533 270 533 272 535 270 C 536 271 540 271 537 272 C 538 276 546 272 543 282 C 543 284 545 283 545 286 C 543 289 546 291 544 290 L 546 294 C 549 294 548 298 550 297 C 554 295 553 297 553 292 L 559 286 L 567 283 C 568 282 570 281 571 282 C 572 282 574 280 574 283 C 577 282 577 290 580 287 L 582 289 L 582 290 L 585 290 L 586 291 C 588 292 588 289 588 289 C 589 287 591 287 590 285 L 595 285 Z"/>
            <path id="AT-48" fill="#5d4182" stroke="#231f20" stroke-width="0.4" stroke-linejoin="round" d="M 622 334 C 618 332 619 329 618 327 C 615 328 615 325 616 324 C 612 321 613 319 617 319 C 619 318 612 317 615 315 C 616 313 618 313 618 310 L 619 310 C 618 305 613 310 612 305 C 612 299 609 304 607 306 C 605 308 607 303 604 307 L 601 307 L 600 308 C 598 304 595 302 595 299 C 595 298 597 297 596 295 C 596 293 599 288 597 290 C 595 288 594 291 593 291 C 589 290 587 294 585 290 C 585 289 584 290 585 290 L 583 290 C 581 289 581 286 580 287 C 577 290 579 284 576 285 C 576 283 574 283 573 282 L 569 282 L 566 283 C 564 286 560 285 558 287 C 556 290 552 291 553 295 C 553 298 553 294 551 296 C 548 298 549 302 546 305 C 542 308 548 308 551 309 C 552 310 554 309 554 311 L 553 316 C 550 317 549 310 544 314 C 542 316 545 319 545 321 C 544 330 550 323 551 329 C 554 328 550 326 554 326 C 554 325 553 323 556 322 C 563 318 552 334 563 329 C 567 330 569 335 563 335 C 563 337 566 335 565 338 C 570 337 565 338 565 339 C 569 339 575 343 580 340 C 581 342 585 342 582 344 C 581 348 585 348 585 350 C 585 349 590 356 587 355 C 584 354 583 359 580 358 C 576 358 575 370 580 366 C 583 371 577 376 578 381 C 577 391 608 395 609 389 C 613 382 612 370 602 371 C 601 364 601 357 604 352 C 607 342 618 348 617 340 C 617 337 620 337 622 334 Z"/>
            <path id="AT-47" fill="#4e2160" stroke="#231f20" stroke-width="0.4" stroke-linejoin="round" d="M 618 254 C 617 254 618 252 616 253 L 613 252 C 610 251 603 254 604 249 C 604 243 616 247 613 244 C 613 243 608 243 609 241 L 609 238 C 607 237 607 235 605 236 L 602 232 C 600 234 598 235 595 233 C 594 232 593 229 594 228 C 597 227 591 229 594 226 C 595 223 592 226 592 225 L 592 223 C 589 228 584 221 585 218 L 580 215 C 579 214 578 211 577 212 C 577 213 578 216 576 215 L 573 215 C 572 216 572 215 572 214 L 566 213 L 563 214 L 559 215 C 556 216 558 211 556 209 C 558 206 551 197 551 204 C 552 205 549 206 550 207 C 549 207 548 206 548 208 C 541 207 545 210 547 215 C 543 241 558 225 546 242 C 545 245 550 243 550 245 L 551 246 C 557 247 556 246 556 251 L 561 251 C 562 251 560 253 562 253 L 560 254 C 560 255 561 255 559 257 C 562 258 560 258 559 259 C 561 261 563 260 563 263 C 566 263 562 264 564 265 C 566 265 565 263 567 264 C 570 262 571 264 573 266 L 577 263 L 578 260 C 579 262 581 262 580 259 C 582 261 583 257 584 261 C 584 266 585 263 587 264 C 588 265 591 262 591 264 C 592 265 595 266 593 267 C 593 267 593 271 594 270 C 596 269 597 272 599 270 L 600 266 C 599 265 598 264 600 262 C 601 260 608 259 609 257 L 610 259 C 611 256 612 260 613 256 C 614 257 614 257 615 255 C 617 255 618 257 618 254 Z"/>
            <path id="AT-46" fill="#8a69ad" stroke="#231f20" stroke-width="0.4" stroke-linejoin="round" d="M 641 267 C 639 267 639 266 638 265 C 636 265 639 261 639 260 C 635 259 639 250 632 253 C 625 251 632 247 627 247 C 626 251 620 246 619 244 C 619 246 619 246 617 247 C 619 247 616 248 617 249 C 616 250 616 248 615 248 L 614 247 L 614 250 C 614 250 613 252 615 253 C 618 253 616 251 618 254 C 618 256 617 256 615 255 C 614 256 614 257 613 256 C 612 260 611 256 610 259 L 609 257 C 608 259 602 260 600 263 C 598 264 599 266 600 266 C 598 267 600 267 599 269 C 599 271 597 270 595 270 C 593 271 591 267 594 267 C 590 261 588 267 586 263 C 583 266 585 256 582 260 C 580 259 581 260 580 261 C 579 262 578 259 578 262 L 577 263 C 578 264 575 265 574 266 L 576 267 L 575 268 C 575 271 573 281 580 277 C 581 278 583 279 584 277 L 589 277 C 590 278 588 280 590 281 L 595 285 L 590 285 C 589 285 592 288 588 288 C 588 289 586 293 588 292 C 590 289 593 293 594 290 L 597 289 C 599 290 596 294 596 296 C 597 297 595 298 595 298 C 595 299 595 302 596 301 L 600 308 L 603 308 C 606 306 604 305 607 307 C 609 306 609 302 612 303 C 614 313 616 303 619 310 C 618 310 619 312 617 312 L 615 315 C 612 317 616 317 618 319 C 613 319 613 321 615 324 C 615 327 617 327 618 328 C 618 332 623 333 620 336 C 618 337 617 338 617 340 C 617 347 644 346 640 337 C 636 336 636 332 635 331 C 633 331 632 330 632 328 C 630 326 633 327 634 326 L 641 321 C 642 314 633 314 628 314 C 627 311 624 308 627 308 C 630 305 634 309 633 303 C 633 301 635 298 634 297 C 632 297 631 296 631 295 C 630 293 629 293 630 291 C 630 288 626 293 628 287 C 626 279 633 285 633 280 C 632 277 636 278 636 274 C 637 275 639 276 640 273 C 638 274 636 274 639 271 L 641 267 Z"/>
            <path id="AT-45" fill="#7a54a1" stroke="#231f20" stroke-width="0.4" stroke-linejoin="round" d="M 691 336 C 684 330 690 333 689 326 C 680 316 674 321 676 305 C 673 304 671 304 669 302 C 667 302 661 304 662 301 C 661 300 663 300 663 299 C 660 298 661 293 663 292 C 658 289 659 284 663 281 C 663 272 665 281 668 275 C 664 275 664 272 661 271 C 660 270 659 270 660 269 L 660 265 C 659 264 657 263 656 260 C 655 259 652 261 654 258 L 655 257 L 653 256 C 651 257 650 260 649 257 C 648 256 648 261 646 260 L 645 261 C 641 259 640 256 637 263 C 637 265 638 265 639 266 L 641 267 C 638 269 642 269 639 272 C 637 274 638 274 640 273 C 640 274 638 277 636 275 C 635 273 636 279 634 277 C 633 280 633 284 630 282 C 627 282 628 285 628 287 C 628 291 627 290 630 290 L 630 293 C 631 295 631 297 634 297 C 635 299 633 301 633 303 C 634 309 629 305 627 308 C 624 308 626 309 627 311 C 626 316 632 313 635 314 C 639 315 641 318 641 321 C 639 321 637 322 636 324 C 633 328 629 325 633 330 C 633 332 635 330 636 331 C 633 335 646 340 638 341 C 632 345 644 349 642 356 C 643 357 643 358 645 357 C 668 342 655 353 673 354 C 679 348 687 344 691 336 Z"/>
            <path id="AT-44" fill="#7b3786" stroke="#231f20" stroke-width="0.4" stroke-linejoin="round" d="M 718 319 C 712 319 717 308 714 312 C 707 312 701 305 696 312 C 696 307 696 300 702 300 C 701 297 703 295 704 293 C 701 292 705 290 704 290 C 702 288 699 290 698 289 C 699 288 694 286 696 284 C 694 283 694 286 691 285 C 688 284 678 282 683 280 C 687 280 683 278 685 275 C 687 273 685 270 683 268 C 681 269 682 268 683 267 L 682 263 L 681 260 L 681 258 C 680 258 680 255 679 256 C 678 259 677 257 675 256 C 675 256 677 256 676 255 C 673 251 679 247 678 241 C 675 240 669 244 667 242 C 666 241 662 239 664 242 C 662 243 663 244 662 245 C 659 244 660 247 657 247 C 657 250 654 250 656 252 C 650 258 656 254 654 258 C 652 261 656 259 656 261 C 658 263 657 264 660 265 C 660 266 658 268 660 268 C 659 270 660 270 661 271 C 664 272 664 275 667 275 C 667 279 662 275 664 279 L 660 285 C 658 286 660 288 659 289 C 662 291 662 293 661 296 C 659 298 664 298 662 299 C 660 301 663 304 665 302 C 678 303 676 306 676 315 L 680 320 C 684 317 681 322 684 322 C 696 324 691 314 702 325 C 705 322 711 324 713 318 C 714 318 719 322 718 319 Z"/>
            <path id="AT-43" fill="#5d4182" stroke="#231f20" stroke-width="0.4" stroke-linejoin="round" d="M 733 217 C 729 213 734 212 730 210 C 729 208 728 207 726 208 C 725 207 725 211 723 209 C 724 207 722 206 722 204 C 720 205 720 200 718 201 C 720 203 717 202 717 204 C 715 204 713 206 713 208 L 711 211 L 710 212 L 709 215 C 707 217 705 215 705 218 C 704 219 702 220 700 219 C 699 221 698 220 696 220 C 694 221 693 227 692 225 C 690 223 686 230 684 228 C 681 232 681 226 680 226 L 679 226 C 677 226 675 228 674 229 C 676 229 671 230 672 232 C 670 235 671 231 670 233 C 669 235 671 238 674 238 C 672 241 677 241 678 241 C 679 247 673 251 676 255 C 675 257 677 256 678 258 C 679 258 680 255 681 256 C 681 258 685 253 687 256 C 688 252 691 255 688 251 C 687 241 700 257 701 248 C 701 245 704 249 706 247 C 717 241 720 227 730 238 C 728 237 726 234 729 232 L 729 229 C 731 227 729 223 728 221 L 733 217 Z"/>
            <path id="AT-42" fill="#4e2160" stroke="#231f20" stroke-width="0.4" stroke-linejoin="round" d="M 636 229 Z M 719 202 L 712 197 C 710 197 710 194 709 194 C 704 195 717 183 708 184 C 705 185 705 184 704 183 C 701 181 698 180 695 181 C 694 179 692 182 692 183 L 688 179 C 687 178 685 180 685 178 C 681 182 681 172 678 176 C 677 177 677 175 676 174 L 675 173 C 674 172 674 173 673 174 L 671 176 C 670 180 669 175 666 177 L 665 176 C 665 175 663 178 663 176 L 661 174 L 659 173 L 658 172 C 654 173 659 177 656 181 C 656 185 654 182 652 183 C 651 183 650 183 651 185 L 656 189 C 657 190 658 187 659 189 C 660 190 658 193 657 192 L 654 192 C 659 194 649 199 654 201 C 655 202 656 202 654 204 L 652 205 L 647 202 C 645 203 643 204 647 205 C 649 207 643 208 645 210 C 641 211 643 208 641 212 C 640 211 639 212 638 213 C 640 213 638 216 638 215 C 637 213 634 212 634 215 L 634 217 L 635 219 C 634 218 633 217 632 218 L 628 219 L 629 223 L 629 224 L 630 225 L 631 226 C 633 228 636 222 637 229 L 638 229 L 639 224 C 641 223 642 223 642 221 L 645 221 C 646 223 645 221 646 221 C 648 221 647 225 648 226 L 651 226 L 653 227 L 654 227 L 653 228 L 654 229 L 656 229 C 645 240 686 248 670 235 C 669 236 670 231 671 233 L 674 229 C 676 229 673 229 675 228 L 677 226 L 681 226 C 681 231 683 229 684 228 C 686 229 686 227 687 227 C 692 222 692 227 693 224 C 694 222 696 219 699 221 C 699 218 701 220 703 220 L 706 216 C 707 217 710 214 710 212 L 711 211 L 711 210 C 713 209 713 207 713 207 C 714 205 715 204 717 204 C 716 202 719 204 719 202 Z"/>
            <path id="AT-41" fill="#8a69ad" stroke="#231f20" stroke-width="0.4" stroke-linejoin="round" d="M 660 189 L 657 189 L 653 187 C 652 185 650 189 649 187 C 648 187 647 188 648 189 L 646 191 C 645 193 645 189 644 190 L 641 189 L 638 188 L 637 188 C 635 188 635 190 633 188 L 629 187 C 627 187 626 189 625 188 L 621 188 L 620 189 C 618 191 618 188 617 188 C 615 188 614 191 614 188 C 608 187 613 185 610 184 C 605 185 607 180 611 180 C 612 175 609 177 607 175 C 608 174 605 175 606 174 L 604 172 L 599 172 C 594 169 581 157 582 170 L 580 174 L 581 175 L 582 176 L 584 176 L 585 178 L 583 178 L 584 185 L 585 187 L 586 189 L 585 192 L 585 194 L 584 194 C 584 196 586 196 585 198 C 583 200 582 205 580 201 C 578 203 581 203 579 205 C 581 207 579 207 579 209 C 577 210 584 217 585 214 C 586 213 585 214 585 214 L 586 216 C 591 218 593 221 596 219 C 601 218 602 217 605 224 C 617 214 617 247 632 236 C 635 236 634 233 636 232 C 637 232 638 235 639 233 C 640 231 641 233 641 231 C 640 229 643 229 640 227 C 639 228 638 225 638 228 C 639 230 634 229 637 229 C 638 225 634 225 632 227 C 632 225 631 226 630 225 L 629 224 L 629 223 C 628 222 627 219 628 218 L 633 218 C 635 220 637 218 634 217 L 634 215 L 636 213 L 638 215 C 640 214 638 213 639 212 C 641 211 643 212 642 210 C 645 212 644 210 645 208 C 652 204 641 205 647 202 L 652 205 C 653 203 654 205 654 203 C 657 201 650 200 654 196 C 654 195 658 194 654 192 C 656 190 658 194 660 189 Z M 636 229 Z"/>
            <path id="AT-00" fill="#7a54a1" stroke="#231f20" stroke-width="0.4" stroke-linejoin="round" d="M 663 241 C 657 238 650 234 656 230 L 655 229 L 653 229 L 654 228 C 655 227 654 226 653 227 C 652 225 650 226 648 225 C 647 227 648 221 646 221 L 646 222 C 645 220 643 221 642 221 C 642 223 639 223 639 226 C 639 228 641 227 642 229 L 641 232 C 620 241 626 239 610 221 C 606 223 605 228 603 221 C 601 212 596 225 586 215 L 585 214 C 581 215 572 207 566 205 C 561 204 554 204 556 209 C 558 211 556 214 558 215 L 559 215 L 562 214 L 565 213 L 567 213 C 569 215 570 213 572 214 C 574 214 571 216 573 215 C 577 214 576 217 578 212 C 580 216 585 216 586 221 C 586 224 589 227 592 223 L 592 225 L 594 225 C 593 227 593 228 595 228 C 593 229 594 231 594 232 C 602 239 600 225 604 236 L 606 236 L 609 239 C 608 241 611 243 613 243 C 615 247 611 244 609 245 C 606 246 602 248 605 252 L 612 251 C 614 253 615 250 613 249 C 613 244 617 252 617 248 L 618 247 L 619 244 C 620 246 626 251 627 248 C 628 246 631 249 629 249 C 627 251 632 253 632 253 C 638 250 636 258 638 259 C 640 258 642 260 644 261 C 645 261 645 262 646 260 C 648 260 647 258 649 257 C 651 261 653 255 655 254 C 658 251 654 251 656 249 L 657 247 L 660 245 L 662 245 C 662 243 665 242 663 241 Z"/>
            <path id="AT-39" fill="#7b3786" stroke="#231f20" stroke-width="0.4" stroke-linejoin="round" d="M 756 176 C 755 174 753 171 750 173 C 750 172 749 170 748 171 C 743 169 751 160 747 159 L 747 157 L 749 156 L 750 155 C 748 155 747 154 749 153 C 752 152 749 148 747 150 C 745 149 746 147 744 147 C 744 146 743 143 745 143 C 745 145 750 145 750 144 C 751 143 750 139 752 139 L 752 137 C 753 136 751 137 751 136 C 750 136 748 139 746 136 C 746 134 745 136 744 135 C 741 135 739 130 735 129 C 734 123 731 130 731 132 C 726 127 716 128 714 134 C 712 132 707 135 708 137 C 713 138 712 141 710 143 L 703 142 C 701 142 700 140 698 142 C 697 141 693 141 692 143 C 693 144 694 146 693 148 C 694 150 693 150 692 152 C 690 156 685 157 686 162 L 687 168 L 687 178 C 685 178 685 179 687 179 C 688 178 689 180 690 181 L 692 183 C 693 184 693 178 695 181 C 698 180 701 181 704 183 C 705 184 706 185 708 184 C 715 184 708 190 708 194 C 709 195 709 192 710 195 L 715 199 C 716 201 719 200 720 202 C 722 202 720 199 721 198 C 724 197 725 195 725 192 C 727 191 721 191 726 189 C 728 190 732 186 733 187 C 734 190 736 188 737 187 L 738 188 C 739 189 742 187 742 189 C 742 191 745 188 746 187 C 746 185 742 186 744 184 C 745 181 750 185 748 181 C 748 178 758 185 753 180 C 753 175 756 183 756 176 Z"/>
            <path id="AT-38" fill="#5d4182" stroke="#231f20" stroke-width="0.4" stroke-linejoin="round" d="M 779 108 C 775 107 774 103 767 104 C 765 99 762 99 758 99 C 753 100 751 95 746 95 C 744 96 741 99 740 96 C 736 95 741 105 736 102 C 733 102 731 103 730 106 C 728 105 728 106 727 107 C 725 108 728 101 725 101 C 726 94 718 101 714 99 C 714 94 711 99 708 97 L 707 98 L 705 99 C 707 100 707 100 706 102 C 702 107 710 115 709 122 C 707 123 709 126 710 127 C 710 128 708 132 709 135 C 714 134 715 133 717 130 C 721 128 727 128 729 131 C 732 133 731 127 734 127 C 734 130 738 130 741 133 C 742 134 742 135 744 135 C 745 136 746 134 747 136 C 748 139 750 136 751 136 L 752 137 L 752 139 C 753 140 751 140 750 141 C 751 142 749 144 749 144 C 748 146 745 145 744 143 C 744 146 743 147 746 148 C 745 150 748 149 750 149 C 749 153 753 150 748 154 C 749 156 751 155 753 154 C 755 153 758 156 759 153 C 758 151 758 152 760 150 C 759 149 760 148 761 148 C 761 146 763 149 766 148 C 766 146 767 147 768 147 L 769 146 C 769 143 765 143 765 141 C 766 138 763 139 763 137 C 768 137 764 131 764 129 C 767 124 773 131 772 123 C 773 121 769 120 772 119 L 774 118 L 776 117 C 778 110 770 111 779 108 Z"/>
            <path id="AT-37" fill="#4e2160" stroke="#231f20" stroke-width="0.4" stroke-linejoin="round" d="M 850 171 C 849 169 849 166 845 166 C 845 160 843 164 840 164 C 840 161 840 157 836 158 C 836 157 837 155 835 155 C 832 153 829 154 830 150 C 834 148 834 147 830 146 C 831 146 832 144 831 142 C 826 132 820 140 819 130 C 816 126 818 128 814 127 C 812 127 814 123 812 124 L 806 127 C 805 125 801 126 801 127 C 799 126 797 124 794 125 C 794 124 793 122 791 123 C 790 123 792 125 790 124 L 786 123 C 781 121 787 120 781 118 L 778 119 C 777 117 775 117 775 118 L 771 120 C 773 121 773 123 772 124 C 773 125 773 126 771 127 C 769 127 764 126 764 130 C 764 132 767 137 763 137 C 764 142 770 133 771 138 C 774 142 773 138 777 139 C 779 139 776 141 778 140 C 779 142 782 140 779 140 L 781 140 C 782 138 785 140 783 138 C 786 141 781 134 786 136 L 788 137 C 789 137 787 135 789 135 L 790 136 C 791 134 794 135 795 134 C 791 138 799 137 799 141 C 796 142 802 145 800 147 C 800 149 802 147 802 147 C 805 154 798 151 805 155 C 805 165 814 160 816 161 C 813 162 817 165 818 163 L 820 165 C 821 170 823 166 826 166 C 826 170 828 168 830 169 C 827 170 830 174 832 174 C 834 176 839 177 842 174 C 844 175 845 173 846 172 C 848 174 850 172 850 171 Z"/>
            <path id="AT-36" fill="#8a69ad" stroke="#231f20" stroke-width="0.4" stroke-linejoin="round" d="M 790 191 C 790 188 789 190 786 189 C 785 188 788 187 785 188 C 783 187 777 189 778 184 C 771 190 774 187 770 185 C 769 184 771 181 768 180 C 765 180 760 183 760 184 C 760 186 758 184 756 186 C 755 187 757 189 754 189 C 755 192 753 193 751 191 C 751 190 749 188 749 190 L 748 190 L 742 189 C 743 187 740 188 739 188 C 735 186 738 187 735 189 C 732 185 729 190 726 189 L 724 190 C 726 191 725 192 725 194 C 724 196 724 197 721 198 C 721 201 720 204 722 204 L 723 208 C 724 212 724 209 726 208 C 728 208 727 206 730 208 C 729 211 733 211 731 214 C 734 219 732 217 728 221 C 730 223 729 226 730 228 C 729 228 727 231 729 232 C 726 234 729 235 729 237 L 747 239 C 745 226 769 231 772 222 C 778 207 779 224 784 217 C 785 216 781 214 781 212 C 781 211 780 208 782 207 C 786 207 778 204 781 201 C 783 201 778 199 786 199 L 790 191 Z"/>
            <path id="AT-35" fill="#7a54a1" stroke="#231f20" stroke-width="0.4" stroke-linejoin="round" d="M 810 191 C 806 189 803 189 802 187 C 800 188 796 182 799 181 C 800 178 806 183 805 179 C 807 175 801 175 805 173 C 806 172 805 173 805 173 C 807 174 806 172 805 171 C 802 170 807 169 805 167 C 803 166 804 165 803 163 L 808 162 C 804 158 805 155 802 153 C 801 151 804 152 803 150 C 803 148 802 147 801 148 C 801 147 801 145 799 144 C 798 141 801 139 796 138 C 791 136 797 134 794 134 L 790 135 C 789 134 789 135 788 136 C 788 138 788 136 787 137 C 782 133 785 137 784 139 L 783 138 C 785 139 782 139 781 140 C 777 139 783 140 779 141 C 778 140 777 140 778 139 C 777 139 774 138 774 140 C 773 141 771 139 770 137 C 767 135 763 140 766 142 C 770 144 770 147 766 147 L 762 147 L 760 149 C 758 149 760 150 760 151 C 757 152 759 152 759 154 C 757 156 751 153 749 156 C 751 157 747 157 746 158 C 748 160 749 163 746 167 C 744 175 756 170 756 176 C 757 182 752 176 753 179 C 752 180 757 182 753 182 L 749 180 C 748 181 747 181 748 182 C 747 184 745 181 744 184 C 748 188 743 188 745 190 L 749 190 C 750 188 751 191 752 192 C 754 193 754 191 755 189 C 757 189 755 187 756 186 C 757 184 761 186 760 184 L 763 181 C 765 182 766 179 768 180 C 771 181 769 184 770 185 L 772 185 C 771 187 774 188 775 187 C 779 181 777 188 782 187 L 787 188 C 786 188 785 188 786 189 C 788 190 790 187 790 190 C 792 193 786 195 787 199 C 780 200 782 199 781 202 C 779 207 786 202 787 204 C 790 204 792 200 795 200 L 800 202 C 803 199 806 197 804 193 L 810 191 Z"/>
            <path id="AT-34" fill="#7b3786" stroke="#231f20" stroke-width="0.4" stroke-linejoin="round" d="M 885 191 C 881 184 876 180 868 182 L 867 181 C 870 183 864 183 863 181 C 861 183 857 185 857 179 C 857 178 854 176 856 174 C 851 170 845 173 839 176 C 836 176 826 173 830 169 L 826 166 C 820 169 821 165 818 164 C 813 165 817 160 815 161 C 812 163 803 159 804 166 C 806 167 806 169 804 170 L 806 173 L 805 172 C 805 173 802 174 805 175 C 806 176 806 180 804 181 C 802 181 801 179 798 181 C 796 182 800 187 802 187 C 804 190 809 191 813 188 C 816 189 820 195 820 191 C 822 189 825 188 823 192 C 822 192 819 192 821 194 L 822 194 C 824 198 818 195 817 198 C 817 200 815 203 816 205 C 815 209 815 205 817 206 C 820 208 820 203 823 204 C 829 200 824 212 829 205 C 831 206 831 204 832 206 L 836 206 C 838 207 839 205 840 205 C 842 206 840 206 840 206 C 841 207 842 207 841 208 C 838 210 845 207 844 210 L 845 211 C 845 212 845 215 848 214 C 850 217 854 210 856 207 C 857 205 845 202 854 199 C 860 202 858 196 859 195 C 861 197 863 197 865 196 C 867 199 873 198 873 202 C 875 202 877 199 876 199 C 876 198 880 197 878 196 C 882 194 883 190 885 191 Z"/>
            <path id="AT-33" fill="#5d4182" stroke="#231f20" stroke-width="0.4" stroke-linejoin="round" d="M 799 222 L 797 222 C 797 220 795 222 794 220 L 790 220 L 791 221 C 789 221 787 217 787 216 C 786 217 781 217 784 219 C 781 219 779 220 780 217 C 772 213 773 228 762 228 C 743 229 749 243 743 238 C 705 231 731 234 704 247 C 699 250 696 252 690 247 C 689 248 688 250 689 252 L 690 253 C 688 253 688 258 686 255 C 684 254 683 256 681 257 C 681 256 681 255 680 256 L 681 259 C 680 260 681 261 682 262 L 683 266 L 682 269 C 685 268 687 273 685 275 C 683 278 687 280 683 280 C 678 282 689 284 691 285 C 693 286 694 282 696 285 C 695 286 698 288 698 289 C 699 290 703 288 704 290 L 703 292 C 703 292 705 294 703 294 C 702 300 694 303 695 312 C 701 304 708 314 715 311 C 716 310 713 319 718 319 C 718 328 730 317 733 320 C 736 326 741 323 744 318 C 747 315 756 313 754 307 C 750 306 755 305 753 304 C 750 303 748 299 747 304 C 747 302 746 304 745 303 C 744 301 743 302 741 304 C 738 304 743 300 740 299 C 739 299 737 299 737 297 L 740 288 C 743 288 744 285 746 285 C 748 286 747 283 746 283 C 743 282 740 284 739 284 C 743 280 737 284 739 278 C 737 275 735 278 733 278 L 728 278 C 726 280 726 275 726 274 C 729 273 728 271 727 269 L 729 268 L 730 268 C 729 266 732 268 731 266 C 732 266 734 267 733 265 L 734 265 C 737 266 731 260 735 260 C 735 258 738 261 738 260 C 737 259 739 256 737 255 C 739 255 737 254 738 253 C 737 252 739 251 740 251 C 740 253 743 253 744 252 C 745 249 742 248 746 246 L 746 243 L 747 244 C 744 242 749 241 749 240 C 747 239 749 239 750 239 C 751 238 749 238 749 238 C 749 236 752 236 753 236 C 755 236 754 232 755 233 C 757 234 761 236 760 239 L 762 239 C 768 231 769 232 776 237 C 776 238 776 239 778 239 C 779 239 777 242 780 241 L 784 240 L 786 238 L 784 238 C 785 237 786 236 787 237 C 792 232 785 238 789 232 C 790 230 794 232 794 230 C 794 229 794 228 795 229 C 795 231 802 231 799 228 C 796 228 800 225 799 222 Z"/>
            <path id="AT-32" fill="#4e2160" stroke="#231f20" stroke-width="0.4" stroke-linejoin="round" d="M 802 234 C 804 233 801 228 800 231 C 797 231 796 230 795 228 C 794 233 791 229 788 232 C 788 234 786 235 789 235 L 787 237 L 785 237 L 785 239 C 784 240 779 242 778 240 L 777 239 C 772 235 769 228 761 239 L 759 239 C 763 237 754 230 754 234 C 754 237 753 235 751 236 C 750 236 748 238 750 238 C 751 239 748 239 748 239 C 750 241 744 241 747 244 C 744 242 746 246 745 247 C 742 247 745 250 744 252 L 741 252 C 740 250 739 251 738 252 C 737 252 738 252 738 252 L 738 254 C 737 255 740 254 738 255 L 738 260 L 735 260 C 733 261 735 263 735 264 C 736 265 734 265 734 265 L 733 265 C 734 267 732 266 731 266 L 729 268 C 729 269 726 267 728 270 C 727 271 730 273 726 273 L 727 279 L 729 277 L 733 278 C 735 277 739 276 739 278 C 738 285 742 279 740 284 C 740 284 745 281 746 283 C 748 286 746 284 745 285 L 740 288 C 740 292 734 298 739 299 C 743 299 739 302 740 304 L 744 302 L 746 303 L 747 303 C 747 303 749 299 749 302 C 757 304 749 310 756 304 C 763 302 765 311 771 309 C 773 307 770 306 771 304 C 771 299 776 301 780 301 C 781 298 779 294 783 295 L 786 292 C 788 290 794 292 793 289 C 796 275 782 283 791 273 C 789 267 796 269 798 264 C 795 260 802 259 800 256 C 797 255 799 252 798 251 L 801 247 C 800 245 802 245 799 245 C 794 243 803 241 800 239 L 802 238 L 802 234 Z"/>
            <path id="AT-31" fill="#8a69ad" stroke="#231f20" stroke-width="0.4" stroke-linejoin="round" d="M 841 258 C 840 256 841 253 839 251 C 838 252 838 251 838 250 L 836 247 C 838 243 833 248 835 242 C 831 239 830 240 826 242 C 825 239 819 243 820 240 L 819 238 C 821 236 820 236 819 235 C 822 233 821 232 820 231 C 821 230 818 229 820 229 L 817 227 C 816 226 816 223 815 224 C 811 222 812 220 816 219 C 814 219 818 213 820 216 C 821 217 823 214 824 215 C 826 215 826 213 829 214 L 828 210 C 828 209 825 211 825 209 C 831 198 819 206 815 207 C 816 202 815 200 818 196 C 823 197 824 195 820 193 C 820 191 822 192 823 192 C 823 191 825 190 823 189 C 816 197 816 182 809 191 C 800 194 808 195 801 201 C 800 202 795 201 796 200 C 793 200 791 203 788 204 C 784 204 778 203 783 207 C 781 208 779 211 781 213 C 782 214 785 216 784 217 L 785 217 C 788 214 787 220 791 221 C 793 222 788 219 791 220 C 793 220 796 220 797 222 C 801 221 797 227 798 228 C 802 229 798 230 799 231 C 802 228 803 232 801 234 C 802 236 803 236 802 237 L 800 239 C 800 240 802 240 799 242 C 794 247 802 244 801 248 C 793 251 804 257 797 261 C 800 268 790 267 792 270 C 790 273 791 276 788 278 C 791 281 794 281 794 287 C 795 290 790 297 795 299 C 797 298 797 296 798 299 C 800 302 805 292 811 295 C 816 293 821 288 816 285 C 815 284 818 282 816 281 C 816 275 821 277 818 269 C 819 262 822 271 825 270 C 829 264 839 265 841 258 Z"/>
            <path id="AT-30" fill="#7a54a1" stroke="#231f20" stroke-width="0.4" stroke-linejoin="round" d="M 871 211 C 871 208 868 206 868 205 C 870 204 868 205 868 203 L 869 200 L 868 198 C 866 199 865 195 864 197 C 861 199 860 195 859 195 C 859 201 856 199 852 200 C 851 201 850 202 852 203 C 860 207 852 210 851 213 C 850 215 844 214 845 211 C 844 211 843 211 844 209 C 843 207 838 210 841 207 C 839 203 840 208 836 206 L 832 206 C 831 204 831 206 829 205 C 828 207 825 208 825 210 C 826 210 829 209 828 211 C 828 212 830 214 828 214 C 826 213 826 214 825 215 C 823 214 822 216 820 216 C 818 212 815 219 815 219 C 809 221 814 223 816 224 C 815 227 821 228 820 229 L 820 231 C 822 233 820 234 819 235 C 821 236 820 237 818 238 L 821 242 C 825 240 827 242 831 239 C 834 245 839 237 842 235 C 845 234 841 233 843 233 L 842 232 L 847 226 C 852 225 848 221 856 225 C 859 225 859 220 862 223 C 863 224 864 222 864 221 L 866 217 C 866 215 871 215 871 211 Z"/>
            <path id="AT-28" fill="#7b3786" stroke="#231f20" stroke-width="0.4" stroke-linejoin="round" d="M 911 303 C 909 294 903 297 900 291 C 895 288 900 278 894 277 C 888 277 890 285 886 287 C 887 288 886 289 887 288 C 887 290 885 290 885 291 C 880 291 886 293 881 294 C 876 297 881 299 879 299 L 878 302 C 879 303 876 305 875 304 C 874 303 876 304 874 305 C 874 307 872 306 870 307 C 868 308 869 312 866 311 C 864 312 864 313 861 312 C 858 314 859 314 856 314 C 852 316 851 320 852 325 C 855 328 857 319 860 330 C 869 330 868 340 872 339 C 874 339 871 337 874 338 C 874 337 875 334 877 335 C 879 333 882 329 885 331 L 888 336 C 890 335 888 338 889 338 C 890 342 898 343 900 343 C 898 341 901 341 901 340 C 903 338 904 334 906 335 L 911 323 C 911 321 908 320 907 319 L 909 319 C 908 317 910 319 911 318 L 910 317 C 912 316 910 315 909 316 C 904 312 908 306 911 303 Z"/>
            <path id="AT-27" fill="#5d4182" stroke="#231f20" stroke-width="0.4" stroke-linejoin="round" d="M 894 274 C 893 270 890 273 893 269 C 889 267 883 273 885 261 L 882 261 C 881 260 880 259 879 260 C 879 264 870 265 872 266 L 872 267 L 870 266 C 868 267 869 265 868 264 C 871 261 857 270 859 263 C 859 262 860 258 857 261 C 855 264 857 257 856 259 L 853 261 C 853 262 850 263 851 261 C 851 257 844 259 841 258 C 841 260 840 261 838 262 C 836 262 832 274 836 273 C 837 274 836 279 835 281 C 838 282 838 284 838 286 C 838 292 840 288 841 291 C 840 294 847 296 850 295 C 853 296 856 298 855 292 C 857 290 860 287 864 290 L 865 288 L 867 288 C 869 288 871 289 872 286 C 880 290 878 281 883 283 C 878 286 882 292 884 285 L 886 287 C 890 283 890 278 894 274 Z"/>
            <path id="AT-26" fill="#4e2160" stroke="#231f20" stroke-width="0.4" stroke-linejoin="round" d="M 887 289 L 887 288 C 886 287 884 284 884 286 C 878 295 884 276 880 283 C 878 291 873 282 870 288 C 869 289 867 287 867 289 C 865 288 865 289 864 290 C 861 288 859 289 857 290 L 855 292 L 854 296 C 851 295 842 296 840 292 C 842 289 838 291 839 289 C 838 286 839 282 836 281 L 836 274 C 836 273 832 273 834 271 C 836 268 835 266 836 264 C 833 264 828 265 827 269 C 823 273 822 265 819 267 L 818 270 C 818 271 821 272 819 273 C 819 277 813 278 817 282 C 814 287 822 286 816 292 C 819 295 818 298 819 301 C 821 305 828 310 830 304 C 835 305 834 318 839 317 C 841 315 846 314 847 316 C 846 319 850 318 852 317 C 853 318 853 316 854 315 C 856 314 857 313 859 315 C 860 312 862 312 864 313 C 865 310 869 313 869 308 C 871 306 874 307 874 305 L 875 303 C 877 305 876 303 878 303 L 879 299 C 881 299 880 298 879 297 C 879 294 885 294 883 292 L 885 291 L 887 289 Z M 896 259 C 898 256 892 258 891 257 C 892 255 897 252 893 252 C 892 254 888 253 890 255 L 890 256 L 885 258 C 884 256 884 257 883 258 C 883 259 885 258 884 259 C 882 261 885 261 885 263 C 881 270 896 271 889 262 C 885 257 897 265 896 259 Z"/>
            <path id="AT-25" fill="#8a69ad" stroke="#231f20" stroke-width="0.4" stroke-linejoin="round" d="M 901 238 C 896 239 893 235 888 234 C 887 232 887 238 885 236 C 876 237 890 228 881 231 C 878 231 877 231 875 233 C 872 232 873 234 871 234 C 869 234 867 231 867 233 L 865 233 L 864 235 C 862 237 860 228 857 233 C 855 233 857 229 855 229 C 854 226 857 225 856 225 C 854 223 848 222 849 226 C 848 226 847 225 846 227 L 842 232 C 843 234 844 234 842 235 C 839 238 834 241 834 244 C 835 246 837 244 836 247 C 836 248 839 250 838 251 C 839 252 841 254 840 257 C 842 262 852 255 851 262 C 852 264 852 259 854 261 C 855 259 857 258 856 260 C 855 264 861 257 859 261 C 859 267 860 267 864 265 C 866 263 870 263 868 264 C 869 265 867 267 870 266 L 873 267 C 868 265 878 265 880 260 C 883 260 882 262 884 258 L 883 258 C 884 255 884 258 885 258 L 890 256 C 889 254 891 253 894 252 C 895 255 896 252 898 251 C 901 249 897 246 897 245 C 899 244 899 241 901 238 Z"/>
            <path id="AT-24" fill="#7a54a1" stroke="#231f20" stroke-width="0.4" stroke-linejoin="round" d="M 986 218 C 979 213 974 224 976 211 C 972 210 976 206 975 205 C 976 204 970 202 972 201 L 971 199 C 968 200 961 194 958 196 C 954 192 955 200 953 201 C 952 203 951 201 950 203 C 944 198 949 210 943 207 C 940 209 938 211 935 208 C 932 212 927 211 925 213 C 924 209 919 211 917 210 C 913 210 918 215 915 216 C 916 224 910 223 908 226 C 909 231 898 239 898 245 L 896 246 C 903 251 894 252 891 257 C 895 258 898 257 896 262 C 893 261 886 259 889 262 C 890 264 894 269 891 271 L 894 273 C 894 275 899 273 897 275 C 899 281 906 263 905 260 C 907 258 905 257 906 255 C 910 257 913 249 917 254 C 926 265 927 238 934 238 C 936 236 937 237 940 238 C 939 235 942 232 944 231 C 945 228 944 225 948 227 C 953 229 951 222 955 222 L 958 228 C 958 229 963 229 961 230 C 959 232 959 232 961 233 C 1001 249 974 239 986 218 Z"/>
            <path id="AT-23" fill="#7a54a1" fill-rule="evenodd" stroke="#231f20" stroke-width="0.4" stroke-linecap="round" stroke-linejoin="round" d="M 901 238 L 895 237 C 890 235 888 235 886 236 L 883 236 L 882 233 C 883 231 882 231 880 231 L 874 233 L 868 233 C 867 233 866 233 865 235 C 863 236 863 236 862 234 C 861 232 860 232 858 232 C 857 233 856 232 856 230 L 856 225 L 858 224 L 859 223 L 861 222 C 862 223 863 222 864 221 L 866 217 L 868 215 L 871 216 L 874 218 L 880 219 L 887 218 L 892 217 C 897 218 897 218 900 215 L 906 210 C 908 209 909 209 913 211 C 916 212 916 212 915 213 L 912 214 L 913 215 L 915 218 C 915 220 913 223 909 228 C 905.995117 231.04834 903.314453 234.399414 901 238 Z M 928 211 C 922.804199 211.740723 917.51123 210.682129 913 208 C 910 206 909 205 909 202 L 909 196 L 912 194 L 915 194 L 919 193 L 925 197 C 928 200 929 201 933 201 C 936 201 938 200 940 198 C 942 195 942 195 942 197 C 942 198 943 199 945 199 L 948 201 L 947 204 C 946 207 945 208 943 208 C 938.002441 209.012695 933.002441 210.012695 928 211 Z"/>
            <path id="AT-22" fill="#5d4182" stroke="#231f20" stroke-width="0.4" stroke-linejoin="round" d="M 960 195 C 955 180 946 174 937 165 C 936 161 938 156 935 151 C 938 149 937 143 940 142 C 942 135 944 137 940 126 C 938 123 940 120 936 120 C 937 117 936 117 935 115 L 935 112 C 935 111 933 112 933 110 C 934 109 933 107 932 106 C 932 104 929 105 928 104 C 927 107 922 106 920 108 L 915 108 C 914 112 915 112 919 112 C 915 119 921 113 923 114 C 930 114 929 121 929 123 C 935 131 922 132 918 133 C 915 132 911 130 912 135 C 916 140 913 142 910 146 C 907 148 911 151 909 151 C 909 150 907 151 908 152 C 906 155 903 154 900 156 L 902 161 C 902 164 906 160 905 163 C 905 167 913 170 904 170 C 905 172 902 171 901 173 C 900 175 903 181 899 178 C 902 176 896 177 899 175 L 898 174 C 892 173 887 168 888 178 C 885 182 891 179 892 181 C 888 183 894 183 894 188 L 897 189 C 902 192 897 184 903 187 C 902 190 904 192 906 190 C 908 192 907 196 912 195 L 914 197 C 913 192 924 192 924 197 C 926 198 925 201 930 200 C 934 202 935 200 939 199 C 941 200 940 193 942 195 C 942 202 945 200 948 200 C 949 201 949 205 950 203 C 958 200 950 196 960 195 Z"/>
            <path id="AT-21" fill="#4e2160" stroke="#231f20" stroke-width="0.4" stroke-linejoin="round" d="M 930 124 C 927 123 930 120 929 116 C 926 116 921 111 920 115 C 914 118 922 110 916 112 C 914 112 916 107 912 106 L 910 105 C 901 111 908 102 901 99 C 894 103 887 95 885 99 C 872 102 879 98 874 112 C 873 112 873 114 872 113 L 871 115 C 869 116 868 114 867 113 L 865 124 C 860 124 860 131 861 134 C 861 142 869 135 869 142 C 869 146 865 147 868 151 C 869 152 867 153 867 154 C 869 156 869 157 872 157 C 872 155 873 156 874 157 L 875 159 C 880 159 877 163 878 166 C 879 168 877 166 876 166 C 876 168 872 168 875 171 C 871 168 869 171 871 175 C 867 176 867 185 874 181 C 879 183 882 186 886 192 L 886 191 C 887 190 888 190 887 189 C 888 188 886 183 888 184 C 893 184 889 183 892 181 C 890 180 885 182 888 178 C 887 167 893 173 899 174 C 900 174 897 176 899 176 C 901 177 898 179 901 179 C 900 173 903 172 904 170 L 908 169 C 911 170 902 160 902 161 L 900 156 C 902 155 904 153 906 154 C 908 155 908 148 909 152 C 911 150 907 149 909 146 C 913 143 915 140 912 135 C 911 131 914 132 917 133 C 921 131 932 133 930 124 Z"/>
        </g>
    </g>
</svg>
